<svg width="661" height="661" viewBox="0 0 661 661" fill="none" xmlns="http://www.w3.org/2000/svg">
<path d="M360.094 0.236412C388.074 -0.123588 416.054 -0.00358406 444.024 0.146416C444.114 4.09642 444.144 8.03642 444.124 11.9764C456.074 12.2364 468.034 11.8064 479.984 12.1664C480.034 16.0964 480.094 20.0264 480.154 23.9664C488.104 24.1764 496.064 23.9764 504.024 24.1264C504.064 28.0764 504.104 32.0164 504.144 35.9664C512.074 36.1664 520.014 35.9164 527.954 36.1664C528.004 40.1264 528.054 44.0764 528.124 48.0264C532.064 48.0764 536.014 48.1064 539.974 48.1064C540.044 52.0764 540.094 56.0464 540.094 60.0164C544.044 60.0664 547.994 60.1364 551.944 60.2264C552.004 64.1564 552.044 68.0764 552.074 72.0064C560.014 72.3164 567.964 71.9564 575.914 72.2064C575.984 76.1664 576.054 80.1364 576.134 84.0964C580.064 84.1464 583.994 84.1764 587.934 84.2064C588.094 92.1564 587.884 100.106 588.064 108.056C591.994 108.146 595.934 108.236 599.884 108.306C599.974 112.226 599.994 116.146 599.944 120.066C539.964 120.166 479.994 120.076 420.014 120.126C420.014 116.126 420.014 112.116 420.014 108.116C412.014 108.116 404.014 108.116 396.014 108.116C396.014 112.116 396.014 116.116 396.014 120.126C380.014 120.136 364.014 120.156 348.014 120.086C348.004 116.096 348.014 112.106 348.014 108.116C344.014 108.116 340.014 108.116 336.014 108.116C336.014 104.116 336.014 100.116 336.014 96.1164C332.014 96.1164 328.014 96.1164 324.014 96.1164C324.014 100.116 324.014 104.116 324.014 108.116C320.014 108.116 316.014 108.116 312.014 108.116C312.014 128.116 312.014 148.116 312.014 168.116C308.014 168.116 304.014 168.116 300.014 168.116C300.014 164.116 300.014 160.116 300.014 156.116C296.014 156.116 292.014 156.116 288.014 156.116C288.014 152.116 288.014 148.116 288.014 144.116C284.014 144.116 280.014 144.116 276.014 144.116C276.014 140.116 276.014 136.116 276.014 132.116C272.014 132.116 268.014 132.116 264.014 132.116C264.014 140.116 264.014 148.116 264.014 156.116C256.014 156.116 248.014 156.116 240.024 156.126C240.014 160.116 240.014 164.116 240.014 168.116C232.014 168.116 224.014 168.116 216.024 168.126C216.014 172.116 216.014 176.116 216.014 180.116C212.014 180.116 208.014 180.116 204.014 180.116C204.014 176.116 204.004 172.116 204.014 168.126C196.004 168.046 188.004 168.336 180.014 167.876C180.094 164.036 180.154 160.186 180.214 156.346C184.134 156.306 188.044 156.226 191.964 156.106C192.084 152.176 192.174 148.246 192.224 144.306C196.134 144.276 200.054 144.196 203.964 144.086C204.304 136.166 204.034 128.246 204.204 120.326C208.094 120.286 211.984 120.226 215.874 120.136C215.994 116.186 216.094 112.226 216.154 108.276C220.084 108.186 224.014 108.116 227.944 108.076C227.994 104.136 228.064 100.196 228.134 96.2564C232.084 96.1864 236.024 96.1164 239.974 96.0364C240.004 92.1164 240.064 88.1864 240.134 84.2664C244.074 84.1964 248.014 84.1164 251.954 84.0264C251.994 80.0764 252.034 76.1364 252.084 72.1864C256.014 72.1564 259.944 72.0864 263.884 71.9864C263.934 68.0564 263.994 64.1264 264.084 60.1964C268.014 60.1364 271.944 60.0564 275.874 59.9764C275.934 56.0364 276.004 52.1064 276.104 48.1764C280.084 48.0964 284.064 48.0264 288.044 47.9564C288.194 44.1064 288.254 40.2464 288.224 36.3864C296.104 36.2664 303.994 36.1164 311.874 35.9564C311.934 32.0264 312.004 28.0864 312.064 24.1464C320.004 23.9164 327.944 24.1664 335.884 23.9964C335.914 20.0364 335.974 16.0764 336.084 12.1164C344.024 11.9064 351.964 12.1664 359.914 11.9764C359.954 8.05642 360.014 4.14641 360.094 0.236412ZM240.014 108.116C240.014 112.116 240.014 116.116 240.014 120.116C248.014 120.116 256.014 120.116 264.014 120.116C264.014 116.116 264.014 112.116 264.014 108.116C256.014 108.116 248.014 108.116 240.014 108.116Z" fill="#FFF2EB"/>
<path d="M324.014 96.1172C328.014 96.1172 332.014 96.1172 336.014 96.1172C336.014 100.117 336.014 104.117 336.014 108.117C340.014 108.117 344.014 108.117 348.014 108.117C348.014 112.107 348.004 116.097 348.014 120.087C348.024 136.097 348.014 152.107 348.014 168.117C336.014 168.117 324.014 168.117 312.014 168.117C312.014 148.117 312.014 128.117 312.014 108.117C316.014 108.117 320.014 108.117 324.014 108.117C324.014 104.117 324.014 100.117 324.014 96.1172Z" fill="#A23F16"/>
<path d="M240.014 108.117C248.014 108.117 256.014 108.117 264.014 108.117C264.014 112.117 264.014 116.117 264.014 120.117C256.014 120.117 248.014 120.117 240.014 120.117C240.014 116.117 240.014 112.117 240.014 108.117Z" fill="#A23F16"/>
<path d="M396.014 108.117C404.014 108.117 412.014 108.117 420.014 108.117C420.014 112.117 420.014 116.127 420.014 120.127C412.014 120.117 404.014 120.127 396.014 120.127C396.014 116.117 396.014 112.117 396.014 108.117Z" fill="#A23F16"/>
<path d="M264.014 132.117C268.014 132.117 272.014 132.117 276.014 132.117C276.014 136.117 276.014 140.117 276.014 144.117C280.014 144.117 284.014 144.117 288.014 144.117C288.014 148.117 288.014 152.117 288.014 156.117C292.014 156.117 296.014 156.117 300.014 156.117C300.014 160.117 300.014 164.117 300.014 168.117C300.004 172.117 300.014 176.117 300.014 180.117C296.004 180.117 292.004 180.117 288.004 180.117C284.004 180.117 280.004 180.117 276.014 180.117C276.014 176.117 276.014 172.117 276.014 168.117C272.014 168.117 268.014 168.107 264.014 168.117C264.014 164.117 264.014 160.117 264.014 156.117C264.014 148.117 264.014 140.117 264.014 132.117Z" fill="#A23F16"/>
<path d="M384.014 132.105C388.004 132.105 392.014 132.105 396.014 132.105C396.014 140.105 396.014 148.105 396.014 156.115C396.014 160.115 396.014 164.115 396.014 168.115C392.004 168.115 388.014 168.115 384.014 168.115C384.014 172.115 384.014 176.115 384.014 180.115C380.024 180.115 376.044 180.115 372.064 180.115C368.044 180.115 364.034 180.115 360.014 180.115C360.014 176.115 360.014 172.115 360.014 168.115C360.014 164.115 360.014 160.115 360.014 156.115C364.014 156.105 368.004 156.105 372.014 156.115C372.004 152.115 372.004 148.115 372.014 144.115C376.004 144.105 380.004 144.105 384.014 144.115C384.004 140.105 384.004 136.105 384.014 132.105Z" fill="#A23F16"/>
<path d="M348.014 120.084C364.014 120.154 380.014 120.134 396.014 120.124C404.014 120.124 412.014 120.114 420.014 120.124C479.994 120.074 539.964 120.164 599.944 120.064C603.944 120.014 607.954 120.074 611.964 120.204C612.044 124.174 612.064 128.144 612.024 132.114C611.994 136.114 612.004 140.114 612.014 144.114C615.994 144.114 619.974 144.114 623.964 144.114C623.994 148.074 624.054 152.034 624.144 155.994C628.094 156.094 632.054 156.154 636.014 156.154C636.014 160.144 636.024 164.124 636.004 168.114C635.944 172.094 635.974 176.064 636.114 180.044C640.024 180.134 643.934 180.204 647.854 180.244C648.244 192.174 647.684 204.114 648.104 216.044C652.024 216.134 655.954 216.214 659.894 216.304C659.954 220.254 659.944 224.194 659.894 228.144C603.934 228.044 547.984 228.194 492.034 228.094C488.514 228.094 484.994 228.124 481.484 228.294C480.924 227.734 480.384 227.184 479.844 226.634C479.994 223.134 480.024 219.624 480.034 216.114C476.024 216.114 472.014 216.114 468.014 216.114C468.014 212.114 468.014 208.114 468.014 204.114C472.004 204.114 476.004 204.114 480.014 204.104C480.014 192.114 480.014 180.114 480.014 168.114C472.014 168.114 464.014 168.114 456.024 168.114C456.014 172.114 456.014 176.114 456.014 180.114C452.014 180.114 448.014 180.114 444.014 180.114C444.014 176.114 444.004 172.114 444.004 168.114C436.014 168.104 428.014 168.114 420.014 168.114C420.014 164.114 420.004 160.114 420.014 156.114C412.014 156.104 404.014 156.104 396.014 156.114C396.014 148.104 396.014 140.104 396.014 132.104C392.014 132.104 388.004 132.104 384.014 132.104C384.004 136.104 384.004 140.104 384.014 144.114C380.004 144.104 376.004 144.104 372.014 144.114C372.004 148.114 372.004 152.114 372.014 156.114C368.004 156.104 364.014 156.104 360.014 156.114C360.014 160.114 360.014 164.114 360.014 168.114C356.014 168.114 352.014 168.114 348.014 168.114C348.014 152.104 348.024 136.094 348.014 120.084Z" fill="#FFF6F0"/>
<path d="M240.023 156.127C248.013 156.117 256.013 156.117 264.013 156.117C264.013 160.117 264.013 164.117 264.013 168.117C260.013 168.117 256.013 168.117 252.013 168.107C248.013 168.087 244.013 168.127 240.023 168.197C240.013 172.157 240.003 176.127 239.993 180.097C236.003 180.107 232.013 180.117 228.023 180.127C228.013 184.127 228.003 188.117 228.013 192.117C224.013 192.117 220.013 192.117 216.013 192.117C216.013 196.117 216.013 200.117 216.013 204.117C212.013 204.117 208.023 204.117 204.023 204.107C200.013 204.097 196.013 204.107 192.003 204.117C188.003 204.137 184.003 204.127 180.003 204.117C179.993 200.117 179.993 196.117 180.003 192.127C180.003 188.117 180.003 184.117 179.993 180.117C179.973 176.037 179.983 171.957 180.013 167.877C188.003 168.337 196.003 168.047 204.013 168.127C204.003 172.117 204.013 176.117 204.013 180.117C208.013 180.117 212.013 180.117 216.013 180.117C216.013 176.117 216.013 172.117 216.023 168.127C224.013 168.117 232.013 168.117 240.013 168.117C240.013 164.117 240.013 160.117 240.023 156.127ZM192.123 180.277C191.963 184.187 191.953 188.107 192.083 192.017C196.043 192.187 200.003 192.187 203.963 192.007C204.043 188.207 204.463 184.317 203.483 180.597C199.763 179.657 195.893 180.157 192.123 180.277Z" fill="#FDC251"/>
<path d="M396.013 156.117C404.013 156.107 412.013 156.107 420.013 156.117C420.003 160.117 420.013 164.117 420.013 168.117C428.013 168.117 436.013 168.107 444.003 168.117C444.003 172.117 444.013 176.117 444.013 180.117C448.013 180.117 452.013 180.117 456.013 180.117C456.013 176.117 456.013 172.117 456.023 168.117C464.013 168.117 472.013 168.117 480.013 168.117C480.013 180.117 480.013 192.117 480.013 204.107C476.003 204.117 472.003 204.117 468.013 204.117C464.013 204.107 460.003 204.107 456.013 204.117C452.003 204.117 448.013 204.117 444.013 204.117C444.013 200.117 444.013 196.117 444.013 192.117C440.013 192.117 436.013 192.117 432.013 192.117C432.013 188.117 432.013 184.127 432.003 180.127C428.003 180.117 424.013 180.107 420.033 180.097C420.013 176.117 419.993 172.137 419.983 168.157C415.993 168.117 412.003 168.097 408.013 168.107C404.003 168.117 400.003 168.117 396.013 168.117C396.013 164.117 396.013 160.117 396.013 156.117Z" fill="#FDC251"/>
<path d="M168.085 168.205C172.055 168.155 176.035 168.025 180.015 167.875C179.985 171.955 179.975 176.035 179.995 180.115C175.995 180.075 171.995 180.065 168.005 180.085C167.975 184.095 167.975 188.115 167.995 192.125C171.995 192.145 175.995 192.145 180.005 192.125C179.995 196.115 179.995 200.115 180.005 204.115C184.005 204.125 188.005 204.135 192.005 204.115C191.995 208.115 192.005 212.115 192.005 216.115C187.995 216.095 183.985 216.105 179.975 216.105C179.965 219.795 180.005 223.485 180.315 227.165C176.315 228.335 172.125 228.225 168.015 228.115C168.015 232.115 168.005 236.105 168.015 240.115C164.015 240.105 160.015 240.115 156.015 240.115C156.015 252.115 156.015 264.115 156.015 276.115C152.015 276.115 148.015 276.115 144.015 276.115C144.015 280.115 144.015 284.105 144.005 288.105C124.015 288.175 104.025 288.145 84.0345 288.095C83.9745 284.135 84.0245 280.185 84.1745 276.235C88.0945 276.185 92.0045 276.115 95.9245 276.025C95.9445 272.075 96.0345 268.135 96.1745 264.195C100.085 264.165 103.985 264.115 107.885 264.045C107.935 260.085 108.025 256.145 108.155 252.195C112.045 252.135 115.945 252.065 119.845 251.985C120.165 244.075 119.855 236.155 120.135 228.245C124.035 228.155 127.935 228.065 131.845 227.985C131.925 224.085 132.005 220.175 132.085 216.275C136.015 216.115 139.945 216.015 143.885 215.975C143.935 212.055 144.015 208.145 144.125 204.235C148.035 204.135 151.945 204.055 155.865 203.995C156.155 196.085 155.745 188.175 156.125 180.265C159.975 180.215 163.825 180.045 167.665 179.755C167.925 175.905 168.065 172.055 168.085 168.205Z" fill="#FFF8F5"/>
<path d="M240.024 168.197C244.014 168.127 248.014 168.087 252.014 168.107C252.014 172.107 252.014 176.107 252.014 180.117C260.014 180.117 268.014 180.117 276.014 180.117C280.004 180.117 284.004 180.117 288.004 180.117C288.014 184.117 288.014 188.117 288.024 192.117C284.014 192.117 280.014 192.117 276.014 192.117C272.014 192.117 268.014 192.117 264.014 192.117C264.014 196.117 264.014 200.117 264.014 204.117C260.014 204.117 256.014 204.117 252.014 204.117C248.014 204.117 244.014 204.117 240.014 204.117C240.014 208.117 240.014 212.117 240.014 216.117C236.014 216.117 232.014 216.117 228.014 216.117C228.014 220.117 228.014 224.117 228.014 228.117C224.014 228.117 220.014 228.117 216.014 228.117C216.014 232.117 216.014 236.117 216.014 240.117C212.014 240.117 208.014 240.117 204.014 240.117C204.014 244.117 204.014 248.117 204.014 252.117C200.014 252.117 196.014 252.117 192.014 252.117C192.014 256.117 192.014 260.117 192.014 264.117C188.014 264.117 184.014 264.117 180.014 264.117C180.014 268.117 180.014 272.117 180.014 276.117C180.014 280.117 180.014 284.117 180.014 288.117C176.014 288.117 172.014 288.117 168.014 288.117C168.004 292.117 168.014 296.117 168.024 300.117C168.054 304.167 168.024 308.227 167.814 312.277C163.974 311.887 160.094 312.447 156.284 311.867C155.544 308.007 156.114 304.037 156.024 300.127C152.014 300.127 148.004 300.127 144.004 300.127C143.994 296.117 143.994 292.117 144.004 288.107C144.014 284.107 144.014 280.117 144.014 276.117C148.014 276.117 152.014 276.117 156.014 276.117C156.014 264.117 156.014 252.117 156.014 240.117C160.014 240.117 164.014 240.107 168.014 240.117C168.004 236.107 168.014 232.117 168.014 228.117C172.124 228.227 176.314 228.337 180.314 227.167C180.004 223.487 179.964 219.797 179.974 216.107C183.984 216.107 187.994 216.097 192.004 216.117C195.994 216.127 199.974 216.127 203.964 216.117C204.014 212.117 204.034 208.107 204.024 204.107C208.024 204.117 212.014 204.117 216.014 204.117C220.014 204.117 224.014 204.117 228.014 204.117C228.014 200.117 228.014 196.117 228.014 192.117C228.004 188.117 228.014 184.127 228.024 180.127C232.014 180.117 236.004 180.107 239.994 180.097C240.004 176.127 240.014 172.157 240.024 168.197ZM179.694 229.197C180.104 232.817 180.044 236.477 180.014 240.117C184.024 240.117 188.034 240.117 192.054 240.117C196.034 240.117 200.024 240.117 204.014 240.107C204.014 236.107 204.014 232.107 204.014 228.117C200.024 228.117 196.034 228.107 192.054 228.127C188.394 228.157 184.724 228.207 181.084 227.797C180.604 228.247 180.144 228.717 179.694 229.197Z" fill="#E27535"/>
<path d="M300.014 168.117C304.014 168.117 308.014 168.117 312.014 168.117C324.014 168.117 336.014 168.117 348.014 168.117C352.014 168.117 356.014 168.117 360.014 168.117C360.014 172.117 360.014 176.117 360.014 180.117C340.014 180.117 320.014 180.117 300.014 180.117C300.014 176.117 300.004 172.117 300.014 168.117Z" fill="#E27535"/>
<path d="M408.014 168.108C412.004 168.098 415.994 168.118 419.984 168.158C419.994 172.138 420.014 176.118 420.034 180.098C424.014 180.108 428.004 180.118 432.004 180.128C432.014 184.128 432.014 188.118 432.014 192.118C432.004 196.118 432.014 200.118 432.014 204.118C436.014 204.118 440.014 204.118 444.014 204.118C448.014 204.118 452.004 204.118 456.014 204.118C456.004 208.118 456.014 212.108 456.034 216.118C460.024 216.118 464.014 216.128 468.014 216.118C472.014 216.118 476.024 216.118 480.034 216.118C480.024 219.628 479.994 223.138 479.844 226.638C480.384 227.188 480.924 227.738 481.484 228.298C484.994 228.128 488.514 228.098 492.034 228.098C492.024 232.098 492.024 236.098 492.024 240.108C496.024 240.098 500.014 240.098 504.014 240.108C504.034 252.118 504.014 264.128 504.014 276.138C504.014 280.128 504.014 284.118 504.014 288.108C508.014 288.118 512.014 288.118 516.024 288.118C516.004 292.118 516.004 296.118 516.014 300.118C512.014 300.118 508.014 300.118 504.014 300.118C504.014 304.118 504.014 308.118 504.014 312.118C500.004 312.118 496.004 312.118 492.004 312.118C492.014 308.118 492.014 304.118 492.014 300.118C492.014 296.118 492.014 292.118 492.014 288.118C488.004 288.118 484.004 288.128 480.004 288.088C480.004 284.088 480.004 280.088 480.014 276.088C480.014 272.098 480.014 268.108 480.014 264.118C476.014 264.118 472.014 264.118 468.014 264.118C468.004 260.118 468.004 256.118 468.014 252.118C464.004 252.118 460.004 252.118 456.004 252.118C456.014 248.118 456.014 244.118 456.014 240.118C452.014 240.118 448.014 240.118 444.014 240.118C444.014 236.118 444.014 232.118 444.014 228.118C440.014 228.118 436.014 228.108 432.014 228.118C432.014 224.118 432.014 220.118 432.014 216.118C428.014 216.118 424.014 216.118 420.014 216.118C420.004 212.118 420.004 208.118 420.014 204.118C416.004 204.118 412.004 204.118 408.004 204.118C404.004 204.118 400.004 204.118 396.014 204.128C396.014 200.118 396.014 196.118 396.014 192.118C392.004 192.118 387.994 192.118 383.994 192.118C379.984 192.118 375.984 192.118 371.984 192.118C372.014 188.118 372.044 184.118 372.064 180.118C376.044 180.118 380.024 180.118 384.014 180.118C388.034 180.118 392.044 180.118 396.074 180.118C400.044 180.118 404.024 180.118 408.014 180.118C408.014 176.108 408.014 172.108 408.014 168.108ZM456.014 228.118C456.004 232.118 456.014 236.118 456.014 240.118C464.014 240.118 472.004 240.118 480.014 240.118C479.974 236.478 479.904 232.818 480.334 229.198C479.874 228.708 479.404 228.248 478.944 227.798C471.314 228.478 463.654 227.958 456.014 228.118Z" fill="#E27535"/>
<path d="M132.004 312.107C139.794 312.477 147.754 311.397 155.434 312.647C156.784 316.227 155.754 320.327 156.024 324.117C155.994 332.117 156.024 340.117 156.014 348.127C152.014 348.117 148.014 348.117 144.014 348.117C144.014 360.117 144.014 372.117 144.014 384.117C144.014 400.107 144.014 416.097 144.014 432.087C144.014 436.097 144.014 440.107 144.014 444.117C144.014 452.117 144.014 460.117 144.014 468.117C148.014 468.117 152.014 468.117 156.014 468.117C156.014 476.117 156.014 484.117 156.014 492.117C156.014 500.117 156.014 508.117 156.014 516.117C160.014 516.117 164.014 516.117 168.014 516.117C168.014 520.117 168.014 524.117 168.014 528.117C168.014 532.107 168.014 536.107 168.014 540.117C172.014 540.117 176.014 540.117 180.014 540.117C180.014 544.117 180.014 548.117 180.014 552.117C180.014 556.117 180.014 560.107 180.014 564.117C184.014 564.107 188.014 564.107 192.014 564.117C192.014 568.107 192.014 572.107 192.014 576.117C196.014 576.107 200.014 576.107 204.014 576.117C204.014 580.107 204.014 584.107 204.014 588.117C208.014 588.117 212.014 588.117 216.014 588.117C216.014 592.117 216.014 596.117 216.014 600.117C220.014 600.107 224.014 600.117 228.014 600.117C228.014 604.117 228.014 608.117 228.014 612.117C232.014 612.117 236.014 612.117 240.014 612.117C240.004 616.107 240.014 620.107 240.014 624.107C244.004 624.117 248.004 624.117 251.994 624.117C256.004 624.107 260.004 624.117 264.014 624.117C264.014 628.117 264.014 632.117 264.014 636.117C272.014 636.117 280.014 636.117 288.014 636.117C296.014 636.117 304.014 636.117 312.024 636.117C312.004 640.107 312.014 644.107 312.014 648.117C324.014 648.117 336.014 648.117 348.014 648.117C348.014 644.117 348.014 640.117 348.014 636.117C356.004 636.117 364.004 636.117 371.994 636.117C380.004 636.117 388.004 636.117 396.014 636.117C396.014 632.117 396.014 628.117 396.014 624.117C400.014 624.107 404.014 624.107 408.014 624.137C411.954 624.157 415.894 624.107 419.834 624.027C419.954 620.057 420.034 616.087 420.044 612.117C424.034 612.117 428.024 612.117 432.014 612.117C432.014 608.117 432.014 604.117 432.014 600.117C436.014 600.117 440.014 600.117 444.014 600.117C444.014 596.117 444.014 592.117 444.014 588.117C448.014 588.117 452.014 588.117 456.014 588.117C456.014 584.107 456.014 580.107 456.014 576.117C460.014 576.107 464.004 576.107 468.014 576.117C468.004 572.107 468.004 568.097 468.014 564.097C471.974 564.137 475.944 564.107 479.924 564.057C480.004 560.077 480.054 556.097 480.034 552.117C480.014 548.117 480.004 544.117 480.004 540.117C484.004 540.117 488.004 540.117 492.014 540.117C492.014 536.107 492.014 532.107 492.014 528.107C492.014 524.107 492.014 520.107 492.014 516.117C496.014 516.117 500.014 516.117 504.014 516.117C504.014 508.107 504.014 500.107 504.014 492.107C504.014 484.107 504.014 476.107 504.014 468.117C508.004 468.117 512.004 468.117 516.014 468.117C516.014 456.117 516.014 444.107 516.014 432.107C516.014 424.097 516.014 416.087 516.014 408.087C516.014 404.097 516.014 400.107 516.014 396.127C516.014 392.107 516.014 388.097 516.014 384.087C516.014 376.097 515.994 368.107 516.024 360.117C516.044 356.147 515.974 352.197 515.894 348.237C511.924 348.127 507.974 348.077 504.014 348.077C504.014 340.087 504.014 332.097 504.014 324.107C508.004 324.117 511.994 324.107 515.994 324.097C516.014 320.097 516.014 316.107 515.974 312.117C519.984 312.117 523.994 312.117 528.014 312.117C528.014 328.117 528.014 344.117 528.014 360.107C528.014 364.107 528.014 368.117 528.014 372.117C532.014 372.117 536.024 372.117 540.034 372.117C540.004 400.117 540.014 428.117 540.014 456.117C536.014 456.117 532.014 456.117 528.014 456.117C528.014 472.117 528.014 488.117 528.014 504.117C524.014 504.117 520.014 504.117 516.014 504.117C516.014 508.107 516.004 512.107 516.014 516.107C516.024 524.107 516.014 532.117 516.014 540.117C512.014 540.117 508.014 540.117 504.014 540.117C504.014 544.117 504.014 548.117 504.014 552.117C500.014 552.117 496.014 552.117 492.014 552.117C492.014 556.077 492.014 560.037 492.014 563.997C492.014 568.037 492.014 572.067 492.014 576.117C488.014 576.117 484.014 576.117 480.014 576.117C480.014 580.117 480.014 584.117 480.014 588.117C476.014 588.117 472.014 588.117 468.014 588.117C468.014 592.117 468.014 596.117 468.014 600.117C464.014 600.117 460.014 600.117 456.014 600.117C456.014 604.117 456.014 608.117 456.014 612.117C452.014 612.117 448.014 612.117 444.014 612.117C444.014 616.117 444.014 620.117 444.014 624.117C440.014 624.117 436.014 624.117 432.014 624.117C432.014 628.117 432.014 632.117 432.014 636.117C424.014 636.117 416.014 636.117 408.014 636.117C408.014 640.117 408.014 644.117 408.014 648.117C400.014 648.117 392.014 648.117 384.014 648.117C384.014 652.117 384.014 656.117 384.014 660.117C348.014 660.117 312.014 660.117 276.014 660.117C276.014 656.107 276.014 652.117 276.014 648.117C268.014 648.117 260.014 648.117 252.014 648.117C252.014 644.117 252.014 640.117 252.014 636.117C244.014 636.117 236.014 636.117 228.014 636.117C228.014 632.117 228.014 628.117 228.014 624.117C224.014 624.117 220.014 624.117 216.014 624.117C216.014 620.117 216.014 616.117 216.014 612.117C212.014 612.117 208.014 612.117 204.014 612.117C204.014 608.117 204.014 604.117 204.014 600.117C200.014 600.117 196.014 600.117 192.014 600.117C192.014 596.117 192.014 592.117 192.014 588.117C188.014 588.117 184.014 588.117 180.014 588.117C180.014 584.107 180.014 580.117 180.014 576.117C176.014 576.117 172.014 576.117 168.014 576.117C168.004 572.107 168.004 568.107 168.014 564.107C168.024 560.117 168.014 556.127 167.994 552.137C163.994 552.107 160.004 552.117 156.014 552.167C156.004 548.147 156.004 544.127 156.014 540.117C152.004 540.117 148.004 540.117 144.014 540.117C144.004 528.117 144.004 516.117 144.004 504.117C140.004 504.127 136.004 504.127 132.004 504.117C132.004 488.127 132.004 472.127 132.004 456.127C128.004 456.127 124.004 456.127 120.004 456.127C119.994 444.137 119.994 432.147 120.004 420.157C120.024 404.137 120.014 388.107 120.014 372.087C123.994 372.127 127.974 372.107 131.954 372.037C132.024 368.057 132.054 364.087 132.034 360.117C131.984 344.107 132.014 328.107 132.004 312.107Z" fill="#E27535"/>
<path d="M252.014 168.109C256.014 168.119 260.014 168.119 264.014 168.119C268.014 168.109 272.014 168.119 276.014 168.119C276.014 172.119 276.014 176.119 276.014 180.119C268.014 180.119 260.014 180.119 252.014 180.119C252.014 176.109 252.014 172.109 252.014 168.109Z" fill="#FFF6F1"/>
<path d="M384.014 168.121C388.014 168.121 392.004 168.121 396.014 168.121C396.024 172.121 396.044 176.121 396.074 180.121C392.044 180.121 388.034 180.121 384.014 180.121C384.014 176.121 384.014 172.121 384.014 168.121Z" fill="#FFF6F1"/>
<path d="M396.014 168.119C400.004 168.119 404.004 168.119 408.014 168.109C408.014 172.109 408.014 176.109 408.014 180.119C404.024 180.119 400.044 180.119 396.074 180.119C396.044 176.119 396.024 172.119 396.014 168.119Z" fill="#FDEEE5"/>
<path d="M168.004 180.088C171.994 180.068 175.994 180.078 179.994 180.118C180.004 184.118 180.004 188.118 180.004 192.128C175.994 192.148 171.994 192.148 167.994 192.128C167.974 188.118 167.974 184.098 168.004 180.088Z" fill="#FED997"/>
<path d="M192.124 180.279C195.894 180.159 199.764 179.659 203.484 180.599C204.464 184.319 204.044 188.209 203.964 192.009C200.004 192.189 196.044 192.189 192.084 192.019C191.954 188.109 191.964 184.189 192.124 180.279Z" fill="#FEC965"/>
<path d="M288.004 180.117C292.004 180.117 296.004 180.117 300.014 180.117C300.014 184.117 300.014 188.117 300.014 192.117C296.014 192.117 292.014 192.117 288.024 192.117C288.014 188.117 288.014 184.117 288.004 180.117Z" fill="#EFAE88"/>
<path d="M300.014 180.117C320.014 180.117 340.014 180.117 360.014 180.117C360.014 184.117 360.014 188.117 360.014 192.117C340.014 192.117 320.014 192.117 300.014 192.117C300.014 188.117 300.014 184.117 300.014 180.117Z" fill="#FFF7F1"/>
<path d="M360.014 180.117C364.034 180.117 368.044 180.117 372.064 180.117C372.044 184.117 372.014 188.117 371.984 192.117C367.994 192.117 364.004 192.117 360.014 192.117C360.014 188.117 360.014 184.117 360.014 180.117Z" fill="#E88E58"/>
<path d="M216.014 192.117C220.014 192.117 224.014 192.117 228.014 192.117C228.014 196.117 228.014 200.117 228.014 204.117C224.014 204.117 220.014 204.117 216.014 204.117C216.014 200.117 216.014 196.117 216.014 192.117Z" fill="#FFF7F2"/>
<path d="M264.014 192.117C268.014 192.117 272.014 192.117 276.014 192.117C276.014 196.117 276.014 200.117 276.004 204.117C272.004 204.117 268.014 204.117 264.014 204.117C264.014 200.117 264.014 196.117 264.014 192.117Z" fill="#FFF7F2"/>
<path d="M383.994 192.117C387.994 192.117 392.004 192.117 396.014 192.117C396.014 196.117 396.014 200.117 396.014 204.127C392.024 204.137 388.034 204.117 384.044 204.097C384.014 200.097 383.994 196.107 383.994 192.117Z" fill="#FFF7F2"/>
<path d="M432.014 192.117C436.014 192.117 440.014 192.117 444.014 192.117C444.014 196.117 444.014 200.117 444.014 204.117C440.014 204.117 436.014 204.117 432.014 204.117C432.014 200.117 432.004 196.117 432.014 192.117Z" fill="#FFF7F2"/>
<path d="M276.014 192.117C280.014 192.117 284.014 192.117 288.024 192.117C292.014 192.117 296.014 192.117 300.014 192.117C300.024 196.097 300.024 200.087 300.014 204.077C292.034 204.197 284.064 204.027 276.094 204.187C276.034 208.157 275.984 212.127 275.964 216.097C268.014 216.167 260.064 216.027 252.114 216.187C252.044 220.147 251.994 224.107 251.964 228.067C248.004 228.097 244.034 228.147 240.074 228.207C240.034 232.157 240.004 236.117 239.994 240.077C236.004 240.097 232.024 240.127 228.044 240.147C228.024 244.137 227.994 248.117 227.974 252.097C223.994 252.107 220.024 252.117 216.044 252.127C215.954 260.107 216.064 268.097 215.994 276.087C212.004 276.107 208.014 276.127 204.034 276.147C203.954 284.127 204.064 292.107 203.984 300.097C200.004 300.107 196.024 300.127 192.044 300.137C191.974 308.117 192.064 316.097 192.004 324.077C188.014 324.097 184.034 324.117 180.054 324.137C179.944 340.117 180.074 356.107 179.994 372.087C176.004 372.107 172.024 372.127 168.034 372.137C168.004 400.117 167.984 428.097 168.044 456.077C172.024 456.097 176.004 456.127 179.984 456.147C180.014 460.127 180.034 464.107 180.024 468.097C180.004 480.097 180.004 492.097 180.024 504.107C184.014 504.107 188.014 504.117 192.014 504.137C192.034 512.127 191.984 520.117 192.034 528.107C196.024 528.107 200.014 528.117 204.014 528.137C204.014 536.117 204.044 544.097 204.054 552.077C208.024 552.077 211.984 552.077 215.954 552.077C216.004 556.077 216.034 560.087 216.044 564.097C220.024 564.107 224.014 564.127 227.994 564.147C228.004 568.117 228.024 572.097 228.034 576.077C232.024 576.097 236.004 576.127 239.994 576.167C240.004 580.137 240.014 584.107 240.034 588.087C244.014 588.107 247.994 588.127 251.984 588.137C251.994 592.127 252.024 596.107 252.054 600.097C256.024 600.107 260.004 600.127 263.984 600.137C264.004 604.097 264.034 608.057 264.064 612.017C268.054 612.097 272.044 612.157 276.044 612.137C276.014 616.127 276.004 620.117 276.024 624.117C272.024 624.117 268.024 624.117 264.034 624.127C264.014 620.117 264.004 616.117 264.004 612.117C260.004 612.107 256.014 612.107 252.014 612.117C248.014 612.117 244.014 612.117 240.014 612.117C240.014 608.117 240.014 604.117 240.004 600.117C236.014 600.117 232.014 600.107 228.024 600.117C228.014 596.117 228.014 592.117 228.004 588.127C224.014 588.117 220.014 588.107 216.024 588.117C216.014 584.117 216.014 580.117 216.014 576.127C212.014 576.117 208.024 576.107 204.034 576.117C204.014 572.117 204.004 568.117 204.004 564.127C200.014 564.117 196.014 564.107 192.024 564.117C192.014 560.117 192.004 556.117 192.014 552.127C188.014 552.117 184.014 552.107 180.014 552.117C180.014 548.117 180.014 544.117 180.014 540.117C180.014 536.117 180.014 532.117 180.014 528.117C176.004 528.117 172.014 528.107 168.014 528.117C168.014 524.117 168.014 520.117 168.014 516.117C168.014 508.117 168.024 500.117 168.004 492.117C164.004 492.107 160.014 492.107 156.014 492.117C156.014 484.117 156.014 476.117 156.014 468.117C156.014 460.107 156.004 452.097 156.014 444.097C156.014 440.117 156.004 436.147 155.974 432.177C151.984 432.117 147.994 432.087 144.014 432.087C144.014 416.097 144.014 400.107 144.014 384.117C148.014 384.117 152.004 384.117 156.014 384.107C156.024 372.117 156.004 360.117 156.014 348.127C156.024 340.117 155.994 332.117 156.024 324.117C160.014 324.107 164.014 324.107 168.004 324.107C168.004 320.157 168.134 316.207 167.814 312.277C168.024 308.227 168.054 304.167 168.024 300.117C172.014 300.117 176.014 300.117 180.004 300.117C180.014 296.117 180.014 292.117 180.014 288.117C180.014 284.117 180.014 280.117 180.014 276.117C184.014 276.117 188.014 276.117 192.014 276.107C192.014 272.117 192.014 268.117 192.014 264.127C196.014 264.117 200.014 264.107 204.014 264.107C204.014 260.107 204.014 256.117 204.014 252.117C204.014 248.117 204.014 244.117 204.014 240.117C208.014 240.117 212.014 240.117 216.014 240.117C216.014 236.117 216.014 232.117 216.014 228.117C220.014 228.117 224.014 228.117 228.014 228.117C232.014 228.117 236.004 228.117 240.014 228.107C240.014 224.117 240.014 220.117 240.014 216.127C244.004 216.117 248.004 216.107 252.014 216.107C252.014 212.107 252.014 208.117 252.014 204.117C256.014 204.117 260.014 204.117 264.014 204.117C268.014 204.117 272.004 204.117 276.004 204.117C276.014 200.117 276.014 196.117 276.014 192.117Z" fill="#92BEE0"/>
<path d="M288.014 624.115C292.014 624.115 296.024 624.115 300.024 624.105C304.014 624.095 307.994 624.105 311.984 624.135C312.014 628.125 312.024 632.115 312.024 636.115C304.014 636.115 296.014 636.115 288.014 636.115C288.014 632.115 288.014 628.115 288.014 624.115Z" fill="#92BEE0"/>
<path d="M300.013 192.117C320.013 192.117 340.013 192.117 360.013 192.117C364.003 192.117 367.993 192.117 371.983 192.117C375.983 192.117 379.983 192.117 383.993 192.117C383.993 196.107 384.013 200.097 384.043 204.097C388.033 204.117 392.023 204.137 396.013 204.127C400.003 204.117 404.003 204.117 408.003 204.117C407.993 208.097 408.003 212.077 408.033 216.057C411.993 216.087 415.953 216.147 419.913 216.207C419.983 220.197 420.043 224.177 420.053 228.167C420.053 232.117 419.993 236.077 419.923 240.037C415.973 240.097 412.023 240.167 408.083 240.237C408.023 244.147 407.973 248.067 407.933 251.987C403.983 252.077 400.043 252.167 396.103 252.257C396.053 256.167 395.993 260.087 395.953 264.007C391.993 264.067 388.033 264.137 384.083 264.197C384.033 268.127 383.983 272.067 383.953 276.017C380.003 276.077 376.053 276.167 372.113 276.267C372.033 280.177 371.963 284.097 371.903 288.017C367.983 288.087 364.063 288.147 360.143 288.187C360.063 292.127 359.983 296.077 359.913 300.037C355.983 300.087 352.043 300.157 348.123 300.227C348.043 304.167 347.973 308.097 347.923 312.037C343.973 312.077 340.033 312.137 336.103 312.177C336.063 316.117 336.013 320.057 335.953 323.997C332.003 324.057 328.063 324.137 324.113 324.227C324.043 328.157 323.963 332.087 323.883 336.027C319.943 336.077 316.013 336.157 312.093 336.227C312.033 340.167 311.983 344.097 311.953 348.037C307.993 348.087 304.033 348.137 300.073 348.187C300.033 352.137 299.983 356.087 299.953 360.047C296.003 360.087 292.053 360.127 288.113 360.157C288.033 364.097 287.963 368.047 287.893 371.997C283.953 372.067 280.013 372.147 276.083 372.217C276.043 376.137 275.993 380.067 275.943 383.997C272.003 384.077 268.053 384.157 264.113 384.227C264.053 388.167 263.993 392.107 263.923 396.047C259.983 396.107 256.043 396.167 252.113 396.227C252.043 400.167 251.963 404.097 251.873 408.037C247.943 408.077 244.013 408.127 240.083 408.187C240.023 412.117 239.963 416.047 239.923 419.987C235.993 420.077 232.063 420.167 228.143 420.247C228.053 424.157 227.963 428.077 227.893 431.987C223.953 432.067 220.013 432.147 216.073 432.227C216.033 436.157 215.983 440.097 215.943 444.037C211.983 444.077 208.033 444.147 204.083 444.207C204.043 448.147 204.003 452.087 203.953 456.037C200.003 456.077 196.053 456.137 192.103 456.207C192.043 460.147 191.983 464.097 191.943 468.057C187.973 468.117 183.993 468.137 180.023 468.097C180.033 464.107 180.013 460.127 179.983 456.147C176.003 456.127 172.023 456.097 168.043 456.077C167.983 428.097 168.003 400.117 168.033 372.137C172.023 372.127 176.003 372.107 179.993 372.087C180.073 356.107 179.943 340.117 180.053 324.137C184.033 324.117 188.013 324.097 192.003 324.077C192.063 316.097 191.973 308.117 192.043 300.137C196.023 300.127 200.003 300.107 203.983 300.097C204.063 292.107 203.953 284.127 204.033 276.147C208.013 276.127 212.003 276.107 215.993 276.087C216.063 268.097 215.953 260.107 216.043 252.127C220.023 252.117 223.993 252.107 227.973 252.097C227.993 248.117 228.023 244.137 228.043 240.147C232.023 240.127 236.003 240.097 239.993 240.077C240.003 236.117 240.033 232.157 240.073 228.207C244.033 228.147 248.003 228.097 251.963 228.067C251.993 224.107 252.043 220.147 252.113 216.187C260.063 216.027 268.013 216.167 275.963 216.097C275.983 212.127 276.033 208.157 276.093 204.187C284.063 204.027 292.033 204.197 300.013 204.077C300.023 200.087 300.023 196.097 300.013 192.117Z" fill="#C5E0F8"/>
<path d="M192.004 204.116C196.014 204.106 200.014 204.096 204.024 204.106C204.034 208.106 204.014 212.116 203.964 216.116C199.974 216.126 195.994 216.126 192.004 216.116C192.004 212.116 191.994 208.116 192.004 204.116Z" fill="#E99665"/>
<path d="M240.014 204.117C244.014 204.117 248.014 204.117 252.014 204.117C252.014 208.117 252.014 212.107 252.014 216.107C248.004 216.107 244.004 216.117 240.014 216.127C240.014 220.117 240.014 224.117 240.014 228.107C236.004 228.117 232.014 228.117 228.014 228.117C228.014 224.117 228.014 220.117 228.014 216.117C232.014 216.117 236.014 216.117 240.014 216.117C240.014 212.117 240.014 208.117 240.014 204.117Z" fill="#FFF8F3"/>
<path d="M408.004 204.117C412.004 204.117 416.004 204.117 420.014 204.117C420.004 208.117 420.004 212.117 420.014 216.117C424.014 216.117 428.014 216.117 432.014 216.117C432.014 220.117 432.014 224.117 432.014 228.117C428.024 228.117 424.034 228.137 420.054 228.167C420.044 224.177 419.984 220.197 419.914 216.207C415.954 216.147 411.994 216.087 408.034 216.057C408.004 212.077 407.994 208.097 408.004 204.117Z" fill="#FFF8F3"/>
<path d="M456.014 204.117C460.004 204.107 464.014 204.107 468.014 204.117C468.014 208.117 468.014 212.117 468.014 216.117C464.014 216.127 460.024 216.117 456.034 216.117C456.014 212.107 456.004 208.117 456.014 204.117Z" fill="#EDA57C"/>
<path d="M179.693 229.197C180.143 228.717 180.603 228.247 181.083 227.797C184.723 228.207 188.393 228.157 192.053 228.127C192.023 232.117 192.023 236.117 192.053 240.117C188.033 240.117 184.023 240.117 180.013 240.117C180.043 236.477 180.103 232.817 179.693 229.197Z" fill="#FFF8F4"/>
<path d="M456.013 228.117C463.653 227.957 471.313 228.477 478.943 227.797C479.403 228.247 479.873 228.707 480.333 229.197C479.903 232.817 479.973 236.477 480.013 240.117C472.003 240.117 464.013 240.117 456.013 240.117C456.013 236.117 456.003 232.117 456.013 228.117Z" fill="#FFF8F4"/>
<path d="M192.054 228.13C196.034 228.11 200.024 228.12 204.014 228.12C204.014 232.11 204.014 236.11 204.014 240.11C200.024 240.12 196.034 240.12 192.054 240.12C192.024 236.12 192.024 232.12 192.054 228.13Z" fill="#F6CFB9"/>
<path d="M420.053 228.168C424.033 228.138 428.023 228.118 432.013 228.118C436.013 228.108 440.013 228.118 444.013 228.118C444.013 232.118 444.013 236.118 444.013 240.118C448.013 240.118 452.013 240.118 456.013 240.118C456.013 244.118 456.013 248.118 456.003 252.118C455.973 256.078 456.043 260.038 456.133 263.998C460.003 264.078 463.883 264.208 467.763 264.358C467.933 268.248 468.083 272.138 468.143 276.038C472.093 276.068 476.053 276.088 480.013 276.088C480.003 280.088 480.003 284.088 480.003 288.088C476.023 288.008 472.053 288.038 468.083 288.128C467.973 292.078 467.883 296.018 467.813 299.968C463.893 300.008 459.983 300.068 456.073 300.148C455.983 304.078 455.903 308.008 455.873 311.938C451.923 311.998 447.983 312.078 444.043 312.158C443.963 316.088 443.903 320.018 443.873 323.948C439.923 324.008 435.973 324.088 432.033 324.168C431.953 328.098 431.883 332.028 431.833 335.958C427.903 336.018 423.973 336.088 420.053 336.158C419.973 340.088 419.903 344.018 419.843 347.948C415.913 347.988 411.983 348.058 408.063 348.138C407.953 352.068 407.873 356.008 407.823 359.948C403.903 360.018 399.993 360.088 396.083 360.158C395.993 364.078 395.913 368.008 395.853 371.938C391.903 371.998 387.963 372.088 384.033 372.178C383.953 376.088 383.883 379.998 383.833 383.908C379.893 383.998 375.953 384.098 372.013 384.218C371.943 388.118 371.873 392.028 371.823 395.938C367.903 396.018 363.973 396.108 360.053 396.188C359.963 400.108 359.893 404.018 359.843 407.938C355.923 408.008 352.003 408.088 348.083 408.188C347.993 412.108 347.913 416.038 347.853 419.968C343.923 419.998 339.993 420.058 336.063 420.138C335.973 424.078 335.883 428.018 335.823 431.968C331.903 431.988 327.983 432.038 324.063 432.108C323.983 436.058 323.913 440.008 323.883 443.958C319.933 443.998 315.983 444.058 312.043 444.128C311.953 448.058 311.883 451.998 311.833 455.948C307.913 455.998 304.003 456.068 300.083 456.148C299.983 460.088 299.903 464.038 299.843 467.988C295.913 468.018 291.983 468.078 288.053 468.148C287.963 472.088 287.883 476.028 287.843 479.968C283.913 480.008 279.993 480.078 276.073 480.158C275.993 484.088 275.913 488.018 275.863 491.948C271.933 492.008 268.003 492.088 264.083 492.168C263.993 496.078 263.923 499.998 263.863 503.918C259.933 503.978 255.993 504.068 252.063 504.168C251.983 508.078 251.903 511.988 251.833 515.908C247.913 515.978 244.003 516.068 240.083 516.178C239.983 520.088 239.893 524.018 239.833 527.948C235.903 527.988 231.973 528.068 228.043 528.168C227.943 532.098 227.873 536.028 227.843 539.968C223.903 540.008 219.953 540.078 216.023 540.158C215.933 544.128 215.893 548.098 215.953 552.078C211.983 552.078 208.023 552.078 204.053 552.078C204.043 544.098 204.013 536.118 204.013 528.138C200.013 528.118 196.023 528.108 192.033 528.108C191.983 520.118 192.033 512.128 192.013 504.138C188.013 504.118 184.013 504.108 180.023 504.108C180.003 492.098 180.003 480.098 180.023 468.098C183.993 468.138 187.973 468.118 191.943 468.058C191.983 464.098 192.043 460.148 192.103 456.208C196.053 456.138 200.003 456.078 203.953 456.038C204.003 452.088 204.043 448.148 204.083 444.208C208.033 444.148 211.983 444.078 215.943 444.038C215.983 440.098 216.033 436.158 216.073 432.228C220.013 432.148 223.953 432.068 227.893 431.988C227.963 428.078 228.053 424.158 228.143 420.248C232.063 420.168 235.993 420.078 239.923 419.988C239.963 416.048 240.023 412.118 240.083 408.188C244.013 408.128 247.943 408.078 251.873 408.038C251.963 404.098 252.043 400.168 252.113 396.228C256.043 396.168 259.983 396.108 263.923 396.048C263.993 392.108 264.053 388.168 264.113 384.228C268.053 384.158 272.003 384.078 275.943 383.998C275.993 380.068 276.043 376.138 276.083 372.218C280.013 372.148 283.953 372.068 287.893 371.998C287.963 368.048 288.033 364.098 288.113 360.158C292.053 360.128 296.003 360.088 299.953 360.048C299.983 356.088 300.033 352.138 300.073 348.188C304.033 348.138 307.993 348.088 311.953 348.038C311.983 344.098 312.033 340.168 312.093 336.228C316.013 336.158 319.943 336.078 323.883 336.028C323.963 332.088 324.043 328.158 324.113 324.228C328.063 324.138 332.003 324.058 335.953 323.998C336.013 320.058 336.063 316.118 336.103 312.178C340.033 312.138 343.973 312.078 347.923 312.038C347.973 308.098 348.043 304.168 348.123 300.228C352.043 300.158 355.983 300.088 359.913 300.038C359.983 296.078 360.063 292.128 360.143 288.188C364.063 288.148 367.983 288.088 371.903 288.018C371.963 284.098 372.033 280.178 372.113 276.268C376.053 276.168 380.003 276.078 383.953 276.018C383.983 272.068 384.033 268.128 384.083 264.198C388.033 264.138 391.993 264.068 395.953 264.008C395.993 260.088 396.053 256.168 396.103 252.258C400.043 252.168 403.983 252.078 407.933 251.988C407.973 248.068 408.023 244.148 408.083 240.238C412.023 240.168 415.973 240.098 419.923 240.038C419.993 236.078 420.053 232.118 420.053 228.168Z" fill="#E0EDF8"/>
<path d="M504.013 396.138C508.013 396.118 512.013 396.108 516.013 396.128C516.013 400.108 516.013 404.098 516.013 408.088C512.013 408.088 508.023 408.098 504.033 408.088C504.013 404.108 504.013 400.118 504.013 396.138Z" fill="#E0EDF8"/>
<path d="M492.123 408.168C496.093 408.098 500.053 408.058 504.033 408.088C504.033 412.078 503.993 416.058 503.933 420.048C499.943 420.118 495.973 420.148 491.993 420.118C491.953 416.128 492.013 412.148 492.123 408.168Z" fill="#E0EDF8"/>
<path d="M480.073 420.219C484.043 420.129 488.013 420.079 491.993 420.119C492.033 424.089 492.003 428.059 491.943 432.039C487.963 432.119 483.983 432.159 480.003 432.119C479.953 428.149 479.983 424.189 480.073 420.219Z" fill="#E0EDF8"/>
<path d="M468.093 432.186C472.063 432.106 476.033 432.066 480.003 432.116C480.053 436.086 480.023 440.056 479.943 444.036C475.963 444.106 471.993 444.136 468.023 444.106C467.993 440.136 468.023 436.156 468.093 432.186Z" fill="#E0EDF8"/>
<path d="M456.083 444.188C460.053 444.118 464.033 444.078 468.023 444.108C468.043 448.088 468.013 452.068 467.963 456.048C463.973 456.108 459.983 456.138 456.003 456.108C455.963 452.138 456.003 448.158 456.083 444.188Z" fill="#E0EDF8"/>
<path d="M444.093 456.189C448.053 456.109 452.023 456.079 456.003 456.109C456.043 460.079 456.023 464.049 455.963 468.019C451.983 468.089 448.003 468.129 444.023 468.129C443.993 464.139 444.023 460.159 444.093 456.189Z" fill="#E0EDF8"/>
<path d="M432.093 468.189C436.063 468.129 440.043 468.099 444.023 468.129C444.033 472.099 443.993 476.089 443.923 480.069C439.943 480.129 435.973 480.149 432.003 480.119C431.963 476.139 432.003 472.159 432.093 468.189Z" fill="#E0EDF8"/>
<path d="M420.073 480.19C424.043 480.13 428.023 480.09 432.003 480.12C432.043 484.1 432.003 488.08 431.913 492.07C427.953 492.11 423.993 492.14 420.043 492.13C419.993 488.15 420.013 484.17 420.073 480.19Z" fill="#E0EDF8"/>
<path d="M408.063 492.147C412.053 492.107 416.043 492.097 420.043 492.127C420.063 496.097 420.023 500.067 419.943 504.047C415.963 504.107 411.983 504.137 408.013 504.097C407.963 500.107 407.993 496.127 408.063 492.147Z" fill="#E0EDF8"/>
<path d="M396.133 504.218C400.083 504.118 404.043 504.068 408.013 504.098C408.053 508.088 408.023 512.079 407.953 516.079C403.963 516.109 399.983 516.128 396.003 516.088C395.993 512.128 396.043 508.168 396.133 504.218Z" fill="#E0EDF8"/>
<path d="M384.083 516.206C388.053 516.136 392.023 516.086 396.003 516.086C396.023 520.066 396.003 524.056 395.963 528.046C391.973 528.116 387.983 528.156 383.993 528.116C383.973 524.136 384.013 520.166 384.083 516.206Z" fill="#E0EDF8"/>
<path d="M372.093 528.207C376.053 528.117 380.023 528.067 383.993 528.117C384.043 532.087 384.023 536.057 383.963 540.037C379.983 540.117 376.003 540.157 372.033 540.127C371.983 536.147 372.023 532.177 372.093 528.207Z" fill="#E0EDF8"/>
<path d="M360.093 540.189C364.073 540.129 368.053 540.089 372.033 540.129C372.063 544.099 372.013 548.079 371.923 552.059C367.943 552.109 363.973 552.139 360.003 552.109C359.953 548.129 360.003 544.159 360.093 540.189Z" fill="#E0EDF8"/>
<path d="M348.073 552.227C352.043 552.147 356.023 552.097 360.003 552.107C360.043 556.077 360.013 560.047 359.943 564.027C355.973 564.097 352.003 564.147 348.033 564.107C347.973 560.147 348.003 556.177 348.073 552.227Z" fill="#E0EDF8"/>
<path d="M336.063 564.219C340.053 564.109 344.043 564.069 348.033 564.109C348.053 568.069 347.993 572.039 347.903 576.009C343.933 576.109 339.973 576.179 336.003 576.149C335.963 572.169 336.003 568.189 336.063 564.219Z" fill="#E0EDF8"/>
<path d="M324.123 576.169C328.083 576.099 332.043 576.089 336.003 576.149C336.033 580.109 336.013 584.079 335.963 588.049C331.973 588.109 327.983 588.149 323.993 588.119C323.973 584.129 324.023 580.149 324.123 576.169Z" fill="#E0EDF8"/>
<path d="M312.093 588.199C316.053 588.129 320.023 588.089 323.993 588.119C324.033 592.099 324.003 596.079 323.943 600.059C319.963 600.139 315.983 600.179 312.013 600.129C311.983 596.149 312.013 592.169 312.093 588.199Z" fill="#E0EDF8"/>
<path d="M300.083 600.156C304.053 600.096 308.033 600.066 312.013 600.126C312.053 604.096 312.013 608.066 311.943 612.046C307.953 612.106 303.973 612.136 299.993 612.126C299.973 608.136 300.013 604.146 300.083 600.156Z" fill="#E0EDF8"/>
<path d="M288.013 612.12C292.003 612.12 296.003 612.11 299.993 612.13C300.013 616.12 300.013 620.11 300.023 624.11C296.023 624.12 292.013 624.12 288.013 624.12C288.013 620.12 288.013 616.12 288.013 612.12Z" fill="#E0EDF8"/>
<path d="M492.034 228.098C547.984 228.198 603.934 228.048 659.894 228.148C660.204 272.138 659.964 316.138 659.924 360.128C619.974 360.138 580.024 360.088 540.074 360.148C536.044 360.148 532.024 360.128 528.014 360.108C528.014 344.118 528.014 328.118 528.014 312.118C523.994 312.118 519.984 312.118 515.974 312.118C511.984 312.118 507.994 312.118 504.014 312.118C504.014 316.118 504.014 320.108 504.014 324.108C500.014 324.118 496.024 324.118 492.034 324.098C492.004 320.098 491.994 316.108 492.004 312.118C496.004 312.118 500.004 312.118 504.014 312.118C504.014 308.118 504.014 304.118 504.014 300.118C508.014 300.118 512.014 300.118 516.014 300.118C516.004 296.118 516.004 292.118 516.024 288.118C516.034 284.118 516.024 280.118 516.014 276.118C512.004 276.088 508.014 276.098 504.014 276.138C504.014 264.128 504.034 252.118 504.014 240.108C500.014 240.098 496.024 240.098 492.024 240.108C492.024 236.098 492.024 232.098 492.034 228.098Z" fill="#FFFAF7"/>
<path d="M168.014 288.117C172.014 288.117 176.014 288.117 180.014 288.117C180.014 292.117 180.014 296.117 180.004 300.117C176.014 300.117 172.014 300.117 168.024 300.117C168.014 296.117 168.004 292.117 168.014 288.117Z" fill="#FFFAF7"/>
<path d="M480.004 288.086C484.004 288.126 488.004 288.116 492.014 288.116C492.014 292.116 492.014 296.116 492.014 300.116C488.024 300.126 484.034 300.116 480.044 300.096C480.004 296.096 479.984 292.086 480.004 288.086Z" fill="#FFFAF7"/>
<path d="M192.014 252.117C196.014 252.117 200.014 252.117 204.014 252.117C204.014 256.117 204.014 260.107 204.014 264.107C200.014 264.107 196.014 264.117 192.014 264.127C192.014 268.117 192.014 272.117 192.014 276.107C188.014 276.117 184.014 276.117 180.014 276.117C180.014 272.117 180.014 268.117 180.014 264.117C184.014 264.117 188.014 264.117 192.014 264.117C192.014 260.117 192.014 256.117 192.014 252.117Z" fill="#FFF9F6"/>
<path d="M456.004 252.117C460.004 252.117 464.004 252.117 468.014 252.117C468.004 256.117 468.004 260.117 468.014 264.117C472.014 264.117 476.014 264.117 480.014 264.117C480.014 268.107 480.014 272.097 480.014 276.087C476.054 276.087 472.094 276.067 468.144 276.037C468.084 272.137 467.934 268.247 467.764 264.357C463.884 264.207 460.004 264.077 456.134 263.997C456.044 260.037 455.974 256.077 456.004 252.117Z" fill="#FFF9F6"/>
<path d="M504.014 276.139C508.014 276.099 512.004 276.089 516.014 276.119C516.024 280.119 516.034 284.119 516.024 288.119C512.014 288.119 508.014 288.119 504.014 288.109C504.014 284.119 504.014 280.129 504.014 276.139Z" fill="#F6D0BA"/>
<path d="M72.3033 288.429C76.1833 287.809 80.1233 288.099 84.0333 288.099C104.023 288.149 124.013 288.179 144.003 288.109C143.993 292.119 143.993 296.119 144.003 300.129C148.003 300.129 152.013 300.129 156.023 300.129C156.113 304.039 155.543 308.009 156.283 311.869C160.093 312.449 163.973 311.889 167.813 312.279C168.133 316.209 168.003 320.159 168.003 324.109C164.013 324.109 160.013 324.109 156.023 324.119C155.753 320.329 156.783 316.229 155.433 312.649C147.753 311.399 139.793 312.479 132.003 312.109C132.013 328.109 131.983 344.109 132.033 360.119C128.023 360.109 124.023 360.109 120.013 360.119C120.013 364.099 120.013 368.099 120.013 372.089C120.013 388.109 120.023 404.139 120.003 420.159C80.0533 419.999 40.0933 420.329 0.133303 420.019C-0.0566969 416.099 -0.0466938 412.169 0.183306 408.259C4.09331 408.169 8.0033 408.089 11.9133 408.039C12.1933 400.099 11.7733 392.149 12.1233 384.219C16.0133 384.119 19.9133 384.039 23.8033 383.969C24.2933 376.089 23.8233 368.199 24.1133 360.319C28.0433 360.189 31.9733 360.059 35.9033 359.909C36.1733 352.009 35.8533 344.119 36.0933 336.219C40.0033 336.139 43.9133 336.039 47.8333 335.939C47.9533 332.029 48.0633 328.129 48.1633 324.229C52.0633 324.109 55.9633 324.039 59.8733 324.039C59.9433 320.109 60.0233 316.189 60.1133 312.279C64.0133 312.199 67.9233 312.089 71.8333 311.959C72.4533 304.119 71.3633 296.229 72.3033 288.429Z" fill="#FFFCFA"/>
<path d="M144.013 348.117C148.013 348.117 152.013 348.117 156.013 348.127C156.003 360.117 156.023 372.117 156.013 384.107C152.003 384.117 148.013 384.117 144.013 384.117C144.013 372.117 144.013 360.117 144.013 348.117Z" fill="#FFFCFA"/>
<path d="M504.013 360.117C508.013 360.117 512.023 360.117 516.023 360.117C515.993 368.107 516.013 376.097 516.013 384.087C512.013 384.097 508.013 384.127 504.023 384.167C504.023 376.147 504.003 368.127 504.013 360.117Z" fill="#FFFCFA"/>
<path d="M468.084 288.125C472.054 288.035 476.024 288.005 480.004 288.085C479.984 292.085 480.004 296.095 480.044 300.095C484.034 300.115 488.024 300.125 492.014 300.115C492.014 304.115 492.014 308.115 492.004 312.115C491.994 316.105 492.004 320.095 492.034 324.095C496.024 324.115 500.014 324.115 504.014 324.105C504.014 332.095 504.014 340.085 504.014 348.075C504.014 352.085 504.014 356.095 504.014 360.115C504.004 368.125 504.024 376.145 504.024 384.165C504.004 388.155 504.004 392.145 504.014 396.135C504.014 400.115 504.014 404.105 504.034 408.085C500.054 408.055 496.094 408.095 492.124 408.165C492.014 412.145 491.954 416.125 491.994 420.115C488.014 420.075 484.044 420.125 480.074 420.215C479.984 424.185 479.954 428.145 480.004 432.115C476.034 432.065 472.064 432.105 468.094 432.185C468.024 436.155 467.994 440.135 468.024 444.105C464.034 444.075 460.054 444.115 456.084 444.185C456.004 448.155 455.964 452.135 456.004 456.105C452.024 456.075 448.054 456.105 444.094 456.185C444.024 460.155 443.994 464.135 444.024 468.125C440.044 468.095 436.064 468.125 432.094 468.185C432.004 472.155 431.964 476.135 432.004 480.115C428.024 480.085 424.044 480.125 420.074 480.185C420.014 484.165 419.994 488.145 420.044 492.125C416.044 492.095 412.054 492.105 408.064 492.145C407.994 496.125 407.964 500.105 408.014 504.095C404.044 504.065 400.084 504.115 396.134 504.215C396.044 508.165 395.994 512.125 396.004 516.085C392.024 516.085 388.054 516.135 384.084 516.205C384.014 520.165 383.974 524.135 383.994 528.115C380.024 528.065 376.054 528.115 372.094 528.205C372.024 532.175 371.984 536.145 372.034 540.125C368.054 540.085 364.074 540.125 360.094 540.185C360.004 544.155 359.954 548.125 360.004 552.105C356.024 552.095 352.044 552.145 348.074 552.225C348.004 556.175 347.974 560.145 348.034 564.105C344.044 564.065 340.054 564.105 336.064 564.215C336.004 568.185 335.964 572.165 336.004 576.145C332.044 576.085 328.084 576.095 324.124 576.165C324.024 580.145 323.974 584.125 323.994 588.115C320.024 588.085 316.054 588.125 312.094 588.195C312.014 592.165 311.984 596.145 312.014 600.125C308.034 600.065 304.054 600.095 300.084 600.155C300.014 604.145 299.974 608.135 299.994 612.125C296.004 612.105 292.004 612.115 288.014 612.115C284.024 612.105 280.034 612.115 276.044 612.135C272.044 612.155 268.054 612.095 264.064 612.015C264.034 608.055 264.004 604.095 263.984 600.135C260.004 600.125 256.024 600.105 252.054 600.095C252.024 596.105 251.994 592.125 251.984 588.135C247.994 588.125 244.014 588.105 240.034 588.085C240.014 584.105 240.004 580.135 239.994 576.165C236.004 576.125 232.024 576.095 228.034 576.075C228.024 572.095 228.004 568.115 227.994 564.145C224.014 564.125 220.024 564.105 216.044 564.095C216.034 560.085 216.004 556.075 215.954 552.075C215.894 548.095 215.934 544.125 216.024 540.155C219.954 540.075 223.904 540.005 227.844 539.965C227.874 536.025 227.944 532.095 228.044 528.165C231.974 528.065 235.904 527.985 239.834 527.945C239.894 524.015 239.984 520.085 240.084 516.175C244.004 516.065 247.914 515.975 251.834 515.905C251.904 511.985 251.984 508.075 252.064 504.165C255.994 504.065 259.934 503.975 263.864 503.915C263.924 499.995 263.994 496.075 264.084 492.165C268.004 492.085 271.934 492.005 275.864 491.945C275.914 488.015 275.994 484.085 276.074 480.155C279.994 480.075 283.914 480.005 287.844 479.965C287.884 476.025 287.964 472.085 288.054 468.145C291.984 468.075 295.914 468.015 299.844 467.985C299.904 464.035 299.984 460.085 300.084 456.145C304.004 456.065 307.914 455.995 311.834 455.945C311.884 451.995 311.954 448.055 312.044 444.125C315.984 444.055 319.934 443.995 323.884 443.955C323.914 440.005 323.984 436.055 324.064 432.105C327.984 432.035 331.904 431.985 335.824 431.965C335.884 428.015 335.974 424.075 336.064 420.135C339.994 420.055 343.924 419.995 347.854 419.965C347.914 416.035 347.994 412.105 348.084 408.185C352.004 408.085 355.924 408.005 359.844 407.935C359.894 404.015 359.964 400.105 360.054 396.185C363.974 396.105 367.904 396.015 371.824 395.935C371.874 392.025 371.944 388.115 372.014 384.215C375.954 384.095 379.894 383.995 383.834 383.905C383.884 379.995 383.954 376.085 384.034 372.175C387.964 372.085 391.904 371.995 395.854 371.935C395.914 368.005 395.994 364.075 396.084 360.155C399.994 360.085 403.904 360.015 407.824 359.945C407.874 356.005 407.954 352.065 408.064 348.135C411.984 348.055 415.914 347.985 419.844 347.945C419.904 344.015 419.974 340.085 420.054 336.155C423.974 336.085 427.904 336.015 431.834 335.955C431.884 332.025 431.954 328.095 432.034 324.165C435.974 324.085 439.924 324.005 443.874 323.945C443.904 320.015 443.964 316.085 444.044 312.155C447.984 312.075 451.924 311.995 455.874 311.935C455.904 308.005 455.984 304.075 456.074 300.145C459.984 300.065 463.894 300.005 467.814 299.965C467.884 296.015 467.974 292.075 468.084 288.125Z" fill="#C5E1F8"/>
<path d="M504.034 408.086C508.024 408.096 512.014 408.086 516.014 408.086C516.014 416.086 516.014 424.096 516.014 432.106C512.014 432.096 508.014 432.116 504.024 432.136C503.984 444.136 504.024 456.126 504.014 468.116C504.014 476.106 504.014 484.106 504.014 492.106C500.014 492.096 496.014 492.116 492.024 492.146C491.994 500.136 492.024 508.126 492.014 516.116C492.014 520.106 492.014 524.106 492.014 528.106C488.014 528.096 484.024 528.106 480.034 528.136C480.004 532.126 479.994 536.116 480.004 540.116C480.004 544.116 480.014 548.116 480.034 552.116C476.024 552.106 472.014 552.116 468.014 552.116C468.014 556.106 468.004 560.106 468.014 564.096C464.024 564.086 460.034 564.106 456.054 564.146C456.034 568.106 455.974 572.056 455.914 576.026C451.954 576.086 448.004 576.136 444.054 576.176C444.024 580.116 443.984 584.066 443.924 588.016C439.964 588.076 436.014 588.126 432.064 588.156C432.034 592.116 431.984 596.076 431.934 600.046C427.964 600.096 423.984 600.136 420.024 600.166C419.994 604.146 419.994 608.126 420.044 612.116C416.034 612.116 412.024 612.116 408.014 612.106C404.014 612.096 400.024 612.106 396.034 612.136C396.014 616.096 395.984 620.056 395.964 624.016C387.984 624.226 380.004 624.036 372.034 624.156C372.014 628.136 371.994 632.126 371.994 636.116C364.004 636.116 356.004 636.116 348.014 636.116C336.014 636.116 324.014 636.106 312.024 636.116C312.024 632.116 312.014 628.126 311.984 624.136C307.994 624.106 304.014 624.096 300.024 624.106C300.014 620.106 300.014 616.116 299.994 612.126C303.974 612.136 307.954 612.106 311.944 612.046C312.014 608.066 312.054 604.096 312.014 600.126C315.984 600.176 319.964 600.136 323.944 600.056C324.004 596.076 324.034 592.096 323.994 588.116C327.984 588.146 331.974 588.106 335.964 588.046C336.014 584.076 336.034 580.106 336.004 576.146C339.974 576.176 343.934 576.106 347.904 576.006C347.994 572.036 348.054 568.066 348.034 564.106C352.004 564.146 355.974 564.096 359.944 564.026C360.014 560.046 360.044 556.076 360.004 552.106C363.974 552.136 367.944 552.106 371.924 552.056C372.014 548.076 372.064 544.096 372.034 540.126C376.004 540.156 379.984 540.116 383.964 540.036C384.024 536.056 384.044 532.086 383.994 528.116C387.984 528.156 391.974 528.116 395.964 528.046C396.004 524.056 396.024 520.066 396.004 516.086C399.984 516.126 403.964 516.106 407.954 516.076C408.024 512.076 408.054 508.086 408.014 504.096C411.984 504.136 415.964 504.106 419.944 504.046C420.024 500.066 420.064 496.096 420.044 492.126C423.994 492.136 427.954 492.106 431.914 492.066C432.004 488.076 432.044 484.096 432.004 480.116C435.974 480.146 439.944 480.126 443.924 480.066C443.994 476.086 444.034 472.096 444.024 468.126C448.004 468.126 451.984 468.086 455.964 468.016C456.024 464.046 456.044 460.076 456.004 456.106C459.984 456.136 463.974 456.106 467.964 456.046C468.014 452.066 468.044 448.086 468.024 444.106C471.994 444.136 475.964 444.106 479.944 444.036C480.024 440.056 480.054 436.086 480.004 432.116C483.984 432.156 487.964 432.116 491.944 432.036C492.004 428.056 492.034 424.086 491.994 420.116C495.974 420.146 499.944 420.116 503.934 420.046C503.994 416.056 504.034 412.076 504.034 408.086Z" fill="#C5E1F8"/>
<path d="M504.014 312.117C507.994 312.117 511.984 312.117 515.974 312.117C516.014 316.107 516.014 320.097 515.994 324.097C511.994 324.107 508.004 324.117 504.014 324.107C504.014 320.107 504.014 316.117 504.014 312.117Z" fill="#E99666"/>
<path d="M504.014 348.078C507.974 348.078 511.924 348.128 515.894 348.238C515.974 352.198 516.044 356.148 516.024 360.118C512.024 360.118 508.014 360.118 504.014 360.118C504.014 356.098 504.014 352.088 504.014 348.078Z" fill="#E37D41"/>
<path d="M120.014 360.117C124.024 360.107 128.024 360.107 132.034 360.117C132.054 364.087 132.024 368.057 131.954 372.037C127.974 372.107 123.994 372.127 120.014 372.087C120.014 368.097 120.014 364.097 120.014 360.117Z" fill="#E6864E"/>
<path d="M468.014 552.118C472.014 552.118 476.024 552.108 480.034 552.118C480.054 556.098 480.004 560.078 479.924 564.058C475.944 564.108 471.974 564.138 468.014 564.098C468.004 560.108 468.014 556.108 468.014 552.118Z" fill="#E6864E"/>
<path d="M528.014 360.109C532.024 360.129 536.044 360.149 540.074 360.149C540.074 364.139 540.064 368.129 540.034 372.119C536.024 372.119 532.014 372.119 528.014 372.119C528.014 368.119 528.014 364.109 528.014 360.109Z" fill="#FEF4EE"/>
<path d="M540.074 360.147C580.024 360.087 619.974 360.137 659.924 360.127C660.144 368.097 660.104 376.077 659.874 384.047C655.964 384.097 652.064 384.177 648.174 384.287C647.804 396.177 648.234 408.077 647.884 419.967C643.984 420.107 640.084 420.197 636.194 420.257C635.484 432.107 636.674 444.017 635.674 455.837C631.844 456.377 627.974 456.127 624.134 456.207C623.754 464.127 624.304 472.057 623.884 479.987C619.964 480.087 616.044 480.187 612.134 480.287C611.744 488.157 612.234 496.037 611.894 503.917C607.974 504.067 604.064 504.187 600.154 504.257C600.024 508.167 599.934 512.077 599.854 515.987C571.914 516.277 543.964 516.047 516.014 516.107C516.004 512.107 516.014 508.107 516.014 504.117C520.014 504.117 524.014 504.117 528.014 504.117C528.014 488.117 528.014 472.117 528.014 456.117C532.014 456.117 536.014 456.117 540.014 456.117C540.014 428.117 540.004 400.117 540.034 372.117C540.064 368.127 540.074 364.137 540.074 360.147Z" fill="#FFFDFC"/>
<path d="M504.024 432.138C508.014 432.118 512.014 432.098 516.014 432.108C516.014 444.108 516.014 456.118 516.014 468.118C512.004 468.118 508.004 468.118 504.014 468.118C504.024 456.128 503.984 444.138 504.024 432.138Z" fill="#FFFDFC"/>
<path d="M144.014 444.118C148.014 444.118 152.014 444.108 156.014 444.098C156.004 452.098 156.014 460.108 156.014 468.118C152.014 468.118 148.014 468.118 144.014 468.118C144.014 460.118 144.014 452.118 144.014 444.118Z" fill="#FFFDFC"/>
<path d="M504.024 384.166C508.014 384.126 512.014 384.096 516.014 384.086C516.014 388.096 516.014 392.106 516.014 396.126C512.014 396.106 508.014 396.116 504.014 396.136C504.004 392.146 504.004 388.156 504.024 384.166Z" fill="#EDF4FA"/>
<path d="M144.014 432.086C147.994 432.086 151.984 432.116 155.974 432.176C156.004 436.146 156.014 440.116 156.014 444.096C152.014 444.106 148.014 444.116 144.014 444.116C144.014 440.106 144.014 436.096 144.014 432.086Z" fill="#BBD6EA"/>
<path d="M156.014 492.117C160.014 492.107 164.004 492.107 168.004 492.117C168.024 500.117 168.014 508.117 168.014 516.117C164.014 516.117 160.014 516.117 156.014 516.117C156.014 508.117 156.014 500.117 156.014 492.117Z" fill="#FFFEFD"/>
<path d="M492.024 492.148C496.014 492.118 500.014 492.098 504.014 492.108C504.014 500.108 504.014 508.108 504.014 516.118C500.014 516.118 496.014 516.118 492.014 516.118C492.024 508.128 491.994 500.138 492.024 492.148Z" fill="#FFFEFD"/>
<path d="M168.014 528.114C172.014 528.104 176.004 528.114 180.014 528.114C180.014 532.114 180.014 536.114 180.014 540.114C176.014 540.114 172.014 540.114 168.014 540.114C168.014 536.104 168.014 532.104 168.014 528.114Z" fill="#FFFEFE"/>
<path d="M480.034 528.135C484.024 528.105 488.014 528.095 492.014 528.105C492.014 532.105 492.014 536.105 492.014 540.115C488.004 540.115 484.004 540.115 480.004 540.115C479.994 536.115 480.004 532.125 480.034 528.135Z" fill="#FFFEFE"/>
<path d="M156.013 552.168C160.003 552.118 163.993 552.108 167.993 552.138C168.013 556.128 168.023 560.118 168.013 564.108C164.013 564.118 160.013 564.118 156.013 564.118C156.003 560.128 156.003 556.148 156.013 552.168Z" fill="#E99867"/>
<path d="M492.014 552.117C496.014 552.117 500.014 552.117 504.014 552.117C504.044 556.107 504.024 560.097 503.954 564.087C499.974 564.197 495.994 564.167 492.014 563.997C492.014 560.037 492.014 556.077 492.014 552.117Z" fill="#FBEEE5"/>
<path d="M240.014 612.117C244.014 612.117 248.014 612.117 252.014 612.117C252.014 616.117 252.004 620.117 251.994 624.117C248.004 624.117 244.004 624.117 240.014 624.107C240.014 620.107 240.004 616.107 240.014 612.117Z" fill="#F4CBB3"/>
<path d="M276.044 612.137C280.034 612.117 284.024 612.107 288.014 612.117C288.014 616.117 288.014 620.117 288.014 624.117C284.014 624.107 280.014 624.107 276.024 624.117C276.004 620.117 276.014 616.127 276.044 612.137Z" fill="#B2D4EF"/>
<path d="M408.014 612.109C412.024 612.119 416.034 612.119 420.044 612.119C420.034 616.089 419.954 620.059 419.834 624.029C415.894 624.109 411.954 624.159 408.014 624.139C408.014 620.129 408.014 616.119 408.014 612.109Z" fill="#E47D42"/>
</svg>
