<svg width="672" height="636" viewBox="0 0 672 636" fill="none" xmlns="http://www.w3.org/2000/svg">
<path d="M372.026 0.0124973C400.006 -0.00750275 427.996 0.00250275 455.996 0.00250275C455.986 4.0025 455.996 7.9925 456.026 12.0025C468.006 12.0025 480.006 12.0025 492.006 12.0025C491.996 16.0025 491.986 20.0025 492.006 24.0025C468.016 24.0125 444.026 23.9825 420.046 24.0125C420.006 28.0025 419.986 32.0025 419.976 36.0025C415.986 35.9925 412.006 35.9925 408.036 36.0025C408.006 32.0025 407.986 28.0125 407.976 24.0225C395.996 23.9825 384.016 23.9825 372.036 24.0125C372.006 28.0025 371.986 32.0025 371.976 36.0025C367.986 35.9925 364.006 35.9925 360.046 35.9925C360.006 32.0025 359.986 28.0025 359.976 24.0125C355.976 24.0025 351.986 24.0025 348.006 24.0025C347.996 20.0025 347.996 16.0025 348.006 12.0125C355.986 11.9925 363.996 12.0125 371.996 11.9925C371.996 7.99251 371.996 4.0025 372.026 0.0124973Z" fill="#E6F6FF"/>
<path d="M324.026 24.0036C332.006 23.9936 340.006 23.9936 348.006 24.0036C351.986 24.0036 355.976 24.0036 359.976 24.0136C359.986 28.0036 360.006 32.0036 360.046 35.9936C364.006 35.9936 367.986 35.9936 371.976 36.0036C371.986 32.0036 372.006 28.0036 372.036 24.0136C384.016 23.9836 395.996 23.9836 407.976 24.0236C407.986 28.0136 408.006 32.0036 408.036 36.0036C412.006 35.9936 415.986 35.9936 419.976 36.0036C419.986 32.0036 420.006 28.0036 420.046 24.0136C444.026 23.9836 468.016 24.0136 492.006 24.0036C499.986 23.9836 507.986 24.0036 515.996 24.0036C515.986 28.0036 515.996 31.9936 516.016 35.9936C523.996 36.0036 531.996 35.9936 539.996 36.0136C539.986 40.0036 539.996 43.9936 540.026 47.9836C544.006 47.9936 547.996 48.0036 552.006 48.0236C551.986 52.0136 551.986 56.0036 552.006 60.0036C464.006 60.0036 376.006 60.0036 288.006 60.0036C287.996 56.0036 287.996 52.0136 288.006 48.0236C291.996 48.0036 295.986 47.9936 299.986 47.9836C299.986 43.9936 300.006 40.0036 300.026 36.0136C308.006 35.9936 315.996 36.0036 323.996 35.9936C323.996 31.9936 324.006 27.9936 324.026 24.0036Z" fill="#E8F7FE"/>
<path d="M276.026 60.0044C280.006 60.0044 283.996 60.0044 288.006 60.0044C376.006 60.0044 464.006 60.0044 552.006 60.0044C555.986 59.9944 559.976 60.0044 563.986 60.0044C563.986 63.9944 563.996 67.9944 564.026 71.9944C572.006 72.0145 580.006 71.9844 588.006 72.0144C587.996 76.0044 587.986 80.0044 588.006 84.0044C480.006 84.0044 372.006 84.0044 264.006 84.0044C263.996 80.0044 263.996 76.0144 264.006 72.0244C267.996 72.0044 271.986 71.9944 275.986 71.9844C275.986 67.9844 276.006 63.9944 276.026 60.0044Z" fill="#EAF7FF"/>
<path d="M252.026 83.9997C256.006 83.9997 259.996 83.9997 264.006 83.9997C372.006 83.9997 480.006 83.9997 588.006 83.9997C591.986 83.9897 595.986 83.9897 599.996 83.9997C599.996 91.9897 599.986 99.9897 600.016 107.99C603.996 107.99 607.996 108 612.006 108.01C611.986 112 611.986 116 612.006 120C484.006 120 356.006 120 228.006 120C227.996 116 227.996 112.01 228.006 108.02C231.996 108 235.986 107.99 239.986 107.98C239.996 103.99 240.006 99.9997 240.026 96.0197C244.006 95.9997 247.986 95.9897 251.986 95.9797C251.986 91.9797 252.006 87.9897 252.026 83.9997Z" fill="#ECF8FF"/>
<path d="M216.016 120C220.006 119.99 223.996 119.99 228.006 120C356.006 120 484.006 120 612.006 120C615.986 119.99 619.986 119.99 623.996 120C623.986 124 623.986 128 624.006 132C623.996 135.99 623.996 139.98 624.016 143.98C627.986 143.98 631.986 143.99 635.996 144C635.986 147.99 635.996 151.98 636.026 155.98C640.006 155.99 643.996 155.99 648.006 156.01C647.986 160 647.986 164 648.006 168C496.006 168 344.006 168 192.006 168C191.996 164 191.996 160.01 192.006 156.02C195.996 156 199.986 155.99 203.986 155.98C203.996 151.99 204.006 148 204.026 144.02C208.006 144 211.996 143.99 215.996 143.98C216.006 135.98 215.986 127.99 216.016 120Z" fill="#EFF9FF"/>
<path d="M180.026 168.004C184.006 168.004 188.006 167.994 192.006 168.004C344.006 168.004 496.006 168.004 648.006 168.004C647.986 171.994 647.996 175.984 648.026 179.984C651.996 179.994 655.996 180.004 659.996 180.024C659.996 192.004 659.996 203.994 660.016 215.984C663.996 215.994 667.986 216.004 672.006 216.024C671.986 220.004 671.986 224.004 672.006 228.004C496.006 228.004 320.006 228.004 144.006 228.004C143.996 224.004 144.006 220.004 144.006 216.024C147.996 216.004 151.986 215.994 155.986 215.984C155.996 211.994 156.006 208.004 156.026 204.024C160.006 204.004 163.996 203.994 167.996 203.984C167.996 195.994 167.996 188.004 168.016 180.014C171.996 180.004 175.986 179.994 179.986 179.984C179.996 175.984 180.006 171.994 180.026 168.004Z" fill="#F2FAFE"/>
<path d="M132.016 228C136.006 227.99 140.006 227.99 144.006 228C320.006 228 496.006 228 672.006 228C671.996 240 671.996 252 672.006 264C600.006 264 528.006 264 456.006 264C455.986 259.99 455.986 255.99 455.986 252C407.996 251.99 360.006 252 312.016 252C288.016 252 264.016 251.99 240.016 252C240.006 255.99 239.996 259.99 239.996 264C199.996 264 160.006 264 120.006 264C119.996 260 119.996 256 120.006 252.02C123.996 252 127.996 251.99 131.996 251.98C132.006 243.98 131.996 235.99 132.016 228Z" fill="#F4FBFF"/>
<path d="M240.016 252.004C264.016 251.994 288.016 252.004 312.016 252.004C311.996 255.984 311.986 259.984 311.986 263.984C303.986 263.984 296.006 264.004 288.016 264.014C287.996 268.004 287.996 271.994 287.996 276.004C271.996 276.004 255.996 275.994 239.996 276.004C239.986 271.994 239.986 267.994 239.996 264.004C239.996 259.994 240.006 255.994 240.016 252.004Z" fill="#6FCAEF"/>
<path d="M312.016 252.004C360.006 252.004 407.996 251.994 455.986 252.004C455.986 255.994 455.986 259.994 456.006 264.004C455.996 267.994 455.996 271.984 456.016 275.994C467.996 276.014 479.976 275.984 491.966 276.024C491.976 280.004 492.006 283.984 492.036 287.984C496.016 287.984 499.996 287.994 503.996 288.004C503.986 291.984 503.996 295.984 504.026 299.984C508.006 299.984 511.996 299.994 516.006 300.014C515.996 307.994 516.006 315.994 516.016 323.994C507.996 323.994 499.996 324.004 492.006 324.004C491.996 327.994 491.996 331.994 492.006 336.004C499.986 335.994 507.996 336.004 515.996 336.004C515.986 331.994 515.996 327.994 516.016 323.994C523.996 323.994 531.986 324.004 539.986 324.004C539.986 327.994 539.996 331.994 540.016 336.004C539.996 339.984 539.986 343.974 539.996 347.984C532.036 347.994 524.106 348.014 516.166 348.024C515.876 352.004 515.666 356.034 515.386 360.044C507.636 360.024 499.896 360.014 492.166 360.024C491.876 364.004 491.656 368.034 491.386 372.044C459.846 371.984 428.306 371.974 396.776 372.034C396.446 368.034 396.116 364.014 395.836 360.034C363.916 359.974 332.006 359.994 300.086 360.014C296.056 360.004 292.036 360.004 288.016 360.014C288.006 364.004 287.996 368.004 287.996 372.014C276.016 371.984 264.046 372.004 252.086 372.014C248.056 372.004 244.026 372.004 240.016 372.014C240.006 376.004 239.996 380.004 239.996 384.014C235.996 383.994 232.006 383.994 228.016 384.014C227.996 380.004 227.986 376.004 227.996 372.014C223.966 372.004 219.946 372.004 215.926 372.014C211.946 371.994 207.966 371.994 203.996 372.004C203.996 368.004 204.006 364.014 204.036 360.044C208.006 360.004 211.996 359.984 215.986 359.974C215.986 351.984 216.016 344.004 216.026 336.024C219.996 335.994 223.976 335.974 227.966 335.964C227.986 331.984 228.016 328.014 228.046 324.054C232.016 324.014 235.976 323.984 239.956 323.954C239.976 319.984 240.016 316.014 240.056 312.054C244.016 312.014 247.986 311.984 251.956 311.964C251.976 307.984 252.006 304.004 252.046 300.044C256.016 300.014 259.996 299.984 263.976 299.964C263.986 295.974 263.996 291.984 264.016 288.004C324.016 287.994 384.006 288.014 444.006 288.004C443.986 283.994 443.986 279.994 444.006 276.004C392.006 275.994 339.996 276.004 287.996 276.004C287.996 271.994 287.996 268.004 288.016 264.014C296.006 264.004 303.986 263.984 311.986 263.984C311.986 259.984 311.996 255.984 312.016 252.004ZM408.006 324.004C407.996 327.994 407.996 331.994 408.006 336.004C415.996 336.004 423.996 336.014 432.006 336.004C431.986 331.994 431.996 327.994 432.016 324.004C424.006 323.984 415.996 324.004 408.006 324.004ZM432.006 336.004C431.996 339.994 431.996 343.994 432.006 348.004C447.996 348.004 463.996 348.004 480.006 348.004C479.996 343.994 479.996 339.994 480.006 336.004C464.006 336.004 448.006 335.994 432.006 336.004Z" fill="#C3F1FF"/>
<path d="M108.025 264C112.005 263.99 116.005 263.99 120.005 264C160.005 264 199.995 264 239.995 264C239.985 267.99 239.985 271.99 239.995 276C224.005 276 208.025 276 192.035 276.01C192.005 279.98 191.985 283.97 191.965 287.96C187.985 287.98 184.015 288.01 180.055 288.04C180.015 292.01 179.985 295.98 179.965 299.96C175.975 299.97 171.995 300 168.025 300.03C168.015 304.01 168.005 308 168.005 312C140.005 312 112.005 312 84.005 312C83.985 304 83.995 296 84.015 288.01C87.995 287.99 91.9851 287.98 95.9851 287.98C95.9951 283.99 96.005 280 96.025 276.02C100.005 276 103.995 275.99 107.985 275.98C107.995 271.98 108.005 267.99 108.025 264Z" fill="#F6FCFF"/>
<path d="M456.005 264C528.005 264 600.005 264 672.005 264C672.005 288 672.005 312 672.005 336C628.005 336 584.015 336 540.015 336C539.995 331.99 539.985 327.99 539.985 324C531.985 324 523.995 323.99 516.015 323.99C516.005 315.99 515.995 307.99 516.005 300.01C515.985 296 515.985 292 515.995 288.01C511.985 288 507.985 288 503.995 288C499.995 287.99 496.015 287.98 492.035 287.98C492.005 283.98 491.975 280 491.965 276.02C479.975 275.98 467.995 276.01 456.015 275.99C455.995 271.98 455.995 267.99 456.005 264Z" fill="#F6FCFF"/>
<path d="M192.037 276.01C208.027 276 224.007 276 239.997 276C239.997 279.99 240.007 283.99 240.027 288C248.017 287.98 256.017 288 264.017 288C263.997 291.98 263.987 295.97 263.977 299.96C259.997 299.98 256.017 300.01 252.047 300.04C252.007 304 251.977 307.98 251.957 311.96C247.987 311.98 244.017 312.01 240.057 312.05C240.017 316.01 239.977 319.98 239.957 323.95C235.977 323.98 232.017 324.01 228.047 324.05C228.017 328.01 227.987 331.98 227.967 335.96C223.977 335.97 219.997 335.99 216.027 336.02C216.017 344 215.987 351.98 215.987 359.97C211.997 359.98 208.007 360 204.037 360.04C204.007 364.01 203.997 368 203.997 372C195.997 371.99 188.007 371.98 180.017 372.01C179.997 368 179.987 364 179.997 360.01C175.967 360 171.947 360 167.927 360.01C159.947 359.99 151.977 359.99 143.997 360C143.997 356 144.017 352.01 144.037 348.04C148.007 348 151.997 347.98 155.987 347.97C155.987 339.98 156.017 332 156.017 324.02C160.007 324 163.987 323.98 167.987 323.97C167.987 319.97 167.997 315.98 168.007 312C168.007 308 168.017 304.01 168.027 300.03C171.997 300 175.977 299.97 179.967 299.96C179.987 295.98 180.017 292.01 180.057 288.04C184.017 288.01 187.987 287.98 191.967 287.96C191.987 283.97 192.007 279.98 192.037 276.01Z" fill="#6FCAF0"/>
<path d="M144.016 372.009C152.006 371.989 159.986 371.989 167.986 371.999C167.986 375.989 168.006 379.979 168.026 383.989C176.016 383.989 184.006 383.979 192.006 383.999C192.006 395.999 191.996 407.989 192.006 419.999C187.996 419.989 184.006 419.989 180.016 420.009C179.996 423.989 179.996 427.989 180.006 431.999C180.016 451.989 179.986 471.979 180.016 491.969C183.996 491.969 187.996 491.989 191.996 492.019C191.996 507.999 192.016 523.979 192.006 539.969C195.996 539.979 199.986 539.999 203.996 540.039C204.006 552.009 204.006 563.979 204.016 575.969C208.006 575.979 211.996 575.999 216.006 576.039C215.996 579.999 215.986 583.989 215.996 587.989C215.976 590.809 215.956 597.249 215.946 600.079C219.946 600.339 223.946 599.789 227.986 600.079C227.976 602.899 227.966 609.359 227.966 612.179C231.956 612.469 235.936 611.879 239.956 612.179C239.966 616.089 239.986 620.029 240.016 623.979C236.016 623.969 232.016 623.969 228.026 623.999C228.006 619.989 227.986 616.159 227.986 612.179C223.996 612.149 220.006 611.979 216.026 611.979C216.006 607.979 215.986 604.049 215.986 600.079C211.996 600.049 208.006 599.979 204.026 599.979C204.006 595.979 203.996 591.989 203.986 588.019C199.996 587.989 196.006 587.979 192.026 587.979C192.006 583.979 191.996 579.989 191.986 576.019C187.996 575.989 184.006 575.979 180.026 575.979C180.006 571.979 179.996 567.989 179.986 564.019C175.996 563.989 172.006 563.979 168.026 563.979C168.006 559.979 167.996 555.989 167.986 552.019C163.986 551.989 159.996 551.979 156.016 551.979C155.996 543.979 156.006 535.999 155.996 528.009C151.996 527.989 147.996 527.979 144.006 527.979C144.006 523.979 144.006 519.979 144.006 515.999C144.006 507.989 143.996 500.009 143.996 492.019C139.996 491.989 136.006 491.969 132.016 491.969C131.996 467.979 132.006 443.989 132.006 419.999C132.006 408.009 131.996 396.019 132.016 384.029C135.996 383.999 139.986 383.979 143.976 383.959C143.976 379.969 143.996 375.979 144.016 372.009Z" fill="#6FCAF0"/>
<path d="M239.996 276.004C255.996 275.994 271.996 276.004 287.996 276.004C339.996 276.004 392.006 275.994 444.006 276.004C443.986 279.994 443.986 283.994 444.006 288.004C384.006 288.014 324.016 287.994 264.016 288.004C256.016 288.004 248.016 287.984 240.026 288.004C240.006 283.994 239.996 279.994 239.996 276.004Z" fill="#F5FCFF"/>
<path d="M503.996 288C507.986 288 511.986 288 515.996 288.01C515.986 292 515.986 296 516.006 300.01C511.996 299.99 508.006 299.98 504.026 299.98C503.996 295.98 503.986 291.98 503.996 288Z" fill="#DDF7FF"/>
<path d="M72.025 312C76.005 311.99 80.005 311.99 84.005 312C112.005 312 140.005 312 168.005 312C167.995 315.98 167.985 319.97 167.985 323.97C163.985 323.98 160.005 324 156.015 324.02C156.015 332 155.985 339.98 155.985 347.97C151.995 347.98 148.005 348 144.035 348.04C144.015 352.01 143.995 356 143.995 360C111.995 359.99 80.005 360 48.005 360C47.985 351.99 47.995 344 48.015 336.01C51.995 335.99 55.9951 335.98 59.9851 335.98C59.9951 331.98 60.005 328 60.025 324.02C64.005 324 67.9951 323.98 71.9851 323.98C71.9951 319.98 72.005 315.99 72.025 312Z" fill="#F8FCFF"/>
<path d="M492.006 324.002C499.996 324.002 507.996 323.992 516.016 323.992C515.996 327.992 515.986 331.992 515.996 336.002C507.996 336.002 499.986 335.992 492.006 336.002C491.996 331.992 491.996 327.992 492.006 324.002Z" fill="#F7FDFF"/>
<path d="M540.016 336C584.016 336 628.006 336 672.006 336C671.996 351.99 672.006 367.99 672.006 383.98C667.996 383.98 663.996 384 660.026 384.02C659.996 388 659.986 391.99 659.996 396C627.996 396 595.996 396 564.006 396C563.996 388 563.996 380.01 563.996 372.03C559.996 371.99 556.016 371.97 552.046 371.97C552.006 367.97 551.986 363.99 551.976 360.02C539.986 359.98 528.016 359.97 516.036 360.01C516.006 363.99 515.986 367.98 515.976 371.98C507.976 371.98 500.006 372.01 492.026 372.01C491.996 375.99 491.976 379.99 491.976 383.99C459.986 384 427.996 384 396.016 384C395.986 379.99 395.986 375.99 395.986 372.01C391.986 371.99 387.986 371.99 383.996 372C356.006 372 328.016 371.99 300.026 372.01C300.006 375.99 299.986 379.99 299.976 384C283.996 383.99 268.006 384 252.026 384.01C252.006 387.99 251.986 391.98 251.976 395.98C239.996 396.01 228.016 396.02 216.036 395.99C216.006 391.98 215.986 387.99 215.976 384C207.976 384 199.996 384 192.006 384C184.006 383.98 176.016 383.99 168.026 383.99C168.006 379.98 167.986 375.99 167.986 372C159.986 371.99 152.006 371.99 144.016 372.01C143.996 375.98 143.976 379.97 143.976 383.96C139.986 383.98 135.996 384 132.016 384.03C131.996 396.02 132.006 408.01 132.006 420C92.0059 420 52.0059 420 12.0159 420C12.0059 415.99 12.0059 412 12.0059 408.02C15.9959 408 19.9959 407.98 23.9959 407.98C24.0059 399.98 23.9959 392 24.0159 384.01C28.0059 383.99 31.9959 383.98 35.9959 383.98C36.0159 375.98 35.9959 367.99 36.0159 360C40.0059 359.99 44.0059 359.99 48.0059 360C80.0059 360 111.996 359.99 143.996 360C151.976 359.99 159.946 359.99 167.926 360.01C168.166 364.01 168.436 368.04 168.716 372.07C171.546 372.05 177.196 372.02 180.016 372.01C188.006 371.98 195.996 371.99 203.996 372C207.966 371.99 211.946 371.99 215.926 372.01C216.166 376 216.436 380.04 216.716 384.06C219.546 384.05 225.196 384.02 228.016 384.01C232.006 383.99 235.996 383.99 239.996 384.01C242.816 384.02 248.466 384.05 251.296 384.06C251.556 380.04 251.806 376 252.086 372.01C264.046 372 276.016 371.98 287.996 372.01C290.816 372.02 296.466 372.05 299.286 372.07C299.556 368.04 299.806 364.01 300.086 360.01C332.006 359.99 363.916 359.97 395.836 360.03C396.116 364.01 396.446 368.03 396.776 372.03C428.306 371.97 459.846 371.98 491.386 372.04C491.656 368.03 491.876 364 492.166 360.02C499.896 360.01 507.636 360.02 515.386 360.04C515.666 356.03 515.876 352 516.166 348.02C524.106 348.01 532.036 347.99 539.996 347.98C539.986 343.97 539.996 339.98 540.016 336Z" fill="#F9FDFE"/>
<path d="M167.926 360.011C171.946 360.001 175.966 360.001 179.996 360.011C179.986 364.001 179.996 368.001 180.016 372.011C177.196 372.021 171.546 372.051 168.716 372.071C168.436 368.041 168.166 364.011 167.926 360.011Z" fill="#80D1F2"/>
<path d="M288.016 360.011C292.036 360.001 296.056 360.001 300.086 360.011C299.806 364.011 299.556 368.041 299.286 372.071C296.466 372.051 290.816 372.021 287.996 372.011C287.996 368.001 288.006 364.001 288.016 360.011Z" fill="#E2F8FF"/>
<path d="M516.036 360.01C528.016 359.97 539.986 359.98 551.976 360.02C551.986 363.99 552.006 367.97 552.046 371.97C556.016 371.97 559.996 371.99 563.996 372.03C563.996 380.01 563.996 388 564.006 396L563.996 503.97C559.986 503.98 555.996 504 552.006 504.03C551.996 508.01 551.996 511.99 552.006 516C551.996 523.98 551.986 531.98 552.006 539.99C547.996 539.98 544.006 539.99 540.026 540.02C539.996 543.99 539.986 547.98 539.986 551.98C535.986 551.98 531.996 551.99 528.016 552.02C527.986 559.99 528.006 567.99 527.996 575.99C523.996 575.98 520.006 575.99 516.026 576.02C515.996 579.99 515.986 583.98 515.986 587.98C511.986 587.98 507.996 587.99 504.026 588.02C503.996 591.99 503.986 595.98 503.986 599.98C499.986 599.98 495.996 599.99 492.026 600.02C491.996 603.99 491.986 607.98 491.986 611.99C483.986 611.99 476.006 611.99 468.016 612.01C467.996 615.99 467.986 619.98 467.996 623.99C459.986 623.99 452.006 623.99 444.016 624.01C443.996 627.99 443.986 631.98 443.986 636C379.996 636 316.006 636 252.026 636C252.006 631.99 251.986 627.99 251.986 624.02C247.986 623.99 243.996 623.98 240.016 623.98C239.986 620.03 239.966 616.09 239.956 612.18C235.936 611.88 231.956 612.47 227.966 612.18C227.966 609.36 227.976 602.9 227.986 600.08C227.976 596.04 227.986 592.02 227.996 588.01C223.986 587.99 219.986 587.98 215.996 587.99C215.986 583.99 215.996 580 216.006 576.04C211.996 576 208.006 575.98 204.016 575.97C204.006 563.98 204.006 552.01 203.996 540.04C199.986 540 195.996 539.98 192.006 539.97C192.016 523.98 191.996 508 191.996 492.02C187.996 491.99 183.996 491.97 180.016 491.97C179.986 471.98 180.016 451.99 180.006 432C204.006 431.99 228.006 432 252.006 432C251.996 427.99 251.996 423.99 252.006 420C232.006 419.97 212.006 420.01 192.006 420C191.996 407.99 192.006 396 192.006 384C199.996 384 207.976 384 215.976 384C215.986 387.99 216.006 391.98 216.036 395.99C228.016 396.02 239.996 396.01 251.976 395.98C251.986 391.98 252.006 387.99 252.026 384.01C268.006 384 283.996 383.99 299.976 384C299.986 379.99 300.006 375.99 300.026 372.01C328.016 371.99 356.006 372 383.996 372C383.996 375.99 384.006 379.98 384.026 384C388.006 383.99 392.006 383.99 396.016 384C427.996 384 459.986 384 491.976 383.99C491.976 379.99 491.996 375.99 492.026 372.01C500.006 372.01 507.976 371.98 515.976 371.98C515.986 367.98 516.006 363.99 516.036 360.01Z" fill="#87DFF9"/>
<path d="M215.926 372.011C219.946 372.001 223.966 372.001 227.996 372.011C227.986 376.001 227.996 380.001 228.016 384.011C225.196 384.021 219.546 384.051 216.716 384.061C216.436 380.041 216.166 376.001 215.926 372.011Z" fill="#E5F9FF"/>
<path d="M240.016 372.011C244.026 372.001 248.056 372.001 252.086 372.011C251.806 376.001 251.556 380.041 251.296 384.061C248.466 384.051 242.816 384.021 239.996 384.011C239.996 380.001 240.006 376.001 240.016 372.011Z" fill="#E5F9FF"/>
<path d="M383.996 372.003C387.986 371.993 391.986 371.993 395.986 372.013C395.986 375.993 395.986 379.993 396.016 384.003C392.006 383.993 388.006 383.993 384.026 384.003C384.006 379.983 383.996 375.993 383.996 372.003Z" fill="#9BE5FB"/>
<path d="M564.006 396C595.996 396 627.996 396 659.996 396C660.006 403.99 660.006 411.99 659.996 419.99C655.986 419.99 651.986 419.99 648.006 420.01C647.996 432 647.996 443.99 647.996 455.98C643.986 455.98 639.996 455.99 636.016 456.02C635.986 463.99 636.006 471.99 635.996 479.99C631.986 479.98 627.996 479.99 624.016 480.01C623.986 487.99 624.006 495.99 623.996 503.99C619.986 503.98 615.996 503.99 612.026 504.02C611.996 508 611.986 511.99 611.986 515.99C591.996 516 571.996 516 552.006 516C551.996 511.99 551.996 508.01 552.006 504.03C555.996 504 559.986 503.98 563.996 503.97C564.006 467.98 564.006 431.99 564.006 396Z" fill="#FCFEFF"/>
<path d="M12.015 420C52.005 420 92.005 420 132.005 420C132.005 443.99 131.995 467.98 132.015 491.97C136.005 491.97 139.995 491.99 143.995 492.02C143.995 500.01 144.005 507.99 144.005 516C136.005 516 128.005 516 120.015 515.99C120.005 511.98 119.995 507.99 119.985 504C115.995 503.99 112.005 503.99 108.025 504C108.005 507.99 107.995 511.98 107.985 516C75.995 516 44.015 516 12.025 516C12.005 511.99 11.995 508 11.985 504.02C7.995 503.99 4.005 503.98 0.015 503.98C-0.005 479.99 -0.005 456 0.015 432.02C4.005 431.99 7.99501 431.98 11.995 431.98C11.995 427.98 11.995 423.98 12.015 420Z" fill="#FCFEFE"/>
<path d="M215.995 587.992C219.985 587.982 223.985 587.992 227.995 588.012C227.985 592.022 227.975 596.042 227.985 600.082C223.945 599.792 219.945 600.342 215.945 600.082C215.955 597.252 215.975 590.812 215.995 587.992Z" fill="#7BD5F5"/>
<path d="M492.017 461.999C496.007 461.979 500.007 461.979 504.017 461.999C507.997 461.989 511.997 461.989 516.017 461.999C516.017 473.999 516.007 485.999 516.017 497.999C512.007 497.989 508.017 497.989 504.037 497.999C504.007 493.989 503.997 489.999 503.997 486.019C499.997 485.989 496.007 485.979 492.027 485.979C492.007 481.979 492.007 477.979 492.017 473.999C491.997 469.989 491.997 465.989 492.017 461.999Z" fill="#DC5E54"/>
<path fill-rule="evenodd" clip-rule="evenodd" d="M516.029 438.007C512.019 437.998 508.019 437.998 504.029 438.007C504.019 441.995 504.009 445.992 504.029 450C504.025 450 504.021 450 504.017 450L504.017 450.007C500.011 449.998 496.015 449.998 492.029 450.007C492.019 453.998 492.009 457.997 492.029 462.007C496.009 461.997 500.009 461.997 504.029 462.007L504.029 462C508.005 461.99 512.001 461.99 516.017 462C516.007 457.992 516.007 453.995 516.017 450.007C516.021 450.007 516.025 450.007 516.029 450.007C516.009 445.997 516.009 441.997 516.029 438.007ZM492.017 462C488.007 461.99 484.007 461.99 480.017 462C480.007 465.99 479.997 469.99 480.017 474C483.997 473.99 487.997 473.99 492.017 474C491.997 469.99 491.997 465.99 492.017 462Z" fill="#F26A5E"/>
<path d="M372.026 432.009C392.006 431.989 412.006 431.989 431.996 431.999C431.996 435.979 432.006 439.979 432.026 443.989C436.006 443.979 439.996 443.989 444.006 443.999C447.986 443.989 451.976 443.989 455.986 444.009C455.986 447.989 455.996 451.979 456.026 455.979C460.006 455.979 463.996 455.989 468.006 456.019C467.986 459.989 467.986 463.979 467.996 467.989C464.046 467.989 460.106 468.009 456.176 468.049C455.886 472.019 455.666 476.039 455.386 480.039C443.586 480.009 431.796 479.999 420.016 479.999C415.996 479.989 412.006 479.989 408.026 480.009C408.006 483.989 407.996 487.989 407.996 492.009C403.996 491.989 400.016 491.979 396.046 491.989C396.006 487.979 395.986 483.979 395.976 479.999C384.266 479.979 359.856 480.049 359.856 480.049L359.146 467.939C356.366 467.949 350.796 467.979 348.006 467.999C347.996 463.989 347.996 459.999 348.006 456.019C351.996 455.999 355.986 455.979 359.986 455.979C359.986 451.979 360.006 447.989 360.026 444.019C364.006 443.989 367.986 443.979 371.986 443.979C371.986 439.979 371.996 435.989 372.026 432.009ZM360.266 457.099C360.086 459.819 359.736 465.259 359.566 467.979C363.706 467.979 367.856 467.989 372.016 468.009C371.986 463.819 371.966 459.659 371.956 455.499C368.046 456.039 364.096 456.209 360.266 457.099Z" fill="#F1695F"/>
<path d="M431.996 432C435.986 431.99 439.986 431.99 444.006 432C443.996 435.99 443.996 439.99 444.006 444C439.996 443.99 436.006 443.98 432.026 443.99C432.006 439.98 431.996 435.98 431.996 432Z" fill="#E57972"/>
<path d="M228.013 539.999C232.003 539.979 236.003 539.979 240.013 539.999C240.003 543.989 240.003 547.989 240.013 551.999C236.003 551.979 232.003 551.979 228.013 551.999C228.003 547.979 228.003 543.979 228.013 539.999Z" fill="#F26A5E"/>
<path fill-rule="evenodd" clip-rule="evenodd" d="M300.016 515.999C302.298 515.999 304.58 515.997 306.864 515.995C312.575 515.991 318.288 515.987 323.996 516.009C323.996 519.963 324.005 523.927 324.015 527.911L324.016 527.989C332.006 527.989 339.996 527.989 347.996 528.009C347.996 531.989 348.006 535.979 348.026 539.979C352.006 539.979 355.996 539.989 360.006 540.019C359.996 543.999 359.996 547.989 360.006 551.999C356.016 551.979 352.046 551.979 348.096 551.989C347.906 549.329 347.733 546.691 347.56 544.058L347.56 544.057C347.469 542.67 347.379 541.285 347.286 539.899C346.543 539.907 345.647 539.917 344.68 539.928L344.675 539.928C342.012 539.958 338.809 539.994 336.771 540.009C336.736 542.003 336.753 543.997 336.771 545.994C336.788 547.992 336.806 549.993 336.771 551.999C336.601 555.999 336.771 564.069 336.771 564.069C336.771 564.069 311.826 564.009 300.056 563.959C300.016 559.969 299.986 555.979 299.976 552.009C287.976 551.989 275.986 551.989 264.006 551.999C263.996 547.989 263.996 543.999 264.006 540.019C267.996 539.989 271.986 539.979 275.986 539.979C275.986 535.979 276.006 531.989 276.026 528.009C280.815 527.997 285.607 527.996 290.403 527.994H290.404C293.6 527.994 296.797 527.993 299.996 527.989C299.996 523.979 299.996 519.979 300.016 515.999ZM240.013 539.997C244.001 539.977 247.998 539.977 252.006 539.997C251.996 543.987 251.996 547.987 252.006 551.997C247.996 551.977 243.996 551.977 240.006 551.997C239.996 547.983 239.996 543.988 240.006 540.013C235.998 539.993 232.001 539.993 228.013 540.013C228.003 535.993 228.003 531.993 228.013 528.013C232.003 527.993 236.003 527.993 240.013 528.013C240.003 531.998 240.003 535.993 240.013 539.997Z" fill="#F26A5E"/>
<path d="M240.006 552.015C243.996 551.995 247.996 551.995 252.006 552.015C251.996 556.005 251.996 560.005 252.006 564.015C247.996 563.995 243.996 563.995 240.006 564.015C239.996 559.995 239.996 555.995 240.006 552.015Z" fill="#DD5E54"/>
<path d="M359.565 455.5H371.955C371.955 455.5 371.985 463.82 372.015 468.01C367.855 467.99 359.565 467.98 359.565 467.98V455.5Z" fill="#482070"/>
<path d="M335.936 540.008C338.716 539.988 345.306 539.928 348.096 539.898V551.988C344.026 551.978 339.976 551.978 335.936 551.998V540.008Z" fill="#482070"/>
<path d="M348.006 467.997C350.796 467.977 359.986 467.938 359.986 467.938V480.047C359.986 480.047 384.266 479.977 395.976 479.997C395.986 483.977 396.006 487.977 396.046 491.987C400.016 491.977 403.996 491.988 407.996 492.008C411.986 491.988 415.976 491.977 419.996 491.987C419.986 487.977 419.996 483.977 420.016 479.997C431.796 479.997 443.586 480.007 455.386 480.037C455.666 476.037 455.886 472.017 456.176 468.047C460.106 468.007 464.046 467.987 467.996 467.987C467.986 471.967 467.986 475.967 468.006 479.977C463.996 479.977 460.006 479.988 456.026 480.018C455.996 483.998 455.986 487.987 455.986 491.987C447.986 491.987 440.006 491.988 432.016 492.008C431.996 495.988 431.986 499.987 431.986 503.997C415.996 503.987 400.006 503.997 384.016 503.997C383.996 499.987 383.986 495.988 383.986 492.008C379.986 491.988 375.986 491.987 372.006 491.997C367.996 491.977 364.006 491.977 360.026 491.987C360.006 487.987 359.986 483.998 359.986 480.018C355.986 479.988 351.996 479.977 348.006 479.987C347.996 475.977 347.996 471.977 348.006 467.997Z" fill="#DD5F55"/>
<path d="M264.006 551.997C275.986 551.987 287.976 551.987 299.976 552.007C299.986 555.977 300.016 559.967 300.056 563.957C305.944 563.982 311.835 563.997 317.729 564.012H317.731L317.742 564.012C323.624 564.027 330.049 564.042 335.936 564.067C336.115 560.039 335.76 556.129 335.936 551.997C339.976 551.977 344.026 551.977 348.096 551.987C352.046 551.977 356.016 551.977 360.006 551.997C359.996 555.977 359.996 559.977 360.006 563.987C349.951 563.987 348.166 563.998 348.166 563.998V576.088C333.965 576.053 337.725 575.996 323.166 575.992V587.088C319.096 587.078 315.046 587.078 311.006 587.098V587.088C306.99 587.078 302.993 587.078 299.006 587.098V575.99C290.886 575.991 283.143 575.993 277.016 575.997C276.996 571.987 276.986 567.987 276.986 564.007C272.686 563.991 271.567 563.992 270.211 563.994C269.044 563.995 267.701 563.996 264.006 563.987C263.996 559.977 263.996 555.977 264.006 551.997Z" fill="#DD5F55"/>
<path d="M408.026 480.009C412.006 479.989 415.996 479.989 420.016 479.999C419.996 483.979 419.986 487.979 419.996 491.989C415.976 491.979 411.986 491.989 407.996 492.009C407.996 487.989 408.006 483.989 408.026 480.009Z" fill="#E9665A"/>
<path d="M372.006 491.999C375.986 491.989 379.986 491.989 383.986 492.009C383.986 495.989 383.996 499.989 384.016 503.999C379.996 503.989 375.996 503.989 372.006 503.999C371.996 499.989 371.996 495.989 372.006 491.999Z" fill="#C77F7E"/>
<path fill-rule="evenodd" clip-rule="evenodd" d="M228.013 551.999C232.002 551.979 236.001 551.979 240.009 551.999L240.013 563.999L240.006 563.999V563.999C235.998 563.989 232.001 563.989 228.013 563.999C228.003 559.989 228.003 555.989 228.013 551.999ZM240.013 564.015C236.003 563.995 232.003 563.995 228.013 564.015C228.003 568.005 228.003 572.005 228.013 576.015C232.003 576.005 236.003 576.005 240.013 576.015C240.003 571.995 240.003 567.995 240.013 564.015Z" fill="#DD5E54"/>
</svg>
