<svg width="673" height="648" viewBox="0 0 673 648" fill="none" xmlns="http://www.w3.org/2000/svg">
<path d="M372.012 0.00444444C400.002 -0.00555556 428.002 0.00444444 456.002 0.00444444C455.992 4.00444 455.992 7.99444 456.012 12.0044C468.002 12.0044 479.992 12.0044 491.992 12.0044C491.982 16.0044 491.992 19.9944 492.012 24.0044C499.992 24.0044 508.002 24.0044 516.002 24.0044C515.992 28.0044 515.992 32.0044 516.002 36.0044C452.002 36.0044 388.002 36.0044 324.002 36.0044C323.992 32.0044 323.992 28.0044 324.002 24.0144C331.992 23.9944 339.992 24.0044 348.002 24.0044C347.992 20.0044 347.992 16.0044 348.012 12.0044C355.992 11.9944 364.002 12.0044 372.002 12.0044C371.992 8.00444 371.992 4.00444 372.012 0.00444444Z" fill="#E5FEF5"/>
<path d="M300.012 36.0039C308.002 36.0039 316.002 36.0039 324.002 36.0039C388.002 36.0039 452.002 36.0039 516.002 36.0039C523.992 36.0039 531.992 36.0039 540.002 36.0039C539.992 39.9939 539.992 43.9939 540.012 47.9939C543.992 48.0039 547.982 48.0039 551.992 48.0139C551.982 52.0039 551.992 55.9939 552.012 59.9939C555.992 59.9939 559.992 60.0039 564.002 60.0139C563.982 64.0039 563.982 68.0039 564.002 72.0039C468.002 72.0039 372.002 72.0039 276.002 72.0039C275.992 68.0039 275.992 64.0039 276.002 60.0139C279.992 60.0039 283.992 59.9939 287.992 59.9939C287.992 55.9939 287.992 52.0039 288.012 48.0139C291.992 48.0039 295.992 47.9939 299.992 47.9939C299.992 43.9939 299.992 39.9939 300.012 36.0039Z" fill="#E7FEF6"/>
<path d="M264.012 72.0039C267.992 72.0039 271.992 72.0039 276.002 72.0039C372.002 72.0039 468.002 72.0039 564.002 72.0039C571.992 72.0039 579.992 72.0039 588.002 72.0039C587.992 75.9939 587.992 79.9939 588.012 83.9939C591.992 83.9939 595.982 84.0039 600.002 84.0139C599.982 88.0039 599.982 92.0039 600.002 96.0039C484.002 96.0039 368.002 96.0039 252.002 96.0039C251.992 92.0039 251.992 88.0039 252.002 84.0139C255.992 84.0039 259.992 83.9939 263.992 83.9939C263.992 79.9939 263.992 75.9939 264.012 72.0039Z" fill="#E9FEF7"/>
<path d="M240.012 96.0039C244.002 96.0039 247.992 96.0039 252.002 96.0039C368.002 96.0039 484.002 96.0039 600.002 96.0039C599.982 99.9939 599.992 103.994 600.012 107.994C603.992 107.994 607.982 108.004 612.002 108.014C611.982 112.004 611.982 116.004 612.002 120.004C484.002 120.004 356.002 120.004 228.002 120.004C227.992 116.004 227.992 112.004 228.002 108.014C231.992 108.004 235.992 107.994 239.992 107.994C239.992 103.994 239.992 99.9939 240.012 96.0039Z" fill="#EBFEF7"/>
<path d="M216.002 120.004C219.992 119.994 223.992 119.994 228.002 120.004C356.002 120.004 484.003 120.004 612.003 120.004C615.983 119.994 619.993 119.994 624.013 120.004C623.983 123.994 623.983 127.994 624.003 132.004C623.983 135.994 623.983 140.004 624.003 144.004C488.003 144.004 352.002 144.004 216.002 144.004C215.992 135.994 216.002 128.004 216.002 120.004Z" fill="#EDFEF8"/>
<path d="M204.012 144.004C207.992 143.994 211.992 144.004 216.002 144.004C352.002 144.004 488.002 144.004 624.002 144.004C627.982 144.004 631.982 144.004 636.002 144.004C635.982 147.994 635.992 151.994 636.012 155.994C639.992 155.994 643.992 155.994 648.002 156.004C647.982 159.994 647.982 163.994 648.002 168.004C496.002 168.004 344.002 168.004 192.002 168.004C191.992 164.004 191.992 160.004 192.002 156.014C195.992 156.004 199.992 155.994 203.992 155.994C203.992 151.994 203.992 147.994 204.012 144.004Z" fill="#EEFEF9"/>
<path d="M180.012 168.004C184.002 167.994 187.992 167.994 192.002 168.004C344.002 168.004 496.002 168.004 648.002 168.004C647.982 171.994 647.992 175.994 648.012 179.994C651.992 179.994 655.982 179.994 659.992 180.014C659.982 188.004 659.992 196.004 660.002 204.004C619.992 204.004 579.992 204.004 539.992 204.004C539.982 199.994 539.992 196.004 540.012 192.014C532.002 192.004 524.002 191.994 516.002 192.004C515.982 195.994 515.982 199.994 515.992 203.994C507.982 203.994 499.992 204.014 492.002 204.004C491.982 199.994 491.982 196.004 491.992 192.014C483.982 191.994 475.992 191.994 468.002 192.004C467.982 195.994 467.982 199.994 467.992 203.994C459.982 203.994 451.992 204.014 444.002 204.004C443.982 199.994 443.982 196.004 443.992 192.014C435.982 191.994 427.992 191.994 420.002 192.004C419.982 196.004 419.982 199.994 419.992 204.004C415.982 203.994 411.992 203.994 408.022 204.004C407.992 200.004 407.982 196.004 407.992 192.014C395.992 192.004 384.002 192.004 372.012 192.004C371.992 195.994 371.982 199.994 371.982 204.004C367.982 203.994 363.992 203.994 360.022 204.004C360.002 200.004 359.992 196.004 359.992 192.014C351.982 191.994 343.992 191.994 336.002 192.004C335.992 195.994 335.982 199.994 335.992 203.994C327.982 203.994 319.992 204.014 312.002 204.004C311.992 199.994 311.982 196.004 311.992 192.014C303.982 191.994 295.992 191.994 288.002 192.004C287.992 195.994 287.982 199.994 287.992 203.994C279.992 203.994 271.992 204.014 264.002 204.004C263.992 199.994 263.992 196.004 263.992 192.014C255.992 191.994 248.002 191.994 240.002 192.004C239.992 196.004 239.982 199.994 239.992 204.004C235.992 203.994 232.002 203.994 228.022 204.004C228.002 200.004 227.992 196.004 227.992 192.014C215.992 192.004 204.002 192.004 192.012 192.004C192.002 195.994 191.992 199.994 191.982 204.004C187.992 203.994 184.002 203.994 180.022 204.004C180.002 199.994 179.992 195.994 179.992 192.004C175.982 192.004 171.992 192.004 168.002 192.014C167.992 188.004 167.992 184.004 168.002 180.014C171.992 180.004 175.992 179.994 179.992 179.994C179.992 175.994 180.002 171.994 180.012 168.004Z" fill="#F0FEF9"/>
<path d="M156.012 191.996C160.002 191.996 164.002 192.006 168.002 192.016C171.992 192.006 175.982 192.006 179.992 192.006C179.992 195.996 180.002 199.996 180.022 204.006C184.002 203.996 187.992 203.996 191.982 204.006C191.992 199.996 192.002 195.996 192.012 192.006C204.002 192.006 215.992 192.006 227.992 192.016C227.992 196.006 228.002 200.006 228.022 204.006C232.002 203.996 235.992 203.996 239.992 204.006C239.982 199.996 239.992 196.006 240.002 192.006C248.002 191.996 255.992 191.996 263.992 192.016C263.992 196.006 263.992 199.996 264.002 204.006C271.992 204.016 279.992 203.996 287.992 203.996C287.982 199.996 287.992 195.996 288.002 192.006C295.992 191.996 303.982 191.996 311.992 192.016C311.982 196.006 311.992 199.996 312.002 204.006C319.992 204.016 327.982 203.996 335.992 203.996C335.982 199.996 335.992 195.996 336.002 192.006C343.992 191.996 351.982 191.996 359.992 192.016C359.992 196.006 360.002 200.006 360.022 204.006C363.992 203.996 367.982 203.996 371.982 204.006C371.982 199.996 371.992 195.996 372.012 192.006C384.002 192.006 395.992 192.006 407.992 192.016C407.982 196.006 407.992 200.006 408.022 204.006C411.992 203.996 415.982 203.996 419.992 204.006C419.982 199.996 419.982 196.006 420.002 192.006C427.992 191.996 435.982 191.996 443.992 192.016C443.982 196.006 443.982 199.996 444.002 204.006C451.992 204.016 459.982 203.996 467.992 203.996C467.982 199.996 467.982 195.996 468.002 192.006C475.992 191.996 483.982 191.996 491.992 192.016C491.982 196.006 491.982 199.996 492.002 204.006C499.992 204.016 507.982 203.996 515.992 203.996C515.982 199.996 515.982 195.996 516.002 192.006C524.002 191.996 532.002 192.006 540.012 192.016C539.992 196.006 539.982 199.996 539.992 204.006C539.982 212.006 539.992 220.006 540.012 228.006C535.992 227.996 531.992 227.996 528.002 227.996C527.992 239.996 527.992 251.996 528.002 264.006C527.992 276.006 528.002 288.006 528.002 300.006C527.992 311.996 528.002 323.986 527.992 335.986C523.982 335.986 519.992 335.996 516.012 336.016C515.992 340.006 515.992 343.996 516.002 348.006C492.002 348.016 468.012 347.986 444.012 348.006C443.992 343.996 443.982 339.996 443.992 335.996C439.982 335.996 435.982 335.996 432.002 336.006C432.002 304.006 431.992 272.006 432.002 240.006C435.992 239.996 439.992 240.006 444.012 240.016C444.152 272.036 443.512 304.076 444.532 336.096C447.402 336.066 453.152 336.016 456.022 335.996C455.982 299.996 456.002 264.006 456.002 228.016C452.032 227.996 448.072 227.996 444.122 227.996C443.962 219.966 443.862 211.946 443.592 203.926C440.692 203.956 434.882 203.996 431.982 204.016C432.002 216.006 432.002 228.006 432.002 240.006C427.992 239.996 424.002 239.986 420.022 239.996C419.992 235.996 419.982 231.996 419.992 228.006C415.982 228.006 411.992 228.006 408.012 228.006C408.002 239.996 408.002 251.996 408.002 264.006C403.992 263.996 399.992 263.996 396.012 264.006C396.002 244.006 395.972 224.006 396.002 204.006C391.992 203.996 387.992 203.996 384.002 204.006C384.002 248.006 384.012 291.996 383.992 335.996C386.802 336.016 392.422 336.046 395.232 336.066C395.552 332.056 395.832 328.046 396.162 324.056C400.092 324.026 404.042 323.996 408.002 323.986C407.972 307.986 407.992 291.996 408.002 276.006C411.992 275.996 415.992 275.996 420.002 276.006C419.992 296.006 420.012 316.006 420.002 336.016C411.992 335.996 404.002 335.996 396.012 336.006C395.992 339.996 395.982 343.986 395.992 347.996C363.992 348.016 332.002 347.996 300.012 348.006C299.992 343.996 299.992 339.986 299.992 335.996C295.982 335.996 291.992 335.996 288.002 336.006C288.012 300.006 287.992 264.006 288.002 228.006C283.992 227.996 279.992 227.996 276.002 228.006C276.012 264.006 275.992 300.006 276.002 336.016C267.992 336.006 260.002 335.996 252.012 336.006C251.992 339.996 251.982 343.996 251.992 348.006C223.992 347.986 196.002 348.016 168.002 348.006C168.002 332.006 168.012 316.006 168.002 300.006C167.992 291.996 168.002 284.006 168.002 276.016C163.992 275.996 160.002 275.996 156.012 275.996C155.992 255.996 156.012 236.006 155.992 216.016C151.992 216.006 147.992 215.996 144.002 216.006C144.002 211.996 144.002 208.006 144.002 204.016C147.992 204.006 151.992 203.996 156.002 203.996C155.992 199.996 156.002 195.996 156.012 191.996ZM204.002 204.006C204.002 228.006 204.002 252.006 204.002 276.006C207.992 275.996 211.992 275.996 216.002 276.006C216.002 252.006 216.002 228.006 215.992 204.006C211.992 203.996 207.992 203.996 204.002 204.006ZM252.012 203.476C252.012 227.646 251.982 251.826 252.002 275.996C247.992 275.996 243.992 276.006 240.002 276.016C240.002 296.006 240.012 316.006 239.992 336.006C242.842 336.006 248.552 336.016 251.402 336.026C251.682 332.026 251.882 327.996 252.152 324.026C256.092 324.006 260.042 323.996 264.002 323.996C263.832 285.996 264.292 247.976 263.902 209.976C266.482 201.336 256.332 204.676 252.012 203.476ZM480.052 203.866C479.942 207.916 479.832 211.966 479.742 216.026C479.912 218.686 480.242 224.006 480.412 226.666C483.682 228.916 488.312 227.206 491.992 228.266C492.012 264.176 491.992 300.086 492.002 336.006C495.992 335.996 499.992 335.996 504.002 336.006C504.002 299.996 504.002 263.986 504.002 227.976C503.992 223.976 503.992 219.986 504.002 216.006C499.992 215.996 495.992 215.996 492.002 216.006C492.012 213.156 492.032 207.456 492.042 204.606C488.042 204.306 484.022 204.076 480.052 203.866ZM180.002 216.006C180.002 240.006 179.992 264.006 180.002 288.006C183.992 287.996 187.992 287.996 192.002 288.006C192.002 264.006 192.002 240.006 192.002 216.006C187.992 215.996 183.992 215.996 180.002 216.006ZM300.002 216.006C300.172 254.016 299.702 292.026 300.112 330.036C297.562 338.686 307.602 335.336 311.982 336.556C312.022 308.466 311.982 280.376 312.012 252.286C315.892 251.776 319.862 251.686 323.732 250.936C323.852 248.206 324.082 242.746 324.202 240.016C324.102 236.006 324.022 232.006 323.952 228.016C319.962 228.006 315.982 227.996 312.012 227.996C311.992 223.996 311.992 219.996 311.992 216.006C307.992 215.996 303.992 215.996 300.002 216.006ZM336.002 216.006C336.002 228.006 335.992 240.006 336.002 252.006C331.992 251.996 327.992 251.996 324.002 252.006C323.992 255.996 323.992 259.996 324.002 264.006C324.002 288.006 324.002 312.006 324.002 336.006C332.002 335.996 339.992 335.986 348.002 336.006C347.992 296.006 348.002 256.006 348.002 216.006C343.992 215.996 339.992 215.996 336.002 216.006ZM228.022 228.006C228.012 240.006 228.042 252.016 227.752 264.026C228.192 268.036 228.262 272.136 229.052 276.126C231.532 276.126 236.472 276.126 238.952 276.126C239.732 272.136 239.772 268.036 240.252 264.026C239.962 252.016 239.982 240.006 239.982 228.006C235.982 227.996 232.002 227.996 228.022 228.006ZM360.002 228.006C360.002 264.006 360.002 300.006 360.002 336.006C363.992 335.996 367.992 335.996 372.002 336.006C372.002 300.006 372.002 264.006 372.002 228.006C367.992 227.996 363.992 227.996 360.002 228.006ZM468.002 228.006C468.002 264.006 468.002 300.006 468.002 336.006C471.992 335.996 475.992 335.996 480.002 336.006C480.002 300.006 480.002 264.006 480.002 228.006C475.992 227.996 471.992 227.996 468.002 228.006ZM216.002 276.006C216.002 296.006 215.992 316.006 216.002 336.006C219.992 335.996 223.992 335.996 228.002 336.006C227.992 316.006 227.992 296.006 228.012 276.006C223.992 275.996 219.992 275.996 216.002 276.006ZM192.262 289.116C192.152 291.836 191.922 297.276 191.802 299.996C192.022 311.996 192.032 323.996 192.022 336.006C196.012 335.996 200.002 335.996 204.012 336.006C203.992 324.006 203.982 312.006 204.012 300.006C203.992 295.826 203.972 291.646 203.952 287.486C200.052 288.016 196.092 288.226 192.262 289.116Z" fill="#04C078"/>
<path d="M204.002 204.004C207.992 203.994 211.992 203.994 215.992 204.004C216.002 228.004 216.002 252.004 216.002 276.004C211.992 275.994 207.992 275.994 204.002 276.004C204.002 252.004 204.002 228.004 204.002 204.004Z" fill="#099060"/>
<path d="M324.002 444.004C332.002 443.994 339.992 443.994 348.012 444.004C347.982 476.004 348.012 508.004 348.002 540.004C339.992 539.994 332.002 539.994 324.002 540.004C323.982 508.004 324.012 476.004 324.002 444.004Z" fill="#099060"/>
<path d="M383.992 444.015C386.842 443.995 392.542 443.955 395.392 443.945C395.662 447.945 395.872 451.935 396.142 455.975C400.082 455.975 404.042 455.995 408.002 456.025C407.972 472.015 407.992 488.005 408.012 504.005C403.992 503.995 399.982 503.995 395.992 504.005C395.992 507.985 395.992 511.995 396.012 516.005C396.002 523.995 396.002 531.995 396.002 540.005C391.982 539.985 387.992 539.985 384.002 540.005C383.982 508.005 384.022 476.005 383.992 444.015Z" fill="#099060"/>
<path d="M252.012 203.473C256.332 204.673 266.482 201.333 263.902 209.973C264.292 247.973 263.832 285.993 264.002 323.993C260.042 323.993 256.092 324.003 252.152 324.023C251.882 327.993 251.682 332.023 251.402 336.023C248.552 336.013 242.842 336.003 239.992 336.003C240.012 316.003 240.002 296.003 240.002 276.013C243.992 276.003 247.992 275.993 252.002 275.993C251.982 251.823 252.012 227.643 252.012 203.473Z" fill="#099060"/>
<path d="M384.002 204.007C387.992 203.998 391.992 203.998 396.002 204.007C395.972 224.007 396.002 244.007 396.012 264.007C395.992 267.998 395.982 271.997 395.992 275.997C399.982 275.997 403.992 275.997 408.002 276.007C407.992 291.997 407.972 307.988 408.002 323.988C404.042 323.998 400.092 324.027 396.162 324.057C395.832 328.047 396.482 332.058 396.162 336.068C393.352 336.048 386.802 336.018 383.992 335.997C384.012 291.997 384.002 248.007 384.002 204.007Z" fill="#098F5F"/>
<path d="M431.982 204.016C434.882 203.996 440.692 203.956 443.592 203.926C443.862 211.946 443.962 219.966 444.122 227.996C448.072 227.996 452.032 227.996 456.002 228.016C456.002 264.006 455.982 299.996 456.022 335.996C453.152 336.016 447.402 336.066 444.532 336.096C443.512 304.076 444.152 272.036 444.012 240.016C439.992 240.006 435.992 239.996 432.002 240.006C432.002 228.006 432.002 216.006 431.982 204.016Z" fill="#098F5F"/>
<path d="M180.002 216.007C183.992 215.998 187.992 215.998 192.002 216.007C192.002 240.007 192.002 264.007 192.002 288.007C187.992 287.997 183.992 287.997 180.002 288.007C179.992 264.007 180.002 240.007 180.002 216.007Z" fill="#098F5F"/>
<path d="M300.003 216.007C303.993 215.998 307.993 215.998 311.993 216.007C311.993 219.997 311.993 223.997 312.013 227.997C315.983 227.997 319.963 228.008 323.953 228.018C324.023 232.008 324.103 236.008 324.203 240.018C320.123 240.008 316.053 239.997 311.993 240.007C311.993 244.087 312.003 248.177 312.013 252.287C311.983 280.378 312.023 308.467 311.983 336.557C307.603 335.337 297.563 338.688 300.113 330.037C299.703 292.027 300.173 254.017 300.003 216.007Z" fill="#098F5F"/>
<path d="M336.002 216.007C339.992 215.998 343.992 215.998 348.002 216.007C348.002 256.007 347.992 296.007 348.002 336.007C339.992 335.988 332.002 335.997 324.002 336.007C324.002 312.007 324.002 288.007 324.002 264.007C327.992 263.998 331.992 263.997 336.002 263.997C335.992 259.997 335.992 255.998 336.002 252.007C335.992 240.007 336.002 228.007 336.002 216.007Z" fill="#098F5F"/>
<path d="M276.003 228.007C279.993 227.998 283.993 227.998 288.003 228.007C287.993 264.007 288.013 300.007 288.003 336.007C283.993 335.997 279.993 336.008 276.003 336.018C275.993 300.008 276.013 264.007 276.003 228.007Z" fill="#098F5F"/>
<path d="M360.002 228.007C363.992 227.998 367.992 227.998 372.002 228.007C372.002 264.007 372.002 300.007 372.002 336.007C367.992 335.997 363.992 335.997 360.002 336.007C360.002 300.007 360.002 264.007 360.002 228.007Z" fill="#098F5F"/>
<path d="M408.012 228.004C411.992 228.004 415.982 228.004 419.992 228.004C419.982 231.994 419.992 235.994 420.022 239.994C424.002 239.984 427.992 239.994 432.002 240.004C431.992 272.004 432.002 304.004 432.002 336.004C427.992 335.994 423.992 336.004 420.002 336.014C420.012 316.004 419.992 296.004 420.002 276.004C419.982 271.994 419.992 267.994 420.012 264.014C415.992 264.004 411.992 263.994 408.002 264.004C408.002 251.994 408.002 239.994 408.012 228.004Z" fill="#098F5F"/>
<path d="M468.002 228.007C471.992 227.998 475.992 227.998 480.002 228.007C480.002 264.007 480.002 300.007 480.002 336.007C475.992 335.997 471.992 335.997 468.002 336.007C468.002 300.007 468.002 264.007 468.002 228.007Z" fill="#098F5F"/>
<path d="M491.992 228.267C495.982 228.157 499.982 228.057 504.002 227.977C504.002 263.987 504.002 299.997 504.002 336.007C499.992 335.997 495.992 335.997 492.002 336.007C491.992 300.087 492.012 264.177 491.992 228.267Z" fill="#098F5F"/>
<path d="M216.002 276.007C219.992 275.998 223.993 275.998 228.013 276.007C227.993 296.007 227.992 316.007 228.002 336.007C223.992 335.998 219.992 335.998 216.002 336.007C215.992 316.007 216.002 296.007 216.002 276.007Z" fill="#098F5F"/>
<path d="M300.602 443.938C303.452 443.957 309.163 443.998 312.023 444.018C311.963 476.018 312.022 508.008 312.002 540.008C307.992 539.988 303.992 539.988 300.002 540.008C300.202 507.978 299.432 475.947 300.602 443.938Z" fill="#098F5F"/>
<path d="M360.003 444.007C363.993 443.998 367.993 443.998 372.003 444.007C371.983 476.007 372.013 508.007 372.003 540.007C367.993 539.988 363.993 539.988 360.003 540.007C359.983 508.007 360.013 476.007 360.003 444.007Z" fill="#098F5F"/>
<path d="M444.433 443.977C447.323 443.987 453.113 443.997 456.013 444.007C455.993 472.007 456.003 500.007 456.003 528.007C451.983 527.997 447.983 527.997 443.993 528.007C444.233 499.997 443.473 471.967 444.433 443.977Z" fill="#098F5F"/>
<path d="M239.992 456.004C247.982 455.994 255.992 456.004 264.002 456.004C264.002 480.004 264.002 504.004 264.002 528.004C259.992 527.994 255.992 527.994 252.002 528.004C251.992 516.004 252.002 504.004 252.002 492.014C247.992 491.994 243.992 491.994 240.002 492.004C240.012 479.994 240.012 467.994 239.992 456.004Z" fill="#098F5F"/>
<path d="M480.052 203.863C484.022 204.073 488.042 204.303 492.042 204.603C492.032 207.453 492.012 213.153 492.002 216.003C487.902 216.003 483.812 216.003 479.742 216.023C479.832 211.963 479.942 207.913 480.052 203.863Z" fill="#0A8F60"/>
<path d="M539.992 204.004C579.992 204.004 619.992 204.004 660.002 204.004C659.982 207.994 659.982 211.994 660.012 215.994C663.992 215.994 667.982 215.994 672.002 216.014C671.982 220.004 671.992 223.994 672.002 228.004C628.002 228.004 584.002 227.994 540.012 228.004C539.992 220.004 539.982 212.004 539.992 204.004Z" fill="#F1FFFA"/>
<path d="M144.002 216.004C147.992 215.994 151.992 216.004 155.992 216.014C156.012 236.004 155.992 255.994 156.012 275.994C160.002 275.994 163.992 275.994 168.002 276.014C168.002 284.004 167.992 291.994 168.002 300.004C140.002 300.004 112.002 300.004 84.002 300.004C84.002 295.994 84.002 291.994 84.002 288.014C87.992 287.994 91.9919 287.994 95.9919 287.994C95.9919 283.994 96.002 279.994 96.012 276.014C100.002 275.994 103.992 275.994 107.992 275.994C107.992 271.994 108.002 267.994 108.012 264.014C112.002 263.994 115.992 263.994 119.992 263.994C119.992 259.994 120.002 255.994 120.012 252.014C124.002 251.994 127.992 251.994 131.992 251.994C132.002 243.994 132.002 236.004 132.002 228.004C135.992 227.994 139.992 227.994 143.992 227.994C143.992 223.994 143.992 219.994 144.002 216.004Z" fill="#F5FFFB"/>
<path d="M528.002 264.004C576.002 264.004 624.012 264.004 672.012 264.004C671.972 276.004 671.982 288.004 672.012 300.004C624.002 300.004 576.002 300.004 528.002 300.004C528.002 288.004 527.992 276.004 528.002 264.004Z" fill="#F5FFFB"/>
<path d="M479.742 216.024C483.812 216.004 487.902 216.004 492.002 216.004C491.982 220.084 491.982 224.164 491.992 228.264C488.312 227.204 483.682 228.914 480.412 226.664C480.242 224.004 479.912 218.684 479.742 216.024Z" fill="#089B66"/>
<path d="M492.003 216.004C495.993 215.994 499.993 215.994 504.003 216.004C503.993 219.984 503.993 223.974 504.003 227.974C499.983 228.054 495.983 228.154 491.993 228.264C491.983 224.164 491.983 220.084 492.003 216.004Z" fill="#06AD6F"/>
<path d="M408.003 264.004C411.993 263.994 415.993 264.004 420.013 264.014C419.993 267.994 419.983 271.994 420.003 276.004C415.993 275.994 411.993 275.994 408.003 276.004C407.993 271.994 407.993 267.994 408.003 264.004Z" fill="#06AD6F"/>
<path d="M192.263 289.114C196.093 288.224 200.053 288.014 203.953 287.484C203.973 291.644 203.993 295.824 204.013 300.004C199.933 299.994 195.863 299.984 191.803 299.994C191.923 297.274 192.153 291.834 192.263 289.114Z" fill="#06AD6F"/>
<path d="M228.023 228.004C232.003 227.994 235.983 227.994 239.983 228.004C239.983 240.004 239.963 252.014 240.253 264.024C236.073 264.014 231.913 264.014 227.753 264.024C228.043 252.014 228.013 240.004 228.023 228.004Z" fill="#0A905F"/>
<path d="M191.803 299.992C195.863 299.982 199.933 299.992 204.013 300.002C203.983 312.002 203.993 324.002 204.013 336.002C200.003 335.992 196.013 335.992 192.023 336.002C192.033 323.992 192.023 311.992 191.803 299.992Z" fill="#0A905F"/>
<path d="M215.993 444.004C219.993 443.994 223.993 443.994 228.003 444.004C227.983 455.994 227.993 467.994 228.013 480.004C223.993 479.994 219.993 479.994 216.003 480.004C216.013 467.994 216.013 455.994 215.993 444.004Z" fill="#0A905F"/>
<path d="M204.003 492.003C207.993 491.993 212.003 491.993 216.013 492.013C215.983 504.233 215.993 516.463 215.983 528.693C212.793 526.903 206.523 530.183 204.453 526.493C203.483 515.013 203.983 503.493 204.003 492.003Z" fill="#0A905F"/>
<path d="M227.993 492.004C231.993 491.994 235.993 491.994 240.003 492.004C239.983 503.994 239.983 515.994 240.013 528.004C236.003 527.994 231.993 527.994 228.003 528.004C228.013 515.994 228.013 503.994 227.993 492.004Z" fill="#0A905F"/>
<path d="M528.002 227.996C531.992 227.996 535.992 227.996 540.012 228.006C584.002 227.996 628.002 228.006 672.002 228.006C671.972 240.006 671.982 252.006 672.012 264.006C624.012 264.006 576.002 264.006 528.002 264.006C527.992 251.996 527.992 239.996 528.002 227.996Z" fill="#F3FFFB"/>
<path d="M311.993 240.004C316.053 239.994 320.123 240.004 324.203 240.014C324.083 242.744 323.853 248.204 323.733 250.934C319.863 251.684 315.893 251.774 312.013 252.284C312.003 248.174 311.993 244.084 311.993 240.004Z" fill="#07A76C"/>
<path d="M204.013 479.863C208.003 480.063 212.023 480.303 216.033 480.603C216.033 483.453 216.013 489.153 216.013 492.013C212.003 491.993 207.993 491.993 204.003 492.003C203.993 487.943 203.993 483.893 204.013 479.863Z" fill="#07A76C"/>
<path d="M408.003 528.004C411.993 527.994 415.993 527.984 420.003 528.004C419.993 531.984 419.993 535.994 420.003 540.004C415.993 539.994 411.993 539.984 408.003 540.004C407.993 535.984 407.993 531.994 408.003 528.004Z" fill="#07A76C"/>
<path d="M324.002 252.004C327.992 251.994 331.992 251.994 336.002 252.004C335.992 255.994 335.992 259.994 336.002 263.994C331.992 263.994 327.992 263.994 324.002 264.004C323.992 259.994 323.992 255.994 324.002 252.004Z" fill="#089E67"/>
<path d="M227.752 264.023C231.912 264.013 236.072 264.013 240.252 264.023C239.772 268.033 239.732 272.133 238.952 276.123C236.472 276.123 231.532 276.123 229.052 276.123C228.262 272.133 228.192 268.033 227.752 264.023Z" fill="#08A269"/>
<path d="M396.012 264.004C399.992 263.994 403.992 263.994 408.002 264.004C407.992 267.994 407.992 271.994 408.002 276.004C403.992 275.994 399.982 275.994 395.992 275.994C395.982 271.994 395.992 267.994 396.012 264.004Z" fill="#06B673"/>
<path d="M84.002 300.004C112.002 300.004 140.002 300.004 168.002 300.004C168.012 316.004 168.002 332.004 168.002 348.004C128.002 348.004 88.002 348.004 48.002 348.004C48.002 343.994 48.002 339.994 48.002 336.014C51.992 335.994 55.9919 335.994 59.9919 335.994C59.9919 331.994 60.002 327.994 60.012 324.014C64.002 323.994 67.9919 323.994 71.9919 323.994C71.9919 319.994 72.002 315.994 72.012 312.014C76.002 311.994 79.9919 311.994 83.9919 311.994C83.9919 307.994 83.992 303.994 84.002 300.004Z" fill="#F7FFFC"/>
<path d="M528.003 300.004C576.003 300.004 624.003 300.004 672.013 300.004C671.983 316.004 671.993 332.004 672.003 348.004C620.003 348.004 568.003 348.004 516.003 348.004C515.993 343.994 515.993 340.004 516.013 336.014C519.993 335.994 523.983 335.984 527.993 335.984C528.003 323.984 527.993 311.994 528.003 300.004Z" fill="#F7FEFC"/>
<path d="M252.012 336.006C260.003 335.996 267.992 336.006 276.002 336.016C279.992 336.006 283.992 335.996 288.003 336.006C291.992 335.996 295.982 335.996 299.992 335.996C299.992 339.986 299.993 343.996 300.013 348.006C332.003 347.996 363.992 348.016 395.992 347.996C395.982 343.986 395.993 339.996 396.013 336.006C404.003 335.996 411.992 335.996 420.003 336.016C423.992 336.006 427.992 335.996 432.003 336.006C435.983 335.996 439.982 335.996 443.992 335.996C443.982 339.996 443.993 343.996 444.013 348.006C468.013 347.986 492.003 348.016 516.003 348.006C568.003 348.006 620.003 348.006 672.003 348.006C671.982 359.996 671.982 371.996 672.013 383.996C667.992 383.986 663.992 383.996 660.003 384.016C659.992 396.006 659.992 408.006 660.003 420.006C655.982 419.996 651.982 419.996 648.003 420.006C647.982 415.996 647.992 411.996 648.013 408.016C639.992 408.006 632.003 407.996 624.003 408.006C623.982 411.996 623.972 415.996 623.992 420.006C619.982 419.986 615.992 419.986 612.023 420.006C611.992 415.986 611.982 411.986 611.992 407.996C595.992 408.026 579.992 408.026 564.013 407.996C563.992 411.986 563.982 415.986 563.992 419.996C555.982 419.996 547.992 420.006 540.003 420.006C539.982 415.996 539.982 411.996 539.992 408.006C531.982 407.996 523.992 408.006 515.992 408.006C516.003 391.996 515.983 375.996 516.013 359.996C511.993 359.996 507.992 359.996 504.003 360.016C491.992 360.006 479.992 360.006 468.003 359.996C468.003 379.996 468.003 399.996 468.003 420.006C463.983 419.996 459.993 419.996 456.013 420.016C455.993 423.996 455.992 427.986 456.003 431.996C453.182 431.976 447.542 431.946 444.722 431.936C444.412 435.946 444.112 439.956 443.862 443.996C427.902 443.976 411.953 443.976 396.003 444.016C395.992 440.006 395.992 436.006 396.003 432.006C407.992 431.996 420.003 431.996 432.003 432.006C435.983 431.996 439.992 431.996 444.003 432.016C443.992 427.996 443.983 423.996 444.003 420.006C443.983 415.996 443.983 411.996 444.003 408.006C447.983 407.986 451.983 407.986 456.003 407.996C456.003 396.006 455.992 384.006 455.992 372.026C451.992 371.996 447.993 371.986 444.013 371.986C443.993 367.986 443.982 363.996 443.992 360.016C439.982 360.006 435.993 360.006 432.013 360.006C431.993 355.996 431.982 351.996 431.992 348.016C420.232 348.006 408.472 347.996 396.722 347.956C396.412 351.946 396.112 355.936 395.852 359.956C391.902 359.966 387.953 359.996 384.023 360.026C384.013 364.006 384.003 367.996 383.992 371.996C383.982 374.826 383.942 380.476 383.922 383.306C387.932 383.566 391.942 383.806 395.982 384.086C395.972 392.046 395.992 400.026 396.003 407.996C391.992 407.996 387.993 408.006 384.013 408.016C383.993 412.006 383.992 415.996 384.003 419.996C383.992 423.986 383.992 427.996 384.003 432.006C356.253 431.966 328.512 432.066 300.772 431.956C300.443 435.966 300.122 439.956 299.842 443.996C295.892 443.986 291.943 443.986 288.003 443.996C283.992 443.986 279.992 443.986 276.002 443.996C268.002 443.996 260.003 444.006 252.012 444.016C251.992 439.996 251.982 435.996 251.992 432.006C243.982 431.986 235.992 432.006 228.002 432.016C228.012 407.996 227.982 383.996 228.002 359.986C223.992 359.986 219.992 359.996 216.002 360.016C204.002 360.016 192.012 360.006 180.022 359.996C180.002 363.986 179.992 367.986 179.982 371.996C175.982 371.986 171.992 371.996 168.002 372.016C168.022 388.006 168.002 404.006 168.002 420.006C163.992 419.986 160.002 419.986 156.022 419.996C156.002 415.996 155.992 411.996 155.992 408.016C143.992 408.006 132.003 407.996 120.013 408.006C120.003 411.996 119.993 415.996 119.983 420.006C115.993 419.986 112.002 419.986 108.022 420.006C108.002 415.996 107.992 411.996 107.992 408.006C79.9925 408.026 52.0025 407.986 24.0025 408.006C23.9925 399.996 24.0025 392.006 24.0025 384.006C27.9925 383.996 31.9925 383.996 36.0025 383.996C36.0025 375.996 36.0025 368.006 36.0025 360.006C40.0025 359.996 43.9925 359.996 47.9925 359.996C47.9925 355.996 47.9925 351.996 48.0025 348.006C88.0025 348.006 128.002 348.006 168.002 348.006C196.002 348.016 223.992 347.986 251.992 348.006C251.982 343.996 251.992 339.996 252.012 336.006ZM252.602 347.996C252.302 351.986 252.072 355.966 251.852 359.986C247.892 359.986 243.942 359.996 240.002 360.016C240.002 380.006 240.002 399.996 240.002 419.996C243.942 419.996 247.892 420.006 251.852 420.036C252.122 424.016 252.412 428.026 252.742 432.036C264.482 431.986 276.223 431.986 287.973 431.996C291.973 431.986 295.982 431.996 299.992 432.006C299.992 427.996 299.992 423.996 300.003 420.016C303.992 419.996 307.992 419.996 312.003 419.996C311.992 415.996 311.992 411.996 312.003 408.016C307.992 407.996 303.992 407.996 299.992 407.996C300.012 395.996 300.013 384.006 300.003 372.016C303.992 371.996 307.992 371.996 312.003 371.996C311.992 367.996 311.992 363.996 312.003 360.006C308.013 359.996 304.033 359.986 300.062 359.996C299.812 355.956 299.573 351.956 299.312 347.946C296.483 347.966 290.822 347.996 287.992 348.016C276.192 347.996 264.392 347.986 252.602 347.996ZM324.013 360.006C323.993 363.946 323.972 367.896 323.972 371.856C319.962 372.126 315.973 372.416 311.992 372.746C311.973 384.296 311.983 395.846 312.003 407.406C315.983 407.696 319.962 407.886 323.982 408.156C323.982 412.096 323.993 416.046 324.013 420.016C336.003 419.986 348.003 419.986 360.003 420.006C363.992 419.996 367.992 419.996 372.003 420.006C371.992 415.996 371.992 411.986 372.003 408.006C371.992 403.986 371.983 399.996 372.003 396.006C375.992 395.996 379.992 395.996 384.003 396.006C383.992 391.996 383.992 387.996 384.003 384.006C379.992 383.996 375.992 383.996 372.003 384.006C371.992 379.996 371.992 375.996 372.003 372.006C371.992 367.996 371.992 363.996 372.003 360.006C367.992 359.996 363.992 359.986 360.003 360.006C348.003 360.016 336.003 360.016 324.013 360.006Z" fill="#F9FEFD"/>
<path d="M252.602 347.992C264.392 347.982 276.192 347.992 287.992 348.012C287.992 351.992 287.992 355.992 288.002 360.002C292.012 359.992 296.032 359.982 300.062 359.992C300.062 362.822 300.072 368.462 300.082 371.282C296.052 371.572 292.022 371.842 288.022 372.142C288.002 384.032 288.002 395.922 288.022 407.812C292.362 408.092 296.752 408.402 301.122 408.762C300.652 411.192 299.712 416.062 299.242 418.492C295.652 419.662 291.842 420.062 288.202 420.952C288.112 424.622 288.042 428.302 287.972 431.992C276.222 431.982 264.482 431.982 252.742 432.032C252.412 428.022 252.122 424.012 251.852 420.032C247.892 420.002 243.942 419.992 240.002 419.992C240.002 399.992 240.002 380.002 240.002 360.012C243.942 359.992 247.892 359.982 251.852 359.982C252.072 355.962 252.302 351.982 252.602 347.992Z" fill="#F05D50"/>
<path d="M395.852 347.953C407.602 347.993 420.232 348.003 431.992 348.013C431.982 351.993 431.992 355.993 432.012 360.003C432.002 363.943 432.012 367.893 432.032 371.853C436.002 372.083 440.042 372.343 444.042 372.603C444.002 384.403 444.002 396.203 444.002 408.003C439.982 407.993 435.982 407.993 432.002 408.013C431.992 411.993 431.992 415.993 432.002 420.003C431.992 423.993 431.992 427.993 432.002 432.003C420.002 431.993 407.992 431.993 396.002 432.003C395.982 427.993 395.982 423.993 395.992 420.013C391.982 419.993 387.992 419.993 384.002 419.993C383.992 415.993 383.992 412.003 384.012 408.013C387.992 408.003 391.992 407.993 396.002 407.993C395.992 400.023 395.972 392.043 395.982 384.083C395.972 380.043 395.982 376.023 396.012 372.003C391.992 371.993 387.992 371.983 383.992 371.993C384.002 367.993 384.012 364.003 384.022 360.023C387.952 359.993 391.902 359.963 395.852 359.953C396.112 355.933 395.542 351.943 395.852 347.953Z" fill="#F05D50"/>
<path d="M287.992 348.011C290.822 347.991 297.232 347.961 300.062 347.941C300.322 351.951 299.812 355.951 300.062 359.991C296.032 359.981 292.012 359.991 288.002 360.001C287.992 355.991 287.992 351.991 287.992 348.011Z" fill="#D7685E"/>
<path d="M180.022 359.996C192.012 360.006 204.002 360.016 216.002 360.016C216.002 384.006 216.002 408.006 216.002 432.006C211.992 431.986 207.992 431.986 204.002 431.996C196.002 431.986 188.002 432.006 180.012 432.006C179.992 427.996 179.992 423.996 179.992 420.016C175.982 419.996 171.992 419.996 168.002 420.006C168.002 404.006 168.022 388.006 168.002 372.016C171.992 371.996 175.982 371.986 179.982 371.996C179.992 367.986 180.002 363.986 180.022 359.996Z" fill="#F05C50"/>
<path d="M324.012 360.008C336.002 360.018 348.002 360.018 360.002 360.008C359.992 363.998 359.992 367.998 360.002 372.008C359.992 375.998 359.992 379.988 360.002 383.998C363.992 383.998 367.992 383.998 372.002 384.008C371.992 387.998 371.982 391.998 372.002 396.008C371.982 399.998 371.992 403.988 372.002 408.008C367.992 407.998 363.992 407.998 360.012 408.018C359.992 411.998 359.992 415.998 360.002 420.008C348.002 419.988 336.002 419.988 324.012 420.018C323.992 416.048 323.982 412.098 323.982 408.158C319.962 407.888 315.982 407.698 312.002 407.408C311.982 395.848 311.972 384.298 311.992 372.748C315.972 372.418 319.962 372.128 323.972 371.858C323.972 367.898 323.992 363.948 324.012 360.008Z" fill="#F05C50"/>
<path d="M468.002 359.996C479.992 360.006 491.992 360.006 504.002 360.016C503.992 379.756 503.972 400.406 504.042 420.156C500.032 420.456 496.012 419.836 492.042 420.156C492.012 424.096 492.002 428.046 492.002 432.006C483.992 431.996 475.992 432.006 468.002 432.006C467.982 427.996 467.982 423.996 468.002 420.006C468.002 399.996 468.002 379.996 468.002 359.996Z" fill="#F05C50"/>
<path d="M216.002 360.014C219.992 359.994 223.992 359.984 228.002 359.984C227.982 383.994 228.012 407.994 228.002 432.014C223.992 431.994 219.992 431.994 216.002 432.004C216.002 408.004 216.002 384.004 216.002 360.014Z" fill="#CB3529"/>
<path d="M300.063 359.992C304.033 359.982 308.013 359.992 312.003 360.002C311.993 363.992 311.993 367.992 312.003 371.992C307.993 371.992 303.993 371.992 300.003 372.012C300.013 384.002 300.013 395.992 299.993 407.992C303.993 407.992 307.993 407.992 312.003 408.012C311.993 411.992 311.993 415.992 312.003 419.992C307.993 419.992 303.993 419.992 300.003 420.012C299.993 423.992 299.993 427.992 299.993 432.002C295.983 431.992 291.973 431.982 287.973 431.992C288.043 428.302 288.113 424.622 288.203 420.952C291.843 420.062 295.653 419.662 299.243 418.492C299.713 416.062 300.653 411.192 301.123 408.762C296.753 408.402 292.363 408.092 288.023 407.812C288.003 395.922 288.003 384.032 288.023 372.142C292.023 371.842 296.053 371.572 300.083 371.282C300.073 368.462 300.063 362.822 300.063 359.992Z" fill="#CC362A"/>
<path d="M432.013 360.004C435.993 360.004 439.983 360.004 443.993 360.014C443.983 363.994 443.993 367.984 444.013 371.984C447.993 371.984 451.993 371.994 455.993 372.024C455.993 384.004 456.003 396.004 456.003 407.994C451.983 407.984 447.983 407.984 444.003 408.004C444.003 396.204 444.003 384.404 444.043 372.604C440.043 372.344 436.003 372.834 432.033 372.604C432.013 368.644 432.003 363.944 432.013 360.004Z" fill="#CC362A"/>
<path d="M504.003 360.012C507.993 359.992 511.993 359.992 516.013 359.992C515.983 375.992 516.003 391.992 515.993 408.002C515.983 411.982 515.993 416.022 516.013 420.022C512.003 420.022 508.003 420.002 504.023 420.022C503.993 424.002 503.983 427.992 503.993 431.992C499.983 431.982 495.983 431.982 492.003 432.002C492.003 428.042 492.013 424.092 492.043 420.152C496.013 419.832 500.033 420.322 504.043 420.022C503.973 400.272 503.993 379.752 504.003 360.012Z" fill="#CC362A"/>
<path d="M360.002 360.004C363.992 359.984 367.992 359.994 372.002 360.004C371.992 363.994 371.992 367.994 372.002 372.004C367.992 371.994 363.992 371.994 360.002 372.004C359.992 367.994 359.992 363.994 360.002 360.004Z" fill="#CC3629"/>
<path d="M372.002 384.004C375.992 383.994 379.992 383.994 384.002 384.004C383.992 387.994 383.992 391.994 384.002 396.004C379.992 395.994 375.992 395.994 372.002 396.004C371.982 391.994 371.992 387.994 372.002 384.004Z" fill="#CC3629"/>
<path d="M360.012 408.013C363.992 407.993 367.992 407.993 372.002 408.003C371.992 411.983 371.992 415.993 372.002 420.003C367.992 419.993 363.992 419.993 360.002 420.003C359.992 415.993 359.992 411.993 360.012 408.013Z" fill="#CC3629"/>
<path d="M432.002 420.004C435.992 419.994 439.982 419.994 444.002 420.004C443.982 423.994 443.992 427.994 444.002 432.014C439.992 431.994 435.982 431.994 432.002 432.004C431.992 427.994 431.992 423.994 432.002 420.004Z" fill="#CC3629"/>
<path d="M360.002 372.004C363.992 371.994 367.992 371.994 372.002 372.004C371.992 375.994 371.992 379.994 372.002 384.004C367.992 383.994 363.992 383.994 360.002 383.994C359.992 379.984 359.992 375.994 360.002 372.004Z" fill="#DA4439"/>
<path d="M383.992 371.992C387.992 371.982 391.992 371.992 396.012 372.002C395.982 376.022 395.972 380.042 395.982 384.082C391.942 383.802 387.932 384.342 383.922 384.082C383.942 381.252 383.982 374.822 383.992 371.992Z" fill="#F59990"/>
<path d="M12.0025 408.004C16.0025 407.994 20.0025 407.994 24.0025 408.004C52.0025 407.984 79.9925 408.024 107.992 408.004C107.992 411.994 108.002 415.994 108.022 420.004C112.002 419.984 115.993 419.984 119.983 420.004C119.993 415.994 120.003 411.994 120.013 408.004C132.003 407.994 143.992 408.004 155.992 408.014C155.992 411.994 156.002 415.994 156.022 419.994C160.002 419.984 163.993 419.984 168.003 420.004C171.993 419.994 175.982 419.994 179.992 420.014C179.992 423.994 179.993 427.994 180.013 432.004C188.003 432.004 196.003 431.984 204.003 431.994C203.993 435.984 203.993 439.984 204.003 444.004C199.993 443.994 195.993 443.994 192.003 444.014C183.993 443.994 176.003 443.994 168.003 444.004C168.023 459.994 167.973 475.994 168.003 491.994C163.993 491.994 159.992 491.994 155.992 492.014C155.992 496.004 156.003 499.994 156.013 504.004C148.003 503.994 140.003 503.994 132.013 504.004C131.993 507.994 131.992 511.994 131.992 516.004C127.992 515.994 123.993 515.984 120.003 515.994C84.0025 516.024 48.0025 515.994 12.0025 516.004C12.0025 511.994 11.9925 507.994 11.9925 504.014C7.99251 503.994 4.0025 503.984 0.0124973 503.994C-0.00750275 479.994 0.00250275 456.004 0.00250275 432.004C4.0025 431.994 7.9925 431.994 12.0025 431.994C12.0025 423.984 12.0025 415.994 12.0025 408.004Z" fill="#FCFEFD"/>
<path d="M432.002 408.013C435.982 407.993 439.982 407.993 444.002 408.003C443.982 411.993 443.982 415.993 444.002 420.003C439.982 419.993 435.992 419.993 432.002 420.003C431.992 415.993 431.992 411.993 432.002 408.013Z" fill="#EC574B"/>
<path d="M515.993 408.006C523.993 408.006 531.983 407.996 539.993 408.006C539.983 411.996 539.983 415.996 540.003 420.006C547.993 420.006 555.983 419.996 563.993 419.996C563.983 415.986 563.993 411.986 564.013 407.996C579.993 408.026 595.993 408.026 611.993 407.996C611.983 411.986 611.993 415.986 612.023 420.006C615.993 419.986 619.983 419.986 623.993 420.006C623.973 415.996 623.983 411.996 624.003 408.006C632.003 407.996 639.993 408.006 648.013 408.016C647.993 411.996 647.983 415.996 648.003 420.006C647.963 431.996 648.003 443.996 648.013 455.996C643.993 455.986 639.993 455.996 636.003 456.016C635.983 463.996 636.003 472.006 636.003 480.006C631.983 479.996 627.993 479.996 624.003 480.016C623.983 487.996 624.003 496.006 624.003 504.006C619.983 503.996 615.993 503.996 612.013 504.016C611.993 507.996 611.983 511.996 611.993 516.006C595.993 516.016 579.993 515.996 564.003 515.996C559.993 515.986 555.993 515.996 552.023 516.016C551.993 511.996 551.983 507.996 551.993 504.006C543.983 503.996 535.993 504.006 528.003 504.006C527.993 483.996 528.013 464.006 528.003 444.006C519.983 443.996 511.993 444.006 504.003 444.006C499.983 443.996 495.983 443.996 491.993 444.006C491.983 439.986 491.983 435.986 492.003 432.006C495.983 431.986 499.983 431.986 503.993 431.996C503.983 427.996 503.993 424.006 504.023 420.026C508.003 420.006 512.003 419.986 516.013 419.986C515.993 415.986 515.983 411.986 515.993 408.006Z" fill="#FCFFFE"/>
<path d="M384.002 419.996C387.992 419.996 391.982 419.996 395.992 420.016C395.982 423.996 395.982 427.996 396.002 432.006C391.992 431.996 387.992 431.996 384.002 432.006C383.992 427.996 383.992 423.986 384.002 419.996Z" fill="#F58F86"/>
<path d="M456.013 420.013C459.993 419.993 463.983 419.993 468.003 420.003C467.983 423.993 467.983 427.993 468.003 432.003C463.993 431.993 459.993 431.983 456.003 431.993C455.993 427.983 455.993 423.993 456.013 420.013Z" fill="#FAEBE8"/>
<path d="M204.002 431.994C207.992 431.984 211.992 431.984 216.002 432.004C219.992 431.994 223.992 431.994 228.002 432.014C235.992 432.004 243.982 431.984 251.992 432.004C251.982 435.994 251.992 439.994 252.012 444.014C260.002 444.004 268.002 443.994 276.002 443.994C275.982 471.994 276.022 499.994 276.002 528.004C279.992 527.994 283.992 527.994 288.002 528.004C287.982 500.004 288.022 471.994 288.002 443.994C291.942 443.984 295.892 443.984 299.842 443.994C300.122 439.954 300.442 435.964 300.772 431.954C328.512 432.064 356.252 431.964 384.002 432.004C387.992 431.994 391.992 431.994 396.002 432.004C395.992 436.004 395.992 440.004 396.002 444.014C411.952 443.974 428.332 443.974 444.292 443.994C444.542 439.954 443.982 435.944 444.292 431.934C447.112 431.944 453.182 431.974 456.002 431.994C459.992 431.984 463.992 431.994 468.002 432.004C475.992 432.004 483.992 431.994 492.002 432.004C491.982 435.984 491.982 439.984 491.992 444.004C492.002 472.004 492.012 500.004 491.992 528.004C491.982 531.994 491.992 535.994 492.012 540.004C468.002 539.994 444.002 540.004 420.002 540.004C419.992 535.994 419.992 531.984 420.002 528.004C423.992 527.984 427.992 527.984 432.002 528.004C432.002 504.004 431.992 480.004 432.002 456.004C427.992 455.994 423.992 455.994 420.002 456.004C420.022 472.004 419.992 487.994 419.992 504.004C415.982 503.994 411.992 503.994 408.012 504.004C407.992 488.004 407.972 472.014 408.002 456.024C404.042 455.994 400.082 455.974 396.142 455.974C395.872 451.934 395.662 447.944 395.392 443.944C392.542 443.954 386.842 443.994 383.992 444.014C384.022 476.004 383.982 508.004 384.002 540.004C379.992 539.984 375.992 539.984 372.002 540.004C372.012 508.004 371.982 476.004 372.002 444.004C367.992 443.994 363.992 443.994 360.002 444.004C360.012 476.004 359.982 508.004 360.002 540.004C355.992 539.984 351.992 539.984 348.002 540.004C348.012 508.004 347.982 476.004 348.012 444.004C339.992 443.994 332.002 443.994 324.002 444.004C324.012 476.004 323.982 508.004 324.002 540.004C319.992 539.984 315.992 539.994 312.002 540.004C312.022 508.004 311.962 476.014 312.022 444.014C309.162 443.994 303.452 443.954 300.602 443.934C299.432 475.944 300.202 507.974 300.002 540.004C268.012 540.024 236.012 539.974 204.022 540.004C204.002 535.994 203.992 531.994 203.992 528.004C199.982 527.994 195.992 527.994 192.002 528.014C192.002 508.004 192.002 488.004 192.002 468.004C195.992 467.984 199.992 467.984 204.002 467.994C203.992 459.984 203.992 451.994 204.002 444.004C203.992 439.984 203.992 435.984 204.002 431.994ZM215.992 444.004C216.012 455.994 216.012 467.994 216.002 480.004C219.992 479.994 223.992 479.994 228.012 480.004C227.992 467.994 227.982 455.994 228.002 444.004C223.992 443.994 219.992 443.994 215.992 444.004ZM444.432 443.974C443.472 471.964 444.232 499.994 443.992 528.004C447.982 527.994 451.982 527.994 456.002 528.004C456.002 500.004 455.992 472.004 456.012 444.004C453.112 443.994 447.322 443.984 444.432 443.974ZM468.002 444.004C468.002 472.004 467.992 500.004 468.002 528.004C471.992 527.994 475.992 527.994 480.002 528.004C480.002 500.004 480.002 472.004 480.002 444.004C475.982 443.994 471.992 443.994 468.002 444.004ZM239.992 456.004C240.012 467.994 240.012 479.994 240.002 492.004C243.992 491.994 247.992 491.994 252.002 492.014C252.002 504.004 251.992 516.004 252.002 528.004C255.992 527.994 259.992 527.994 264.002 528.004C264.002 504.004 264.002 480.004 264.002 456.004C255.992 456.004 247.982 455.994 239.992 456.004ZM204.012 479.864C203.992 483.894 203.992 487.944 204.002 492.004C203.982 503.494 203.482 515.014 204.452 526.494C206.522 530.184 212.792 526.904 215.982 528.694C215.992 516.464 215.982 504.234 216.012 492.014C216.012 489.154 216.032 483.454 216.032 480.604C212.022 480.304 208.002 480.064 204.012 479.864ZM227.992 492.004C228.012 503.994 228.012 515.994 228.002 528.004C231.992 527.994 236.002 527.994 240.012 528.004C239.982 515.994 239.982 503.994 240.002 492.004C235.992 491.994 231.992 491.994 227.992 492.004Z" fill="#04BF77"/>
<path d="M168.002 444.003C176.002 443.993 183.992 443.993 192.002 444.013C191.992 451.993 192.002 460.003 192.002 468.003C187.992 467.993 183.992 467.993 180.002 468.013C179.992 488.003 180.012 508.003 180.002 528.003C171.992 527.993 163.992 527.993 155.992 527.993C155.992 519.983 156.012 511.993 156.012 504.003C156.002 499.993 155.992 496.003 155.992 492.013C159.992 491.993 163.992 491.993 168.002 491.993C167.972 475.993 168.022 459.993 168.002 444.003Z" fill="#03BF77"/>
<path d="M192.002 444.013C195.992 443.993 199.992 443.993 204.002 444.003C203.992 451.993 203.992 459.983 204.002 467.993C199.992 467.983 195.992 467.983 192.002 468.003C192.002 460.003 191.992 451.993 192.002 444.013Z" fill="#0A9060"/>
<path d="M276.002 443.996C279.992 443.986 283.992 443.986 288.002 443.996C288.022 471.996 287.982 500.006 288.002 528.006C283.992 527.996 279.992 527.996 276.002 528.006C276.022 499.996 275.982 471.996 276.002 443.996Z" fill="#098F5F"/>
<path d="M468.002 444.007C471.992 443.998 475.982 443.998 480.002 444.007C480.002 472.007 480.002 500.007 480.002 528.007C475.992 527.997 471.992 527.997 468.002 528.007C467.992 500.007 468.002 472.007 468.002 444.007Z" fill="#098F5F"/>
<path d="M491.992 444.007C495.982 443.998 499.982 443.998 504.002 444.007C504.002 472.007 504.002 500.007 504.002 528.007C499.982 527.988 495.982 527.988 491.992 528.007C492.012 500.007 492.002 472.007 491.992 444.007Z" fill="#098F5F"/>
<path d="M420.002 456.007C423.992 455.998 427.992 455.998 432.002 456.007C431.992 480.007 432.002 504.007 432.002 528.007C427.992 527.988 423.992 527.988 420.002 528.007C415.992 527.988 411.992 527.997 408.002 528.007C407.992 523.997 407.992 519.987 408.002 516.007C411.992 515.987 415.992 515.987 420.012 516.007C419.992 511.997 419.992 507.998 419.992 504.007C419.992 487.997 420.022 472.007 420.002 456.007Z" fill="#098F5F"/>
<path d="M504.002 444.004C511.992 444.004 519.982 443.994 528.002 444.004C528.012 464.004 527.992 483.994 528.002 504.004C527.992 511.994 528.002 519.994 528.002 528.004C519.982 527.994 511.992 527.994 504.002 528.004C504.002 500.004 504.002 472.004 504.002 444.004Z" fill="#03BF77"/>
<path d="M180.003 468.013C183.993 467.993 187.993 467.993 192.003 468.003C192.003 488.003 192.003 508.003 192.003 528.013C187.993 527.993 183.993 527.993 180.003 528.003C180.013 508.003 179.993 488.003 180.003 468.013Z" fill="#099160"/>
<path d="M132.012 504.004C140.002 503.994 148.002 503.994 156.012 504.004C156.012 511.994 155.992 519.984 155.992 527.994C163.992 527.994 171.992 527.994 180.002 528.004C183.992 527.994 187.992 527.994 192.002 528.014C195.992 527.994 199.982 527.994 203.992 528.004C203.992 531.994 204.002 535.994 204.022 540.004C236.012 539.974 268.012 540.024 300.002 540.004C303.992 539.984 307.992 539.984 312.002 540.004C315.992 539.994 319.992 539.984 324.002 540.004C332.002 539.994 339.992 539.994 348.002 540.004C351.992 539.984 355.992 539.984 360.002 540.004C363.992 539.984 367.992 539.984 372.002 540.004C375.992 539.984 379.992 539.984 384.002 540.004C387.992 539.984 391.982 539.984 396.002 540.004C399.982 539.984 403.992 539.984 408.002 540.004C411.992 539.984 415.992 539.994 420.002 540.004C444.002 540.004 468.002 539.994 492.012 540.004C491.992 535.994 491.982 531.994 491.992 528.004C495.982 527.984 499.982 527.984 504.002 528.004C511.992 527.994 519.982 527.994 528.002 528.004C528.002 519.994 527.992 511.994 528.002 504.004C535.992 504.004 543.982 503.994 551.992 504.004C551.982 507.994 551.992 511.994 552.022 516.014C555.992 515.994 559.992 515.984 564.002 515.994C563.982 519.984 563.982 523.984 564.002 528.004C555.992 527.984 548.002 527.994 540.002 528.014C539.982 531.994 539.982 535.994 539.992 540.004C527.992 539.994 516.002 540.004 504.012 540.014C503.992 543.994 503.982 547.994 503.992 552.004C475.992 551.954 448.002 552.054 420.002 551.994C419.992 555.984 419.982 559.984 419.992 564.004C371.992 564.004 324.002 564.004 276.012 564.004C275.992 559.984 275.982 555.984 275.992 551.994C251.992 552.044 227.992 551.984 204.002 551.994C199.992 551.984 196.002 551.994 192.012 552.024C192.002 548.004 191.992 543.994 191.992 540.004C175.992 540.024 160.002 539.974 144.012 540.004C143.992 535.994 143.992 531.994 143.992 528.014C135.992 527.994 127.992 527.994 120.002 528.004C119.992 523.984 119.992 519.984 120.002 515.994C123.992 515.984 127.992 515.994 131.992 516.004C131.992 511.994 131.992 507.994 132.012 504.004Z" fill="#FFE3A9"/>
<path d="M395.992 504.004C399.982 503.994 403.992 503.994 408.012 504.004C411.992 503.994 415.982 503.994 419.992 504.004C419.992 507.994 419.992 511.994 420.012 516.004C415.992 515.984 411.992 515.984 408.002 516.004C403.992 515.984 399.992 515.984 396.012 516.004C395.992 511.994 395.992 507.984 395.992 504.004Z" fill="#06B271"/>
<path d="M396.012 516.003C399.992 515.983 403.992 515.983 408.002 516.003C407.992 519.983 407.992 523.993 408.002 528.003C407.992 531.993 407.992 535.983 408.002 540.003C403.992 539.983 399.982 539.983 396.002 540.003C396.002 531.993 396.002 523.993 396.012 516.003Z" fill="#04C077"/>
<path d="M120.002 528.003C127.992 527.993 135.992 527.993 143.992 528.013C143.992 531.993 143.992 535.993 144.012 540.003C160.002 539.973 175.992 540.023 191.992 540.003C191.992 543.993 192.002 548.003 192.012 552.023C196.002 551.993 199.992 551.983 204.002 551.993C204.012 571.993 204.002 591.993 204.002 611.993C207.992 611.993 211.992 611.993 215.992 612.013C215.992 619.993 216.002 628.003 216.002 636.003C211.992 635.983 207.992 635.983 204.012 636.003C203.992 631.983 203.992 627.993 203.992 624.003C191.992 623.993 180.002 623.993 168.012 624.003C167.992 619.983 167.992 615.993 167.992 612.013C163.992 611.993 159.992 611.983 156.012 611.993C155.992 607.983 155.992 603.993 155.992 600.013C151.992 599.993 147.992 599.983 144.012 599.993C143.992 591.983 144.002 583.993 144.002 576.003C139.992 575.983 135.992 575.983 132.002 575.993C131.992 563.993 132.002 552.003 132.002 540.013C127.992 539.993 123.992 539.983 120.002 539.993C119.992 535.983 119.992 531.983 120.002 528.003Z" fill="#F2AE5F"/>
<path d="M540.002 528.013C548.002 527.993 555.992 527.983 564.002 528.003C563.982 531.983 563.982 535.983 564.002 539.993C559.992 539.983 555.992 539.993 552.002 540.013C551.992 552.003 551.992 563.993 552.002 575.993C547.982 575.983 543.992 575.993 540.002 576.013C539.982 583.993 540.002 591.993 540.002 600.003C535.982 599.993 531.992 599.993 528.012 600.013C527.992 603.993 527.982 607.983 527.992 611.993C523.982 611.983 519.992 611.993 516.012 612.013C515.992 615.993 515.982 619.983 515.992 623.993C503.992 624.003 492.002 623.993 480.012 624.003C479.992 627.993 479.982 631.993 479.992 636.003C455.992 635.973 432.002 636.033 408.002 636.003C407.992 639.983 407.992 643.983 407.992 648.003C367.992 648.003 328.002 648.003 288.002 648.003C287.992 643.983 287.982 639.983 287.992 635.993C283.992 635.983 279.992 635.993 276.002 636.003C256.002 636.003 236.002 635.983 216.002 636.003C216.002 628.003 215.992 619.993 215.992 612.013C211.992 611.993 207.992 611.993 204.002 611.993C204.002 591.993 204.012 571.993 204.002 551.993C227.992 551.983 251.992 552.043 275.992 551.993C275.982 555.983 275.992 559.983 276.012 564.003C324.002 564.003 371.992 564.003 419.992 564.003C419.982 559.983 419.992 555.983 420.002 551.993C448.002 552.053 475.992 551.953 503.992 552.003C503.982 547.993 503.992 543.993 504.012 540.013C516.002 540.003 527.992 539.993 539.992 540.003C539.982 535.993 539.982 531.993 540.002 528.013ZM504.002 564.003C504.002 571.993 504.002 580.223 504.002 588.233C507.992 588.223 511.992 588.223 516.002 588.233C515.992 580.233 515.982 571.993 516.002 564.003C511.982 563.983 507.982 563.983 504.002 564.003ZM492.002 588.233C491.992 592.263 491.992 595.943 492.002 600.003C495.992 599.993 499.982 599.993 504.002 600.013C504.012 597.163 504.032 591.083 504.042 588.233C500.032 587.933 495.982 588.423 492.002 588.233Z" fill="#F2C45E"/>
<path d="M276.002 636.002C279.992 635.992 283.992 635.982 287.992 635.992C287.982 639.982 287.992 643.982 288.002 648.002C283.992 647.982 279.992 647.982 276.002 648.002C275.992 643.992 275.992 639.992 276.002 636.002Z" fill="#F3C869"/>
</svg>
