<svg width="672" height="528" viewBox="0 0 672 528" fill="none" xmlns="http://www.w3.org/2000/svg">
<path d="M635.996 144.004C639.976 144.004 643.976 144.004 647.996 144.014C647.986 148.004 647.986 152.004 648.006 156.014C643.996 155.994 640.006 155.994 636.026 155.984C635.996 151.984 635.986 147.994 635.996 144.004Z" fill="white"/>
<path d="M372.016 0.0124973C400.006 -0.00750275 427.996 0.00250275 455.996 0.00250275C455.986 4.0025 455.996 8.0025 456.016 12.0025C468.006 12.0025 479.996 12.0025 491.986 12.0125C491.986 16.0025 491.996 19.9925 492.026 23.9925C500.006 24.0125 508.006 23.9925 516.006 24.0125C515.996 28.0025 515.996 32.0025 516.006 36.0025C452.006 36.0025 388.006 36.0025 324.006 36.0025C323.996 32.0025 323.996 28.0025 324.006 24.0125C331.996 23.9925 339.996 24.0125 347.996 23.9925C347.996 19.9925 347.996 16.0025 348.016 12.0125C356.006 11.9925 363.996 12.0025 371.996 11.9925C371.996 7.99251 371.996 4.0025 372.016 0.0124973Z" fill="#FFEFE7"/>
<path d="M300.016 36.0005C308.006 36.0005 316.006 35.9905 324.006 36.0005C388.006 36.0005 452.006 36.0005 516.006 36.0005C523.986 35.9905 531.986 36.0005 539.996 36.0005C539.986 39.9905 539.996 43.9905 540.026 47.9805C543.996 47.9905 547.996 48.0005 552.006 48.0105C551.986 52.0005 551.986 56.0005 552.006 60.0005C464.006 60.0005 376.006 60.0005 288.006 60.0005C287.996 56.0005 287.996 52.0105 288.006 48.0205C291.996 48.0005 295.986 47.9905 299.986 47.9805C299.986 43.9905 299.996 39.9905 300.016 36.0005Z" fill="#FFF1E8"/>
<path d="M276.026 60.0005C280.006 60.0005 283.996 60.0005 288.006 60.0005C376.006 60.0005 464.006 60.0005 552.006 60.0005C555.986 59.9905 559.976 60.0005 563.986 60.0005C563.986 63.9905 563.996 67.9905 564.026 71.9905C572.006 72.0105 580.006 71.9905 588.006 72.0105C587.996 76.0005 587.986 80.0005 588.006 84.0005C480.006 84.0005 372.006 84.0005 264.006 84.0005C263.996 80.0005 263.996 76.0105 264.006 72.0205C267.996 72.0005 271.986 71.9905 275.986 71.9805C275.996 67.9905 276.006 63.9905 276.026 60.0005Z" fill="#FFF2EA"/>
<path d="M252.026 84.0036C256.006 84.0036 259.996 84.0036 264.006 84.0036C372.006 84.0036 480.006 84.0036 588.006 84.0036C591.986 83.9936 595.986 83.9936 599.996 84.0036C599.996 91.9936 599.996 99.9936 600.016 107.994C603.996 107.994 607.996 108.004 612.006 108.014C611.986 112.004 611.986 116.004 612.006 120.004C484.006 120.004 356.006 120.004 228.006 120.004C227.996 116.004 227.996 112.014 228.006 108.024C231.996 108.004 235.986 107.994 239.986 107.984C239.996 103.994 240.006 100.004 240.026 96.0236C244.006 96.0036 247.986 95.9936 251.986 95.9836C251.986 91.9836 252.006 87.9936 252.026 84.0036Z" fill="#FFF3EC"/>
<path d="M216.016 120.004C220.006 119.994 223.996 119.994 228.006 120.004C356.006 120.004 484.006 120.004 612.006 120.004C615.986 119.994 619.986 119.994 623.996 120.004C623.986 124.004 623.986 128.004 624.006 132.004C623.996 135.994 623.996 139.984 624.016 143.984C627.986 143.984 631.986 143.994 635.996 144.004C635.986 147.994 635.996 151.984 636.026 155.984C640.006 155.994 643.996 155.994 648.006 156.014C647.986 160.004 647.986 164.004 647.996 168.004C495.996 168.004 344.006 168.004 192.006 168.004C191.996 164.004 191.996 160.004 192.006 156.024C195.996 156.004 199.986 155.994 203.986 155.984C203.996 151.994 204.006 148.004 204.026 144.024C208.006 144.004 211.996 143.994 215.996 143.984C216.006 135.984 215.986 127.994 216.016 120.004Z" fill="#FFF5EF"/>
<path d="M180.026 168.001C184.006 168.001 188.006 167.991 192.006 168.001C344.006 168.001 495.996 168.001 647.996 168.001C647.986 171.991 647.996 175.981 648.026 179.981C651.996 179.991 655.986 180.001 659.996 180.021C659.996 192.011 660.006 204.001 660.006 216.001C492.006 216.001 324.006 216.001 156.006 216.001C155.996 212.001 155.996 208.001 156.006 204.021C159.996 204.001 163.996 203.991 167.996 203.991C168.006 195.991 167.996 188.001 168.016 180.011C171.996 180.001 175.986 179.991 179.986 179.981C179.996 175.981 180.006 171.991 180.026 168.001Z" fill="#FFF6F1"/>
<path d="M144.026 216.004C148.006 216.004 152.006 215.994 156.006 216.004C324.006 216.004 492.006 216.004 660.006 216.004C663.986 215.994 667.986 215.994 672.006 216.004C671.996 232.004 672.006 248.004 672.006 264.004C488.006 264.004 304.006 264.004 120.006 264.004C119.996 260.004 119.996 256.004 120.006 252.024C123.996 252.004 127.996 251.994 131.996 251.994C132.006 243.994 131.996 236.004 132.016 228.014C135.996 227.994 139.986 227.994 143.986 227.984C143.996 223.984 144.006 219.994 144.026 216.004Z" fill="#FFF8F4"/>
<path d="M108.026 264.013C112.006 263.993 116.006 263.993 120.006 264.003C304.006 264.003 488.006 264.003 672.006 264.003C671.996 280.003 672.006 296.003 672.006 312.003C476.006 312.003 280.006 312.003 83.9961 312.003C83.9861 303.993 83.9961 296.003 84.0161 288.013C87.9961 287.993 91.9961 287.983 95.9861 287.983C95.9961 283.993 96.0061 280.003 96.0261 276.023C100.006 276.003 103.996 275.993 107.986 275.983C107.996 271.983 108.006 267.993 108.026 264.013Z" fill="#FFF9F6"/>
<path d="M72.025 312.013C76.005 311.993 80.005 311.993 83.995 312.003C280.005 312.003 476.005 312.003 672.005 312.003C672.005 328.003 671.995 344.003 672.005 360.003C640.005 359.993 608.005 360.003 576.005 360.003C567.995 359.993 560.015 359.993 552.025 359.993C551.995 355.993 551.975 351.993 551.975 348.013C539.995 347.993 528.015 348.003 516.035 347.993C516.005 343.983 515.985 339.993 515.975 336.013C487.985 336.003 459.995 336.003 432.015 336.003C431.985 331.993 431.985 327.993 431.995 324.003C427.985 323.993 423.985 323.993 419.995 324.003C372.005 324.003 324.015 323.993 276.025 324.013C276.005 327.993 275.985 331.993 275.975 335.993C263.985 336.013 251.995 335.983 240.015 336.003C220.015 336.013 200.015 335.993 180.025 336.003C180.005 339.993 179.985 343.993 179.975 348.003C163.995 347.983 148.005 348.013 132.025 348.013C132.005 351.993 131.985 355.993 131.975 359.993C123.975 359.983 115.995 360.003 108.005 360.003C88.005 359.983 68.005 360.023 48.005 360.003C47.985 351.993 47.995 344.003 48.015 336.013C51.995 335.993 55.9951 335.983 59.9851 335.983C59.9951 331.983 60.005 328.003 60.025 324.023C64.005 324.003 67.9951 323.983 71.9851 323.983C71.9951 319.983 72.005 315.993 72.025 312.013Z" fill="#FFFAF8"/>
<path d="M276.026 324.013C324.016 323.993 372.006 324.002 419.996 324.002C419.996 327.992 419.996 331.992 420.026 336.002C424.006 335.992 428.006 335.992 432.016 336.002C459.996 336.002 487.986 336.003 515.976 336.013C515.986 339.993 516.006 343.982 516.036 347.992C528.016 348.002 539.996 347.993 551.976 348.013C551.976 351.993 551.996 355.992 552.026 359.992C560.016 359.992 567.996 359.992 576.006 360.002C575.996 367.992 575.996 375.992 576.006 384.002C567.996 383.992 560.016 384.003 552.026 384.013C551.996 387.993 551.976 391.982 551.976 395.992C539.996 396.002 528.016 395.993 516.036 396.013C516.006 400.003 515.986 403.992 515.976 407.992C487.986 408.002 459.996 408.002 432.016 408.002C427.996 407.992 424.006 407.992 420.026 408.002C420.006 411.992 419.996 415.992 419.996 420.002C368.006 420.002 316.006 420.002 264.006 420.002C263.996 415.992 263.986 411.992 263.996 408.002C259.986 407.992 255.986 407.992 251.996 408.002C227.996 408.022 203.996 407.982 179.996 408.002C179.996 404.002 180.016 400.012 180.036 396.042C184.006 396.002 187.976 395.983 191.966 395.963C191.986 391.983 192.006 388.002 192.046 384.042C196.016 384.012 199.996 383.982 203.986 383.972C203.986 379.972 203.996 375.982 204.016 372.002C216.006 372.002 228.006 372.002 240.006 371.992C239.996 367.982 239.996 363.992 240.006 360.002C235.996 359.992 231.996 359.992 227.996 360.002C227.996 356.002 228.006 352.012 228.026 348.042C232.006 348.002 235.986 347.982 239.986 347.972C239.986 343.972 239.996 339.982 240.016 336.002C251.996 335.982 263.986 336.012 275.976 335.992C275.986 331.992 276.006 327.993 276.026 324.013ZM300.006 360.013C299.996 363.993 299.996 367.992 300.006 372.002C324.006 372.002 348.006 372.002 372.006 371.992C371.996 367.992 371.996 363.992 372.006 360.002C348.006 359.992 324.006 359.993 300.006 360.013ZM432.006 360.002C431.996 363.992 431.996 367.992 432.006 372.002C452.006 372.002 472.006 372.002 492.006 372.002C491.996 367.992 491.996 363.992 492.006 360.002C472.006 359.992 452.006 360.002 432.006 360.002ZM240.006 384.013C239.996 387.993 239.996 391.992 240.006 396.002C264.006 396.002 288.006 396.002 312.006 395.992C311.996 391.992 311.996 387.992 312.006 384.002C288.006 383.992 264.006 383.993 240.006 384.013ZM336.006 384.002C335.996 387.992 335.996 391.992 336.006 395.992C376.006 396.002 416.006 396.002 456.006 396.002C455.996 391.992 455.996 387.993 456.006 384.013C416.006 383.993 376.006 383.992 336.006 384.002Z" fill="#BC5001"/>
<path d="M419.996 324.004C423.986 323.994 427.986 323.994 431.996 324.004C431.986 327.994 431.986 331.994 432.016 336.004C428.006 335.994 424.006 335.994 420.026 336.004C419.996 331.994 419.996 327.994 419.996 324.004Z" fill="#F7E6D9"/>
<path d="M180.026 336.003C200.016 335.993 220.016 336.013 240.016 336.003C239.996 339.983 239.986 343.973 239.986 347.973C235.986 347.983 232.006 348.003 228.026 348.043C228.006 352.013 227.996 356.003 227.996 360.003C211.996 359.993 195.996 360.013 180.006 360.003C180.006 363.993 180.006 367.993 180.006 372.003C187.996 371.993 196.006 372.003 204.016 372.003C203.996 375.983 203.986 379.973 203.986 383.973C199.996 383.983 196.016 384.013 192.046 384.043C192.006 388.003 191.986 391.983 191.966 395.963C187.976 395.983 184.006 396.003 180.036 396.043C180.016 400.013 179.996 404.003 179.996 408.003C176.006 407.993 172.016 407.983 168.046 407.993C168.016 403.993 167.986 399.993 167.976 396.013C155.996 395.993 144.016 396.003 132.036 395.993C132.016 391.983 131.996 387.993 131.976 384.013C123.976 384.003 115.996 384.003 108.006 384.003C107.996 375.993 108.006 368.003 108.006 360.003C115.996 360.003 123.976 359.983 131.976 359.993C131.986 355.993 132.006 351.993 132.026 348.013C148.006 348.013 163.996 347.983 179.976 348.003C179.986 343.993 180.006 339.993 180.026 336.003Z" fill="#AE4201"/>
<path d="M36.0159 360.004C40.0059 359.994 44.0059 359.994 48.0059 360.004C68.0059 360.024 88.0059 359.984 108.006 360.004C108.006 368.004 107.996 375.994 108.006 384.004C107.996 387.984 107.996 391.984 108.006 395.994C108.006 403.994 108.006 411.994 108.006 420.004C76.0059 420.004 44.0059 420.004 12.0159 420.004C12.0059 415.994 12.0059 412.004 12.0059 408.024C15.9959 408.004 19.9959 407.984 23.9959 407.994C24.0059 399.984 24.0059 392.004 24.0159 384.014C28.0059 383.994 31.9959 383.984 35.9959 383.994C36.0159 375.984 35.9959 367.994 36.0159 360.004Z" fill="#FFFCFA"/>
<path d="M576.006 360.004C608.006 360.004 640.006 359.994 672.006 360.004C672.006 367.994 672.006 375.994 671.996 383.994C667.986 383.994 663.986 383.994 660.006 384.014C659.996 396.004 659.996 408.004 660.006 420.004C655.986 419.994 651.986 419.994 648.006 420.004C636.016 419.984 624.026 419.984 612.056 420.024C612.006 424.004 611.986 427.994 611.976 432.004C607.976 431.994 603.996 431.994 600.036 432.004C600.006 427.994 599.976 423.994 599.976 420.004C591.976 420.004 583.986 420.004 576.006 420.004C575.986 411.974 575.996 403.974 576.006 395.964C575.986 391.964 575.986 387.974 576.006 384.004C575.996 375.994 575.996 367.994 576.006 360.004Z" fill="#FFFCFA"/>
<path d="M180.006 360.004C195.996 360.014 211.996 359.994 227.996 360.004C231.996 359.994 235.996 359.994 240.006 360.004C239.996 363.994 239.996 367.984 240.006 371.994C228.006 372.004 216.006 372.004 204.016 372.004C196.006 372.004 187.996 371.994 180.006 372.004C180.006 367.994 180.006 363.994 180.006 360.004Z" fill="#973E00"/>
<path d="M300.006 360.013C324.006 359.993 348.006 359.993 372.006 360.003C371.996 363.993 371.996 367.993 372.006 371.993C348.006 372.003 324.006 372.003 300.006 372.003C299.996 367.993 299.996 363.993 300.006 360.013Z" fill="#973E00"/>
<path d="M432.006 360.004C452.006 360.004 472.006 359.994 492.006 360.004C491.996 363.994 491.996 367.994 492.006 372.004C472.006 372.004 452.006 372.004 432.006 372.004C431.996 367.994 431.996 363.994 432.006 360.004Z" fill="#973E00"/>
<path d="M240.006 384.013C264.006 383.993 288.006 383.993 312.006 384.003C311.996 387.993 311.996 391.993 312.006 395.993C288.006 396.003 264.006 396.003 240.006 396.003C239.996 391.993 239.996 387.993 240.006 384.013Z" fill="#973E00"/>
<path d="M108.006 384.004C115.996 384.004 123.976 384.004 131.976 384.014C131.996 387.994 132.016 391.984 132.036 395.994C144.016 396.004 155.996 395.994 167.976 396.014C167.986 399.994 168.016 403.994 168.046 407.994C172.016 407.984 176.006 407.994 179.996 408.004C203.996 407.984 227.996 408.024 251.996 408.004C251.996 411.984 252.006 415.984 252.026 419.994C256.006 419.994 260.006 419.994 264.006 420.004C316.006 420.004 368.006 420.004 419.996 420.004C423.986 419.994 427.976 419.984 431.996 419.994C431.986 415.984 431.996 411.994 432.016 408.004C459.996 408.004 487.986 408.004 515.976 407.994C515.986 403.994 516.006 400.004 516.036 396.014C528.016 395.994 539.996 396.004 551.976 395.994C551.976 391.984 551.996 387.994 552.026 384.014C560.016 384.004 567.996 383.994 576.006 384.004C575.986 387.974 575.986 391.964 576.006 395.964C571.986 395.974 567.986 396.004 564.006 396.054C560.116 396.114 556.236 396.204 552.386 396.314C552.226 400.194 552.086 404.094 551.966 407.994C540.096 407.974 528.236 407.944 516.386 408.204C516.206 412.114 516.046 416.054 515.906 419.994C491.936 420.044 467.966 419.904 444.006 420.044C440.116 420.104 436.246 420.184 432.386 420.294C432.226 424.184 432.086 428.084 431.956 432.004C371.986 432.004 312.016 432.004 252.046 432.004C251.896 428.084 251.766 424.184 251.626 420.294C247.746 420.184 243.866 420.104 240.006 420.054C219.996 419.924 199.996 420.014 179.996 420.004C176.046 419.984 172.106 419.974 168.176 419.984C167.896 415.944 167.666 411.954 167.386 407.954C151.596 408.024 135.816 407.994 120.036 408.004C120.006 403.994 119.986 400.004 119.976 396.024C115.976 396.004 111.986 395.994 108.006 395.994C107.996 391.984 107.996 387.984 108.006 384.004Z" fill="#D3954B"/>
<path d="M336.006 384.003C376.006 383.993 416.006 383.993 456.006 384.013C455.996 387.993 455.996 391.993 456.006 396.003C416.006 396.003 376.006 396.003 336.006 395.993C335.996 391.993 335.996 387.993 336.006 384.003Z" fill="#973F00"/>
<path d="M108.006 395.992C111.986 395.992 115.976 396.002 119.976 396.022C119.986 400.002 120.006 403.992 120.036 408.002C135.816 407.992 151.596 408.022 167.386 407.952C167.666 411.952 167.896 415.942 168.176 419.982C172.106 419.972 176.046 419.982 179.996 420.002C180.016 443.982 179.986 467.972 180.016 491.972C183.996 491.972 187.996 492.002 191.996 492.032C191.996 500.002 192.006 508.002 192.016 515.992C184.006 516.002 176.006 516.032 168.016 515.992C167.996 511.992 167.986 507.992 167.986 504.022C163.986 504.002 159.996 503.992 156.016 504.002C155.996 500.022 155.976 496.052 155.966 492.102C152.106 491.952 148.246 491.812 144.396 491.672C144.216 487.782 144.056 483.902 143.896 480.042C139.936 480.012 135.966 479.992 132.016 479.992C131.996 475.992 131.986 472.012 131.986 468.042C127.986 468.002 123.996 467.982 120.016 467.972C120.006 459.972 120.006 451.992 120.006 444.002C119.996 439.992 119.996 436.002 119.996 432.022C115.996 432.002 111.996 431.992 108.006 431.992C107.996 427.982 107.996 423.982 108.006 420.002C108.006 411.992 108.006 403.992 108.006 395.992Z" fill="#F2AE5F"/>
<path d="M552.387 396.311C556.237 396.201 560.117 396.111 564.007 396.051C563.987 400.011 563.977 403.991 563.997 407.981C559.967 407.981 555.957 407.981 551.967 407.991C552.087 404.091 552.227 400.191 552.387 396.311Z" fill="#E4AE55"/>
<path d="M564.006 396.055C567.986 396.005 571.986 395.975 576.006 395.965C575.996 403.975 575.986 411.975 576.006 420.005C575.986 423.985 575.986 427.985 576.006 431.995C571.996 431.995 567.996 432.005 564.016 432.015C563.996 436.005 563.996 440.005 564.006 444.015C563.986 451.995 563.996 459.985 563.996 467.985C559.996 467.985 555.996 468.005 552.026 468.035C552.006 476.005 551.986 483.995 551.996 491.985C547.996 491.985 544.016 492.005 540.046 492.035C540.006 496.005 539.986 499.985 539.976 503.985C531.976 503.975 523.996 504.005 516.016 504.015C515.996 507.995 515.986 511.995 515.996 516.005C504.006 515.995 492.016 516.005 480.036 516.015C480.006 519.995 479.986 523.995 479.986 528.005C387.996 528.005 296.016 528.005 204.026 527.995C204.006 523.995 203.996 520.005 203.986 516.025C199.986 515.995 195.996 515.995 192.016 515.995C192.006 508.005 191.996 500.005 191.996 492.035C187.996 492.005 183.996 491.975 180.016 491.975C179.986 467.975 180.016 443.985 179.996 420.005C199.996 420.015 219.996 419.925 240.006 420.055C239.996 424.025 240.006 428.005 240.016 431.995C244.016 431.985 248.026 431.985 252.046 432.005C312.016 432.005 371.986 432.005 431.956 432.005C435.956 431.985 439.966 431.985 443.996 431.995C443.986 428.005 443.986 424.015 444.006 420.045C467.966 419.905 491.936 420.045 515.906 419.995C516.046 416.055 516.206 412.115 516.386 408.205C528.236 407.945 540.096 407.975 551.966 407.995C555.956 407.985 559.966 407.985 563.996 407.985C563.976 403.995 563.986 400.015 564.006 396.055ZM528.006 444.005C527.986 451.995 527.986 459.995 528.006 468.005C531.996 467.985 535.986 467.995 540.006 468.015C540.016 460.005 539.976 451.995 540.006 444.005C535.996 443.995 531.996 443.985 528.006 444.005ZM516.006 468.005C515.986 471.995 515.986 475.995 516.006 480.005C519.996 479.995 523.996 479.995 528.006 480.005C527.996 475.995 527.996 471.995 528.006 468.005C523.996 467.995 519.996 467.995 516.006 468.005Z" fill="#F2C45E"/>
<path d="M251.996 408.004C255.986 407.994 259.986 407.994 263.996 408.004C263.986 411.994 263.996 415.994 264.006 420.004C260.006 419.994 256.006 419.994 252.026 419.994C252.006 415.984 251.996 411.984 251.996 408.004Z" fill="#CE7B29"/>
<path d="M420.026 408.004C424.006 407.994 427.996 407.994 432.016 408.004C431.996 411.994 431.986 415.984 431.996 419.994C427.976 419.984 423.986 419.994 419.996 420.004C419.996 415.994 420.006 411.994 420.026 408.004Z" fill="#C56A1D"/>
<path d="M12.015 420.004C44.005 420.004 76.005 420.004 108.005 420.004C107.995 423.984 107.995 427.984 108.005 431.994C107.995 435.984 108.005 439.974 108.015 443.994C112.005 443.984 115.995 443.994 120.005 444.004C120.005 451.994 120.005 459.974 120.015 467.974C123.995 467.984 127.985 468.004 131.985 468.044C131.985 472.014 131.995 475.994 132.015 479.994C132.005 483.974 132.015 487.964 132.025 491.964C136.005 491.974 139.975 492.004 143.965 492.044C143.985 496.014 144.005 499.994 144.035 503.984C148.025 503.974 152.015 503.984 156.015 504.004C159.995 503.994 163.985 504.004 167.985 504.024C167.985 507.994 167.995 511.994 168.015 515.994C152.015 515.994 136.015 516.014 120.015 516.004C120.005 511.984 119.995 507.994 119.985 504.004C115.995 503.994 112.005 503.994 108.025 504.004C108.005 507.994 107.995 511.984 107.985 516.004C75.995 516.004 44.015 516.004 12.025 515.994C12.005 511.994 11.995 508.004 11.985 504.024C7.995 503.994 4.005 503.984 0.015 503.984C-0.005 479.994 -0.005 456.004 0.015 432.014C4.005 431.994 7.99501 431.984 11.995 431.984C11.995 427.984 11.995 423.984 12.015 420.004ZM23.935 468.004C24.065 471.964 24.225 475.944 24.395 479.934C27.055 479.894 32.365 479.824 35.025 479.794C36.065 475.964 35.935 471.904 36.565 468.044C32.345 468.004 28.135 467.994 23.935 468.004ZM11.995 479.994C12.005 484.154 12.025 488.314 12.055 492.494C15.935 491.914 19.915 491.784 23.745 490.904C23.925 488.184 24.275 482.744 24.445 480.024C20.295 479.994 16.145 479.994 11.995 479.994ZM36.015 480.004C36.005 483.984 35.995 487.984 35.985 491.984C31.995 491.984 27.995 491.994 24.005 492.014C24.005 495.994 23.995 499.994 23.995 503.994C31.995 504.014 39.995 503.984 48.005 504.014C48.015 496.004 47.985 487.994 48.005 480.004C44.005 479.994 40.005 479.994 36.015 480.004Z" fill="#FEFDFC"/>
<path d="M240.006 420.051C243.866 420.101 247.746 420.181 251.626 420.291C251.766 424.181 251.896 428.081 252.046 432.001C248.026 431.981 244.016 431.981 240.016 431.991C240.006 428.001 239.996 424.021 240.006 420.051Z" fill="#DBA050"/>
<path d="M432.385 420.293C436.245 420.183 440.115 420.103 444.005 420.043C443.985 424.013 443.985 428.003 443.995 431.993C439.965 431.983 435.955 431.983 431.955 432.003C432.085 428.083 432.225 424.183 432.385 420.293Z" fill="#DFA552"/>
<path d="M576.006 420.001C583.986 420.001 591.976 420.001 599.976 420.001C599.976 423.991 600.006 427.991 600.036 432.001C603.996 431.991 607.976 431.991 611.976 432.001C611.986 427.991 612.006 424.001 612.056 420.021C624.026 419.981 636.016 419.981 648.006 420.001C648.006 431.991 648.006 443.981 647.996 455.971C643.986 455.981 639.996 455.991 636.016 456.021C635.986 464.001 636.006 471.991 635.996 479.991C631.986 479.981 627.996 479.991 624.016 480.011C623.986 487.991 624.006 495.991 623.996 503.991C619.986 503.981 615.996 503.991 612.026 504.021C611.996 508.001 611.986 511.991 611.986 515.991C579.986 516.001 547.996 516.001 515.996 516.001C515.986 511.991 515.996 507.991 516.016 504.011C523.996 504.001 531.976 503.971 539.976 503.981C539.986 499.981 540.006 496.001 540.046 492.031C544.016 492.001 547.996 491.981 551.996 491.981C551.986 483.991 552.006 476.001 552.026 468.031C555.996 468.001 559.996 467.981 563.996 467.981C563.996 459.981 563.986 451.991 564.006 444.011C567.986 443.981 571.986 443.981 575.996 443.991C575.986 439.981 575.986 435.981 576.006 431.991C575.986 427.981 575.986 423.981 576.006 420.001Z" fill="#FFFDFC"/>
<path d="M108.006 431.992C111.996 431.992 115.996 432.002 119.996 432.022C119.996 436.002 119.996 439.992 120.006 444.002C115.996 443.992 112.006 443.982 108.016 443.992C108.006 439.972 107.996 435.982 108.006 431.992Z" fill="#F2BF5E"/>
<path d="M564.017 432.012C567.997 432.002 571.997 431.992 576.007 431.992C575.987 435.982 575.987 439.982 575.997 443.992C571.987 443.982 567.987 443.982 564.007 444.012C563.997 440.002 563.997 436.002 564.017 432.012Z" fill="#FAE4B6"/>
<path d="M528.005 444.004C531.995 443.984 535.995 443.994 540.005 444.004C539.975 451.994 540.015 460.004 540.005 468.014C535.985 467.994 531.995 467.984 528.005 468.004C527.985 459.994 527.985 451.994 528.005 444.004Z" fill="#FEFBFF"/>
<path d="M516.005 468.004C519.995 467.994 523.995 467.994 528.005 468.004C527.995 471.994 527.995 475.994 528.005 480.004C523.995 479.994 519.995 479.994 516.005 480.004C515.985 475.994 515.985 471.994 516.005 468.004Z" fill="#FEFCFF"/>
<path d="M132.016 479.992C135.966 479.992 139.936 480.012 143.896 480.042C144.056 483.902 144.216 487.782 144.396 491.672C148.246 491.812 152.106 491.952 155.966 492.102C155.976 496.052 155.996 500.022 156.016 504.002C152.016 503.982 148.026 503.972 144.036 503.982C144.006 499.992 143.986 496.012 143.966 492.042C139.976 492.002 136.006 491.972 132.026 491.962C132.016 487.962 132.006 483.972 132.016 479.992Z" fill="#F1C35F"/>
</svg>
