<svg width="673" height="600" viewBox="0 0 673 600" fill="none" xmlns="http://www.w3.org/2000/svg">
<path d="M635.999 144.004C639.979 144.004 643.979 144.004 647.989 144.014C647.969 148.004 647.979 152.004 647.999 156.004C643.979 155.994 639.979 155.994 635.999 156.004C635.979 151.994 635.979 147.994 635.999 144.004Z" fill="white"/>
<path d="M372.01 0.00444444C400 -0.00555556 427.99 0.00444444 455.99 0.00444444C455.98 4.00444 455.99 7.99444 456.01 12.0044C468 11.9944 479.99 12.0044 491.98 12.0144C491.98 16.0044 491.99 19.9944 492.01 23.9944C500 23.9944 508 24.0144 516 24.0044C515.98 28.0044 515.98 31.9944 516 36.0044C452 36.0044 388 36.0044 324 36.0044C323.99 32.0044 323.99 28.0044 324 24.0144C331.99 24.0044 339.99 23.9944 347.99 24.0044C347.99 20.0044 347.99 16.0044 348.01 12.0144C355.99 12.0044 363.99 11.9944 371.99 12.0044C371.98 8.00444 371.99 4.00444 372.01 0.00444444Z" fill="#FFEFE7"/>
<path d="M300.01 36.0039C308 36.0039 316 36.0039 324 36.0039C388 36.0039 452 36.0039 516 36.0039C523.98 36.0139 531.98 36.0039 539.99 36.0039C539.98 39.9939 539.99 43.9939 540.02 47.9839C543.99 47.9939 547.99 48.0039 552 48.0139C551.98 52.0139 551.98 56.0039 552 60.0039C464 60.0039 376 60.0039 288 60.0039C287.99 56.0039 287.99 52.0139 288 48.0239C291.99 48.0039 295.98 47.9939 299.99 47.9839C299.98 43.9939 299.99 39.9939 300.01 36.0039Z" fill="#FFF1E8"/>
<path d="M276.01 60.0039C280 60.0039 284 60.0039 288 60.0039C376 60.0039 464 60.0039 552 60.0039C555.98 60.0039 559.97 60.0039 563.98 60.0039C563.98 63.9939 563.99 67.9939 564.01 71.9939C572 71.9939 580 72.0139 588 72.0039C587.98 76.0039 587.98 80.0039 588 84.0039C480 84.0039 372 84.0039 264 84.0039C263.99 80.0039 263.99 76.0139 264 72.0239C267.99 72.0039 271.98 71.9939 275.99 71.9839C275.98 67.9939 275.99 63.9939 276.01 60.0039Z" fill="#FFF2EA"/>
<path d="M252.01 84.0044C256 84.0044 260 84.0044 264 84.0044C372 84.0044 480 84.0044 588 84.0044C591.98 84.0044 595.98 83.9944 599.99 84.0044C599.98 91.9944 600 99.9944 600 107.994C603.99 107.994 607.98 108.004 612 108.014C611.98 112.004 611.98 116.004 612 120.004C484 120.004 356 120.004 228 120.004C227.99 116.004 227.99 112.004 228 108.024C231.99 108.004 235.98 107.994 239.98 107.984C239.99 103.994 240 100.004 240.02 96.0244C244 96.0044 247.99 95.9945 251.98 95.9845C251.98 91.9845 251.99 87.9944 252.01 84.0044Z" fill="#FFF3EC"/>
<path d="M216 120.004C219.99 119.994 223.99 119.994 228 120.004C356 120.004 484 120.004 612 120.004C615.98 119.994 619.98 119.994 623.99 120.004C623.98 123.994 623.98 128.004 624 132.014C623.99 135.994 623.99 139.994 624.01 143.994C627.99 143.984 631.98 143.994 636 144.004C635.98 147.994 635.98 151.994 636 156.004C492 156.004 348 156.004 204 156.004C203.99 152.004 203.99 148.004 204 144.024C207.99 144.004 211.99 143.994 215.99 143.994C215.99 135.984 216.01 127.994 216 120.004Z" fill="#FFF4EE"/>
<path d="M192.01 156.004C196 155.994 200 155.994 204 156.004C348 156.004 492 156.004 636 156.004C639.98 155.994 643.98 155.994 648 156.004C647.98 159.994 647.98 163.994 648.01 168.004C647.99 171.994 647.99 175.984 648.01 179.984C651.99 179.994 655.99 180.004 660 180.014C659.98 184.014 659.97 188.004 659.99 192.014C656.03 191.984 652.09 191.974 648.17 191.954C647.87 187.934 647.66 183.944 647.38 179.944C635.59 180.004 623.82 180.014 612.05 180.014C612 184.004 611.98 187.994 611.97 192.004C607.97 191.994 603.99 191.994 600.03 192.004C599.99 187.994 599.97 183.994 599.97 180.004C595.97 180.004 591.99 180.004 588.03 180.004C588 183.994 587.98 187.994 587.97 192.004C575.97 191.994 563.98 191.994 552 192.004C543.99 192.004 535.99 192.004 528 192.004C527.98 188.004 527.97 184.004 527.99 180.014C523.98 180.004 519.98 180.004 515.99 180.004C511.98 179.994 507.99 179.994 504.01 180.004C503.98 175.994 503.98 171.994 503.99 168.004C499.97 168.004 495.98 168.004 491.99 168.004C467.99 167.994 443.99 168.004 420 168.004C419.99 171.994 419.99 175.994 420 179.994C412.01 180.004 404.04 180.014 396.06 180.004C395.99 183.264 396.04 186.594 395.98 189.864C387.99 190.434 380.03 191.264 372.07 192.124C372.02 188.074 371.99 184.034 371.96 180.004C367.97 179.994 364 179.994 360.03 180.004C360 183.994 359.98 187.994 359.98 192.004C351.98 191.994 344 192.004 336.02 192.004C335.99 187.994 335.98 183.994 335.97 180.004C331.98 180.004 328 180.004 324.03 180.004C324 184.004 323.98 188.004 323.97 192.004C303.99 192.004 284.02 191.994 264.05 192.014C264.01 187.994 263.99 183.994 263.97 179.994C251.99 180.014 240.01 180.014 228.03 180.004C228 183.994 227.98 187.994 227.97 192.004C223.98 191.994 220 191.994 216.03 192.004C216 187.994 215.98 183.994 215.97 180.004C211.98 180.004 208 180.004 204.03 180.004C204 183.994 203.99 187.994 203.98 192.004C195.98 191.994 187.99 192.004 180 192.004C179.99 187.994 179.99 183.994 180 180.004C179.99 176.004 179.99 172.004 180 168.024C183.99 168.004 187.98 167.994 191.99 167.984C191.99 163.984 192 159.994 192.01 156.004Z" fill="#FFF6F0"/>
<path d="M420 168.004C443.99 168.004 467.99 167.994 491.99 168.004C491.99 171.994 491.99 175.994 492.01 179.994C496 179.994 499.99 179.994 504.01 180.004C507.99 179.994 511.98 179.994 515.99 180.004C515.99 183.994 515.99 187.984 516.02 191.984C520 191.984 523.99 191.994 528 192.004C527.99 195.994 527.99 199.994 528.02 204.004C531.99 203.994 535.98 203.994 539.99 204.004C539.99 207.944 540.01 211.884 540.05 215.834C544.01 216.074 548.05 216.334 552.05 216.624C552 224.414 551.99 232.204 552 239.994C551.99 243.984 551.98 247.984 552 251.994C555.99 251.984 559.98 251.994 564 252.014C563.98 259.994 563.99 267.984 564 275.984C559.99 275.994 556.01 276.004 552.03 276.034C552.03 280.014 552.03 284.004 552.04 288.004C552 291.994 551.95 295.994 551.89 300.004C551.74 304.014 551.59 308.064 551.42 312.094C548.57 312.074 542.85 312.034 539.99 312.004C539.98 308.004 539.98 304.004 540 300.014C535.99 300.004 531.98 299.994 528 299.994C527.99 296.004 528 292.014 528.02 288.034C532 288.004 535.99 287.984 540 287.974C539.99 271.994 539.99 256.004 540 240.024C535.99 240.004 532 239.984 528.02 239.974C527.98 231.984 528 224.004 527.98 216.024C523.99 216.004 520 215.984 516.04 215.964C516 211.984 515.97 208.014 515.96 204.044C511.97 204.014 508 203.984 504.04 203.964C504 199.974 503.98 195.984 503.97 192.004C491.98 192.014 479.99 192.004 468.01 192.004C467.99 187.994 467.98 183.994 467.98 180.004C463.98 179.994 459.98 179.994 456 180.004C451.99 179.994 448 179.994 444.01 180.004C443.99 183.994 443.99 187.994 443.99 192.004C439.98 191.994 435.99 191.994 432.01 192.004C427.99 191.994 423.99 191.994 420 192.004C419.99 187.994 419.99 183.994 420 179.994C419.99 175.994 419.99 171.994 420 168.004Z" fill="#FFDA5C"/>
<path d="M491.99 168.004C495.98 168.004 499.97 168.004 503.99 168.004C503.98 171.994 503.98 175.994 504.01 180.004C499.99 179.994 496 179.994 492.01 179.994C491.99 175.994 491.99 171.994 491.99 168.004Z" fill="#FFEAC3"/>
<path d="M168.001 180.006C171.991 179.996 175.991 179.996 180.001 180.006C179.991 183.996 179.991 187.996 180.001 192.006C187.991 192.006 195.981 191.996 203.981 192.006C203.991 187.996 204.001 183.996 204.031 180.006C208.001 180.006 211.981 180.006 215.971 180.006C215.981 183.996 216.001 187.996 216.031 192.006C220.001 191.996 223.981 191.996 227.971 192.006C227.981 187.996 228.001 183.996 228.031 180.006C240.011 180.016 251.991 180.016 263.971 179.996C263.991 183.996 264.011 187.996 264.051 192.016C284.021 191.996 303.991 192.006 323.971 192.006C323.98 188.006 324.001 184.006 324.031 180.006C328.001 180.006 331.98 180.006 335.971 180.006C335.98 183.996 335.991 187.996 336.021 192.006C344.001 192.006 351.981 191.996 359.981 192.006C359.981 187.996 360.001 183.996 360.031 180.006C364.001 179.996 367.971 179.996 371.961 180.006C371.991 184.036 372.021 188.076 372.071 192.126C380.031 191.266 387.991 190.436 395.981 189.866C395.981 190.396 395.961 191.446 395.951 191.976C391.961 191.986 387.981 191.996 384.021 192.026C384.001 196.026 383.991 200.026 384.001 204.036C379.991 204.016 375.991 204.016 372.011 204.016C371.991 208.006 371.991 211.996 372.001 216.006C371.991 219.996 371.991 223.996 372.001 228.006C367.991 227.996 363.991 227.996 360.001 228.006C288.001 228.006 216.001 228.006 144.001 228.006C143.991 224.006 144.001 220.006 144.001 216.026C147.991 216.006 151.981 215.996 155.981 215.986C155.991 211.996 156.001 208.006 156.021 204.026C160.001 204.006 163.991 203.996 167.991 203.996C167.991 195.986 168.011 187.996 168.001 180.006Z" fill="#FFF7F2"/>
<path d="M588.03 180.005C591.99 180.005 595.97 180.005 599.97 180.005C599.97 183.995 599.99 187.995 600.03 192.005C603.99 191.995 607.97 191.995 611.97 192.005C611.98 187.995 612 184.005 612.05 180.015C623.82 180.015 635.59 180.005 647.38 179.945C647.66 183.945 647.87 187.935 648.17 191.955C652.09 191.975 656.03 191.985 659.99 192.015C659.98 200.005 660 207.995 660.01 215.995C663.99 215.995 667.98 216.005 672 216.015C671.98 220.005 671.98 224.005 672 228.005C640 227.995 608 228.015 576 228.005C571.99 227.995 567.99 227.995 564.01 228.005C563.99 223.995 563.99 220.005 564 216.015C563.98 212.005 563.97 208.005 563.98 204.015C559.97 204.005 555.98 204.005 552 204.005C551.98 199.995 551.98 195.995 552 192.005C563.98 191.995 575.97 191.995 587.97 192.005C587.98 187.995 588 183.995 588.03 180.005Z" fill="#FFF7F2"/>
<path d="M396.06 180.006C404.04 180.016 412.01 180.006 420 179.996C419.99 183.996 419.99 187.996 420 192.006C419.98 195.996 419.99 199.996 420 204.006C411.99 204.006 404 204.006 396 204.006C396 212.006 396 220.006 396 228.006C391.98 227.996 387.98 227.996 384 228.006C383.99 223.996 383.99 219.996 384 216.006C383.99 212.006 383.99 208.016 384 204.036C387.88 203.896 391.77 203.766 395.68 203.636C395.76 199.736 395.86 195.856 395.95 191.976C395.96 191.446 395.98 190.396 395.98 189.866C396.04 186.596 395.99 183.266 396.06 180.006Z" fill="#FFEA81"/>
<path d="M527.999 299.996C531.979 299.996 535.989 300.006 539.999 300.016C539.979 304.006 539.979 308.006 539.989 312.006C539.969 319.996 539.989 327.986 539.999 335.986C535.989 335.986 531.999 336.006 528.019 336.036C527.989 340.016 527.989 344.006 527.989 348.016C523.979 347.996 519.979 347.996 515.999 348.006C511.979 347.996 507.979 347.996 503.999 348.006C503.979 343.996 503.989 339.996 504.009 335.996C503.989 332.006 503.989 328.016 503.999 324.036C507.969 324.006 511.959 323.986 515.969 323.966C515.969 319.986 515.999 316.006 516.039 312.046C519.999 312.006 523.979 311.986 527.979 311.966C527.969 307.966 527.969 303.976 527.999 299.996ZM516.229 325.076C516.079 327.926 515.779 333.626 515.639 336.476C519.639 335.936 523.779 335.806 527.769 334.936C527.919 332.086 528.219 326.386 528.359 323.536C524.289 324.026 520.199 324.196 516.229 325.076Z" fill="#FFEA81"/>
<path d="M444.01 180.004C448 179.994 451.99 179.994 456 180.004C455.99 183.994 455.99 187.994 456 192.004C451.98 191.994 447.98 191.994 443.99 192.004C443.99 187.994 443.99 183.994 444.01 180.004Z" fill="#F3B646"/>
<path d="M456 180.004C459.98 179.994 463.98 179.994 467.98 180.004C467.98 183.994 467.99 187.994 468.01 192.004C463.99 191.994 459.99 191.994 456 192.004C455.99 187.994 455.99 183.994 456 180.004Z" fill="#EEAA3F"/>
<path d="M515.99 180.004C519.98 180.004 523.98 180.004 527.99 180.014C527.97 184.004 527.98 188.004 528 192.004C523.99 191.994 520 191.984 516.02 191.984C515.99 187.984 515.99 183.994 515.99 180.004Z" fill="#FECE60"/>
<path d="M504 348.004C507.98 347.994 511.98 347.994 516 348.004C515.99 351.994 515.99 355.994 516.01 360.004C511.99 359.994 507.98 359.994 504 360.004C503.98 355.994 503.98 351.994 504 348.004Z" fill="#FECE60"/>
<path d="M192 360.004C195.99 359.994 199.99 359.994 204 360.004C203.99 363.994 203.98 367.994 203.99 371.994C199.98 371.984 195.99 371.984 192 371.994C191.99 367.984 191.99 363.994 192 360.004Z" fill="#FECE60"/>
<path d="M455.99 360.004C463.99 360.004 471.99 359.994 480 360.004C479.98 363.994 479.98 367.994 480 372.014C472 371.994 464 371.974 456.02 372.004C455.99 367.994 455.99 363.994 455.99 360.004Z" fill="#FECE60"/>
<path d="M168.01 372.015C172 371.995 176 372.005 180.01 372.015C179.99 375.995 179.98 379.985 179.98 383.985C175.98 383.985 171.99 383.985 168 384.005C168 379.995 168 375.995 168.01 372.015Z" fill="#FECE60"/>
<path d="M384.02 192.023C387.98 191.993 391.96 191.983 395.95 191.973C395.86 195.853 395.76 199.733 395.68 203.633C391.77 203.763 387.88 203.893 384 204.033C383.99 200.023 384 196.023 384.02 192.023Z" fill="#FFDB5C"/>
<path d="M516.23 325.071C520.2 324.191 524.29 324.021 528.36 323.531C528.22 326.381 527.92 332.081 527.77 334.931C523.78 335.801 519.64 335.931 515.64 336.471C515.78 333.621 516.08 327.921 516.23 325.071Z" fill="#FFDB5C"/>
<path d="M336.07 395.602C339.8 396.212 343.68 396.432 347.37 397.432C347.62 400.062 348.119 405.322 348.359 407.952C344.219 407.962 340.099 407.982 335.979 408.012C335.999 403.862 336.03 399.722 336.07 395.602Z" fill="#FFDB5C"/>
<path d="M180.03 551.922C183.88 552.052 187.75 552.202 191.63 552.372C191.75 556.252 191.89 560.142 192.02 564.062C187.97 563.772 183.95 563.522 179.93 563.252C179.95 560.422 180 554.752 180.03 551.922Z" fill="#FFDB5C"/>
<path d="M420.001 192.004C423.991 191.994 427.991 191.994 432.011 192.004C431.991 195.994 431.981 199.994 431.981 204.004C427.981 203.994 423.981 203.994 420.001 204.004C419.991 199.994 419.981 195.994 420.001 192.004Z" fill="#EDA63D"/>
<path d="M384.001 228.004C387.981 227.994 391.981 227.994 396.001 228.004C395.981 231.994 395.981 235.984 396.001 239.984C391.981 239.984 387.991 239.994 384.001 240.014C383.991 236.004 383.981 231.994 384.001 228.004Z" fill="#EDA63D"/>
<path d="M275.99 372.004C279.98 371.994 283.98 371.994 287.99 372.004C287.98 375.994 287.99 379.994 288.01 384.004C284 383.994 280 383.994 276.01 384.004C276 379.994 275.99 375.994 275.99 372.004Z" fill="#EDA63D"/>
<path d="M299.99 384.004C303.98 383.994 307.98 384.004 311.99 384.014C311.98 388.014 311.99 392.014 312.01 396.024C308 396.024 304 396.014 300.02 396.024C300 392.004 299.99 387.994 299.99 384.004Z" fill="#EDA63D"/>
<path d="M216.011 491.992C219.991 491.992 223.991 491.992 228.001 492.022C227.991 495.992 227.991 499.992 228.001 504.002C223.991 503.982 219.991 503.982 216.001 504.002C215.991 499.992 215.991 495.982 216.011 491.992Z" fill="#EDA63D"/>
<path d="M324.01 540.022C328 539.992 332 539.992 336.01 540.002C335.99 543.982 335.98 547.972 335.99 551.982C331.98 551.972 327.98 551.982 323.99 552.002C323.99 547.992 324 544.002 324.01 540.022Z" fill="#EDA63D"/>
<path d="M432.011 192.004C435.991 191.994 439.981 191.994 443.991 192.004C447.981 191.994 451.981 191.994 456.001 192.004C459.991 191.994 463.991 191.994 468.011 192.004C479.991 192.004 491.981 192.014 503.971 192.004C503.981 195.984 504.001 199.974 504.041 203.964C508.001 203.984 511.971 204.014 515.961 204.044C515.971 208.014 516.001 211.984 516.041 215.964C520.001 215.984 523.991 216.004 527.981 216.024C528.001 224.004 527.981 231.984 528.021 239.974C532.001 239.984 535.991 240.004 540.001 240.024C539.991 256.004 539.991 271.994 540.001 287.974C535.991 287.984 532.001 288.004 528.021 288.034C528.001 292.014 527.991 296.004 528.001 299.994C527.971 303.974 527.971 307.964 527.981 311.964C523.981 311.984 520.001 312.004 516.041 312.044C516.001 316.004 515.971 319.984 515.971 323.964C511.961 323.984 507.971 324.004 504.001 324.034C503.991 328.014 503.991 332.004 504.011 335.994C499.991 335.994 495.991 335.994 492.011 336.004C487.991 335.994 484.001 335.994 480.011 336.014C479.991 339.994 479.991 343.994 479.991 348.004C464.001 348.004 448.011 347.994 432.031 348.004C432.001 343.994 431.981 340.004 431.971 336.014C427.971 336.004 423.981 335.994 420.011 336.004C419.981 332.024 419.961 328.064 419.961 324.104C416.091 323.954 412.241 323.814 408.401 323.664C408.201 319.834 408.021 316.014 407.861 312.204C403.861 311.914 399.921 311.664 395.961 311.374C395.961 303.584 395.981 295.794 396.001 288.014C391.991 288.004 387.991 287.994 384.001 287.994C383.991 271.994 384.001 256.004 384.001 240.014C387.991 239.994 391.981 239.984 396.001 239.984C395.981 235.984 395.981 231.994 396.001 228.004C396.001 220.004 396.001 212.004 396.001 204.004C404.001 204.004 411.991 204.004 420.001 204.004C423.981 203.994 427.981 203.994 431.981 204.004C431.981 199.994 431.991 195.994 432.011 192.004ZM444.001 216.004C443.991 219.994 443.991 223.994 444.011 228.004C439.991 227.994 435.991 227.994 432.001 228.004C432.001 236.004 432.001 244.004 432.001 252.014C432.011 264.004 431.971 276.004 432.001 288.004C427.991 287.994 423.991 287.994 420.001 288.004C419.991 291.944 420.001 295.894 420.021 299.854C424.001 300.114 428.021 300.414 432.031 300.764C432.021 303.574 432.011 309.194 432.011 312.004C435.991 311.994 439.991 311.994 444.001 312.004C443.981 307.994 443.981 303.994 444.001 300.004C447.991 299.994 451.991 300.004 456.001 300.014C456.001 272.014 456.011 244.004 456.001 216.004C451.991 216.004 447.991 216.004 444.001 216.004ZM479.991 263.994C479.981 267.984 479.981 271.994 480.001 276.004C475.991 275.994 471.981 275.994 468.001 276.004C467.991 279.944 468.001 283.894 468.021 287.854C472.001 288.114 476.021 288.414 480.031 288.764C480.021 291.574 480.011 297.194 480.011 300.004C483.991 299.994 487.991 299.994 492.001 300.004C491.981 295.994 491.981 291.994 492.001 288.004C495.991 287.994 499.991 288.004 504.011 288.014C503.971 280.004 503.971 271.994 504.021 263.994C496.001 264.014 487.991 264.004 479.991 263.994Z" fill="#FCC150"/>
<path d="M528 192.004C535.99 192.004 543.99 192.004 552 192.004C551.98 195.994 551.98 199.994 552 204.004C547.98 203.994 543.97 203.994 539.99 204.004C535.98 203.994 531.99 203.994 528.02 204.004C527.99 199.994 527.99 195.994 528 192.004Z" fill="#FDC251"/>
<path d="M552.04 288.004C560.02 287.994 568 287.994 576 288.004C575.98 291.994 575.98 295.994 576 300.004C567.95 299.994 559.92 300.004 551.89 300.004C551.95 295.994 552 291.994 552.04 288.004Z" fill="#FDC251"/>
<path d="M516 348.002C519.98 347.992 523.98 347.992 527.99 348.012C531.98 347.992 535.98 347.992 540 347.992C539.98 351.982 539.98 355.992 540 360.002C531.99 359.992 524 359.992 516.01 360.002C515.99 355.992 515.99 351.992 516 348.002Z" fill="#FDC251"/>
<path d="M479.999 360.004C487.989 360.004 495.989 359.994 503.999 360.004C503.979 363.994 503.979 367.994 503.999 372.004C495.989 371.994 487.989 372.004 479.999 372.014C479.979 367.994 479.979 363.994 479.999 360.004Z" fill="#FDC251"/>
<path d="M144.01 384.004C152 384.004 160 384.004 168 384.004C167.99 387.994 167.98 391.994 167.98 396.004C163.98 395.984 159.99 395.984 156.01 395.994C152 395.984 147.99 395.984 144 396.004C144 391.994 144 387.994 144.01 384.004Z" fill="#FDC251"/>
<path d="M120.009 420.002C123.999 419.992 127.989 419.992 131.999 420.002C135.989 419.992 139.989 419.982 143.999 419.992C143.989 423.982 143.989 427.982 143.999 432.002C135.989 431.992 127.989 432.002 119.999 432.002C119.989 427.992 119.999 423.992 120.009 420.002Z" fill="#FDC251"/>
<path d="M108 480.004C116 479.994 123.99 479.994 132 480.004C131.99 483.994 131.99 487.994 132 492.004C123.99 491.994 116 491.994 108 492.004C107.99 487.984 107.99 483.984 108 480.004Z" fill="#FDC251"/>
<path d="M132.01 527.995C136 527.985 140 527.985 144 528.005C147.99 527.985 152 527.985 156 527.995C155.99 532.015 155.99 536.045 156 540.095C147.97 539.895 139.95 539.665 131.93 539.375C131.95 536.525 131.99 530.845 132.01 527.995Z" fill="#FDC251"/>
<path d="M144.01 551.984C148 551.974 151.99 551.984 156 552.014C159.99 551.994 163.98 551.994 167.99 552.014C167.99 556.004 167.99 560.014 168 564.034C159.97 563.934 151.94 563.674 143.92 563.384C143.95 560.534 143.99 554.834 144.01 551.984Z" fill="#FDC251"/>
<path d="M168 576.005C171.99 575.985 176 575.985 180.01 576.005C184 575.985 188 575.985 192.01 575.995C191.99 579.985 191.98 583.985 191.98 587.995C187.98 587.985 183.99 587.985 180 588.005C175.99 587.985 171.99 587.985 168 588.005C167.99 583.995 167.99 579.985 168 576.005Z" fill="#FDC251"/>
<path d="M372.011 204.016C375.991 204.016 379.991 204.016 384.001 204.036C383.991 208.016 383.991 212.006 384.001 216.006C379.991 215.996 375.991 215.996 372.001 216.006C371.991 211.996 371.991 208.006 372.011 204.016Z" fill="#FFF6E5"/>
<path d="M539.99 204.004C543.97 203.994 547.98 203.994 552 204.004C551.98 207.994 551.99 211.984 552.02 215.984C556 215.984 559.99 215.994 564 216.014C563.99 220.004 563.99 223.994 564.01 228.004C567.99 227.994 571.99 227.994 576 228.004C576 248.004 576 268.004 576 288.004C568 287.994 560.02 287.994 552.04 288.004C552.03 284.004 552.03 280.014 552.03 276.034C556.01 276.004 559.99 275.994 564 275.984C563.99 267.984 563.98 259.994 564 252.014C563.98 248.004 563.98 244.004 564 240.014C559.99 240.004 555.99 239.994 552 239.994C551.99 232.204 552 224.414 552.05 216.624C548.05 216.334 544.01 216.074 540.05 215.834C540.01 211.884 539.99 207.944 539.99 204.004Z" fill="#FECD5F"/>
<path d="M144.001 396.005C147.991 395.985 152.001 395.985 156.011 395.995C155.991 403.995 155.981 411.995 156.001 420.005C151.991 419.985 147.991 419.985 144.001 419.995C139.991 419.985 135.991 419.995 132.001 420.005C131.991 415.995 131.991 411.995 132.001 408.015C135.991 407.995 139.981 407.985 143.981 407.985C143.981 403.985 143.991 399.985 144.001 396.005Z" fill="#FECD5F"/>
<path d="M120 516.004C127.99 515.994 135.99 515.994 144 516.004C143.99 519.984 143.99 523.984 144 528.004C140 527.984 136 527.984 132.01 527.994C131.99 530.844 131.95 536.524 131.93 539.374C139.95 539.664 147.97 539.894 156 540.094C155.99 544.054 155.99 548.024 156 552.014C151.99 551.984 148 551.974 144.01 551.984C143.99 554.834 143.95 560.534 143.92 563.384C151.94 563.674 159.97 563.934 168 564.034C171.99 564.034 175.98 564.044 179.98 564.064C179.98 568.024 179.99 572.004 180.01 576.004C176 575.984 171.99 575.984 168 576.004C163.99 575.984 159.99 575.984 156 576.004C152 575.984 148 575.984 144.02 576.004C144 571.994 143.99 568.004 143.98 564.024C139.99 563.994 136 563.984 132.01 563.994C132 555.984 131.98 548.004 132 540.014C127.99 539.994 123.99 539.984 119.99 539.994C120 531.984 120.02 523.994 120 516.004Z" fill="#FECD5F"/>
<path d="M192.011 575.992C195.991 575.992 199.971 576.002 203.971 576.022C203.981 579.992 204.001 583.982 204.031 587.982C208.011 587.972 212.001 587.982 216.001 588.002C215.991 591.982 215.991 595.982 216.001 600.002C204.001 599.992 192.001 599.992 180.001 600.002C179.991 595.992 179.991 591.992 180.001 588.002C183.991 587.982 187.981 587.982 191.981 587.992C191.981 583.982 191.991 579.982 192.011 575.992Z" fill="#FECD5F"/>
<path d="M552.001 204.004C555.981 204.004 559.971 204.004 563.981 204.014C563.971 208.004 563.981 212.004 564.001 216.014C559.991 215.994 556.001 215.984 552.021 215.984C551.991 211.984 551.981 207.994 552.001 204.004Z" fill="#FED67C"/>
<path d="M372 216.004C375.99 215.994 379.99 215.994 384 216.004C383.99 219.994 383.99 223.994 384 228.004C383.98 231.994 383.99 236.004 384 240.014C384 256.004 383.99 271.994 384 287.994C384 295.984 384.01 303.984 384 311.984C387.98 311.994 391.97 312.014 395.97 312.044C395.98 316.004 396 319.984 396.04 323.964C400 323.984 403.98 324.004 407.96 324.044C407.97 328.014 408 331.994 408.03 335.984C412.01 335.974 416 335.984 420.01 336.004C423.98 335.994 427.97 336.004 431.97 336.014C431.98 340.004 432 343.994 432.03 348.004C448.01 347.994 464 348.004 479.99 348.004C483.98 347.994 487.97 347.994 491.99 348.004C491.98 343.994 491.99 339.994 492.01 336.004C495.99 335.994 499.99 335.994 504.01 335.994C503.99 339.994 503.98 343.994 504 348.004C503.98 351.994 503.98 355.994 504 360.004C495.99 359.994 487.99 360.004 480 360.004C471.99 359.994 463.99 360.004 455.99 360.004C443.99 360.004 432 359.994 420.01 360.004C419.98 356.004 419.98 352.004 419.99 348.024C411.99 347.984 404.01 347.994 396.02 347.994C395.99 343.994 395.97 340.014 395.96 336.044C391.98 336.004 388 335.984 384.04 335.964C384 331.984 383.98 328.004 383.96 324.044C379.97 324.014 375.99 323.984 372.02 323.974C372 319.974 372 315.984 372 312.004C371.98 308.004 371.97 304.014 371.98 300.034C367.98 300.004 363.98 299.984 360 299.974C360 287.984 360 275.994 360 264.004C359.99 255.994 359.99 248.004 360 240.014C363.98 239.994 367.98 239.984 371.99 239.984C371.98 235.984 371.98 231.994 372 228.004C371.99 223.994 371.99 219.994 372 216.004Z" fill="#FEDB5D"/>
<path d="M444 216.004C447.99 216.004 451.99 216.004 456 216.004C456.01 244.004 456 272.014 456 300.014C451.99 300.004 447.99 299.994 444 300.004C439.99 299.994 435.99 299.984 432 299.994C431.99 295.994 431.99 291.994 432 288.004C431.97 276.004 432.01 264.004 432 252.014C435.98 251.994 439.99 251.984 444 251.984C443.97 243.984 443.98 235.994 444.01 228.004C443.99 223.994 443.99 219.994 444 216.004Z" fill="#8F5B33"/>
<path d="M132 228.004C135.99 227.994 139.99 227.994 144 228.004C216 228.004 288 228.004 360 228.004C359.99 231.994 359.99 235.994 360 240.014C359.99 248.004 359.99 255.994 360 264.004C280 264.004 200 264.004 120 264.004C119.99 260.004 119.99 256.004 120 252.024C123.99 252.004 127.99 251.994 131.99 251.994C131.99 243.984 132.01 235.994 132 228.004Z" fill="#FFF8F4"/>
<path d="M360 228.004C363.99 227.994 367.99 227.994 372 228.004C371.98 231.994 371.98 235.984 371.99 239.984C367.98 239.984 363.98 239.994 360 240.014C359.99 235.994 359.99 231.994 360 228.004Z" fill="#FFF5E1"/>
<path d="M432 228.004C435.99 227.994 439.99 227.994 444.01 228.004C443.98 235.994 443.97 243.984 444 251.984C439.99 251.984 435.98 251.994 432 252.014C432 244.004 432 236.004 432 228.004Z" fill="#EDA73C"/>
<path d="M228 528.004C236 527.994 243.99 527.994 252 528.004C251.99 531.994 251.99 535.994 252 540.014C243.99 539.984 236 539.984 228 540.014C227.99 535.994 227.99 531.994 228 528.004Z" fill="#EDA73C"/>
<path d="M576 228.007C608 228.017 640 227.997 672 228.007C672 248.007 671.99 268.007 672 288.007C640 288.007 608 288.007 576 288.007C576 268.007 576 248.007 576 228.007Z" fill="#FFF8F5"/>
<path d="M552 239.996C555.99 239.996 559.99 240.006 564 240.016C563.98 244.006 563.98 248.006 564 252.016C559.98 251.996 555.99 251.986 552 251.996C551.98 247.986 551.99 243.986 552 239.996Z" fill="#FDC250"/>
<path d="M552 312.028C555.98 312.008 559.99 311.998 564.01 312.008C563.98 315.998 563.98 319.998 563.99 324.018C559.98 323.998 555.98 323.988 552 323.998C551.99 319.998 551.98 316.008 552 312.028Z" fill="#FDC250"/>
<path d="M108.01 455.996C112 455.996 115.99 455.996 120 456.016C119.99 459.996 119.99 463.986 120 467.986C115.99 467.986 111.99 467.996 108 468.016C107.99 463.996 108 459.986 108.01 455.996Z" fill="#FDC250"/>
<path d="M216.001 588.008C219.991 587.998 223.981 588.008 227.981 588.028C227.981 592.008 227.991 595.998 228.011 600.008C224.001 599.998 219.991 599.998 216.001 600.008C215.991 595.988 215.991 591.988 216.001 588.008Z" fill="#FDC250"/>
<path d="M108.01 264.004C112 263.994 116 263.994 120 264.004C200 264.004 280 264.004 360 264.004C360 275.994 360 287.984 360 299.974C363.98 299.984 367.98 300.004 371.98 300.034C371.97 304.014 371.98 308.004 372 312.004C276 312.004 180 312.004 83.9902 312.004C84.0102 304.004 84.0102 296.004 84.0002 288.014C87.9902 287.994 91.9803 287.984 95.9803 287.984C95.9903 283.994 96.0002 280.004 96.0202 276.024C100 276.004 103.99 275.994 107.98 275.984C107.99 271.984 108 267.994 108.01 264.004Z" fill="#FFF9F6"/>
<path d="M479.99 263.996C487.99 264.006 496 264.016 504.02 263.996C503.97 271.996 503.97 280.006 504.01 288.016C499.99 288.006 495.99 287.996 492 288.006C487.99 287.996 483.99 287.986 480.01 287.996C479.99 283.996 479.99 279.996 480 276.006C479.98 271.996 479.98 267.986 479.99 263.996Z" fill="#8F5A33"/>
<path d="M252.01 420.007C255.99 419.998 259.99 419.998 263.99 420.007C263.99 427.988 264.01 435.997 264 443.997C268 443.987 272 443.998 276.01 444.018C275.98 452.008 275.97 460.007 276 467.997C272 467.997 268.01 468.008 264.03 468.028C264 472.008 263.98 475.987 263.97 479.987C255.97 479.987 247.99 480.008 240 480.018C239.99 483.998 239.99 487.997 240 492.007C243.99 491.997 247.99 491.988 252 492.007C252 503.997 251.98 515.997 252 528.007C243.99 527.997 236 527.997 228 528.007C228.01 519.997 227.99 511.997 228 504.007C227.99 499.997 227.99 495.998 228 492.028C223.99 491.998 219.99 491.997 216.01 491.997C215.99 487.987 215.99 483.987 216 480.007C215.99 475.997 215.99 471.998 215.99 468.028C211.99 467.998 207.99 467.997 204 467.997C204 455.987 204 443.987 204 431.987C211.99 432.017 219.99 432.027 227.99 431.997C227.99 439.997 228.01 448.008 228 456.018C235.99 455.978 244 455.978 252 456.018C251.99 452.008 251.99 448.008 252 444.018C247.99 443.998 243.99 443.987 240 443.997C239.99 439.987 239.99 435.998 240 432.018C243.99 431.998 247.98 431.987 251.98 431.987C251.98 427.987 251.99 423.987 252.01 420.007Z" fill="#8F5A33"/>
<path d="M468 276.004C471.98 275.994 475.99 275.994 480 276.004C479.99 279.994 479.99 283.994 480.01 287.994C483.99 287.984 487.99 287.994 492 288.004C491.98 291.994 491.98 295.994 492 300.004C487.99 299.994 483.99 299.994 480.01 300.004C480.01 297.194 480.02 291.574 480.03 288.764C476.02 288.414 472 288.114 468.02 287.854C468 283.894 467.99 279.944 468 276.004Z" fill="#EDA73D"/>
<path d="M384 287.992C387.99 287.992 391.99 288.002 396 288.012C395.98 295.792 395.96 303.582 395.96 311.372C399.92 311.662 403.86 311.912 407.86 312.202C408.02 316.012 408.2 319.832 408.4 323.662C412.24 323.812 416.09 323.952 419.96 324.102C419.96 328.062 419.98 332.022 420.01 336.002C416 335.982 412.01 335.972 408.03 335.982C408 331.992 407.97 328.012 407.96 324.042C403.98 324.002 400 323.982 396.04 323.962C396 319.982 395.98 316.002 395.97 312.042C391.97 312.012 387.98 311.992 384 311.982C384.01 303.982 384 295.982 384 287.992Z" fill="#EDA73D"/>
<path d="M420 288.004C423.99 287.994 427.99 287.994 432 288.004C431.99 291.994 431.99 295.994 432 299.994C435.99 299.984 439.99 299.994 444 300.004C443.98 303.994 443.98 307.994 444 312.004C439.99 311.994 435.99 311.994 432.01 312.004C432.01 309.194 432.02 303.574 432.03 300.764C428.02 300.414 424 300.114 420.02 299.854C420 295.894 419.99 291.944 420 288.004Z" fill="#EDA73D"/>
<path d="M324.01 408.004C327.99 407.994 331.98 408.004 335.98 408.014C335.98 411.994 335.99 415.984 336.02 419.984C340.02 419.984 344.03 419.994 348.06 420.014C348 424.004 347.98 428.004 347.98 432.014C344.01 431.984 340.05 431.964 336.11 431.964C335.93 428.074 335.77 424.194 335.61 420.334C331.74 420.174 327.87 420.024 324.02 419.904C324.01 415.924 324 411.954 324.01 408.004Z" fill="#EDA73D"/>
<path d="M347.979 443.992C351.979 443.992 355.979 443.992 359.999 444.012C359.999 468.002 359.999 491.982 359.999 515.972C355.989 515.982 351.999 516.002 348.019 516.032C347.999 520.012 347.989 524.002 347.999 528.012C343.989 527.982 339.989 527.972 335.989 527.982C335.999 524.032 336.009 520.092 336.039 516.172C340.029 515.842 344.049 515.572 348.059 515.262C347.949 491.502 348.029 467.752 347.979 443.992Z" fill="#EDA73D"/>
<path d="M264.03 468.022C268.01 468.002 272 467.992 276 467.992C275.99 471.982 275.99 475.982 276 479.992C273.19 479.992 267.57 479.982 264.76 479.982C264.41 483.972 264.11 487.962 263.85 492.002C259.89 491.982 255.94 491.982 252 492.002C247.99 491.982 243.99 491.992 240 492.002C239.99 487.992 239.99 483.992 240 480.012C247.99 480.002 255.97 479.982 263.97 479.982C263.98 475.982 264 472.002 264.03 468.022Z" fill="#EDA73D"/>
<path d="M312.04 468.022C316.01 468.002 320 467.992 324 467.992C323.99 471.982 323.99 475.982 324 479.992C321.19 479.982 315.57 479.972 312.76 479.972C312.42 483.962 312.1 487.942 311.85 491.982C307.89 491.972 303.94 491.982 300 492.002C299.99 487.992 299.99 483.992 300 480.002C303.98 479.982 307.97 479.982 311.97 480.002C311.98 475.992 312 472.002 312.04 468.022Z" fill="#EDA73D"/>
<path d="M576 288.004C608 288.004 640 288.004 672 288.004C672 312.004 672 336.004 672 360.004C628 360.004 584 360.004 540 360.004C539.98 355.994 539.98 351.984 540 347.994C543.97 347.984 547.96 347.984 551.96 348.004C551.97 344.004 552 340.014 552.03 336.034C556.01 336.004 559.99 335.984 563.99 335.974C563.98 331.974 563.98 327.994 563.99 324.014C563.98 319.994 563.98 315.994 564.01 312.004C567.99 311.984 571.98 311.984 575.99 311.994C575.98 307.984 575.98 303.994 576 300.004C575.98 295.994 575.98 291.994 576 288.004Z" fill="#FFFAF8"/>
<path d="M72.0202 312.004C76.0002 311.994 79.9902 311.994 83.9902 312.004C180 312.004 276 312.004 372 312.004C372 315.984 372 319.974 372.02 323.974C375.99 323.984 379.97 324.014 383.96 324.044C383.98 328.004 384 331.984 384.04 335.964C388 335.984 391.98 336.004 395.96 336.044C395.97 340.014 395.99 343.994 396.02 347.994C404.01 347.994 411.99 347.984 419.99 348.024C419.98 352.004 419.98 356.004 420.01 360.004C388 359.994 356 360.004 323.99 360.004C319.99 359.994 315.99 359.994 312.01 360.004C304 359.984 296.01 359.994 288.02 360.004C288 355.994 287.98 351.994 287.97 348.004C267.99 348.004 248.02 348.014 228.05 348.004C228.01 351.994 227.99 355.994 227.97 360.004C219.97 359.984 211.99 359.994 204 360.004C199.99 359.994 195.99 359.994 192 360.004C144 360.004 95.9902 360.004 47.9902 360.004C48.0202 352.004 48.0102 344.004 48.0002 336.014C51.9902 335.994 55.9802 335.984 59.9802 335.984C59.9902 331.984 60.0002 328.004 60.0202 324.024C64.0002 324.004 67.9902 323.994 71.9802 323.984C71.9902 319.984 72.0002 315.994 72.0202 312.004Z" fill="#FFFAF8"/>
<path d="M551.89 300.004C559.92 300.004 567.95 299.994 576 300.004C575.98 303.994 575.98 307.984 575.99 311.994C571.98 311.984 567.99 311.984 564.01 312.004C559.99 311.994 555.98 312.004 552 312.024C551.98 316.004 551.99 319.994 552 323.994C555.98 323.984 559.98 323.994 563.99 324.014C563.98 327.994 563.98 331.974 563.99 335.974C559.99 335.984 556.01 336.004 552.03 336.034C552 340.014 551.97 344.004 551.96 348.004C547.96 347.984 543.97 347.984 540 347.994C535.98 347.994 531.98 347.994 527.99 348.014C527.99 344.004 527.99 340.014 528.02 336.034C532 336.004 535.99 335.984 540 335.984C539.99 327.984 539.97 319.994 539.99 312.004C542.85 312.034 548.57 312.074 551.42 312.094C551.59 308.064 551.74 304.014 551.89 300.004Z" fill="#FECE5F"/>
<path d="M480.01 336.013C484 335.993 487.99 335.993 492.01 336.003C491.99 339.993 491.98 343.993 491.99 348.003C487.97 347.993 483.98 347.993 479.99 348.003C479.99 343.993 479.99 339.993 480.01 336.013Z" fill="#FEC853"/>
<path d="M228.05 348.004C248.02 348.014 267.99 348.004 287.97 348.004C287.98 351.994 288 355.994 288.02 360.004C296.01 359.994 304 359.984 312.01 360.004C311.99 363.984 311.98 367.974 311.98 371.974C307.98 371.984 304 372.004 300.02 372.034C300 376.014 299.99 380.004 299.99 384.004C295.98 383.984 291.99 383.984 288.01 384.004C287.99 379.994 287.98 375.994 287.99 372.004C283.98 371.994 279.98 371.994 275.99 372.004C263.99 371.994 252 371.994 240.01 372.004C236 371.994 232 371.994 228.01 372.004C228 375.994 227.99 379.994 228 384.004C220 384.004 212.01 384.004 204.02 384.014C204 387.984 203.98 391.974 203.96 395.974C199.98 395.984 196.01 396.004 192.04 396.044C192.01 400.004 191.98 403.984 191.96 407.964C187.98 407.984 184 408.004 180.04 408.044C180.01 412.004 179.98 415.984 179.96 419.964C175.97 419.974 171.99 420.004 168.01 420.034C168.01 432.004 167.98 443.984 167.99 455.974C163.98 455.974 159.98 455.994 155.99 456.034C156 468.004 156.01 479.984 156 491.974C159.99 491.974 163.99 491.994 167.99 492.034C167.98 500.004 167.99 508.004 168 516.004C163.99 515.994 159.99 515.994 156 516.024C156 520.004 156 523.994 156 527.994C152 527.984 147.99 527.984 144 528.004C143.99 523.984 143.99 519.984 144 516.004C143.99 511.984 143.99 507.984 144 504.004C143.99 499.994 143.99 495.994 144 492.004C139.99 491.994 135.99 491.994 132 492.004C131.99 487.994 131.99 483.994 132 480.004C131.99 471.994 131.99 464.004 132 456.004C135.99 455.984 139.99 455.984 144 455.994C143.99 451.984 143.99 447.984 144 443.994C143.99 439.984 143.99 435.984 144 432.004C143.99 427.984 143.99 423.984 144 419.994C147.99 419.984 151.99 419.984 156 420.004C155.98 411.994 155.99 403.994 156.01 395.994C159.99 395.984 163.98 395.984 167.98 396.004C167.98 391.994 167.99 387.994 168 384.004C171.99 383.984 175.98 383.984 179.98 383.984C179.98 379.984 179.99 375.994 180.01 372.014C184 371.994 187.99 371.994 192 371.994C195.99 371.984 199.98 371.984 203.99 371.994C203.98 367.994 203.99 363.994 204 360.004C211.99 359.994 219.97 359.984 227.97 360.004C227.99 355.994 228.01 351.994 228.05 348.004Z" fill="#FFDB5D"/>
<path d="M348.36 407.953C352.23 407.963 356.11 407.973 360 407.993C363.99 407.983 367.99 407.993 372 408.003C371.99 415.993 372 423.993 372 431.993C371.99 435.983 371.99 439.973 372 443.993C375.99 443.983 379.99 443.993 384 444.013C383.99 451.993 384 460.003 384 468.003C384 479.993 384 491.993 384 504.003C379.99 503.993 375.99 503.993 372.01 504.013C371.99 508.003 371.99 511.993 372 516.013C371.98 523.983 371.99 531.983 371.99 539.983C367.99 539.983 364 540.003 360.02 540.033C360 544.003 359.99 547.993 359.99 551.993C355.99 551.993 352 551.993 348.02 552.023C348 555.993 347.98 559.983 347.98 563.983C343.98 563.983 339.99 563.993 336.02 564.023C336 567.993 335.98 571.983 335.98 575.983C331.98 575.983 327.99 575.993 324.02 576.023C324 579.993 323.99 583.993 323.99 587.993C311.99 587.993 300 588.003 288.02 588.013C288 591.993 287.99 595.993 287.99 600.003C267.99 600.003 248 600.003 228.01 600.003C227.99 595.993 227.98 592.003 227.98 588.023C223.98 588.003 219.99 587.993 216 588.003C212 587.983 208.01 587.973 204.03 587.983C204 583.983 203.98 579.993 203.97 576.023C199.97 576.003 195.99 575.993 192.01 575.993C192 572.003 192.01 568.023 192.02 564.063C196.01 564.023 200 564.003 204.01 564.013C211.99 563.993 219.97 564.003 227.97 563.993C227.99 567.983 228.01 571.993 228.05 576.003C248.02 575.983 267.99 576.003 287.97 576.003C287.98 571.993 288 568.003 288.02 564.013C296 563.993 303.98 563.993 311.97 563.983C311.98 559.983 312 555.993 312.04 552.023C316.01 552.003 319.99 551.993 323.99 552.003C327.98 551.983 331.98 551.973 335.99 551.983C335.98 547.973 335.99 543.983 336.01 540.003C339.99 539.983 343.98 539.983 347.98 539.993C347.98 535.983 347.98 531.983 348 528.013C347.99 524.003 348 520.013 348.02 516.033C352 516.003 355.99 515.983 360 515.973C360 491.983 360 468.003 360 444.013C355.98 443.993 351.98 443.993 347.98 443.993C347.97 439.993 347.96 435.993 347.98 432.013C347.98 428.003 348 424.003 348.06 420.013C348.13 415.983 348.23 411.963 348.36 407.953Z" fill="#FFDB5D"/>
<path d="M36.0002 360.004C39.9902 359.994 43.9902 359.994 47.9902 360.004C95.9902 360.004 144 360.004 192 360.004C191.99 363.994 191.99 367.984 192 371.994C187.99 371.994 184 371.994 180.01 372.014C176 372.004 172 371.994 168.01 372.014C168 375.994 168 379.994 168 384.004C160 384.004 152 384.004 144.01 384.004C144 387.994 144 391.994 144 396.004C139.99 395.994 136 396.004 132.01 396.014C132 400.004 132 404.004 132 408.014C131.99 411.994 131.99 415.994 132 420.004C127.99 419.994 124 419.994 120.01 420.004C84.0102 420.004 48.0102 419.994 12.0102 420.004C12.0002 415.994 11.9902 412.004 12.0002 408.024C15.9902 407.994 19.9902 407.984 23.9902 407.994C23.9902 399.984 24.0102 392.004 24.0002 384.014C27.9902 383.994 31.9902 383.984 35.9902 383.994C35.9902 375.984 36.0102 367.994 36.0002 360.004Z" fill="#FFFCFA"/>
<path d="M323.99 360.004C356 360.004 388 359.994 420.01 360.004C432 359.994 443.99 360.004 455.99 360.004C455.99 363.994 455.99 367.994 456.02 372.004C464 371.974 472 371.994 480 372.014C487.99 372.004 495.99 371.994 504 372.004C507.98 371.994 511.97 371.994 515.98 372.004C515.98 367.994 515.98 363.994 516.01 360.004C524 359.994 531.99 359.994 540 360.004C584 360.004 628 360.004 672 360.004C671.96 367.994 671.98 375.994 672.01 383.994C667.99 383.994 663.99 383.994 660.01 384.014C659.99 392.004 659.98 400.004 660 408.004C564 408.004 468 408.004 372 408.004C367.99 407.994 363.99 407.984 360 407.994C359.98 403.994 359.97 400.014 359.97 396.044C355.98 396.004 352 395.984 348.03 395.964C348 391.974 347.98 387.994 347.97 384.024C343.97 384.004 339.98 383.994 336 384.004C335.98 380.004 335.98 376.014 335.99 372.034C331.99 372.004 328 371.984 324.02 371.964C324 367.974 323.99 363.984 323.99 360.004Z" fill="#FFFCFA"/>
<path d="M312.01 360.004C315.99 359.994 319.99 359.994 323.99 360.004C323.99 363.984 324 367.974 324.02 371.964C328 371.984 331.99 372.004 335.99 372.034C335.98 376.014 335.98 380.004 336 384.004C336.01 387.854 336.03 391.724 336.07 395.604C332.03 395.724 328.01 395.834 323.99 395.934C319.98 395.964 315.99 395.994 312.01 396.024C311.99 392.014 311.98 388.014 311.99 384.014C307.98 384.004 303.98 383.994 299.99 384.004C299.99 380.004 300 376.014 300.02 372.034C304 372.004 307.98 371.984 311.98 371.974C311.98 367.974 311.99 363.984 312.01 360.004Z" fill="#FFEB81"/>
<path d="M335.98 408.013C340.1 407.983 344.22 407.963 348.36 407.953C348.23 411.963 348.13 415.983 348.06 420.013C344.03 419.993 340.021 419.983 336.021 419.983C335.991 415.983 335.98 411.993 335.98 408.013Z" fill="#FFEB81"/>
<path d="M503.999 360.004C507.979 359.994 511.989 359.994 516.009 360.004C515.979 363.994 515.979 367.994 515.979 372.004C511.969 371.994 507.979 371.994 503.999 372.004C503.979 367.994 503.979 363.994 503.999 360.004Z" fill="#FFF0D2"/>
<path d="M228.01 372.004C232 371.994 236 371.994 240.01 372.004C239.99 375.994 239.98 379.984 239.99 383.994C235.98 383.984 231.98 383.984 228 384.004C227.99 379.994 228 375.994 228.01 372.004Z" fill="#FFDE7A"/>
<path d="M240.01 372.004C252 371.994 263.99 371.994 275.99 372.004C275.99 375.994 276 379.994 276.01 384.004C280 383.994 284 383.994 288.01 384.004C291.99 383.984 295.98 383.984 299.99 384.004C299.99 387.994 300 392.004 300.02 396.024C304 396.014 308 396.024 312.01 396.024C315.99 395.994 319.98 395.964 323.99 395.934C323.98 399.944 323.99 403.974 324.01 408.004C324 411.954 324.01 415.924 324.02 419.904C327.87 420.024 331.74 420.174 335.61 420.334C335.77 424.194 335.93 428.074 336.11 431.964C340.05 431.964 344.01 431.984 347.98 432.014C347.96 435.994 347.97 439.994 347.98 443.994C348.03 467.754 347.95 491.504 348.06 515.264C344.05 515.574 340.03 515.844 336.04 516.174C336.01 520.094 336 524.034 335.99 527.984C339.99 527.974 343.99 527.984 348 528.014C347.98 531.984 347.98 535.984 347.98 539.994C343.98 539.984 339.99 539.984 336.01 540.004C332 539.994 328 539.994 324.01 540.024C324 544.004 323.99 547.994 323.99 552.004C319.99 551.994 316.01 552.004 312.04 552.024C312 555.994 311.98 559.984 311.97 563.984C303.98 563.994 296 563.994 288.02 564.014C288 568.004 287.98 571.994 287.97 576.004C267.99 576.004 248.02 575.984 228.05 576.004C228.01 571.994 227.99 567.984 227.97 563.994C219.97 564.004 211.99 563.994 204.01 564.014C203.99 560.004 203.98 556.014 203.97 552.044C199.99 552.004 196.01 551.974 192.03 551.964C192.01 547.974 191.98 543.994 191.97 540.024C187.94 540.004 183.92 539.994 179.91 539.994C179.98 535.994 180.06 532.004 180.14 528.034C176.08 528.004 172.04 527.984 168 527.974C168 523.974 168 519.974 168 516.004C167.99 508.004 167.98 500.004 167.99 492.034C163.99 491.994 159.99 491.974 156 491.974C156.01 479.984 156 468.004 155.99 456.034C159.98 455.994 163.98 455.974 167.99 455.974C167.98 443.984 168.01 432.004 168.01 420.034C171.99 420.004 175.97 419.974 179.96 419.964C179.98 415.984 180.01 412.004 180.04 408.044C184 408.004 187.98 407.984 191.96 407.964C191.98 403.984 192.01 400.004 192.04 396.044C196.01 396.004 199.98 395.984 203.96 395.974C203.98 391.974 204 387.984 204.02 384.014C212.01 384.004 220 384.004 228 384.004C231.98 383.984 235.98 383.984 239.99 383.994C239.98 379.984 239.99 375.994 240.01 372.004ZM240 420.004C239.99 423.994 239.99 427.994 240 432.014C239.99 435.994 239.99 439.984 240 443.994C243.99 443.984 247.99 443.994 252 444.014C251.99 448.004 251.99 452.004 252 456.014C244 455.974 235.99 455.974 228 456.014C228.01 448.004 227.99 439.994 227.99 431.994C219.99 432.024 211.99 432.014 204 431.984C204 443.984 204 455.984 204 467.994C203.99 471.984 203.99 475.994 204 480.004C207.99 479.984 211.99 479.984 216 480.004C215.99 483.984 215.99 487.984 216.01 491.994C215.99 495.984 215.99 499.994 216 504.004C219.99 503.984 223.99 503.984 228 504.004C227.99 511.994 228.01 519.994 228 528.004C227.99 531.994 227.99 535.994 228 540.014C236 539.984 243.99 539.984 252 540.014C251.99 535.994 251.99 531.994 252 528.004C251.98 515.994 252 503.994 252 492.004C255.94 491.984 259.89 491.984 263.85 492.004C264.11 487.964 264.41 483.974 264.76 479.984C267.57 479.984 273.19 479.994 276 479.994C275.99 475.984 275.99 471.984 276 467.994C275.97 460.004 275.98 452.004 276.01 444.014C272 443.994 268 443.984 264 443.994C264.01 435.994 263.99 427.984 263.99 420.004C259.99 419.994 255.99 419.994 252.01 420.004C248 419.994 243.99 419.994 240 420.004ZM288 443.994C288 455.994 288 468.004 288 480.014C291.99 479.994 295.99 479.994 300 480.004C299.99 483.994 299.99 487.994 300 492.004C303.94 491.984 307.89 491.974 311.85 491.984C312.1 487.944 312.42 483.964 312.76 479.974C315.57 479.974 321.19 479.984 324 479.994C323.99 475.984 323.99 471.984 324 467.994C323.99 463.994 323.99 459.994 324 456.024C319.99 455.994 316 455.984 312.02 455.994C312 451.984 311.99 447.984 311.99 444.004C303.99 444.014 295.99 444.004 288 443.994Z" fill="#FCC251"/>
<path d="M336 384.004C339.98 383.994 343.97 384.004 347.97 384.024C347.98 387.994 348 391.974 348.03 395.964C352 395.984 355.98 396.004 359.97 396.044C359.97 400.014 359.98 403.994 360 407.994C356.11 407.974 352.23 407.964 348.36 407.954C348.12 405.324 347.62 400.064 347.37 397.434C343.68 396.434 339.8 396.214 336.07 395.604C336.03 391.724 336.01 387.854 336 384.004Z" fill="#FFE97E"/>
<path d="M179.91 539.992C183.92 539.992 187.94 540.002 191.97 540.022C191.98 543.992 192.01 547.972 192.03 551.962C196.01 551.972 199.99 552.002 203.97 552.042C203.98 556.012 203.99 560.002 204.01 564.012C200 564.002 196.01 564.022 192.02 564.062C191.89 560.142 191.75 556.252 191.63 552.372C187.75 552.202 183.88 552.052 180.03 551.922C180 554.752 179.95 560.422 179.93 563.252C183.95 563.522 187.97 563.772 192.02 564.062C192.01 568.022 192 572.002 192.01 575.992C188 575.982 184 575.982 180.01 576.002C179.99 572.002 179.98 568.022 179.98 564.062C175.98 564.042 171.99 564.032 168 564.032C167.99 560.012 167.99 556.002 167.99 552.012C170.84 552.032 176.55 552.072 179.41 552.092C179.6 548.052 179.76 544.002 179.91 539.992Z" fill="#FFE97E"/>
<path d="M132.01 396.014C136 396.004 139.99 395.994 144 396.004C143.99 399.984 143.98 403.984 143.98 407.984C139.98 407.984 135.99 407.994 132 408.014C132 404.004 132 400.004 132.01 396.014Z" fill="#FEDC90"/>
<path d="M323.99 395.935C328.01 395.835 332.03 395.725 336.07 395.605C336.03 399.725 336 403.866 335.98 408.016C331.98 408.006 327.99 407.995 324.01 408.005C323.99 403.975 323.98 399.945 323.99 395.935Z" fill="#F5C358"/>
<path d="M372.001 408.004C468.001 408.004 564.001 408.004 660.001 408.004C659.981 411.984 659.981 415.984 660.001 419.984C655.981 419.984 651.991 419.994 648.001 420.014C648.001 432.004 647.991 443.994 647.991 455.984C643.981 455.984 639.991 455.994 636.021 456.024C635.991 460.004 635.981 463.994 635.991 468.004C551.991 468.004 468.001 468.004 384.001 468.004C384.001 460.004 383.991 451.994 384.001 444.014C383.981 440.004 383.981 436.004 384.001 432.014C379.991 432.004 375.991 431.994 372.001 431.994C372.001 423.994 371.991 415.994 372.001 408.004Z" fill="#FEFDFB"/>
<path d="M12.01 420.004C48.01 419.994 84.01 420.004 120.01 420.004C120 423.994 119.99 427.994 120 432.004C119.99 435.984 119.99 439.964 119.99 443.974C115.99 443.974 111.99 444.004 108 444.034C108 448.014 108 451.994 108.01 455.994C108 459.984 107.99 463.994 108 468.014C107.99 471.994 107.99 475.994 108 480.004C107.99 483.984 107.99 487.984 108 492.004C107.99 495.984 107.99 499.984 108 504.004C107.99 507.984 107.99 511.984 108 516.004C76.01 516.004 44.02 516.004 12.03 516.004C12.01 511.994 11.99 508.004 11.98 504.024C7.98 503.994 3.99 503.984 0 503.994C0 479.994 0 456.004 0 432.014C3.99 431.994 7.99 431.984 11.98 431.994C11.99 427.984 12 423.984 12.01 420.004ZM23.92 468.004C24.07 471.994 24.24 476.004 24.41 480.024C26.93 479.864 31.98 479.554 34.51 479.404C38.23 477.514 34.74 471.034 36.52 468.024C32.32 468.004 28.12 467.994 23.92 468.004ZM11.99 479.994C12.01 484.154 12.03 488.314 12.06 492.494C15.94 491.924 19.91 491.794 23.75 490.914C23.92 488.184 24.27 482.744 24.44 480.014C20.29 479.994 16.14 479.994 11.99 479.994ZM36.01 480.004C36 483.984 35.99 487.984 35.99 491.984C31.99 491.984 27.99 491.994 24 492.014C24 496.004 24 500.004 24 504.014C32 503.974 40 503.974 48.01 504.024C47.97 496.014 47.98 487.994 48.01 480.004C44.01 479.994 40.01 479.994 36.01 480.004Z" fill="#FEFDFC"/>
<path d="M240 420.004C243.99 419.994 248 419.994 252.01 420.004C251.99 423.984 251.98 427.984 251.98 431.984C247.98 431.984 243.99 431.994 240 432.014C239.99 427.994 239.99 423.994 240 420.004Z" fill="#A26E3A"/>
<path d="M120 432.004C127.99 432.004 135.99 431.994 144 432.004C143.99 435.984 143.99 439.984 144 443.994C139.99 443.994 135.99 443.994 132 444.014C132 448.004 132 452.004 132 456.004C131.99 464.004 131.99 471.994 132 480.004C123.99 479.994 116 479.994 108 480.004C107.99 475.994 107.99 471.994 108 468.014C111.99 467.994 115.99 467.984 120 467.984C119.99 463.984 119.99 459.994 120 456.014C115.99 455.994 112 455.994 108.01 455.994C108 451.994 108 448.014 108 444.034C111.99 444.004 115.99 443.974 119.99 443.974C119.99 439.964 119.99 435.984 120 432.004Z" fill="#FECE5F"/>
<path d="M372 431.996C375.99 431.996 379.99 432.006 384 432.016C383.98 436.006 383.98 440.006 384 444.016C379.99 443.996 375.99 443.986 372 443.996C371.99 439.976 371.99 435.986 372 431.996Z" fill="#FFE798"/>
<path d="M132 444.016C135.99 443.996 139.99 443.996 144 443.996C143.99 447.986 143.99 451.986 144 455.996C139.99 455.986 135.99 455.986 132 456.006C132 452.006 132 448.006 132 444.016Z" fill="#FECE56"/>
<path d="M288 443.996C295.99 444.006 303.99 444.016 311.99 444.006C311.99 447.986 312 451.986 312.02 455.996C316 455.986 319.99 455.996 324 456.026C323.99 459.996 323.99 463.996 324 467.996C320 467.996 316.01 468.006 312.04 468.026C312 472.006 311.98 475.996 311.97 480.006C307.97 479.986 303.98 479.986 300 480.006C295.99 479.996 291.99 479.996 288 480.016C288 468.006 288 455.996 288 443.996Z" fill="#8F5B33"/>
<path d="M204 467.996C207.99 467.996 211.99 467.996 215.99 468.026C215.99 471.996 215.99 475.996 216 480.006C211.99 479.986 207.99 479.986 204 480.006C203.99 475.996 203.99 471.986 204 467.996Z" fill="#F3B043"/>
<path d="M384 468.004C468 468.004 551.99 468.004 635.99 468.004C635.98 471.984 635.98 475.984 636 479.984C631.99 479.984 627.99 479.994 624.01 480.014C623.99 487.994 623.98 495.994 624 503.994C619.99 503.984 615.99 503.994 612.02 504.024C611.99 507.994 611.98 511.984 611.98 515.984C607.98 515.984 603.99 515.994 600.01 516.014C599.99 523.994 599.98 531.994 600 539.994C595.99 539.984 591.99 539.994 588.02 540.024C587.99 544.004 587.98 547.994 587.99 552.004C543.99 552.004 500 552.004 456.01 552.004C455.99 547.984 455.98 543.984 455.99 539.994C447.98 540.004 440 540.034 432.01 539.994C431.99 543.984 431.98 547.984 431.99 552.004C407.98 552.004 383.99 552.004 359.99 551.994C359.99 547.994 360 544.004 360.02 540.034C364 540.004 367.99 539.984 371.99 539.984C371.99 531.984 371.98 523.984 372 516.014C375.99 515.984 379.99 515.984 384 515.994C383.99 511.984 383.99 507.984 384 504.004C384 491.994 384 479.994 384 468.004Z" fill="#FFFEFD"/>
<path d="M108 492.004C116 491.994 123.99 491.994 132 492.004C135.99 491.994 139.99 491.994 144 492.004C143.99 495.994 143.99 499.994 144 504.004C131.99 503.994 120 504.004 108 504.004C107.99 499.984 107.99 495.984 108 492.004Z" fill="#FECF5F"/>
<path d="M108 504.004C120 504.004 131.99 503.994 144 504.004C143.99 507.984 143.99 511.984 144 516.004C135.99 515.994 127.99 515.994 120 516.004C115.99 515.994 111.99 515.994 108 516.004C107.99 511.984 107.99 507.984 108 504.004Z" fill="#FDC352"/>
<path d="M372.011 504.013C375.991 503.993 379.991 503.993 384.001 504.003C383.991 507.983 383.991 511.983 384.001 515.993C379.991 515.983 375.991 515.983 372.001 516.013C371.991 511.993 371.991 508.003 372.011 504.013Z" fill="#FFF1C1"/>
<path d="M156 516.026C159.99 515.996 163.99 515.996 168 516.006C168 519.976 168 523.976 168 527.976C172.04 527.986 176.08 528.006 180.14 528.036C180.06 532.006 179.98 535.996 179.91 539.996C179.76 544.006 179.6 548.056 179.41 552.096C176.55 552.076 170.84 552.036 167.99 552.016C163.98 551.996 159.99 551.996 156 552.016C155.99 548.026 155.99 544.056 156 540.096C155.99 536.046 155.99 532.016 156 527.996C156 523.996 156 520.006 156 516.026Z" fill="#FFEB82"/>
<path d="M156 576.003C159.99 575.983 163.99 575.983 168 576.003C167.99 579.983 167.99 583.993 168 588.003C163.99 587.993 159.99 587.983 156 588.003C156 583.983 156 579.983 156 576.003Z" fill="#FEE1A7"/>
</svg>
