<svg width="672" height="588" viewBox="0 0 672 588" fill="none" xmlns="http://www.w3.org/2000/svg">
<path d="M636.003 144.004C639.983 144.004 643.983 144.004 647.993 144.014C647.983 148.004 647.983 152.004 648.003 156.004C643.983 155.994 639.983 155.994 636.003 156.004C635.983 151.994 635.983 147.994 636.003 144.004Z" fill="white"/>
<path d="M372.014 0.00444444C400.004 0.00444444 427.994 -0.00555556 455.994 0.00444444C455.984 4.00444 455.994 7.99444 456.014 12.0044C468.004 12.0044 479.994 12.0044 491.994 12.0144C491.984 16.0044 491.994 20.0044 492.014 24.0044C500.004 23.9844 508.004 24.0144 516.004 24.0044C515.994 28.0044 515.994 32.0044 516.004 36.0044C452.004 36.0044 388.004 36.0044 324.004 36.0044C323.994 32.0044 323.994 28.0044 324.004 24.0044C331.994 24.0244 339.994 23.9844 347.994 24.0044C347.994 20.0044 347.994 16.0044 348.014 12.0044C355.994 12.0244 363.994 11.9944 371.994 12.0044C371.994 8.00444 371.994 4.00444 372.014 0.00444444Z" fill="#FFEFE7"/>
<path d="M300.014 36.0136C308.004 35.9936 316.004 36.0036 324.004 36.0036C388.004 36.0036 452.004 36.0036 516.004 36.0036C523.984 35.9936 531.994 35.9936 539.994 36.0036C539.984 39.9936 539.994 43.9936 540.014 47.9936C543.994 47.9936 547.994 48.0036 552.004 48.0136C551.984 52.0036 551.994 56.0036 552.004 60.0036C464.004 60.0036 376.004 60.0036 288.004 60.0036C287.994 56.0036 287.994 52.0036 288.004 48.0236C291.994 48.0036 295.984 47.9936 299.994 47.9936C299.994 43.9936 299.994 39.9936 300.014 36.0136Z" fill="#FFF1E8"/>
<path d="M276.014 60.0044C280.004 60.0044 283.994 60.0044 288.004 60.0044C376.004 60.0044 464.004 60.0044 552.004 60.0044C555.984 59.9944 559.974 60.0044 563.994 60.0044C563.984 64.0044 563.994 67.9944 564.014 72.0044C571.994 71.9844 580.004 72.0144 588.004 72.0044C587.994 76.0044 587.994 80.0044 588.004 84.0044C480.004 84.0044 372.004 84.0044 264.004 84.0044C263.994 80.0044 263.994 76.0044 264.004 72.0244C267.994 72.0044 271.984 71.9944 275.994 71.9944C275.994 67.9944 275.994 63.9944 276.014 60.0044Z" fill="#FFF2EA"/>
<path d="M252.014 84.0036C256.004 84.0036 259.994 84.0036 264.004 84.0036C372.004 84.0036 480.004 84.0036 588.004 84.0036C591.984 83.9936 595.984 83.9936 600.004 84.0036C599.964 91.9936 600.014 99.9936 600.004 107.994C603.984 107.994 607.984 108.004 612.004 108.014C611.984 112.004 611.984 116.004 612.004 120.004C484.004 120.004 356.004 120.004 228.004 120.004C227.994 116.004 227.994 112.004 228.004 108.024C231.994 108.004 235.984 107.994 239.994 107.994C239.994 103.994 240.004 100.004 240.014 96.0236C244.004 96.0036 247.994 95.9936 251.994 95.9936C251.994 91.9936 251.994 87.9936 252.014 84.0036Z" fill="#FFF3EC"/>
<path d="M216.004 120.004C219.994 119.994 223.994 119.994 228.004 120.004C356.004 120.004 484.004 120.004 612.004 120.004C615.984 119.994 619.984 119.994 623.994 120.004C623.984 124.004 623.984 128.004 624.004 132.004C623.994 135.994 623.994 139.994 624.014 143.994C627.994 143.984 631.984 143.994 636.004 144.004C635.984 147.994 635.984 151.994 636.004 156.004C492.004 156.004 348.004 156.004 204.004 156.004C203.994 152.004 203.994 148.004 204.004 144.014C207.994 144.004 211.994 143.994 216.004 143.994C215.974 135.994 216.014 127.994 216.004 120.004Z" fill="#FFF4EE"/>
<path d="M192.014 156.004C196.004 155.994 200.004 155.994 204.004 156.004C348.004 156.004 492.004 156.004 636.004 156.004C639.984 155.994 643.984 155.994 648.004 156.004C647.984 159.994 647.984 163.994 648.004 168.004C647.984 171.994 647.994 175.984 648.014 179.994C651.994 179.994 655.984 180.004 660.004 180.014C659.984 184.004 659.984 188.004 659.994 192.014C656.034 191.984 652.094 191.974 648.164 191.964C647.874 187.934 647.664 183.954 647.384 179.954C635.594 179.984 623.814 180.014 612.044 180.014C612.004 184.004 611.984 187.994 611.974 192.004C607.974 191.994 603.994 191.994 600.034 192.004C599.994 187.994 599.984 183.994 599.974 180.004C595.984 180.004 591.994 180.004 588.034 180.004C587.994 184.004 587.984 187.994 587.984 192.004C571.994 191.994 556.004 192.004 540.024 192.004C539.994 187.994 539.984 183.994 539.974 180.004C535.984 180.004 531.994 180.004 528.034 180.004C527.994 183.994 527.984 187.994 527.984 191.994C503.664 192.044 479.354 192.114 455.044 191.634C447.364 191.764 439.694 191.914 432.024 192.044C431.994 188.024 431.984 184.014 431.984 180.004C387.984 179.994 344.004 180.004 300.014 180.004C284.004 180.004 268.014 179.994 252.014 180.004C252.004 183.994 251.994 187.994 251.994 192.004C243.994 191.994 236.004 192.004 228.014 192.004C228.004 195.994 227.994 199.994 227.994 204.004C219.994 203.994 211.994 204.004 204.004 204.004C192.004 203.994 180.004 204.004 168.004 204.004C167.994 196.004 167.994 188.004 168.004 180.014C171.994 180.004 175.984 179.994 179.994 179.994C179.994 175.994 180.004 172.004 180.024 168.014C184.004 168.004 187.994 167.994 191.994 167.994C191.994 163.984 192.004 159.994 192.014 156.004Z" fill="#FFF6F0"/>
<path d="M252.014 180.004C268.014 179.994 284.004 180.004 300.014 180.004C299.994 183.994 299.984 187.994 299.994 192.004C291.984 192.004 284.004 192.004 276.014 192.004C271.994 191.994 267.994 191.994 264.004 192.004C259.994 191.994 255.994 191.994 251.994 192.004C251.994 187.994 252.004 183.994 252.014 180.004Z" fill="#FFD372"/>
<path d="M264.005 576.003C267.995 575.983 271.995 575.983 276.015 576.003C288.005 575.983 299.995 576.013 311.995 576.003C311.985 579.983 311.995 583.983 312.015 588.003C296.005 588.003 280.005 588.003 264.005 588.003C263.995 583.983 263.995 579.983 264.005 576.003Z" fill="#FFD372"/>
<path d="M300.014 180.004C344.004 180.004 387.984 179.994 431.984 180.004C431.984 184.014 431.994 188.024 432.024 192.044C439.694 191.914 447.364 191.764 455.044 191.634C455.414 195.734 455.804 199.854 456.184 203.974C464.104 203.984 472.044 204.004 479.984 204.024C479.984 207.994 480.004 211.984 480.034 215.974C484.004 215.984 487.984 216.004 491.974 216.034C491.974 220.014 491.994 224.004 492.034 227.994C496.004 227.994 499.994 227.994 504.004 228.004C503.984 231.994 503.984 235.994 504.004 240.004C495.994 239.994 487.994 239.994 479.994 240.004C479.984 243.994 479.984 248.004 480.004 252.014C476.004 251.994 472.014 251.984 468.034 251.984C468.004 247.984 467.984 244.004 467.974 240.024C459.984 240.004 452.004 239.994 444.024 239.994C443.994 235.994 443.984 231.994 443.984 228.014C439.974 228.004 435.984 228.004 431.994 228.004C427.984 227.994 423.994 227.994 420.014 228.004C419.994 223.994 419.984 219.994 419.994 216.014C411.984 215.994 403.994 215.994 395.994 216.004C372.004 215.994 348.004 216.004 324.014 216.004C320.004 215.994 316.004 215.994 312.014 216.004C312.004 219.994 311.994 223.994 311.994 228.004C303.994 227.994 296.014 228.004 288.024 228.014C288.004 231.994 287.984 235.994 287.984 239.994C279.984 239.994 272.004 240.004 264.024 240.014C263.994 243.994 263.984 247.984 263.974 251.974C259.984 251.984 256.004 252.004 252.034 252.034C252.004 256.004 251.984 259.984 251.974 263.974C247.984 263.984 244.004 264.004 240.034 264.034C240.004 268.004 239.984 271.984 239.974 275.974C235.984 275.984 231.994 276.004 228.024 276.034C228.004 284.004 227.994 291.994 227.994 299.984C223.994 299.994 220.004 300.004 216.014 300.024C216.004 308.004 215.994 315.994 215.994 323.984C211.994 323.984 207.994 324.004 204.014 324.024C203.994 352.014 204.004 380.004 204.004 407.994C200.004 407.994 196.014 408.004 192.034 408.024C192.004 412.004 191.994 415.994 191.974 419.994C183.984 419.984 175.994 420.004 168.004 420.014C167.994 423.994 167.994 427.994 168.004 432.004C163.994 431.994 159.994 431.994 156.004 432.004C155.994 427.994 155.994 423.994 156.004 420.004C156.004 411.994 156.004 403.994 156.004 396.004C155.994 391.994 155.994 387.994 156.004 384.004C155.994 379.994 155.994 375.994 156.004 372.004C156.004 363.994 156.004 355.994 156.004 348.004C155.994 343.994 155.994 339.994 156.004 336.004C159.994 335.994 163.994 335.994 168.004 336.004C167.994 323.994 168.004 311.994 168.004 300.004C171.994 299.994 175.984 299.994 179.994 300.004C179.984 295.994 179.994 291.994 180.004 288.004C180.004 284.004 180.004 280.014 180.024 276.034C184.004 276.004 187.994 275.984 191.984 275.974C191.984 271.974 191.994 267.984 192.014 264.004C195.994 263.994 199.994 263.994 203.994 264.004C203.994 259.994 203.994 255.994 204.004 252.004C203.994 247.994 203.994 243.994 204.014 240.004C207.984 239.994 211.974 239.984 215.974 239.994C215.984 236.004 216.004 232.014 216.034 228.034C220.014 228.004 223.994 227.984 227.984 227.974C227.984 223.974 227.994 219.984 228.014 216.004C235.994 216.004 243.994 216.004 251.994 216.004C251.994 211.994 251.994 207.994 252.014 204.004C255.994 203.994 259.994 203.994 264.004 204.004C267.994 203.994 271.984 203.994 275.994 204.004C275.984 199.994 275.994 195.994 276.014 192.004C284.004 192.004 291.984 192.004 299.994 192.004C299.984 187.994 299.994 183.994 300.014 180.004Z" fill="#FFDA5D"/>
<path d="M552.004 311.996C555.984 311.996 559.984 312.006 563.994 312.026C563.984 324.016 564.004 336.006 564.004 347.996C563.984 351.986 563.994 355.986 564.014 359.996C567.994 359.986 571.994 359.996 576.014 360.006C575.984 375.996 576.014 391.986 575.994 407.986C571.984 407.986 567.994 408.006 564.024 408.026C563.964 424.006 564.034 439.996 563.994 455.986C559.984 455.986 555.994 456.006 552.014 456.026C551.994 460.006 551.994 464.006 552.004 468.006C551.984 471.986 551.984 475.986 551.994 479.996C547.984 479.986 543.984 479.996 540.004 480.016C540.014 487.996 539.984 495.996 540.004 503.996C535.994 503.986 531.994 503.996 528.014 504.016C527.994 507.996 527.984 511.986 527.984 515.986C523.984 515.986 519.994 515.996 516.024 516.026C515.994 519.996 515.984 523.986 515.984 527.986C511.984 527.986 507.994 527.996 504.024 528.026C503.994 531.996 503.984 535.986 503.984 539.986C499.984 539.986 495.994 539.996 492.024 540.026C491.994 543.996 491.984 547.986 491.984 551.986C487.984 551.986 483.994 551.996 480.014 552.016C479.994 555.996 479.984 559.996 479.994 564.006C471.984 563.976 464.004 564.016 456.014 564.006C455.994 567.996 455.984 571.986 455.994 576.006C443.994 575.996 432.004 575.996 420.014 576.006C419.994 579.996 419.984 583.986 419.994 588.006C383.994 588.006 348.004 588.006 312.014 588.006C311.994 583.986 311.984 579.986 311.994 576.006C299.994 576.016 288.004 575.986 276.014 576.006C275.994 571.996 275.984 567.996 275.994 564.006C267.984 563.986 260.004 563.996 252.014 564.006C251.994 559.986 251.984 555.996 251.984 552.006C247.984 551.996 243.994 551.996 240.014 552.006C239.994 547.996 239.984 544.016 239.984 540.036C235.994 540.006 232.004 539.986 228.034 539.976C228.004 535.976 227.984 531.986 227.974 528.016C223.974 527.996 219.984 527.996 216.004 528.006C215.994 523.986 215.994 519.986 216.004 516.006C219.984 515.986 223.974 515.986 227.974 515.996C227.984 511.986 228.004 507.986 228.024 504.006C232.014 503.996 236.004 503.996 240.014 504.006C243.994 503.996 247.984 503.996 251.974 504.006C251.984 507.986 252.004 511.976 252.034 515.976C256.004 515.986 259.984 516.006 263.974 516.036C263.984 520.006 263.994 523.996 264.024 527.996C272.004 527.996 279.984 527.996 287.984 528.016C287.984 531.996 288.004 535.986 288.034 539.996C300.014 539.986 311.994 540.016 323.984 540.016C323.984 543.996 324.004 547.986 324.034 551.996C348.014 552.006 372.004 552.016 395.994 552.006C399.984 551.986 403.984 551.986 407.994 552.006C407.984 547.986 407.994 543.996 408.014 540.006C415.994 539.996 423.984 539.986 431.994 539.996C435.974 539.986 439.974 539.986 443.984 539.996C443.984 535.996 443.994 531.996 444.024 528.016C452.004 528.006 459.984 527.986 467.974 527.986C467.984 523.996 468.004 520.006 468.034 516.036C472.004 516.006 475.974 515.976 479.974 515.976C479.974 511.986 480.004 508.006 480.034 504.036C484.004 504.006 487.974 503.986 491.974 503.976C491.974 499.976 492.004 496.006 492.034 492.036C496.004 492.006 499.994 491.986 503.994 491.986C503.994 483.996 503.994 476.006 504.024 468.026C507.994 468.006 511.984 467.986 515.994 467.986C515.994 459.996 515.994 452.006 516.014 444.026C519.994 444.006 523.994 443.986 527.994 443.986C528.004 407.986 528.004 371.996 528.004 336.016C531.984 335.996 535.974 335.986 539.974 335.986C539.984 331.996 540.004 328.016 540.034 324.036C544.004 324.006 547.994 323.986 551.994 323.976C551.984 319.976 551.984 315.976 552.004 311.996Z" fill="#FFDA5D"/>
<path d="M528.033 180.007C531.993 180.007 535.983 180.007 539.973 180.007C539.983 183.997 539.993 187.997 540.023 192.007C556.003 192.007 571.993 191.997 587.983 192.007C587.983 187.997 587.993 184.007 588.033 180.007C591.993 180.007 595.983 180.007 599.973 180.007C599.983 183.997 599.993 187.997 600.033 192.007C603.993 191.997 607.973 191.997 611.973 192.007C611.983 187.997 612.003 184.007 612.043 180.017C623.813 180.017 635.593 179.987 647.383 179.957C647.663 183.957 647.873 187.937 648.163 191.967C652.093 191.977 656.033 191.987 659.993 192.017C659.983 200.007 659.993 207.997 660.013 215.997C663.993 215.997 667.983 216.007 672.003 216.017C671.983 220.007 671.983 224.007 672.003 228.007C616.003 228.007 560.003 228.007 504.003 228.007C499.993 227.997 496.003 227.997 492.033 227.997C491.993 224.007 491.973 220.017 491.973 216.037C487.983 216.007 484.003 215.987 480.033 215.977C480.003 211.987 479.983 207.997 479.983 204.027C472.043 204.007 464.103 203.987 456.183 203.977C455.803 199.857 455.413 195.737 455.043 191.637C479.353 192.117 503.663 192.047 527.983 191.997C527.983 187.997 527.993 183.997 528.033 180.007Z" fill="#FFF7F2"/>
<path d="M228.014 192.004C236.004 192.004 243.994 191.994 251.994 192.004C255.994 191.994 259.994 191.994 264.004 192.004C263.994 195.994 263.994 199.994 264.004 204.004C259.994 203.994 255.994 203.994 252.014 204.004C243.994 203.994 235.994 204.004 227.994 204.004C227.994 199.994 228.004 195.994 228.014 192.004Z" fill="#FFC14D"/>
<path d="M264.004 192.004C267.994 191.994 271.994 191.994 276.014 192.004C275.994 195.994 275.984 199.994 275.994 204.004C271.984 203.994 267.994 203.994 264.004 204.004C263.994 199.994 263.994 195.994 264.004 192.004Z" fill="#FFD35A"/>
<path d="M156.014 204.004C160.004 203.994 164.004 203.994 168.004 204.004C180.004 204.004 192.004 203.994 204.004 204.004C203.994 207.994 203.994 211.994 204.004 216.004C200.004 216.004 196.014 216.004 192.034 216.014C192.004 219.994 191.984 223.984 191.974 227.974C187.984 227.984 183.994 228.004 180.024 228.034C180.004 232.014 179.994 236.004 179.994 240.004C175.994 239.994 172.004 239.994 168.014 240.004C168.004 243.994 167.994 247.994 167.994 252.004C163.994 251.994 160.004 251.994 156.014 252.004C156.004 255.994 155.994 259.994 155.994 264.004C151.994 263.994 147.994 263.994 144.004 264.004C144.004 267.994 144.004 271.994 144.004 276.004C139.994 275.994 135.994 275.994 132.004 276.004C124.004 275.994 116.004 276.004 108.004 276.004C107.994 271.994 107.994 268.004 108.004 264.024C111.994 264.004 115.994 263.994 119.994 263.994C119.994 259.994 120.004 256.004 120.014 252.014C124.004 252.004 128.004 251.994 132.004 251.994C131.974 243.994 132.014 236.004 132.004 228.014C135.994 227.994 139.984 227.994 143.994 227.994C143.994 223.994 144.004 220.004 144.024 216.024C148.004 216.004 151.994 215.994 155.994 215.994C155.994 211.984 156.004 207.994 156.014 204.004Z" fill="#FFF8F4"/>
<path d="M204.004 204.004C211.994 204.004 219.994 203.994 227.994 204.004C235.994 204.004 243.994 203.994 252.014 204.004C251.994 207.994 251.994 211.994 251.994 216.004C243.994 216.004 235.994 216.004 228.014 216.004C220.004 216.004 212.004 216.004 204.004 216.004C203.994 211.994 203.994 207.994 204.004 204.004Z" fill="#FFBF48"/>
<path d="M168.013 240.004C172.003 239.994 175.993 239.994 179.993 240.004C187.993 240.004 195.993 239.994 204.013 240.004C203.993 243.994 203.993 247.994 204.003 252.004C191.993 251.994 179.993 252.004 167.993 252.004C167.993 247.994 168.003 243.994 168.013 240.004Z" fill="#FFBF48"/>
<path d="M132.004 288.004C135.994 287.994 139.994 287.994 144.004 288.004C156.004 288.004 168.004 287.994 180.004 288.004C179.994 291.994 179.984 295.994 179.994 300.004C175.984 299.994 171.994 299.994 168.004 300.004C156.004 300.004 144.004 300.004 132.004 300.004C131.994 295.994 131.994 291.994 132.004 288.004Z" fill="#FFBF48"/>
<path d="M120.004 336.004C132.004 336.004 144.004 335.994 156.004 336.004C155.994 339.994 155.994 343.994 156.004 348.004C143.994 347.994 132.004 347.994 120.004 348.004C119.994 343.994 119.994 339.994 120.004 336.004Z" fill="#FFBF48"/>
<path d="M108.004 384.004C124.004 384.004 140.004 384.004 156.004 384.004C155.994 387.994 155.994 391.994 156.004 396.004C140.004 396.004 124.004 396.004 108.004 396.004C107.994 391.994 107.994 387.994 108.004 384.004Z" fill="#FFBF48"/>
<path d="M120.004 420.004C132.004 420.004 144.004 419.994 156.004 420.004C155.994 423.994 155.994 427.994 156.004 432.004C144.004 431.994 132.004 432.004 120.004 432.004C120.004 427.994 120.004 423.994 120.004 420.004Z" fill="#FFBF48"/>
<path d="M132.004 468.004C144.004 467.994 156.004 467.994 168.004 468.004C171.994 467.994 175.984 467.994 179.994 468.004C179.984 471.994 179.994 475.994 180.004 480.004C167.994 480.014 156.004 479.994 144.004 480.004C140.004 479.994 136.004 479.984 132.014 479.994C132.004 475.984 132.004 471.984 132.004 468.004Z" fill="#FFBF48"/>
<path d="M168.004 516.003C180.004 515.993 192.004 516.013 204.014 516.003C208.004 515.983 211.994 515.983 216.004 516.003C215.994 519.983 215.994 523.983 216.004 528.003C204.004 528.003 192.004 527.983 180.004 528.003C175.994 527.993 171.994 527.993 168.004 528.003C167.994 523.993 167.994 519.993 168.004 516.003Z" fill="#FFBF48"/>
<path d="M228.004 564.004C236.004 563.994 244.004 563.994 252.014 564.004C260.004 563.994 267.984 563.984 275.994 564.004C275.984 567.994 275.994 571.994 276.014 576.004C271.994 575.984 267.994 575.984 264.004 576.004C251.994 575.994 240.004 575.994 228.004 576.004C227.994 571.984 227.994 567.984 228.004 564.004Z" fill="#FFBF48"/>
<path d="M192.033 216.014C196.013 216.004 200.003 216.004 204.003 216.004C212.003 216.004 220.003 216.004 228.013 216.004C227.993 219.984 227.983 223.974 227.983 227.974C223.993 227.984 220.013 228.004 216.033 228.034C216.003 232.014 215.983 236.004 215.973 239.994C211.973 239.984 207.983 239.994 204.013 240.004C195.993 239.994 187.993 240.004 179.993 240.004C179.993 236.004 180.003 232.014 180.023 228.034C183.993 228.004 187.983 227.984 191.973 227.974C191.983 223.984 192.003 219.994 192.033 216.014Z" fill="#FFD373"/>
<path d="M108.004 348.004C111.994 347.994 115.994 347.994 120.004 348.004C132.004 347.994 143.994 347.994 156.004 348.004C156.004 355.994 156.004 363.994 156.004 372.004C140.004 372.004 124.004 372.004 108.004 372.004C107.994 367.994 107.994 363.994 108.004 360.004C108.004 355.994 108.004 351.994 108.004 348.004Z" fill="#FFD373"/>
<path d="M180.004 528.005C192.004 527.985 204.004 528.005 216.004 528.005C219.984 527.995 223.974 527.995 227.974 528.015C227.984 531.985 228.004 535.975 228.034 539.975C232.004 539.985 235.994 540.005 239.984 540.035C239.984 544.015 239.994 547.995 240.014 552.005C228.004 552.005 216.004 551.985 204.004 552.005C199.994 551.995 196.004 551.985 192.024 552.005C192.004 547.995 191.994 543.995 191.994 540.015C187.984 539.995 183.994 539.985 180.004 539.995C179.994 535.985 179.994 531.985 180.004 528.005Z" fill="#FFD373"/>
<path d="M312.014 216.004C316.004 215.994 320.004 215.994 324.014 216.004C323.994 219.994 323.984 223.994 323.994 227.994C319.984 227.994 315.984 227.994 311.994 228.004C311.994 223.994 312.004 219.994 312.014 216.004Z" fill="#FECD55"/>
<path d="M324.014 216.004C348.004 216.004 372.004 215.994 395.994 216.004C395.994 219.994 395.994 223.994 396.014 227.994C404.004 228.004 412.004 228.004 420.014 228.004C423.994 227.994 427.984 227.994 431.994 228.004C431.994 231.994 431.994 235.984 432.014 239.984C434.814 239.974 440.424 239.964 443.224 239.954C443.544 243.954 443.834 247.944 444.174 251.964C451.844 251.964 459.534 251.984 467.234 251.974C467.554 255.914 467.864 259.844 468.204 263.794C472.124 264.054 476.094 264.334 480.044 264.634C480.014 272.404 480.014 280.194 480.014 287.984C483.984 287.994 487.964 288.014 491.964 288.044C491.984 291.964 492.014 295.904 492.054 299.844C496.024 300.084 500.054 300.334 504.054 300.624C503.984 312.394 504.024 324.174 504.004 335.964C507.984 335.974 511.984 335.994 515.994 336.034C516.004 368.014 516.004 399.994 515.994 431.974C511.984 431.984 507.984 431.994 504.004 432.024C504.014 443.774 503.984 455.514 504.064 467.264C500.054 467.574 496.044 467.854 492.084 468.174C492.024 472.094 491.984 476.024 491.964 479.964C487.974 479.974 484.004 480.004 480.044 480.044C480.004 484.004 479.974 487.984 479.964 491.974C475.974 491.984 472.004 492.004 468.034 492.044C468.004 496.004 467.974 499.984 467.964 503.974C463.984 503.984 460.004 504.004 456.034 504.044C456.004 508.004 455.984 511.984 455.974 515.974C451.974 515.974 447.994 515.994 444.024 516.034C444.034 518.824 444.044 524.424 444.044 527.224C440.044 527.544 436.034 527.834 432.064 528.174C432.024 532.104 432.004 536.044 431.994 539.994C423.984 539.984 415.994 539.994 408.014 540.004C403.994 539.994 400.004 539.994 396.014 540.014C395.994 543.994 395.994 547.994 395.994 552.004C372.004 552.014 348.014 552.004 324.034 551.994C324.004 547.984 323.984 543.994 323.984 540.014C311.994 540.014 300.014 539.984 288.034 539.994C288.004 535.984 287.984 531.994 287.984 528.014C279.984 527.994 272.004 527.994 264.024 527.994C263.994 523.994 263.984 520.004 263.974 516.034C259.984 516.004 256.004 515.984 252.034 515.974C252.004 511.974 251.984 507.984 251.974 504.004C247.984 503.994 243.994 503.994 240.014 504.004C239.994 500.004 239.984 496.014 239.984 492.034C235.984 492.004 231.994 491.984 228.014 491.974C228.004 487.974 228.004 483.974 228.004 479.994C227.984 475.984 227.984 471.984 227.994 468.004C223.984 467.994 219.994 467.994 216.004 468.004C216.014 460.004 216.004 452.014 215.994 444.024C211.994 443.994 207.994 443.984 204.014 443.984C203.994 431.984 204.004 419.984 204.004 407.994C204.004 380.004 203.994 352.014 204.014 324.024C207.994 324.004 211.994 323.984 215.994 323.984C215.994 315.994 216.004 308.004 216.014 300.024C220.004 300.004 223.994 299.994 227.994 299.984C227.994 291.994 228.004 284.004 228.024 276.034C231.994 276.004 235.984 275.984 239.974 275.974C239.984 271.984 240.004 268.004 240.034 264.034C244.004 264.004 247.984 263.984 251.974 263.974C251.984 259.984 252.004 256.004 252.034 252.034C256.004 252.004 259.984 251.984 263.974 251.974C263.984 247.984 263.994 243.994 264.024 240.014C272.004 240.004 279.984 239.994 287.984 239.994C287.984 235.994 288.004 231.994 288.024 228.014C296.014 228.004 303.994 227.994 311.994 228.004C315.984 227.994 319.984 227.994 323.994 227.994C323.984 223.994 323.994 219.994 324.014 216.004ZM312.014 288.004C311.994 291.994 311.984 295.994 311.994 300.004C299.994 299.994 287.994 300.004 276.004 300.004C275.994 312.004 276.004 323.994 276.004 335.994C275.994 339.994 275.994 343.994 276.004 348.004C279.994 347.994 283.994 347.994 288.004 348.004C288.004 368.004 288.004 387.994 288.004 407.994C287.994 411.984 287.994 415.994 288.004 420.004C291.994 419.994 295.994 419.994 300.004 420.004C300.004 436.004 300.004 452.004 300.004 468.004C299.994 471.994 299.994 475.994 300.004 480.004C312.004 479.994 323.994 479.994 336.004 480.004C336.004 471.994 335.994 463.984 336.004 455.994C336.004 439.994 335.994 423.994 336.004 408.004C343.994 407.994 351.994 407.994 359.994 408.004C363.984 407.994 367.994 407.994 372.004 408.004C371.994 403.994 371.994 399.994 372.004 396.004C375.944 395.984 379.894 395.974 383.854 395.984C384.114 391.954 384.424 387.964 384.764 383.974C387.574 383.984 393.194 383.994 396.004 383.994C395.994 375.994 395.994 367.984 396.004 359.994C396.004 339.994 396.004 320.004 396.004 300.014C395.994 296.004 395.994 291.994 396.004 288.004C391.984 287.994 387.984 287.994 383.994 288.004C379.994 287.994 375.994 287.994 372.014 288.004C371.994 291.994 371.994 295.994 371.994 300.004C363.994 299.984 355.994 300.014 348.004 300.004C347.994 307.994 347.994 315.994 348.004 323.994C347.994 327.994 347.994 331.994 348.004 336.004C351.994 335.994 355.994 335.994 360.004 336.004C359.994 339.994 359.994 343.994 360.004 348.004C352.004 347.994 343.994 347.994 336.004 348.004C335.994 343.994 335.994 339.994 336.004 336.004C331.994 335.994 327.994 335.994 324.004 336.004C324.004 320.004 324.004 304.004 324.004 288.004C319.994 287.994 316.004 287.994 312.014 288.004ZM432.014 348.004C431.994 351.994 431.984 355.984 431.994 359.994C427.984 359.994 423.994 359.994 420.014 360.014C419.994 363.994 419.984 367.984 419.994 371.994C415.984 371.984 411.994 371.994 408.004 372.014C407.994 380.004 407.994 387.994 408.014 396.004C403.994 395.994 399.994 395.984 396.004 395.994C395.994 399.984 395.994 403.994 396.004 408.004C403.794 407.994 411.584 407.974 419.394 407.964C419.694 411.914 419.914 415.854 420.184 419.844C424.104 420.104 428.074 420.424 432.024 420.764C432.024 423.574 432.014 429.194 432.014 432.014C435.944 431.984 439.894 431.984 443.854 431.984C444.104 427.954 444.424 423.974 444.764 419.984C447.534 419.974 453.084 419.974 455.854 419.964C456.114 415.944 456.434 411.964 456.764 407.984C459.574 407.984 465.194 407.994 468.004 407.994C467.994 403.984 467.994 399.984 468.004 395.994C468.004 387.994 467.994 380.004 468.004 372.014C463.994 371.994 460.004 371.984 456.014 371.994C455.994 367.984 455.984 363.994 455.994 360.014C451.984 359.994 447.994 359.994 444.014 359.994C443.994 355.984 443.984 351.994 443.994 348.004C439.984 347.994 435.994 347.994 432.014 348.004Z" fill="#FDC251"/>
<path d="M395.994 216.003C403.994 215.993 411.984 215.993 419.994 216.013C419.984 219.993 419.994 223.993 420.014 228.003C412.004 228.003 404.004 228.003 396.014 227.993C395.994 223.993 395.994 219.993 395.994 216.003Z" fill="#EDA73C"/>
<path d="M431.994 228.004C435.984 228.004 439.974 228.004 443.984 228.014C443.984 231.994 443.994 235.994 444.024 239.994C452.004 239.994 459.984 240.004 467.974 240.024C467.984 244.004 468.004 247.984 468.034 251.984C472.014 251.984 476.004 251.994 480.004 252.014C479.994 255.984 479.994 259.974 480.004 263.974C483.984 263.984 487.974 264.004 491.974 264.034C491.984 268.004 492.004 271.984 492.034 275.974C496.004 275.984 499.994 276.004 503.984 276.034C503.984 284.014 504.004 292.004 504.014 299.994C507.994 299.994 511.994 299.994 516.004 300.014C515.984 304.004 515.994 308.004 516.004 312.014C515.994 315.984 515.994 319.974 516.004 323.974C519.994 323.984 523.984 324.004 527.994 324.034C527.984 328.014 527.994 332.004 528.004 336.014C528.004 371.994 528.004 407.984 527.994 443.984C523.994 443.984 519.994 444.004 516.014 444.024C515.994 452.004 515.994 459.994 515.994 467.984C511.984 467.984 507.994 468.004 504.024 468.024C503.994 476.004 503.994 483.994 503.994 491.984C499.994 491.984 496.004 492.004 492.034 492.034C492.004 496.004 491.974 499.974 491.974 503.974C487.974 503.984 484.004 504.004 480.034 504.034C480.004 508.004 479.974 511.984 479.974 515.974C475.974 515.974 472.004 516.004 468.034 516.034C468.004 520.004 467.984 523.994 467.974 527.984C459.984 527.984 452.004 528.004 444.024 528.014C443.994 531.994 443.984 535.994 443.984 539.994C439.974 539.984 435.974 539.984 431.994 539.994C432.004 536.044 432.024 532.104 432.064 528.174C436.034 527.834 440.044 527.544 444.044 527.224C444.044 524.424 444.034 518.824 444.024 516.034C447.994 515.994 451.974 515.974 455.974 515.974C455.984 511.984 456.004 508.004 456.034 504.044C460.004 504.004 463.984 503.984 467.964 503.974C467.974 499.984 468.004 496.004 468.034 492.044C472.004 492.004 475.974 491.984 479.964 491.974C479.974 487.984 480.004 484.004 480.044 480.044C484.004 480.004 487.974 479.974 491.964 479.964C491.984 476.024 492.024 472.094 492.084 468.174C496.044 467.854 500.054 467.574 504.064 467.264C503.984 455.514 504.014 443.774 504.004 432.024C507.984 431.994 511.984 431.984 515.994 431.974C516.004 399.994 516.004 368.014 515.994 336.034C511.984 335.994 507.984 335.974 504.004 335.964C504.024 324.174 503.984 312.394 504.054 300.624C500.054 300.334 496.024 300.084 492.054 299.844C492.014 295.904 491.984 291.964 491.964 288.044C487.964 288.014 483.984 287.994 480.014 287.984C480.014 280.194 480.014 272.404 480.044 264.634C476.094 264.334 472.124 264.054 468.204 263.794C467.864 259.844 467.554 255.914 467.234 251.974C459.534 251.984 451.844 251.964 444.174 251.964C443.834 247.944 443.544 243.954 443.224 239.954C440.424 239.964 434.814 239.974 432.014 239.984C431.994 235.984 431.994 231.994 431.994 228.004Z" fill="#EDA73D"/>
<path d="M384.015 360.012C387.995 359.992 391.995 359.992 396.005 359.992C395.995 367.982 395.995 375.992 396.005 383.992C393.195 383.992 387.575 383.982 384.765 383.972C384.425 387.962 384.115 391.952 383.855 395.982C379.895 395.972 375.945 395.982 372.005 396.002C367.995 395.992 364.005 395.992 360.015 396.012C360.005 400.002 359.995 403.992 359.995 408.002C351.995 407.992 343.995 407.992 336.005 408.002C335.995 404.002 335.995 400.012 336.015 396.032C339.985 396.002 343.975 395.982 347.975 395.972C347.985 391.972 348.005 387.992 348.035 384.012C360.015 384.012 372.005 383.992 383.995 384.002C384.005 376.002 384.005 368.002 384.015 360.012Z" fill="#EDA73D"/>
<path d="M396.005 395.992C399.995 395.982 403.995 395.992 408.015 396.002C411.985 395.992 415.975 396.002 419.975 396.012C419.985 399.982 420.005 403.972 420.035 407.972C424.005 407.982 427.985 408.002 431.975 408.032C431.985 412.012 432.005 415.992 432.035 419.992C436.005 419.982 439.985 419.982 443.975 419.992C443.985 415.992 444.005 412.012 444.035 408.032C448.005 408.002 451.985 407.982 455.975 407.972C455.985 403.982 456.005 399.992 456.035 396.022C460.015 396.002 463.995 395.992 468.005 395.992C467.995 399.982 467.995 403.982 468.005 407.992C465.195 407.992 459.575 407.982 456.765 407.982C456.435 411.962 456.115 415.942 455.855 419.962C453.085 419.972 447.535 419.972 444.765 419.982C444.425 423.972 444.105 427.952 443.855 431.982C439.895 431.982 435.945 431.982 432.015 432.012C432.015 429.192 432.025 423.572 432.025 420.762C428.075 420.422 424.105 420.102 420.185 419.842C419.915 415.852 419.695 411.912 419.395 407.962C411.585 407.972 403.795 407.992 396.005 408.002C395.995 403.992 395.995 399.982 396.005 395.992Z" fill="#EDA73D"/>
<path d="M504.003 228.004C560.003 228.004 616.003 228.004 672.003 228.004C672.003 248.004 672.003 268.004 672.003 288.004C632.003 288.004 592.003 288.004 552.013 288.004C551.983 283.994 551.983 280.004 551.993 276.014C547.973 276.004 543.983 275.994 540.003 275.994C539.983 272.004 539.983 268.014 539.993 264.034C535.993 264.004 532.003 263.984 528.033 263.974C527.993 259.984 527.973 256.004 527.973 252.034C523.973 252.004 520.003 251.984 516.033 251.974C516.003 247.974 515.983 243.984 515.973 240.004C511.973 239.994 507.983 239.994 504.003 240.004C503.983 235.994 503.983 231.994 504.003 228.004Z" fill="#FFF8F5"/>
<path d="M479.994 240.004C487.994 239.994 495.994 239.994 504.004 240.004C507.984 239.994 511.974 239.994 515.974 240.004C515.984 243.984 516.004 247.974 516.034 251.974C520.004 251.984 523.974 252.004 527.974 252.034C527.974 256.004 527.994 259.984 528.034 263.974C532.004 263.984 535.994 264.004 539.994 264.034C539.984 268.014 539.984 272.004 540.004 275.994C539.984 279.984 539.994 283.994 540.014 288.004C531.994 287.994 523.994 288.004 516.004 288.004C515.984 292.004 515.994 296.004 516.004 300.014C511.994 299.994 507.994 299.994 504.014 299.994C504.004 292.004 503.984 284.014 503.984 276.034C499.994 276.004 496.004 275.984 492.034 275.974C492.004 271.984 491.984 268.004 491.974 264.034C487.974 264.004 483.984 263.984 480.004 263.974C479.994 259.974 479.994 255.984 480.004 252.014C479.984 248.004 479.984 243.994 479.994 240.004Z" fill="#FFEA82"/>
<path d="M192.034 408.022C196.014 408.002 200.004 407.992 204.004 407.992C204.004 419.982 203.994 431.982 204.014 443.982C207.994 443.982 211.994 443.992 215.994 444.022C216.004 452.012 216.014 460.002 216.004 468.002C212.004 467.992 208.014 467.992 204.034 468.002C204.004 471.992 203.984 475.982 203.984 479.992C195.984 479.992 187.994 480.002 180.004 480.002C179.994 475.992 179.984 471.992 179.994 468.002C175.984 467.992 171.994 467.992 168.004 468.002C167.994 459.992 167.994 451.992 168.004 444.002C167.994 439.992 167.994 435.992 168.004 432.002C167.994 427.992 167.994 423.992 168.004 420.012C175.994 420.002 183.984 419.982 191.974 419.992C191.994 415.992 192.004 412.002 192.034 408.022Z" fill="#FFEA82"/>
<path d="M156.014 252.004C160.004 251.994 163.994 251.994 167.994 252.004C179.994 252.004 191.994 251.994 204.004 252.004C203.994 255.994 203.994 259.994 203.994 264.004C199.994 263.994 195.994 263.994 192.014 264.004C180.004 263.994 168.004 264.004 155.994 264.004C155.994 259.994 156.004 255.994 156.014 252.004Z" fill="#FFCB62"/>
<path d="M120.004 432.004C132.004 432.004 144.004 431.994 156.004 432.004C159.994 431.994 163.994 431.994 168.004 432.004C167.994 435.994 167.994 439.994 168.004 444.004C152.004 444.004 136.004 444.004 120.004 444.004C119.994 439.994 120.004 435.994 120.004 432.004Z" fill="#FFCB62"/>
<path d="M144.004 264.004C147.994 263.994 151.994 263.994 155.994 264.004C168.004 264.004 180.004 263.994 192.014 264.004C191.994 267.984 191.984 271.974 191.984 275.974C187.994 275.984 184.004 276.004 180.024 276.034C180.004 280.014 180.004 284.004 180.004 288.004C168.004 287.994 156.004 288.004 144.004 288.004C143.994 283.994 143.994 279.994 144.004 276.004C144.004 271.994 144.004 267.994 144.004 264.004Z" fill="#FED373"/>
<path d="M108.004 396.004C124.004 396.004 140.004 396.004 156.004 396.004C156.004 403.994 156.004 411.994 156.004 420.004C144.004 419.994 132.004 420.004 120.004 420.004C119.994 415.994 119.984 412.004 119.994 408.014C115.984 408.004 111.994 407.994 108.004 407.994C107.994 403.984 107.994 399.984 108.004 396.004Z" fill="#FED373"/>
<path d="M120.004 444.004C136.004 444.004 152.004 444.004 168.004 444.004C167.994 451.994 167.994 459.994 168.004 468.004C156.004 467.994 144.004 467.994 132.004 468.004C131.994 464.004 131.984 460.004 131.994 456.034C127.994 455.994 123.994 455.984 120.004 455.974C120.004 451.974 120.004 447.984 120.004 444.004Z" fill="#FED373"/>
<path d="M96.0136 276.004C100.004 275.994 104.004 275.994 108.004 276.004C116.004 276.004 124.004 275.994 132.004 276.004C131.994 279.994 131.994 283.994 132.004 288.004C131.994 291.994 131.994 295.994 132.004 300.004C131.994 303.984 131.994 307.974 131.994 311.974C127.994 311.984 124.004 312.004 120.014 312.024C120.004 320.014 120.004 328.004 120.004 336.004C119.994 339.994 119.994 343.994 120.004 348.004C115.994 347.994 111.994 347.994 108.004 348.004C108.004 351.994 108.004 355.994 108.004 360.004C88.0036 360.004 68.0036 359.994 48.0036 360.004C47.9936 351.994 47.9936 344.004 48.0036 336.014C51.9936 335.994 55.9936 335.984 59.9936 335.994C59.9936 331.994 60.0036 328.004 60.0236 324.024C64.0036 324.004 67.9936 323.994 71.9836 323.984C71.9936 319.994 72.0036 315.994 72.0136 312.014C76.0036 312.004 80.0036 311.994 84.0036 311.994C83.9736 303.994 84.0136 296.004 84.0036 288.014C87.9936 287.994 91.9936 287.994 95.9936 287.994C95.9936 283.984 96.0036 279.994 96.0136 276.004Z" fill="#FFFAF7"/>
<path d="M552.013 288.004C592.003 288.004 632.003 288.004 672.003 288.004C672.003 312.004 672.003 336.004 672.003 360.004C640.003 360.004 608.003 360.004 576.013 360.004C575.983 355.994 575.983 352.004 575.993 348.014C571.973 348.004 567.983 347.994 564.003 347.994C564.003 336.004 563.983 324.014 563.993 312.024C559.983 312.004 555.983 311.994 552.003 311.994C551.983 307.984 551.983 303.984 552.003 300.004C551.993 295.994 551.993 291.994 552.013 288.004Z" fill="#FFFAF7"/>
<path d="M132.004 276.004C135.994 275.994 139.994 275.994 144.004 276.004C143.994 279.994 143.994 283.994 144.004 288.004C139.994 287.994 135.994 287.994 132.004 288.004C131.994 283.994 131.994 279.994 132.004 276.004Z" fill="#FFD982"/>
<path d="M540.003 275.996C543.983 275.996 547.973 276.006 551.993 276.016C551.983 280.006 551.983 283.996 552.013 288.006C547.993 287.996 543.993 287.996 540.013 288.006C539.993 283.996 539.983 279.986 540.003 275.996Z" fill="#FFF8EC"/>
<path d="M312.014 288.004C316.004 287.994 319.994 287.994 324.004 288.004C324.004 304.004 324.004 320.004 324.004 336.004C323.994 339.994 323.994 343.994 324.004 348.004C327.994 347.994 331.994 347.994 336.004 348.004C343.994 347.994 352.004 347.994 360.004 348.004C359.994 343.994 359.994 339.994 360.004 336.004C359.994 331.994 359.994 328.004 360.004 324.014C355.994 324.004 351.994 323.994 348.004 323.994C347.994 315.994 347.994 307.994 348.004 300.004C355.994 300.014 363.994 299.984 371.994 300.004C371.994 295.994 371.994 291.994 372.014 288.004C375.994 287.994 379.994 287.994 383.994 288.004C383.994 291.994 383.994 295.984 384.024 299.994C388.004 299.984 391.994 299.994 396.004 300.014C396.004 320.004 396.004 339.994 396.004 359.994C391.994 359.994 387.994 359.994 384.014 360.014C384.004 368.004 384.004 376.004 383.994 384.004C372.004 383.994 360.014 384.014 348.034 384.014C348.004 387.994 347.984 391.974 347.974 395.974C343.974 395.984 339.984 396.004 336.014 396.034C335.994 400.014 335.994 404.004 336.004 408.004C335.994 423.994 336.004 439.994 336.004 455.994C332.004 455.994 328.014 456.004 324.034 456.024C324.004 460.004 323.984 463.994 323.984 467.994C315.974 467.984 307.994 467.994 300.004 468.004C300.004 452.004 300.004 436.004 300.004 420.004C299.994 415.994 299.994 412.004 300.004 408.014C295.994 408.004 291.994 407.994 288.004 407.994C288.004 387.994 288.004 368.004 288.004 348.004C287.994 343.994 287.994 340.004 288.004 336.014C283.994 336.004 279.994 335.994 276.004 335.994C276.004 323.994 275.994 312.004 276.004 300.004C287.994 300.004 299.994 299.994 311.994 300.004C311.984 295.994 311.994 291.994 312.014 288.004Z" fill="#8E5B34"/>
<path d="M383.994 288.004C387.984 287.994 391.984 287.994 396.004 288.004C395.994 291.994 395.994 296.004 396.004 300.014C391.994 299.994 388.004 299.984 384.024 299.994C383.994 295.984 383.994 291.994 383.994 288.004Z" fill="#C68E41"/>
<path d="M516.004 288.004C523.994 288.004 531.994 287.994 540.014 288.004C543.994 287.994 547.994 287.994 552.014 288.004C551.994 291.994 551.994 295.994 552.004 300.004C543.994 299.984 536.014 300.004 528.024 300.014C527.994 303.994 527.984 307.984 527.984 311.984C523.974 311.984 519.984 311.994 516.004 312.014C515.994 308.004 515.984 304.004 516.004 300.014C515.994 296.004 515.984 292.004 516.004 288.004Z" fill="#FFDB5C"/>
<path d="M204.034 468.004C208.014 467.994 212.004 467.994 216.004 468.004C219.994 467.994 223.984 467.994 227.994 468.004C227.984 471.984 227.984 475.984 228.004 479.994C224.004 479.994 220.014 480.004 216.034 480.024C216.004 484.004 215.994 487.994 215.974 492.004C207.974 491.994 199.984 492.004 191.994 492.004C187.994 491.994 184.004 491.994 180.014 492.004C180.004 487.994 180.004 483.994 180.004 480.004C187.994 480.004 195.984 479.994 203.984 479.994C203.984 475.984 204.004 471.994 204.034 468.004Z" fill="#FFDB5C"/>
<path d="M132.004 300.004C144.004 300.004 156.004 300.004 168.004 300.004C168.004 311.994 167.994 323.994 168.004 336.004C163.994 335.994 159.994 335.994 156.004 336.004C144.004 335.994 132.004 336.004 120.004 336.004C120.004 328.004 120.004 320.014 120.014 312.024C124.004 312.004 127.994 311.984 131.994 311.974C131.994 307.974 131.994 303.984 132.004 300.004Z" fill="#FFD473"/>
<path d="M144.004 480.003C156.004 479.993 167.994 480.013 180.004 480.003C180.004 483.993 180.004 487.993 180.014 492.003C184.004 491.993 187.994 491.993 191.994 492.003C191.994 495.983 192.004 499.963 192.024 503.973C196.004 503.973 199.994 503.993 203.984 504.033C203.984 508.003 203.994 511.993 204.014 516.003C192.004 516.013 180.004 515.993 168.004 516.003C163.994 515.993 160.004 515.993 156.014 516.003C155.994 511.993 155.994 508.003 155.984 504.023C151.994 504.003 147.994 503.983 144.014 503.983C144.004 495.983 143.994 487.983 144.004 480.003Z" fill="#FFD473"/>
<path d="M528.024 300.015C536.014 300.005 543.994 299.985 552.004 300.005C551.984 303.985 551.984 307.985 552.004 311.995C551.984 315.975 551.984 319.975 551.994 323.975C547.994 323.985 544.004 324.005 540.034 324.035C540.004 328.015 539.984 331.995 539.974 335.985C535.974 335.985 531.984 335.995 528.004 336.015C527.994 332.005 527.984 328.015 527.994 324.035C523.984 324.005 519.994 323.985 516.004 323.975C515.994 319.975 515.994 315.985 516.004 312.015C519.984 311.995 523.974 311.985 527.984 311.985C527.984 307.985 527.994 303.995 528.024 300.015Z" fill="#FFEB81"/>
<path d="M348.004 323.996C351.994 323.996 355.994 324.006 360.004 324.016C359.994 328.006 359.994 331.996 360.004 336.006C355.994 335.996 351.994 335.996 348.004 336.006C347.994 331.996 347.994 327.996 348.004 323.996Z" fill="#EDA63D"/>
<path d="M276.004 335.996C279.994 335.996 283.994 336.006 288.004 336.016C287.994 340.006 287.994 343.996 288.004 348.006C283.994 347.996 279.994 347.996 276.004 348.006C275.994 343.996 275.994 339.996 276.004 335.996Z" fill="#EDA63D"/>
<path d="M288.004 407.996C291.994 407.996 295.994 408.006 300.004 408.016C299.994 412.006 299.994 415.996 300.004 420.006C295.994 419.996 291.994 419.996 288.004 420.006C287.994 415.996 287.994 411.986 288.004 407.996Z" fill="#EDA63D"/>
<path d="M396.013 540.017C400.003 539.997 403.993 539.997 408.013 540.007C407.993 543.997 407.983 547.987 407.993 552.007C403.983 551.987 399.983 551.987 395.993 552.007C395.993 547.997 395.993 543.997 396.013 540.017Z" fill="#EDA63D"/>
<path d="M324.004 336.004C327.994 335.994 331.994 335.994 336.004 336.004C335.994 339.994 335.994 343.994 336.004 348.004C331.994 347.994 327.994 347.994 324.004 348.004C323.994 343.994 323.994 339.994 324.004 336.004Z" fill="#956136"/>
<path d="M432.015 348.004C435.995 347.994 439.985 347.994 443.995 348.004C443.985 351.994 443.995 355.984 444.015 359.994C447.995 359.994 451.985 359.994 455.995 360.014C455.985 363.994 455.995 367.984 456.015 371.994C460.005 371.984 463.995 371.994 468.005 372.014C467.995 380.004 468.005 387.994 468.005 395.994C463.995 395.994 460.015 396.004 456.035 396.024C456.005 399.994 455.985 403.984 455.975 407.974C451.985 407.984 448.005 408.004 444.035 408.034C444.005 412.014 443.985 415.994 443.975 419.994C439.985 419.984 436.005 419.984 432.035 419.994C432.005 415.994 431.985 412.014 431.975 408.034C427.985 408.004 424.005 407.984 420.035 407.974C420.005 403.974 419.985 399.984 419.975 396.014C415.975 396.004 411.985 395.994 408.015 396.004C407.995 387.994 407.995 380.004 408.005 372.014C411.995 371.994 415.985 371.984 419.995 371.994C419.985 367.984 419.995 363.994 420.015 360.014C423.995 359.994 427.985 359.994 431.995 359.994C431.985 355.984 431.995 351.994 432.015 348.004Z" fill="#8F5B33"/>
<path d="M564.003 347.996C567.983 347.996 571.973 348.006 575.993 348.016C575.983 352.006 575.983 355.996 576.013 360.006C571.993 359.996 567.993 359.986 564.013 359.996C563.993 355.986 563.983 351.986 564.003 347.996Z" fill="#FFF9EF"/>
<path d="M36.0039 360.004C40.0039 359.994 44.0039 359.994 48.0039 360.004C68.0039 359.994 88.0039 360.004 108.004 360.004C107.994 363.994 107.994 367.994 108.004 372.004C107.994 375.994 107.994 379.994 108.004 384.004C107.994 387.994 107.994 391.994 108.004 396.004C107.994 399.984 107.994 403.984 108.004 407.994C107.994 411.984 107.994 415.984 108.004 420.004C76.0039 420.004 44.0039 420.004 12.0139 420.004C12.0039 415.994 12.0039 412.004 12.0039 408.014C16.0039 407.994 19.9939 407.994 24.0039 407.994C23.9839 399.984 24.0139 392.004 24.0039 384.014C28.0039 383.994 31.9939 383.984 36.0039 383.994C35.9839 375.984 36.0139 367.994 36.0039 360.004Z" fill="#FFFCFA"/>
<path d="M576.015 360.004C608.005 360.004 640.005 360.004 672.005 360.004C671.995 367.994 671.995 375.994 672.005 383.994C667.985 383.994 663.995 383.994 660.005 384.014C659.995 396.004 659.995 407.994 660.005 419.994C655.985 419.984 651.985 419.994 648.005 420.014C647.995 432.004 647.995 443.994 647.995 455.984C643.985 455.984 639.995 455.994 636.015 456.014C635.995 460.004 635.985 463.994 635.995 468.004C607.995 468.004 579.995 468.004 552.005 468.004C551.995 464.004 551.995 460.004 552.015 456.024C555.995 456.004 559.985 455.984 563.995 455.984C564.035 439.994 563.965 424.004 564.025 408.024C567.995 408.004 571.985 407.984 575.995 407.984C576.015 391.984 575.985 375.994 576.015 360.004Z" fill="#FFFCFB"/>
<path d="M108.004 372.004C124.004 372.004 140.004 372.004 156.004 372.004C155.994 375.994 155.994 379.994 156.004 384.004C140.004 384.004 124.004 384.004 108.004 384.004C107.994 379.994 107.994 375.994 108.004 372.004Z" fill="#FFC552"/>
<path d="M360.014 396.013C364.004 395.993 367.994 395.993 372.004 396.003C371.994 399.993 371.994 403.993 372.004 408.003C367.994 407.993 363.984 407.993 359.994 408.003C359.994 403.993 360.004 400.003 360.014 396.013Z" fill="#F9BA4B"/>
<path d="M108.004 407.996C111.994 407.996 115.984 408.006 119.994 408.016C119.984 412.006 119.994 415.996 120.004 420.006C115.994 419.996 111.994 419.996 108.004 420.006C107.994 415.986 107.994 411.986 108.004 407.996Z" fill="#FFF6E2"/>
<path d="M12.0144 420.004C44.0044 420.004 76.0044 420.004 108.004 420.004C111.994 419.994 115.994 419.994 120.004 420.004C120.004 423.994 120.004 427.994 120.004 432.004C120.004 435.994 119.994 439.994 120.004 444.004C120.004 447.984 120.004 451.974 120.004 455.974C123.994 455.984 127.994 455.994 131.994 456.034C131.984 460.004 131.994 464.004 132.004 468.004C132.004 471.984 132.004 475.984 132.014 479.994C136.004 479.984 140.004 479.994 144.004 480.004C143.994 487.984 144.004 495.984 144.014 503.984C147.994 503.984 151.994 504.004 155.984 504.024C155.994 508.004 155.994 511.994 156.014 516.004C144.014 515.994 132.014 515.994 120.024 516.004C120.004 511.994 119.994 507.994 119.994 504.004C115.994 503.994 112.004 503.994 108.014 504.004C108.004 507.994 107.994 511.984 107.994 516.004C76.0044 516.004 44.0145 516.004 12.0244 516.004C12.0044 511.994 11.9944 507.994 11.9944 504.014C7.99445 503.994 3.99444 503.984 0.00444444 503.994C0.00444444 479.994 -0.00555556 456.004 0.00444444 432.014C3.99444 431.994 7.99445 431.984 11.9944 431.994C11.9944 427.984 12.0044 423.984 12.0144 420.004ZM23.5344 468.044C24.0844 472.024 24.1844 476.124 25.0844 480.084C27.5744 480.084 32.5444 480.094 35.0344 480.104C36.0544 476.164 35.9444 472.004 36.5344 468.034C32.1944 468.024 27.8644 468.024 23.5344 468.044ZM12.0044 480.004C11.9944 483.984 11.9944 487.984 11.9944 491.994C14.8444 492.014 20.5544 492.044 23.4044 492.064C23.7044 488.044 23.8944 483.994 24.1444 480.004C20.0944 479.994 16.0444 479.994 12.0044 480.004ZM36.0144 480.004C36.0044 483.984 35.9944 487.984 35.9944 491.994C31.9944 491.984 27.9944 491.994 24.0044 492.014C24.0044 495.994 23.9944 499.994 24.0044 504.004C32.0044 504.004 39.9944 504.004 48.0044 503.994C48.0044 495.994 48.0145 487.994 47.9944 480.004C43.9944 479.994 40.0044 479.994 36.0144 480.004Z" fill="#FEFDFC"/>
<path d="M324.034 456.026C328.014 456.006 332.004 455.996 336.004 455.996C335.994 463.986 336.004 471.996 336.004 480.006C323.994 479.996 312.004 479.996 300.004 480.006C299.994 475.996 299.994 471.996 300.004 468.006C307.994 467.996 315.974 467.986 323.984 467.996C323.984 463.996 324.004 460.006 324.034 456.026Z" fill="#ECA73C"/>
<path d="M216.034 480.026C220.014 480.006 224.004 479.996 228.004 479.996C228.004 483.976 228.004 487.976 228.014 491.976C231.994 491.986 235.984 492.006 239.984 492.036C239.984 496.016 239.994 500.006 240.014 504.006C236.004 503.996 232.014 503.996 228.024 504.006C228.004 507.986 227.984 511.986 227.974 515.996C223.974 515.986 219.984 515.986 216.004 516.006C211.994 515.986 208.004 515.986 204.014 516.006C203.994 511.996 203.984 508.006 203.984 504.036C199.994 503.996 196.004 503.976 192.024 503.976C192.004 499.966 191.994 495.986 191.994 492.006C199.984 492.006 207.974 491.996 215.974 492.006C215.994 487.996 216.004 484.006 216.034 480.026Z" fill="#FEEB81"/>
<path d="M204.004 552.005C216.004 551.985 228.004 552.005 240.014 552.005C243.994 551.995 247.984 551.995 251.984 552.005C251.984 555.995 251.994 559.985 252.014 564.005C244.004 563.995 236.004 563.995 228.004 564.005C219.994 563.995 212.004 564.005 204.004 564.005C203.994 559.995 203.994 555.995 204.004 552.005Z" fill="#FFC758"/>
</svg>
