<svg width="673" height="552" viewBox="0 0 673 552" fill="none" xmlns="http://www.w3.org/2000/svg">
<path d="M372.01 0C400 0 428 0 455.99 0C455.98 4 455.99 7.99 456.01 12C468 12 479.99 11.99 491.99 12C491.98 16 491.99 20 492.01 24C499.99 23.98 508 24.02 516 24C515.99 28 515.99 32 516 36C452 36 388 36 324 36C323.99 32 323.99 28 324 24C331.99 24.01 339.99 23.98 347.99 24C347.99 20 347.99 16 348.01 12C355.99 12.01 363.99 11.98 371.99 12C371.99 8 371.99 4 372.01 0Z" fill="#FFEFE7"/>
<path d="M300.01 36C308 36 316 36 324 36C388 36 452 36 516 36C523.98 36 531.99 36 539.99 36C539.98 39.99 539.99 43.99 540.01 47.99C543.99 47.99 547.99 48 552 48.01C551.98 52 551.98 56 552 60C464 60 376 60 288 60C287.99 56 287.99 52 288 48.01C291.99 48 295.98 47.99 299.99 47.99C299.99 43.99 299.99 39.99 300.01 36Z" fill="#FFF1E8"/>
<path d="M276.01 60C280 60 283.99 60 288 60C376 60 464 60 552 60C555.98 60 559.98 60 563.99 60C563.98 63.99 563.99 67.99 564.01 72C571.99 71.98 580 72.02 588 72C587.99 75.99 587.98 80 588 84C480 84 372 84 264 84C263.99 80 263.99 76 264 72.01C267.99 72 271.98 71.99 275.99 71.99C275.99 67.99 275.99 63.99 276.01 60Z" fill="#FFF2EA"/>
<path d="M252.01 84.0005C256 84.0005 259.99 84.0005 264 84.0005C372 84.0005 480 84.0005 588 84.0005C591.98 84.0005 595.98 83.9905 600 84.0005C599.97 91.9905 600.01 99.9905 600 107.991C603.98 107.991 607.98 108.001 612 108.011C611.98 112.001 611.98 116.001 612 120.001C484 120.001 356 120.001 228 120.001C227.99 116.001 227.99 112.001 228 108.011C231.99 108.001 235.98 107.991 239.99 107.991C239.99 103.991 240 100.001 240.01 96.0105C244 96.0005 247.99 95.9905 251.99 95.9905C251.99 91.9905 251.99 87.9905 252.01 84.0005Z" fill="#FFF3EC"/>
<path d="M216 120C219.99 119.99 223.99 119.99 228 120C356 120 484 120 612 120C615.98 119.99 619.98 119.99 623.99 120C623.98 123.99 623.98 128 624 132C623.99 135.99 623.99 139.99 624.01 143.99C627.98 143.99 631.98 143.99 635.99 144C635.98 147.99 635.99 151.98 636.01 155.99C639.99 155.99 643.98 155.99 647.99 156.01C647.97 160 647.98 163.99 648 168C496 168 344 168 192 168C191.99 164 191.99 160 192 156.01C195.99 156 199.99 155.99 203.99 155.99C203.99 151.99 204 148 204.01 144.01C208 144 211.99 143.99 216 143.99C215.98 135.99 216.01 127.99 216 120Z" fill="#FFF5EF"/>
<path d="M180.01 168C184 167.99 188 167.99 192 168C344 168 496 168 648 168C647.99 171.99 647.99 175.98 648.01 179.99C651.99 179.99 655.99 180 660 180.01C659.99 192 659.99 204 660 216C492 216 324 216 156 216C155.99 212 155.99 208 156 204.01C159.99 204 163.99 203.99 168 203.99C167.98 195.99 168.02 188 168 180.01C171.99 179.99 175.99 179.99 179.99 179.99C179.99 175.99 180 171.99 180.01 168Z" fill="#FFF6F1"/>
<path d="M144.01 216C148 215.99 152 215.99 156 216C324 216 492 216 660 216C663.98 215.99 667.98 215.99 672 216C672 232 671.99 248 672 264C488 264 304 264 120 264C119.99 259.99 119.99 256 120 252.01C123.99 252 127.99 251.99 132 251.99C131.98 243.99 132.02 236 132 228.01C135.99 227.99 139.99 227.99 143.99 227.99C143.99 223.98 144 219.99 144.01 216Z" fill="#FFF8F4"/>
<path d="M108.01 264C112 263.99 116 263.99 120 264C304 264 488 264 672 264C672 280 671.99 296 672 312C476 312 280 312 84.0002 312C84.0102 304 84.0102 296 83.9902 288.01C87.9902 287.99 91.9802 287.99 95.9902 287.99C95.9902 283.99 96.0003 280 96.0103 276.01C100 276 103.99 275.99 107.99 275.99C107.99 271.98 108 267.99 108.01 264Z" fill="#FFF9F6"/>
<path d="M72.0102 312C76.0002 311.99 80.0002 311.99 84.0002 312C280 312 476 312 672 312C672 328 671.99 344 672 360C636 360 600 360 564.01 360C563.98 355.99 563.98 351.99 563.99 348C559.98 347.99 555.98 347.99 551.99 348C547.98 347.99 543.97 347.99 539.99 348C539.98 343.99 539.98 339.99 540.01 336C536 335.99 532 335.99 528.02 336C527.99 339.99 527.98 343.99 527.98 348C523.97 347.98 519.98 347.99 516.01 348C511.99 347.99 507.99 348 504.01 348.01C503.99 352 503.99 355.99 503.99 360C499.98 359.99 495.98 359.99 492 360C487.99 359.99 483.99 359.99 480.01 360C479.99 355.99 479.98 352 479.99 348.01C475.98 348 471.98 347.99 468 347.99C467.98 343.99 467.98 339.99 467.99 336C463.98 335.99 459.99 335.99 456.01 336C455.98 331.99 455.98 327.99 455.99 324C451.98 323.99 447.99 323.99 444.01 324C443.99 327.99 443.99 331.99 443.99 336C435.98 335.98 427.99 336 420 336.01C419.99 339.99 419.99 343.99 420 348C403.99 348 387.99 348 371.99 348C367.98 347.99 363.98 347.99 360 348C351.99 347.99 343.99 347.99 335.99 348C331.99 347.99 328 347.99 324.02 348C324 343.99 323.98 339.99 323.98 335.99C319.98 335.99 315.98 335.99 312 336C303.99 335.99 296 336 288.01 336C287.99 339.99 287.99 343.99 288 348C283.99 347.99 279.99 347.99 276 348C275.99 344 275.98 340.01 275.98 336.03C271.99 336 268 335.98 264.02 335.98C264 331.97 263.98 327.97 263.98 323.98C251.99 324.02 240.01 324.02 228.02 323.99C228 327.98 227.98 331.97 227.97 335.98C223.98 335.98 220 336 216.03 336.03C216 340 215.98 343.98 215.97 347.97C211.98 347.98 208 348 204.03 348.02C204 352.01 203.99 356 203.98 360C199.98 359.99 195.99 359.99 192.01 360C187.99 359.99 183.99 359.99 180 360C175.99 359.99 172 359.99 168.01 360C168 351.99 168 344 167.99 336C159.99 335.99 152 336 144 336C140 335.99 136.01 335.99 132.03 336C132 339.99 131.99 343.98 131.98 347.98C127.98 347.98 123.99 348 120 348.02C120 352 120 356 120 360C96.0002 360 72.0002 360 47.9902 360C48.0202 351.99 48.0202 344 47.9902 336.01C51.9902 335.99 55.9802 335.99 59.9902 335.99C59.9902 331.99 60.0002 327.99 60.0102 324.01C64.0002 323.99 67.9902 323.99 71.9902 323.99C71.9902 319.98 72.0002 315.99 72.0102 312Z" fill="#FEFAF8"/>
<path d="M228.02 323.99C240.01 324.02 251.99 324.02 263.98 323.98C263.98 327.97 264 331.97 264.02 335.98C268 335.98 271.99 336 275.98 336.03C275.98 340.01 275.99 344 276 348C272.04 347.98 268.1 347.96 264.16 347.96C263.88 343.93 263.66 339.95 263.39 335.95C255.59 335.95 247.8 335.98 240.02 336.02C239.99 340 239.98 343.99 239.98 348C232.24 347.98 224.5 347.98 216.77 347.97C216.43 351.92 216.11 355.88 215.81 359.86C212 360 208.19 360.16 204.39 360.33C204.21 364.17 204.04 368.02 203.89 371.88C200.02 372.01 196.15 372.16 192.29 372.32C192.2 376.2 192.11 380.09 192.05 383.99C188.03 383.98 184.01 383.99 180 384C179.99 379.99 179.99 375.99 180 372.01C183.99 371.99 187.98 371.98 191.99 371.99C191.99 367.98 191.99 363.98 192.01 360C195.99 359.99 199.98 359.99 203.98 360C203.99 356 204 352.01 204.03 348.02C208 348 211.98 347.98 215.97 347.97C215.98 343.98 216 340 216.03 336.03C220 336 223.98 335.98 227.97 335.98C227.98 331.97 228 327.98 228.02 323.99Z" fill="#A53F01"/>
<path d="M348 360.009C351.99 359.989 355.99 359.989 360 359.999C359.99 363.979 359.99 367.979 360 371.989C367.99 371.989 375.98 371.989 383.99 372.009C383.99 379.989 384 387.979 384.01 395.979C387.99 395.979 391.98 395.999 395.98 396.019C395.98 399.999 395.99 403.989 396.02 407.989C404 407.989 411.99 407.999 419.99 408.009C419.98 411.989 419.98 415.989 420 419.999C415.99 419.989 411.99 419.989 408.01 420.009C407.99 423.999 407.99 427.989 407.99 431.999C403.98 431.989 399.99 431.979 396.01 431.999C395.99 427.989 395.99 423.989 395.99 420.009C388 419.999 380 419.979 372.02 419.989C371.99 415.989 371.98 411.999 371.98 408.029C367.98 407.999 364 407.979 360.03 407.969C360 403.979 359.98 399.999 359.98 396.029C355.97 395.999 351.98 395.979 348 395.969C347.99 391.969 347.99 387.979 348.01 384.009C347.99 379.989 347.99 375.989 348 371.989C347.99 367.989 347.99 363.999 348 360.009Z" fill="#A53F01"/>
<path d="M444.01 324C447.99 323.99 451.98 323.99 455.99 324C455.98 327.99 455.98 331.99 456.01 336C451.99 335.99 447.98 335.99 443.99 336C443.99 331.99 443.99 327.99 444.01 324Z" fill="#E6BA9B"/>
<path d="M132.03 336C136.01 335.99 140 335.99 144 336C143.97 355.99 144.02 375.99 144 395.98C147.99 395.99 151.99 396 155.99 396.02C155.99 400 155.99 404 156 408C151.99 407.99 147.99 407.99 143.99 408C139.99 407.99 135.99 407.99 132 408C132 399.98 132 391.98 132 383.98C127.99 383.98 123.99 383.99 120 384.01C120 375.99 120 368 120 360C120 356 120 352 120 348.02C123.99 348 127.98 347.98 131.98 347.98C131.99 343.98 132 339.99 132.03 336Z" fill="#A43F01"/>
<path d="M288.01 336.001C296 336.001 303.99 335.991 312 336.001C312 343.991 312 351.981 311.99 359.981C307.99 359.991 303.99 360.001 300.01 360.021C300 368.001 299.99 375.991 299.99 383.981C295.99 383.991 291.99 384.001 288 384.021C287.99 392.001 288 400.001 288 408.001C283.99 407.991 280 407.991 276.01 408.011C276 411.991 275.99 415.991 275.99 420.001C271.98 419.981 267.98 419.981 263.99 420.001C264.01 408.001 264.01 396.011 264 384.021C267.98 384.001 271.98 383.981 275.99 383.981C275.98 375.981 276.01 368.001 276.01 360.021C279.99 359.991 283.99 359.981 287.99 359.981C287.98 355.981 287.99 351.981 288 348.001C287.99 343.991 287.99 339.991 288.01 336.001Z" fill="#A43F01"/>
<path d="M420 336.011C427.99 336.001 435.98 335.981 443.99 336.001C443.99 351.991 444.01 367.981 444 383.981C447.98 383.981 451.97 384.001 455.98 384.021C455.98 388.011 455.99 392.011 456.02 396.021C460 395.991 463.99 395.991 468 395.991C467.98 399.981 467.98 403.991 468 408.001C463.98 407.981 459.98 407.981 456 407.991C451.99 407.981 448 407.981 444.03 408.001C444 403.991 443.98 400.001 443.97 396.021C439.97 396.001 435.99 395.981 432.01 395.981C432 387.981 431.99 380.001 431.99 372.021C427.98 371.991 423.99 371.981 420 371.981C419.99 363.981 420 355.991 420 348.001C419.99 343.991 419.99 339.991 420 336.011Z" fill="#A43F01"/>
<path d="M528.02 336C532 335.99 536 335.99 540.01 336C539.98 339.99 539.98 343.99 539.99 348C539.98 351.98 539.98 355.97 540.01 359.98C536 359.98 532 360 528.02 360.03C527.99 364 527.98 367.98 527.97 371.98C523.97 371.98 519.99 372 516.01 372.02C515.99 380.01 515.99 388.01 515.99 396.01C511.98 395.99 507.98 395.98 504 395.99C499.98 395.98 495.98 395.99 492 396.01C492 384 492 372 492 360C495.98 359.99 499.98 359.99 503.99 360C507.98 359.98 511.98 359.99 515.99 360C515.98 355.99 515.99 351.99 516.01 348C519.98 347.99 523.97 347.98 527.98 348C527.98 343.99 527.99 339.99 528.02 336Z" fill="#A43F01"/>
<path d="M144 336.001C152 336.001 159.99 335.991 167.99 336.001C168 344.001 168 351.991 168.01 360.001C172 359.991 175.99 359.991 180 360.001C179.99 363.991 179.99 367.991 180 372.011C179.99 375.991 179.99 379.991 180 384.001C179.99 391.991 179.99 399.991 180 408.001C171.99 407.991 164 408.001 156 408.001C155.99 404.001 155.99 400.001 155.99 396.021C151.99 396.001 147.99 395.991 144 395.981C144.02 375.991 143.97 355.991 144 336.001Z" fill="#BD4F01"/>
<path d="M240.02 336.019C247.8 335.979 255.59 335.949 263.39 335.949C263.66 339.949 263.88 343.929 264.16 347.959C268.1 347.959 272.04 347.979 276 347.999C276.02 350.819 276.06 356.449 276.07 359.269C272.07 359.569 268.05 359.849 264.07 360.169C264.02 364.089 263.99 368.019 263.96 371.969C259.98 371.979 256 371.999 252.03 372.029C252 375.999 251.98 379.979 251.97 383.969C247.98 383.979 244 383.999 240.02 384.029C240 387.999 239.99 391.989 239.98 395.989C232.03 395.969 224.09 396.009 216.15 396.019C215.88 399.999 215.66 404.029 215.39 408.039C212.54 408.029 206.85 408.019 204 408.009C203.99 403.999 203.98 400.009 203.99 396.029C199.96 395.999 195.93 395.979 191.91 395.979C191.94 391.969 191.99 387.979 192.05 383.989C192.11 380.089 192.2 376.199 192.29 372.319C196.15 372.159 200.02 372.009 203.89 371.879C204.04 368.019 204.21 364.169 204.39 360.329C208.19 360.159 212 359.999 215.81 359.859C216.11 355.879 216.43 351.919 216.77 347.969C224.5 347.979 232.24 347.979 239.98 347.999C239.98 343.989 239.99 339.999 240.02 336.019Z" fill="#BD4F01"/>
<path d="M312 335.998C315.98 335.988 319.98 335.988 323.98 335.988C323.98 339.988 324 343.988 324.02 347.998C328 347.988 331.99 347.988 335.99 347.998C336 355.728 336.02 363.478 336.04 371.228C332.03 371.548 328.02 371.838 324.03 372.158C324 384.098 323.99 396.028 323.98 407.968C319.99 407.978 316 407.998 312.02 408.028C312 411.998 311.98 415.978 311.97 419.978C307.98 419.978 303.99 419.988 300.01 420.018C300 423.998 299.99 427.998 299.99 431.998C295.99 431.988 291.99 431.988 288 431.998C287.99 427.988 287.99 423.988 288 419.998C287.99 415.988 287.99 411.988 288 407.998C288 399.998 287.99 391.998 288 384.018C291.99 383.998 295.99 383.988 299.99 383.978C299.99 375.988 300 367.998 300.01 360.018C303.99 359.998 307.99 359.988 311.99 359.978C312 351.978 312 343.988 312 335.998Z" fill="#BD4F01"/>
<path d="M443.99 336C447.98 335.99 451.99 335.99 456.01 336C459.99 335.99 463.98 335.99 467.99 336C467.98 339.99 467.98 343.99 468 347.99C467.99 351.98 467.99 355.98 468.01 359.99C472 359.98 476 359.99 480.01 360C479.98 372 480 384.01 480 396.02C475.99 395.99 471.99 395.99 468 395.99C463.99 395.99 460 395.99 456.02 396.02C455.99 392.01 455.98 388.01 455.98 384.02C451.97 384 447.98 383.98 444 383.98C444.01 367.98 443.99 351.99 443.99 336Z" fill="#BC4F01"/>
<path d="M360 348C363.98 347.99 367.98 347.99 371.99 348C371.99 351.99 371.99 355.98 372.01 359.99C379.99 359.98 387.99 360.01 395.98 360.01C395.99 363.99 396 367.98 396.03 371.98C400 371.98 403.98 372 407.97 372.03C407.98 376 408 379.98 408.03 383.97C412 383.98 415.98 384 419.97 384.03C419.98 387.98 420 391.94 420.03 395.91C423.9 396.03 427.79 396.16 431.69 396.31C431.87 404.2 431.98 412.1 432.04 420C428.02 419.99 424 419.99 420 420C419.98 415.99 419.98 411.99 419.99 408.01C411.99 408 404 407.99 396.02 407.99C395.99 403.99 395.98 400 395.98 396.02C391.98 396 387.99 395.98 384.01 395.98C384 387.98 383.99 379.99 383.99 372.01C375.98 371.99 367.99 371.99 360 371.99C359.99 367.98 359.99 363.98 360 360C359.99 355.99 359.99 351.99 360 348Z" fill="#BC4F01"/>
<path d="M539.99 348C543.97 347.99 547.98 347.99 551.99 348C551.98 351.99 551.99 355.98 552.01 359.99C555.99 359.98 559.99 359.99 564.01 360C563.98 363.98 563.97 367.97 563.98 371.97C559.98 371.98 555.99 372 552.01 372.02C551.99 376 551.99 379.99 552 383.99C551.98 387.98 551.98 391.98 551.99 395.99C543.98 395.98 536 396 528.02 396.01C527.99 399.99 527.98 403.98 527.98 407.99C519.98 407.99 511.99 408.02 504 407.99C503.99 403.98 503.98 399.98 504 395.99C507.98 395.98 511.98 395.99 515.99 396.01C515.99 388.01 515.99 380.01 516.01 372.02C519.99 372 523.97 371.98 527.97 371.98C527.98 367.98 527.99 364 528.02 360.03C532 360 536 359.98 540.01 359.98C539.98 355.97 539.98 351.98 539.99 348Z" fill="#BC4F01"/>
<path d="M276.001 348C279.991 347.99 283.991 347.99 288.001 348C287.991 351.98 287.981 355.98 287.991 359.98C283.991 359.98 279.991 359.99 276.011 360.02C276.011 368 275.981 375.98 275.991 383.98C271.981 383.98 267.981 384 264.001 384.02C264.011 396.01 264.011 408 263.991 420C267.981 419.98 271.981 419.98 275.991 420C279.981 419.98 283.991 419.99 288.001 420C287.991 423.99 287.991 427.99 288.001 432C276.001 431.99 264.001 431.99 252.001 432C251.991 428 251.981 424 251.981 420.03C247.991 420 244.001 419.98 240.021 419.98C240.001 415.97 239.991 411.97 239.981 407.99C235.981 407.99 231.981 407.99 228.001 408.01C224.001 407.99 220.011 407.99 216.021 407.99C216.001 411.99 215.991 415.99 215.981 420.01C211.981 419.99 207.991 419.99 204.001 420C199.981 419.99 195.961 419.99 191.961 420.01C191.971 415.99 191.991 411.99 192.021 407.99C196.001 407.99 200.001 407.99 204.001 408.01C206.851 408.02 212.541 408.03 215.391 408.04C215.661 404.03 215.881 400 216.151 396.02C224.091 396.01 232.031 395.97 239.981 395.99C239.991 391.99 240.001 388 240.021 384.03C244.001 384 247.981 383.98 251.971 383.97C251.981 379.98 252.001 376 252.031 372.03C256.001 372 259.981 371.98 263.961 371.97C263.991 368.02 264.021 364.09 264.071 360.17C268.051 359.85 272.071 359.57 276.071 359.27C276.061 356.45 276.021 350.82 276.001 348Z" fill="#DBC2B1"/>
<path d="M335.991 348C343.991 347.99 351.991 347.99 360.001 348C359.991 351.99 359.991 355.99 360.001 360C355.991 359.99 351.991 359.99 348.001 360.01C347.991 364 347.991 367.99 348.001 371.99C343.991 371.99 339.991 371.99 336.001 372.01C335.991 375.99 335.991 379.99 336.001 383.99C339.991 383.98 343.991 383.99 348.011 384.01C347.991 387.98 347.991 391.97 348.001 395.97C351.981 395.98 355.971 396 359.981 396.03C359.981 400 360.001 403.98 360.031 407.97C364.001 407.98 367.981 408 371.981 408.03C371.981 412 371.991 415.99 372.021 419.99C380.001 419.98 388.001 420 395.991 420.01C395.991 423.99 395.991 427.99 396.011 432C387.991 431.99 380.001 432 372.001 432C372.021 429.19 372.051 423.56 372.071 420.74C368.111 420.41 364.131 420.09 360.201 419.81C359.901 415.83 359.671 411.89 359.381 407.93C356.531 407.95 350.841 407.99 347.991 408.01C347.981 411.99 347.991 415.99 348.001 419.99C343.991 419.99 340.001 419.99 336.011 420.01C336.001 424 335.991 427.99 335.991 432C323.991 431.99 311.991 431.99 299.991 432C299.991 428 300.001 424 300.011 420.02C303.991 419.99 307.981 419.98 311.971 419.98C311.981 415.98 312.001 412 312.021 408.03C316.001 408 319.991 407.98 323.981 407.97C323.991 396.03 324.001 384.1 324.031 372.16C328.021 371.84 332.031 371.55 336.041 371.23C336.021 363.48 336.001 355.73 335.991 348Z" fill="#DBC2B1"/>
<path d="M371.991 348C387.991 348 403.991 348 420.001 348C420.001 355.99 419.991 363.98 420.001 371.98C423.991 371.98 427.981 371.99 431.991 372.02C431.991 380 432.001 387.98 432.011 395.98C435.991 395.98 439.971 396 443.971 396.02C443.981 400 444.001 403.99 444.031 408C448.001 407.98 451.991 407.98 456.001 407.99C455.981 411.98 455.981 415.98 456.001 420C455.981 423.99 455.991 427.99 456.001 432C443.991 431.99 432.001 431.99 420.001 432C419.991 427.99 419.991 423.99 420.001 420C424.001 419.99 428.021 419.99 432.041 420C431.981 412.1 431.871 404.2 431.691 396.31C427.791 396.16 423.901 396.03 420.031 395.91C420.001 391.94 419.981 387.98 419.971 384.03C415.981 384 412.001 383.98 408.031 383.97C408.001 379.98 407.981 376 407.971 372.03C403.981 372 400.001 371.98 396.031 371.98C396.001 367.98 395.991 363.99 395.981 360.01C387.991 360.01 379.991 359.98 372.011 359.99C371.991 355.98 371.991 351.99 371.991 348Z" fill="#DBC2B1"/>
<path d="M480.011 360C483.991 359.99 487.991 359.99 492.001 360C492.001 372 492.001 384 492.001 396.01C495.981 395.99 499.981 395.98 504.001 395.99C503.981 399.98 503.991 403.98 504.001 407.99C511.991 408.02 519.981 407.99 527.981 407.99C527.981 403.98 527.991 399.99 528.021 396.01C536.001 396 543.981 395.98 551.991 395.99C551.981 391.98 551.981 387.98 552.001 383.99C555.981 383.99 559.981 383.99 564.001 384.01C563.981 388 563.981 391.99 564.001 395.99C563.981 399.98 563.981 403.98 564.001 407.99C552.121 408.02 540.251 407.94 528.391 408.19C528.211 412.11 528.051 416.05 527.911 419.99C515.931 419.97 503.971 419.98 492.001 420.01C491.981 415.99 491.981 411.99 491.991 408C483.981 408 475.991 408 468.001 408C467.981 403.99 467.981 399.98 468.001 395.99C471.991 395.99 475.991 395.99 480.001 396.02C480.001 384.01 479.981 372 480.011 360Z" fill="#DBC2B1"/>
<path d="M468.001 347.992C471.981 347.992 475.981 348.002 479.991 348.012C479.981 352.002 479.991 355.992 480.011 360.002C476.001 359.992 472.001 359.982 468.011 359.992C467.991 355.982 467.991 351.982 468.001 347.992Z" fill="#EED0BB"/>
<path d="M504.01 348.01C507.99 348 511.99 347.99 516.01 348C515.99 351.99 515.98 355.99 515.99 360C511.98 359.99 507.98 359.98 503.99 360C503.99 355.99 503.99 352 504.01 348.01Z" fill="#DEB49B"/>
<path d="M551.99 348C555.98 347.99 559.98 347.99 563.99 348C563.98 351.99 563.98 355.99 564.01 360C559.99 359.99 555.99 359.98 552.01 359.99C551.99 355.98 551.98 351.99 551.99 348Z" fill="#C15A10"/>
<path d="M36 360C39.99 359.99 43.99 359.99 47.99 360C72 360 96 360 120 360C120 368 120 375.99 120 384.01C115.99 383.99 111.99 383.99 108 383.99C108 387.98 108 391.98 108.01 396C107.99 399.98 107.99 403.98 108 408C107.99 411.99 107.99 415.99 108 420C76 419.99 44 420 12 420C12 415.99 12 411.99 12 408.01C15.99 407.99 19.99 407.99 24 407.99C23.98 399.98 24.02 392 24 384.01C27.99 383.99 31.99 383.99 36 383.99C35.98 375.98 36.02 367.99 36 360Z" fill="#FFFCFA"/>
<path d="M180 360C183.99 359.99 187.99 359.99 192.01 360C191.99 363.98 191.99 367.98 191.99 371.99C187.98 371.98 183.99 371.99 180 372.01C179.99 367.99 179.99 363.99 180 360Z" fill="#D9B6A3"/>
<path d="M564.011 360C600.001 360 636.001 360 672.001 360C671.961 367.99 671.971 375.99 672.011 383.99C667.991 383.99 663.991 383.99 660.001 384.01C659.991 396 660.001 407.99 660.001 419.99C655.981 419.98 651.981 419.99 648.001 420.01C647.991 432 648.001 443.99 648.001 455.99C643.981 455.98 639.991 455.99 636.011 456.01C635.991 460 635.981 463.99 635.991 468C611.991 468 587.991 468 564.001 468C564.001 451.99 563.991 435.99 564.001 420C563.981 415.98 563.991 411.98 564.001 407.99C567.991 407.98 571.981 407.98 576.001 407.99C575.981 403.99 575.981 399.99 576.001 396.01C571.981 395.99 567.981 395.99 564.001 395.99C563.981 391.99 563.981 388 564.001 384.01C559.981 383.99 555.981 383.99 552.001 383.99C551.991 379.99 551.991 376 552.011 372.02C555.991 372 559.981 371.98 563.981 371.97C563.971 367.97 563.981 363.98 564.011 360Z" fill="#FFFCFB"/>
<path d="M336 372.012C339.99 371.992 343.99 371.992 348 371.992C347.99 375.992 347.99 379.992 348.01 384.012C343.99 383.992 339.99 383.982 336 383.992C335.99 379.992 335.99 375.992 336 372.012Z" fill="#A8460D"/>
<path d="M108 383.99C111.99 383.99 115.99 383.99 120 384.01C123.99 383.99 127.99 383.98 132 383.98C132 391.98 132 399.98 132 408C128 407.98 124.01 407.98 120.02 408C120 403.99 119.99 400 119.98 396.01C115.98 395.99 111.99 395.99 108.01 396C108 391.98 108 387.98 108 383.99Z" fill="#D9B7A4"/>
<path d="M180 383.999C184.01 383.989 188.03 383.979 192.05 383.989C191.99 387.979 191.94 391.969 191.91 395.979C195.93 395.979 199.96 395.999 203.99 396.029C203.98 400.009 203.99 403.999 204 408.009C200 407.989 196 407.989 192.02 407.989C191.99 411.989 191.97 415.989 191.96 420.009C179.97 419.999 167.98 419.989 156 419.999C155.99 415.989 155.99 411.989 156 407.999C164 407.999 171.99 407.989 180 407.999C179.99 399.989 179.99 391.989 180 383.999Z" fill="#D8B7A3"/>
<path d="M108.011 395.999C111.991 395.989 115.981 395.989 119.981 396.009C119.991 399.999 120.001 403.989 120.021 407.999C124.011 407.979 128.001 407.979 132.001 407.999C135.991 407.989 139.991 407.989 143.991 407.999C143.991 411.989 144.001 415.989 144.011 419.999C148.001 419.989 152.001 419.989 156.001 419.999C167.981 419.989 179.971 419.999 191.961 420.009C192.081 423.899 192.221 427.799 192.371 431.709C196.241 431.789 200.111 431.869 203.991 431.949C211.991 432.009 219.991 432.009 228.001 432.009C235.991 431.999 244.001 431.999 252.001 431.999C264.001 431.989 276.001 431.989 288.001 431.999C291.991 431.989 295.991 431.989 299.991 431.999C311.991 431.989 323.991 431.989 335.991 431.999C339.981 431.989 343.981 431.989 348.001 431.999C355.991 431.989 363.991 431.999 372.001 431.999C380.001 431.999 387.991 431.989 396.011 431.999C399.991 431.979 403.981 431.989 407.991 431.999C411.981 431.989 415.981 431.989 420.001 431.999C432.001 431.989 443.991 431.989 456.001 431.999C459.991 431.989 463.991 431.979 468.001 431.999C471.981 431.979 475.971 431.979 479.981 431.999C479.981 427.979 479.991 423.979 480.021 419.989C484.001 419.989 488.001 419.989 492.001 420.009C503.971 419.979 515.931 419.969 527.911 419.989C528.051 416.049 528.211 412.109 528.391 408.189C540.251 407.939 552.121 408.019 564.001 407.989C563.991 411.979 563.981 415.979 564.001 419.999C555.991 419.979 548.001 419.989 540.021 420.009C539.991 423.989 539.981 427.979 539.981 431.989C523.991 432.009 508.001 431.979 492.021 432.009C491.991 435.989 491.981 439.989 491.981 443.999C392.001 443.999 292.021 443.999 192.031 443.999C192.011 439.989 191.991 435.979 191.981 431.989C187.981 431.989 183.981 431.999 180.001 432.009C168.071 431.969 156.141 431.969 144.221 431.979C143.921 427.939 143.671 423.949 143.381 419.939C135.871 419.969 128.371 419.999 120.871 420.039C120.281 415.989 119.721 411.959 119.151 407.939C116.361 407.949 110.781 407.979 108.001 407.999C107.991 403.979 107.991 399.979 108.011 395.999Z" fill="#D3944A"/>
<path d="M563.999 395.992C567.979 395.992 571.979 395.992 575.999 396.012C575.979 399.992 575.979 403.992 575.999 407.992C571.979 407.982 567.989 407.982 563.999 407.992C563.979 403.982 563.979 399.982 563.999 395.992Z" fill="#F1DCC4"/>
<path d="M108 407.997C110.78 407.977 116.36 407.947 119.15 407.938C119.72 411.957 120.28 415.987 120.87 420.037C128.37 419.997 135.87 419.967 143.38 419.938C143.67 423.948 143.92 427.937 144.22 431.977C156.14 431.967 168.07 431.968 180 432.008C180 455.998 180 479.977 180 503.977C183.99 503.977 187.99 503.988 191.99 504.018C191.99 511.998 192 519.997 192 527.997C187.99 527.978 183.99 527.978 180 527.997C175.99 527.978 172 527.978 168.01 527.997C167.99 523.987 167.99 519.987 167.99 515.997C163.99 515.987 159.99 515.987 156 515.997C151.99 515.987 148 515.987 144.01 515.997C143.99 511.987 143.99 507.988 144 504.008C143.99 499.988 143.99 495.988 144 492.008C139.99 491.988 136 491.987 132.01 491.987C131.99 487.977 131.99 483.988 131.99 480.008C131.99 475.988 131.99 471.988 132 468.008C127.99 467.988 124 467.987 120.01 467.987C119.99 451.987 119.99 435.987 120 419.997C115.99 419.987 111.99 419.987 108 419.997C107.99 415.987 107.99 411.987 108 407.997Z" fill="#F1AD5E"/>
<path d="M143.99 408C147.99 407.99 151.99 407.99 156 408C155.99 411.99 155.99 415.99 156 420C152 419.99 148 419.99 144.01 420C144 415.99 143.99 411.99 143.99 408Z" fill="#D7AC87"/>
<path d="M216.02 407.992C220.01 407.992 224 407.992 228 408.012C227.99 416.002 228 424.012 228 432.012C219.99 432.012 211.99 432.012 203.99 431.952C203.99 427.952 203.99 423.972 204 420.002C207.99 419.992 211.98 419.992 215.98 420.012C215.99 415.992 216 411.992 216.02 407.992Z" fill="#A53E02"/>
<path d="M228.001 408.008C231.981 407.988 235.981 407.988 239.981 407.988C239.991 411.968 240.001 415.968 240.021 419.978C244.001 419.978 247.991 419.998 251.981 420.028C251.981 423.998 251.991 427.998 252.001 431.998C244.001 431.998 235.991 431.998 228.001 432.008C228.001 424.008 227.991 415.998 228.001 408.008Z" fill="#BD5002"/>
<path d="M347.99 408.01C350.84 407.99 356.53 407.95 359.38 407.93C359.67 411.89 359.9 415.83 360.2 419.81C364.13 420.09 368.11 420.41 372.07 420.74C372.05 423.56 372.02 429.19 372 432C363.99 432 355.99 431.99 348 432C347.99 427.98 347.99 423.98 348 419.99C347.99 415.99 347.98 411.99 347.99 408.01Z" fill="#BD5002"/>
<path d="M468.001 408C475.991 408 483.981 408 491.991 408C491.981 411.99 491.981 415.99 492.001 420.01C488.001 419.99 484.001 419.99 480.021 419.99C479.991 423.98 479.981 427.98 479.981 432C475.971 431.98 471.981 431.98 468.001 432C467.991 427.98 467.991 423.99 468.001 420C467.991 415.99 467.981 411.99 468.001 408Z" fill="#BD5002"/>
<path d="M276.01 408.009C280 407.989 283.99 407.989 288 407.999C287.99 411.989 287.99 415.989 288 419.999C283.99 419.989 279.98 419.979 275.99 419.999C275.99 415.989 276 411.989 276.01 408.009Z" fill="#B34802"/>
<path d="M455.999 407.991C459.979 407.981 463.979 407.981 467.999 408.001C467.979 411.991 467.989 415.991 467.999 420.001C463.989 419.991 459.979 419.991 455.999 420.001C455.979 415.981 455.979 411.981 455.999 407.991Z" fill="#CA997B"/>
<path d="M12 420C44 420 76 419.99 108 420C111.99 419.99 115.99 419.99 120 420C119.99 435.99 119.99 451.99 120.01 467.99C120 471.98 120 475.98 120 479.99C123.99 479.98 127.99 479.99 131.99 480.01C131.99 483.99 131.99 487.98 132.01 491.99C132 495.98 132 499.98 132 503.99C135.99 503.98 139.99 503.99 144 504.01C143.99 507.99 143.99 511.99 144.01 516C136 515.96 128 515.97 120.01 516.01C119.99 511.99 119.99 507.99 119.99 504C115.99 503.99 112 503.99 108.01 504C108 507.99 107.99 511.99 107.99 516C76 516 44 516 12.01 516C12 511.99 11.99 507.99 11.99 504.01C7.99001 503.99 3.99 503.98 0 503.99C0 479.99 0 456 0 432.01C3.99 431.99 7.99001 431.98 11.99 431.99C11.99 427.98 12 423.99 12 420Z" fill="#FEFDFC"/>
<path d="M191.961 420.009C195.961 419.989 199.981 419.989 204.001 419.999C203.991 423.969 203.991 427.949 203.991 431.949C200.111 431.869 196.241 431.789 192.371 431.709C192.221 427.799 192.081 423.899 191.961 420.009Z" fill="#C27530"/>
<path d="M336.01 420.012C340 419.992 343.99 419.992 348 419.992C347.99 423.982 347.99 427.982 348 432.002C343.98 431.992 339.98 431.992 335.99 432.002C335.99 427.992 336 424.002 336.01 420.012Z" fill="#A43F02"/>
<path d="M456 420.004C459.98 419.994 463.99 419.994 468 420.004C467.99 423.994 467.99 427.984 468 432.004C463.99 431.984 459.99 431.994 456 432.004C455.99 427.994 455.98 423.994 456 420.004Z" fill="#A43F02"/>
<path d="M408.01 420.009C411.99 419.989 415.99 419.989 420 419.999C419.99 423.989 419.99 427.989 420 431.999C415.98 431.989 411.98 431.989 407.99 431.999C407.99 427.989 407.99 423.999 408.01 420.009Z" fill="#AB4302"/>
<path d="M540.02 420.009C548 419.989 555.99 419.979 564 419.999C563.99 435.989 564 451.989 564 467.999C559.98 467.989 555.98 467.989 552 468.009C552 475.989 551.98 483.989 552 491.989C547.99 491.989 543.99 491.989 540 492.009C540 499.989 539.98 507.999 540 515.999C535.99 515.979 531.99 515.979 528 515.999C523.99 515.989 519.99 515.989 516.01 516.009C515.99 519.989 515.99 523.979 515.99 527.989C511.98 527.989 507.99 527.989 504.01 528.009C503.99 531.999 503.98 535.989 503.99 539.999C479.99 539.989 455.99 539.989 432 539.999C427.99 539.989 423.99 539.989 420.01 539.999C419.99 543.989 419.99 547.989 419.99 551.999C368 551.999 316 551.999 264.01 551.999C263.99 547.979 263.98 543.989 263.99 539.999C259.98 539.989 255.99 539.989 252 539.999C236 539.989 220 539.999 204.01 539.999C203.99 535.989 203.98 531.989 203.99 528.009C199.98 527.989 195.99 527.989 192 527.999C192 519.999 191.99 511.999 191.99 504.019C187.99 503.989 183.99 503.979 180 503.979C180 479.979 180 455.999 180 432.009C183.98 431.999 187.98 431.989 191.98 431.989C191.99 435.979 192.01 439.989 192.03 443.999C292.02 443.999 392 443.999 491.98 443.999C491.98 439.989 491.99 435.989 492.02 432.009C508 431.979 523.99 432.009 539.98 431.989C539.98 427.979 539.99 423.989 540.02 420.009ZM515.99 467.999C516.01 475.989 516.01 483.989 515.99 491.999C519.98 491.989 523.99 491.989 528.01 491.999C527.97 483.999 527.98 475.989 528.01 467.999C523.99 467.979 519.98 467.979 515.99 467.999ZM504 491.999C503.98 495.989 503.98 499.989 504 503.999C507.99 503.989 511.99 503.989 516 503.999C515.99 499.979 515.98 495.979 515.99 491.999C511.98 491.989 507.98 491.989 504 491.999Z" fill="#F2C45E"/>
<path d="M132.01 491.988C136 491.988 139.99 491.988 144 492.008C143.99 495.988 143.99 499.988 144 504.008C139.99 503.988 135.99 503.978 132 503.988C132 499.978 132 495.978 132.01 491.988Z" fill="#F2C45E"/>
<path d="M156 516C159.99 515.99 163.99 515.99 167.99 516C167.99 519.99 167.99 523.99 168.01 528C164 527.99 159.99 527.99 156 528C155.99 523.99 155.99 519.99 156 516Z" fill="#F2C45E"/>
<path d="M180 527.999C183.99 527.979 187.99 527.979 192 527.999C191.99 531.979 191.99 535.979 192 539.999C187.99 539.989 183.99 539.989 180 539.999C179.99 535.979 179.99 531.979 180 527.999Z" fill="#F2C45E"/>
<path d="M120.01 467.992C124 467.992 127.99 467.992 132 468.012C131.99 471.992 131.99 475.992 131.99 480.012C127.99 479.992 123.99 479.982 120 479.992C120 475.982 120 471.982 120.01 467.992Z" fill="#F5D385"/>
<path d="M515.99 467.999C519.98 467.979 523.99 467.979 528.01 467.999C527.98 475.989 527.97 483.999 528.01 491.999C523.99 491.989 519.98 491.989 515.99 491.999C516.01 483.989 516.01 475.989 515.99 467.999Z" fill="#FEFBFF"/>
<path d="M503.999 492C507.979 491.99 511.979 491.99 515.989 492C515.979 495.98 515.989 499.98 515.999 504C511.989 503.99 507.989 503.99 503.999 504C503.979 499.99 503.979 495.99 503.999 492Z" fill="#FEFCFF"/>
<path d="M516.01 516.009C519.99 515.989 523.99 515.989 528 515.999C527.99 519.989 527.99 523.979 528 527.999C523.98 527.979 519.98 527.979 515.99 527.989C515.99 523.979 515.99 519.989 516.01 516.009Z" fill="#FAE5B7"/>
<path d="M192 527.999C195.99 527.989 199.98 527.989 203.99 528.009C203.98 531.989 203.99 535.989 204.01 539.999C200 539.979 195.99 539.989 192 539.999C191.99 535.979 191.99 531.979 192 527.999Z" fill="#F2AD5E"/>
<path d="M252 540C255.99 539.99 259.98 539.99 263.99 540C263.98 543.99 263.99 547.98 264.01 552C259.99 551.99 255.99 551.99 252 552C251.99 547.99 251.99 543.99 252 540Z" fill="#F7DA9A"/>
<path d="M420.01 540C423.99 539.99 427.99 539.99 432 540C431.99 543.98 431.99 547.98 432 552C427.99 551.99 423.98 551.99 419.99 552C419.99 547.99 419.99 543.99 420.01 540Z" fill="#F9E1AD"/>
</svg>
