<svg width="673" height="648" viewBox="0 0 673 648" fill="none" xmlns="http://www.w3.org/2000/svg">
<path d="M372.019 0.015C400.009 -0.005 427.999 -0.005 455.999 0.015C455.989 4.005 455.999 7.99501 456.019 11.995C468.009 12.025 480.009 11.985 492.009 12.015C491.999 16.005 491.989 20.005 492.009 24.005C468.019 24.015 444.029 23.985 420.039 24.015C420.009 28.005 419.989 32.005 419.979 36.005C415.989 35.995 412.009 35.995 408.039 36.005C408.009 32.005 407.989 28.005 407.979 24.015C395.999 23.995 384.019 23.995 372.039 24.015C372.009 28.005 371.989 32.005 371.979 36.005C367.989 35.995 364.009 35.995 360.039 36.005C360.009 32.005 359.989 28.005 359.979 24.015C355.979 24.005 351.989 24.005 348.009 24.005C347.999 20.005 347.999 16.005 348.009 12.015C355.989 11.995 363.999 12.015 371.999 11.995C371.999 7.99501 371.999 4.005 372.019 0.015Z" fill="#FFE6E6"/>
<path d="M324.029 24.0036C332.009 23.9936 340.009 23.9936 348.009 24.0036C351.989 24.0036 355.979 24.0036 359.979 24.0136C359.989 28.0036 360.009 32.0036 360.039 36.0036C364.009 35.9936 367.989 35.9936 371.979 36.0036C371.989 32.0036 372.009 28.0036 372.039 24.0136C384.019 23.9936 395.999 23.9936 407.979 24.0136C407.989 28.0036 408.009 32.0036 408.039 36.0036C412.009 35.9936 415.989 35.9936 419.979 36.0036C419.989 32.0036 420.009 28.0036 420.039 24.0136C444.029 23.9836 468.019 24.0136 492.009 24.0036C499.989 23.9936 507.989 23.9936 515.999 24.0136C515.989 28.0036 515.999 31.9936 516.019 35.9936C523.999 36.0036 531.999 36.0036 539.999 36.0136C539.989 40.0036 539.999 43.9936 540.029 47.9836C543.999 47.9936 547.999 48.0036 552.009 48.0236C551.989 52.0036 551.989 56.0036 552.009 60.0036C464.009 60.0036 376.009 60.0036 288.009 60.0036C287.999 56.0036 287.999 52.0036 288.009 48.0136C291.999 48.0036 295.999 48.0036 300.009 48.0036C303.989 47.9936 307.989 47.9936 311.989 47.9936C311.989 43.9936 311.999 40.0036 312.019 36.0136C315.999 36.0036 319.989 35.9936 323.989 35.9836C323.989 31.9836 323.999 27.9936 324.029 24.0036Z" fill="#FFE8E8"/>
<path d="M300.009 36.0039C303.999 36.0039 308.009 36.0039 312.019 36.0139C311.999 40.0039 311.989 43.9939 311.989 47.9939C307.989 47.9939 303.989 47.9939 300.009 48.0039C299.999 43.9939 299.999 39.9939 300.009 36.0039Z" fill="#FFF2F2"/>
<path d="M276.009 60.0044C279.999 60.0044 283.999 59.9944 288.009 60.0044C376.009 60.0044 464.009 60.0044 552.009 60.0044C555.989 59.9944 559.989 60.0044 564.009 60.0044C563.989 64.0044 563.989 68.0044 564.009 72.0044C468.009 72.0044 372.009 72.0044 276.009 72.0044C275.999 67.9944 275.999 64.0044 276.009 60.0044Z" fill="#FFEAEA"/>
<path d="M264.029 72.0044C268.009 72.0044 271.999 72.0044 276.009 72.0044C372.009 72.0044 468.009 72.0044 564.009 72.0044C571.989 71.9944 579.989 72.0044 587.999 72.0044C587.989 75.9944 587.999 79.9944 588.029 83.9844C591.999 83.9944 595.999 84.0044 600.009 84.0144C599.999 92.0044 600.009 100.004 600.009 108.004C480.009 108.004 360.009 108.004 240.009 108.004C239.999 104.004 239.999 100.014 240.009 96.0244C243.999 96.0044 247.989 95.9945 251.989 95.9845C251.999 91.9945 252.009 88.0044 252.029 84.0244C256.009 84.0044 259.989 83.9944 263.989 83.9844C263.989 79.9944 263.999 75.9944 264.029 72.0044Z" fill="#FFEBEB"/>
<path d="M228.009 108.004C231.999 107.994 235.999 107.994 240.009 108.004C360.009 108.004 480.009 108.004 600.009 108.004C603.989 107.994 607.989 108.004 612.009 108.004C611.989 112.004 611.989 115.994 612.009 120.004C484.009 120.004 356.009 120.004 228.009 120.004C227.999 115.994 227.999 111.994 228.009 108.004Z" fill="#FFEDED"/>
<path d="M216.019 120.004C220.009 119.994 223.999 119.994 228.009 120.004C356.009 120.004 484.009 120.004 612.009 120.004C615.989 119.994 619.989 119.994 623.999 120.004C623.989 124.004 623.989 128.004 624.009 132.004C623.999 135.994 623.999 139.984 624.019 143.984C627.999 143.984 631.989 143.994 636.009 144.004C635.989 147.994 635.989 151.994 636.009 156.004C492.009 156.004 348.009 156.004 204.009 156.004C203.999 152.004 203.999 148.004 204.009 144.024C207.999 144.004 211.999 143.994 215.999 143.994C216.009 135.984 215.999 127.994 216.019 120.004Z" fill="#FFEEEE"/>
<path d="M192.009 156.004C195.999 155.994 199.999 155.994 204.009 156.004C348.009 156.004 492.009 156.004 636.009 156.004C639.989 155.994 643.989 155.994 648.009 156.004C647.989 159.994 647.989 163.994 648.009 168.004C496.009 168.004 344.009 168.004 192.009 168.004C191.999 163.994 191.999 159.994 192.009 156.004Z" fill="#FFF0F0"/>
<path d="M180.029 168.004C184.009 168.004 188.009 167.994 192.009 168.004C344.009 168.004 496.009 168.004 648.009 168.004C647.989 171.994 647.999 175.984 648.029 179.984C651.999 179.994 655.999 180.004 660.009 180.014C659.989 188.004 660.009 196.004 659.999 204.004C495.999 203.994 332.009 204.004 168.009 204.004C167.999 196.004 167.999 188.004 168.009 180.014C171.999 179.994 175.989 179.994 179.989 179.984C179.999 175.984 180.009 171.994 180.029 168.004Z" fill="#FFF1F1"/>
<path d="M156.03 204.014C160.01 204.004 164.01 203.994 168.01 204.004C332.01 204.004 496 203.994 660 204.004C659.99 207.994 660 211.984 660.03 215.984C664 215.984 668 216.004 672.01 216.024C671.99 220.004 671.99 224.004 672.01 228.004C600.01 228.004 528.01 228.004 456.01 228.004C455.99 223.994 455.99 219.994 456.01 216.004C448 215.994 440.01 216.004 432.02 216.004C416.02 215.994 400.03 216.004 384.04 216.004C384.01 219.994 383.99 223.994 383.98 227.994C379.98 227.994 375.99 227.994 372.02 228.004C296.02 228.004 220.01 228.004 144.01 228.004C144 224.004 144.01 220.004 144.01 216.024C148 216.004 151.99 215.994 155.99 215.984C156 211.984 156.01 207.994 156.03 204.014Z" fill="#FFF3F3"/>
<path d="M384.04 216.004C400.03 216.004 416.02 215.994 432.02 216.004C431.99 219.984 431.98 223.964 431.98 227.964C427.99 227.984 424.02 228.004 420.05 228.044C420.01 232.004 419.98 235.984 419.97 239.964C415.99 239.984 412.01 240.004 408.05 240.044C408.01 244.004 407.99 247.984 407.97 251.964C403.98 251.984 400.01 252.004 396.05 252.044C396.01 256.004 395.99 259.984 395.97 263.964C391.98 263.984 388.01 264.004 384.05 264.044C384.01 268.014 383.99 271.994 383.98 275.984C375.98 275.984 368 276.004 360.02 276.014C360 280.004 360 284.004 360 288.004C355.99 287.994 352 287.994 348.01 288.004C348 280.004 348.01 272.004 348.01 264.014C351.99 263.994 355.99 263.994 360 263.994C359.99 255.994 360.01 248.014 360.02 240.024C364 240.004 367.99 239.984 371.99 239.974C371.99 235.974 372 231.984 372.02 228.004C375.99 227.994 379.98 227.994 383.98 227.994C383.99 223.994 384.01 219.994 384.04 216.004Z" fill="#09A56E"/>
<path d="M432.02 216.004C440.01 216.004 448 215.994 456.01 216.004C455.99 219.994 455.99 223.994 456.01 228.004C456.01 235.994 456.01 243.984 456 251.984C452 251.994 448.01 252.004 444.03 252.034C444.01 256.014 444 260.004 444 264.004C440 263.994 436.02 264.004 432.05 264.014C432.01 267.994 431.99 271.974 431.97 275.974C427.98 275.984 424 276.004 420.03 276.034C420.01 280.014 420 284.004 420 288.004C400 288.004 380 288.004 360 288.004C360 284.004 360 280.004 360.02 276.014C368 276.004 375.98 275.984 383.98 275.984C383.99 271.994 384.01 268.014 384.05 264.044C388.01 264.004 391.98 263.984 395.97 263.964C395.99 259.984 396.01 256.004 396.05 252.044C400.01 252.004 403.98 251.984 407.97 251.964C407.99 247.984 408.01 244.004 408.05 240.044C412.01 240.004 415.99 239.984 419.97 239.964C419.98 235.984 420.01 232.004 420.05 228.044C424.02 228.004 427.99 227.984 431.98 227.964C431.98 223.964 431.99 219.984 432.02 216.004Z" fill="#098E5F"/>
<path d="M12.0098 564.004C20.0098 563.974 28.0098 563.994 36.0098 564.004C36.0098 567.974 36.0198 571.964 36.0298 575.964C40.0098 575.974 43.9898 576.004 47.9698 576.044C47.9898 580.004 48.0198 583.974 48.0498 587.964C52.0198 587.974 55.9898 588.004 59.9698 588.044C59.9898 592.004 60.0198 595.974 60.0498 599.964C64.0198 599.974 67.9898 600.004 71.9698 600.044C71.9898 604.004 72.0198 607.974 72.0498 611.964C76.0198 611.974 79.9898 612.004 83.9698 612.044C83.9898 616.004 84.0098 619.984 84.0398 623.984C92.0198 623.974 99.9998 623.994 107.98 624.024C108 627.964 108.02 631.924 108.05 635.904C111.91 636.024 115.77 636.164 119.63 636.334C119.77 640.204 119.92 644.094 120.07 647.994C104.05 647.994 88.0398 648.004 72.0198 648.004C72.0098 643.994 71.9998 639.994 71.9998 636.014C63.9998 635.984 56.0098 636.004 48.0198 635.994C48.0098 631.984 47.9998 627.994 47.9898 624.024C43.9998 623.994 40.0098 623.984 36.0298 623.984C36.0098 619.984 35.9998 615.994 35.9898 612.024C31.9998 611.994 28.0098 611.984 24.0198 611.984C23.9998 603.984 24.0098 596.004 23.9998 588.014C19.9998 587.994 15.9998 587.984 12.0098 587.994C12.0098 579.984 12.0098 571.994 12.0098 564.004Z" fill="#098E5F"/>
<path d="M132.02 228.004C136.01 227.994 140 227.994 144.01 228.004C220.01 228.004 296.02 228.004 372.02 228.004C372 231.984 371.99 235.974 371.99 239.974C367.99 239.984 364 240.004 360.02 240.024C360.01 248.014 359.99 255.994 360 263.994C355.99 263.994 351.99 263.994 348.01 264.014C344 263.994 340.01 263.994 336.02 263.994C336.01 255.994 336 248.004 336 240.014C324 239.984 312 239.984 300.01 240.014C300 243.994 300 247.984 300.02 251.974C304 251.984 307.99 252.004 311.99 252.034C311.99 256.014 312 260.004 312.02 263.994C248.01 264.004 184.01 264.004 120.01 264.004C120 260.004 120.01 256.004 120.01 252.024C124 252.004 128 251.994 132 251.994C132.01 243.984 132 235.994 132.02 228.004Z" fill="#FFF4F4"/>
<path d="M456.01 228.004C528.01 228.004 600.01 228.004 672.01 228.004C672 239.994 672.01 252.004 672.01 264.004C596 264.004 520 264.004 444 264.004C444 260.004 444.01 256.014 444.03 252.034C448.01 252.004 452 251.994 456 251.984C456.01 243.984 456.01 235.994 456.01 228.004Z" fill="#FFF4F4"/>
<path d="M300.01 240.015C312 239.985 324 239.985 336 240.015C336 248.005 336.01 255.995 336.02 263.995C340.01 263.995 344 263.995 348.01 264.015C348.01 272.005 348 280.005 348.01 288.005C348 291.985 348 295.975 348.02 299.965C352 299.985 355.99 300.005 360 300.035C360 308.015 360.01 316.015 360.01 324.005C352 323.995 344.01 324.005 336.01 324.005C336.02 312.015 336.01 300.035 335.99 288.055C331.99 288.015 328 287.995 324.02 287.975C324.01 279.975 324 271.995 324 264.005C319.99 263.995 316 263.995 312.02 263.995C312 260.005 311.99 256.015 311.99 252.035C307.99 252.005 304 251.985 300.02 251.975C300 247.985 300 243.995 300.01 240.015Z" fill="#C1844B"/>
<path d="M108.03 264.006C112.01 263.996 116.01 263.996 120.01 264.006C184.01 264.006 248.01 264.006 312.02 263.996C316 263.996 319.99 263.996 324 264.006C324 271.996 324.01 279.976 324.02 287.976C328 287.996 331.99 288.016 335.99 288.056C336.01 300.036 336.02 312.016 336.01 324.006C324.01 323.996 312.01 324.006 300.01 324.006C300 319.996 299.99 315.996 300 312.016C295.99 312.006 291.99 311.996 288 312.006C284 311.996 280 311.996 276.02 312.006C260.02 312.006 244.02 311.996 228.02 312.006C180.01 312.006 132.01 312.006 84.0103 312.006C84.0003 304.006 84.0103 296.006 84.0103 288.016C88.0003 287.996 91.9903 287.986 95.9903 287.986C96.0003 283.996 96.0103 280.006 96.0303 276.026C100.01 276.006 104 275.996 107.99 275.986C108 271.986 108.01 267.996 108.03 264.006Z" fill="#FFF6F6"/>
<path d="M432.05 264.018C436.02 264.008 440 263.998 444 264.008C520 264.008 596 264.008 672.01 264.008C672 271.998 672.01 280.008 672.01 288.008C588 288.008 504 288.008 420 288.008C420 284.008 420.01 280.018 420.03 276.038C424 276.008 427.98 275.988 431.97 275.978C431.99 271.978 432.01 267.998 432.05 264.018Z" fill="#FFF6F6"/>
<path d="M348.01 288.004C352 287.994 355.99 287.994 360 288.004C380 288.004 400 288.004 420 288.004C504 288.004 588 288.004 672.01 288.004C672 295.994 672.01 304.004 672.01 312.004C600 312.004 528 312.004 456 312.004C436 311.994 416.01 312.004 396.02 312.004C392.01 311.994 388.01 311.994 384.03 312.014C384.01 315.994 384 319.994 384 324.004C376 323.994 368 324.004 360.01 324.004C360.01 316.014 360 308.014 360 300.034C355.99 300.004 352 299.984 348.02 299.964C348 295.974 348 291.984 348.01 288.004Z" fill="#FFF7F7"/>
<path d="M72.0294 312.004C76.0094 311.994 80.0095 311.994 84.0095 312.004C132.009 312.004 180.009 312.004 228.019 312.004C227.999 315.984 227.989 319.984 227.989 323.994C219.989 323.984 212.009 324.004 204.019 324.014C204.009 331.994 204.009 339.984 203.989 347.984C199.999 347.984 196.019 348.004 192.049 348.034C192.019 352.014 191.989 355.994 191.979 359.994C187.979 359.984 183.989 359.994 180.009 360.004C136.009 360.004 92.0095 360.004 48.0095 360.004C47.9995 351.994 47.9995 344.004 48.0095 336.014C51.9995 335.994 55.9895 335.984 59.9895 335.984C59.9995 331.994 60.0094 328.004 60.0294 324.024C64.0094 324.004 67.9995 323.994 71.9895 323.984C71.9995 319.984 72.0094 315.994 72.0294 312.004Z" fill="#FFF8F8"/>
<path d="M455.999 312.004C527.999 312.004 599.999 312.004 672.009 312.004C672.009 328.004 672.009 344.004 672.009 360.004C616.009 360.004 560.009 360.004 504.009 360.004C499.999 359.994 495.999 359.994 492.019 359.994C492.009 352.004 491.979 344.014 491.989 336.034C487.999 336.004 484.009 335.984 480.039 335.964C480.009 331.974 479.989 327.994 479.989 324.014C471.989 324.004 463.999 323.984 456.029 323.984C455.999 319.984 455.999 315.984 455.999 312.004Z" fill="#FFF8F8"/>
<path d="M228.02 312.004C244.02 311.994 260.02 312.004 276.02 312.004C276 315.984 275.99 319.964 275.98 323.964C272 323.984 268.02 324.004 264.05 324.044C264.01 328.004 263.99 331.984 263.97 335.964C259.98 335.974 256 336.004 252.03 336.034C252.01 344.004 252.01 351.994 251.99 359.984C247.99 359.984 244.01 360.004 240.03 360.034C240.01 368.004 240.01 375.994 239.99 383.984C235.99 383.984 232 384.004 228.02 384.034C228 424.004 228 463.984 228.02 503.954C232 503.974 236 503.994 240 504.034C240.01 516.004 240.01 527.984 240.03 539.964C244 539.974 247.98 540.004 251.97 540.044C251.99 544.004 252.01 547.974 252.05 551.964C256.01 551.974 259.99 552.004 263.97 552.044C263.99 556.004 264.01 559.974 264.05 563.964C268.01 563.974 271.99 564.004 275.97 564.044C275.98 568.004 276.01 571.994 276.04 575.984C284.01 575.984 292 575.994 299.99 576.014C299.99 580.014 300.01 584.014 300.04 588.034C311.89 588.024 323.75 587.974 335.61 587.714C335.77 583.804 335.94 579.904 336.11 576.034C348.06 575.984 360.02 575.974 371.98 576.024C371.99 579.994 372.01 583.984 372.04 587.994C380.02 587.984 388.01 587.994 396 588.014C395.99 591.994 396 595.994 396.02 600.004C380.02 599.994 364.02 600.004 348.03 600.004C348 595.984 347.99 591.984 347.99 588.004C343.99 587.994 340 587.994 336.03 588.004C336 591.984 335.99 595.984 336 599.994C308 600.014 280.01 600.004 252.02 599.994C252 595.994 251.99 591.994 251.99 588.024C248 587.994 244.01 587.984 240.03 587.984C240.01 583.984 240 579.994 239.99 576.024C235.99 575.994 232 575.984 228.02 575.994C228 571.994 227.99 568.014 227.98 564.044C224 564.004 220.02 563.974 216.05 563.964C216.02 559.974 215.99 556.004 215.97 552.044C211.98 552.004 208 551.984 204.03 551.974C204.01 543.974 204.01 536.004 203.99 528.024C200 527.994 196.01 527.984 192.03 527.974C192.01 519.984 192.01 512.004 191.99 504.024C188 503.994 184.01 503.984 180.02 503.974C180 491.974 180.01 479.984 180.01 468.004C180 463.994 180 459.994 180.01 456.014C180 452.004 179.99 448.004 180 444.014C176 444.004 172 443.994 168.01 443.994C168.01 432.014 168 420.024 168.02 408.054C172.01 408.014 176 407.984 180.01 407.974C180 403.974 180 399.984 180.01 396.004C180 383.994 180.01 372.004 180.01 360.004C183.99 359.994 187.98 359.984 191.98 359.994C191.99 355.994 192.02 352.014 192.05 348.034C196.02 348.004 200 347.984 203.99 347.984C204.01 339.984 204.01 331.994 204.02 324.014C212.01 324.004 219.99 323.984 227.99 323.994C227.99 319.984 228 315.984 228.02 312.004Z" fill="#D13A33"/>
<path d="M276.019 312.004C279.999 311.994 283.999 311.994 287.999 312.004C287.999 315.994 288.009 319.994 288.029 324.004C292.009 323.994 296.009 323.994 300.009 324.004C312.009 324.004 324.009 323.994 336.009 324.004C344.009 324.004 351.999 323.994 360.009 324.004C367.999 324.004 375.999 323.994 383.999 324.004C387.989 323.994 391.979 323.984 395.999 323.994C395.989 319.994 395.999 315.994 396.019 312.004C416.009 312.004 435.999 311.994 455.999 312.004C455.999 315.984 455.999 319.984 456.029 323.984C463.999 323.984 471.989 324.004 479.989 324.014C479.989 327.994 480.009 331.974 480.039 335.964C484.009 335.984 487.999 336.004 491.989 336.034C491.979 344.014 492.009 352.004 492.019 359.994C495.999 359.994 499.999 359.994 504.009 360.004C503.989 371.984 503.999 383.964 504.029 395.954C508.009 395.974 511.999 395.994 515.999 396.034C515.999 404.014 515.999 412.004 516.009 420.004C516.009 435.994 515.999 451.984 515.999 467.974C511.989 467.984 507.999 468.004 504.019 468.034C503.999 480.014 504.009 492.004 504.009 503.994C499.999 503.984 495.999 503.994 492.019 504.024C491.999 508.004 491.999 511.994 492.009 516.004C491.989 519.984 491.989 523.974 491.999 527.984C487.989 527.984 483.999 527.994 480.019 528.014C479.989 535.994 480.009 543.994 479.999 551.994C475.999 551.984 472.009 551.994 468.029 552.024C467.999 555.994 467.989 559.984 467.989 563.984C463.989 563.984 459.999 563.994 456.029 564.024C455.999 567.994 455.989 571.984 455.989 575.984C451.989 575.984 447.999 575.994 444.029 576.024C443.999 579.994 443.989 583.984 443.989 587.984C439.989 587.984 435.999 587.994 432.029 588.024C431.999 591.994 431.989 595.994 431.989 599.994C419.999 600.004 408.009 599.994 396.019 600.004C395.999 595.994 395.989 591.994 395.999 588.014C388.009 587.994 380.019 587.984 372.039 587.994C372.009 583.984 371.989 579.994 371.979 576.024C360.019 575.974 348.059 575.984 336.109 576.034C335.939 579.904 335.769 583.804 335.609 587.714C323.749 587.974 311.889 588.024 300.039 588.034C300.009 584.014 299.989 580.014 299.989 576.014C291.999 575.994 284.009 575.984 276.039 575.984C276.009 571.994 275.979 568.004 275.969 564.044C271.989 564.004 268.009 563.974 264.049 563.964C264.009 559.974 263.989 556.004 263.969 552.044C259.989 552.004 256.009 551.974 252.049 551.964C252.009 547.974 251.989 544.004 251.969 540.044C247.979 540.004 243.999 539.974 240.029 539.964C240.009 527.984 240.009 516.004 239.999 504.034C235.999 503.994 231.999 503.974 228.019 503.954C227.999 463.984 227.999 424.004 228.019 384.034C231.999 384.004 235.989 383.984 239.989 383.984C240.009 375.994 240.009 368.004 240.029 360.034C244.009 360.004 247.989 359.984 251.989 359.984C252.009 351.994 252.009 344.004 252.029 336.034C255.999 336.004 259.979 335.974 263.969 335.964C263.989 331.984 264.009 328.004 264.049 324.044C268.019 324.004 271.999 323.984 275.979 323.964C275.989 319.964 275.999 315.984 276.019 312.004ZM444.009 360.004C443.999 371.994 443.999 383.984 444.019 395.994C447.999 395.984 451.989 395.994 455.999 396.014C456.009 404.004 455.989 411.994 456.019 420.004C459.999 419.994 463.999 419.994 468.009 420.004C471.999 419.994 475.999 419.994 480.009 420.004C479.989 415.994 479.989 411.994 480.009 408.004C475.999 407.994 471.999 407.994 468.009 408.004C467.999 396.004 468.009 384.014 467.999 372.024C463.999 371.994 460.009 371.984 456.029 371.984C455.999 367.984 455.989 363.994 455.989 360.004C451.989 359.994 447.989 359.994 444.009 360.004Z" fill="#E14841"/>
<path d="M288 312.004C291.99 311.994 295.99 312.004 300 312.014C299.99 315.994 300 319.994 300.01 324.004C296.01 323.994 292.01 323.994 288.03 324.004C288.01 319.994 288 315.994 288 312.004Z" fill="#FAD7D5"/>
<path d="M384.03 312.013C388.01 311.993 392.01 311.993 396.02 312.003C396 315.993 395.99 319.993 396 323.993C391.98 323.983 387.99 323.993 384 324.003C384 319.993 384.01 315.993 384.03 312.013Z" fill="#F8CCCA"/>
<path d="M36.0198 360.004C40.0098 359.994 44.0098 359.994 48.0098 360.004C92.0098 360.004 136.01 360.004 180.01 360.004C180.01 372.004 180 383.994 180.01 396.004C128.01 396.004 76.0098 396.004 24.0198 396.004C24.0098 391.994 24.0098 388.004 24.0098 384.024C27.9998 384.004 31.9998 383.984 35.9998 383.994C36.0098 375.984 35.9998 367.994 36.0198 360.004Z" fill="#FFFAFA"/>
<path d="M504.01 360.004C560.01 360.004 616.01 360.004 672.01 360.004C672 367.994 672.01 375.994 672.01 383.994C667.99 383.994 664 384.004 660.02 384.014C659.98 396.004 660.02 408.004 660 420.004C655.99 419.994 651.99 419.994 648.01 420.004C636.02 419.984 624.03 419.994 612.06 420.024C612.01 424.004 611.99 427.994 611.98 432.004C607.98 431.994 604 431.994 600.04 432.004C600.01 427.994 599.99 423.994 599.98 420.004C583.99 420.004 568.01 419.994 552.03 420.004C552 423.994 551.98 427.994 551.98 432.004C547.99 431.984 544.01 431.994 540.04 432.004C540.01 427.994 539.99 423.994 539.98 420.014C531.98 419.994 524 419.994 516.01 420.004C516 412.004 516 404.014 516 396.034C512 395.994 508.01 395.974 504.03 395.954C504 383.964 503.99 371.984 504.01 360.004Z" fill="#FFFAFA"/>
<path d="M444.01 360.004C447.99 359.994 451.99 359.994 455.99 360.004C455.99 363.994 456 367.984 456.03 371.984C460.01 371.984 464 371.994 468 372.024C468.01 384.014 468 396.004 468.01 408.004C467.99 411.994 467.99 415.994 468.01 420.004C464 419.994 460 419.994 456.02 420.004C455.99 411.994 456.01 404.004 456 396.014C451.99 395.994 448 395.984 444.02 395.994C444 383.984 444 371.994 444.01 360.004Z" fill="#FEFAFA"/>
<path d="M24.0205 396.004C76.0105 396.004 128.01 396.004 180.01 396.004C180 399.984 180 403.974 180.01 407.974C176 407.984 172.01 408.014 168.02 408.054C168 420.024 168.01 432.014 168.01 443.994C168 447.984 168 451.974 168.01 455.994C172 455.984 176.01 455.994 180.01 456.014C180 459.994 180 463.994 180.01 468.004C132.02 467.994 84.0405 468.024 36.0505 467.984C32.0205 467.964 27.9905 467.964 23.9605 467.994C15.9705 468.074 8.00047 468.264 0.0204713 468.674C0.000471346 456.454 0.000476839 444.234 0.0104768 432.024C4.01048 431.994 8.00048 431.984 12.0005 431.984C12.0105 423.984 12.0105 416.004 12.0205 408.014C16.0105 407.994 20.0005 407.984 23.9905 407.984C24.0005 403.984 24.0005 399.984 24.0205 396.004Z" fill="#FFFBFB"/>
<path d="M468.009 408.004C471.999 407.994 475.999 407.994 480.009 408.004C479.989 411.994 479.989 415.994 480.009 420.004C475.999 419.994 471.999 419.994 468.009 420.004C467.989 415.994 467.989 411.994 468.009 408.004Z" fill="#F8CECD"/>
<path d="M516.009 420.006C523.999 419.996 531.979 419.997 539.979 420.017C539.989 423.997 540.009 427.996 540.039 432.006C544.009 431.996 547.989 431.986 551.979 432.006C551.979 427.996 551.999 423.996 552.029 420.006C568.009 419.996 583.989 420.006 599.979 420.006C599.989 423.996 600.009 427.996 600.039 432.006C603.999 431.996 607.979 431.996 611.979 432.006C611.989 427.996 612.009 424.007 612.059 420.027C624.029 419.997 636.019 419.986 648.009 420.006C647.999 431.996 648.009 443.986 647.999 455.976C643.989 455.986 639.999 455.997 636.019 456.027C635.989 464.007 636.009 471.996 635.999 479.996C631.989 479.986 627.999 479.997 624.019 480.017C623.989 487.997 624.009 495.996 623.999 503.996C619.989 503.986 615.999 503.997 612.029 504.027C611.999 508.007 611.989 511.996 611.989 516.006C575.999 516.006 539.999 516.006 504.009 516.006C503.989 511.986 503.989 507.986 504.009 503.996C504.009 492.006 503.999 480.017 504.019 468.037C507.999 468.007 511.989 467.986 515.999 467.976C515.999 451.986 516.009 435.996 516.009 420.006Z" fill="#FFFCFC"/>
<path d="M168.009 443.996C171.999 443.996 175.999 444.006 179.999 444.016C179.989 448.006 179.999 452.006 180.009 456.016C176.009 455.996 171.999 455.986 168.009 455.996C167.999 451.976 167.999 447.986 168.009 443.996Z" fill="#E89A97"/>
<path d="M0.0189339 468.674C7.99893 468.264 15.9689 468.074 23.9589 467.994C24.0989 471.874 24.2389 475.774 24.3989 479.694C28.1289 479.674 31.8789 479.674 35.6189 479.694C35.7689 475.774 35.9089 471.874 36.0489 467.984C84.0389 468.024 132.019 467.994 180.009 468.004C180.009 479.984 179.999 491.974 180.019 503.974C184.009 503.984 187.999 503.994 191.989 504.024C192.009 512.004 192.009 519.984 192.029 527.974C196.009 527.984 199.999 527.994 203.989 528.024C204.009 536.004 204.009 543.974 204.029 551.974C207.999 551.984 211.979 552.004 215.969 552.044C215.989 556.004 216.019 559.974 216.049 563.964C220.019 563.974 223.999 564.004 227.979 564.044C227.989 568.014 227.999 571.994 228.019 575.994C184.009 576.014 140.009 576.004 95.9989 576.004C88.0089 576.004 80.0189 575.994 72.0289 575.994C72.0089 571.984 71.9889 567.994 71.9789 564.014C59.9889 564.004 47.9989 563.994 36.0089 564.004C35.9989 559.994 35.9889 556.004 35.9889 552.024C31.9989 551.994 28.0089 551.984 24.0289 551.984C24.0089 547.984 23.9989 543.994 23.9889 540.024C19.9989 539.994 16.0089 539.984 12.0189 539.984C11.9889 527.994 12.0289 516.004 11.9989 504.024C7.99895 503.994 4.00893 503.984 0.0189339 503.984C-0.00106609 492.214 -0.0110661 480.444 0.0189339 468.674ZM11.9989 479.994C12.0189 484.144 12.0389 488.314 12.0589 492.494C15.9389 491.914 19.9089 491.774 23.7589 490.914C23.9289 488.184 24.2689 482.744 24.4489 480.014C20.2889 480.004 16.1389 479.994 11.9989 479.994ZM36.0189 480.004C36.0089 483.984 35.9989 487.984 35.9889 491.984C31.9989 491.984 27.9989 491.994 24.0089 492.014C24.0089 496.004 24.0089 499.994 23.9989 504.004C31.9989 504.004 39.9989 503.994 48.0089 504.014C48.0089 496.004 47.9989 487.994 48.0089 480.004C44.0089 479.994 40.0189 479.994 36.0189 480.004Z" fill="#FEFDFD"/>
<path d="M492.02 504.026C496 503.996 500 503.986 504.01 503.996C503.99 507.986 503.99 511.986 504.01 516.006C499.99 515.986 495.99 515.986 492.01 516.006C492 511.996 492 508.006 492.02 504.026Z" fill="#FEF3F2"/>
<path d="M36.0098 564.004C47.9998 563.994 59.9898 564.004 71.9798 564.014C71.9898 567.994 72.0098 571.984 72.0298 575.994C80.0198 575.994 88.0098 576.004 95.9998 576.004C95.9998 579.984 96.0098 583.974 96.0298 587.984C100.01 587.984 104 587.994 107.99 588.024C108 591.994 108.01 595.984 108.03 599.984C112.01 599.984 116 599.994 120 600.024C120.03 612.004 119.99 623.994 120.02 635.984C124.01 635.984 128.01 635.994 132.01 636.014C132 639.994 132 643.994 132.01 648.004C128.02 647.984 124.04 647.974 120.07 647.994C119.92 644.094 119.77 640.204 119.63 636.334C115.77 636.164 111.91 636.024 108.05 635.904C108.02 631.924 108 627.964 107.98 624.024C99.9998 623.994 92.0198 623.974 84.0398 623.984C84.0098 619.984 83.9898 616.004 83.9698 612.044C79.9898 612.004 76.0198 611.974 72.0498 611.964C72.0198 607.974 71.9898 604.004 71.9698 600.044C67.9898 600.004 64.0198 599.974 60.0498 599.964C60.0198 595.974 59.9898 592.004 59.9698 588.044C55.9898 588.004 52.0198 587.974 48.0498 587.964C48.0198 583.974 47.9898 580.004 47.9698 576.044C43.9898 576.004 40.0098 575.974 36.0298 575.964C36.0198 571.964 36.0098 567.974 36.0098 564.004Z" fill="#09A46D"/>
</svg>
