<svg width="673" height="613" viewBox="0 0 673 613" fill="none" xmlns="http://www.w3.org/2000/svg">
<path d="M372.092 0.0672886C400.042 0.0372886 428.012 -0.0927083 455.962 0.117292C455.942 4.06729 455.992 8.0273 456.092 11.9873C468.042 12.1973 480.002 11.8473 491.972 12.0773C491.942 16.0473 491.982 20.0173 492.092 23.9873C500.032 24.2573 508.012 23.7373 515.962 24.1173C515.942 28.0673 515.982 32.0273 516.092 35.9873C524.032 36.2573 532.012 35.7373 539.962 36.1173C539.942 40.0573 539.982 44.0173 540.092 47.9673C544.042 47.9573 548.012 47.9973 551.992 48.0973C552.112 52.0673 552.112 56.0373 551.992 60.0073C464.002 60.0473 376.022 60.0373 288.042 60.0073C287.912 56.0273 287.912 52.0473 288.062 48.0773C292.022 48.0873 295.992 48.0473 299.962 47.9573C299.952 43.9873 299.992 40.0273 300.092 36.0673C308.032 35.7873 316.012 36.3173 323.962 35.9373C323.942 31.9773 323.992 28.0173 324.092 24.0673C332.032 23.7873 340.012 24.3173 347.962 23.9373C347.942 19.9773 347.992 16.0173 348.092 12.0673C356.032 11.7873 364.012 12.3173 371.962 11.9373C371.942 7.9773 371.992 4.02729 372.092 0.0672886Z" fill="#FBF4E4"/>
<path d="M276.091 60.0673C280.061 59.9773 284.051 59.9573 288.041 60.0073C376.021 60.0373 464.001 60.0473 551.991 60.0073C555.961 59.9573 559.961 59.9773 563.971 60.0773C563.941 64.0373 563.981 68.0073 564.091 71.9873C572.031 72.2573 580.001 71.7373 587.961 72.1173C587.941 76.0573 587.981 80.0173 588.091 83.9673C592.041 83.9573 596.001 83.9973 599.971 84.0973C599.991 92.0573 600.211 100.037 599.971 108.007C479.991 108.037 360.011 108.037 240.041 108.007C239.911 104.027 239.921 100.047 240.061 96.0772C244.021 96.0872 247.991 96.0473 251.961 95.9573C251.951 91.9973 251.991 88.0373 252.091 84.0873C256.041 84.0873 260.001 84.0473 263.961 83.9573C263.951 79.9973 263.991 76.0373 264.091 72.0873C268.041 72.0873 272.001 72.0473 275.961 71.9573C275.951 67.9873 275.991 64.0273 276.091 60.0673Z" fill="#FCF6E8"/>
<path d="M228.091 108.067C232.061 107.977 236.051 107.957 240.041 108.007C360.011 108.037 479.991 108.037 599.971 108.007C603.951 107.947 607.951 107.977 611.971 108.077C611.941 112.037 611.981 115.997 612.091 119.967C616.041 119.957 620.001 119.997 623.981 120.097C624.041 124.077 624.051 128.057 624.021 132.047C623.921 136.017 623.941 139.987 624.081 143.967C632.021 144.307 640.001 143.657 647.951 144.147C648.181 152.087 647.911 160.047 648.041 167.997C648.081 171.997 648.061 175.997 647.991 180.007C492.011 180.047 336.021 180.037 180.041 180.007C179.911 176.027 179.921 172.047 180.061 168.077C184.021 168.087 187.991 168.037 191.961 167.957C191.951 163.987 191.991 160.037 192.091 156.087C196.041 156.087 200.001 156.037 203.961 155.957C203.951 151.987 203.991 148.037 204.091 144.087C208.051 144.087 212.011 144.047 215.981 143.957C216.251 135.997 215.731 128.037 216.111 120.087C220.051 120.087 224.001 120.047 227.961 119.957C227.951 115.987 227.991 112.027 228.091 108.067Z" fill="#FCF8EC"/>
<path d="M168.111 180.067C172.081 179.977 176.051 179.957 180.041 180.007C336.021 180.037 492.011 180.047 647.991 180.007C651.971 179.947 655.971 179.977 659.981 180.077C660.061 192.047 660.061 204.027 659.991 216.007C492.011 216.037 324.021 216.037 156.041 216.007C155.911 212.027 155.921 208.047 156.061 204.077C160.021 204.087 164.001 204.037 167.981 203.957C168.251 195.987 167.731 188.027 168.111 180.067Z" fill="#FDF9F0"/>
<path d="M144.091 216.066C148.071 215.976 152.051 215.956 156.041 216.006C324.021 216.036 492.011 216.036 659.991 216.006C663.971 215.946 667.971 215.966 671.981 216.076C671.991 236.056 672.151 256.046 671.951 276.026C603.971 276.026 536.001 276.026 468.031 276.026C467.861 268.046 468.331 260.056 467.911 252.096C455.981 251.766 444.041 252.276 432.121 251.956C432.091 247.986 432.021 244.036 431.911 240.096C423.941 239.896 415.981 239.996 408.021 240.026C404.021 239.956 400.041 239.976 396.081 240.086C395.971 244.056 395.951 248.036 396.021 252.026C395.971 260.016 396.061 268.026 396.001 276.026C368.011 276.056 340.011 275.966 312.021 276.056C308.041 276.076 304.071 276.036 300.121 275.946C300.101 271.986 300.031 268.036 299.911 264.086C287.981 263.776 276.041 264.276 264.121 263.956C264.101 259.976 264.031 256.016 263.911 252.056C259.971 251.886 256.041 251.896 252.121 252.086C252.101 256.026 252.031 259.966 251.911 263.916C247.961 263.926 244.021 264.006 240.091 264.136C239.991 268.096 239.971 272.056 240.011 276.026C196.021 276.006 152.031 276.056 108.041 276.006C107.911 272.026 107.921 268.046 108.061 264.076C112.021 264.076 115.991 264.036 119.961 263.956C119.951 259.986 119.991 256.036 120.091 252.086C124.051 252.086 128.011 252.036 131.981 251.956C132.251 243.996 131.731 236.036 132.111 228.086C136.051 228.086 140.001 228.036 143.961 227.956C143.951 223.986 143.991 220.026 144.091 216.066Z" fill="#FDFAF3"/>
<path d="M396.081 240.089C400.041 239.979 404.021 239.959 408.021 240.029C408.011 244.019 408.011 248.009 408.021 252.019C404.011 252.009 400.001 252.019 396.021 252.029C395.951 248.039 395.971 244.059 396.081 240.089Z" fill="#D2CCBB"/>
<path d="M408.022 240.028C415.982 239.998 423.942 239.898 431.912 240.098C432.022 244.038 432.092 247.988 432.122 251.958C444.042 252.278 455.982 251.768 467.912 252.098C468.332 260.058 467.862 268.048 468.032 276.028C467.982 292.018 468.032 308.018 468.022 324.018C464.012 324.008 460.012 324.018 456.032 324.028C455.822 304.048 456.322 284.058 455.902 264.098C443.952 263.848 432.002 264.098 420.062 264.028C420.062 260.038 420.022 256.058 419.942 252.088C415.962 251.998 411.982 251.978 408.022 252.018C408.012 248.008 408.012 244.018 408.022 240.028Z" fill="#B1A78F"/>
<path d="M396.022 252.03C400.002 252.02 404.012 252.01 408.022 252.02C408.032 280.02 407.992 308.02 408.042 336.03C408.012 340.02 408.002 344.02 408.032 348.03C404.032 347.97 400.052 347.99 396.082 348.1C395.992 352.07 395.962 356.05 396.002 360.05C392.002 360.02 388.002 360.01 384.022 360.01C384.132 352.05 383.702 344.08 384.132 336.14C388.062 336.11 392.002 336.04 395.952 335.92C396.132 315.95 395.992 295.99 396.002 276.03C396.062 268.03 395.972 260.02 396.022 252.03Z" fill="#B1A78F"/>
<path d="M240.012 276.027C251.982 276.097 263.972 275.857 275.952 276.087C276.042 280.057 276.062 284.037 276.022 288.027C272.012 288.007 268.012 288.007 264.022 288.017C260.032 287.947 256.052 287.977 252.082 288.087C251.882 308.067 252.092 328.057 252.022 348.047C248.012 348.017 244.012 348.007 240.022 348.007C240.012 324.017 240.042 300.017 240.012 276.027Z" fill="#B1A78F"/>
<path d="M276.022 288.028C283.992 288.028 291.972 287.888 299.952 288.088C300.042 292.058 300.072 296.038 300.042 300.018C296.022 300.008 292.012 300.018 288.022 300.058C284.032 300.048 280.052 300.018 276.092 299.958C275.982 295.968 275.962 291.998 276.022 288.028Z" fill="#B1A78F"/>
<path d="M300.042 300.02C304.012 300.02 308.002 300.02 312.002 300.03C312.052 328.03 312.002 356.03 312.022 384.03C308.042 384.06 304.062 384.04 300.102 383.97C299.992 379.98 299.952 376.01 299.982 372.05C300.082 348.04 299.972 324.03 300.042 300.02Z" fill="#B1A78F"/>
<path d="M468.022 324.02C471.992 323.98 475.962 324 479.952 324.09C480.272 336.04 479.772 348 480.082 359.95C484.042 360.04 488.022 360.08 492.022 360.06C492.012 368.04 492.012 376.03 492.022 384.01C488.012 384.01 484.002 384.02 480.022 384.05C480.062 380.05 480.032 376.06 479.952 372.09C475.962 372 471.982 371.97 468.022 372.01C467.982 364.02 468.052 356.03 468.012 348.05C468.022 344.03 468.022 340.02 468.012 336.03C468.012 332.01 468.022 328.01 468.022 324.02Z" fill="#B1A78F"/>
<path d="M228.092 348.098C232.062 347.988 236.032 347.958 240.022 348.008C240.012 360.018 240.022 372.028 240.022 384.048C236.022 384.028 232.022 384.018 228.042 384.028C228.032 380.008 228.022 375.998 228.012 372.008C228.022 367.998 228.022 364.008 227.992 360.028C227.982 356.038 228.012 352.068 228.092 348.098Z" fill="#B1A78F"/>
<path d="M372.122 360.098C376.072 359.988 380.042 359.958 384.022 360.008C384.012 368.008 384.002 376.018 384.032 384.028C380.032 383.968 376.052 383.988 372.082 384.098C371.992 388.058 371.972 392.038 372.022 396.028C368.032 395.968 364.052 395.988 360.082 396.098C359.992 400.068 359.972 404.048 360.012 408.038C356.002 408.008 352.012 408.008 348.022 408.038C344.002 408.008 339.992 408.008 335.992 408.028C335.962 404.048 335.992 400.088 336.092 396.138C340.012 395.998 343.952 395.928 347.912 395.918C348.022 391.988 348.102 388.058 348.132 384.138C352.042 383.998 355.972 383.928 359.912 383.918C360.022 379.988 360.102 376.058 360.132 372.138C364.042 371.998 367.972 371.928 371.912 371.918C372.022 367.968 372.092 364.028 372.122 360.098Z" fill="#B1A78F"/>
<path d="M216.022 384.027C220.022 384.017 224.022 384.017 228.042 384.027C228.072 387.997 228.042 391.977 227.952 395.967C223.962 396.037 219.992 396.057 216.022 396.027C216.002 392.017 216.002 388.017 216.022 384.027Z" fill="#B1A78F"/>
<path d="M312.022 384.026C315.982 383.976 319.942 383.996 323.912 384.096C324.332 392.056 323.892 400.036 324.022 408.026C320.012 408.016 316.002 408.016 312.012 408.036C312.012 404.016 312.012 400.006 312.012 396.006C312.012 391.996 312.022 388.006 312.022 384.026Z" fill="#B1A78F"/>
<path d="M492.022 384.009C495.982 383.979 499.962 383.999 503.952 384.089C504.032 388.049 504.072 392.029 504.042 396.009C500.012 396.009 496.002 396.019 492.002 396.049C492.002 392.019 492.002 388.009 492.022 384.009Z" fill="#B1A78F"/>
<path d="M204.122 396.099C208.082 395.989 212.042 395.969 216.022 396.029C216.022 404.019 216.012 412.019 216.032 420.029C212.042 419.969 208.052 419.989 204.082 420.099C203.992 424.059 203.972 428.039 204.022 432.029C200.032 431.969 196.052 431.989 192.082 432.099C191.992 436.059 191.972 440.039 192.012 444.029C188.042 443.969 184.072 443.989 180.122 444.099C180.102 448.029 180.032 451.969 179.912 455.919C175.972 455.929 172.042 455.999 168.132 456.139C168.102 460.069 168.032 464.009 167.912 467.969C163.942 468.029 159.982 468.059 156.022 468.029C156.022 460.059 155.882 452.089 156.092 444.139C160.022 443.999 163.962 443.929 167.912 443.919C168.032 439.989 168.102 436.059 168.132 432.139C172.042 431.999 175.972 431.929 179.912 431.919C180.032 427.989 180.102 424.059 180.132 420.139C184.042 419.999 187.972 419.929 191.912 419.919C192.032 415.989 192.102 412.059 192.132 408.139C196.042 407.999 199.972 407.929 203.912 407.919C204.032 403.969 204.102 400.029 204.122 396.099Z" fill="#B1A78F"/>
<path d="M504.042 396.009C507.982 395.979 511.942 395.999 515.912 396.099C516.022 400.019 516.092 403.959 516.132 407.919C520.042 408.029 523.962 408.109 527.912 408.139C528.022 412.049 528.092 415.979 528.132 419.919C532.042 420.029 535.972 420.109 539.912 420.139C540.332 428.079 539.892 436.049 540.022 444.009C536.002 444.009 532.002 444.019 528.022 444.049C528.052 440.049 528.032 436.059 527.952 432.089C523.972 431.999 519.992 431.969 516.032 432.009C516.032 428.039 516.002 424.089 515.952 420.139C511.992 419.999 508.042 419.929 504.102 419.929C503.992 415.959 503.952 411.999 503.982 408.049C504.002 404.019 504.022 400.009 504.042 396.009Z" fill="#B1A78F"/>
<path d="M324.022 408.027C328.002 408.017 331.992 408.017 335.992 408.027C335.942 411.987 335.982 415.977 336.092 419.967C340.052 420.037 344.022 420.057 348.002 420.037C347.952 424.007 347.982 427.977 348.092 431.967C352.052 432.037 356.022 432.057 360.012 432.037C359.952 436.007 359.982 439.977 360.092 443.967C364.052 444.037 368.032 444.057 372.022 444.037C372.012 452.027 372.012 460.027 372.022 468.027C368.012 468.017 364.012 468.017 360.022 468.037C360.062 464.037 360.042 460.057 359.952 456.087C355.962 455.997 351.992 455.977 348.022 456.027C348.062 452.037 348.042 448.057 347.952 444.087C343.972 443.997 340.002 443.967 336.032 444.007C336.042 440.037 336.012 436.087 335.952 432.137C331.992 431.997 328.042 431.927 324.102 431.927C323.992 427.957 323.952 423.997 323.982 420.047C324.002 416.027 324.012 412.017 324.022 408.027Z" fill="#B1A78F"/>
<path d="M372.012 432.027C376.002 432.017 380.012 432.017 384.032 432.027C384.032 436.017 384.022 440.017 384.012 444.027C380.002 444.017 376.002 444.017 372.022 444.037C372.012 440.027 372.002 436.017 372.012 432.027Z" fill="#B1A78F"/>
<path d="M420.092 432.09C424.022 431.89 427.962 431.88 431.912 432.07C432.332 440.04 431.922 448.03 432.002 456.03C428.002 456.02 424.002 456.02 420.032 456.03C420.012 452.01 420.002 448 419.992 444.01C419.972 440.02 420.012 436.05 420.092 432.09Z" fill="#B1A78F"/>
<path d="M468.032 444.008C471.972 443.958 475.942 443.988 479.912 444.088C480.022 448.018 480.092 451.958 480.122 455.918C484.052 456.028 487.992 456.098 491.942 456.128C492.022 460.078 492.062 464.038 492.062 468.008C492.012 471.998 492.002 476.008 492.012 480.028C488.012 480.018 484.012 480.018 480.032 480.028C480.032 476.048 480.012 472.088 479.952 468.138C475.992 467.998 472.042 467.928 468.102 467.928C467.992 463.958 467.952 459.998 467.982 456.048C468.002 452.018 468.012 448.008 468.032 444.008Z" fill="#B1A78F"/>
<path d="M540.022 444.01C543.982 443.97 547.962 444 551.952 444.09C552.032 448.06 552.062 452.04 552.042 456.04C548.022 456.02 544.012 456.02 540.022 456.04C540.002 452.02 540.002 448.01 540.022 444.01Z" fill="#B1A78F"/>
<path d="M204.102 456.157C212.032 455.657 220.002 456.037 227.962 456.097C228.142 460.017 228.152 463.957 227.992 467.917C224.022 468.027 220.052 468.097 216.102 468.127C215.992 472.077 215.952 476.047 215.982 480.027C211.992 480.017 208.002 480.017 204.032 480.027C204.022 476.017 204.012 472.017 203.992 468.027C203.982 464.057 204.022 460.097 204.102 456.157Z" fill="#B1A78F"/>
<path d="M288.072 456.059C292.042 455.899 296.012 455.909 299.992 456.079C300.122 460.049 300.122 464.019 299.972 467.999C295.982 468.129 292.012 468.119 288.052 467.979C287.902 463.989 287.902 460.019 288.072 456.059Z" fill="#B1A78F"/>
<path d="M408.022 456.027C412.012 456.017 416.012 456.017 420.032 456.027C420.012 480.027 420.022 504.027 420.022 528.037C416.032 528.077 412.052 528.057 408.082 527.967C407.842 515.977 408.122 503.997 408.002 492.027C408.082 480.027 407.962 468.017 408.022 456.027Z" fill="#B1A78F"/>
<path d="M144.082 468.1C148.052 467.99 152.032 467.96 156.022 468.03C156.012 480.03 156.012 492.02 156.022 504.03C152.022 503.96 148.032 503.99 144.052 504.1C143.882 508.04 143.892 512 144.082 515.97C148.052 516.03 152.022 516.06 156.012 516.05C156.062 524.03 155.962 532.03 156.032 540.03C156.022 544.01 156.022 548.01 156.062 552.02C152.052 552.12 148.052 552.11 144.062 551.99C143.782 544.01 144.302 536.04 143.932 528.09C139.962 528.08 135.992 528.04 132.022 527.97C132.092 516.02 131.852 504.08 132.092 492.14C136.022 492 139.952 491.93 143.902 491.92C144.392 483.99 143.732 476.02 144.082 468.1Z" fill="#B1A78F"/>
<path d="M252.092 468.088C256.032 467.888 259.982 467.878 263.942 468.058C264.212 484.028 263.932 500.018 264.012 516.008C260.022 515.948 256.052 515.978 252.082 516.098C252.022 532.048 251.832 548.008 252.132 563.958C256.072 564.028 260.032 564.058 264.002 564.048C264.002 568.018 264.022 572.008 264.042 576.008C264.102 583.978 263.702 591.978 264.132 599.958C272.052 599.998 280.022 600.388 287.952 599.898C288.022 595.938 288.052 591.988 288.042 588.058C296.022 587.958 304.012 588.068 312.002 588.018C315.992 588.008 319.992 588.008 324.012 588.008C324.112 591.988 324.102 595.978 323.982 599.988C316.012 600.248 308.042 599.738 300.082 600.118C300.072 604.058 300.032 608.018 299.952 611.988C279.992 612.058 260.042 612.078 240.092 611.978C240.082 607.988 240.032 604.018 239.952 600.068C227.992 599.848 216.032 600.198 204.072 599.978C204.072 595.998 204.032 592.018 203.952 588.068C195.982 587.778 188.012 588.308 180.052 587.938C179.912 583.958 179.902 579.978 180.042 576.028C184.012 576.058 187.982 576.038 191.962 575.958C192.032 571.968 192.062 567.988 192.032 564.028C196.012 564.008 199.992 564.008 203.992 564.028C203.982 567.978 204.012 571.938 204.092 575.918C208.022 576.028 211.962 576.098 215.912 576.138C216.032 580.048 216.102 583.978 216.132 587.918C224.082 588.338 232.052 587.918 240.022 588.028C244.002 588.078 247.992 588.058 251.992 587.968C252.152 583.988 252.142 580.028 251.962 576.088C247.972 575.998 244.002 575.968 240.042 576.008C240.002 552.018 240.002 528.038 240.042 504.048C244.002 504.078 247.972 504.038 251.962 503.958C252.122 495.958 252.072 487.988 251.992 480.008C251.972 476.018 252.012 472.048 252.092 468.088Z" fill="#B1A78F"/>
<path d="M372.022 468.028C376.012 468.008 380.012 468.008 384.022 468.018C384.012 476.008 384.012 484.018 384.022 492.028C380.012 492.018 376.022 492.018 372.042 492.028C372.012 488.018 372.002 484.028 372.002 480.048C372.012 476.028 372.022 472.018 372.022 468.028Z" fill="#B1A78F"/>
<path d="M192.042 480.027C196.022 480.017 200.022 480.017 204.032 480.027C204.032 488.027 203.972 496.037 204.042 504.047C204.022 508.017 204.012 512.007 204.002 516.007C200.022 515.947 196.052 515.977 192.082 516.097C191.872 532.067 192.082 548.047 192.032 564.027C188.022 564.007 184.022 564.017 180.022 564.037C180.022 560.017 180.012 556.017 180.002 552.027C180.032 544.007 180.062 536.007 180.002 528.007C180.062 520.017 179.982 512.027 180.022 504.047C183.992 504.077 187.972 504.047 191.972 503.957C192.052 499.957 192.072 495.977 192.022 492.007C192.012 487.997 192.022 484.007 192.042 480.027Z" fill="#B1A78F"/>
<path d="M492.012 480.027C496.012 480.017 500.012 480.007 504.042 480.027C504.012 484.017 504.012 488.017 504.022 492.047C500.002 492.017 496.002 492.017 492.022 492.037C492.002 488.017 492.002 484.017 492.012 480.027Z" fill="#B1A78F"/>
<path d="M384.022 492.027C388.012 492.017 392.012 492.017 396.022 492.027C395.942 507.997 396.172 523.977 395.962 539.967C392.002 540.137 388.052 540.147 384.102 539.997C383.802 524.007 384.132 508.007 384.022 492.027Z" fill="#B1A78F"/>
<path d="M576.022 492.008C579.982 492.008 583.972 492.008 587.972 492.028C588.042 508.008 588.102 523.988 587.962 539.968C583.982 539.948 580.012 539.988 576.062 540.098C575.772 548.048 576.302 556.028 575.932 563.998C571.942 564.118 567.972 564.118 564.012 564.008C564.012 559.988 564.002 555.988 564.012 552.008C564.042 543.998 564.012 536.018 564.022 528.028C567.982 528.048 571.952 528.018 575.942 527.948C576.192 515.958 575.942 503.978 576.022 492.008Z" fill="#B1A78F"/>
<path d="M324.022 504.028C328.012 504.008 332.012 504.008 336.022 504.018C335.962 507.988 335.982 511.968 336.092 515.968C340.052 516.028 344.032 516.058 348.022 516.048C348.012 520.018 348.022 524.008 348.042 528.008C348.012 535.998 347.952 543.998 348.032 552.008C347.982 555.978 347.992 559.968 348.072 563.978C352.032 563.948 356.002 563.988 359.972 564.098C359.972 572.038 360.272 580.028 359.932 587.978C347.952 588.078 335.982 588.058 324.012 588.008C324.002 583.998 324.012 580.008 324.022 576.028C327.992 576.058 331.972 576.038 335.962 575.958C336.012 560.008 336.212 544.038 335.912 528.098C331.952 527.998 327.992 527.968 324.042 528.008C324.022 524.008 324.002 520.018 324.002 516.048C324.012 512.028 324.022 508.018 324.022 504.028Z" fill="#B1A78F"/>
<path d="M492.042 504.027C496.022 504.007 500.022 504.007 504.042 504.027C504.062 507.987 504.032 511.967 503.952 515.967C499.962 516.027 495.982 516.057 492.012 516.047C491.992 512.027 492.002 508.017 492.042 504.027Z" fill="#B1A78F"/>
<path d="M468.002 516.038C472.002 516.028 476.012 516.018 480.042 516.008C484.022 516.018 488.012 516.028 492.012 516.048C492.002 520.028 492.012 524.018 492.042 528.028C484.022 528.018 476.032 528.018 468.042 528.028C468.012 524.018 468.002 520.018 468.002 516.038Z" fill="#B1A78F"/>
<path d="M444.002 528.027C452.012 528.017 460.022 528.017 468.042 528.027C468.062 531.987 468.032 535.967 467.952 539.967C459.972 540.147 452.002 540.017 444.042 540.027C444.012 536.007 444.002 532.017 444.002 528.027Z" fill="#B1A78F"/>
<path d="M408.112 540.117C420.082 539.837 432.052 540.097 444.042 540.027C444.052 543.987 444.012 547.957 443.932 551.947C431.952 552.197 419.972 551.947 407.992 552.027C407.962 548.037 408.002 544.067 408.112 540.117Z" fill="#B1A78F"/>
<path d="M528.012 540.008C532.002 540.008 536.002 540.018 540.032 540.048C540.022 544.018 540.012 548.018 540.022 552.028C536.012 552.008 532.012 552.018 528.022 552.038C528.002 548.008 528.002 543.998 528.012 540.008Z" fill="#B1A78F"/>
<path d="M372.062 552.02C384.032 552.04 396.012 552.02 407.992 552.03C407.962 555.99 407.992 559.96 408.082 563.95C412.052 564.03 416.032 564.07 420.022 564.06C420.012 568.03 420.012 572.02 420.032 576.02C416.032 575.96 412.052 575.98 408.082 576.1C407.992 580.06 407.972 584.04 408.032 588.03C400.042 587.99 392.052 588.24 384.082 587.95C384.072 583.98 384.032 580.03 383.952 576.09C379.982 576.08 376.012 576.04 372.072 575.96C372.012 567.97 371.852 559.99 372.062 552.02Z" fill="#B1A78F"/>
<path d="M504.122 552.11C508.062 552 512.022 551.96 516.002 551.99C519.992 552.01 524.002 552.02 528.022 552.04C528.002 556.02 528.002 560.02 528.022 564.03C524.022 563.96 520.042 563.98 516.082 564.1C515.992 568.05 515.962 572.02 516.002 576.01C511.992 576.01 508.002 576.02 504.022 576.05C496.032 576.11 488.052 575.71 480.092 576.14C479.992 580.09 479.962 584.05 480.002 588.03C464.032 588.14 448.052 587.81 432.082 588.12C431.992 592.07 431.972 596.03 432.032 600.01C424.032 600 416.032 600.24 408.062 599.95C407.912 595.96 407.902 591.99 408.032 588.03C411.992 588.06 415.972 588.04 419.962 587.96C420.032 583.97 420.052 579.98 420.032 576.02C424.022 576.02 428.012 576.02 432.022 576.01C443.982 575.99 455.942 576.17 467.912 575.96C468.022 572 468.092 568.04 468.122 564.1C480.042 563.77 491.972 564.27 503.912 563.97C504.022 560 504.092 556.05 504.122 552.11Z" fill="#B1A78F"/>
<path d="M552.022 564.028C556.002 564.008 560.002 563.998 564.012 564.008C564.112 567.988 564.102 571.988 563.982 575.998C559.972 576.118 555.982 576.118 552.002 575.998C551.982 571.998 551.992 568.008 552.022 564.028Z" fill="#B1A78F"/>
<path d="M540.022 576.05C544.002 576 547.992 575.99 552.002 576C552.102 579.98 552.102 583.98 551.982 588C547.972 588.12 543.982 588.12 540.012 588.01C540.002 584 540.002 580.02 540.022 576.05Z" fill="#B1A78F"/>
<path d="M504.042 588.028C512.022 588.018 520.012 588.048 528.022 588.018C532.002 588.008 535.992 588.008 540.012 588.008C540.112 591.988 540.102 595.978 539.982 599.988C532.002 600.248 524.042 599.738 516.082 600.118C516.072 604.058 516.032 608.018 515.952 611.988C487.982 612.008 460.012 612.148 432.062 611.938C431.912 607.948 431.902 603.968 432.032 600.008C448.022 600.028 464.022 600.048 480.022 600.008C487.992 600.068 495.962 600.128 503.952 599.968C504.032 595.968 504.062 591.988 504.042 588.028Z" fill="#B1A78F"/>
<path d="M408.022 252.016C411.982 251.976 415.962 251.996 419.942 252.086C420.022 256.056 420.062 260.036 420.062 264.026C419.962 288.026 420.052 312.026 420.022 336.026C416.012 336.016 412.022 336.016 408.042 336.026C407.992 308.016 408.032 280.016 408.022 252.016Z" fill="#D5CAB2"/>
<path d="M252.082 288.084C256.052 287.974 260.032 287.944 264.022 288.014C263.852 307.994 264.302 327.984 263.902 347.954C259.932 348.024 255.972 348.054 252.022 348.044C252.092 328.054 251.882 308.064 252.082 288.084Z" fill="#D5CAB2"/>
<path d="M240.022 348.004C244.012 348.004 248.012 348.014 252.022 348.044C251.952 360.004 252.182 371.984 251.962 383.954C247.972 384.044 243.992 384.074 240.022 384.044C240.022 372.024 240.012 360.014 240.022 348.004Z" fill="#D5CAB2"/>
<path d="M396.082 348.095C400.052 347.985 404.032 347.965 408.032 348.025C408.052 351.995 408.032 355.965 407.962 359.955C403.962 360.045 399.982 360.075 396.002 360.045C395.962 356.045 395.992 352.065 396.082 348.095Z" fill="#D5CAB2"/>
<path d="M384.022 360.004C388.002 360.004 392.002 360.014 396.002 360.044C396.032 368.014 396.132 375.974 395.962 383.954C391.972 384.044 388.002 384.064 384.032 384.024C384.002 376.014 384.012 368.004 384.022 360.004Z" fill="#D5CAB2"/>
<path d="M228.042 384.027C232.022 384.017 236.022 384.027 240.022 384.047C240.012 391.997 240.142 399.947 239.952 407.917C236.012 408.027 232.072 408.107 228.132 408.127C228.002 412.057 227.922 416.007 227.922 419.957C223.952 420.037 219.992 420.067 216.032 420.027C216.012 412.017 216.022 404.017 216.022 396.027C219.992 396.057 223.962 396.037 227.952 395.967C228.042 391.977 228.072 387.997 228.042 384.027Z" fill="#D5CAB2"/>
<path d="M372.082 384.095C376.052 383.985 380.032 383.965 384.032 384.025C384.052 387.995 384.032 391.965 383.962 395.955C379.972 396.045 375.992 396.065 372.022 396.025C371.972 392.035 371.992 388.055 372.082 384.095Z" fill="#D5CAB2"/>
<path d="M360.082 396.095C364.052 395.985 368.032 395.965 372.022 396.025C372.052 399.995 372.032 403.965 371.962 407.955C367.972 408.045 363.982 408.065 360.012 408.035C359.972 404.045 359.992 400.065 360.082 396.095Z" fill="#D5CAB2"/>
<path d="M348.022 408.034C352.012 408.004 356.002 408.004 360.012 408.034C360.012 412.024 360.012 416.014 360.012 420.024C355.992 420.014 351.992 420.014 348.002 420.034C348.002 416.024 348.012 412.024 348.022 408.034Z" fill="#D5CAB2"/>
<path d="M204.082 420.095C208.052 419.985 212.042 419.965 216.032 420.025C216.062 423.995 216.032 427.965 215.962 431.955C211.972 432.045 207.992 432.065 204.022 432.025C203.972 428.035 203.992 424.055 204.082 420.095Z" fill="#D5CAB2"/>
<path d="M192.082 432.095C196.052 431.985 200.032 431.965 204.022 432.025C204.052 435.995 204.032 439.965 203.962 443.955C199.972 444.045 195.982 444.065 192.012 444.025C191.972 440.035 191.992 436.055 192.082 432.095Z" fill="#D5CAB2"/>
<path d="M180.122 444.095C184.072 443.985 188.042 443.965 192.012 444.025C192.032 452.015 192.012 460.005 192.022 468.005C188.042 467.955 184.082 467.985 180.122 468.095C180.102 472.025 180.032 475.965 179.912 479.925C175.962 479.925 172.012 479.995 168.082 480.135C167.732 488.065 168.382 496.025 167.902 503.955C163.942 504.025 159.982 504.045 156.022 504.025C156.012 492.015 156.012 480.025 156.022 468.025C159.982 468.055 163.942 468.025 167.912 467.965C168.032 464.005 168.102 460.065 168.132 456.135C172.042 455.995 175.972 455.925 179.912 455.915C180.032 451.965 180.102 448.025 180.122 444.095Z" fill="#D5CAB2"/>
<path d="M492.062 468.006C496.012 467.966 499.972 467.996 503.952 468.086C504.032 472.046 504.062 476.026 504.042 480.026C500.012 480.006 496.012 480.016 492.012 480.026C492.002 476.006 492.012 471.996 492.062 468.006Z" fill="#D5CAB2"/>
<path d="M324.062 492.006C328.012 491.966 331.982 491.996 335.952 492.086C336.042 496.046 336.062 500.026 336.022 504.016C332.012 504.006 328.012 504.006 324.022 504.026C324.002 500.006 324.012 495.996 324.062 492.006Z" fill="#D5CAB2"/>
<path d="M144.052 504.096C148.032 503.986 152.022 503.956 156.022 504.026C156.022 508.016 156.022 512.026 156.012 516.046C152.022 516.056 148.052 516.026 144.082 515.966C143.892 511.996 143.882 508.036 144.052 504.096Z" fill="#D5CAB2"/>
<path d="M336.022 504.016C339.992 503.966 343.972 503.996 347.962 504.086C348.052 508.056 348.072 512.046 348.022 516.046C344.032 516.056 340.052 516.026 336.092 515.966C335.982 511.966 335.962 507.986 336.022 504.016Z" fill="#D5CAB2"/>
<path d="M192.082 516.097C196.052 515.977 200.022 515.947 204.002 516.007C204.032 532.007 204.052 548.017 203.992 564.027C199.992 564.007 196.012 564.007 192.032 564.027C192.082 548.047 191.872 532.067 192.082 516.097Z" fill="#D5CAB2"/>
<path d="M252.082 516.097C256.052 515.977 260.022 515.947 264.012 516.007C264.032 532.017 264.042 548.027 264.002 564.047C260.032 564.057 256.072 564.027 252.132 563.957C251.832 548.007 252.022 532.047 252.082 516.097Z" fill="#D5CAB2"/>
<path d="M348.042 528.005C351.992 527.965 355.942 527.995 359.912 528.095C360.332 536.045 359.902 544.015 360.022 551.985C356.012 552.105 352.012 552.105 348.032 552.005C347.952 543.995 348.012 535.995 348.042 528.005Z" fill="#D5CAB2"/>
<path d="M156.032 540.027C160.012 540.007 164.002 540.007 167.992 540.027C168.012 544.007 168.012 548.007 168.012 552.027C164.022 552.007 160.032 552.007 156.062 552.017C156.022 548.007 156.022 544.007 156.032 540.027Z" fill="#D5CAB2"/>
<path d="M528.022 552.037C532.012 552.017 536.012 552.007 540.022 552.027C540.062 555.987 540.042 559.967 539.962 563.957C535.972 564.037 531.992 564.057 528.022 564.027C528.002 560.017 528.002 556.017 528.022 552.037Z" fill="#D5CAB2"/>
<path d="M264.042 576.005C267.992 575.965 271.942 575.995 275.912 576.095C276.032 580.025 276.102 583.975 276.122 587.945C280.082 588.025 284.052 588.065 288.042 588.055C288.052 591.985 288.022 595.935 287.952 599.895C280.022 600.385 272.052 599.995 264.132 599.955C263.702 591.975 264.102 583.975 264.042 576.005Z" fill="#D5CAB2"/>
<path d="M480.092 576.135C488.052 575.705 496.032 576.106 504.022 576.046C504.012 580.026 504.012 584.015 504.042 588.025C496.012 588.015 488.012 588.015 480.002 588.025C479.962 584.045 479.992 580.085 480.092 576.135Z" fill="#D5CAB2"/>
<path d="M432.082 588.117C448.052 587.807 464.032 588.137 480.002 588.027C480.002 592.007 480.002 595.997 480.022 600.007C464.022 600.047 448.022 600.027 432.032 600.007C431.972 596.027 431.992 592.067 432.082 588.117Z" fill="#D5CAB2"/>
<path d="M420.062 264.028C432.002 264.098 443.952 263.848 455.902 264.098C456.322 284.058 455.822 304.048 456.032 324.028C455.992 328.018 455.982 332.018 456.012 336.028C455.942 339.998 455.962 343.978 456.082 347.968C460.052 348.038 464.022 348.058 468.012 348.048C468.052 356.028 467.982 364.018 468.022 372.008C467.942 375.988 467.962 379.968 468.082 383.968C472.052 384.038 476.032 384.058 480.022 384.048C479.952 388.008 479.982 391.978 480.092 395.968C484.042 396.038 488.022 396.058 492.002 396.048C491.952 400.008 491.972 403.978 492.092 407.968C496.042 408.038 500.002 408.058 503.982 408.048C503.952 411.998 503.992 415.958 504.102 419.928C508.042 419.928 511.992 419.998 515.952 420.138C516.002 424.088 516.032 428.038 516.032 432.008C515.952 435.988 515.962 439.968 516.082 443.968C520.052 444.038 524.032 444.058 528.022 444.048C527.952 448.008 527.972 451.978 528.092 455.968C532.052 456.038 536.032 456.058 540.022 456.038C540.002 460.018 540.012 464.008 540.032 468.008C536.032 467.958 532.052 467.988 528.082 468.098C527.992 472.058 527.962 476.038 528.002 480.028C524.002 480.018 520.012 480.018 516.042 480.048C512.022 480.008 508.022 479.998 504.042 480.028C504.062 476.028 504.032 472.048 503.952 468.088C499.972 467.998 496.012 467.968 492.062 468.008C492.062 464.038 492.022 460.078 491.942 456.128C487.992 456.098 484.052 456.028 480.122 455.918C480.092 451.958 480.022 448.018 479.912 444.088C475.942 443.988 471.972 443.958 468.032 444.008C464.022 443.938 460.032 443.968 456.052 444.088C455.872 448.038 455.882 451.998 456.082 455.968C460.042 456.028 464.002 456.058 467.982 456.048C467.952 459.998 467.992 463.958 468.102 467.928C472.042 467.928 475.992 467.998 479.952 468.138C480.012 472.088 480.032 476.048 480.032 480.028C479.952 483.998 479.962 487.978 480.082 491.968C484.042 492.038 488.022 492.058 492.022 492.038C491.992 496.018 492.002 500.018 492.042 504.028C492.002 508.018 491.992 512.028 492.012 516.048C488.012 516.028 484.022 516.018 480.042 516.008C480.072 512.008 480.042 508.028 479.952 504.058C475.982 503.878 472.022 503.888 468.082 504.088C467.992 508.058 467.962 512.038 468.002 516.038C460.022 516.128 452.042 515.708 444.092 516.138C443.992 520.088 443.962 524.048 444.002 528.028C439.992 528.018 436.002 528.018 432.022 528.018C432.002 504.018 432.052 480.018 432.002 456.028C431.922 448.028 432.332 440.038 431.912 432.068C427.962 431.878 424.022 431.888 420.092 432.088C420.012 436.048 419.972 440.018 419.992 444.008C416.002 443.958 412.032 443.988 408.082 444.098C407.972 448.058 407.952 452.038 408.022 456.028C407.962 468.018 408.082 480.028 408.002 492.028C403.992 492.018 400.002 492.018 396.022 492.028C395.892 484.038 396.332 476.058 395.912 468.098C391.942 467.998 387.972 467.968 384.022 468.018C384.002 460.008 384.062 452.018 384.012 444.028C384.022 440.018 384.032 436.018 384.032 432.028C384.082 428.028 384.052 424.038 383.962 420.058C379.992 419.878 376.032 419.888 372.082 420.088C371.992 424.058 371.972 428.038 372.012 432.028C367.992 432.018 363.992 432.018 360.012 432.038C360.012 428.028 360.012 424.018 360.012 420.028C360.012 416.018 360.012 412.028 360.012 408.038C363.982 408.068 367.972 408.048 371.962 407.958C372.032 403.968 372.052 399.998 372.022 396.028C375.992 396.068 379.972 396.048 383.962 395.958C384.032 391.968 384.052 387.998 384.032 384.028C388.002 384.068 391.972 384.048 395.962 383.958C396.132 375.978 396.032 368.018 396.002 360.048C399.982 360.078 403.962 360.048 407.962 359.958C408.032 355.968 408.052 351.998 408.032 348.028C412.002 348.068 415.972 348.048 419.962 347.958C420.042 343.978 420.062 339.998 420.022 336.028C420.052 312.028 419.962 288.028 420.062 264.028Z" fill="#FCF3DF"/>
<path d="M264.022 288.018C268.012 288.008 272.012 288.008 276.022 288.028C275.962 291.998 275.982 295.968 276.092 299.958C280.052 300.018 284.032 300.048 288.022 300.058C288.102 324.028 287.872 347.998 288.092 371.968C292.052 372.038 296.012 372.058 299.982 372.048C299.952 376.008 299.992 379.978 300.102 383.968C304.062 384.038 308.042 384.058 312.022 384.028C312.022 388.008 312.012 391.998 312.012 396.008C308.012 395.958 304.022 395.988 300.052 396.098C299.872 400.048 299.892 403.998 300.082 407.968C304.052 408.038 308.022 408.058 312.012 408.038C311.952 412.008 311.982 415.978 312.092 419.968C316.042 420.038 320.012 420.058 323.982 420.048C323.952 423.998 323.992 427.958 324.102 431.928C328.042 431.928 331.992 431.998 335.952 432.138C336.012 436.088 336.042 440.038 336.032 444.008C335.952 447.988 335.972 451.968 336.082 455.968C340.052 456.038 344.032 456.058 348.022 456.028C347.962 459.998 347.982 463.978 348.092 467.968C352.052 468.038 356.032 468.058 360.022 468.038C359.962 472.008 359.982 475.978 360.092 479.968C364.052 480.028 368.022 480.058 372.002 480.048C372.002 484.028 372.012 488.018 372.042 492.028C372.012 512.018 371.982 532.018 372.062 552.018C368.032 552.118 364.022 552.108 360.022 551.988C359.902 544.018 360.332 536.048 359.912 528.098C355.942 527.998 351.992 527.968 348.042 528.008C348.022 524.008 348.012 520.018 348.022 516.048C348.072 512.048 348.052 508.058 347.962 504.088C343.972 503.998 339.992 503.968 336.022 504.018C336.062 500.028 336.042 496.048 335.952 492.088C331.982 491.998 328.012 491.968 324.062 492.008C324.062 488.028 324.022 484.048 323.942 480.098C315.992 480.038 308.022 479.658 300.092 480.158C299.982 484.098 299.952 488.048 300.002 492.008C299.942 495.978 299.972 499.968 300.092 503.968C304.052 504.028 308.032 504.058 312.022 504.038C311.962 507.998 311.982 511.978 312.092 515.968C316.052 516.028 320.022 516.058 324.002 516.048C324.002 520.018 324.022 524.008 324.042 528.008C323.982 544.008 324.042 560.018 324.022 576.028C320.032 575.958 316.052 575.978 312.082 576.098C311.992 580.048 311.972 584.028 312.002 588.018C304.012 588.068 296.022 587.958 288.042 588.058C284.052 588.068 280.082 588.028 276.122 587.948C276.102 583.978 276.032 580.028 275.912 576.098C271.942 575.998 267.992 575.968 264.042 576.008C264.022 572.008 264.002 568.018 264.002 564.048C264.042 548.028 264.032 532.018 264.012 516.008C263.932 500.018 264.212 484.028 263.942 468.058C259.982 467.878 256.032 467.888 252.092 468.088C252.012 472.048 251.972 476.018 251.992 480.008C248.012 479.948 244.042 479.988 240.082 480.098C239.902 488.068 239.972 496.058 240.042 504.048C240.002 528.038 240.002 552.018 240.042 576.008C240.012 579.998 240.002 584.008 240.022 588.028C232.052 587.918 224.082 588.338 216.132 587.918C216.102 583.978 216.032 580.048 215.912 576.138C211.962 576.098 208.022 576.028 204.092 575.918C204.012 571.938 203.982 567.978 203.992 564.028C204.052 548.018 204.032 532.008 204.002 516.008C204.012 512.008 204.022 508.018 204.042 504.048C208.002 504.078 211.982 504.038 215.962 503.958C216.122 495.968 216.082 487.998 215.982 480.028C215.952 476.048 215.992 472.078 216.102 468.128C220.052 468.098 224.022 468.028 227.992 467.918C228.152 463.958 228.142 460.018 227.962 456.098C220.002 456.038 212.032 455.658 204.102 456.158C204.022 460.098 203.982 464.058 203.992 468.028C199.992 468.008 196.002 468.008 192.022 468.008C192.012 460.008 192.032 452.018 192.012 444.028C195.982 444.068 199.972 444.048 203.962 443.958C204.032 439.968 204.052 435.998 204.022 432.028C207.992 432.068 211.972 432.048 215.962 431.958C216.032 427.968 216.062 423.998 216.032 420.028C219.992 420.068 223.952 420.038 227.922 419.958C227.922 416.008 228.002 412.058 228.132 408.128C232.072 408.108 236.012 408.028 239.952 407.918C240.142 399.948 240.012 391.998 240.022 384.048C243.992 384.078 247.972 384.048 251.962 383.958C252.182 371.988 251.952 360.008 252.022 348.048C255.972 348.058 259.932 348.028 263.902 347.958C264.302 327.988 263.852 307.998 264.022 288.018ZM288.072 456.058C287.902 460.018 287.902 463.988 288.052 467.978C292.012 468.118 295.982 468.128 299.972 467.998C300.122 464.018 300.122 460.048 299.992 456.078C296.012 455.908 292.042 455.898 288.072 456.058Z" fill="#FCF3DF"/>
<path d="M180.122 468.098C184.082 467.988 188.042 467.958 192.022 468.008C192.002 471.998 192.012 476.008 192.042 480.028C192.022 484.008 192.012 487.998 192.022 492.008C188.032 491.948 184.052 491.978 180.082 492.098C179.982 496.068 179.962 500.048 180.022 504.048C179.982 512.028 180.062 520.018 180.002 528.008C176.022 527.948 172.052 527.978 168.092 528.098C168.012 532.058 167.982 536.038 167.992 540.028C164.002 540.008 160.012 540.008 156.032 540.028C155.962 532.028 156.062 524.028 156.012 516.048C156.022 512.028 156.022 508.018 156.022 504.028C159.982 504.048 163.942 504.028 167.902 503.958C168.382 496.028 167.732 488.068 168.082 480.138C172.012 479.998 175.962 479.928 179.912 479.928C180.032 475.968 180.102 472.028 180.122 468.098Z" fill="#FCF3DF"/>
<path d="M168.012 552.027C172.002 552.007 176.002 552.007 180.002 552.027C180.012 556.017 180.022 560.017 180.022 564.037C176.042 564.057 172.062 564.027 168.092 563.967C167.982 559.967 167.962 555.987 168.012 552.027Z" fill="#FCF3DF"/>
<path d="M504.022 576.048C508.002 576.018 511.992 576.008 516.002 576.008C519.992 576.008 524.002 576.018 528.022 576.028C528.002 580.008 528.002 583.998 528.022 588.018C520.012 588.048 512.022 588.018 504.042 588.028C504.012 584.018 504.012 580.028 504.022 576.048Z" fill="#FCF3DF"/>
<path d="M480.001 588.027C488.011 588.017 496.012 588.017 504.042 588.027C504.062 591.987 504.031 595.967 503.951 599.967C495.961 600.127 487.991 600.067 480.021 600.007C480.001 595.997 480.001 592.007 480.001 588.027Z" fill="#FCF3DF"/>
<path d="M96.0923 276.068C100.072 275.988 104.052 275.968 108.042 276.008C152.032 276.058 196.022 276.008 240.012 276.028C240.042 300.018 240.012 324.018 240.022 348.008C236.032 347.958 232.062 347.988 228.092 348.098C228.012 352.068 227.982 356.038 227.992 360.028C212.032 360.148 196.072 359.808 180.122 360.118C180.102 364.068 180.032 368.028 179.912 371.998C175.972 372.148 172.042 372.138 168.122 371.968C168.102 367.998 168.032 364.038 167.912 360.098C143.982 359.988 120.042 359.928 96.1223 360.118C96.1023 364.068 96.0323 368.028 95.9123 371.998C91.9723 372.148 88.0423 372.138 84.1223 371.968C84.1023 367.998 84.0323 364.038 83.9123 360.098C71.9523 359.828 60.0023 360.158 48.0523 360.018C48.0323 352.028 47.8023 344.048 48.1023 336.088C52.0523 336.078 56.0023 336.038 59.9623 335.958C59.9523 331.988 59.9923 328.028 60.0923 324.088C64.0423 324.078 68.0023 324.038 71.9623 323.958C71.9523 319.988 71.9923 316.028 72.0923 312.088C76.0523 312.078 80.0123 312.038 83.9823 311.958C84.2523 303.998 83.7323 296.038 84.1123 288.088C88.0523 288.088 92.0123 288.038 95.9623 287.958C95.9523 283.988 95.9923 280.018 96.0923 276.068Z" fill="#FEFCF7"/>
<path d="M312.022 276.057C340.012 275.967 368.012 276.057 396.002 276.027C395.992 295.987 396.132 315.947 395.952 335.917C392.002 336.037 388.062 336.107 384.132 336.137C383.702 344.077 384.132 352.047 384.022 360.007C380.042 359.957 376.072 359.987 372.122 360.097C372.092 364.027 372.022 367.967 371.912 371.917C367.972 371.927 364.042 371.997 360.132 372.137C360.102 376.057 360.022 379.987 359.912 383.917C355.972 383.927 352.042 383.997 348.132 384.137C348.102 388.057 348.022 391.987 347.912 395.917C343.952 395.927 340.012 395.997 336.092 396.137C335.992 400.087 335.962 404.047 335.992 408.027C331.992 408.017 328.002 408.017 324.022 408.027C323.892 400.037 324.332 392.057 323.912 384.097C319.942 383.997 315.982 383.977 312.022 384.027C312.002 356.027 312.052 328.027 312.002 300.027C312.062 292.037 312.002 284.037 312.022 276.057Z" fill="#FEFCF7"/>
<path d="M468.032 276.027C536.002 276.027 603.972 276.027 671.952 276.027C672.062 304.017 672.082 332.027 671.952 360.027C611.972 360.057 552.002 359.977 492.022 360.057C488.022 360.077 484.042 360.037 480.082 359.947C479.772 347.997 480.272 336.037 479.952 324.087C475.962 323.997 471.992 323.977 468.022 324.017C468.032 308.017 467.982 292.017 468.032 276.027Z" fill="#FEFCF6"/>
<path d="M456.032 324.026C460.012 324.016 464.012 324.006 468.022 324.016C468.022 328.006 468.012 332.006 468.012 336.026C463.992 336.016 460.002 336.016 456.012 336.026C455.982 332.016 455.992 328.016 456.032 324.026Z" fill="#E2DCD0"/>
<path d="M408.042 336.027C412.022 336.017 416.012 336.017 420.022 336.027C420.062 339.997 420.042 343.977 419.962 347.957C415.972 348.047 412.002 348.067 408.032 348.027C408.002 344.017 408.012 340.017 408.042 336.027Z" fill="#E4DAC3"/>
<path d="M456.011 336.027C460.001 336.017 463.991 336.017 468.011 336.027C468.021 340.017 468.021 344.027 468.011 348.047C464.021 348.057 460.051 348.037 456.081 347.967C455.961 343.977 455.941 339.997 456.011 336.027Z" fill="#FEFCF8"/>
<path d="M36.1117 360.069C40.0817 359.989 44.0617 359.969 48.0517 360.019C60.0017 360.159 71.9517 359.829 83.9117 360.099C84.0317 364.039 84.1017 367.999 84.1217 371.969C88.0417 372.139 91.9717 372.149 95.9117 371.999C96.0317 368.029 96.1017 364.069 96.1217 360.119C120.042 359.929 143.982 359.989 167.912 360.099C168.032 364.039 168.102 367.999 168.122 371.969C172.042 372.139 175.972 372.149 179.912 371.999C180.032 368.029 180.102 364.069 180.122 360.119C196.072 359.809 212.032 360.149 227.992 360.029C228.022 364.009 228.022 367.999 228.012 372.009C224.022 371.959 220.042 371.989 216.082 372.099C215.982 376.069 215.962 380.039 216.022 384.029C216.002 388.019 216.002 392.019 216.022 396.029C212.042 395.969 208.082 395.989 204.122 396.099C204.102 400.029 204.032 403.969 203.912 407.919C199.972 407.929 196.042 407.999 192.132 408.139C192.102 412.059 192.032 415.989 191.912 419.919C187.972 419.929 184.042 419.999 180.132 420.139C180.102 424.059 180.032 427.989 179.912 431.919C175.972 431.929 172.042 431.999 168.132 432.139C168.102 436.059 168.032 439.989 167.912 443.919C163.962 443.929 160.022 443.999 156.092 444.139C155.882 452.089 156.022 460.059 156.022 468.029C152.032 467.959 148.052 467.989 144.082 468.099C143.732 476.019 144.392 483.989 143.902 491.919C139.952 491.929 136.022 491.999 132.092 492.139C131.852 504.079 132.092 516.019 132.022 527.969C92.0417 528.049 52.0417 528.119 12.0617 527.939C11.7817 519.979 12.3117 512.029 11.9317 504.089C7.97169 504.079 4.01168 504.039 0.0616818 503.959C0.00168176 479.999 -0.048314 456.039 0.081686 432.089C4.04169 432.079 8.01169 432.039 11.9817 431.959C12.2517 423.989 11.7317 416.039 12.1117 408.089C16.0617 408.079 20.0217 408.039 23.9817 407.959C24.2517 399.999 23.7317 392.039 24.1117 384.089C28.0617 384.079 32.0217 384.039 35.9817 383.959C36.2517 375.989 35.7317 368.029 36.1117 360.069ZM24.0617 468.059C23.9217 472.039 23.9117 476.039 24.0317 480.049C20.0417 479.909 16.0617 479.909 12.0717 480.059C11.9117 484.019 11.9017 487.999 12.0517 491.989C16.0417 492.109 20.0417 492.119 24.0417 492.029C23.9117 495.989 23.9117 499.959 24.0617 503.939C32.0017 504.279 39.9717 503.979 47.9317 503.979C48.2717 496.009 47.9717 488.019 47.9817 480.069C43.9817 479.919 40.0017 479.909 36.0117 480.039C36.1217 476.039 36.1117 472.059 35.9917 468.079C32.0117 467.909 28.0317 467.899 24.0617 468.059Z" fill="#FFFEFB"/>
<path d="M492.022 360.056C552.002 359.976 611.972 360.056 671.952 360.026C672.012 367.996 672.232 375.986 671.942 383.966C667.962 383.946 664.002 383.996 660.062 384.096C659.842 396.046 660.192 408.006 659.972 419.976C655.982 419.956 652.012 419.996 648.062 420.096C647.842 432.046 648.192 444.006 647.972 455.976C643.982 455.946 640.012 455.996 636.062 456.096C635.772 464.046 636.302 472.026 635.932 479.976C619.952 480.116 603.972 479.976 588.002 480.036C583.992 479.996 580.012 479.986 576.032 480.016C575.902 468.026 576.212 456.046 575.942 444.066C571.982 443.886 568.042 443.896 564.122 444.086C564.092 448.036 564.022 451.996 563.912 455.956C559.942 456.026 555.982 456.056 552.042 456.036C552.062 452.036 552.032 448.056 551.952 444.086C547.962 443.996 543.982 443.966 540.022 444.006C539.892 436.046 540.332 428.076 539.912 420.136C535.972 420.106 532.042 420.026 528.132 419.916C528.092 415.976 528.022 412.046 527.912 408.136C523.962 408.106 520.042 408.026 516.132 407.916C516.092 403.956 516.022 400.016 515.912 396.096C511.942 395.996 507.982 395.976 504.042 396.006C504.072 392.026 504.032 388.046 503.952 384.086C499.962 383.996 495.982 383.976 492.022 384.006C492.012 376.026 492.012 368.036 492.022 360.056Z" fill="#FEFDFA"/>
<path d="M480.022 384.048C484.002 384.018 488.012 384.008 492.022 384.008C492.002 388.008 492.002 392.018 492.002 396.048C488.022 396.058 484.042 396.038 480.092 395.968C479.982 391.978 479.952 388.008 480.022 384.048Z" fill="#FEFDFA"/>
<path d="M492.002 396.048C496.002 396.018 500.012 396.008 504.042 396.008C504.022 400.008 504.002 404.018 503.982 408.048C500.002 408.058 496.042 408.038 492.092 407.968C491.972 403.978 491.952 400.008 492.002 396.048Z" fill="#FEFDFA"/>
<path d="M216.082 372.098C220.042 371.988 224.022 371.958 228.012 372.008C228.022 375.998 228.032 380.008 228.042 384.028C224.022 384.018 220.022 384.018 216.022 384.028C215.962 380.038 215.982 376.068 216.082 372.098Z" fill="#D8D2C4"/>
<path d="M468.021 372.006C471.981 371.966 475.961 371.996 479.951 372.086C480.031 376.056 480.061 380.046 480.021 384.046C476.031 384.056 472.051 384.036 468.081 383.966C467.961 379.966 467.941 375.986 468.021 372.006Z" fill="#FEFDF9"/>
<path d="M372.082 420.088C376.032 419.888 379.992 419.878 383.962 420.058C384.052 424.038 384.082 428.028 384.032 432.028C380.012 432.018 376.002 432.018 372.012 432.028C371.972 428.038 371.992 424.058 372.082 420.088Z" fill="#C4BAA3"/>
<path d="M516.032 432.006C519.992 431.966 523.972 431.996 527.952 432.086C528.032 436.056 528.052 440.046 528.022 444.046C524.032 444.056 520.052 444.036 516.082 443.966C515.962 439.966 515.952 435.986 516.032 432.006Z" fill="#FEFDF8"/>
<path d="M408.081 444.098C412.031 443.988 416.001 443.958 419.991 444.008C420.001 447.998 420.011 452.008 420.031 456.028C416.011 456.018 412.011 456.018 408.021 456.028C407.951 452.038 407.971 448.058 408.081 444.098Z" fill="#FFFEFC"/>
<path d="M456.051 444.086C460.031 443.966 464.021 443.936 468.031 444.006C468.011 448.006 468.001 452.016 467.981 456.046C464.001 456.056 460.041 456.026 456.081 455.966C455.881 451.996 455.871 448.036 456.051 444.086Z" fill="#FFFEFC"/>
<path d="M528.021 444.048C532.001 444.018 536.001 444.008 540.021 444.008C540.001 448.008 540.001 452.018 540.021 456.038C536.031 456.058 532.051 456.038 528.091 455.968C527.971 451.978 527.951 448.008 528.021 444.048Z" fill="#FFFEFC"/>
<path d="M564.122 444.086C568.042 443.896 571.982 443.886 575.942 444.066C576.212 456.046 575.902 468.026 576.032 480.016C576.002 484.006 575.992 487.996 576.022 492.006C572.022 491.956 568.042 491.986 564.082 492.096C563.852 504.066 564.082 516.046 564.022 528.026C560.042 527.956 556.072 527.986 552.122 528.096C552.092 532.036 552.022 535.996 551.912 539.956C547.932 540.026 543.972 540.057 540.032 540.047C540.012 536.017 540.012 531.996 540.002 528.006C540.002 524.006 540.012 520.017 540.042 516.047C544.002 516.077 547.972 516.036 551.962 515.956C552.042 511.966 552.072 507.986 552.042 504.026C552.072 500.026 552.052 496.046 551.952 492.086C547.962 491.976 543.982 491.956 540.022 492.006C536.022 491.936 532.042 491.966 528.082 492.096C527.992 496.056 527.972 500.036 528.022 504.026C520.012 504.016 512.032 504.016 504.042 504.026C504.012 500.016 504.012 496.027 504.022 492.047C507.982 492.067 511.962 492.036 515.962 491.956C516.022 487.976 516.052 484.007 516.042 480.047C520.012 480.017 524.002 480.016 528.002 480.026C531.972 480.076 535.962 480.056 539.962 479.966C540.022 475.966 540.052 471.986 540.032 468.006C544.012 468.006 548.002 468.006 552.002 468.016C551.942 471.996 551.972 475.986 552.092 479.996C556.042 480.146 560.012 480.136 563.992 479.966C564.142 475.986 564.132 472.036 563.962 468.086C559.962 467.996 555.972 467.966 552.002 468.016C552.002 464.006 552.012 460.017 552.042 456.037C555.982 456.057 559.942 456.026 563.912 455.956C564.022 451.996 564.092 448.036 564.122 444.086Z" fill="#B2A890"/>
<path d="M300.092 480.157C308.022 479.657 315.992 480.037 323.942 480.097C324.022 484.047 324.062 488.027 324.062 492.007C324.012 495.997 324.002 500.007 324.022 504.027C320.012 504.017 316.012 504.017 312.022 504.037C312.062 500.037 312.042 496.057 311.952 492.087C307.962 491.997 303.972 491.967 300.002 492.007C299.952 488.047 299.982 484.097 300.092 480.157Z" fill="#B2A890"/>
<path d="M420.032 456.027C424.002 456.017 428.002 456.017 432.002 456.027C432.052 480.017 432.002 504.017 432.022 528.017C428.012 528.027 424.012 528.037 420.022 528.037C420.022 504.027 420.012 480.027 420.032 456.027Z" fill="#D4C9B1"/>
<path d="M24.0312 480.048C28.0213 480.028 32.0113 480.028 36.0113 480.038C36.0613 483.998 36.0412 487.978 35.9512 491.968C31.9812 492.028 28.0113 492.048 24.0413 492.028C24.0313 488.028 24.0312 484.028 24.0312 480.048Z" fill="#FFFEFD"/>
<path d="M480.031 480.027C484.011 480.017 488.011 480.017 492.011 480.027C492.001 484.017 492.001 488.017 492.021 492.037C488.021 492.057 484.041 492.037 480.081 491.967C479.961 487.977 479.951 483.997 480.031 480.027Z" fill="#FFFEFD"/>
<path d="M204.032 480.027C208.002 480.017 211.992 480.017 215.982 480.027C216.082 487.997 216.122 495.967 215.962 503.957C211.982 504.037 208.002 504.077 204.042 504.047C203.972 496.037 204.032 488.027 204.032 480.027Z" fill="#D3C8B0"/>
<path d="M576.032 480.017C580.012 479.987 583.992 479.997 588.002 480.037C588.102 484.017 588.092 488.017 587.972 492.027C583.972 492.007 579.982 492.007 576.022 492.007C575.992 487.997 576.002 484.007 576.032 480.017Z" fill="#D4CEC0"/>
<path d="M528.082 492.099C532.042 491.969 536.022 491.939 540.022 492.009C540.002 495.999 540.002 500.009 540.022 504.029C536.002 504.019 532.002 504.019 528.022 504.029C527.972 500.039 527.992 496.059 528.082 492.099Z" fill="#C1BD98"/>
<path d="M468.042 528.031C476.032 528.021 484.022 528.021 492.042 528.031C492.052 531.981 492.022 535.941 491.952 539.921C488.002 540.031 484.062 540.101 480.132 540.141C479.992 544.041 479.922 547.971 479.912 551.911C471.992 552.391 464.042 551.731 456.132 552.091C455.992 556.021 455.922 559.961 455.912 563.921C447.952 564.341 439.972 563.871 432.022 564.041C428.012 564.001 424.002 564.011 420.022 564.061C416.032 564.071 412.052 564.031 408.082 563.951C407.992 559.961 407.962 555.991 407.992 552.031C419.972 551.951 431.952 552.201 443.932 551.951C444.012 547.961 444.052 543.991 444.042 540.031C452.002 540.021 459.972 540.151 467.952 539.971C468.032 535.971 468.062 531.991 468.042 528.031Z" fill="#C1BD98"/>
<path d="M540.021 492.006C543.981 491.956 547.961 491.976 551.951 492.086C552.051 496.046 552.071 500.026 552.041 504.026C548.021 504.006 544.011 504.006 540.021 504.026C540.001 500.006 540.001 495.996 540.021 492.006Z" fill="#E3DEAD"/>
<path d="M528.021 504.027C532.001 504.017 536.001 504.017 540.021 504.027C539.991 508.017 540.001 512.027 540.041 516.047C540.011 520.017 540.001 524.007 540.001 528.007C536.011 527.947 532.041 527.977 528.081 528.097C527.991 532.057 527.961 536.027 528.011 540.007C524.011 539.947 520.041 539.977 516.081 540.097C515.991 544.047 515.961 548.007 516.001 551.987C512.021 551.957 508.061 551.997 504.121 552.107C504.091 556.047 504.021 559.997 503.911 563.967C491.971 564.267 480.041 563.767 468.121 564.097C468.091 568.037 468.021 571.997 467.911 575.957C455.941 576.167 443.981 575.987 432.021 576.007C432.011 572.007 432.011 568.007 432.021 564.037C439.971 563.867 447.951 564.337 455.911 563.917C455.921 559.957 455.991 556.017 456.131 552.087C464.041 551.727 471.991 552.387 479.911 551.907C479.921 547.967 479.991 544.037 480.131 540.137C484.061 540.097 488.001 540.027 491.951 539.917C492.021 535.937 492.051 531.977 492.041 528.027C499.991 528.017 507.941 528.147 515.911 527.957C516.021 524.007 516.091 520.067 516.121 516.137C520.051 515.997 523.991 515.927 527.951 515.927C528.031 511.947 528.061 507.977 528.021 504.027Z" fill="#E3DEAD"/>
<path d="M504.042 504.027C512.032 504.017 520.012 504.017 528.022 504.027C528.062 507.977 528.032 511.947 527.952 515.927C523.992 515.927 520.052 515.997 516.122 516.137C516.092 520.067 516.022 524.007 515.912 527.957C507.942 528.147 499.992 528.017 492.042 528.027C492.012 524.017 492.002 520.027 492.012 516.047C495.982 516.057 499.962 516.027 503.952 515.967C504.032 511.967 504.062 507.987 504.042 504.027Z" fill="#C0BC97"/>
<path d="M552.121 528.096C556.071 527.986 560.041 527.956 564.021 528.026C564.011 536.016 564.041 543.996 564.011 552.006C560.011 551.946 556.031 551.976 552.081 552.096C551.971 556.056 551.951 560.036 552.021 564.026C551.991 568.006 551.981 571.996 552.001 575.996C547.991 575.986 544.001 575.996 540.021 576.046C536.001 576.006 532.001 576.006 528.021 576.026C528.001 572.006 528.001 568.006 528.021 564.026C531.991 564.056 535.971 564.036 539.961 563.956C540.041 559.966 540.061 555.986 540.021 552.026C540.011 548.016 540.021 544.016 540.031 540.046C543.971 540.056 547.931 540.026 551.911 539.956C552.021 535.996 552.091 532.036 552.121 528.096Z" fill="#FCF4E2"/>
<path d="M156.062 552.018C160.032 552.008 164.022 552.008 168.012 552.028C167.962 555.988 167.982 559.968 168.092 563.968C172.062 564.028 176.042 564.058 180.022 564.038C180.022 568.018 180.032 572.018 180.042 576.028C172.052 575.988 164.052 576.238 156.072 575.948C156.012 567.958 155.852 559.988 156.062 552.018Z" fill="#B4AB94"/>
<path d="M420.022 564.056C424.002 564.006 428.012 563.996 432.022 564.036C432.012 568.006 432.012 572.006 432.022 576.006C428.012 576.016 424.022 576.016 420.032 576.016C420.012 572.016 420.012 568.026 420.022 564.056Z" fill="#D3CDA4"/>
<path d="M516.082 564.099C520.042 563.979 524.022 563.959 528.022 564.029C528.002 568.009 528.002 572.009 528.022 576.029C524.002 576.019 519.992 576.009 516.002 576.009C515.962 572.019 515.992 568.049 516.082 564.099Z" fill="#DACFB8"/>
<path d="M528.021 576.029C532.001 576.009 536.001 576.009 540.021 576.049C540.001 580.019 540.001 583.999 540.011 588.009C535.991 588.009 532.001 588.009 528.021 588.019C528.001 583.999 528.001 580.009 528.021 576.029Z" fill="#FAFAF8"/>
</svg>
