<svg width="672" height="504" viewBox="0 0 672 504" fill="none" xmlns="http://www.w3.org/2000/svg">
<path d="M300.012 0.00444444C308.002 -0.00555556 316.002 0.00444444 324.002 0.00444444C388.002 0.00444444 452.002 0.00444444 516.002 0.00444444C523.992 0.00444444 531.992 -0.00555556 539.992 0.00444444C539.982 3.99444 539.992 7.99445 540.012 11.9944C543.992 11.9944 547.992 12.0044 552.002 12.0144C551.982 16.0044 551.982 20.0044 552.002 24.0044C464.002 24.0044 376.002 24.0044 288.002 24.0044C287.992 20.0044 287.992 16.0044 288.002 12.0144C291.992 12.0044 295.982 11.9944 299.992 11.9944C299.992 7.99445 299.992 4.00444 300.012 0.00444444Z" fill="#FFF1E8"/>
<path d="M276.012 24.0036C280.002 24.0036 283.992 23.9936 288.002 24.0036C376.002 24.0036 464.002 24.0036 552.002 24.0036C555.982 23.9936 559.982 23.9936 563.992 24.0036C563.982 27.9936 563.992 31.9936 564.012 36.0036C571.992 35.9936 580.002 36.0036 588.002 36.0036C587.992 40.0036 587.992 43.9936 588.002 48.0036C480.002 48.0036 372.002 48.0036 264.002 48.0036C263.992 44.0036 263.992 40.0036 264.002 36.0136C267.992 36.0036 271.992 35.9936 275.992 35.9936C275.992 31.9936 275.992 27.9936 276.012 24.0036Z" fill="#FFF2EA"/>
<path d="M252.012 48.0036C256.002 48.0036 259.992 47.9936 264.002 48.0036C372.002 48.0036 480.002 48.0036 588.002 48.0036C591.982 47.9936 595.982 47.9936 600.002 48.0036C599.982 55.9936 599.992 63.9936 600.002 71.9936C603.992 71.9936 607.982 72.0036 612.002 72.0136C611.982 76.0036 611.982 80.0036 612.002 84.0036C484.002 84.0036 356.002 84.0036 228.002 84.0036C227.992 80.0036 227.992 76.0036 228.002 72.0136C231.992 72.0036 235.992 71.9936 239.992 71.9936C239.992 67.9936 239.992 64.0036 240.012 60.0136C243.992 60.0036 247.992 59.9936 251.992 59.9936C251.992 55.9936 251.992 51.9936 252.012 48.0036Z" fill="#FFF3EC"/>
<path d="M216.002 84.0036C219.992 83.9936 223.992 83.9936 228.002 84.0036C356.002 84.0036 484.002 84.0036 612.002 84.0036C615.982 83.9936 619.982 83.9936 624.002 84.0036C623.982 88.0036 623.982 92.0036 624.002 96.0036C623.982 99.9936 623.992 103.994 624.012 107.994C627.982 107.994 631.982 107.994 635.992 108.004C635.982 111.994 635.992 115.994 636.012 119.994C639.992 119.994 643.992 119.994 648.002 120.004C647.982 124.004 647.982 127.994 648.002 132.004C496.002 132.004 344.002 132.004 192.002 132.004C191.992 128.004 191.992 124.004 192.002 120.014C195.992 120.004 199.992 119.994 203.992 119.994C203.992 115.994 204.002 112.004 204.012 108.014C208.002 108.004 211.992 107.994 215.992 107.994C215.992 99.9936 216.002 91.9936 216.002 84.0036Z" fill="#FFF5EF"/>
<path d="M180.012 132.004C184.002 131.994 187.992 131.994 192.002 132.004C344.002 132.004 496.002 132.004 648.002 132.004C647.982 135.994 647.992 139.994 648.012 143.994C651.992 143.994 655.982 144.004 659.992 144.014C659.992 156.004 659.992 168.004 660.002 180.004C492.002 180.004 324.002 180.004 156.002 180.004C155.992 175.994 155.992 172.004 156.002 168.014C159.992 168.004 163.992 167.994 168.002 167.994C167.992 159.994 168.002 152.004 168.002 144.014C171.992 143.994 175.992 143.994 179.992 143.994C179.992 139.994 180.002 135.994 180.012 132.004Z" fill="#FFF6F1"/>
<path d="M144.012 180.004C148.002 179.994 152.002 179.994 156.002 180.004C324.002 180.004 492.002 180.004 660.002 180.004C663.982 179.994 667.982 179.994 672.002 180.004C671.992 196.004 671.992 212.004 672.002 228.004C568.002 228.004 464.002 228.004 359.992 228.004C355.982 227.994 351.992 227.994 348.002 228.004C339.992 227.994 332.002 228.004 324.002 228.004C256.002 228.004 188.002 228.004 120.002 228.004C119.992 223.994 119.992 220.004 120.002 216.014C123.992 216.004 127.992 215.994 132.002 215.994C131.992 207.994 132.002 200.004 132.002 192.014C135.992 191.994 139.992 191.994 143.992 191.994C143.992 187.994 144.002 183.994 144.012 180.004Z" fill="#FFF8F4"/>
<path d="M108.013 228.004C112.003 227.994 116.002 227.994 120.002 228.004C188.002 228.004 256.002 228.004 324.002 228.004C323.992 231.994 323.982 235.984 323.992 239.994C319.982 239.994 315.992 239.994 312.002 240.014C307.992 239.994 303.992 239.994 300.002 240.004C292.002 239.984 284.003 239.994 276.012 240.014C275.992 243.994 275.982 247.994 275.982 251.994C271.982 251.984 267.992 251.994 264.012 252.004C260.003 251.994 256.003 252.004 252.012 252.014C252.003 256.004 251.992 259.994 251.992 264.004C247.992 263.994 244.002 264.004 240.022 264.014C240.002 268.004 239.992 271.994 239.982 275.994C235.982 275.994 231.992 275.994 228.002 276.004C180.002 276.004 132.002 276.004 84.0025 276.004C84.0025 267.994 83.9925 260.004 84.0025 252.014C87.9925 251.994 91.9925 251.994 95.9925 251.994C95.9925 247.994 96.0025 244.004 96.0125 240.014C100.003 240.004 103.992 239.994 107.992 239.994C107.992 235.994 108.003 231.994 108.013 228.004Z" fill="#FFF9F6"/>
<path d="M359.993 228.004C464.003 228.004 568.003 228.004 672.003 228.004C671.993 244.004 671.993 260.004 672.003 276.004C596.003 276.004 520.003 276.004 443.993 276.004C439.993 275.994 436.003 275.994 432.023 275.994C431.993 271.994 431.983 268.004 431.973 264.024C427.983 264.004 423.993 263.984 420.023 263.984C420.003 259.984 419.983 255.994 419.983 252.014C415.973 252.004 411.983 251.994 408.013 252.004C403.993 251.994 399.993 251.994 396.003 252.004C395.993 247.994 395.983 244.004 395.993 240.014C383.993 239.994 372.003 240.004 360.013 239.994C359.993 235.994 359.993 231.994 359.993 228.004Z" fill="#FFF9F6"/>
<path d="M324.002 228.004C332.002 228.004 339.992 227.994 348.002 228.004C347.992 231.984 347.992 235.964 348.002 239.964C343.992 239.974 339.982 240.004 335.992 240.054C332.112 240.114 328.242 240.204 324.392 240.304C324.212 244.194 324.052 248.084 323.912 251.984C319.932 251.984 315.962 251.994 312.002 252.004C311.992 247.994 311.992 243.994 312.002 240.014C315.992 239.994 319.982 239.994 323.992 239.994C323.982 235.984 323.992 231.994 324.002 228.004Z" fill="#AF142F"/>
<path d="M276.012 240.013C284.002 239.993 292.002 239.983 300.002 240.003C299.992 243.993 299.992 247.993 300.002 252.003C299.982 255.963 299.972 259.933 299.972 263.913C296.082 264.053 292.192 264.213 288.322 264.383C288.172 268.233 288.032 272.103 287.912 275.973C283.942 275.983 279.972 276.003 276.012 276.033C276.002 280.003 275.992 283.993 276.002 287.993C275.992 291.983 275.992 295.993 276.002 300.003C271.992 299.993 268.002 300.003 264.012 300.013C264.002 303.993 263.992 307.993 264.002 312.003C259.992 311.993 255.992 311.993 252.012 312.013C252.002 316.003 251.992 319.993 252.002 324.003C247.992 323.993 243.992 323.993 240.012 324.003C236.002 323.993 232.002 323.993 228.012 324.013C227.992 327.993 227.992 331.993 228.002 336.003C227.992 339.993 227.992 343.993 228.002 348.003C227.992 351.993 227.992 355.993 228.002 360.013C227.992 363.993 227.992 367.993 227.992 371.993C219.992 371.993 211.992 371.993 204.002 372.003C200.002 371.993 196.002 371.993 192.012 372.013C192.002 375.993 191.992 379.993 191.992 384.003C175.992 384.003 160.002 383.993 144.002 384.003C143.992 379.993 143.992 375.983 143.992 372.003C143.992 367.983 144.002 363.983 144.012 360.003C148.002 359.993 151.992 359.993 156.002 360.003C155.992 363.993 155.992 367.993 156.012 372.003C164.002 371.993 172.002 372.003 180.002 372.003C180.002 367.993 179.992 363.993 180.002 360.003C175.992 359.993 171.992 359.993 167.992 360.003C167.992 355.993 168.002 352.003 168.012 348.023C172.002 348.003 175.992 347.983 179.992 347.983C179.982 343.983 179.992 339.993 180.002 336.003C183.992 335.983 187.992 335.983 191.992 335.993C191.992 331.983 191.992 327.993 192.012 324.003C195.992 323.993 199.982 323.993 203.982 324.003C203.982 319.993 204.002 316.003 204.022 312.023C208.002 312.003 211.992 311.983 215.992 311.983C215.982 307.983 215.992 303.993 216.002 300.003C219.992 299.993 223.992 299.983 227.992 299.993C227.992 295.983 227.992 291.983 228.002 288.003C227.992 283.993 227.992 279.993 228.002 276.003C231.992 275.993 235.982 275.993 239.982 275.993C239.992 271.993 240.002 268.003 240.022 264.013C244.002 264.003 247.992 263.993 251.992 264.003C255.982 263.983 259.982 263.983 263.992 263.993C263.992 259.993 263.992 255.993 264.012 252.003C267.992 251.993 271.982 251.983 275.982 251.993C275.982 247.993 275.992 243.993 276.012 240.013ZM276.252 253.093C276.082 255.823 275.732 261.263 275.552 263.983C279.702 263.983 283.852 263.993 288.012 264.013C287.982 259.833 287.962 255.663 287.942 251.503C284.032 252.033 280.092 252.233 276.252 253.093ZM252.002 276.003C251.992 279.993 251.992 283.993 252.002 288.003C255.992 287.993 259.992 287.993 264.002 288.003C263.992 283.993 263.992 279.993 264.002 276.003C259.992 275.993 255.992 275.993 252.002 276.003ZM204.002 348.003C203.992 351.993 203.992 355.993 204.002 360.003C207.992 359.993 211.992 359.993 216.002 360.003C215.992 355.993 215.992 351.993 216.002 348.003C211.992 347.993 207.992 347.993 204.002 348.003Z" fill="#AF142F"/>
<path d="M348.002 228.004C351.992 227.994 355.982 227.994 359.992 228.004C359.992 231.994 359.992 235.994 360.012 239.994C372.002 240.004 383.992 239.994 395.992 240.014C395.982 244.004 395.992 247.994 396.002 252.004C395.992 255.994 395.992 259.994 396.012 264.004C399.992 263.994 403.982 263.994 407.992 264.004C407.982 259.994 407.992 255.994 408.012 252.004C411.982 251.994 415.972 252.004 419.982 252.014C419.982 255.994 420.002 259.984 420.022 263.984C423.992 263.984 427.982 264.004 431.972 264.024C431.982 268.004 431.992 271.994 432.022 275.994C436.002 275.994 439.992 275.994 443.992 276.004C443.992 279.984 443.992 283.974 444.022 287.984C447.992 287.984 451.982 288.004 455.982 288.024C455.982 292.004 455.992 295.984 456.022 299.974C460.002 299.984 463.992 299.994 467.992 300.024C467.982 304.004 467.982 307.994 468.002 311.994C467.992 315.984 467.992 319.984 468.002 324.004C463.992 323.994 459.982 323.994 456.002 324.014C455.992 327.994 455.992 331.994 456.002 336.004C459.992 335.994 463.992 335.994 468.002 336.004C471.982 335.994 475.982 335.994 480.002 336.004C483.982 335.994 487.982 335.994 492.002 336.004C495.982 335.994 499.982 335.994 504.002 336.004C503.992 339.984 503.992 343.974 504.022 347.984C507.992 347.984 511.982 348.004 515.982 348.024C515.982 352.004 515.992 355.994 516.022 359.994C524.002 359.984 532.002 359.994 539.992 360.014C540.002 367.994 540.012 376.004 539.992 384.004C535.982 383.994 531.992 383.994 528.002 384.004C527.982 379.994 527.982 375.994 527.992 372.004C523.982 371.994 519.992 371.994 516.012 372.004C515.992 375.994 515.992 379.994 516.002 384.004C511.982 383.984 507.992 383.984 504.012 384.004C503.982 379.994 503.982 375.994 503.992 372.004C499.982 371.994 495.992 371.994 492.012 372.004C491.992 375.994 491.992 379.994 492.002 384.004C480.002 384.004 468.012 383.994 456.032 384.014C456.002 387.994 455.982 391.994 455.982 396.004C451.982 395.994 447.982 395.994 444.002 396.004C443.992 391.994 443.982 387.994 443.992 384.004C435.982 383.994 427.992 383.994 420.002 384.004C419.992 387.994 419.992 391.994 420.002 396.004C411.992 395.994 404.002 396.004 396.002 396.004C395.992 391.994 395.982 387.994 395.992 384.004C391.982 383.994 387.992 383.994 384.012 384.004C383.992 387.994 383.992 391.994 384.002 396.004C375.992 395.994 367.992 395.994 360.002 396.004C359.992 391.994 359.982 387.994 359.992 384.004C363.982 383.984 367.992 383.984 372.002 383.994C371.992 379.984 371.992 375.994 372.002 372.004C367.992 371.994 363.992 371.994 360.012 372.004C359.992 375.994 359.992 379.994 359.992 384.004C355.992 383.994 351.992 383.994 348.012 384.014C347.992 387.994 347.992 391.994 348.002 396.004C335.992 395.994 324.002 396.004 312.002 396.004C311.992 391.994 311.982 387.994 311.992 384.004C307.992 383.994 303.992 383.994 300.012 384.004C299.992 387.994 299.992 391.994 300.002 396.004C287.992 395.994 276.002 396.004 264.002 396.004C263.992 391.994 263.982 387.994 263.992 384.004C259.992 383.994 255.992 383.994 252.012 384.004C252.002 387.994 251.992 391.994 252.002 396.004C247.992 395.994 243.992 395.994 240.012 396.004C239.992 391.994 239.982 387.994 239.992 384.004C235.992 383.994 231.992 383.994 228.012 384.004C228.002 387.994 227.992 391.994 228.002 396.004C219.992 395.994 212.002 396.004 204.012 396.004C204.002 391.994 203.992 387.994 204.002 384.004C203.992 379.994 203.992 375.994 204.002 372.004C211.992 371.994 219.992 371.994 227.992 371.994C227.992 367.994 227.992 363.994 228.002 360.014C231.992 359.994 235.992 359.984 240.002 359.994C239.992 355.984 239.992 351.994 240.002 348.014C235.992 347.994 231.992 347.994 228.002 348.004C227.992 343.994 227.992 339.994 228.002 336.004C231.992 335.994 235.982 335.984 239.992 335.994C239.992 331.984 239.992 327.994 240.012 324.004C243.992 323.994 247.992 323.994 252.002 324.004C255.982 323.994 259.982 323.984 263.992 323.994C263.982 319.984 263.992 315.984 264.002 312.004C263.992 307.994 264.002 303.994 264.012 300.014C268.002 300.004 271.992 299.994 276.002 300.004C279.992 299.984 283.992 299.984 288.002 299.994C287.992 295.994 287.992 291.994 288.002 288.014C283.992 287.994 279.992 287.994 276.002 287.994C275.992 283.994 276.002 280.004 276.012 276.034C279.972 276.004 283.942 275.984 287.912 275.974C288.032 272.104 288.172 268.234 288.322 264.384C292.192 264.214 296.082 264.054 299.972 263.914C299.972 259.934 299.982 255.964 300.002 252.004C303.992 251.994 307.992 251.994 312.002 252.004C315.962 251.994 319.932 251.984 323.912 251.984C324.052 248.084 324.212 244.194 324.392 240.304C328.242 240.204 332.112 240.114 335.992 240.054C335.992 248.034 336.002 256.014 336.002 264.004C331.992 263.994 327.992 264.004 324.002 264.014C323.992 268.004 323.992 271.994 324.002 276.004C327.992 275.994 331.992 275.994 335.992 276.004C335.992 271.994 335.992 267.994 336.002 264.004C339.992 263.994 343.992 263.984 348.002 263.994C347.992 255.974 347.992 247.974 348.002 239.964C347.992 235.964 347.992 231.984 348.002 228.004ZM360.002 264.004C359.992 267.994 359.992 271.994 360.002 276.004C363.992 275.994 367.992 275.994 372.002 276.004C371.992 271.994 371.992 267.994 372.002 264.004C367.992 263.994 363.992 263.994 360.002 264.004ZM300.002 276.004C299.992 279.994 299.992 283.994 300.002 288.004C303.992 287.994 307.992 287.994 312.002 288.004C311.992 283.994 311.992 279.994 312.002 276.004C307.992 275.994 303.992 275.994 300.002 276.004ZM420.022 275.554C420.002 279.704 419.992 283.854 419.992 288.014C424.152 287.984 428.322 287.964 432.502 287.944C431.922 284.034 431.752 280.094 430.912 276.254C428.182 276.084 422.742 275.734 420.022 275.554ZM348.002 288.004C347.992 291.994 347.992 295.994 348.002 300.004C351.992 299.994 355.992 299.994 360.002 300.004C359.992 295.994 359.992 291.994 360.002 288.004C355.992 287.994 351.992 287.994 348.002 288.004ZM384.002 288.004C383.992 291.994 383.992 295.994 384.002 300.004C387.992 299.994 391.992 299.994 396.002 300.004C395.992 295.994 395.992 291.994 396.002 288.004C391.992 287.994 387.992 287.994 384.002 288.004ZM300.002 300.004C299.992 303.994 299.992 307.994 300.002 312.004C303.992 311.994 307.992 311.994 312.002 312.004C311.992 307.994 311.992 303.994 312.002 300.004C307.992 299.994 303.992 299.994 300.002 300.004ZM444.022 299.554C444.002 303.704 443.992 307.854 443.992 312.014C448.152 311.984 452.322 311.964 456.502 311.944C455.922 308.034 455.752 304.094 454.912 300.254C452.182 300.084 446.742 299.734 444.022 299.554ZM324.002 312.004C323.992 315.994 323.992 319.994 324.002 324.004C327.992 323.994 331.992 323.994 336.002 324.004C335.992 319.994 335.992 315.994 336.002 312.004C331.992 311.994 327.992 311.994 324.002 312.004ZM372.002 312.004C371.992 315.994 371.992 319.994 372.002 324.004C375.992 323.994 379.992 323.994 384.002 324.004C383.992 319.994 383.992 315.994 384.002 312.004C379.992 311.994 375.992 311.994 372.002 312.004ZM408.002 312.004C407.992 315.994 407.992 319.994 408.002 324.004C411.992 323.994 415.992 323.994 420.002 324.004C419.992 319.994 419.992 315.994 420.002 312.004C415.992 311.994 411.992 311.994 408.002 312.004ZM288.002 324.004C287.992 327.994 287.992 331.994 288.002 336.004C291.992 335.994 295.992 335.994 300.002 336.004C299.992 331.994 299.992 327.994 300.002 324.004C295.992 323.994 291.992 323.994 288.002 324.004ZM264.002 336.004C263.992 339.994 263.992 343.994 264.002 348.004C267.992 347.994 271.992 347.994 276.002 348.004C275.992 343.994 275.992 339.994 276.002 336.004C271.992 335.994 267.992 335.994 264.002 336.004ZM312.002 336.004C311.992 343.994 311.982 351.994 312.002 360.004C315.992 359.994 319.992 359.994 324.002 360.004C324.012 352.004 323.992 343.994 323.992 336.004C319.992 335.994 315.992 335.994 312.002 336.004ZM348.002 336.004C348.002 343.994 347.992 351.994 348.002 360.004C351.992 359.994 355.992 359.994 360.002 360.004C360.002 352.004 359.992 343.994 360.002 336.004C355.992 335.994 351.992 335.994 348.002 336.004ZM384.002 336.004C384.002 343.994 383.992 351.994 384.002 360.004C387.992 359.994 391.992 359.994 396.002 360.004C396.002 352.004 395.992 343.994 396.002 336.004C391.992 335.994 387.992 335.994 384.002 336.004ZM420.002 336.004C419.992 339.994 419.992 343.994 420.002 348.004C427.992 348.004 435.992 347.994 444.002 348.004C443.992 343.994 443.992 339.994 444.002 336.004C436.002 336.004 427.992 335.994 420.002 336.004ZM480.002 347.914C479.982 351.934 479.982 355.964 480.002 360.004C487.992 360.004 495.982 360.004 504.002 360.014C504.012 357.124 504.032 351.334 504.052 348.444C496.032 348.024 488.002 347.994 480.002 347.914ZM252.002 360.004C251.992 363.994 251.992 367.994 252.002 372.004C255.992 371.994 259.992 371.994 264.002 372.004C263.992 367.994 263.992 363.994 264.002 360.004C259.992 359.994 255.992 359.994 252.002 360.004ZM288.002 360.004C287.992 363.994 287.992 367.994 288.002 372.004C291.992 371.994 295.992 371.994 300.002 372.004C299.992 367.994 299.992 363.994 300.002 360.004C295.992 359.994 291.992 359.994 288.002 360.004ZM324.002 360.004C323.982 368.004 323.992 375.994 324.012 384.004C327.992 383.994 331.992 383.994 336.002 384.004C336.002 376.004 336.002 367.994 336.002 360.004C331.992 359.984 327.992 359.984 324.002 360.004ZM408.002 360.004C407.992 363.994 407.992 367.994 408.002 372.004C411.992 371.994 415.992 371.994 420.002 372.004C419.992 367.994 419.992 363.994 420.002 360.004C415.992 359.994 411.992 359.994 408.002 360.004ZM444.002 360.004C443.992 363.994 443.992 367.994 444.002 372.004C451.992 372.004 459.992 371.994 468.002 372.004C467.992 367.994 467.992 363.994 468.002 360.004C460.002 360.004 451.992 359.994 444.002 360.004Z" fill="#BF1A37"/>
<path d="M300.002 240.003C303.992 239.993 307.992 239.993 312.002 240.013C311.992 243.993 311.992 247.993 312.002 252.003C307.992 251.993 303.992 251.993 300.002 252.003C299.992 247.993 299.992 243.993 300.002 240.003Z" fill="#A11630"/>
<path d="M335.991 240.055C339.981 240.005 343.991 239.975 348.001 239.965C347.991 247.975 347.991 255.975 348.001 263.995C343.991 263.985 339.991 263.995 336.001 264.005C336.001 256.015 335.991 248.035 335.991 240.055Z" fill="#991930"/>
<path d="M348.001 336.004C351.991 335.994 355.991 335.994 360.001 336.004C359.991 343.994 360.001 352.004 360.001 360.004C355.991 359.994 351.991 359.994 348.001 360.004C347.991 351.994 348.001 343.994 348.001 336.004Z" fill="#991930"/>
<path d="M384.001 336.004C387.991 335.994 391.991 335.994 396.001 336.004C395.991 343.994 396.001 352.004 396.001 360.004C391.991 359.994 387.991 359.994 384.001 360.004C383.991 351.994 384.001 343.994 384.001 336.004Z" fill="#991930"/>
<path d="M420.001 336.004C427.991 335.994 436.001 336.004 444.001 336.004C443.991 339.994 443.991 343.994 444.001 348.004C435.991 347.994 427.991 348.004 420.001 348.004C419.991 343.994 419.991 339.994 420.001 336.004Z" fill="#991930"/>
<path d="M480.001 347.914C488.001 347.994 496.031 348.024 504.051 348.444C504.031 351.334 504.011 357.124 504.001 360.014C495.981 360.004 487.991 360.004 480.001 360.004C479.981 355.964 479.981 351.934 480.001 347.914Z" fill="#991930"/>
<path d="M324.001 360.003C327.991 359.983 331.991 359.983 336.001 360.003C336.001 367.993 336.001 376.003 336.001 384.003C331.991 383.993 327.991 383.993 324.011 384.003C323.991 375.993 323.981 368.003 324.001 360.003Z" fill="#991930"/>
<path d="M420.001 384.004C427.991 383.994 435.981 383.994 443.991 384.004C443.981 387.994 443.991 391.994 444.001 396.004C435.991 395.994 427.991 395.994 420.001 396.004C419.991 391.994 419.991 387.994 420.001 384.004Z" fill="#991930"/>
<path d="M252.012 252.014C256.002 252.004 260.002 251.994 264.012 252.004C263.992 255.994 263.992 259.994 263.992 263.994C259.982 263.984 255.982 263.984 251.992 264.004C251.992 259.994 252.002 256.004 252.012 252.014Z" fill="#D37985"/>
<path d="M276.252 253.094C280.092 252.234 284.032 252.034 287.942 251.504C287.962 255.664 287.982 259.834 288.012 264.014C283.852 263.994 279.702 263.984 275.552 263.984C275.732 261.264 276.082 255.824 276.252 253.094Z" fill="#981930"/>
<path d="M396.002 252.004C399.992 251.994 403.992 251.994 408.012 252.004C407.992 255.994 407.982 259.994 407.992 264.004C403.982 263.994 399.992 263.994 396.012 264.004C395.992 259.994 395.992 255.994 396.002 252.004Z" fill="#981930"/>
<path d="M324.002 264.014C327.992 264.004 331.992 263.994 336.002 264.004C335.992 267.994 335.992 271.994 335.992 276.004C331.992 275.994 327.992 275.994 324.002 276.004C323.992 271.994 323.992 268.004 324.002 264.014Z" fill="#981930"/>
<path d="M360.002 264.004C363.992 263.994 367.992 263.994 372.002 264.004C371.992 267.994 371.992 271.994 372.002 276.004C367.992 275.994 363.992 275.994 360.002 276.004C359.992 271.994 359.992 267.994 360.002 264.004Z" fill="#981930"/>
<path d="M252.002 276.004C255.992 275.994 259.992 275.994 264.002 276.004C263.992 279.994 263.992 283.994 264.002 288.004C259.992 287.994 255.992 287.994 252.002 288.004C251.992 283.994 251.992 279.994 252.002 276.004Z" fill="#981930"/>
<path d="M300.002 276.004C303.992 275.994 307.992 275.994 312.002 276.004C311.992 279.994 311.992 283.994 312.002 288.004C307.992 287.994 303.992 287.994 300.002 288.004C299.992 283.994 299.992 279.994 300.002 276.004Z" fill="#981930"/>
<path d="M420.022 275.555C422.742 275.735 428.182 276.085 430.912 276.255C431.752 280.095 431.922 284.035 432.502 287.945C428.322 287.965 424.152 287.985 419.992 288.015C419.992 283.855 420.002 279.705 420.022 275.555Z" fill="#981930"/>
<path d="M276.002 287.992C279.992 287.992 283.992 287.992 288.002 288.012C287.992 291.992 287.992 295.992 288.002 299.992C283.992 299.982 279.992 299.982 276.002 300.002C275.992 295.992 275.992 291.982 276.002 287.992Z" fill="#981930"/>
<path d="M348.002 288.004C351.992 287.994 355.992 287.994 360.002 288.004C359.992 291.994 359.992 295.994 360.002 300.004C355.992 299.994 351.992 299.994 348.002 300.004C347.992 295.994 347.992 291.994 348.002 288.004Z" fill="#981930"/>
<path d="M384.002 288.004C387.992 287.994 391.992 287.994 396.002 288.004C395.992 291.994 395.992 295.994 396.002 300.004C391.992 299.994 387.992 299.994 384.002 300.004C383.992 295.994 383.992 291.994 384.002 288.004Z" fill="#981930"/>
<path d="M300.002 300.004C303.992 299.994 307.992 299.994 312.002 300.004C311.992 303.994 311.992 307.994 312.002 312.004C307.992 311.994 303.992 311.994 300.002 312.004C299.992 307.994 299.992 303.994 300.002 300.004Z" fill="#981930"/>
<path d="M444.022 299.555C446.742 299.735 452.182 300.085 454.912 300.255C455.752 304.095 455.922 308.035 456.502 311.945C452.322 311.965 448.152 311.985 443.992 312.015C443.992 307.855 444.002 303.705 444.022 299.555Z" fill="#981930"/>
<path d="M252.012 312.013C255.992 311.993 259.992 311.993 264.002 312.003C263.992 315.983 263.982 319.983 263.992 323.993C259.982 323.983 255.982 323.993 252.002 324.003C251.992 319.993 252.002 316.003 252.012 312.013Z" fill="#981930"/>
<path d="M372.002 312.004C375.992 311.994 379.992 311.994 384.002 312.004C383.992 315.994 383.992 319.994 384.002 324.004C379.992 323.994 375.992 323.994 372.002 324.004C371.992 319.994 371.992 315.994 372.002 312.004Z" fill="#981930"/>
<path d="M408.002 312.004C411.992 311.994 415.992 311.994 420.002 312.004C419.992 315.994 419.992 319.994 420.002 324.004C415.992 323.994 411.992 323.994 408.002 324.004C407.992 319.994 407.992 315.994 408.002 312.004Z" fill="#981930"/>
<path d="M228.012 324.013C232.002 323.993 236.002 323.993 240.012 324.003C239.992 327.993 239.992 331.983 239.992 335.993C235.982 335.983 231.992 335.993 228.002 336.003C227.992 331.993 227.992 327.993 228.012 324.013Z" fill="#981930"/>
<path d="M288.002 324.004C291.992 323.994 295.992 323.994 300.002 324.004C299.992 327.994 299.992 331.994 300.002 336.004C295.992 335.994 291.992 335.994 288.002 336.004C287.992 331.994 287.992 327.994 288.002 324.004Z" fill="#981930"/>
<path d="M456.002 324.013C459.982 323.993 463.992 323.993 468.002 324.003C467.992 327.983 467.982 331.993 468.002 336.003C463.992 335.993 459.992 335.993 456.002 336.003C455.992 331.993 455.992 327.993 456.002 324.013Z" fill="#981930"/>
<path d="M264.002 336.004C267.992 335.994 271.992 335.994 276.002 336.004C275.992 339.994 275.992 343.994 276.002 348.004C271.992 347.994 267.992 347.994 264.002 348.004C263.992 343.994 263.992 339.994 264.002 336.004Z" fill="#981930"/>
<path d="M204.002 348.004C207.992 347.994 211.992 347.994 216.002 348.004C215.992 351.994 215.992 355.994 216.002 360.004C211.992 359.994 207.992 359.994 204.002 360.004C203.992 355.994 203.992 351.994 204.002 348.004Z" fill="#981930"/>
<path d="M228.002 348.003C231.992 347.993 235.992 347.993 240.002 348.013C239.992 351.993 239.992 355.983 240.002 359.993C235.992 359.983 231.992 359.993 228.002 360.013C227.992 355.993 227.992 351.993 228.002 348.003Z" fill="#981930"/>
<path d="M252.002 360.004C255.992 359.994 259.992 359.994 264.002 360.004C263.992 363.994 263.992 367.994 264.002 372.004C259.992 371.994 255.992 371.994 252.002 372.004C251.992 367.994 251.992 363.994 252.002 360.004Z" fill="#981930"/>
<path d="M288.002 360.004C291.992 359.994 295.992 359.994 300.002 360.004C299.992 363.994 299.992 367.994 300.002 372.004C295.992 371.994 291.992 371.994 288.002 372.004C287.992 367.994 287.992 363.994 288.002 360.004Z" fill="#981930"/>
<path d="M408.002 360.004C411.992 359.994 415.992 359.994 420.002 360.004C419.992 363.994 419.992 367.994 420.002 372.004C415.992 371.994 411.992 371.994 408.002 372.004C407.992 367.994 407.992 363.994 408.002 360.004Z" fill="#981930"/>
<path d="M192.012 372.013C196.002 371.993 200.002 371.993 204.002 372.003C203.992 375.993 203.992 379.993 204.002 384.003C199.992 383.993 195.992 383.993 191.992 384.003C191.992 379.993 192.002 375.993 192.012 372.013Z" fill="#981930"/>
<path d="M360.012 372.004C363.992 371.994 367.992 371.994 372.002 372.004C371.992 375.994 371.992 379.984 372.002 383.994C367.992 383.984 363.982 383.984 359.992 384.004C359.992 379.994 359.992 375.994 360.012 372.004Z" fill="#981930"/>
<path d="M492.012 372.004C495.992 371.994 499.982 371.994 503.992 372.004C503.982 375.994 503.982 379.994 504.012 384.004C499.992 383.994 495.982 383.994 492.002 384.004C491.992 379.994 491.992 375.994 492.012 372.004Z" fill="#981930"/>
<path d="M516.012 372.004C519.992 371.994 523.982 371.994 527.992 372.004C527.982 375.994 527.982 379.994 528.002 384.004C523.982 383.994 519.982 383.984 516.002 384.004C515.992 379.994 515.992 375.994 516.012 372.004Z" fill="#981930"/>
<path d="M228.012 384.004C231.992 383.994 235.992 383.994 239.992 384.004C239.982 387.994 239.992 391.994 240.012 396.004C235.992 395.994 231.992 395.994 228.002 396.004C227.992 391.994 228.002 387.994 228.012 384.004Z" fill="#981930"/>
<path d="M252.012 384.004C255.992 383.994 259.992 383.994 263.992 384.004C263.982 387.994 263.992 391.994 264.002 396.004C259.992 395.994 255.992 395.994 252.002 396.004C251.992 391.994 252.002 387.994 252.012 384.004Z" fill="#981930"/>
<path d="M300.012 384.004C303.992 383.994 307.992 383.994 311.992 384.004C311.982 387.994 311.992 391.994 312.002 396.004C307.992 395.994 303.992 395.994 300.002 396.004C299.992 391.994 299.992 387.994 300.012 384.004Z" fill="#981930"/>
<path d="M348.012 384.013C351.992 383.993 355.992 383.993 359.992 384.003C359.982 387.993 359.992 391.993 360.002 396.003C355.992 395.993 351.982 395.993 348.002 396.003C347.992 391.993 347.992 387.993 348.012 384.013Z" fill="#981930"/>
<path d="M384.012 384.004C387.992 383.994 391.982 383.994 395.992 384.004C395.982 387.994 395.992 391.994 396.002 396.004C391.992 395.994 387.992 395.994 384.002 396.004C383.992 391.994 383.992 387.994 384.012 384.004Z" fill="#981930"/>
<path d="M72.0125 276.004C76.0025 275.994 80.0025 275.994 84.0025 276.004C132.002 276.004 180.002 276.004 228.002 276.004C227.992 279.994 227.992 283.994 228.002 288.004C223.992 287.994 220.003 287.994 216.012 288.014C216.003 292.004 216.002 296.004 216.002 300.004C215.992 303.994 215.982 307.984 215.992 311.984C211.992 311.984 208.002 312.004 204.022 312.024C204.002 316.004 203.982 319.994 203.982 324.004C199.982 323.994 195.992 323.994 192.012 324.004C144.003 324.004 96.0025 324.004 48.0025 324.004C48.0025 315.994 47.9925 308.004 48.0025 300.014C51.9925 299.994 55.9925 299.994 59.9925 299.994C59.9925 295.994 60.0025 291.994 60.0125 288.014C64.0025 287.994 67.9925 287.994 71.9925 287.994C71.9925 283.984 72.0025 279.994 72.0125 276.004Z" fill="#FFFAF8"/>
<path d="M443.993 276.004C520.003 276.004 596.003 276.004 672.003 276.004C672.003 292.004 671.993 308.004 672.003 324.004C612.003 324.004 552.003 324.004 492.003 324.004C487.993 323.994 483.993 323.994 480.003 324.004C479.983 319.994 479.983 315.994 479.993 312.014C475.983 311.994 471.983 311.994 468.003 311.994C467.983 307.994 467.983 304.004 467.993 300.024C463.993 299.994 460.003 299.984 456.023 299.974C455.993 295.984 455.983 292.004 455.983 288.024C451.983 288.004 447.993 287.984 444.023 287.984C443.993 283.974 443.993 279.984 443.993 276.004Z" fill="#FFFAF8"/>
<path d="M216.012 288.013C220.002 287.993 223.992 287.993 228.002 288.003C227.992 291.983 227.992 295.983 227.992 299.993C223.992 299.983 219.992 299.993 216.002 300.003C216.002 296.003 216.002 292.003 216.012 288.013Z" fill="#D88792"/>
<path d="M324.002 312.004C327.992 311.994 331.992 311.994 336.002 312.004C335.992 315.994 335.992 319.994 336.002 324.004C331.992 323.994 327.992 323.994 324.002 324.004C323.992 319.994 323.992 315.994 324.002 312.004Z" fill="#A11931"/>
<path d="M468.002 311.996C471.982 311.996 475.982 311.996 479.992 312.016C479.982 315.996 479.982 319.996 480.002 324.006C475.992 323.996 471.992 323.996 468.002 324.006C467.992 319.986 467.992 315.986 468.002 311.996Z" fill="#FBEDED"/>
<path d="M36.0016 324.004C40.0016 323.994 43.9916 323.994 48.0016 324.004C96.0016 324.004 144.002 324.004 192.012 324.004C191.992 327.994 191.992 331.984 191.992 335.994C187.992 335.984 183.992 335.984 180.002 336.004C176.022 336.004 172.052 336.004 168.092 336.024C167.952 339.914 167.822 343.804 167.682 347.714C155.802 347.964 143.912 348.004 132.032 348.074C132.012 352.034 131.992 356.014 131.982 359.994C123.982 359.984 115.992 359.994 108.002 360.014C107.992 367.984 108.002 375.984 108.002 383.974C76.0016 384.034 44.0016 383.994 12.0016 384.004C11.9916 379.994 11.9916 375.994 12.0016 372.014C16.0016 371.994 19.9916 371.994 24.0016 371.994C23.9916 363.994 24.0016 356.004 24.0016 348.014C28.0016 347.994 31.9916 347.994 36.0016 347.994C35.9916 339.984 36.0016 331.994 36.0016 324.004Z" fill="#FFFCFA"/>
<path d="M468.002 324.004C471.992 323.994 475.992 323.994 480.002 324.004C479.992 327.994 479.992 331.994 480.002 336.004C475.982 335.994 471.982 335.994 468.002 336.004C467.982 331.994 467.992 327.984 468.002 324.004Z" fill="#A21932"/>
<path d="M480.002 324.004C483.992 323.994 487.992 323.994 492.002 324.004C491.982 327.994 491.982 331.994 492.002 336.004C487.982 335.994 483.982 335.994 480.002 336.004C479.992 331.994 479.992 327.994 480.002 324.004Z" fill="#D46075"/>
<path d="M492.001 324.004C552.001 324.004 612.001 324.004 672.001 324.004C671.991 331.994 672.001 339.994 672.001 347.994C667.981 347.994 663.981 347.994 660.001 348.014C659.981 360.004 660.001 371.994 659.991 383.994C655.981 383.984 651.981 383.994 648.001 384.014C647.981 396.004 648.001 407.994 647.991 419.994C643.981 419.984 639.991 419.994 636.011 420.014C635.991 423.994 635.981 427.994 635.991 431.994C611.991 432.004 587.991 432.004 564.001 432.004C563.981 427.994 563.991 424.004 564.011 420.024C567.991 420.004 571.981 419.984 575.991 419.984C576.001 407.984 576.001 395.994 576.001 384.004C579.981 383.994 583.981 383.984 588.001 383.994C587.981 379.984 587.991 375.994 588.001 372.014C583.991 371.994 579.991 371.994 576.011 371.994C575.981 367.994 575.981 363.994 575.991 360.014C567.981 359.994 560.001 360.004 552.011 359.994C551.991 356.004 551.981 352.024 551.981 348.054C540.111 348.004 528.241 347.964 516.391 347.714C516.211 343.804 516.051 339.904 515.911 336.014C511.931 336.004 507.951 336.004 504.001 336.004C499.981 335.994 495.981 335.994 492.001 336.004C491.981 331.994 491.981 327.994 492.001 324.004Z" fill="#FEFCFA"/>
<path d="M168.092 336.024C172.052 336.004 176.022 336.004 180.002 336.004C179.992 339.994 179.982 343.984 179.992 347.984C175.992 347.984 172.003 348.004 168.013 348.024C168.003 352.004 167.992 355.994 167.992 360.004C163.992 359.994 159.992 359.994 156.002 360.004C151.992 359.994 148.003 359.994 144.013 360.004C144.003 363.984 143.992 367.984 143.992 372.004C139.992 371.994 135.992 371.994 132.002 372.014C131.992 375.994 131.992 379.994 132.002 384.004C135.992 383.994 139.992 383.994 144.002 384.004C160.002 383.994 175.992 384.004 191.992 384.004C195.992 383.994 199.992 383.994 204.002 384.004C203.992 387.994 204.003 391.994 204.013 396.004C212.003 396.004 219.992 395.994 228.002 396.004C231.992 395.994 235.993 395.994 240.012 396.004C243.992 395.994 247.992 395.994 252.002 396.004C255.992 395.994 259.992 395.994 264.002 396.004C276.002 396.004 287.992 395.994 300.002 396.004C303.992 395.994 307.992 395.994 312.002 396.004C324.002 396.004 335.992 395.994 348.002 396.004C351.982 395.994 355.992 395.994 360.002 396.004C367.992 395.994 375.992 395.994 384.003 396.004C387.992 395.994 391.992 395.994 396.003 396.004C404.003 396.004 411.992 395.994 420.003 396.004C427.992 395.994 435.992 395.994 444.003 396.004C447.983 395.994 451.982 395.994 455.982 396.004C455.982 391.994 456.003 387.994 456.033 384.014C468.013 383.994 480.003 384.004 492.003 384.004C495.983 383.994 499.993 383.994 504.013 384.004C507.993 383.984 511.983 383.984 516.003 384.004C519.983 383.984 523.983 383.994 528.003 384.004C531.992 383.994 535.982 383.994 539.992 384.004C540.012 376.004 540.003 367.994 539.992 360.014C532.003 359.994 524.003 359.984 516.023 359.994C515.993 355.994 515.982 352.004 515.982 348.024C511.982 348.004 507.993 347.984 504.023 347.984C503.993 343.974 503.992 339.984 504.003 336.004C507.953 336.004 511.932 336.004 515.912 336.014C516.052 339.904 516.213 343.804 516.393 347.714C528.243 347.964 540.112 348.004 551.982 348.054C551.982 352.024 551.993 356.004 552.013 359.994C560.003 360.004 567.982 359.994 575.992 360.014C575.982 363.994 575.983 367.994 576.013 371.994C575.993 375.984 575.992 379.994 576.003 384.004C567.992 383.994 560.003 383.994 552.013 384.014C551.993 387.994 551.982 391.984 551.982 395.994C527.992 396.024 504.003 395.984 480.023 396.014C479.993 399.994 479.982 403.994 479.982 408.004C383.992 408.014 288.003 408.004 192.002 408.004C188.002 407.994 184.012 407.994 180.022 408.004C180.002 403.994 179.993 399.994 179.983 396.014C164.003 395.994 148.022 396.004 132.042 396.004C131.903 392.084 131.762 388.194 131.632 384.304C127.752 384.194 123.872 384.114 120.002 384.054C115.992 384.004 111.992 383.974 108.002 383.974C108.002 375.984 107.992 367.984 108.002 360.014C115.992 359.994 123.983 359.984 131.983 359.994C131.993 356.014 132.012 352.034 132.032 348.074C143.912 348.004 155.802 347.964 167.682 347.714C167.822 343.804 167.952 339.914 168.092 336.024Z" fill="#FEE3AA"/>
<path d="M312.002 336.004C315.992 335.994 319.992 335.994 323.992 336.004C323.992 343.994 324.012 352.004 324.002 360.004C319.992 359.994 315.992 359.994 312.002 360.004C311.982 351.994 311.992 343.994 312.002 336.004Z" fill="#9C1930"/>
<path d="M156.003 360.004C159.993 359.994 163.993 359.994 167.993 360.004C171.993 359.994 175.993 359.994 180.003 360.004C179.993 363.994 180.003 367.994 180.003 372.004C172.003 372.004 164.003 371.994 156.013 372.004C155.993 367.994 155.993 363.994 156.003 360.004Z" fill="#A5162F"/>
<path d="M444.002 360.004C451.992 359.994 460.002 360.004 468.002 360.004C467.992 363.994 467.992 367.994 468.002 372.004C459.992 371.994 451.992 372.004 444.002 372.004C443.992 367.994 443.992 363.994 444.002 360.004Z" fill="#9B1930"/>
<path d="M132.002 372.013C135.992 371.993 139.992 371.993 143.992 372.003C143.992 375.983 143.992 379.993 144.002 384.003C139.992 383.993 135.992 383.993 132.002 384.003C131.992 379.993 131.992 375.993 132.002 372.013Z" fill="#DC8874"/>
<path d="M576.013 371.996C579.993 371.996 583.993 371.996 588.003 372.016C587.993 375.996 587.983 379.986 588.003 383.996C583.983 383.986 579.983 383.996 576.003 384.006C575.993 379.996 575.993 375.986 576.013 371.996Z" fill="#FDE6B5"/>
<path d="M12.0025 384.003C44.0025 383.993 76.0025 384.033 108.003 383.973C107.993 395.963 107.992 407.963 108.022 419.973C112.002 419.983 115.992 419.993 119.992 420.023C119.992 428.003 119.993 435.993 120.013 443.993C124.003 443.983 127.992 443.993 131.992 444.023C131.992 451.993 131.993 459.993 132.013 467.993C136.003 467.983 139.992 467.993 143.992 468.023C143.992 472.003 143.993 475.993 144.013 480.003C136.003 479.993 128.003 480.003 120.013 480.003C119.993 475.993 119.992 471.993 119.992 468.003C115.992 467.993 112.003 467.993 108.013 468.003C108.003 471.993 107.992 475.983 107.992 480.003C76.0025 480.003 44.0025 480.003 12.0125 480.003C12.0025 475.993 11.9925 471.993 11.9925 468.013C7.99251 467.993 4.0025 467.983 0.0124973 467.993C-0.00750275 443.993 0.00250275 420.003 0.00250275 396.013C4.0025 395.993 7.99251 395.993 11.9925 395.993C11.9925 391.983 12.0025 387.993 12.0025 384.003Z" fill="#FEFDFC"/>
<path d="M108.002 383.973C111.992 383.973 115.992 384.003 120.002 384.053C120.002 388.023 120.002 392.003 120.012 395.993C124.012 395.983 128.022 395.983 132.042 396.003C148.022 396.003 164.002 395.993 179.982 396.013C179.992 399.993 180.002 403.993 180.022 408.003C184.012 407.993 188.002 407.993 192.002 408.003C191.992 411.983 191.992 415.973 191.992 419.983C187.992 419.983 183.992 419.993 180.012 420.023C180.002 424.003 179.992 427.993 180.002 431.993C179.992 435.983 179.992 439.983 180.002 443.993C183.992 443.983 187.992 443.993 192.002 444.003C192.002 455.993 191.992 467.973 192.012 479.973C195.972 479.983 199.942 480.003 203.912 480.033C204.042 483.883 204.172 487.743 204.322 491.623C208.192 491.763 212.082 491.923 215.972 492.093C215.972 496.043 215.992 500.013 216.012 504.003C212.002 503.983 208.002 503.983 204.012 504.003C204.002 499.993 203.992 495.993 203.992 492.003C191.992 491.983 180.002 492.003 168.012 491.993C168.002 487.993 167.992 483.993 167.992 480.013C159.992 479.983 152.002 479.993 144.012 480.003C143.992 475.993 143.992 472.003 143.992 468.023C139.992 467.993 136.002 467.983 132.012 467.993C131.992 459.993 131.992 451.993 131.992 444.023C127.992 443.993 124.002 443.983 120.012 443.993C119.992 435.993 119.992 428.003 119.992 420.023C115.992 419.993 112.002 419.983 108.022 419.973C107.992 407.963 107.992 395.963 108.002 383.973Z" fill="#F2AE5F"/>
<path d="M120.002 384.055C123.872 384.115 127.752 384.195 131.632 384.305C131.762 388.195 131.902 392.085 132.042 396.005C128.022 395.985 124.012 395.985 120.012 395.995C120.002 392.005 120.002 388.025 120.002 384.055Z" fill="#F4B76D"/>
<path d="M552.012 384.013C560.002 383.993 567.992 383.993 576.002 384.003C576.002 395.993 576.002 407.983 575.992 419.983C571.982 419.983 567.992 420.003 564.012 420.023C563.992 424.003 563.982 427.993 564.002 432.003C563.982 435.983 563.982 439.983 564.002 443.993C559.982 443.983 555.992 443.993 552.012 444.013C551.992 451.993 551.992 459.993 552.002 467.993C547.992 467.993 543.992 467.993 540.012 468.013C539.992 471.993 539.982 475.993 539.992 479.993C531.982 479.983 524.002 480.003 516.012 480.003C515.992 483.993 515.982 487.983 515.992 492.003C503.992 492.003 492.002 491.983 480.012 492.003C479.992 495.993 479.982 499.993 479.992 504.003C392.002 504.003 304.002 504.003 216.012 504.003C215.992 500.013 215.972 496.043 215.972 492.093C212.082 491.923 208.192 491.763 204.322 491.623C204.172 487.743 204.042 483.883 203.912 480.033C199.942 480.003 195.972 479.983 192.012 479.973C191.992 467.973 192.002 455.993 192.002 444.003C191.992 439.993 191.992 435.993 191.992 432.013C187.992 431.993 183.992 431.993 180.002 431.993C179.992 427.993 180.002 424.003 180.012 420.023C183.992 419.993 187.992 419.983 191.992 419.983C191.992 415.973 191.992 411.983 192.002 408.003C288.002 408.003 383.992 408.013 479.982 408.003C479.982 403.993 479.992 399.993 480.022 396.013C504.002 395.983 527.992 396.023 551.982 395.993C551.982 391.983 551.992 387.993 552.012 384.013ZM528.002 420.003C527.982 423.993 527.982 427.993 528.002 432.003C531.992 432.003 535.992 431.993 540.002 432.003C539.992 427.993 539.992 423.993 540.002 420.003C535.992 419.993 531.992 419.993 528.002 420.003ZM516.012 432.013C515.992 435.993 515.982 439.983 515.992 443.993C511.982 443.983 507.982 443.993 504.002 444.013C503.992 447.993 503.992 451.993 504.002 456.003C507.972 455.983 511.952 455.983 515.952 455.993C519.952 455.983 523.972 455.993 528.002 456.003C527.982 451.973 527.982 447.953 527.992 443.953C527.982 439.953 527.992 435.973 528.002 432.003C523.992 431.983 519.992 431.983 516.012 432.013Z" fill="#F2C45E"/>
<path d="M180.002 431.996C183.992 431.996 187.992 431.996 191.992 432.016C191.992 435.996 191.992 439.996 192.002 444.006C187.992 443.996 183.992 443.986 180.002 443.996C179.992 439.986 179.992 435.986 180.002 431.996Z" fill="#F2B45E"/>
</svg>
