<svg width="672" height="720" viewBox="0 0 672 720" fill="none" xmlns="http://www.w3.org/2000/svg">
<path d="M635.988 144.004C639.978 144.014 643.978 144.024 647.998 144.044C647.978 148.024 647.978 152.024 648.008 156.024C644.008 155.994 640.018 155.974 636.048 155.964C636.008 151.974 635.988 147.984 635.988 144.004Z" fill="white"/>
<path d="M372.047 0.0137378C400.017 -0.0162622 427.988 0.0137433 455.968 0.0037433C455.988 3.99374 456.007 7.99374 456.047 12.0037C468.027 11.9637 480.018 12.0337 492.018 12.0137C491.978 16.0037 491.967 20.0037 491.997 24.0037C468.027 23.9837 444.058 24.0137 420.098 24.0137C420.028 28.0037 419.967 31.9937 419.927 35.9937C415.967 35.9937 412.018 35.9937 408.088 35.9937C408.028 31.9937 407.978 28.0037 407.938 24.0037C395.987 23.9937 384.038 24.0137 372.098 24.0037C372.028 28.0037 371.967 31.9937 371.927 35.9937C367.967 35.9937 364.018 35.9937 360.088 35.9937C360.018 31.9737 359.967 27.9537 359.927 23.9437C356.077 24.0537 352.247 24.1837 348.427 24.3137C348.227 28.1937 348.027 32.0837 347.857 35.9637C343.897 35.9837 339.958 36.0037 336.028 36.0137C335.988 33.2437 335.957 30.4838 335.938 27.7138C338.447 26.6438 340.988 25.5837 343.538 24.5637C344.908 24.0337 346.308 23.6137 347.718 23.1537C347.828 19.4437 347.958 15.7437 348.098 12.0437C356.038 12.0237 364.008 11.9837 371.968 11.9937C371.988 7.99375 372.007 4.00374 372.047 0.0137378Z" fill="#F5E5FF"/>
<path d="M324.048 23.8555C330.528 24.0455 337.048 24.0755 343.538 24.5655C340.988 25.5855 338.448 26.6455 335.938 27.7155C335.958 30.4855 335.988 33.2455 336.028 36.0155C339.958 36.0055 343.898 35.9855 347.858 35.9655C348.028 32.0855 348.228 28.1955 348.428 24.3155C352.248 24.1855 356.078 24.0555 359.928 23.9455C359.968 27.9555 360.018 31.9755 360.088 35.9955C364.018 35.9955 367.968 35.9955 371.928 35.9955C371.968 31.9955 372.028 28.0055 372.098 24.0055C384.038 24.0155 395.988 23.9955 407.938 24.0055C407.978 28.0055 408.028 31.9955 408.088 35.9955C412.018 35.9955 415.968 35.9955 419.928 35.9955C419.968 31.9955 420.028 28.0055 420.098 24.0155C444.058 24.0155 468.028 23.9855 491.998 24.0055C499.978 24.0155 507.978 23.9855 515.968 24.0155C515.988 27.9955 516.008 31.9855 516.048 35.9855C524.008 35.9855 531.988 36.0255 539.968 36.0155C539.988 39.9955 540.008 43.9755 540.048 47.9655C544.018 47.9855 548.008 48.0155 552.008 48.0455C551.978 52.0255 551.968 56.0155 552.008 60.0055C464.008 60.0055 376.008 60.0055 288.008 60.0055C288.018 56.0155 288.018 52.0355 288.008 48.0555C291.988 48.0155 295.968 47.9855 299.968 47.9655C299.988 43.9855 300.008 40.0055 300.048 36.0255C308.008 36.0255 315.988 35.9855 323.968 35.9955C323.988 31.9455 324.008 27.8955 324.048 23.8555Z" fill="#F6E7FF"/>
<path d="M276.048 60.0039C280.018 60.0039 284.008 60.0039 288.008 60.0039C376.008 60.0039 464.008 60.0039 552.008 60.0039C555.978 60.0039 559.958 60.0039 563.968 60.0039C563.978 63.9939 564.008 67.9839 564.048 71.9839C572.008 71.9839 579.988 72.0239 587.968 72.0139C587.988 75.9939 588.008 79.9739 588.048 83.9639C592.018 83.9839 595.998 84.0139 600.008 84.0439C599.978 88.0239 599.978 92.0139 599.988 96.0039C483.988 96.0039 367.998 96.0039 251.998 96.0039C252.018 92.0139 252.018 88.0339 252.008 84.0539C255.988 84.0139 259.968 83.9839 263.968 83.9639C263.988 79.9839 264.018 76.0139 264.048 72.0439C268.008 72.0139 271.988 71.9839 275.968 71.9639C275.988 67.9739 276.008 63.9839 276.048 60.0039Z" fill="#F7EAFF"/>
<path d="M240.048 96.0039C244.018 96.0039 248.008 96.0039 251.998 96.0039C367.998 96.0039 483.988 96.0039 599.988 96.0039C599.978 99.9839 600.008 103.964 600.058 107.954C604.008 107.984 607.978 108.014 611.968 108.044C611.978 112.014 612.008 115.984 612.048 119.964C616.018 119.984 619.998 120.004 623.998 120.044C623.988 124.024 623.988 128.014 623.988 132.014C551.998 131.994 480.008 132.004 408.028 132.004C404.008 131.994 400.008 131.994 396.018 132.004C395.998 127.994 395.988 123.994 396.008 120.004C368.008 120.014 340.008 119.974 312.018 120.004C308.028 120.014 304.058 120.014 300.098 120.024C300.028 124.004 299.978 127.994 299.928 131.984C295.958 131.984 291.988 131.994 288.038 132.014C268.028 132.034 248.018 131.994 228.018 132.004C228.008 127.994 227.998 123.994 228.008 120.004C227.998 116.014 227.998 112.024 227.998 108.054C231.978 108.014 235.968 107.984 239.968 107.964C239.988 103.974 240.008 99.9839 240.048 96.0039Z" fill="#F8ECFF"/>
<path d="M336.018 372.004C340.008 371.994 343.998 371.994 348.008 372.004C348.008 420.004 348.008 468.004 348.008 516.004C343.998 515.984 339.998 515.984 336.008 516.004C336.008 468.004 335.998 420.004 336.018 372.004Z" fill="#49206F"/>
<path d="M216.018 120.004C220.008 120.004 223.998 120.004 228.008 120.004C227.998 123.994 228.008 127.994 228.018 132.004C248.018 131.994 268.028 132.034 288.038 132.014C287.988 135.974 287.958 139.934 287.938 143.904C283.988 143.964 280.038 144.034 276.098 144.104C276.028 148.034 275.968 151.964 275.918 155.914C271.938 155.964 267.978 156.014 264.018 156.084C264.018 164.054 264.018 172.034 263.998 180.004C235.998 180.004 207.998 180.004 180.008 180.004C180.018 176.014 180.018 172.024 180.008 168.054C183.988 168.014 187.978 167.984 191.968 167.964C191.988 163.984 192.018 160.014 192.048 156.044C196.018 156.014 199.988 155.984 203.968 155.964C203.988 151.984 204.018 148.014 204.048 144.044C208.018 144.014 211.998 143.984 215.988 143.964C215.968 135.974 216.028 127.984 216.018 120.004Z" fill="#F9EFFF"/>
<path d="M408.028 132.002C480.008 132.002 551.998 131.993 623.988 132.013C623.988 135.993 624.008 139.972 624.058 143.962C628.018 143.962 631.988 143.982 635.988 144.002C635.988 147.982 636.008 151.972 636.048 155.962C640.018 155.972 644.008 155.992 648.008 156.022C647.988 160.002 647.998 163.992 648.018 167.992C647.988 171.992 647.988 175.992 648.008 180.002C572.008 180.002 496.008 180.002 420.008 180.002C419.988 175.992 419.988 171.992 419.998 168.002C407.988 168.092 395.998 167.913 384.008 167.983C384.008 164.013 384.018 160.042 384.058 156.082C388.018 156.022 391.998 155.962 395.998 155.912C395.978 151.942 395.988 147.982 396.008 144.022C399.978 143.992 403.968 143.972 407.968 143.962C407.968 139.972 407.988 135.982 408.028 132.002Z" fill="#F9EFFF"/>
<path d="M300.097 120.024C304.057 120.014 308.027 120.014 312.017 120.004C312.057 131.964 311.917 143.924 311.997 155.884C307.997 155.944 303.997 156.004 300.007 156.084C299.997 168.024 300.017 179.964 300.017 191.914C303.977 191.964 307.937 192.034 311.917 192.094C311.967 196.024 312.027 199.964 312.097 203.914C316.057 203.964 320.037 204.014 324.017 204.074C323.947 212.024 323.967 219.984 324.007 227.944C320.027 227.984 316.057 228.034 312.087 228.084C312.027 232.044 311.977 236.014 311.927 239.994C299.957 239.964 287.987 240.024 276.027 240.004C275.997 235.994 275.977 232.004 275.967 228.014C271.967 227.994 267.977 227.994 264.007 228.004C263.997 231.994 263.997 235.994 264.007 240.004C264.007 243.964 264.007 247.934 264.017 251.914C267.997 251.964 271.997 252.014 275.997 252.074C275.877 264.014 276.127 275.964 276.027 287.914C279.987 287.964 283.947 288.024 287.917 288.094C287.967 292.034 288.017 295.984 288.077 299.944C296.007 299.984 303.937 300.024 311.867 300.044C312.027 303.904 312.187 307.784 312.367 311.674C316.237 311.764 320.127 311.854 324.017 311.964C324.007 315.974 323.997 319.994 323.997 324.034C323.977 327.984 323.977 331.944 323.987 335.914C319.977 335.954 315.987 336.014 311.997 336.074C312.017 344.034 312.047 352.004 311.997 359.974C319.977 359.974 327.977 360.034 335.977 360.024C335.977 364.004 335.997 367.994 336.017 372.004C324.017 371.994 312.017 372.004 300.027 372.004C299.987 368.024 299.967 364.054 299.957 360.094C295.967 360.024 291.987 359.974 288.017 359.924C288.087 347.954 287.927 335.984 287.997 324.024C295.987 323.984 303.997 323.994 311.997 323.994C312.007 319.984 312.007 315.984 312.007 311.984C304.007 312.004 296.017 312.044 288.037 311.994C288.007 315.994 287.997 320.004 287.997 324.024C279.987 323.984 271.997 324.004 264.017 324.004C263.997 319.994 263.997 316.004 264.007 312.024C263.987 308.014 263.977 304.024 263.997 300.044C259.987 300.014 255.997 299.994 252.007 299.984C252.007 296.014 252.007 292.044 252.017 288.094C255.997 288.024 259.997 287.974 263.997 287.934C263.997 283.954 263.997 279.974 264.007 276.014C260.007 276.004 256.007 275.994 252.027 276.004C251.987 272.024 251.967 268.054 251.947 264.094C247.957 264.034 243.977 263.974 240.007 263.924C240.067 251.954 239.927 239.974 240.017 228.004C240.017 224.024 240.017 220.054 240.027 216.094C243.977 216.024 247.947 215.964 251.917 215.914C251.967 211.934 252.017 207.964 252.077 203.994C260.027 204.034 267.987 204.044 275.947 203.994C275.977 207.994 276.027 212.004 276.077 216.014C284.047 215.974 292.027 215.964 300.007 216.014C300.007 212.024 299.997 208.044 299.987 204.074C296.007 204.014 292.047 203.964 288.087 203.914C288.027 199.954 287.977 196.004 287.937 192.054C279.947 192.034 271.977 191.974 264.007 191.984C263.997 187.984 263.987 183.994 263.997 180.004C264.017 172.034 264.017 164.054 264.017 156.084C267.977 156.014 271.937 155.964 275.917 155.914C275.967 151.964 276.027 148.034 276.097 144.104C280.037 144.034 283.987 143.964 287.937 143.904C287.957 139.934 287.987 135.974 288.037 132.014C291.987 131.994 295.957 131.984 299.927 131.984C299.977 127.994 300.027 124.004 300.097 120.024Z" fill="#A44EE4"/>
<path d="M312.018 120.004C340.008 119.974 368.008 120.014 396.008 120.004C395.988 123.994 395.998 127.994 396.018 132.004C395.998 136.004 395.988 140.014 396.008 144.024C395.988 147.984 395.978 151.944 395.998 155.914C391.998 155.964 388.018 156.024 384.058 156.084C384.018 160.044 384.008 164.014 384.008 167.984C379.998 167.994 375.998 168.014 372.018 168.044C371.988 172.024 371.988 176.004 372.008 179.994C375.988 180.004 379.978 180.004 383.978 180.004C383.978 175.994 383.988 171.984 384.008 167.984C395.998 167.914 407.988 168.094 419.998 168.004C419.988 171.994 419.988 175.994 420.008 180.004C420.008 195.994 420.008 211.994 420.018 227.994C423.998 227.984 427.998 227.994 432.008 228.004C432.008 244.004 432.008 259.994 432.008 276.004C420.018 275.944 408.038 276.074 396.058 276.004C396.028 279.994 396.008 283.984 396.008 287.994C391.998 287.994 387.998 288.014 384.018 288.044C383.988 292.014 383.988 296.004 384.008 299.994C387.988 300.004 391.978 300.004 395.978 300.004C395.988 295.984 395.988 291.984 396.008 287.994C407.998 287.914 419.998 288.084 432.008 288.004C431.948 300.004 432.048 312.004 432.008 324.014C428.028 324.004 424.058 324.014 420.108 324.034C420.028 327.984 419.958 331.944 419.908 335.914C415.968 335.964 412.028 336.034 408.108 336.104C408.028 340.024 407.968 343.964 407.918 347.904C403.938 347.954 399.978 348.014 396.028 348.084C396.018 352.044 396.008 356.004 396.008 359.984C392.008 359.994 388.018 360.014 384.048 360.044C384.018 364.024 383.998 368.014 383.988 372.004C371.988 371.974 359.998 372.024 348.008 372.004C343.998 371.994 340.008 371.994 336.018 372.004C335.998 367.994 335.978 364.004 335.978 360.024C327.978 360.034 319.978 359.974 311.998 359.974C312.048 352.004 312.018 344.034 311.998 336.074C315.988 336.014 319.978 335.954 323.988 335.914C323.978 331.944 323.978 327.984 323.998 324.034C327.988 323.994 331.988 323.974 336.008 323.964C335.998 319.994 335.998 316.044 336.008 312.104C331.998 312.064 328.008 312.014 324.018 311.964C320.128 311.854 316.238 311.764 312.368 311.674C312.188 307.784 312.028 303.904 311.868 300.044C303.938 300.024 296.008 299.984 288.078 299.944C288.018 295.984 287.968 292.034 287.918 288.094C283.948 288.024 279.988 287.964 276.028 287.914C276.128 275.964 275.878 264.014 275.998 252.074C271.998 252.014 267.998 251.964 264.018 251.914C264.008 247.934 264.008 243.964 264.008 240.004C268.008 239.994 272.008 239.994 276.028 240.004C287.988 240.024 299.958 239.964 311.928 239.994C311.978 236.014 312.028 232.044 312.088 228.084C316.058 228.034 320.028 227.984 324.008 227.944C323.968 219.984 323.948 212.024 324.018 204.074C320.038 204.014 316.058 203.964 312.098 203.914C312.028 199.964 311.968 196.024 311.918 192.094C307.938 192.034 303.978 191.964 300.018 191.914C300.018 179.964 299.998 168.024 300.008 156.084C303.998 156.004 307.998 155.944 311.998 155.884C311.918 143.924 312.058 131.964 312.018 120.004Z" fill="#BD55FF"/>
<path d="M396.017 132.004C400.007 131.994 404.007 131.994 408.027 132.004C407.987 135.984 407.967 139.974 407.967 143.964C403.967 143.974 399.977 143.994 396.007 144.024C395.987 140.014 395.997 136.004 396.017 132.004Z" fill="#BD55FF"/>
<path d="M372.018 168.044C375.998 168.014 379.998 167.994 384.008 167.984C383.988 171.984 383.978 175.994 383.978 180.004C379.978 180.004 375.988 180.004 372.008 179.994C371.988 176.004 371.988 172.024 372.018 168.044Z" fill="#F9F0FF"/>
<path d="M168.018 180.004C172.008 180.004 175.998 180.004 180.008 180.004C207.998 180.004 235.998 180.004 263.998 180.004C263.988 183.994 263.998 187.984 264.008 191.984C271.978 191.974 279.948 192.034 287.938 192.054C287.978 196.004 288.028 199.954 288.088 203.914C292.048 203.964 296.008 204.014 299.988 204.074C299.998 208.044 300.008 212.024 300.008 216.014C292.028 215.964 284.048 215.974 276.078 216.014C276.028 212.004 275.978 207.994 275.948 203.994C267.988 204.044 260.028 204.034 252.078 203.994C252.018 207.964 251.968 211.934 251.918 215.914C247.948 215.964 243.978 216.024 240.028 216.094C240.018 220.054 240.018 224.024 240.018 228.004C208.008 228.014 176.008 227.994 144.008 228.004C144.018 224.014 144.018 220.024 144.008 216.054C147.988 216.014 151.978 215.984 155.968 215.964C155.988 211.984 156.018 208.014 156.048 204.044C160.018 204.014 163.998 203.984 167.988 203.964C167.978 195.974 168.028 187.984 168.018 180.004Z" fill="#FAF2FF"/>
<path d="M420.008 180.004C496.008 180.004 572.008 180.004 648.008 180.004C651.988 180.004 655.988 180.004 660.008 180.004C659.948 191.984 660.048 203.974 660.018 215.964C663.988 215.984 667.988 216.004 671.998 216.044C671.988 220.024 671.988 224.004 672.008 228.004C592.008 228.004 512.008 228.004 432.008 228.004C427.998 227.994 423.998 227.984 420.018 227.994C420.008 211.994 420.008 195.994 420.008 180.004Z" fill="#FAF2FF"/>
<path d="M132.018 227.996C136.008 228.006 139.998 228.006 144.008 228.006C176.008 227.996 208.008 228.016 240.018 228.006C239.928 239.976 240.068 251.956 240.008 263.926C243.978 263.976 247.958 264.036 251.948 264.096C251.968 268.056 251.988 272.026 252.028 276.006C204.018 275.996 156.008 276.006 108.008 276.006C108.018 272.016 108.018 268.026 108.008 264.056C111.988 264.016 115.978 263.986 119.968 263.966C119.988 259.986 120.018 256.016 120.048 252.046C124.018 252.016 127.998 251.986 131.988 251.966C131.978 243.976 132.028 235.986 132.018 227.996Z" fill="#FBF4FF"/>
<path d="M432.008 228.008C512.008 228.008 592.008 228.008 672.008 228.008C672.008 244.008 672.008 260.008 672.008 276.008C592.008 276.008 512.008 276.018 432.008 276.008C432.008 259.998 432.008 244.008 432.008 228.008Z" fill="#FBF4FF"/>
<path d="M264.007 228.003C267.977 227.993 271.967 227.993 275.967 228.013C275.977 232.003 275.997 235.993 276.027 240.003C272.007 239.993 268.008 239.993 264.007 240.003C263.998 235.993 263.998 231.993 264.007 228.003Z" fill="#B150F2"/>
<path d="M96.0478 276.014C100.028 276.004 104.008 275.994 108.008 276.004C156.008 276.004 204.018 275.994 252.028 276.004C256.008 275.994 260.008 276.004 264.008 276.014C263.998 279.974 263.998 283.954 263.998 287.934C259.998 287.974 255.998 288.024 252.018 288.094C252.008 292.044 252.008 296.014 252.008 299.984C252.008 303.974 252.008 307.964 252.008 311.974C255.998 311.974 259.998 311.994 264.008 312.024C263.998 316.004 263.998 319.994 264.018 324.004C260.058 323.984 256.108 323.974 252.168 323.974C251.988 320.094 251.808 316.234 251.638 312.374C247.788 312.214 243.948 312.074 240.108 311.944C240.048 315.954 239.988 319.974 239.928 324.004C183.958 324.014 127.978 323.994 72.0078 324.004C72.0178 320.004 72.0178 316.024 72.0078 312.044C75.9978 312.014 79.9878 311.984 83.9878 311.964C83.9878 303.984 84.0278 296.014 84.0178 288.044C87.9978 288.004 91.9778 287.974 95.9678 287.964C95.9878 283.974 96.0178 279.984 96.0478 276.014Z" fill="#FCF6FF"/>
<path d="M384.018 288.046C387.998 288.016 391.998 287.996 396.008 287.996C395.988 291.986 395.988 295.986 395.978 300.006C391.978 300.006 387.988 300.006 384.008 299.996C383.988 296.006 383.988 292.016 384.018 288.046Z" fill="#FCF6FF"/>
<path d="M396.058 276.005C408.038 276.075 420.018 275.945 432.008 276.005C512.008 276.015 592.008 276.005 672.008 276.005C671.988 287.995 671.998 299.985 672.008 311.975C668.018 311.995 664.048 312.025 660.098 312.065C660.028 316.035 659.978 320.025 659.938 324.015C651.968 323.965 644.018 323.955 636.068 324.015C636.008 320.005 635.958 316.005 635.928 312.015C631.968 312.005 628.018 312.005 624.088 312.015C624.018 316.005 623.968 319.995 623.938 324.005C559.958 324.025 495.988 323.975 432.008 324.015C432.048 312.005 431.948 300.005 432.008 288.005C419.998 288.085 407.998 287.915 396.008 287.995C396.008 283.985 396.028 279.995 396.058 276.005Z" fill="#FBF6FF"/>
<path d="M252.008 299.984C255.998 299.994 259.988 300.014 263.998 300.044C263.978 304.024 263.988 308.014 264.008 312.024C259.998 311.994 255.998 311.974 252.008 311.974C252.008 307.964 252.008 303.974 252.008 299.984Z" fill="#F7ECFD"/>
<path d="M240.108 311.945C243.948 312.075 247.788 312.215 251.638 312.375C251.808 316.235 251.988 320.095 252.168 323.975C256.108 323.975 260.058 323.985 264.018 324.005C271.998 324.005 279.988 323.985 287.998 324.025C287.928 335.985 288.088 347.955 288.018 359.925C291.988 359.975 295.968 360.025 299.958 360.095C299.968 364.055 299.988 368.025 300.028 372.005C292.008 372.015 283.998 371.995 275.988 372.005C272.018 371.995 268.048 371.985 264.098 371.985C264.038 367.985 263.978 363.995 263.938 360.015C255.948 360.035 247.988 360.015 240.018 359.975C239.988 355.975 239.978 351.985 239.968 348.005C235.988 347.995 232.008 347.995 228.038 348.015C228.018 351.995 227.998 355.995 227.988 360.005C223.998 360.005 220.018 360.015 216.048 360.015C216.018 364.005 216.008 368.005 216.008 372.005C156.008 372.005 96.0178 372.005 36.0178 372.005C36.0178 368.005 36.0078 364.025 36.0078 360.045C39.9978 360.005 43.9878 359.985 47.9878 359.965C47.9878 351.985 48.0278 344.015 48.0178 336.045C51.9978 336.005 55.9778 335.975 59.9678 335.965C59.9878 331.975 60.0178 327.985 60.0478 324.015C64.0278 323.995 68.0178 323.995 72.0078 324.005C127.978 323.995 183.958 324.015 239.928 324.005C239.988 319.975 240.048 315.955 240.108 311.945Z" fill="#FCF8FF"/>
<path d="M624.088 312.017C628.018 312.007 631.968 312.007 635.928 312.017C635.958 316.007 636.008 320.007 636.068 324.017C644.018 323.957 651.968 323.967 659.938 324.017C659.978 320.027 660.028 316.037 660.098 312.067C664.048 312.027 668.018 311.997 672.008 311.977C672.008 331.987 672.008 351.997 672.008 372.007C608.008 372.007 544.008 372.007 480.008 372.007C479.988 367.997 479.988 363.997 480.008 360.017C475.998 360.007 472.008 359.997 468.028 359.997C467.988 355.987 467.968 351.997 467.958 348.007C463.988 347.997 460.028 348.007 456.078 348.017C456.018 351.987 455.978 355.967 455.938 359.957C447.968 359.987 440.028 360.027 432.068 360.037C432.018 364.007 431.968 367.997 431.938 371.997C423.958 371.957 415.988 371.997 408.028 372.017C403.998 372.007 399.988 371.997 395.988 372.007C395.978 367.987 395.988 363.977 396.008 359.987C396.008 356.007 396.018 352.047 396.028 348.087C399.978 348.017 403.938 347.957 407.918 347.907C407.968 343.967 408.028 340.027 408.108 336.107C412.028 336.037 415.968 335.967 419.908 335.917C419.958 331.947 420.028 327.987 420.108 324.037C424.058 324.017 428.028 324.007 432.008 324.017C495.988 323.977 559.958 324.027 623.938 324.007C623.968 319.997 624.018 316.007 624.088 312.017Z" fill="#FCF8FF"/>
<path d="M288.038 311.994C296.018 312.044 304.008 312.004 312.008 311.984C312.008 315.984 312.008 319.984 311.998 323.994C303.998 323.994 295.988 323.984 287.998 324.024C287.998 320.004 288.008 315.994 288.038 311.994Z" fill="#FBF7FF"/>
<path d="M324.018 311.965C328.008 312.015 331.998 312.065 336.008 312.105C335.998 316.045 335.998 319.995 336.008 323.965C331.988 323.975 327.988 323.995 323.998 324.035C323.998 319.995 324.008 315.975 324.018 311.965Z" fill="#B752F9"/>
<path d="M228.038 348.013C232.008 347.993 235.988 347.993 239.968 348.003C239.978 351.983 239.988 355.973 240.018 359.973C235.998 359.973 231.988 359.983 227.988 360.003C227.998 355.993 228.018 351.993 228.038 348.013Z" fill="#81C19D"/>
<path d="M456.077 348.014C460.027 348.004 463.987 347.994 467.957 348.004C467.967 351.994 467.987 355.984 468.027 359.994C465.217 359.974 459.607 359.944 456.797 359.934C456.447 363.894 456.097 367.844 455.787 371.834C447.987 371.864 440.217 372.284 432.437 372.184C432.217 376.074 432.007 379.964 431.817 383.874C427.897 383.944 423.997 384.024 420.117 384.114C420.027 388.034 419.967 391.964 419.917 395.914C415.947 395.954 411.997 396.014 408.067 396.084C408.017 404.024 407.977 411.984 407.977 419.944C403.997 419.974 400.017 420.014 396.057 420.074C396.007 428.014 395.977 435.984 395.977 443.944C391.977 443.974 387.987 444.014 384.017 444.074C384.007 468.054 383.977 492.024 384.007 516.004C375.997 515.974 368.007 515.994 360.007 516.004C359.977 492.034 360.017 468.064 360.017 444.094C363.987 444.024 367.967 443.974 371.957 443.934C371.987 435.964 372.027 428.014 372.037 420.064C375.997 420.014 379.967 419.964 383.957 419.934C383.987 411.974 384.037 404.024 384.037 396.074C387.987 396.004 391.947 395.954 395.917 395.914C395.967 391.964 396.027 388.024 396.097 384.094C400.037 384.024 403.987 383.974 407.957 383.924C407.967 379.944 407.987 375.974 408.027 372.014C415.987 371.994 423.957 371.954 431.937 371.994C431.967 367.994 432.017 364.004 432.067 360.034C440.027 360.024 447.967 359.984 455.937 359.954C455.977 355.964 456.017 351.984 456.077 348.014Z" fill="#219653"/>
<path d="M216.047 360.013C220.017 360.013 223.997 360.003 227.987 360.003C231.987 359.983 235.997 359.973 240.017 359.973C240.007 375.953 240.007 391.943 240.017 407.923C243.977 407.973 247.947 408.033 251.917 408.093C251.967 412.023 252.037 415.953 252.107 419.903C256.027 419.963 259.967 420.023 263.907 420.103C263.967 424.023 264.037 427.953 264.107 431.903C268.027 431.963 271.967 432.023 275.907 432.103C275.967 436.023 276.037 439.953 276.107 443.903C280.027 443.963 283.967 444.023 287.907 444.103C287.967 448.023 288.027 451.963 288.097 455.913C292.037 455.953 295.987 456.013 299.957 456.083C299.977 464.023 300.027 471.983 300.037 479.943C304.017 479.973 308.007 480.013 312.007 480.073C311.937 492.043 312.047 504.023 312.017 516.003C304.017 515.993 296.017 515.993 288.027 516.003C288.097 504.043 287.887 492.083 287.987 480.133C284.017 480.043 280.057 479.973 276.097 479.913C276.027 475.933 275.977 471.973 275.927 468.023C271.957 468.003 267.997 468.003 264.047 468.013C263.977 460.023 263.977 452.043 263.987 444.073C260.017 444.003 256.057 443.953 252.097 443.913C252.027 439.963 251.967 436.023 251.907 432.103C247.967 432.023 244.027 431.963 240.097 431.913C240.037 427.943 239.977 423.993 239.927 420.053C235.947 420.013 231.987 420.003 228.027 420.003C227.997 416.003 227.977 412.013 227.967 408.043C223.967 408.013 219.987 407.993 216.017 407.983C215.977 404.013 215.957 400.043 215.957 396.093C211.967 396.023 207.987 395.973 204.017 395.923C204.007 391.963 204.007 388.013 204.017 384.083C207.997 384.023 211.977 383.973 215.967 383.933C215.977 379.943 215.987 375.973 216.007 372.003C216.007 368.003 216.017 364.003 216.047 360.013Z" fill="#219653"/>
<path d="M240.017 359.973C247.987 360.013 255.947 360.033 263.937 360.013C263.977 363.993 264.037 367.983 264.097 371.983C268.047 371.983 272.017 371.993 275.987 372.003C276.007 375.963 276.037 379.923 276.077 383.903C280.007 383.963 283.957 384.023 287.907 384.103C287.967 388.023 288.037 391.953 288.107 395.903C292.027 395.963 295.967 396.023 299.907 396.103C299.967 400.023 300.027 403.963 300.097 407.913C304.037 407.953 307.987 408.013 311.957 408.083C311.977 416.023 312.027 423.983 312.037 431.943C316.017 431.973 319.997 432.013 323.997 432.073C324.007 460.053 324.017 488.023 324.007 516.003C319.997 515.983 316.007 515.983 312.017 516.003C312.047 504.023 311.937 492.043 312.007 480.073C308.007 480.013 304.017 479.973 300.037 479.943C300.027 471.983 299.977 464.023 299.957 456.083C295.987 456.013 292.037 455.953 288.097 455.913C288.027 451.963 287.967 448.023 287.907 444.103C283.967 444.023 280.027 443.963 276.107 443.903C276.037 439.953 275.967 436.023 275.907 432.103C271.967 432.023 268.027 431.963 264.107 431.903C264.037 427.953 263.967 424.023 263.907 420.103C259.967 420.023 256.027 419.963 252.107 419.903C252.037 415.953 251.967 412.023 251.917 408.093C247.947 408.033 243.977 407.973 240.017 407.923C240.007 391.943 240.007 375.953 240.017 359.973Z" fill="#27AE5F"/>
<path d="M456.797 359.934C459.607 359.944 465.217 359.974 468.027 359.994C472.007 359.994 475.997 360.004 480.007 360.014C479.987 363.994 479.987 367.994 480.007 372.004C480.077 383.954 479.917 395.904 479.997 407.874C476.017 407.934 472.057 408.014 468.107 408.104C468.027 412.024 467.957 415.964 467.917 419.904C463.947 419.954 459.997 420.014 456.057 420.084C456.027 424.044 455.997 428.024 455.977 432.014C452.007 432.004 448.047 432.014 444.107 432.024C444.027 435.974 443.957 439.934 443.907 443.914C439.967 443.964 436.027 444.024 432.107 444.104C432.027 448.024 431.957 451.954 431.907 455.904C427.957 455.964 424.027 456.024 420.107 456.104C420.027 460.024 419.967 463.964 419.917 467.914C415.947 467.954 411.997 468.014 408.057 468.084C408.007 476.024 407.977 483.984 407.977 491.944C403.977 491.974 399.997 492.014 396.017 492.074C396.027 500.034 396.017 508.024 395.987 516.004C391.977 515.984 387.987 515.994 384.007 516.004C383.977 492.024 384.007 468.054 384.017 444.074C387.987 444.014 391.977 443.974 395.977 443.944C395.977 435.984 396.007 428.014 396.057 420.074C400.017 420.014 403.997 419.974 407.977 419.944C407.977 411.984 408.017 404.024 408.067 396.084C411.997 396.014 415.947 395.954 419.917 395.914C419.967 391.964 420.027 388.034 420.117 384.114C423.997 384.024 427.897 383.944 431.817 383.874C432.007 379.964 432.217 376.074 432.437 372.184C440.217 372.284 447.987 371.864 455.787 371.834C456.097 367.844 456.447 363.894 456.797 359.934Z" fill="#27AE5F"/>
<path d="M384.048 360.044C388.018 360.014 392.008 359.994 396.008 359.984C395.988 363.974 395.978 367.984 395.988 372.004C391.978 371.994 387.978 371.994 383.988 372.004C383.998 368.014 384.018 364.024 384.048 360.044Z" fill="#D99CFF"/>
<path d="M36.018 372.004C96.018 372.004 156.008 372.004 216.008 372.004C215.988 375.974 215.978 379.944 215.968 383.934C211.978 383.974 207.998 384.024 204.018 384.084C204.008 388.014 204.008 391.964 204.018 395.924C207.988 395.974 211.968 396.024 215.958 396.094C215.958 400.044 215.978 404.014 216.018 407.984C152.008 408.024 88.008 407.994 23.998 408.004C24.008 400.004 24.018 392.024 24.008 384.044C27.988 384.004 31.978 383.974 35.968 383.964C35.998 379.964 36.018 375.984 36.018 372.004Z" fill="#FDFAFE"/>
<path d="M275.988 372.004C283.998 371.994 292.008 372.014 300.028 372.004C312.018 372.004 324.018 371.994 336.018 372.004C335.998 420.004 336.008 468.004 336.008 516.004C331.998 515.984 327.998 515.984 324.008 516.004C324.018 488.024 324.008 460.054 323.998 432.074C319.998 432.014 316.018 431.974 312.038 431.944C312.028 423.984 311.978 416.024 311.958 408.084C307.988 408.014 304.038 407.954 300.098 407.914C300.028 403.964 299.968 400.024 299.908 396.104C295.968 396.024 292.028 395.964 288.108 395.904C288.038 391.954 287.968 388.024 287.908 384.104C283.958 384.024 280.008 383.964 276.078 383.904C276.038 379.924 276.008 375.964 275.988 372.004Z" fill="#FDFBFE"/>
<path d="M12.0175 408.004C16.0075 407.994 19.9975 407.994 23.9975 408.004C88.0075 407.994 152.008 408.024 216.018 407.984C216.018 411.964 216.028 415.954 216.038 419.964C220.028 419.964 224.027 419.984 228.027 420.004C231.988 420.004 235.948 420.014 239.928 420.054C239.978 423.994 240.038 427.944 240.098 431.914C244.027 431.964 247.967 432.024 251.908 432.104C251.967 436.024 252.027 439.964 252.098 443.914C256.057 443.954 260.018 444.004 263.988 444.074C263.978 452.044 263.978 460.024 264.048 468.014C205.358 467.924 146.688 468.174 88.0075 467.844C81.0475 467.894 74.0575 467.694 67.1675 468.704C59.8175 470.844 53.4175 475.174 46.5475 478.404C43.0675 479.144 39.6175 479.894 36.1475 480.614C36.0675 484.364 35.9875 488.124 35.9075 491.904C31.8375 491.954 27.7675 492.014 23.6975 492.084C23.8375 496.064 24.0275 500.054 24.2975 504.054C25.7975 504.134 28.8175 504.284 30.3275 504.354C24.1875 507.114 18.2475 510.324 12.1875 513.264C12.0975 510.134 12.0375 507.124 11.9275 504.044C7.9475 503.994 3.9775 503.974 0.0075 503.964C-0.0025 479.994 -0.0025 456.014 0.0075 432.044C3.9975 432.004 7.9875 431.974 11.9875 431.964C11.9775 423.974 12.0275 415.984 12.0175 408.004ZM23.9575 468.004C24.0375 472.054 24.1375 476.134 24.2575 480.214C28.0675 479.624 32.0075 479.794 35.7975 478.944C35.9475 476.214 36.2675 470.744 36.4275 468.014C32.2675 467.994 28.1075 467.994 23.9575 468.004ZM11.9975 479.924C12.0075 484.094 12.0275 488.274 12.0375 492.464C15.6375 491.284 20.4075 493.024 23.5975 490.654C23.7575 488.044 24.0875 482.824 24.2575 480.214C20.1675 480.164 16.0775 480.074 11.9975 479.924Z" fill="#FDFBFE"/>
<path d="M348.008 372.006C359.998 372.026 371.988 371.976 383.988 372.006C387.978 371.996 391.978 371.996 395.988 372.006C399.988 371.996 403.998 372.006 408.028 372.016C407.988 375.976 407.968 379.946 407.958 383.926C403.988 383.976 400.038 384.026 396.098 384.096C396.028 388.026 395.968 391.966 395.918 395.916C391.948 395.956 387.988 396.006 384.038 396.076C384.038 404.026 383.988 411.976 383.958 419.936C379.968 419.966 375.998 420.016 372.038 420.066C372.028 428.016 371.988 435.966 371.958 443.936C367.968 443.976 363.988 444.026 360.018 444.096C360.018 468.066 359.978 492.036 360.008 516.006C355.998 515.996 351.998 515.986 348.008 516.006C348.008 468.006 348.008 420.006 348.008 372.006Z" fill="#FDFBFF"/>
<path d="M480.009 372.004C544.009 372.004 608.009 372.004 672.009 372.004C671.979 375.974 671.979 379.964 672.009 383.964C667.989 383.974 663.989 384.004 660.009 384.044C660.039 396.004 659.959 407.984 659.999 419.954C655.999 419.974 652.009 420.004 648.049 420.044C648.009 424.014 647.989 428.004 647.989 432.004C583.989 432.014 519.989 431.984 455.979 432.014C455.999 428.024 456.029 424.044 456.059 420.084C459.999 420.014 463.949 419.954 467.919 419.904C467.959 415.964 468.029 412.024 468.109 408.104C472.059 408.014 476.019 407.934 479.999 407.874C479.919 395.904 480.079 383.954 480.009 372.004Z" fill="#FDFAFF"/>
<path d="M216.018 407.984C219.988 407.994 223.968 408.014 227.968 408.044C227.978 412.014 227.998 416.004 228.028 420.004C224.028 419.984 220.028 419.964 216.038 419.964C216.028 415.954 216.018 411.964 216.018 407.984Z" fill="#F0F5F4"/>
<path d="M444.108 432.024C448.048 432.014 452.008 432.004 455.978 432.014C519.988 431.984 583.988 432.014 647.988 432.004C647.988 439.984 647.978 447.974 648.018 455.964C644.008 455.984 640.008 456.004 636.028 456.034C636.008 464.004 635.978 471.984 635.998 479.964C631.988 479.984 628.008 480.004 624.028 480.044C624.008 488.004 623.978 495.984 623.998 503.964C619.998 503.984 616.018 504.004 612.048 504.044C612.008 508.014 611.978 512.004 611.968 516.004C547.978 516.014 483.978 515.994 419.988 516.004C411.978 516.004 403.978 516.004 395.988 516.004C396.018 508.024 396.028 500.034 396.018 492.074C399.998 492.014 403.978 491.974 407.978 491.944C407.978 483.984 408.008 476.024 408.058 468.084C411.998 468.014 415.948 467.954 419.918 467.914C419.968 463.964 420.028 460.024 420.108 456.104C424.028 456.024 427.958 455.964 431.908 455.904C431.958 451.954 432.028 448.024 432.108 444.104C436.028 444.024 439.968 443.964 443.908 443.914C443.958 439.934 444.028 435.974 444.108 432.024Z" fill="#FEFCFF"/>
<path d="M67.1673 468.704C74.0573 467.694 81.0473 467.894 88.0073 467.844C146.687 468.174 205.357 467.924 264.047 468.014C267.997 468.004 271.957 468.004 275.927 468.024C275.977 471.974 276.027 475.934 276.097 479.914C280.057 479.974 284.017 480.044 287.987 480.134C287.887 492.084 288.097 504.044 288.027 516.004C280.017 515.994 272.017 516.004 264.027 516.004C179.997 515.984 95.9773 516.044 11.9473 515.974C12.0073 515.294 12.1273 513.944 12.1873 513.264C18.2473 510.324 24.1873 507.114 30.3273 504.354C36.3273 504.154 42.3373 504.024 48.3373 503.914C47.9173 495.394 48.1573 486.794 46.5473 478.404C53.4173 475.174 59.8173 470.844 67.1673 468.704Z" fill="#FEFDFF"/>
<path d="M264.027 516.004C272.017 516.004 280.017 515.994 288.027 516.004C287.987 519.954 287.958 523.924 287.948 527.904C283.988 527.964 280.037 528.024 276.097 528.104C276.027 532.024 275.968 535.964 275.918 539.914C271.938 539.954 267.968 540.014 264.018 540.084C263.988 568.034 264.007 595.984 263.997 623.944C267.987 623.964 271.987 624.014 275.997 624.074C275.877 636.014 276.127 647.964 276.027 659.914C279.977 659.954 283.937 660.004 287.907 660.074C287.907 667.894 288.218 675.734 288.208 683.574C292.108 683.754 296.017 683.954 299.937 684.174C299.957 688.094 299.977 692.034 300.027 695.994C296.037 695.974 292.057 695.974 288.087 695.984C288.027 691.974 287.977 687.984 287.937 684.014C279.947 684.034 271.988 684.004 264.018 683.994C263.998 675.994 263.997 668.014 263.997 660.044C259.997 659.994 255.998 659.974 252.018 659.964C252.008 643.984 251.997 628.014 252.007 612.044C247.997 611.994 243.997 611.974 240.007 611.964C239.998 587.994 239.998 564.014 240.007 540.044C243.987 539.994 247.967 539.974 251.967 539.964C251.987 535.974 252.018 532.004 252.048 528.044C256.018 528.004 259.987 527.974 263.967 527.964C263.977 523.964 263.997 519.974 264.027 516.004Z" fill="#F1AE5F"/>
<path d="M288.028 516.004C296.018 515.994 304.018 515.994 312.018 516.004C316.008 515.984 319.998 515.984 324.008 516.004C327.998 515.984 331.998 515.984 336.008 516.004C339.998 515.984 343.998 515.984 348.008 516.004C351.998 515.984 355.998 515.994 360.008 516.004C368.008 515.994 375.998 515.974 384.008 516.004C387.988 515.994 391.978 515.984 395.988 516.004C403.978 516.004 411.978 516.004 419.988 516.004C419.998 519.974 420.018 523.954 420.058 527.954C424.008 527.974 427.978 528.004 431.968 528.044C431.978 532.004 432.008 535.974 432.048 539.964C436.018 539.974 440.008 540.004 444.008 540.044C444.008 564.014 444.008 587.984 444.008 611.964C439.998 611.974 435.998 612.004 432.008 612.044C432.048 624.004 431.958 635.974 431.998 647.964C427.998 647.974 424.008 648.004 420.028 648.044C420.018 656.004 419.978 663.984 419.998 671.964C415.998 671.974 412.018 672.004 408.048 672.044C408.008 676.014 407.988 680.004 407.978 684.014C404.008 684.004 400.048 684.014 396.098 684.024C396.028 688.004 395.978 691.984 395.928 695.994C363.958 696.004 331.998 696.014 300.028 695.994C299.978 692.034 299.958 688.094 299.938 684.174C296.018 683.954 292.108 683.754 288.208 683.574C288.218 675.734 287.908 667.894 287.908 660.074C283.938 660.004 279.978 659.954 276.028 659.914C276.128 647.964 275.878 636.014 275.998 624.074C271.988 624.014 267.988 623.964 263.998 623.944C264.008 595.984 263.988 568.034 264.018 540.084C267.968 540.014 271.938 539.954 275.918 539.914C275.968 535.964 276.028 532.024 276.098 528.104C280.038 528.024 283.988 527.964 287.948 527.904C287.958 523.924 287.988 519.954 288.028 516.004ZM395.998 551.994C396.008 567.994 395.998 583.994 395.998 600.004C399.988 599.974 403.998 599.974 408.018 600.014C407.998 584.004 408.008 567.994 408.018 552.004C403.998 552.004 399.998 552.004 395.998 551.994Z" fill="#F2C45E"/>
<path d="M395.998 551.996C399.998 552.006 403.998 552.006 408.018 552.006C408.008 567.996 407.998 584.006 408.018 600.016C403.998 599.976 399.988 599.976 395.998 600.006C395.998 583.996 396.008 567.996 395.998 551.996Z" fill="#FFFEFF"/>
<path d="M216.048 684.004C232.038 684.004 248.028 683.994 264.018 683.994C271.988 684.004 279.948 684.034 287.938 684.014C287.978 687.984 288.028 691.974 288.088 695.984C292.058 695.974 296.038 695.974 300.028 695.994C331.998 696.014 363.958 696.004 395.928 695.994C395.978 691.984 396.028 688.004 396.098 684.024C400.048 684.014 404.008 684.004 407.978 684.014C427.978 683.914 447.968 684.054 467.968 683.994C467.988 687.974 468.008 691.984 468.048 696.004C480.028 695.954 492.018 696.034 504.018 696.014C503.978 699.994 503.978 703.984 504.008 708.004C492.018 707.954 480.038 708.034 468.048 708.014C468.008 711.994 467.988 715.984 467.968 720.004C383.998 720.004 300.018 720.004 216.048 720.004C216.008 715.984 215.988 711.984 215.968 708.004C203.978 708.034 191.988 707.964 179.998 707.994C180.018 703.984 180.018 699.984 180.008 696.004C191.988 696.034 203.968 695.954 215.968 695.994C215.988 691.984 216.008 687.984 216.048 684.004Z" fill="#ECE8F1"/>
</svg>
