<svg width="673" height="612" viewBox="0 0 673 612" fill="none" xmlns="http://www.w3.org/2000/svg">
<path d="M372.01 0C400 0 427.99 0 455.99 0C455.98 4 455.99 7.99 456.01 12C468 12 479.99 12 491.99 12.01C491.98 16 491.99 19.99 492.01 23.99C500 24 508 24.01 516 24C515.99 28 515.98 31.99 516 36C452 36 388 36 324 36C323.99 32 323.99 28 324 24.01C331.99 24 339.99 23.99 347.99 24C347.99 20 347.99 16 348.01 12.01C355.99 12 363.99 11.99 371.99 12C371.99 8 371.99 4 372.01 0Z" fill="#FFEFE7"/>
<path d="M300.01 36C308 36 316 36 324 36C388 36 452 36 516 36C523.98 36.01 531.98 36 539.99 36C539.98 39.99 539.99 43.99 540.01 47.99C543.99 47.99 547.99 48 552 48.01C551.98 52.01 551.98 56 552 60C464 60 376 60 288 60C287.99 56 287.99 52.01 288 48.02C291.99 48 295.98 47.99 299.99 47.99C299.99 43.99 299.99 39.99 300.01 36Z" fill="#FFF1E8"/>
<path d="M276.01 60C280 60 283.99 60 288 60C376 60 464 60 552 60C555.98 60 559.97 60 563.99 60C563.98 63.99 563.99 67.99 564.01 71.99C571.99 71.99 580 72 588 72C587.98 76 587.98 80 588 84C480 84 372 84 264 84C263.99 80 263.99 76 264 72.02C267.99 72 271.98 71.99 275.99 71.99C275.99 67.99 275.99 63.99 276.01 60Z" fill="#FFF2EA"/>
<path d="M252.01 84.0005C256 84.0005 260 84.0005 264 84.0005C372 84.0005 480 84.0005 588 84.0005C591.98 84.0005 595.98 83.9905 599.99 84.0005C599.98 91.9905 600 99.9905 600 107.991C603.99 107.991 607.98 108.001 612 108.011C611.98 112.001 611.98 116.001 612 120.001C484 120.001 356 120.001 228 120.001C227.99 116.001 227.99 112.001 228 108.021C231.99 108.001 235.98 107.991 239.99 107.981C239.99 103.991 240 100.001 240.02 96.0205C244 96.0005 247.99 95.9905 251.98 95.9805C251.99 91.9805 251.99 87.9905 252.01 84.0005Z" fill="#FFF3EC"/>
<path d="M216 120C219.99 119.99 223.99 119.99 228 120C356 120 484 120 612 120C615.98 119.99 619.98 119.99 623.99 120C623.98 123.99 623.98 128 624 132.01C623.99 135.99 623.99 139.99 624.01 143.99C627.98 143.98 631.98 143.99 635.99 144C635.98 147.99 635.99 151.98 636.02 155.99C639.99 155.99 643.98 155.99 647.99 156.01C647.98 160 647.98 163.99 648 168C496 168 344 168 192 168C191.99 164 191.99 160 192 156.02C195.99 156 199.98 155.99 203.99 155.98C203.99 151.99 204 148 204.02 144.02C208 144 211.99 143.99 215.99 143.99C215.99 135.98 216 127.99 216 120Z" fill="#FFF5EF"/>
<path d="M635.99 144C639.98 144 643.98 144 648 144.01C647.98 148 647.98 152 647.99 156.01C643.98 155.99 639.99 155.99 636.02 155.99C635.99 151.98 635.98 147.99 635.99 144Z" fill="white"/>
<path d="M180.01 168C184 167.99 188 167.99 192 168C344 168 496 168 648 168C647.99 171.99 647.99 175.98 648.02 179.98C651.99 179.99 655.99 180 660 180.01C659.99 192.01 659.99 204 660 216C492 216 324 216 156 216C155.99 212 155.99 208 156 204.01C159.99 204 163.99 203.99 167.99 203.99C167.99 195.99 168.01 188 168 180.01C171.99 180 175.98 179.99 179.99 179.99C179.99 175.98 180 171.99 180.01 168Z" fill="#FFF6F1"/>
<path d="M144.01 216C148 215.99 152 215.99 156 216C324 216 492 216 660 216C663.98 215.99 667.99 215.99 672.01 216C671.97 223.99 671.98 232 672 240C636 240 599.99 240 563.99 240C559.98 239.99 555.98 239.99 552 239.99C547.99 239.99 544 239.99 540.03 240C540 235.99 539.98 231.99 539.97 228C531.97 228 523.99 228.01 516.01 228C500.01 227.97 484.01 228.03 468.02 228C467.99 231.99 467.98 235.99 467.97 240C459.97 239.99 451.99 239.99 444.01 240C340.01 240 236.01 240 132.01 240C132 236 131.99 232 132 228.01C135.99 228 139.98 227.99 143.99 227.99C143.99 223.98 144 219.99 144.01 216Z" fill="#FFF8F3"/>
<path d="M468.02 228.001C484.01 228.031 500.01 227.971 516.01 228.001C515.98 231.981 515.98 235.981 515.99 239.981C507.98 239.991 500.01 240.011 492.02 240.011C491.99 243.991 491.97 247.971 491.97 251.971C487.97 251.981 483.99 252.001 480.03 252.031C480.03 254.831 480.04 260.421 480.04 263.211C476.04 263.541 472.04 263.851 468.08 264.181C468.06 266.941 468.04 272.451 468.03 275.211C464.04 275.541 460.04 275.851 456.08 276.191C456.03 280.101 455.98 284.031 455.95 287.961C451.97 287.981 448 288.001 444.04 288.041C444 292.001 443.97 295.981 443.96 299.961C439.97 299.981 436 300.001 432.04 300.041C432 304.001 431.98 307.981 431.97 311.971C427.97 311.981 423.99 312.001 420.02 312.031C419.99 320.001 419.99 327.991 419.98 335.981C415.99 335.991 412 336.011 408.03 336.031C408 340.001 407.98 343.981 407.97 347.971C403.97 347.981 399.99 348.001 396.02 348.031C396 356.001 395.99 363.991 395.99 371.981C391.98 371.981 387.99 372.001 384.01 372.031C383.99 384.001 384 395.981 383.99 407.971C379.98 407.981 375.98 408.001 372 408.031C372 452.011 372 495.991 372 539.981C375.99 539.981 379.99 540.001 384 540.031C383.98 547.751 383.98 555.491 383.97 563.231C387.95 563.551 391.93 563.841 395.94 564.171C395.95 568.101 395.98 572.041 396.01 575.991C392 575.981 388 575.981 384.01 576.001C383.99 571.991 383.98 567.991 383.98 564.011C379.98 563.991 375.99 563.981 372.02 563.981C371.99 559.981 371.98 555.991 371.98 552.021C367.98 551.991 363.99 551.981 360.02 551.981C359.99 547.981 359.98 543.991 359.98 540.021C355.98 539.991 351.99 539.981 348.01 539.991C347.99 531.981 347.99 524.001 348 516.011C343.99 515.991 339.99 515.981 336 515.991C335.99 511.981 335.99 507.991 336.01 504.011C339.99 503.991 344 503.981 348.01 503.991C347.97 495.981 347.97 488.001 348.01 480.011C345.2 480.021 339.59 480.041 336.78 480.041C336.44 476.041 336.12 472.031 335.82 468.061C331.87 468.021 327.93 468.001 324 467.991C324.01 459.981 324.01 452.001 324 444.011C327.98 443.991 331.99 443.981 336 443.981C335.99 439.981 335.99 435.981 336 432.001C336 416.251 336 400.501 335.97 384.751C339.96 384.421 343.95 384.121 347.97 383.851C347.98 375.891 348 367.951 348.01 360.011C351.99 359.991 355.98 359.981 359.99 359.991C359.99 351.991 360 344.001 360 336.011C363.99 335.991 367.98 335.981 371.99 335.991C371.98 331.981 371.98 327.981 372 324.001C379.99 323.991 387.99 323.991 396 324.001C395.99 315.991 395.99 307.991 396 299.991C395.99 295.991 395.99 291.991 396 288.001C399.98 287.981 403.98 287.981 407.99 287.991C407.98 283.981 407.98 279.991 408 276.001C411.98 275.991 415.98 275.981 419.98 275.991C419.98 271.981 419.99 267.981 420.01 263.991C423.98 263.981 427.96 263.981 431.96 263.991C431.97 259.991 432 256.011 432.03 252.031C436 252.001 439.99 251.981 443.98 251.971C443.98 247.971 443.98 243.981 444.01 240.001C451.99 239.991 459.97 239.991 467.97 240.001C467.98 235.991 467.99 231.991 468.02 228.001Z" fill="#F1BF52"/>
<path d="M552 239.992C555.98 239.992 559.98 239.992 563.99 240.002C563.99 243.982 564 247.972 564.02 251.972C567.99 251.982 571.98 252.002 575.98 252.032C575.98 256.012 575.98 260.012 576.01 264.012C571.99 263.992 567.99 263.992 564.01 263.992C559.99 263.982 555.99 263.982 552 264.002C551.99 255.992 551.98 247.992 552 239.992Z" fill="#F1BF52"/>
<path d="M516.01 228C523.99 228.01 531.97 228 539.97 228C539.98 231.99 540 235.99 540.03 240C544 239.99 547.99 239.99 552 239.99C551.98 247.99 551.99 255.99 552 264C551.99 267.99 551.99 271.99 552 276C555.98 275.99 559.98 275.99 563.99 276C563.98 271.99 563.99 267.98 564.01 263.99C567.99 263.99 571.99 263.99 576.01 264.01C579.98 264 583.97 263.99 587.98 263.99C587.98 271.99 588 280 588.01 288C591.99 287.99 595.98 287.99 599.99 288C599.99 295.98 600 303.98 600 311.98C603.99 311.98 607.98 312 612 312.03C611.99 328.01 612 344 612 360C611.98 363.99 611.98 367.98 612 371.99C607.98 371.99 603.98 371.99 599.99 372.01C600 380 600.01 387.99 599.99 395.99C603.98 395.99 607.98 395.99 612 396.01C612 420 612 444 612 468C607.98 467.99 603.99 468 600.01 468.01C600 480 599.98 491.99 600 503.99C595.99 503.98 591.99 503.99 588.01 504.01C587.98 511.99 587.99 519.99 588 527.99C583.99 527.98 579.99 527.99 576.02 528.02C575.99 531.99 575.98 535.98 575.98 539.98C571.98 539.98 567.99 539.99 564.01 540.01C563.99 547.99 563.99 555.99 564 563.99C555.99 563.99 548 564 540.01 564C539.99 567.98 539.98 571.98 539.98 575.98C535.98 575.98 531.99 575.99 528.02 576.02C527.99 580 527.98 583.99 527.99 588C515.98 587.98 503.99 587.99 492 588C487.99 587.99 483.99 587.99 480.01 588C479.99 591.99 479.99 595.99 479.99 600C475.98 599.98 471.99 599.98 468.01 600C467.99 595.99 467.98 591.99 467.98 588.02C463.98 587.99 459.99 587.99 456.01 587.99C455.99 583.98 455.98 579.98 455.98 576C451.98 575.99 447.99 575.99 444.01 576C443.99 579.99 443.99 583.99 443.99 588C432 587.99 420.01 587.99 408.02 588C408 583.99 407.98 580 407.98 576.02C403.98 575.99 399.99 575.98 396.01 575.99C395.98 572.04 395.95 568.1 395.94 564.17C391.93 563.84 387.95 563.55 383.97 563.23C383.98 555.49 383.98 547.75 384 540.03C379.99 540 375.99 539.98 372 539.98C372 495.99 372 452.01 372 408.03C375.98 408 379.98 407.98 383.99 407.97C384 395.98 383.99 384 384.01 372.03C387.99 372 391.98 371.98 395.99 371.98C395.99 363.99 396 356 396.02 348.03C399.99 348 403.97 347.98 407.97 347.97C407.98 343.98 408 340 408.03 336.03C412 336.01 415.99 335.99 419.98 335.98C419.99 327.99 419.99 320 420.02 312.03C423.99 312 427.97 311.98 431.97 311.97C431.98 307.98 432 304 432.04 300.04C436 300 439.97 299.98 443.96 299.96C443.97 295.98 444 292 444.04 288.04C448 288 451.97 287.98 455.95 287.96C455.98 284.03 456.03 280.1 456.08 276.19C460.04 275.85 464.04 275.54 468.03 275.21C468.04 272.45 468.06 266.94 468.08 264.18C472.04 263.85 476.04 263.54 480.04 263.21C480.04 260.42 480.03 254.83 480.03 252.03C483.99 252 487.97 251.98 491.97 251.97C491.97 247.97 491.99 243.99 492.02 240.01C500.01 240.01 507.98 239.99 515.99 239.98C515.98 235.98 515.98 231.98 516.01 228ZM480.01 264C479.99 267.99 479.98 271.98 479.99 275.99C475.97 275.99 471.98 275.99 467.99 276.01C468.02 284 468 291.99 467.99 300C479.99 300 492 300 504.01 300C503.98 292 503.96 284 504 276.01C503.99 272 503.99 267.99 504 264C499.98 263.99 495.98 263.99 491.99 264C487.98 263.99 483.99 263.99 480.01 264ZM528 336C527.98 339.99 527.98 343.99 528 348C523.98 347.99 519.98 347.99 515.99 348C516.03 355.99 516.01 363.98 515.99 371.99C519.97 371.99 523.97 371.99 527.99 372.01C527.98 376 527.99 379.99 528.01 384C531.99 383.99 535.98 383.99 539.99 384C539.98 379.99 539.99 376 540.01 372.01C544 372 547.99 371.99 552.01 371.99C551.97 363.99 551.97 355.99 552.01 348C547.99 347.99 543.99 347.99 540 348C539.98 343.99 539.98 339.99 540 336C535.99 335.99 531.99 335.99 528 336ZM420.01 360C419.99 363.99 419.98 367.98 419.99 371.99C415.98 371.98 411.98 371.99 407.99 372.01C408.02 380 408 387.99 407.99 396C419.99 395.99 432 396 444.01 396C443.96 388 443.97 380 444.01 372.01C440 371.99 436 371.98 432.01 371.99C431.99 367.98 431.98 363.99 431.99 360C427.98 359.99 423.99 359.99 420.01 360ZM552 431.99C551.99 443.99 551.99 456 552 468.01C559.99 467.98 567.98 467.98 576 468.01C575.99 456 575.99 443.99 576 431.99C568 432.01 559.99 432 552 431.99ZM455.99 455.98C456.02 463.99 456 471.99 455.98 480.01C463.99 479.97 471.99 479.97 480.01 480.02C479.97 472 479.97 463.99 480.02 455.99C472 456.02 463.99 456 455.99 455.98ZM408.01 503.99C407.99 507.97 407.98 511.97 407.99 515.99C403.98 515.98 399.98 515.99 396 516.01C395.99 519.99 395.99 523.98 396 527.99C399.98 527.98 403.98 527.99 407.99 528.01C407.98 532 407.99 536 408.01 540.01C416 539.97 423.99 539.97 432 540.01C431.99 527.99 432 515.99 432 503.99C424 504.03 416 504.01 408.01 503.99ZM504.01 504C503.99 507.98 503.98 511.98 503.99 515.99C499.97 515.98 495.98 515.99 491.99 516.01C492.02 524 492 531.99 491.99 540C503.99 539.99 516 540 528.01 540C527.96 532 527.97 524 528.01 516.01C524 515.99 520 515.98 516.01 515.99C515.99 511.98 515.98 507.98 515.99 504C511.98 503.99 507.99 503.99 504.01 504Z" fill="#FEDD95"/>
<path d="M132.01 240C236.01 240 340.01 240 444.01 240C443.98 243.98 443.98 247.97 443.98 251.97C439.99 251.98 436 252 432.03 252.03C432 256.01 431.97 259.99 431.96 263.99C427.96 263.98 423.98 263.98 420.01 263.99C416 263.99 412 264 408.01 264.02C408 268.01 407.99 272 408 276C384.01 275.99 360.02 276 336.03 276C336 279.99 335.98 283.99 335.97 288C331.98 287.99 328 287.99 324.03 288C324 283.99 323.98 279.99 323.97 276C307.98 276 291.98 276 275.99 276C272 275.99 268.01 275.99 264.03 275.99C264 271.99 263.98 268 263.97 264.01C255.98 264 248 263.99 240.02 263.99C240 259.98 239.98 255.99 239.97 252C219.99 252 200 252 180.02 252C180 255.99 180 259.99 180 264C172 264 164.01 264.01 156.02 264.01C156 267.98 155.98 271.97 155.97 275.97C151.98 275.98 148 276 144.03 276.03C144.01 280.01 143.98 284 143.97 288C139.98 287.99 135.99 287.99 132.01 287.99C120 288.01 108 288 95.9997 288C95.9897 283.99 95.9897 280 95.9997 276.02C99.9897 276 103.98 275.99 107.99 275.98C107.99 271.99 108 268 108.02 264.02C112 264 115.99 263.99 119.98 263.98C119.99 259.99 120 256 120.02 252.02C124 252 127.99 251.99 131.98 251.99C131.99 247.98 132 243.99 132.01 240Z" fill="#FFF8F5"/>
<path d="M563.99 240C599.99 240 636 240 672 240C671.99 256 672 272 672 288C647.99 288 623.99 288.01 599.99 288C595.98 287.99 591.99 287.99 588.01 288C588 280 587.98 271.99 587.98 263.99C583.97 263.99 579.98 264 576.01 264.01C575.98 260.01 575.98 256.01 575.98 252.03C571.98 252 567.99 251.98 564.02 251.97C564 247.97 563.99 243.98 563.99 240Z" fill="#FFF8F5"/>
<path d="M180.02 252C200 252 219.99 252 239.97 252C239.98 255.99 240 259.98 240.02 263.99C248 263.99 255.98 264 263.97 264.01C263.98 268 264 271.99 264.03 275.99C268.01 275.99 272 275.99 275.99 276C275.99 279.98 276 283.97 276.02 287.97C280 287.98 283.99 288 287.99 288.02C288.01 290.82 288.04 296.42 288.06 299.22C284.06 299.54 280.05 299.85 276.07 300.18C276.03 304.11 275.99 308.04 275.96 311.99C271.98 311.98 268 311.98 264.03 312C264 308 263.98 304.01 263.97 300.03C259.98 300 256 299.98 252.03 299.97C252 295.97 251.98 291.97 251.97 287.99C239.98 288.01 227.99 288.02 216 287.99C216 295.73 216.01 303.48 216.03 311.23C212.04 311.55 208.04 311.85 204.07 312.18C204.03 316.1 204 320.03 203.97 323.98C201.17 324 195.58 324.05 192.78 324.07C192.45 320.05 192.12 316.03 191.83 312.05C183.89 312.01 175.95 311.99 168.02 311.98C168 307.98 167.98 304 167.97 300.02C163.98 300 159.99 299.99 156.01 299.99C156 296 156 292.01 156.01 288.04C159.99 288 163.97 287.98 167.97 287.96C167.98 283.98 168.01 280 168.03 276.03C172.01 276 175.99 275.98 179.98 275.97C179.98 271.97 179.99 267.98 180 264C180 259.99 180 255.99 180.02 252Z" fill="#F1BF51"/>
<path d="M264.02 432C268 431.99 271.99 431.99 275.99 432C275.99 435.99 275.99 439.98 276.01 443.99C284 443.99 291.99 444 299.99 444C299.99 447.99 300 451.98 300.01 455.99C304 455.98 307.99 455.99 312 456.01C312 472 312 488 312 503.99C309.19 504 303.57 504.02 300.76 504.04C300.42 500.03 300.12 496.01 299.84 492.04C295.89 492 291.95 491.99 288.02 491.98C288 487.98 287.99 483.98 287.99 480C283.99 479.99 280 479.99 276.02 480C276 483.98 275.99 487.98 275.98 491.99C272.01 491.98 268.05 491.99 264.1 492.01C264.02 500.02 263.95 508.05 263.56 516.06C251.84 516 240.12 516.11 228.41 515.79C228.22 511.84 228.06 507.91 227.91 504C219.95 504 212.01 504.01 204.07 503.99C203.98 511.85 203.97 519.72 203.78 527.59C199.85 527.75 195.93 527.92 192.02 528.09C192 532.04 191.99 536.01 191.99 539.99C189.18 540 183.56 540.02 180.76 540.04C180.42 536.03 180.12 532.01 179.84 528.04C175.89 528 171.95 527.98 168.02 527.98C168 523.98 167.99 519.99 167.98 516.02C163.98 515.99 159.99 515.98 156.01 515.98C155.99 511.98 155.98 508 155.98 504.04C151.97 504 147.97 503.98 143.98 503.97C144.04 491.96 144.27 479.95 144.11 467.95C148.06 467.97 152.01 467.99 155.97 468.02C155.98 472 156 476 156.03 480C168.02 479.98 180.01 479.98 192 480.01C191.98 472.13 191.96 464.24 191.95 456.38C203.76 455.98 215.57 455.93 227.38 455.9C227.66 459.92 227.88 463.93 228.16 467.99C236.09 467.99 244.02 467.99 251.96 468C251.97 463.64 251.97 459.26 252.02 454.93C252.02 451.38 252.11 447.92 252.22 444.41C256.13 444.22 260.05 444.05 263.98 443.91C263.98 439.93 263.99 435.96 264.02 432Z" fill="#F1BF51"/>
<path d="M444.01 576C447.99 575.99 451.98 575.99 455.98 576C455.98 579.98 455.99 583.98 456.01 587.99C451.99 587.98 447.98 587.98 443.99 588C443.99 583.99 443.99 579.99 444.01 576Z" fill="#F1BF51"/>
<path d="M156.02 264.01C164.01 264.01 172 264 180 264C179.99 267.98 179.98 271.97 179.98 275.97C175.99 275.98 172.01 276 168.03 276.03C168.01 280 167.98 283.98 167.97 287.96C163.97 287.98 159.99 288 156.01 288.04C156 292.01 156 296 156.01 299.99C156 307.73 156.01 315.47 156.04 323.22C152.05 323.55 148.05 323.85 144.08 324.18C144.03 328.14 144 332.12 143.97 336.1C135.95 335.95 127.93 335.9 119.93 335.58C120 323.73 120.03 311.89 120 300.04C123.99 300.01 127.98 299.99 131.98 299.97C131.98 295.97 131.99 291.98 132.01 287.99C135.99 287.99 139.98 287.99 143.97 288C143.98 284 144.01 280.01 144.03 276.03C148 276 151.98 275.98 155.97 275.97C155.98 271.97 156 267.98 156.02 264.01Z" fill="#C99C3B"/>
<path d="M132.69 455.051C135.24 455.431 140.33 456.191 142.88 456.571C143.66 460.301 143.74 464.131 144.11 467.951C144.27 479.951 144.04 491.961 143.98 503.971C147.97 503.981 151.97 504.001 155.98 504.041C155.98 508.001 155.99 511.981 156.01 515.981C152 515.981 148 515.991 144.01 516.021C144.01 518.821 144.02 524.431 144.02 527.241C140.02 527.561 136.02 527.841 132.04 528.161C132.01 532.091 131.99 536.031 131.98 539.991C127.99 539.981 123.99 539.981 120.01 540.001C119.99 531.991 119.99 524.001 120 516.011C115.99 515.991 111.99 515.991 108 516.001C108 508.001 108 500.001 108.01 492.031C111.99 491.991 115.97 491.971 119.97 491.971C119.98 487.981 120.01 484.001 120.04 480.031C123.97 480.001 127.92 479.981 131.87 479.971C132.07 471.661 132.29 463.341 132.69 455.051Z" fill="#C99C3B"/>
<path d="M408.01 264.022C412 264.002 416 263.992 420.01 263.992C419.99 267.982 419.98 271.982 419.98 275.992C415.98 275.982 411.98 275.992 408 276.002C407.99 272.002 408 268.012 408.01 264.022Z" fill="#FDEFD7"/>
<path d="M480.01 264C483.99 263.99 487.98 263.99 491.99 264C491.98 267.99 491.99 271.98 492.02 275.98C496 275.98 499.99 275.99 504 276.01C503.96 284 503.98 292 504.01 300C492 300 479.99 300 467.99 300C468 291.99 468.02 284 467.99 276.01C471.98 275.99 475.97 275.99 479.99 275.99C479.98 271.98 479.99 267.99 480.01 264Z" fill="#EF574B"/>
<path d="M420.01 360C423.99 359.99 427.98 359.99 431.99 360C431.98 363.99 431.99 367.98 432.01 371.99C436 371.98 440 371.99 444.01 372.01C443.97 380 443.96 388 444.01 396C432 396 419.99 395.99 407.99 396C408 387.99 408.02 380 407.99 372.01C411.98 371.99 415.98 371.98 419.99 371.99C419.98 367.98 419.99 363.99 420.01 360Z" fill="#EF574B"/>
<path d="M491.99 264C495.98 263.99 499.98 263.99 504 264C503.99 267.99 503.99 272 504 276.01C499.99 275.99 496 275.98 492.02 275.98C491.99 271.98 491.98 267.99 491.99 264Z" fill="#FBBB82"/>
<path d="M552 264.001C555.99 263.981 559.99 263.981 564.01 263.991C563.99 267.981 563.98 271.991 563.99 276.001C559.98 275.991 555.98 275.991 552 276.001C551.99 271.991 551.99 267.991 552 264.001Z" fill="#F3C25A"/>
<path d="M275.99 276.001C291.98 276.001 307.98 276.001 323.97 276.001C323.98 279.991 324 283.991 324.03 288.001C328 287.991 331.98 287.991 335.97 288.001C335.98 283.991 336 279.991 336.03 276.001C360.02 276.001 384.01 275.991 408 276.001C407.98 279.991 407.98 283.981 407.99 287.991C403.98 287.981 399.98 287.981 396 288.001C392 287.991 388 288.001 384.02 288.011C384.03 290.811 384.04 296.421 384.05 299.221C380.03 299.541 376.02 299.841 372.03 300.171C372.01 304.111 372.01 308.051 372.01 312.001C371.99 315.991 371.99 319.991 372 324.001C367.99 323.991 363.99 324.001 360.01 324.011C360.02 326.821 360.02 332.431 360.03 335.241C356.05 335.561 352.07 335.841 348.12 336.151C348.03 344.101 347.93 352.071 347.57 360.031C344.67 360.021 338.89 360.021 336 360.011C328.12 360.001 320.25 360.001 312.39 360.011C312.17 363.231 312.14 366.581 311.83 369.821C307.97 370.121 304.12 370.451 300.29 370.801C300.16 367.151 300.09 363.591 300.03 359.981C299.98 355.981 299.95 351.991 299.94 348.011C311.95 347.991 323.98 348.001 336 347.991C335.99 343.991 335.98 340.001 335.99 336.031C331.99 336.001 328.01 335.981 324.03 335.971C324 331.981 323.98 328.001 323.96 324.031C319.98 324.001 316 323.981 312.03 323.971C312 319.971 311.98 315.981 311.97 312.001C307.97 311.991 303.99 311.991 300.01 312.011C299.99 307.991 299.98 303.991 299.98 300.001C295.98 299.991 291.99 299.991 288.02 300.001C288 303.991 287.99 307.991 288 311.991C287.98 315.991 287.98 319.991 287.99 324.011C276 323.991 264.01 323.981 252.03 324.001C252 320.001 251.98 316.011 251.96 312.031C247.98 312.001 244 311.981 240.03 311.971C240 307.971 239.98 303.981 239.97 300.011C235.98 300.001 232 300.001 228.03 300.011C228 303.981 227.98 307.971 227.97 311.971C223.98 311.981 219.99 312.001 216.02 312.031C216 320.011 216 328.011 215.99 336.001C207.99 335.981 200.01 335.991 192.02 336.001C192 331.991 191.98 327.981 191.97 323.991C179.98 324.011 168 324.011 156.01 323.991C156 331.991 155.99 339.991 155.99 348.001C151.99 347.991 147.99 347.991 144 348.001C139.99 347.991 135.99 347.991 131.99 348.001C128 347.991 124.01 347.991 120.03 348.001C120.01 343.991 119.99 339.991 119.97 336.001C115.98 335.991 111.99 335.991 108.01 336.001C108 343.991 108 352.001 108 360.001C87.9902 360.001 67.9902 359.991 47.9902 360.001C48.0202 352.001 48.0102 344.001 47.9902 336.011C51.9902 335.991 55.9802 335.981 59.9802 335.981C59.9902 331.991 60.0002 328.001 60.0202 324.021C64.0002 324.001 67.9902 323.981 71.9802 323.981C71.9902 319.981 72.0002 316.001 72.0202 312.021C76.0002 312.001 79.9902 311.991 83.9902 311.991C83.9902 303.981 84.0002 295.991 84.0002 288.001C88.0002 287.991 92.0002 287.991 96.0002 288.001C108 288.001 120 288.011 132.01 287.991C131.99 291.981 131.98 295.971 131.98 299.971C127.98 299.991 123.99 300.011 120 300.041C120.03 311.891 120 323.731 119.93 335.581C127.93 335.901 135.95 335.951 143.97 336.101C144 332.121 144.03 328.141 144.08 324.181C148.05 323.851 152.05 323.551 156.04 323.221C156.01 315.471 156 307.731 156.01 299.991C159.99 299.991 163.98 300.001 167.97 300.021C167.98 304.001 168 307.981 168.02 311.981C175.95 311.991 183.89 312.011 191.83 312.051C192.12 316.031 192.45 320.051 192.78 324.071C195.58 324.051 201.17 324.001 203.97 323.981C204 320.031 204.03 316.101 204.07 312.181C208.04 311.851 212.04 311.551 216.03 311.231C216.01 303.481 216 295.731 216 287.991C227.99 288.021 239.98 288.011 251.97 287.991C251.98 291.971 252 295.971 252.03 299.971C256 299.981 259.98 300.001 263.97 300.031C263.98 304.011 264 308.001 264.03 312.001C268 311.981 271.98 311.981 275.96 311.991C275.99 308.041 276.03 304.111 276.07 300.181C280.05 299.851 284.06 299.541 288.06 299.221C288.04 296.421 288.01 290.821 287.99 288.021C283.99 288.001 280 287.981 276.02 287.971C276 283.971 275.99 279.981 275.99 276.001Z" fill="#FEFAF7"/>
<path d="M384.02 288.01C388 288 392 287.99 396 288C395.99 291.99 395.99 295.99 396 299.99C392 299.99 388.01 300 384.03 300.02C384 304 383.98 307.99 383.97 311.98C379.97 311.98 375.99 311.99 372.01 312C372.01 308.05 372.01 304.11 372.03 300.17C376.02 299.84 380.03 299.54 384.05 299.22C384.04 296.42 384.03 290.81 384.02 288.01Z" fill="#FFFEFE"/>
<path d="M599.99 288C623.99 288.01 647.99 288 672 288C672 312 671.99 336 672.01 360C652 360 632 360 612 360C612 344 611.99 328.01 612 312.03C607.98 312 603.99 311.98 600 311.98C600 303.98 599.99 295.98 599.99 288Z" fill="#FFFAF7"/>
<path d="M228.03 300.011C232 300.001 235.98 300.001 239.97 300.011C239.98 303.981 240 307.971 240.03 311.971C244 311.981 247.98 312.001 251.96 312.031C251.98 316.011 252 320.001 252.03 324.001C264.01 323.981 276 323.991 287.99 324.011C287.98 319.991 287.98 315.991 288 311.991C291.99 311.991 295.99 311.991 300.01 312.011C303.99 311.991 307.97 311.991 311.97 312.001C311.98 315.981 312 319.971 312.03 323.971C316 323.981 319.98 324.001 323.96 324.031C323.98 328.001 324 331.981 324.03 335.971C328.01 335.981 331.99 336.001 335.99 336.031C335.98 340.001 335.99 343.991 336 347.991C323.98 348.001 311.95 347.991 299.94 348.011C299.95 351.991 299.98 355.981 300.03 359.981C296.01 359.981 292.01 360.001 288.01 360.021C288 363.951 287.99 367.881 288 371.821C284 371.981 280.02 372.121 276.04 372.251C276.01 368.161 275.98 364.081 275.97 360.011C267.98 359.991 260 359.991 252.02 359.991C252 355.981 251.98 351.991 251.97 348.001C247.98 347.991 243.99 347.991 240.01 348.001C240 355.981 239.99 363.981 239.99 371.981C235.99 371.981 232.01 372.001 228.03 372.031C228 376.011 227.98 380.001 227.97 383.991C219.98 383.981 212 383.991 204.02 384.001C204 379.991 203.98 375.991 203.98 372.001C195.98 371.991 188 372.001 180.02 372.001C179.99 375.981 179.98 379.971 179.97 383.971C175.98 383.981 171.99 384.001 168.02 384.031C168 392.011 168 400.011 167.99 408.001C163.99 407.991 160.01 407.981 156.03 408.001C156 403.991 155.98 400.001 155.97 396.011C147.98 395.991 140 395.991 132.01 395.991C132 391.981 131.99 387.991 131.99 384.001C135.98 383.981 139.99 383.981 144 383.991C143.99 379.981 143.99 375.981 144 371.991C143.99 367.991 144 363.991 144 360.011C144 355.991 144 351.991 144 348.001C147.99 347.991 151.99 347.991 155.99 348.001C155.99 339.991 156 331.991 156.01 323.991C168 324.011 179.98 324.011 191.97 323.991C191.98 327.981 192 331.991 192.02 336.001C200.01 335.991 207.99 335.981 215.99 336.001C216 328.011 216 320.011 216.02 312.031C219.99 312.001 223.98 311.981 227.97 311.971C227.98 307.971 228 303.981 228.03 300.011Z" fill="#389946"/>
<path d="M288.02 300C291.99 299.99 295.98 299.99 299.98 300C299.98 303.99 299.99 307.99 300.01 312.01C295.99 311.99 291.99 311.99 288 311.99C287.99 307.99 288 303.99 288.02 300Z" fill="#77B67E"/>
<path d="M384.031 300.022C388.011 300.002 392.001 299.992 396.001 299.992C395.991 307.992 395.991 315.992 396.001 324.002C387.991 323.992 379.991 323.992 372.001 324.002C371.991 319.992 371.991 315.992 372.011 312.002C375.991 311.992 379.971 311.982 383.971 311.982C383.981 307.992 384.001 304.002 384.031 300.022Z" fill="#EF574B"/>
<path d="M599.991 372.012C603.981 371.992 607.981 371.992 612.001 371.992C611.991 379.992 611.981 387.992 612.001 396.012C607.981 395.992 603.981 395.992 599.991 395.992C600.011 387.992 600.001 380.002 599.991 372.012Z" fill="#EF574B"/>
<path d="M108.01 336C111.99 335.99 115.98 335.99 119.97 336C119.99 339.99 120.01 343.99 120.03 348C124.01 347.99 128 347.99 131.99 348C131.99 351.98 132 355.98 132.02 359.98C136.01 359.98 140 359.99 144 360.01C144 363.99 143.99 367.99 144 371.99C139.99 371.99 136 372 132.02 372.02C132 376 131.99 380 131.99 384C123.99 383.99 116.01 384 108.02 384.01C108 387.99 107.98 391.99 107.98 396C103.98 395.99 99.99 395.99 96 396C96 388 96 380.01 96 372.02C99.99 371.99 103.99 371.98 107.99 371.97C107.99 367.97 107.99 363.98 108 360C108 352 108 343.99 108.01 336Z" fill="#206729"/>
<path d="M527.999 336C531.989 335.99 535.989 335.99 539.999 336C539.979 339.99 539.979 343.99 539.999 348C535.979 347.99 531.979 347.99 527.999 348C527.979 343.99 527.979 339.99 527.999 336Z" fill="#F8CE74"/>
<path d="M131.99 348C135.99 347.99 139.99 347.99 144 348C144 351.99 144 355.99 144 360.01C140 359.99 136.01 359.98 132.02 359.98C132 355.98 131.99 351.98 131.99 348Z" fill="#8FB091"/>
<path d="M240.01 348C243.99 347.99 247.98 347.99 251.97 348C251.98 351.99 252 355.98 252.02 359.99C260 359.99 267.98 359.99 275.97 360.01C275.98 364.08 276.01 368.16 276.04 372.25C280.02 372.12 284 371.98 288 371.82C292.08 371.52 296.19 371.18 300.29 370.8C304.12 370.45 307.97 370.12 311.83 369.82C311.78 370.25 311.67 371.11 311.62 371.54C307.75 371.82 303.89 372.08 300.04 372.32C300.01 380.21 300 388.1 299.99 396C295.99 395.99 292 395.98 288.03 396C288 391.99 287.98 388 287.97 384.01C279.98 383.99 272 383.99 264.02 383.99C264 379.95 263.98 375.91 263.98 371.89C255.96 372.02 247.95 372.1 239.95 372.42C239.96 380.26 239.98 388.12 240 395.98C236 395.98 232.01 396 228.03 396.03C228 400.01 227.98 403.99 227.97 407.99C223.98 407.98 220 407.98 216.03 408C216 403.99 215.98 399.99 215.97 396C207.98 395.99 199.99 396 192 396C191.99 391.99 191.99 387.99 192 384.01C189.16 383.99 183.49 383.95 180.66 383.93C180.45 387.94 180.24 391.94 180.1 395.99C179.99 399.97 179.91 403.96 179.84 407.97C177.08 407.97 171.55 407.96 168.79 407.95C168.45 411.95 168.13 415.94 167.83 419.98C159.88 419.95 151.95 419.96 144.02 420.01C144 416 143.98 412 143.97 408.02C139.95 408 135.94 407.98 131.93 407.98C131.77 403.93 131.59 399.92 131.41 395.91C128.56 395.94 122.87 395.99 120.02 396.02C119.99 399.99 119.98 403.98 119.97 407.97C115.98 407.98 112.01 408 108.03 408.03C108.01 412.01 107.99 416 107.97 420C103.97 419.99 99.98 419.98 96 419.99C68 420.01 40 420 12.01 420C12 415.99 12 412 12 408.01C15.99 407.99 19.99 407.98 23.99 407.99C24 399.98 24.01 392 24 384.01C27.99 383.99 31.99 383.98 35.99 383.99C35.99 375.98 36.01 367.99 36 360C39.99 359.99 43.99 359.99 47.99 360C67.99 359.99 87.99 360 108 360C107.99 363.98 107.99 367.97 107.99 371.97C103.99 371.98 99.99 371.99 96 372.02C96 380.01 96 388 96 396C99.99 395.99 103.98 395.99 107.98 396C107.98 391.99 108 387.99 108.02 384.01C116.01 384 123.99 383.99 131.99 384C131.99 387.99 132 391.98 132.01 395.99C140 395.99 147.98 395.99 155.97 396.01C155.98 400 156 403.99 156.03 408C160.01 407.98 163.99 407.99 167.99 408C168 400.01 168 392.01 168.02 384.03C171.99 384 175.98 383.98 179.97 383.97C179.98 379.97 179.99 375.98 180.02 372C188 372 195.98 371.99 203.98 372C203.98 375.99 204 379.99 204.02 384C212 383.99 219.98 383.98 227.97 383.99C227.98 380 228 376.01 228.03 372.03C232.01 372 235.99 371.98 239.99 371.98C239.99 363.98 240 355.98 240.01 348Z" fill="#FEFCFA"/>
<path d="M515.99 348C519.98 347.99 523.98 347.99 528 348C531.98 347.99 535.98 347.99 540 348C543.99 347.99 547.99 347.99 552.01 348C551.97 355.99 551.97 363.99 552.01 371.99C547.99 371.99 544 372 540.01 372.01C539.99 376 539.98 379.99 539.99 384C535.98 383.99 531.99 383.99 528.01 384C527.99 379.99 527.98 376 527.99 372.01C523.97 371.99 519.97 371.99 515.99 371.99C516.01 363.98 516.03 355.99 515.99 348Z" fill="#F0BF51"/>
<path d="M408.01 503.988C416 504.008 424 504.028 432 503.988C432 515.988 431.99 527.988 432 540.008C423.99 539.968 416 539.968 408.01 540.008C407.99 535.998 407.98 531.998 407.99 528.008C403.98 527.988 399.98 527.978 396 527.988C395.99 523.978 395.99 519.988 396 516.008C399.98 515.988 403.98 515.978 407.99 515.988C407.98 511.968 407.99 507.968 408.01 503.988Z" fill="#F0BF51"/>
<path d="M504.01 504C507.99 503.99 511.98 503.99 515.99 504C515.98 507.98 515.99 511.98 516.01 515.99C520 515.98 524 515.99 528.01 516.01C527.97 524 527.96 532 528.01 540C516 540 503.99 539.99 491.99 540C492 531.99 492.02 524 491.99 516.01C495.98 515.99 499.97 515.98 503.99 515.99C503.98 511.98 503.99 507.98 504.01 504Z" fill="#F0BF51"/>
<path d="M288.01 360.021C292.01 360.001 296.01 359.98 300.03 359.98C300.09 363.59 300.16 367.15 300.29 370.8C296.19 371.18 292.08 371.52 288 371.82C287.99 367.88 288 363.951 288.01 360.021Z" fill="#E6F0E3"/>
<path d="M312.39 360.011C320.25 360.001 328.12 360.001 336 360.011C335.96 367.991 335.98 375.991 336.01 383.991C332 383.991 327.99 383.991 324 384.011C324 396.001 323.99 407.991 323.99 419.981C319.99 419.981 316 419.991 312.01 420.011C311.99 424.001 311.99 427.991 312 432.001C307.9 431.991 303.81 432.001 299.73 432.011C295.81 432.001 291.91 432.001 288.02 432.011C288 427.991 287.99 423.991 287.99 420.001C275.99 419.991 264 419.991 252.01 420.001C251.99 427.991 251.99 435.991 252 443.991C247.98 443.981 243.97 443.991 239.97 444.011C240.04 446.851 240.17 452.551 240.24 455.391C236.16 455.591 232.1 455.831 228.04 456.051C228.01 452.031 227.99 448.011 227.97 444.011C219.98 443.991 212 443.991 204.02 443.991C204 439.981 203.98 435.991 203.97 432.001C199.98 431.991 195.99 431.991 192.01 432.001C192 439.981 191.99 447.981 191.99 455.981C187.99 455.981 184.01 456.001 180.03 456.031C180 460.011 179.98 463.991 179.97 467.991C175.98 467.981 172 467.981 168.03 468.001C168 463.991 167.98 460.001 167.97 456.011C159.98 455.991 152 455.991 144.02 455.991C144 451.981 143.98 447.991 143.97 444.021C139.97 444.001 135.98 443.991 131.99 443.991C131.99 431.981 132.2 419.981 131.93 407.981C135.94 407.981 139.95 408.001 143.97 408.021C143.98 412.001 144 416.001 144.02 420.011C151.95 419.961 159.88 419.951 167.83 419.981C168.13 415.941 168.45 411.951 168.79 407.951C171.55 407.961 177.08 407.971 179.84 407.971C179.91 403.961 179.99 399.971 180.1 395.991C184.06 395.981 188.02 395.981 192 396.001C199.99 396.001 207.98 395.991 215.97 396.001C215.98 399.991 216 403.991 216.03 408.001C220 407.981 223.98 407.981 227.97 407.991C227.98 403.991 228 400.011 228.03 396.031C232.01 396.001 236 395.981 240 395.981C239.98 388.121 239.96 380.261 239.95 372.421C247.95 372.101 255.96 372.021 263.98 371.891C263.98 375.911 264 379.951 264.02 383.991C272 383.991 279.98 383.991 287.97 384.011C287.98 388.001 288 391.991 288.03 396.001C292 395.981 295.99 395.991 299.99 396.001C300 388.101 300.01 380.211 300.04 372.321C303.89 372.081 307.75 371.821 311.62 371.541C311.67 371.111 311.78 370.251 311.83 369.821C312.14 366.581 312.17 363.231 312.39 360.011Z" fill="#F0564B"/>
<path d="M611.999 360C631.999 360 651.999 360 672.009 360C671.949 367.99 671.969 375.99 672.009 383.99C667.989 383.99 663.989 383.99 659.999 384.01C659.989 396 659.989 407.99 659.999 419.99C655.979 419.98 651.979 419.99 647.999 420.01C647.989 432 647.989 443.99 647.989 455.98C643.979 455.98 639.989 455.99 636.009 456.01C635.989 460 635.979 464.01 635.989 468.02C627.979 467.97 619.989 467.95 611.999 468C611.999 444 611.999 420 611.999 396.01C611.979 387.99 611.989 379.99 611.999 371.99C611.979 367.98 611.979 363.99 611.999 360Z" fill="#FFFCFA"/>
<path d="M132.02 372.022C136 372.002 139.99 371.992 144 371.992C143.99 375.982 143.99 379.982 144 383.992C139.99 383.982 135.98 383.982 131.99 384.002C131.99 380.002 132 376.002 132.02 372.022Z" fill="#2E823A"/>
<path d="M180.66 383.93C183.49 383.95 189.16 383.99 192 384.01C191.99 387.99 191.99 391.99 192 396C188.02 395.98 184.06 395.98 180.1 395.99C180.24 391.94 180.45 387.94 180.66 383.93Z" fill="#FABDB7"/>
<path d="M120.021 396.02C122.871 395.99 128.561 395.94 131.411 395.91C131.591 399.92 131.771 403.93 131.931 407.98C132.201 419.98 131.991 431.98 131.991 443.99C131.981 447.97 131.981 451.96 132.001 455.97C128.001 455.98 124.011 456 120.031 456.04C120.001 460 119.981 463.98 119.961 467.96C115.981 467.98 112.001 468 108.031 468.03C108.011 472.01 107.991 475.99 107.971 479.99C103.981 479.98 99.9809 479.98 96.0009 480C96.0109 459.99 95.9909 439.99 96.0009 419.99C99.9809 419.98 103.971 419.99 107.971 420C107.991 416 108.011 412.01 108.031 408.03C112.011 408 115.981 407.98 119.971 407.97C119.981 403.98 119.991 399.99 120.021 396.02Z" fill="#C2493F"/>
<path d="M12.01 420.002C40 420.002 68 420.012 96 419.992C95.99 439.992 96.01 459.992 96 480.002C99.98 479.982 103.98 479.982 107.97 479.992C107.99 475.992 108.01 472.012 108.03 468.032C112 468.002 115.98 467.982 119.96 467.962C119.98 463.982 120 460.002 120.03 456.042C124.01 456.002 128 455.982 132 455.972C131.98 451.962 131.98 447.972 131.99 443.992C135.98 443.992 139.97 444.002 143.97 444.022C143.98 447.992 144 451.982 144.02 455.992C152 455.992 159.98 455.992 167.97 456.012C167.98 460.002 168 463.992 168.03 468.002C172 467.982 175.98 467.982 179.97 467.992C179.98 463.992 180 460.012 180.03 456.032C184.01 456.002 187.99 455.982 191.99 455.982C191.99 447.982 192 439.982 192.01 432.002C195.99 431.992 199.98 431.992 203.97 432.002C203.98 435.992 204 439.982 204.02 443.992C212 443.992 219.98 443.992 227.97 444.012C227.99 448.012 228.01 452.032 228.04 456.052C232.1 455.832 236.16 455.592 240.24 455.392C244.15 455.202 248.08 455.052 252.02 454.932C251.97 459.262 251.97 463.642 251.96 468.002C244.02 467.992 236.09 467.992 228.16 467.992C227.88 463.932 227.66 459.922 227.38 455.902C215.57 455.932 203.76 455.982 191.95 456.382C191.96 464.242 191.98 472.132 192 480.012C180.01 479.982 168.02 479.982 156.03 480.002C156 476.002 155.98 472.002 155.97 468.022C152.01 467.992 148.06 467.972 144.11 467.952C143.74 464.132 143.66 460.302 142.88 456.572C140.33 456.192 135.24 455.432 132.69 455.052C132.29 463.342 132.07 471.662 131.87 479.972C127.92 479.982 123.97 480.002 120.04 480.032C120.01 484.002 119.98 487.982 119.97 491.972C115.97 491.972 111.99 491.992 108.01 492.032C108 500.002 108 508.002 108 516.002C76 516.002 44.01 516.002 12.02 516.002C12.01 511.992 11.99 508.002 11.98 504.022C7.98 503.992 3.99 503.982 0 503.992C0 479.992 0 456.002 0 432.012C3.99 431.992 7.99001 431.982 11.99 431.992C11.99 427.982 12 423.982 12.01 420.002Z" fill="#FEFDFC"/>
<path d="M299.73 432.01C303.81 432 307.9 431.99 312 432C311.99 436.13 311.98 440.27 311.98 444.43C309.25 444.26 303.79 443.92 301.06 443.75C300.27 439.88 300.17 435.89 299.73 432.01Z" fill="#FADEDA"/>
<path d="M324 432C327.99 431.99 331.99 431.99 336 432C335.99 435.98 335.99 439.98 336 443.98C331.99 443.98 327.98 443.99 324 444.01C323.98 439.99 323.99 435.99 324 432Z" fill="#F5CF7D"/>
<path d="M552 431.992C559.99 432.002 568 432.012 576 431.992C575.99 443.992 575.99 456.002 576 468.012C567.98 467.982 559.99 467.982 552 468.012C551.99 456.002 551.99 443.992 552 431.992Z" fill="#EF564A"/>
<path d="M455.99 455.98C463.99 456 472.001 456.02 480.021 455.99C479.971 463.99 479.97 472.001 480.01 480.021C471.99 479.971 463.99 479.97 455.98 480.01C456 471.99 456.02 463.99 455.99 455.98Z" fill="#EF564A"/>
<path d="M324 467.992C327.93 468.002 331.87 468.022 335.82 468.062C336.12 472.032 336.44 476.042 336.78 480.042C339.59 480.042 345.2 480.022 348.01 480.012C347.97 488.002 347.97 495.982 348.01 503.992C344 503.982 339.99 503.992 336.01 504.012C335.98 496.002 335.99 488.002 336 480.012C331.99 479.992 327.99 479.982 324 479.992C323.99 475.982 323.99 471.982 324 467.992Z" fill="#F0574B"/>
<path d="M276.01 503.98C284 504.01 291.99 504.03 299.99 503.99C299.99 507.97 300 511.97 300.02 515.98C303.99 515.98 307.98 515.991 311.98 516.021C311.98 519.991 312 523.98 312.02 527.98C316 527.98 319.98 527.991 323.98 528.021C323.98 531.991 324 535.98 324.02 539.98C328 539.98 331.98 539.991 335.98 540.021C335.98 543.991 335.99 547.98 336.02 551.98C340 551.98 344 551.99 348.01 552.01C347.97 560 347.96 568 348.01 576C344 575.99 340 575.98 336.01 576C335.99 572.01 335.99 568.03 335.99 564.07C328.12 563.97 320.26 563.971 312.41 563.781C312.22 559.841 312.06 555.91 311.91 552C303.93 552 295.97 552.02 288.01 551.99C287.99 555.98 287.98 559.97 287.99 563.99C283.98 563.98 279.99 563.99 276.01 564.01C275.99 572 275.99 580 276 588C271.99 587.99 268 587.98 264.01 588C264 583.99 263.99 579.991 263.99 576.01C255.99 575.991 248 575.99 240.01 576C239.99 571.98 239.99 567.99 239.99 564C235.99 563.99 232 563.99 228.02 564C228 567.98 227.99 571.98 227.98 575.99C223.99 575.98 220 575.991 216.02 576.01C216 580 215.99 583.99 215.99 588C207.99 587.99 200 587.99 192.01 588C192 583.98 191.99 579.991 192 576.01C191.99 571.991 191.98 567.991 191.99 564.01C187.99 563.99 184 563.99 180.01 564C180.02 561.18 180.05 555.55 180.06 552.74C176.05 552.42 172.04 552.101 168.06 551.831C168.03 547.881 168 543.94 167.99 540.01C171.98 539.99 175.98 539.99 179.99 540C179.99 543.99 180 548.001 180.01 552.021C188 551.971 196 551.96 203.99 552.01C204 544 204.01 536.01 204 528.01C207.99 527.99 211.98 527.98 215.98 527.99C215.99 523.98 216 519.98 216.01 516C220 515.99 223.99 515.99 227.99 516C227.99 519.98 228 523.98 228.01 527.99C236 527.99 243.99 528 251.99 528C251.99 531.99 252 535.99 252.01 540C256 539.98 259.99 539.99 263.99 540C263.99 531.99 264.01 524 264 516.01C267.99 515.99 271.98 515.98 275.99 515.99C275.98 511.97 275.99 507.97 276.01 503.98Z" fill="#F0564A"/>
<path d="M144.001 528C147.991 527.99 151.981 527.99 155.991 528C155.991 531.98 156.001 535.98 156.021 539.98C160.001 539.98 163.991 539.99 167.991 540.01C168.001 543.94 168.031 547.88 168.061 551.83C172.041 552.1 176.051 552.42 180.061 552.74C180.051 555.55 180.021 561.18 180.011 564C180.001 567.98 179.991 571.97 180.001 575.99C183.991 575.98 187.991 575.98 192.001 576.01C191.991 579.99 192.001 583.98 192.011 588C200.001 587.99 207.991 587.99 215.991 588C215.991 591.98 215.991 595.97 216.001 599.98C212.001 599.98 208.001 599.99 204.011 600.01C204.001 603.99 203.991 607.99 203.991 612C199.991 611.98 196.001 611.98 192.011 612C192.001 607.99 191.991 603.99 191.991 600.01C183.991 599.98 176.001 599.99 168.011 600C168.001 595.99 167.991 591.99 167.981 588.02C163.991 587.99 160.001 587.98 156.021 587.98C156.001 583.98 155.991 579.99 155.981 576.02C151.991 575.99 148.001 575.98 144.021 575.98C144.001 571.98 143.991 567.99 143.981 564.02C139.981 563.99 135.991 563.98 132.001 563.99C132.001 559.98 131.991 555.99 132.001 552.01C135.991 551.99 139.991 551.98 143.991 551.99C143.991 543.98 144.001 535.99 144.001 528Z" fill="#C2483F"/>
<path d="M180.01 563.999C184 563.989 187.99 563.989 191.99 564.009C191.98 567.989 191.99 571.989 192 576.009C187.99 575.979 183.99 575.979 180 575.989C179.99 571.969 180 567.979 180.01 563.999Z" fill="#CB4B41"/>
<path d="M300.01 564C303.99 563.99 307.98 563.99 311.99 564C311.98 567.98 311.99 571.98 312.01 575.99C316 575.98 319.99 575.99 324 576.01C323.99 579.99 323.99 583.98 324 587.99C319.99 587.98 316 587.99 312.01 588.02C311.99 591.99 311.99 595.98 311.99 599.99C303.99 599.99 296 600 288.01 600C287.99 603.99 287.99 607.99 287.99 612C267.98 612 247.98 612 227.98 612C228.01 603.98 228.03 595.98 227.99 587.98C235.98 588 243.99 588.02 251.99 587.99C251.99 591.98 252 595.98 252.01 600C259.93 599.96 267.87 600.36 275.81 600.1C279.74 599.68 283.76 599.64 287.68 598.88C287.8 596.1 288.05 590.52 288.17 587.74C288.18 583.81 288.17 579.91 288.13 576.02C292.07 575.99 296.02 575.98 299.98 575.98C299.98 571.98 299.99 567.98 300.01 564Z" fill="#399947"/>
<path d="M276.361 589.262C279.911 587.392 284.341 588.552 288.171 587.742C288.051 590.522 287.801 596.102 287.681 598.882C283.761 599.642 279.741 599.682 275.811 600.102C275.941 597.392 276.221 591.972 276.361 589.262Z" fill="#77B880"/>
<path d="M456.011 587.992C459.991 587.992 463.981 587.992 467.981 588.022C467.981 591.992 467.991 595.992 468.011 600.002C463.991 599.982 459.991 599.982 456.001 600.002C455.991 595.982 455.991 591.982 456.011 587.992Z" fill="#F5C663"/>
<path d="M480.01 588C483.99 587.99 487.99 587.99 492 588C491.98 591.99 491.98 595.98 492 600C487.98 599.98 483.98 599.99 479.99 600C479.99 595.99 479.99 591.99 480.01 588Z" fill="#FFF9EC"/>
</svg>
