<svg width="600" height="600" viewBox="0 0 600 600" fill="none" xmlns="http://www.w3.org/2000/svg">
<g clip-path="url(#clip0_7_2)">
<rect width="600" height="600" rx="300" fill="#FBFFF1"/>
<rect y="430" width="600" height="170" fill="#AD0004"/>
<rect width="600" height="170" fill="#124A3F"/>
<path d="M151.621 304.526C151.621 304.526 147.998 265.424 155.795 241.431C161.172 224.876 169.482 211.304 182.913 200.242C203.898 182.958 236.303 178.399 259.042 188.77C239.133 189.807 212.476 196.529 198.034 208.59C186.971 217.821 178.329 230.804 174.053 244.568C166.78 267.972 170.404 305.576 170.404 305.576L151.634 304.539L151.621 304.526Z" fill="#FEBB26"/>
<path d="M171.633 306.754L150.597 305.589L150.507 304.629C150.469 304.232 146.961 265.015 154.732 241.085C160.507 223.314 169.239 210.05 182.196 199.372C192.438 190.934 205.92 185.121 220.145 183.022C234.267 180.935 248.249 182.612 259.503 187.746L263.664 189.641L259.093 189.884C240.118 190.883 213.154 197.425 198.751 209.435C187.919 218.474 179.302 231.393 175.115 244.888C167.997 267.806 171.479 305.077 171.505 305.448L171.633 306.741V306.754ZM152.658 303.464L169.175 304.385C168.624 297.536 166.486 265.13 172.977 244.235C177.292 230.343 186.165 217.04 197.317 207.732C204.102 202.073 214.076 197.144 226.163 193.482C235.151 190.755 244.92 188.86 254.151 188.002C244.152 184.468 232.385 183.483 220.491 185.237C206.663 187.285 193.578 192.919 183.63 201.1C171.005 211.496 162.504 224.415 156.87 241.777C149.918 263.197 152.184 297.318 152.671 303.464H152.658Z" fill="black"/>
<path d="M165.807 240.586C159.085 260.879 159.085 283.26 159.751 302.49L162.248 302.388C161.582 283.247 161.736 261.174 168.201 241.367C174.667 221.56 187.343 204.019 212.053 193.584C182.554 200.217 169.264 230.125 165.794 240.586H165.807Z" fill="black"/>
<path d="M151.467 289.815H169.405V330.044H151.467V289.815Z" fill="#FEBB26"/>
<path d="M170.532 331.157H150.353V288.688H170.532V331.157ZM152.594 328.917H168.291V290.929H152.594V328.917Z" fill="black"/>
<path d="M223.243 365.727C212.463 355.714 211.656 363.294 190.083 334.23C190.083 334.23 180.659 337.111 175.755 337.303C173.195 337.405 170.57 337.073 168.163 336.279C163.733 334.832 156.077 329.621 156.077 329.621L154.105 312.72C154.105 312.72 150.213 312.093 149.048 310.416C148.049 308.969 148.036 306.728 149.048 305.294C150.494 303.233 152.735 302.747 155.513 301.966C160.711 300.506 166.511 300.608 171.812 301.709C176.511 302.682 180.16 304.949 184.743 306.319C198.827 310.531 228.582 313.233 228.582 313.233L223.243 365.714V365.727Z" fill="#FEBB26"/>
<path d="M224.127 368.07L222.475 366.546C219.07 363.384 216.752 362.065 214.294 360.657C209.236 357.776 204 354.793 189.647 335.523C187.279 336.215 180.019 338.251 175.781 338.417C173.041 338.519 170.276 338.148 167.805 337.341C163.272 335.856 155.757 330.761 155.436 330.543L155.014 330.261L153.081 313.668C151.723 313.361 149.176 312.592 148.126 311.069C146.858 309.238 146.858 306.485 148.126 304.667C149.7 302.426 151.979 301.799 154.617 301.069L155.193 300.903C160.161 299.507 166.14 299.418 172.017 300.634C174.821 301.21 177.279 302.247 179.661 303.233C181.376 303.95 183.156 304.693 185.038 305.256C198.866 309.392 228.365 312.093 228.659 312.131L229.786 312.234L224.101 368.083H224.127V368.07ZM190.505 332.912L190.979 333.552C205.408 353 210.491 355.894 215.408 358.698C217.469 359.876 219.594 361.092 222.347 363.422L227.353 314.231C221.72 313.693 197.073 311.171 184.423 307.381C182.413 306.78 180.595 306.011 178.816 305.269C176.434 304.27 174.181 303.323 171.582 302.785C166.05 301.645 160.443 301.722 155.808 303.028L155.219 303.195C152.812 303.86 151.07 304.347 149.957 305.922C149.214 306.972 149.227 308.7 149.957 309.763C150.571 310.646 152.85 311.363 154.271 311.594L155.104 311.735L155.206 312.58L157.114 328.968C158.765 330.056 164.847 334.013 168.496 335.203C170.724 335.933 173.208 336.266 175.691 336.176C180.39 335.997 189.647 333.18 189.737 333.155L190.492 332.924H190.505V332.912Z" fill="black"/>
<path d="M150.456 326.548C150.456 326.548 157.677 326.625 161.134 326.292C163.643 326.049 165.756 324.73 168.445 325.78C170.045 326.407 171.53 329.621 171.53 329.621C171.53 329.621 169.098 332.566 167.318 333.206C162.35 334.986 155.475 335.37 151.019 332.694C149.829 331.977 149.355 330.415 149.329 329.109C149.329 328.187 150.456 326.548 150.456 326.548Z" fill="#FEBB26"/>
<path d="M159.085 335.741C155.987 335.741 152.901 335.139 150.43 333.654C148.817 332.681 148.228 330.684 148.203 329.122C148.19 327.931 149.214 326.369 149.521 325.908L149.854 325.421H150.443C150.52 325.421 157.651 325.498 161.006 325.178C161.723 325.114 162.427 324.935 163.157 324.756C164.796 324.346 166.665 323.898 168.829 324.743C170.749 325.498 172.247 328.545 172.529 329.16L172.824 329.8L172.375 330.338C172.107 330.658 169.7 333.539 167.677 334.269C165.167 335.165 162.12 335.754 159.073 335.754H159.085V335.741ZM151.058 327.662C150.712 328.251 150.443 328.866 150.443 329.083C150.443 329.992 150.763 331.221 151.583 331.721C155.821 334.269 162.517 333.731 166.934 332.143C167.856 331.81 169.251 330.479 170.186 329.442C169.597 328.366 168.688 327.073 168.022 326.804C166.524 326.215 165.218 326.535 163.707 326.907C162.926 327.099 162.12 327.304 161.236 327.38C158.317 327.662 152.901 327.662 151.058 327.649V327.662Z" fill="black"/>
<path d="M150.174 320.147C150.174 320.147 157.395 320.223 160.852 319.89C163.362 319.647 166.87 317.816 169.559 318.866C171.159 319.494 172.644 322.707 172.644 322.707C172.644 322.707 170.212 325.652 168.432 326.292C163.464 328.072 155.18 328.968 150.725 326.292C149.534 325.575 149.06 324.013 149.035 322.707C149.035 321.785 150.161 320.147 150.161 320.147H150.174Z" fill="#FEBB26"/>
<path d="M158.522 329.096C155.347 329.096 152.325 328.558 150.161 327.252C148.548 326.279 147.959 324.282 147.934 322.72C147.921 321.529 148.945 319.967 149.252 319.506L149.585 319.02H150.174C150.251 319.02 157.382 319.097 160.737 318.777C161.48 318.7 162.363 318.469 163.31 318.213C165.423 317.637 167.817 316.997 169.955 317.829C171.876 318.585 173.374 321.632 173.656 322.246L173.95 322.887L173.502 323.424C173.233 323.744 170.826 326.625 168.803 327.355C165.833 328.418 162.069 329.109 158.509 329.109L158.522 329.096ZM150.789 321.26C150.443 321.849 150.174 322.464 150.174 322.682C150.174 323.591 150.494 324.82 151.314 325.319C155.18 327.637 162.862 327.099 168.061 325.23C168.97 324.897 170.378 323.565 171.313 322.528C170.724 321.453 169.815 320.159 169.149 319.891C167.689 319.327 165.769 319.839 163.899 320.351C162.862 320.633 161.876 320.902 160.955 320.992C158.035 321.273 152.62 321.273 150.776 321.26H150.789Z" fill="black"/>
<path d="M150.174 312.977C150.174 312.977 157.395 313.054 160.852 312.721C163.362 312.477 166.87 310.646 169.559 311.696C171.159 312.324 172.644 315.537 172.644 315.537C172.644 315.537 170.212 318.482 168.432 319.122C163.464 320.902 155.18 321.798 150.725 319.122C149.534 318.405 149.06 316.843 149.035 315.537C149.035 314.616 150.161 312.977 150.161 312.977H150.174Z" fill="#FEBB26"/>
<path d="M158.522 321.926C155.347 321.926 152.325 321.388 150.161 320.082C148.548 319.109 147.959 317.112 147.934 315.55C147.921 314.359 148.945 312.797 149.252 312.336L149.585 311.85H150.174C150.251 311.85 157.382 311.927 160.737 311.607C161.48 311.53 162.363 311.299 163.31 311.043C165.423 310.467 167.817 309.827 169.955 310.659C171.876 311.415 173.374 314.462 173.656 315.076L173.95 315.716L173.502 316.254C173.233 316.574 170.826 319.455 168.803 320.185C165.833 321.248 162.069 321.939 158.509 321.939L158.522 321.926ZM150.789 314.09C150.443 314.679 150.174 315.294 150.174 315.512C150.174 316.421 150.494 317.65 151.314 318.149C155.18 320.467 162.862 319.929 168.061 318.06C168.982 317.727 170.378 316.395 171.313 315.358C170.724 314.282 169.815 312.989 169.149 312.72C167.689 312.157 165.769 312.669 163.899 313.181C162.862 313.463 161.876 313.732 160.955 313.822C158.035 314.103 152.62 314.09 150.776 314.09H150.789Z" fill="black"/>
<path d="M173.925 295.065H186.062L191.888 291.159L186.088 287.165H173.95L160.788 283.9L147.626 287.165H134.797L128.997 291.159L134.823 295.065H147.652L160.788 298.829L173.925 295.065Z" fill="#FEBB26"/>
<path d="M160.788 300.007L147.498 296.191H134.477L127 291.172L134.452 286.051H147.498L160.801 282.748L174.104 286.051H186.459L193.911 291.172L186.434 296.191H174.104L160.814 300.007H160.788ZM135.156 293.951H147.806L160.788 297.676L173.771 293.951H185.729L189.903 291.147L185.742 288.291H173.809L160.788 285.052L147.754 288.291H135.13L130.969 291.147L135.143 293.951H135.156Z" fill="black"/>
<path d="M324.928 181.101C323.43 181.101 321.932 181.139 320.447 181.203L321.817 261.904L309.82 208.142C306.696 208.654 303.611 209.32 300.576 210.126L315.928 265.207L282.818 188.86C279.745 190.012 276.723 191.293 273.753 192.688L310.281 269.496L276.416 220.318C273.766 221.893 271.205 223.596 268.734 225.414L301.127 267.703L243.191 213.212C240.874 215.35 238.646 217.604 236.508 219.921L298.31 274.451L249.286 244.747C247.544 247.103 245.931 249.548 244.433 252.083L302.663 283.746L304.904 280.225L305.941 281.186L310.755 276.781L313.111 275.283V275.398L318.283 273.478V273.58L322.752 272.518H327.22L331.804 273.58V273.478L336.976 275.398V275.283L339.332 276.781L344.146 281.186L345.183 280.225L346.835 282.901L345.657 283.337L348.128 288.906L349.549 294.347L416.268 282.351C415.846 279.483 415.282 276.666 414.578 273.913L349.191 288.676L436.395 257.243C435.358 254.388 434.206 251.597 432.938 248.87L354.94 279.675L405.564 252.16C404.066 249.625 402.466 247.167 400.725 244.811L351.777 274.451L413.528 219.985C411.403 217.68 409.175 215.453 406.87 213.327L348.973 267.819L381.289 225.491C378.831 223.685 376.283 221.97 373.646 220.395L343.097 264.746L342.277 264.311L376.309 192.752C373.325 191.344 370.278 190.076 367.193 188.924L335.939 260.994L335.466 260.738L349.537 210.216C346.477 209.397 343.378 208.705 340.241 208.193L329.141 257.435L330.536 181.28C328.68 181.191 326.823 181.139 324.954 181.139L324.928 181.101Z" fill="#FEBB26"/>
<path d="M348.756 295.589L347.36 290.212L331.868 293.707L346.72 288.356L345.107 284.732L338.308 287.421L344.748 283.926L344.185 282.671L342.648 281.275L341.675 281.864L342.495 281.134L338.679 277.652L336.951 276.564L332.201 274.797L327.118 273.619H322.918L319.692 274.387L321.42 280.597L318.821 274.592L317.925 274.809L314.673 276.026L317.374 281.698L313.713 276.384L313.213 276.576L311.485 277.665L307.669 281.147L308.502 281.877L307.529 281.288L305.992 282.696L305.173 281.941L303.086 285.206L242.922 252.48L243.511 251.482C245.009 248.947 246.661 246.45 248.428 244.056L249.03 243.236L288.208 266.974L234.946 219.972L235.727 219.127C238.031 216.631 240.234 214.416 242.474 212.354L243.242 211.65L291.896 257.422L267.185 225.171L268.107 224.492C270.616 222.648 273.241 220.92 275.878 219.345L276.775 218.807L303.278 257.294L272.306 192.15L273.318 191.677C276.301 190.268 279.387 188.962 282.459 187.81L283.458 187.439L310.512 249.83L299.232 209.345L300.32 209.051C303.38 208.232 306.517 207.553 309.667 207.041L310.717 206.874L320.537 250.905L319.333 180.141L320.434 180.102C322.188 180.038 323.623 180 324.954 180C326.772 180 328.667 180.051 330.588 180.141L331.676 180.192L330.46 246.463L339.384 206.887L340.421 207.054C343.519 207.566 346.694 208.257 349.831 209.102L350.919 209.397L339.857 249.1L366.591 187.477L367.59 187.848C370.931 189.103 373.94 190.371 376.795 191.715L377.807 192.189L346.822 257.358L373.338 218.871L374.235 219.409C376.77 220.92 379.381 222.648 381.968 224.556L382.89 225.235L358.179 257.602L406.883 211.765L407.651 212.47C409.956 214.595 412.222 216.861 414.373 219.191L415.154 220.036L361.943 266.987L401.058 243.3L401.659 244.12C403.35 246.411 404.988 248.908 406.563 251.571L407.152 252.57L371.635 271.877L433.553 247.423L434.001 248.383C435.281 251.136 436.446 253.978 437.496 256.846L437.88 257.896L366.604 283.593L415.436 272.569L415.705 273.619C416.409 276.371 416.985 279.239 417.42 282.171L417.574 283.247L348.768 295.615V295.589H348.756ZM349.537 289.713L350.395 293.016L415.013 281.403C414.668 279.303 414.258 277.229 413.772 275.206L349.537 289.713ZM347.194 283.926L348.82 287.587H348.832L434.974 256.526C434.18 254.414 433.31 252.314 432.375 250.252L348.5 283.375L348.525 283.426L347.181 283.913H347.194V283.926ZM344.979 281.941L344.21 282.645L345.196 282.287L344.979 281.941ZM345.952 279.265L347.808 282.261L404.028 251.699C402.876 249.792 401.672 247.973 400.456 246.271L345.964 279.278H345.952V279.265ZM246.021 251.61L302.305 282.223L304.187 279.265L249.606 246.207C248.338 247.973 247.135 249.779 246.008 251.622H246.021V251.61ZM304.699 278.446L305.967 279.624L309.142 276.717L243.204 214.697C241.527 216.272 239.85 217.962 238.134 219.793L304.661 278.497L304.686 278.446H304.699ZM341.035 276.768L344.159 279.624L345.44 278.433L345.465 278.484L411.928 219.857C410.289 218.116 408.599 216.426 406.87 214.8L341.035 276.768ZM335.863 273.209L340.024 275.847L340.83 276.576L379.714 225.657C377.794 224.274 375.861 222.994 373.978 221.842L343.468 266.142L340.805 264.746L374.811 193.239C372.596 192.227 370.291 191.254 367.782 190.294L336.464 262.493L334.134 261.225L348.141 210.933C345.785 210.331 343.417 209.806 341.086 209.397L327.796 268.305L329.371 182.279C327.86 182.215 326.362 182.189 324.928 182.189C323.904 182.189 322.829 182.189 321.587 182.253L323.11 271.34H327.361L330.69 272.108V271.801L335.863 273.721V273.209ZM270.335 225.606L309.347 276.525L310.089 275.847L312.343 274.413L276.096 221.778C274.137 222.968 272.204 224.249 270.322 225.593H270.335V225.606ZM314.25 273.222V273.76L317.861 272.415L282.242 190.268C279.899 191.177 277.569 192.163 275.277 193.213L313.546 273.67L314.263 273.222H314.25ZM319.423 271.839V272.134L322.637 271.365H322.79L308.975 209.41C306.619 209.819 304.277 210.319 301.985 210.908L319.013 271.993L319.436 271.839H319.423Z" fill="black"/>
<path d="M324.928 251.61C298.899 251.61 277.492 270.84 277.492 294.821C277.492 318.802 298.886 338.148 324.928 338.148C350.971 338.148 372.493 318.815 372.493 294.821C372.493 270.828 350.958 251.61 324.928 251.61Z" fill="#FEBB26"/>
<path d="M324.928 339.275C298.156 339.275 276.365 319.34 276.365 294.821C276.365 270.303 298.144 250.483 324.928 250.483C351.713 250.483 373.607 270.367 373.607 294.821C373.607 319.276 351.764 339.275 324.928 339.275ZM324.928 252.736C299.385 252.736 278.605 271.621 278.605 294.834C278.605 318.047 299.385 337.047 324.928 337.047C350.471 337.047 371.366 318.111 371.366 294.834C371.366 271.557 350.535 252.736 324.928 252.736Z" fill="black"/>
<path d="M158.432 428.886H447.841V412.536H158.432V428.886Z" fill="#FEBB26"/>
<path d="M448.968 430H157.319V411.409H448.968V430ZM159.559 427.759H446.728V413.637H159.559V427.759Z" fill="black"/>
<path d="M167.587 411.269C167.792 414.354 168.854 419.284 170.071 420.705C165.359 420.026 165.129 414.354 164.54 411.384L167.574 411.269H167.587ZM176.344 411.269C176.549 414.354 177.612 419.284 178.828 420.705C174.117 420.026 173.886 414.354 173.297 411.384L176.332 411.269H176.344ZM185.102 411.269C185.307 414.354 186.369 419.284 187.586 420.705C182.874 420.026 182.644 414.354 182.055 411.384L185.089 411.269H185.102ZM193.86 411.269C194.064 414.354 195.127 419.284 196.343 420.705C191.632 420.026 191.401 414.354 190.812 411.384L193.847 411.269H193.86ZM202.617 411.269C202.822 414.354 203.885 419.284 205.101 420.705C200.389 420.026 200.159 414.354 199.57 411.384L202.604 411.269H202.617ZM211.375 411.269C211.579 414.354 212.642 419.284 213.858 420.705C209.147 420.026 208.916 414.354 208.327 411.384L211.362 411.269H211.375ZM220.132 411.269C220.337 414.354 221.4 419.284 222.616 420.705C217.904 420.026 217.674 414.354 217.085 411.384L220.119 411.269H220.132ZM228.89 411.269C229.095 414.354 230.157 419.284 231.374 420.705C226.662 420.026 226.431 414.354 225.843 411.384L228.877 411.269H228.89ZM237.647 411.269C237.852 414.354 238.915 419.284 240.131 420.705C235.419 420.026 235.189 414.354 234.6 411.384L237.634 411.269H237.647ZM246.405 411.269C246.61 414.354 247.672 419.284 248.889 420.705C244.177 420.026 243.947 414.354 243.358 411.384L246.392 411.269H246.405ZM255.162 411.269C255.367 414.354 256.43 419.284 257.646 420.705C252.935 420.026 252.704 414.354 252.115 411.384L255.15 411.269H255.162ZM263.92 411.269C264.125 414.354 265.187 419.284 266.404 420.705C261.692 420.026 261.462 414.354 260.873 411.384L263.907 411.269H263.92ZM272.678 411.269C272.882 414.354 273.945 419.284 275.161 420.705C270.45 420.026 270.219 414.354 269.63 411.384L272.665 411.269H272.678ZM281.435 411.269C281.64 414.354 282.703 419.284 283.919 420.705C279.207 420.026 278.977 414.354 278.388 411.384L281.422 411.269H281.435ZM290.193 411.269C290.397 414.354 291.46 419.284 292.676 420.705C287.965 420.026 287.734 414.354 287.145 411.384L290.18 411.269H290.193ZM298.95 411.269C299.155 414.354 300.218 419.284 301.434 420.705C296.722 420.026 296.492 414.354 295.903 411.384L298.937 411.269H298.95ZM307.708 411.269C307.913 414.354 308.975 419.284 310.192 420.705C305.48 420.026 305.249 414.354 304.66 411.384L307.695 411.269H307.708ZM316.465 411.269C316.67 414.354 317.733 419.284 318.949 420.705C314.238 420.026 314.007 414.354 313.418 411.384L316.452 411.269H316.465ZM325.223 411.269C325.428 414.354 326.49 419.284 327.707 420.705C322.995 420.026 322.765 414.354 322.176 411.384L325.21 411.269H325.223ZM333.98 411.269C334.185 414.354 335.248 419.284 336.464 420.705C331.753 420.026 331.522 414.354 330.933 411.384L333.968 411.269H333.98ZM342.738 411.269C342.943 414.354 344.005 419.284 345.222 420.705C340.51 420.026 340.28 414.354 339.691 411.384L342.725 411.269H342.738ZM351.496 411.269C351.7 414.354 352.763 419.284 353.979 420.705C349.268 420.026 349.037 414.354 348.448 411.384L351.483 411.269H351.496ZM360.253 411.269C360.458 414.354 361.521 419.284 362.737 420.705C358.025 420.026 357.795 414.354 357.206 411.384L360.24 411.269H360.253ZM369.011 411.269C369.215 414.354 370.278 419.284 371.494 420.705C366.783 420.026 366.552 414.354 365.963 411.384L368.998 411.269H369.011ZM377.768 411.269C377.973 414.354 379.036 419.284 380.252 420.705C375.54 420.026 375.31 414.354 374.721 411.384L377.755 411.269H377.768ZM386.526 411.269C386.731 414.354 387.793 419.284 389.01 420.705C384.298 420.026 384.067 414.354 383.478 411.384L386.513 411.269H386.526ZM395.283 411.269C395.488 414.354 396.551 419.284 397.767 420.705C393.055 420.026 392.825 414.354 392.236 411.384L395.27 411.269H395.283ZM404.041 411.269C404.246 414.354 405.308 419.284 406.525 420.705C401.813 420.026 401.583 414.354 400.994 411.384L404.028 411.269H404.041ZM412.798 411.269C413.003 414.354 414.066 419.284 415.282 420.705C410.571 420.026 410.34 414.354 409.751 411.384L412.786 411.269H412.798ZM421.556 411.269C421.761 414.354 422.823 419.284 424.04 420.705C419.328 420.026 419.098 414.354 418.509 411.384L421.543 411.269H421.556ZM430.313 411.269C430.518 414.354 431.581 419.284 432.797 420.705C428.086 420.026 427.855 414.354 427.266 411.384L430.301 411.269H430.313ZM439.071 411.269C439.276 414.354 440.339 419.284 441.555 420.705C436.843 420.026 436.613 414.354 436.024 411.384L439.058 411.269H439.071Z" fill="black"/>
<path d="M336.925 370.643C331.266 380.079 339.115 388.504 334.851 395.725C334.851 395.725 325.786 394.099 321.075 393.894C317.81 393.753 312.996 393.753 310.205 395.034C305.224 397.326 300.922 400.462 298.656 403.945C294.533 410.296 299.565 416.172 307.004 413.061C313.661 419.181 321.497 415.263 331.1 411.922C333.071 411.23 335.952 411.973 338.372 412.472C340.894 412.984 343.75 413.394 346.131 412.472C351.79 410.283 355.631 403.843 359.216 393.497L364.798 395.84C364.862 391.423 362.891 388.043 360.317 384.983L366.975 387.224C367.013 382.819 364.862 379.606 362.673 377.186L369.075 379.554C369.075 379.554 368.537 377.263 368.435 373.87C368.371 371.668 368.896 368.454 368.46 366.994C367.718 364.472 366.732 363.473 366.092 361.63C365.579 360.157 364.952 357.123 364.952 357.123C345.67 348.673 349.818 328.763 353.365 320.339L316.645 345.664C309.231 350.491 319.41 367.865 336.912 370.669V370.643H336.925Z" fill="#FEBB26"/>
<path d="M315.159 417.401C312.215 417.401 309.436 416.569 306.799 414.341C303.06 415.686 299.565 415.058 297.542 412.639C295.506 410.206 295.583 406.647 297.734 403.33C299.987 399.861 304.251 396.545 309.744 394.01C312.074 392.934 315.8 392.524 321.139 392.768C325.095 392.947 331.919 394.074 334.262 394.47C335.594 391.654 335.056 388.581 334.429 385.073C333.699 380.963 332.892 376.341 335.222 371.463C328.577 370.067 323.789 366.841 320.883 364.293C316.913 360.81 314.161 356.611 313.341 352.757C312.586 349.197 313.546 346.342 316.056 344.716L355.9 317.24L354.415 320.761C353.519 322.899 350.663 330.504 351.726 338.571C352.789 346.688 357.398 352.578 365.426 356.099L365.951 356.329L366.066 356.892C366.066 356.892 366.68 359.876 367.167 361.271C367.41 361.975 367.718 362.551 368.063 363.217C368.537 364.126 369.087 365.138 369.536 366.687C369.856 367.775 369.753 369.401 369.651 371.117C369.587 372.064 369.536 373.05 369.561 373.844C369.664 377.083 370.163 379.286 370.176 379.311L370.65 381.334L365.912 379.58C367.141 381.577 368.14 384.112 368.102 387.249V388.786L363.352 387.198C364.811 389.503 365.976 392.345 365.925 395.866L365.899 397.53L359.882 395.008C355.977 405.878 351.957 411.435 346.541 413.535C343.903 414.559 340.83 414.137 338.154 413.586C337.898 413.535 337.642 413.484 337.373 413.42C335.299 412.984 332.943 412.485 331.484 412.997C330.421 413.368 329.358 413.752 328.347 414.124C323.61 415.839 319.231 417.427 315.159 417.427V417.401ZM307.247 411.755L307.772 412.242C313.188 417.222 319.538 414.918 327.579 411.998C328.603 411.627 329.666 411.243 330.741 410.859C332.79 410.142 335.466 410.705 337.834 411.205C338.09 411.256 338.346 411.32 338.603 411.371C340.946 411.858 343.634 412.229 345.721 411.422C350.638 409.514 354.364 404.047 358.153 393.126L358.55 391.999L363.595 394.112C363.262 391.282 361.969 388.683 359.459 385.7L356.899 382.653L365.759 385.636C365.311 382.154 363.364 379.606 361.841 377.928L363.057 376.123L367.641 377.813C367.5 376.814 367.359 375.47 367.321 373.895C367.295 372.999 367.359 371.962 367.423 370.963C367.513 369.581 367.602 368.019 367.397 367.302C367.013 365.983 366.54 365.099 366.091 364.254C365.733 363.576 365.349 362.872 365.054 361.988C364.658 360.849 364.209 358.864 364.005 357.904C355.657 354.076 350.651 347.495 349.524 338.865C348.717 332.758 350.01 326.919 351.163 323.232L317.323 346.573C315.147 347.981 315.159 350.465 315.556 352.296C317.016 359.159 325.684 367.711 337.13 369.542L338.769 369.798L337.924 371.219C335.107 375.905 335.901 380.374 336.656 384.689C337.335 388.568 338.039 392.576 335.85 396.289L335.453 396.954L334.685 396.813C334.595 396.801 325.633 395.2 321.062 394.995C316.158 394.778 312.676 395.136 310.704 396.045C305.582 398.401 301.652 401.423 299.629 404.547C298.041 407.005 297.9 409.553 299.283 411.205C300.768 412.984 303.572 413.292 306.62 412.011L307.285 411.729L307.247 411.755Z" fill="black"/>
<path d="M337.668 353.935C335.094 352.987 331.24 350.875 330.395 347.136L333.187 341.311C331.97 347.892 336.387 352.706 337.668 353.935ZM333.455 357.481C330.882 356.534 327.028 354.421 326.183 350.683L328.974 344.857C327.758 351.438 332.175 356.252 333.455 357.481ZM329.909 361.655C327.335 360.708 323.482 358.595 322.636 354.857L325.428 349.031C324.211 355.612 328.629 360.426 329.909 361.655ZM325.389 400.783C325.389 400.783 319.845 400.488 316.58 401C314.417 401.333 312.291 402.114 310.473 403.356C308.386 404.777 305.877 406.595 305.185 409.348C304.878 410.577 305.249 411.819 305.544 412.767C305.838 413.727 306.133 414.482 306.133 414.482L308.604 413.522C308.604 413.522 308.258 412.92 308.015 412.127C307.772 411.346 307.669 410.321 307.785 409.873C308.207 408.157 310.064 406.595 312.01 405.277C316.644 401.615 321.151 402.716 325.402 400.783H325.389ZM344.633 399.81C346.592 397.172 349.921 394.163 351.086 390.514C352.251 386.853 352.661 383.011 351.342 379.9C348.832 380.989 343.698 399.093 344.62 399.81H344.633ZM358.729 370.682C358.076 374.408 351.995 374.305 349.37 373.358C346.733 372.423 344.774 369.209 346.092 366.201C347.142 370.298 353.723 372.205 358.742 370.682H358.729ZM359.702 361.527C359.05 365.253 352.968 365.151 350.343 364.203C347.706 363.269 345.747 360.055 347.065 357.046C348.115 361.143 354.696 363.051 359.715 361.527H359.702Z" fill="black"/>
<path d="M450.786 216.567C451.913 221.662 449.66 225.171 446.728 226.579C442.31 228.691 438.2 227.27 434.513 224.121C429.712 220.024 426.46 214.569 422.183 210.959C416.755 206.388 410.199 205.159 404.566 205.504C398.92 205.85 393.862 208.168 390.239 211.817C382.966 219.115 381.097 232.2 388.715 242.955C395.885 253.082 417.433 260.278 425.602 266.398C432.938 271.89 436.178 275.526 437.586 279.572C438.994 283.618 439.532 288.752 437.355 293.695C434.731 299.648 428.47 302.196 419.136 302.388C406.73 302.631 395.027 292.145 383.056 290.391C360.637 287.101 354.261 295.82 333.43 296.063C292.164 296.55 275.328 284.079 275.328 284.079L230.593 335.869C216.931 340.965 216.214 359.773 230.593 369.901C226.483 372.256 222.411 377.147 220.606 381.245C218.34 386.404 216.483 389.605 213.679 393.344C213.679 393.344 204.64 391.731 199.928 391.526C196.664 391.385 191.798 391.41 189.007 392.704C184.027 394.995 179.75 398.094 177.497 401.589C173.374 407.94 178.393 413.804 185.832 410.68C192.49 416.8 200.312 412.959 209.915 409.604C211.887 408.913 214.793 409.643 217.2 410.142C219.723 410.654 222.603 411.115 224.959 410.142C230.49 407.85 232.987 401.96 236.943 397.838C238.8 395.892 242.461 391.948 242.461 391.948L246.098 396.545C248.556 392.729 248.671 388.914 248.095 385.098L252.679 390.015C255.098 386.212 254.919 382.41 254.317 379.311L258.658 384.228C258.658 384.228 259.375 382.09 261.129 379.094C262.268 377.147 264.471 374.561 264.893 373.102C265.61 370.579 265.828 367.327 265.828 367.327C268.337 369.517 270.245 370.643 273.459 370.221C273.919 365.65 274.252 364.267 275.456 362.411C291.422 361.642 306.287 359.095 319.743 353.96C329.909 350.081 339.332 344.78 347.706 337.687C349.895 335.843 351.649 334.858 353.698 332.771C355.708 330.709 364.056 331.759 368.268 333.308C370.304 334.051 372.852 337.162 372.852 337.162C376.219 345.753 384.183 366.264 406.102 370.656C400.443 380.092 408.253 388.594 403.99 395.802C403.99 395.802 394.95 394.086 390.239 393.882C386.974 393.741 382.224 393.766 379.433 395.059C374.452 397.351 370.061 400.45 367.807 403.945C363.684 410.296 368.703 416.275 376.142 413.151C382.8 419.271 390.623 415.327 400.225 411.973C402.197 411.281 405.104 412.011 407.511 412.511C410.033 413.023 412.888 413.432 415.27 412.511C420.929 410.321 424.834 403.907 428.431 393.574L433.95 395.828C434.014 391.41 432.055 388.082 429.481 385.022L436.178 387.275C436.216 382.871 434.027 379.631 431.837 377.211L438.303 379.567C438.303 379.567 437.701 377.288 437.599 373.895C437.535 371.693 438.034 368.505 437.599 367.045C436.856 364.523 435.883 363.537 435.243 361.694C434.731 360.221 434.18 357.2 434.18 357.2C422.632 351.873 420.084 343.09 419.968 335.152C419.815 324.679 418.073 318.751 410.801 312.413C413.349 312.003 415.974 312.336 418.201 312.362C432.08 312.516 443.45 306.037 446.843 296.511C449.109 290.161 449.135 283.029 446.382 277.588C442.438 269.791 438.264 266.423 430.301 260.47C421.326 253.748 400.597 246.258 395.053 238.422C389.112 230.036 390.841 221.432 395.757 216.477C400.584 211.624 408.484 209.345 417.024 216.054C422.145 220.075 425.256 225.785 429.481 229.319C434.411 233.442 443.002 236.847 450.389 232.533C458.059 228.051 459.07 221.419 458.328 215.786C459.608 211.164 464.038 207.207 471.784 206.849C469.326 202.137 458.033 197.387 453.232 207.233C447.47 199.397 436.459 203.2 434.398 210.664C440.159 209.461 446.472 211.292 450.812 216.643L450.786 216.567Z" fill="#FEBB26"/>
<path d="M384.221 417.44C381.289 417.44 378.524 416.608 375.886 414.393C372.173 415.724 368.691 415.097 366.668 412.677C364.619 410.219 364.683 406.621 366.834 403.292C369.049 399.886 373.338 396.583 378.933 393.997C381.264 392.921 385.079 392.486 390.264 392.716C394.221 392.896 401.019 394.086 403.362 394.509C404.694 391.692 404.156 388.607 403.542 385.086C402.825 380.937 402.018 376.29 404.387 371.386C383.12 366.303 375.259 346.368 371.853 337.687C371.098 336.804 369.216 334.806 367.858 334.307C363.185 332.591 355.81 332.143 354.479 333.501C353.147 334.858 351.957 335.754 350.702 336.701C349.972 337.252 349.217 337.815 348.41 338.507C340.318 345.356 330.805 350.888 320.127 354.959C307.413 359.812 292.997 362.59 276.083 363.461C275.251 364.907 274.957 366.303 274.56 370.298L274.47 371.181L273.599 371.296C270.757 371.68 268.798 370.976 266.711 369.465C266.558 370.618 266.314 372.09 265.943 373.383C265.636 374.472 264.663 375.841 263.638 377.301C263.075 378.108 262.486 378.927 262.076 379.631C260.412 382.474 259.708 384.535 259.708 384.561L259.093 386.392L255.803 382.666C255.841 385.047 255.367 387.813 253.6 390.578L252.819 391.795L249.478 388.197C249.529 390.911 249.017 393.997 247.019 397.095L246.174 398.414L242.372 393.6C241.168 394.893 239.005 397.198 237.724 398.542C236.482 399.835 235.407 401.295 234.254 402.844C231.86 406.083 229.376 409.438 225.356 411.102C222.693 412.203 219.62 411.717 216.944 411.166C216.714 411.115 216.47 411.064 216.227 411.013C214.127 410.564 211.733 410.065 210.248 410.59C209.237 410.949 208.238 411.307 207.252 411.653C199.019 414.623 191.888 417.209 185.563 411.883C181.824 413.228 178.329 412.6 176.319 410.193C174.296 407.773 174.36 404.201 176.511 400.885C178.752 397.428 183.015 394.125 188.495 391.59C190.838 390.514 194.692 390.079 199.941 390.309C203.962 390.489 210.939 391.641 213.154 392.025C215.741 388.517 217.456 385.47 219.543 380.707C221.323 376.674 224.959 372.308 228.595 369.747C221.707 364.293 218.084 356.367 219.07 348.698C219.902 342.232 223.845 337.201 229.888 334.845L275.123 282.479L275.955 283.093C275.955 283.093 280.219 286.192 289.36 289.149C297.811 291.889 312.304 295.103 333.379 294.86C342.213 294.757 348.41 293.106 354.415 291.505C362.532 289.341 370.189 287.293 383.171 289.201C388.664 290.007 394.118 292.606 399.38 295.103C405.795 298.15 412.427 301.313 419.059 301.185C428.47 301.005 433.937 298.457 436.28 293.157C438.508 288.099 437.624 283.132 436.485 279.854C435.153 276 431.901 272.454 424.885 267.217C422.043 265.092 417.382 262.749 412.44 260.265C403.106 255.579 392.518 250.265 387.755 243.518C383.991 238.204 382.262 232.123 382.736 225.926C383.184 220.139 385.553 214.825 389.407 210.946C393.324 207.015 398.663 204.659 404.463 204.301C409.406 204.006 416.614 204.749 422.875 210.024C425.051 211.855 426.908 214.07 428.867 216.413C430.813 218.743 432.836 221.163 435.217 223.186C439.033 226.451 442.643 227.206 446.228 225.491C448.533 224.39 450.645 221.586 449.736 216.989C445.921 212.418 440.287 210.408 434.603 211.599L432.81 211.97L433.297 210.203C434.449 206.029 438.277 202.662 442.81 201.817C446.702 201.1 450.338 202.291 453.027 205.108C455.05 201.971 458.046 200.229 461.618 200.178H461.772C466.624 200.178 471.233 203.264 472.744 206.17L473.551 207.719L471.797 207.796C465.433 208.104 460.837 211.048 459.429 215.709C460.389 223.532 457.534 229.472 450.914 233.339C447.342 235.426 443.13 236.015 438.725 235.029C435.179 234.235 431.632 232.456 428.726 230.023C426.703 228.333 424.975 226.22 423.144 223.98C421.082 221.47 418.957 218.871 416.294 216.771C406.166 208.821 398.599 215.017 396.512 217.104C390.418 223.224 391.826 231.816 395.924 237.603C399.137 242.135 407.908 246.668 416.383 251.046C422.004 253.953 427.33 256.705 430.928 259.394C438.905 265.373 443.258 268.856 447.329 276.909C450.108 282.415 450.313 289.815 447.854 296.716C444.308 306.69 432.605 313.322 418.637 313.322H418.138C417.497 313.322 416.832 313.284 416.14 313.245C415.231 313.207 414.297 313.156 413.375 313.169C419.61 319.404 420.89 325.614 421.031 334.986C421.185 345.139 425.499 351.835 434.59 356.035L435.115 356.278L435.217 356.854C435.217 356.854 435.755 359.812 436.229 361.182C436.472 361.899 436.779 362.462 437.125 363.128C437.599 364.024 438.136 365.048 438.597 366.585C438.917 367.673 438.828 369.299 438.725 371.027C438.674 371.962 438.61 372.935 438.636 373.716C438.738 376.917 439.302 379.119 439.302 379.145L439.839 381.206L434.987 379.439C436.242 381.449 437.253 384.01 437.227 387.147V388.683L432.426 387.083C433.873 389.375 435.038 392.217 434.987 395.712L434.961 397.351L429.008 394.931C425.115 405.763 421.07 411.32 415.59 413.445C412.952 414.469 409.879 414.047 407.203 413.496C406.973 413.445 406.73 413.394 406.486 413.343C404.387 412.895 401.992 412.395 400.507 412.92C399.419 413.304 398.331 413.688 397.294 414.073C392.569 415.788 388.216 417.376 384.157 417.376L384.221 417.44ZM376.347 411.794L376.872 412.28C382.262 417.235 388.587 414.943 396.589 412.037C397.639 411.653 398.728 411.256 399.829 410.872C401.903 410.155 404.617 410.718 406.998 411.217C407.242 411.269 407.472 411.32 407.703 411.358C410.046 411.845 412.734 412.216 414.834 411.409C419.764 409.502 423.617 403.868 427.343 393.139L427.727 392.025L432.708 394.048C432.285 390.501 430.429 387.838 428.598 385.662L426.037 382.614L434.936 385.598C434.488 382.128 432.516 379.567 430.979 377.877L432.196 376.072L436.805 377.749C436.651 376.738 436.498 375.406 436.459 373.844C436.434 372.961 436.485 371.936 436.549 370.951C436.626 369.568 436.715 367.993 436.51 367.276C436.126 365.957 435.653 365.074 435.205 364.229C434.846 363.55 434.475 362.846 434.167 361.975C433.771 360.823 433.361 358.851 433.182 357.891C423.694 353.32 419.008 345.869 418.842 335.088C418.688 325.293 417.344 319.519 410.059 313.169L408.266 311.607L410.622 311.223C412.568 310.902 414.553 311.005 416.294 311.082C416.972 311.12 417.613 311.146 418.214 311.146C431.453 311.299 442.515 305.218 445.793 296.038C448.046 289.7 447.893 282.952 445.383 277.985C441.529 270.367 437.548 267.179 429.635 261.251C426.178 258.664 420.954 255.963 415.41 253.095C406.691 248.588 397.678 243.928 394.157 238.947C387.717 229.844 389.931 220.651 394.976 215.568C399.944 210.575 408.522 207.822 417.728 215.043C420.583 217.296 422.798 219.985 424.923 222.597C426.677 224.748 428.342 226.771 430.198 228.333C435.307 232.609 443.347 235.221 449.826 231.431C455.741 227.975 458.161 222.866 457.214 215.798L457.188 215.568L457.252 215.35C458.699 210.127 463.295 206.644 469.71 205.773C467.956 203.981 464.883 202.444 461.81 202.444H461.682C459.416 202.47 456.292 203.392 454.243 207.579L453.437 209.243L452.336 207.758C450.121 204.749 446.804 203.392 443.245 204.045C440.185 204.608 437.522 206.567 436.165 209.128C442.08 208.552 447.765 210.972 451.683 215.811L451.849 216.016L451.9 216.272C452.988 221.24 451.158 225.657 447.227 227.526C442.823 229.626 438.303 228.743 433.796 224.902C431.274 222.751 429.2 220.267 427.19 217.86C425.295 215.594 423.489 213.443 421.466 211.74C415.769 206.951 409.175 206.273 404.63 206.542C399.38 206.862 394.554 208.987 391.02 212.534C387.537 216.029 385.399 220.843 385.002 226.105C384.567 231.777 386.167 237.359 389.611 242.238C394.054 248.524 404.374 253.697 413.477 258.267C418.509 260.79 423.259 263.184 426.255 265.425C433.655 270.968 437.125 274.81 438.623 279.124C439.891 282.786 440.876 288.356 438.354 294.066C435.665 300.16 429.379 303.22 419.136 303.425C411.966 303.553 405.104 300.288 398.446 297.126C393.081 294.578 388.024 292.171 382.864 291.416C370.329 289.572 362.891 291.556 355.004 293.669C348.871 295.308 342.533 296.998 333.417 297.1C321.574 297.241 304.161 296.332 288.528 291.236C281.384 288.906 277.184 286.537 275.494 285.475L231.22 336.74L230.951 336.842C225.548 338.852 222.027 343.282 221.297 348.993C220.35 356.316 224.153 363.947 231.207 368.915L232.641 369.926L231.118 370.797C227.43 372.91 223.436 377.455 221.605 381.616C219.351 386.737 217.444 390.079 214.55 393.933L214.14 394.483L213.462 394.368C213.372 394.355 204.435 392.768 199.864 392.563C195.037 392.345 191.44 392.716 189.455 393.638C184.347 395.994 180.429 399.003 178.419 402.114C176.831 404.572 176.69 407.12 178.06 408.759C179.545 410.526 182.349 410.833 185.384 409.566L186.05 409.284L186.574 409.771C192.016 414.777 198.418 412.472 206.509 409.54C207.495 409.182 208.507 408.823 209.531 408.465C211.605 407.748 214.307 408.311 216.701 408.81C216.944 408.862 217.175 408.913 217.405 408.951C219.748 409.438 222.437 409.873 224.511 409.015C227.955 407.594 230.145 404.624 232.462 401.487C233.601 399.95 234.779 398.363 236.111 396.967C237.942 395.047 241.578 391.129 241.616 391.09L242.5 390.13L245.918 394.458C247.224 391.82 247.532 388.939 246.955 385.162L246.418 381.59L252.41 388.03C253.921 384.868 253.639 381.808 253.178 379.426L252.41 375.406L258.261 382.038C258.671 381.117 259.285 379.862 260.117 378.428C260.578 377.647 261.193 376.776 261.782 375.931C262.614 374.753 263.562 373.409 263.766 372.692C264.445 370.31 264.663 367.174 264.663 367.148L264.816 364.895L266.519 366.38C268.632 368.223 270.155 369.158 272.409 369.081C272.818 365.227 273.203 363.665 274.483 361.694L274.79 361.207L275.366 361.182C292.292 360.362 306.671 357.622 319.308 352.795C329.755 348.813 339.051 343.398 346.938 336.714C347.795 335.984 348.576 335.408 349.332 334.832C350.523 333.936 351.636 333.104 352.853 331.862C355.465 329.186 364.504 330.62 368.601 332.131C370.854 332.963 373.377 335.984 373.658 336.317L373.774 336.458L373.889 336.74C377.231 345.254 385.053 365.176 406.269 369.427L407.818 369.734L406.998 371.091C404.182 375.777 404.963 380.271 405.718 384.612C406.397 388.504 407.088 392.524 404.899 396.237L404.502 396.916L403.734 396.775C403.644 396.762 394.72 395.072 390.149 394.867C385.399 394.663 381.84 395.034 379.855 395.943C374.644 398.35 370.675 401.359 368.691 404.419C367.09 406.89 366.962 409.476 368.358 411.153C369.843 412.933 372.647 413.253 375.656 411.986L376.321 411.704L376.347 411.794Z" fill="black"/>
<path d="M394.502 305.755C399.47 304.885 404.963 308.009 410.315 309.968C413.503 311.133 416.384 310.749 417.446 311.479L412.619 312.349L418.65 322.963C415.782 317.675 399.905 306.921 394.515 305.755H394.502ZM382.454 335.408C383.709 344.486 386.692 351.489 391.967 356.7C397.242 361.911 404.63 365.279 414.284 367.404C410.942 362.5 399.79 358.838 394.784 354.46C388.024 348.545 386.744 338.507 382.454 335.408ZM411.211 394.253C412.671 391.359 415.41 387.89 415.897 384.112C416.383 380.335 416.089 376.482 414.233 373.614C411.954 375.06 410.161 393.689 411.198 394.253H411.211ZM377.999 330.697C380.073 327.432 375.284 324.026 372.583 323.232C369.881 322.451 366.143 323.808 365.08 326.907C368.729 324.32 375.156 326.638 377.986 330.697H377.999ZM316.235 327.867C318.091 334.499 338.564 343.116 342.725 341.093L348.641 337.713C341.253 341.451 321.907 334.32 316.248 327.867H316.235ZM306.082 329.327C305.775 334.717 329.013 347.648 334.429 346.752L340.523 343.654C332.508 347.853 306.287 332.732 306.082 329.339V329.327ZM300.717 335.715C301.741 342.488 320.524 353.167 324.903 351.592L331.202 348.839C321.395 351.131 304.545 342.348 300.717 335.703V335.715ZM294.879 341.938C294.405 347.123 306.53 355.394 312.24 356.419L318.808 354.268C310.525 355.561 297.235 347.29 294.879 341.938ZM285.622 343.423C284.956 347.84 295.212 358.979 299.795 359.376L306.62 358.032C300.013 359.709 286.301 346.662 285.622 343.423ZM280.232 350.171C279.963 352.59 283.036 359.107 287.645 361.22L294.597 360.605C285.737 359.658 281.051 351.784 280.232 350.171ZM271.999 353.986C272.037 356.521 272.78 360.554 276.301 362.628L283.279 362.385C276.109 361.015 272.806 355.522 271.999 353.986ZM238.211 363.102C238.864 366.828 244.945 366.725 247.57 365.778C250.208 364.843 252.167 361.63 250.848 358.621C249.798 362.718 243.217 364.626 238.198 363.102H238.211ZM238.364 371.77C239.017 375.496 245.099 375.393 247.724 374.446C250.361 373.511 252.32 370.298 251.001 367.289C249.952 371.386 243.371 373.294 238.352 371.77H238.364ZM222.002 398.094C224.844 396.263 229.133 394.509 231.643 391.462C234.152 388.414 236.021 384.945 235.983 381.616C233.217 381.821 221.413 397.121 222.002 398.094ZM394.362 400.565C394.362 400.565 388.818 400.27 385.553 400.783C383.389 401.115 381.264 401.896 379.446 403.138C377.359 404.56 374.849 406.378 374.158 409.13C373.85 410.36 374.222 411.601 374.516 412.549C374.811 413.509 375.105 414.265 375.105 414.265L377.576 413.304C377.576 413.304 377.231 412.703 376.987 411.909C376.744 411.128 376.642 410.103 376.757 409.655C377.179 407.94 379.036 406.378 380.982 405.059C385.617 401.397 390.124 402.498 394.374 400.565H394.362ZM204.627 398.209C204.627 398.209 199.083 397.915 195.819 398.427C193.655 398.76 191.529 399.541 189.711 400.783C187.624 402.204 185.115 404.022 184.423 406.775C184.116 408.004 184.488 409.246 184.782 410.193C185.076 411.153 185.371 411.909 185.371 411.909L187.842 410.949C187.842 410.949 187.496 410.347 187.253 409.553C187.01 408.772 186.907 407.748 187.023 407.3C187.445 405.584 189.302 404.022 191.248 402.703C195.883 399.041 200.389 400.142 204.64 398.209H204.627Z" fill="black"/>
<path d="M281.333 313.373L277.914 315.166C254.702 323.322 236.815 323.053 213.449 315.166L210.12 323.706C207.47 333.36 208.929 341.861 212.553 348.724C214.768 347.763 216.983 345.676 219.198 343.679C220.286 347.008 219.799 351.758 223.628 355.586C227.968 353.371 230.657 350.337 232.27 348.122C233.013 352.68 234.92 356.137 238.748 358.621C242.589 356.15 244.484 352.693 245.227 348.122C246.827 350.337 249.529 354.178 253.869 356.393C257.698 352.565 257.646 350.247 258.85 346.432C260.783 350.401 263.254 352.411 267.595 354.639C271.423 350.811 270.936 346.061 272.025 342.732C273.855 345.433 276.186 347.315 278.67 347.776C280.565 345.305 281.947 341.336 281.934 337.751C285.507 340.299 288.823 341.067 291.076 341.234C291.972 336.56 291.78 332.963 291.05 328.802C294.418 329.851 295.058 330.812 299.193 330.825C301.959 321.568 298.669 311.555 289.053 304.462L281.307 313.373H281.333Z" fill="#FEBB26"/>
<path d="M238.761 359.94L238.16 359.543C234.869 357.417 232.769 354.562 231.694 350.657C229.556 353.115 227.021 355.1 224.153 356.572L223.423 356.944L222.847 356.367C219.876 353.397 219.275 349.876 218.801 347.047C218.724 346.598 218.647 346.163 218.57 345.753C216.765 347.367 214.909 348.916 213.014 349.735L212.066 350.145L211.58 349.236C207.431 341.4 206.561 332.463 209.057 323.399L209.096 323.283L212.809 313.758L213.82 314.103C225.766 318.136 235.906 320.019 245.752 320.057H246.008C255.944 320.057 265.956 318.175 277.479 314.129L280.629 312.477L288.912 302.939L289.745 303.553C299.386 310.659 303.329 320.979 300.295 331.132L300.051 331.926H299.219C296.095 331.926 294.776 331.388 293.099 330.709C292.894 330.633 292.689 330.543 292.472 330.453C293.01 334.384 292.92 337.674 292.203 341.413L292.011 342.386L291.012 342.309C289.028 342.156 286.134 341.567 282.959 339.697C282.588 342.86 281.346 346.112 279.579 348.417L279.156 348.967L278.478 348.839C276.403 348.455 274.368 347.187 272.588 345.216C272.537 345.497 272.486 345.779 272.434 346.074C271.961 348.903 271.359 352.411 268.389 355.394L267.812 355.971L267.083 355.599C263.69 353.871 261.18 352.155 259.196 349.249C258.491 351.784 257.749 354.05 254.65 357.148L254.074 357.725L253.344 357.353C249.913 355.599 247.481 352.923 245.778 350.734C244.689 354.588 242.602 357.417 239.338 359.53L238.736 359.927H238.761V359.94ZM232.949 345.292L233.384 347.956C234.063 352.155 235.778 355.138 238.761 357.277C241.745 355.138 243.46 352.155 244.139 347.956L244.574 345.292L246.29 347.661C247.737 349.671 250.105 352.936 253.677 355.023C256.033 352.475 256.533 350.683 257.198 348.25C257.378 347.584 257.57 346.88 257.813 346.112L258.658 343.449L259.887 345.958C261.487 349.223 263.421 351.131 267.39 353.269C269.387 350.939 269.823 348.314 270.258 345.753C270.463 344.563 270.655 343.449 270.988 342.399L271.692 340.235L272.972 342.117C274.521 344.396 276.365 345.945 278.222 346.522C279.822 344.14 280.846 340.722 280.833 337.764V335.575L282.6 336.842C285.481 338.904 288.183 339.71 290.167 340.005C290.846 335.792 290.577 332.527 289.962 328.994L289.642 327.176L291.396 327.726C292.433 328.059 293.227 328.366 293.919 328.648C295.301 329.211 296.274 329.595 298.361 329.685C300.589 321.03 297.222 312.285 289.22 305.986L282.024 314.27L278.273 316.216C255.611 324.18 237.519 324.282 214.102 316.562L211.183 324.052C208.968 332.169 209.608 340.146 213.052 347.213C214.678 346.266 216.381 344.729 218.033 343.231L219.735 341.695L220.273 343.334C220.619 344.383 220.811 345.497 221.003 346.688C221.438 349.236 221.886 351.861 223.871 354.191C226.803 352.552 229.325 350.286 231.374 347.456L232.949 345.267V345.292Z" fill="black"/>
<path d="M297.747 330.543L292.241 330.21L290.449 333.539C290.359 329.019 287.696 324.961 287.171 322.515C288.413 325.089 292.216 328.033 297.734 330.543H297.747ZM287.338 340.274L282.703 338.609L280.475 341.708C281 337.214 280.219 329.864 280.04 327.38C280.923 330.082 283.253 337.111 287.338 340.274ZM275.136 345.292L272.409 343.628L270.181 346.726C270.706 342.232 269.746 333.308 269.579 330.825C270.463 333.526 273.484 342.284 275.149 345.28H275.136V345.292ZM261.859 349.236L259.131 347.571L256.904 350.67C257.429 346.176 257.685 338.199 257.505 335.715C258.389 338.417 260.194 346.227 261.871 349.236H261.859ZM248.249 350.734L245.521 349.07L243.294 352.168C243.819 347.674 244.075 339.697 243.895 337.214C244.779 339.915 246.584 347.725 248.261 350.734H248.249ZM228.979 351.208L231.707 349.543L233.934 352.642C233.409 348.148 233.153 342.527 233.333 340.043C232.449 342.745 230.644 348.199 228.967 351.208H228.979ZM216.112 346.278L218.839 344.614L221.067 347.712C220.542 343.218 220.286 337.598 220.465 335.114C219.582 337.815 217.776 343.27 216.099 346.278H216.112Z" fill="black"/>
<path d="M207.009 286.678C207.009 286.678 198.443 300.378 196.728 307.458C195.614 312.029 195.767 319.161 195.767 319.161C198.546 319.007 201.337 318.444 204.115 315.947C204.397 319.852 203.974 323.744 206.689 327.649C209.467 326.676 212.898 325.383 215.677 320.62C215.894 325.473 216.88 328.341 219.851 332.912C223.5 331.849 226.355 327.893 229.171 325.306C229.235 328.84 230.196 332.796 233.665 337.892C238.223 335.408 240.861 329.647 241.924 326.382C243.076 329.467 245.624 335.395 250.182 337.892C253.652 332.796 254.625 328.853 254.676 325.306C257.48 327.905 260.348 331.849 263.997 332.912C266.967 328.341 267.953 325.473 268.171 320.62C270.949 325.383 274.38 326.663 277.159 327.649C279.873 323.744 279.438 319.852 279.732 315.947C282.511 318.444 286.326 320.607 289.117 320.774C289.668 320.275 291.844 313.425 290.794 309.34C294.072 311.927 296.863 313.655 301.703 313.527C302.497 309.75 301.818 305.96 301.012 302.542C306.261 304.347 311.958 304.834 316.017 302.887C306.543 286.845 291.563 284.233 275.097 281.467C256.456 296.908 234.088 299.789 207.009 286.691V286.678Z" fill="#FEBB26"/>
<path d="M250.54 339.365L249.644 338.878C246.648 337.239 244.062 334.064 241.962 329.416C240.643 332.412 238.16 336.714 234.203 338.878L233.307 339.365L232.731 338.532C230.196 334.807 228.736 331.35 228.237 327.816C228.083 327.982 227.917 328.149 227.763 328.315C225.599 330.569 223.154 333.129 220.158 334L219.364 334.23L218.916 333.539C216.483 329.8 215.331 327.15 214.832 323.77C212.143 326.932 209.16 327.982 207.047 328.712L206.241 328.994L205.754 328.29C203.36 324.845 203.232 321.453 203.091 318.162V318.124C200.543 319.775 198.021 320.147 195.806 320.275L194.641 320.339L194.615 319.174C194.615 318.879 194.487 311.85 195.614 307.177C197.342 300.007 205.677 286.64 206.036 286.064L206.573 285.219L207.482 285.654C220.529 291.966 232.846 294.655 244.1 293.643C254.881 292.683 265.072 288.279 274.368 280.584L274.765 280.251L275.264 280.341C291.665 283.093 307.145 285.705 316.952 302.299L317.567 303.348L316.465 303.873C312.906 305.576 307.887 305.666 302.484 304.155C303.111 307.215 303.457 310.454 302.766 313.732L302.586 314.603L301.703 314.628C297.491 314.744 294.687 313.502 292.152 311.76C292.177 315.845 290.692 320.812 289.834 321.593L289.489 321.913L289.015 321.888C286.288 321.734 283.138 320.019 280.705 318.213C280.577 321.478 280.424 324.858 278.055 328.29L277.569 328.994L276.762 328.712C274.649 327.97 271.666 326.92 268.977 323.77C268.478 327.15 267.326 329.8 264.893 333.539L264.445 334.23L263.651 334C260.668 333.129 258.21 330.569 256.046 328.315C255.88 328.149 255.726 327.982 255.572 327.816C255.073 331.35 253.613 334.807 251.078 338.532L250.502 339.365H250.54ZM241.847 323.002L242.974 325.998C244.856 331.03 247.173 334.525 249.849 336.369C252.346 332.476 253.498 329.019 253.562 325.294L253.6 322.797L255.431 324.5C256.187 325.191 256.917 325.959 257.685 326.766C259.528 328.686 261.423 330.671 263.523 331.567C266.045 327.547 266.852 324.961 267.044 320.582L267.211 316.792L269.131 320.07C271.487 324.103 274.291 325.422 276.698 326.305C278.273 323.629 278.388 320.928 278.503 318.085C278.529 317.368 278.567 316.613 278.618 315.87L278.785 313.604L280.475 315.128C283.036 317.432 286.211 319.174 288.49 319.583C289.168 317.88 290.513 312.759 289.706 309.622L288.887 306.409L291.486 308.47C294.661 310.979 297.043 312.324 300.756 312.413C301.229 309.161 300.64 305.884 299.911 302.798L299.437 300.826L301.357 301.492C306.312 303.195 310.96 303.489 314.353 302.363C305.134 287.805 290.705 285.244 275.392 282.671C265.841 290.468 255.38 294.924 244.292 295.91C232.885 296.934 220.491 294.322 207.406 288.151C205.536 291.236 199.199 301.927 197.79 307.753C196.996 311.043 196.868 315.793 196.856 317.983C198.955 317.752 201.158 317.112 203.347 315.14L205.037 313.617L205.203 315.883C205.255 316.626 205.293 317.368 205.319 318.098C205.434 320.94 205.536 323.642 207.124 326.318C209.531 325.434 212.335 324.116 214.691 320.083L216.611 316.805L216.778 320.595C216.97 324.973 217.776 327.573 220.299 331.58C222.399 330.671 224.293 328.699 226.137 326.779C226.905 325.972 227.648 325.204 228.39 324.513L230.221 322.81L230.26 325.306C230.324 329.032 231.476 332.489 233.973 336.381C235.688 335.178 238.838 332.246 240.835 326.062L241.821 323.015H241.847V323.002Z" fill="black"/>
<path d="M305.531 304.014L302.266 303.694L301.857 307.382C300.051 303.182 297.273 297.254 295.865 295.116C297.235 297.613 304.328 303.272 309.334 304.014H305.531ZM295.429 312.042L291.076 309.558L291.55 315.217C290.013 310.928 287.606 304.872 286.326 302.67C288.349 304.795 292.548 309.929 295.429 312.055V312.042ZM284.073 319.686L280.244 316.549L279.655 322.195C278.951 317.727 277.722 311.376 276.877 309.02C278.465 311.44 281.64 317.151 284.073 319.686ZM271.692 323.834L268.747 322.502L266.967 325.831C266.865 321.312 266.506 314.884 265.981 312.439C267.236 315.012 269.617 321.043 271.692 323.834ZM244.51 329.596L241.988 327.675L239.401 330.53C240.464 326.113 241.757 319.455 241.885 316.971C242.436 319.737 243.204 326.433 244.51 329.596ZM258.107 327.803L255.162 326.472L253.383 329.8C253.28 325.281 252.922 318.853 252.397 316.408C253.652 318.981 256.033 325.012 258.107 327.803ZM225.599 328.469L228.544 327.137L230.324 330.466C230.426 325.947 230.785 319.519 231.31 317.074C230.055 319.647 227.673 325.678 225.599 328.469ZM212.13 324.026L215.075 322.694L216.855 326.023C216.957 321.504 218.045 313.425 218.57 310.979C217.315 313.553 214.217 321.235 212.13 324.013V324.026ZM200.671 317.752L203.769 316.754L205.101 320.249C205.792 315.781 207.06 310.262 207.892 307.894C206.317 310.314 203.091 315.204 200.671 317.752Z" fill="black"/>
<path d="M280.193 273.056C283.176 273.875 284.405 272.902 287.862 273.376C286.019 266.193 285.481 263.658 279.233 258.805C283.842 260.022 284.546 258.895 287.466 259.177C280.961 248.383 282.152 237.449 272.447 231.867C275.481 224.53 273.497 223.045 270.859 216.387C270.206 214.723 270.539 211.087 270.539 211.087C270.539 211.087 262.23 212.636 259.234 216.003C257.505 217.95 255.329 220.677 255.329 220.677C256.007 216.592 255.559 214.8 252.102 212.15C250.643 213.968 248.991 218.026 247.263 219.601C246.674 215.901 245.867 212.739 242.525 210.37C239.606 212.931 237.929 215.799 237.788 219.601C236.047 218.014 234.395 213.955 232.948 212.15C229.492 214.8 229.031 216.592 229.722 220.677C229.722 220.677 227.545 217.95 225.817 216.003C222.821 212.636 214.511 211.087 214.511 211.087C214.511 211.087 214.601 214.659 214.191 216.387C213.231 220.382 208.507 225.568 212.604 231.867C200.837 239.318 203.398 249.318 196.907 260.111C199.839 259.83 200.389 261.276 204.999 260.06C198.75 264.9 198.315 265.886 196.471 273.056C198.738 272.236 200.658 272.889 205.075 271.762C203.577 274.963 200.351 277.306 198.546 278.817C194.103 282.568 192.272 286.32 191.171 290.66C194.09 290.699 196.996 289.764 199.916 289.009C198.917 292.466 198.418 295.013 199.608 299.994C203.987 298.394 206.151 296.703 208.955 295.052C208.596 298.253 208.404 302.017 209.557 305.218C212.476 304.437 215.382 302.695 218.301 299.725C218.237 303.912 219.492 306.882 221.016 309.609C223.692 308.086 226.393 306.562 228.557 304.667C229.428 307.638 229.632 310.211 232.782 314.551C237.583 312.605 238.569 309.776 240.323 307.138C240.989 309.584 242.18 312.26 245.688 315.998C250.284 312.977 250.054 309.942 251.347 306.921C252.397 309.097 254.612 312.925 258.082 314.526C260.694 311.824 261.103 308.15 261.846 305.948C264.202 308.623 266.942 310.954 270.731 312.324C272.703 308.726 272.767 305.704 272.614 302.759C275.93 306.242 279.259 307.228 282.575 308.15C283.407 304.885 283.176 301.607 282.575 298.342C286.07 300.852 289.578 302.043 293.073 301.287C293.253 297.677 292.088 294.975 290.922 291.966C294.443 292.581 297.811 292.901 300.615 292.209C300.615 292.209 298.694 287.92 296.313 285.833C293.227 283.145 289.066 281.186 285.993 278.484C284.213 276.922 280.219 273.03 280.219 273.03L280.193 273.056Z" fill="#FEBB26"/>
<path d="M245.496 317.47L244.856 316.779C242.193 313.937 240.81 311.658 240.003 309.75C238.723 311.811 237.097 314.026 233.179 315.614L232.359 315.947L231.847 315.23C229.184 311.542 228.518 309.046 227.904 306.639C226.035 308.047 223.909 309.251 221.848 310.429L220.568 311.158L220.017 310.173C218.788 307.958 217.636 305.474 217.277 302.209C214.883 304.245 212.386 305.627 209.825 306.306L208.827 306.575L208.481 305.615C207.508 302.913 207.431 299.879 207.61 297.19C205.549 298.47 203.424 299.802 199.967 301.069L198.789 301.505L198.494 300.275C197.457 295.961 197.662 293.285 198.302 290.596C195.972 291.211 193.565 291.825 191.12 291.787H189.698L190.044 290.391C190.992 286.678 192.643 282.299 197.777 277.972C198.021 277.767 198.29 277.549 198.571 277.319C199.839 276.282 201.452 274.963 202.694 273.388C201.542 273.555 200.594 273.619 199.762 273.67C198.571 273.734 197.713 273.785 196.804 274.118L194.807 274.848L195.332 272.799C196.881 266.794 197.573 264.848 201.196 261.673C200.479 261.635 199.903 261.519 199.352 261.417C198.597 261.263 197.931 261.135 196.958 261.238L194.743 261.443L195.882 259.548C198.213 255.681 199.339 251.917 200.44 248.268C202.284 242.148 204.025 236.348 211.042 231.534C208.481 226.72 210.402 222.443 211.836 219.255C212.348 218.129 212.821 217.066 213.039 216.131C213.346 214.838 213.359 212.073 213.334 211.125L213.295 209.742L214.652 209.998C215.011 210.062 223.371 211.663 226.585 215.273C227.136 215.901 227.737 216.605 228.301 217.271C228.48 215.081 229.53 213.327 232.206 211.279L233.076 210.613L233.755 211.471C234.421 212.303 235.087 213.481 235.778 214.736C236.162 215.427 236.572 216.157 236.982 216.823C237.647 214.121 239.197 211.765 241.719 209.55L242.385 208.974L243.102 209.486C246.021 211.548 247.173 214.172 247.826 216.989C248.274 216.285 248.709 215.491 249.132 214.736C249.836 213.481 250.489 212.303 251.155 211.471L251.834 210.613L252.704 211.279C255.38 213.327 256.43 215.081 256.609 217.271C257.173 216.605 257.762 215.901 258.325 215.273C261.539 211.663 269.899 210.062 270.258 209.998L271.717 209.73L271.576 211.202C271.461 212.508 271.423 214.953 271.82 215.978C272.281 217.13 272.716 218.141 273.113 219.025C274.944 223.186 275.981 225.58 273.753 231.406C279.489 235.106 281.371 240.791 283.356 246.783C284.623 250.624 285.942 254.606 288.336 258.587L289.476 260.482L287.261 260.278C286.288 260.188 285.583 260.278 284.828 260.354C284.239 260.418 283.612 260.495 282.831 260.495C286.531 264.08 287.286 267.012 288.72 272.607L289.258 274.694L287.606 274.477C286.16 274.284 285.135 274.361 284.137 274.438C283.829 274.464 283.522 274.489 283.202 274.502C284.393 275.629 285.75 276.922 286.595 277.665C288.08 278.958 289.885 280.136 291.639 281.262C293.445 282.427 295.314 283.618 296.902 285.014C299.45 287.242 301.408 291.595 301.498 291.774L302.049 293.003L300.743 293.323C298.156 293.951 295.16 293.771 292.536 293.4C293.458 295.833 294.213 298.278 294.059 301.364L294.021 302.222L293.189 302.401C290.205 303.054 287.158 302.478 283.932 300.634C284.277 303.592 284.149 306.063 283.535 308.444L283.253 309.558L282.152 309.251C279.515 308.521 276.595 307.701 273.651 305.358C273.574 307.625 273.126 310.083 271.589 312.887L271.128 313.732L270.232 313.399C267.313 312.336 264.752 310.659 262.268 308.175C261.705 310.301 260.911 313.105 258.76 315.332L258.21 315.896L257.493 315.563C254.842 314.346 252.858 311.991 251.462 309.712C250.758 311.978 249.875 314.526 246.187 316.946L245.406 317.458H245.496V317.47ZM240.733 304.501L241.386 306.882C241.936 308.905 242.871 311.235 245.841 314.551C248.325 312.669 248.876 310.877 249.503 308.815C249.734 308.073 249.964 307.305 250.297 306.524L251.27 304.257L252.333 306.472C253.229 308.342 255.086 311.542 257.8 313.156C259.208 311.376 259.784 309.187 260.258 307.394C260.425 306.754 260.591 306.152 260.77 305.615L261.385 303.784L262.665 305.23C265.098 307.983 267.441 309.776 270.181 310.941C271.602 307.932 271.615 305.384 271.487 302.849L271.333 299.84L273.42 302.03C276.211 304.962 279.002 305.999 281.73 306.792C282.152 304.424 282.062 301.837 281.474 298.585L280.974 295.858L283.228 297.472C286.39 299.738 289.258 300.685 291.972 300.378C291.934 297.651 291.063 295.461 290.09 292.952L289.156 290.57L291.114 290.916C293.47 291.326 296.389 291.723 298.95 291.428C298.233 290.071 296.966 287.959 295.57 286.729C294.098 285.449 292.305 284.297 290.564 283.17C288.746 281.992 286.851 280.789 285.251 279.38C283.471 277.818 279.604 274.054 279.438 273.888L280.513 272.005C281.96 272.402 282.895 272.326 284.098 272.236C284.777 272.185 285.519 272.134 286.403 272.159C284.866 266.231 284.047 263.978 278.567 259.727L279.54 257.755C282.229 258.459 283.432 258.319 284.7 258.178C284.982 258.139 285.263 258.114 285.571 258.088C283.624 254.439 282.421 250.803 281.345 247.525C279.323 241.405 277.581 236.13 271.922 232.878L271.064 232.392L271.436 231.483C273.753 225.875 272.998 224.146 271.167 219.972C270.77 219.063 270.322 218.039 269.848 216.848C269.387 215.683 269.336 213.852 269.361 212.546C266.596 213.225 261.961 214.697 260.092 216.81C258.402 218.705 256.251 221.419 256.225 221.445L253.536 224.825L254.253 220.561C254.804 217.309 254.625 215.824 252.358 213.839C251.987 214.428 251.59 215.133 251.181 215.875C250.195 217.642 249.183 219.46 248.031 220.497L246.494 221.893L246.162 219.844C245.662 216.746 245.035 213.993 242.589 211.893C240.17 214.236 239.017 216.682 238.915 219.703L238.825 222.11L237.046 220.484C235.906 219.447 234.882 217.616 233.896 215.862C233.486 215.133 233.089 214.428 232.718 213.827C230.452 215.811 230.273 217.296 230.823 220.548L231.54 224.812L228.851 221.432C228.851 221.432 226.675 218.705 224.985 216.797C223.103 214.672 218.404 213.186 215.638 212.521C215.625 213.763 215.549 215.555 215.28 216.695C215.011 217.821 214.486 218.986 213.935 220.203C212.412 223.608 210.824 227.129 213.538 231.303L214.153 232.251L213.193 232.853C206.125 237.334 204.499 242.711 202.63 248.946C201.644 252.211 200.633 255.579 198.789 259.074C199.16 259.125 199.493 259.189 199.826 259.253C201.017 259.484 202.131 259.701 204.704 259.023L205.677 260.995C200.236 265.22 199.455 266.244 198.008 271.609C198.546 271.545 199.083 271.506 199.672 271.481C201.029 271.404 202.566 271.314 204.794 270.738L207.085 270.149L206.087 272.287C204.678 275.296 201.887 277.575 200.031 279.099C199.749 279.329 199.493 279.534 199.263 279.739C195.895 282.568 193.924 285.487 192.656 289.546C194.461 289.367 196.279 288.88 198.2 288.381C198.674 288.253 199.16 288.125 199.634 288.01L201.529 287.523L200.991 289.405C200.133 292.376 199.647 294.578 200.428 298.573C203.001 297.523 204.704 296.46 206.509 295.333C207.111 294.949 207.738 294.565 208.391 294.181L210.325 293.042L210.081 295.269C209.787 297.856 209.582 301.082 210.312 303.912C212.796 303.041 215.164 301.441 217.52 299.034L219.479 297.023L219.428 299.827C219.377 303.323 220.311 305.922 221.464 308.162C223.73 306.869 226.009 305.512 227.814 303.924L229.133 302.759L229.632 304.449C229.799 305.013 229.94 305.563 230.08 306.101C230.631 308.252 231.169 310.288 233.166 313.258C236.188 311.824 237.327 309.968 238.518 308.009C238.8 307.561 239.081 307.087 239.389 306.626L240.746 304.577V304.501H240.733Z" fill="black"/>
<path d="M217.751 216.938C217.751 216.938 218.007 219.422 217.636 220.689C216.919 223.109 215.664 225.145 215.523 227.641C215.433 229.344 217.29 232.558 217.29 232.558C217.29 232.558 218.493 228.615 220.465 227.846C222.424 227.078 226.457 228.922 226.457 228.922C226.457 228.922 226.201 225.286 225.638 223.89C224.383 220.766 217.764 216.938 217.764 216.938H217.751ZM266.852 216.938C266.852 216.938 260.245 220.766 258.978 223.89C258.415 225.286 258.159 228.922 258.159 228.922C258.159 228.922 262.192 227.091 264.151 227.846C266.122 228.615 267.326 232.558 267.326 232.558C267.326 232.558 269.182 229.344 269.093 227.641C268.952 225.132 267.812 223.109 267.095 220.689C266.724 219.434 266.865 216.938 266.865 216.938H266.852ZM215.754 238.025C212.822 239.818 211.797 242.852 212.578 245.515C213.18 247.564 215.101 249.164 217.636 250.112C217.508 250.227 217.533 250.201 217.405 250.329C216.407 251.238 215.254 252.455 214.819 253.965C213.026 260.29 214.204 266.449 218.109 270.443C216.048 273.209 212.169 279.367 210.479 282.863C213.884 280.084 217.392 275.078 219.991 272.057C221.144 272.889 222.463 273.529 223.871 274.092C222.424 276.845 219.531 284.105 218.468 288.01C221.553 284.438 224.281 278.177 226.342 274.95C227.353 275.219 228.429 275.334 229.517 275.488C228.711 277.793 229.005 280.212 230.337 282.235C228.877 284.834 225.83 292.401 224.703 296.358C227.61 293.067 230.183 287.51 232.219 284.156C233.397 285.103 234.831 285.82 236.559 286.294C235.906 289.649 235.151 296.665 235.151 300.416C237.071 296.562 238.083 290.532 239.145 286.819C239.875 286.896 240.579 287.037 241.373 287.037C241.834 287.037 242.231 286.96 242.666 286.934C243.409 290.724 243.908 296.639 245.483 300.531C245.765 296.857 245.624 290.084 245.253 286.614C246.571 286.332 247.737 285.872 248.774 285.334C250.438 288.829 252.307 294.949 254.881 298.598C254.215 294.501 252.128 286.46 251.001 283.836C251.321 283.541 251.68 283.298 251.936 282.978C253.344 281.301 253.831 279.175 253.575 277.088C257.07 279.944 262.793 285.014 266.609 287.254C264.343 284.066 258.095 277.805 255.214 275.155C258.171 274.528 260.937 273.478 263.088 271.839C266.404 274.605 273.177 282.479 277.3 284.898C274.893 281.518 267.403 272.569 264.842 270.136C268.529 266.141 269.643 260.149 267.902 253.978C267.467 252.455 266.314 251.251 265.316 250.342C265.188 250.227 265.213 250.24 265.085 250.124C267.607 249.164 269.528 247.576 270.143 245.528C270.936 242.865 269.899 239.83 266.967 238.038C267.8 240.394 268.401 242.263 267.672 244.99C267.211 246.731 265.521 248.255 262.499 248.626L259.208 249.049L261.91 250.765C261.91 250.765 262.589 251.277 263.434 252.045C264.279 252.813 265.239 253.914 265.431 254.618C267.044 260.303 265.431 265.13 262.025 268.536C258.619 271.941 253.216 274.297 247.109 273.452C242.871 272.863 242.756 271.903 242.769 268.42C243.563 268.344 244.548 268.139 245.47 267.665C246.315 267.243 246.648 266.794 246.994 266.385C247.34 265.962 247.621 265.668 247.698 265.629C248.799 265.156 250.515 265.309 250.515 265.309L251.923 265.629L252.038 264.234C252.128 263.03 252.423 262.249 251.45 260.277C250.656 258.677 249.465 257.717 248.633 257.179C248.223 256.91 247.98 256.782 247.813 256.641C247.647 256.5 247.609 256.436 247.583 256.321C246.495 252.314 246.162 248.844 247.224 245.502C247.865 243.505 250.041 241.815 252.858 241.431C255.905 241.034 259.605 241.879 261.321 242.186C259.631 240.266 256.34 238.409 252.154 239.088C248.722 239.638 245.624 241.764 244.638 244.862C243.422 248.69 243.87 252.723 244.997 256.859C245.163 257.486 245.534 258.011 245.931 258.357C246.328 258.703 246.751 258.971 247.109 259.215C247.826 259.688 248.543 260.111 249.107 261.251C249.593 262.236 249.401 262.198 249.337 263.056C248.492 262.992 247.98 262.377 246.635 262.953C245.752 263.337 245.253 263.99 244.869 264.451C244.484 264.912 244.139 265.271 244.28 265.207C243.908 265.386 243.14 265.565 242.513 265.629C241.885 265.693 241.335 265.629 241.335 265.629C241.335 265.629 240.784 265.693 240.157 265.629C239.53 265.565 238.761 265.386 238.39 265.207C238.531 265.271 238.185 264.925 237.801 264.451C237.417 263.99 236.93 263.337 236.034 262.953C234.69 262.377 234.178 262.992 233.333 263.056C233.269 262.198 233.089 262.224 233.563 261.251C234.126 260.111 234.843 259.688 235.56 259.215C235.919 258.984 236.329 258.703 236.738 258.357C237.148 258.011 237.507 257.486 237.673 256.859C238.787 252.736 239.248 248.69 238.032 244.862C237.046 241.764 233.934 239.638 230.516 239.088C226.329 238.409 223.039 240.266 221.349 242.186C223.064 241.879 226.764 241.034 229.812 241.431C232.628 241.802 234.818 243.492 235.445 245.502C236.508 248.844 236.175 252.314 235.087 256.321C235.061 256.436 235.023 256.5 234.856 256.641C234.69 256.782 234.447 256.91 234.037 257.179C233.205 257.717 232.001 258.677 231.22 260.277C230.247 262.249 230.541 263.017 230.631 264.234L230.746 265.629L232.155 265.309C232.155 265.309 233.87 265.156 234.972 265.629C235.048 265.655 235.33 265.962 235.676 266.385C236.021 266.807 236.367 267.243 237.199 267.665C238.121 268.126 239.107 268.331 239.901 268.42C240.157 272.108 239.504 272.799 235.56 273.452C229.479 274.451 224.05 271.929 220.644 268.536C217.239 265.143 215.625 260.316 217.239 254.618C217.431 253.914 218.391 252.826 219.236 252.045C220.081 251.264 220.76 250.765 220.76 250.765L223.461 249.049L220.171 248.626C217.149 248.242 215.472 246.731 214.998 244.99C214.268 242.263 214.883 240.394 215.702 238.038H215.754V238.025ZM228.915 244.107C227.904 244.107 226.688 244.44 225.279 245.067C225.766 247.794 228.928 251.417 234.331 248.486C233.473 246.386 231.975 244.068 228.928 244.094H228.915V244.107ZM253.818 244.107C250.771 244.081 249.273 246.399 248.415 248.498C253.818 251.417 256.981 247.807 257.467 245.08C256.059 244.452 254.842 244.132 253.831 244.12H253.818V244.107ZM241.36 273.849C241.706 274.041 242.039 274.233 242.884 274.605C244.062 275.117 245.419 275.565 246.879 275.68C248.146 275.782 249.388 275.834 250.643 275.782C251.488 277.639 251.181 278.97 249.824 280.597C248.325 282.389 245.56 283.695 241.36 283.695C237.161 283.695 234.28 282.376 232.782 280.597C231.425 278.97 231.22 277.639 232.078 275.782C233.32 275.834 234.562 275.782 235.842 275.68C237.302 275.565 238.659 275.129 239.837 274.605C240.682 274.233 241.028 274.041 241.36 273.849ZM208.584 278.983C204.166 282.095 200.223 288.035 195.665 289.469L199.775 288.932L200.249 292.888C202.425 284.348 206.83 284.796 208.584 278.97V278.983ZM216.688 280.712C212.822 284.374 208.75 294.847 204.474 296.87L208.468 295.692L209.531 299.546C210.325 290.814 215.894 286.704 216.701 280.712H216.688ZM280.36 282.21C281.55 287.101 289.386 288.804 291.396 296.332L291.87 292.478L296.684 292.696C287.991 288.842 288.029 288.023 280.36 282.21ZM271.308 282.632C271.5 287.638 281.755 295.013 282.229 302.746L283.522 299.11L287.286 300.711C282.498 296.729 274.893 285.539 271.308 282.619V282.632ZM222.206 288.957C219.082 293.169 217.815 299.456 213.987 302.119L217.623 300.403L219.505 304.04C218.634 295.308 222.539 294.975 222.206 288.944V288.957ZM266.02 289.29C265.815 294.296 272.626 298.483 271.308 307.164L273.305 303.63L276.941 305.55C273.254 302.721 269.362 292.414 266.02 289.277V289.29ZM257.8 290.801C256.468 296.716 262.102 301.453 259.797 309.955L262.153 306.536L265.559 308.79C262.204 305.627 260.194 295.41 257.8 290.814V290.801ZM230.311 294.207C227.917 298.803 228.263 304.859 224.908 308.009L228.314 305.755L230.67 309.071C228.365 300.557 231.643 300.109 230.311 294.194V294.207ZM248.876 294.975C247.058 300.775 251.885 302.708 248.876 311.03L251.578 307.932L254.638 310.288C251.552 306.908 250.886 299.725 248.876 294.988V294.975ZM240.771 298.381C238.774 303.131 240.208 306.882 237.135 310.262L240.311 307.804L242.897 311.018C239.888 302.695 242.602 304.193 240.784 298.393H240.771V298.381Z" fill="black"/>
</g>
<defs>
<clipPath id="clip0_7_2">
<rect width="600" height="600" rx="300" fill="white"/>
</clipPath>
</defs>
</svg>
