<svg width="1051" height="601" viewBox="0 0 1051 601" fill="none" xmlns="http://www.w3.org/2000/svg">
<rect width="1050.01" height="600.01" fill="#FBFFF1"/>
<rect y="400" width="1050" height="200" fill="#AD0004"/>
<rect width="1050" height="200" fill="#124A3F"/>
<path d="M408.9 302C408.9 302 406.07 271.46 412.16 252.72C416.36 239.79 422.85 229.19 433.34 220.55C449.73 207.05 475.04 203.49 492.8 211.59C477.25 212.4 456.43 217.65 445.15 227.07C436.51 234.28 429.76 244.42 426.42 255.17C420.74 273.45 423.57 302.82 423.57 302.82L408.91 302.01L408.9 302Z" fill="#FEBB26"/>
<path d="M424.53 303.74L408.1 302.83L408.03 302.08C408 301.77 405.26 271.14 411.33 252.45C415.84 238.57 422.66 228.21 432.78 219.87C440.78 213.28 451.31 208.74 462.42 207.1C473.45 205.47 484.37 206.78 493.16 210.79L496.41 212.27L492.84 212.46C478.02 213.24 456.96 218.35 445.71 227.73C437.25 234.79 430.52 244.88 427.25 255.42C421.69 273.32 424.41 302.43 424.43 302.72L424.53 303.73V303.74ZM409.71 301.17L422.61 301.89C422.18 296.54 420.51 271.23 425.58 254.91C428.95 244.06 435.88 233.67 444.59 226.4C449.89 221.98 457.68 218.13 467.12 215.27C474.14 213.14 481.77 211.66 488.98 210.99C481.17 208.23 471.98 207.46 462.69 208.83C451.89 210.43 441.67 214.83 433.9 221.22C424.04 229.34 417.4 239.43 413 252.99C407.57 269.72 409.34 296.37 409.72 301.17H409.71Z" fill="black"/>
<path d="M419.98 252.06C414.73 267.91 414.73 285.39 415.25 300.41L417.2 300.33C416.68 285.38 416.8 268.14 421.85 252.67C426.9 237.2 436.8 223.5 456.1 215.35C433.06 220.53 422.68 243.89 419.97 252.06H419.98Z" fill="black"/>
<path d="M408.78 290.51H422.79V321.93H408.78V290.51Z" fill="#FEBB26"/>
<path d="M423.67 322.8H407.91V289.63H423.67V322.8ZM409.66 321.05H421.92V291.38H409.66V321.05Z" fill="black"/>
<path d="M464.84 349.8C456.42 341.98 455.79 347.9 438.94 325.2C438.94 325.2 431.58 327.45 427.75 327.6C425.75 327.68 423.7 327.42 421.82 326.8C418.36 325.67 412.38 321.6 412.38 321.6L410.84 308.4C410.84 308.4 407.8 307.91 406.89 306.6C406.11 305.47 406.1 303.72 406.89 302.6C408.02 300.99 409.77 300.61 411.94 300C416 298.86 420.53 298.94 424.67 299.8C428.34 300.56 431.19 302.33 434.77 303.4C445.77 306.69 469.01 308.8 469.01 308.8L464.84 349.79V349.8Z" fill="#FEBB26"/>
<path d="M465.53 351.63L464.24 350.44C461.58 347.97 459.77 346.94 457.85 345.84C453.9 343.59 449.81 341.26 438.6 326.21C436.75 326.75 431.08 328.34 427.77 328.47C425.63 328.55 423.47 328.26 421.54 327.63C418 326.47 412.13 322.49 411.88 322.32L411.55 322.1L410.04 309.14C408.98 308.9 406.99 308.3 406.17 307.11C405.18 305.68 405.18 303.53 406.17 302.11C407.4 300.36 409.18 299.87 411.24 299.3L411.69 299.17C415.57 298.08 420.24 298.01 424.83 298.96C427.02 299.41 428.94 300.22 430.8 300.99C432.14 301.55 433.53 302.13 435 302.57C445.8 305.8 468.84 307.91 469.07 307.94L469.95 308.02L465.51 351.64H465.53V351.63ZM439.27 324.17L439.64 324.67C450.91 339.86 454.88 342.12 458.72 344.31C460.33 345.23 461.99 346.18 464.14 348L468.05 309.58C463.65 309.16 444.4 307.19 434.52 304.23C432.95 303.76 431.53 303.16 430.14 302.58C428.28 301.8 426.52 301.06 424.49 300.64C420.17 299.75 415.79 299.81 412.17 300.83L411.71 300.96C409.83 301.48 408.47 301.86 407.6 303.09C407.02 303.91 407.03 305.26 407.6 306.09C408.08 306.78 409.86 307.34 410.97 307.52L411.62 307.63L411.7 308.29L413.19 321.09C414.48 321.94 419.23 325.03 422.08 325.96C423.82 326.53 425.76 326.79 427.7 326.72C431.37 326.58 438.6 324.38 438.67 324.36L439.26 324.18H439.27V324.17Z" fill="black"/>
<path d="M407.99 319.2C407.99 319.2 413.63 319.26 416.33 319C418.29 318.81 419.94 317.78 422.04 318.6C423.29 319.09 424.45 321.6 424.45 321.6C424.45 321.6 422.55 323.9 421.16 324.4C417.28 325.79 411.91 326.09 408.43 324C407.5 323.44 407.13 322.22 407.11 321.2C407.11 320.48 407.99 319.2 407.99 319.2Z" fill="#FEBB26"/>
<path d="M414.73 326.38C412.31 326.38 409.9 325.91 407.97 324.75C406.71 323.99 406.25 322.43 406.23 321.21C406.22 320.28 407.02 319.06 407.26 318.7L407.52 318.32H407.98C408.04 318.32 413.61 318.38 416.23 318.13C416.79 318.08 417.34 317.94 417.91 317.8C419.19 317.48 420.65 317.13 422.34 317.79C423.84 318.38 425.01 320.76 425.23 321.24L425.46 321.74L425.11 322.16C424.9 322.41 423.02 324.66 421.44 325.23C419.48 325.93 417.1 326.39 414.72 326.39H414.73V326.38ZM408.46 320.07C408.19 320.53 407.98 321.01 407.98 321.18C407.98 321.89 408.23 322.85 408.87 323.24C412.18 325.23 417.41 324.81 420.86 323.57C421.58 323.31 422.67 322.27 423.4 321.46C422.94 320.62 422.23 319.61 421.71 319.4C420.54 318.94 419.52 319.19 418.34 319.48C417.73 319.63 417.1 319.79 416.41 319.85C414.13 320.07 409.9 320.07 408.46 320.06V320.07Z" fill="black"/>
<path d="M407.77 314.2C407.77 314.2 413.41 314.26 416.11 314C418.07 313.81 420.81 312.38 422.91 313.2C424.16 313.69 425.32 316.2 425.32 316.2C425.32 316.2 423.42 318.5 422.03 319C418.15 320.39 411.68 321.09 408.2 319C407.27 318.44 406.9 317.22 406.88 316.2C406.88 315.48 407.76 314.2 407.76 314.2H407.77Z" fill="#FEBB26"/>
<path d="M414.29 321.19C411.81 321.19 409.45 320.77 407.76 319.75C406.5 318.99 406.04 317.43 406.02 316.21C406.01 315.28 406.81 314.06 407.05 313.7L407.31 313.32H407.77C407.83 313.32 413.4 313.38 416.02 313.13C416.6 313.07 417.29 312.89 418.03 312.69C419.68 312.24 421.55 311.74 423.22 312.39C424.72 312.98 425.89 315.36 426.11 315.84L426.34 316.34L425.99 316.76C425.78 317.01 423.9 319.26 422.32 319.83C420 320.66 417.06 321.2 414.28 321.2L414.29 321.19ZM408.25 315.07C407.98 315.53 407.77 316.01 407.77 316.18C407.77 316.89 408.02 317.85 408.66 318.24C411.68 320.05 417.68 319.63 421.74 318.17C422.45 317.91 423.55 316.87 424.28 316.06C423.82 315.22 423.11 314.21 422.59 314C421.45 313.56 419.95 313.96 418.49 314.36C417.68 314.58 416.91 314.79 416.19 314.86C413.91 315.08 409.68 315.08 408.24 315.07H408.25Z" fill="black"/>
<path d="M407.77 308.6C407.77 308.6 413.41 308.66 416.11 308.4C418.07 308.21 420.81 306.78 422.91 307.6C424.16 308.09 425.32 310.6 425.32 310.6C425.32 310.6 423.42 312.9 422.03 313.4C418.15 314.79 411.68 315.49 408.2 313.4C407.27 312.84 406.9 311.62 406.88 310.6C406.88 309.88 407.76 308.6 407.76 308.6H407.77Z" fill="#FEBB26"/>
<path d="M414.29 315.59C411.81 315.59 409.45 315.17 407.76 314.15C406.5 313.39 406.04 311.83 406.02 310.61C406.01 309.68 406.81 308.46 407.05 308.1L407.31 307.72H407.77C407.83 307.72 413.4 307.78 416.02 307.53C416.6 307.47 417.29 307.29 418.03 307.09C419.68 306.64 421.55 306.14 423.22 306.79C424.72 307.38 425.89 309.76 426.11 310.24L426.34 310.74L425.99 311.16C425.78 311.41 423.9 313.66 422.32 314.23C420 315.06 417.06 315.6 414.28 315.6L414.29 315.59ZM408.25 309.47C407.98 309.93 407.77 310.41 407.77 310.58C407.77 311.29 408.02 312.25 408.66 312.64C411.68 314.45 417.68 314.03 421.74 312.57C422.46 312.31 423.55 311.27 424.28 310.46C423.82 309.62 423.11 308.61 422.59 308.4C421.45 307.96 419.95 308.36 418.49 308.76C417.68 308.98 416.91 309.19 416.19 309.26C413.91 309.48 409.68 309.47 408.24 309.47H408.25Z" fill="black"/>
<path d="M426.32 294.61H435.8L440.35 291.56L435.82 288.44H426.34L416.06 285.89L405.78 288.44H395.76L391.23 291.56L395.78 294.61H405.8L416.06 297.55L426.32 294.61Z" fill="#FEBB26"/>
<path d="M416.06 298.47L405.68 295.49H395.51L389.67 291.57L395.49 287.57H405.68L416.07 284.99L426.46 287.57H436.11L441.93 291.57L436.09 295.49H426.46L416.08 298.47H416.06ZM396.04 293.74H405.92L416.06 296.65L426.2 293.74H435.54L438.8 291.55L435.55 289.32H426.23L416.06 286.79L405.88 289.32H396.02L392.77 291.55L396.03 293.74H396.04Z" fill="black"/>
<path d="M544.26 205.6C543.09 205.6 541.92 205.63 540.76 205.68L541.83 268.71L532.46 226.72C530.02 227.12 527.61 227.64 525.24 228.27L537.23 271.29L511.37 211.66C508.97 212.56 506.61 213.56 504.29 214.65L532.82 274.64L506.37 236.23C504.3 237.46 502.3 238.79 500.37 240.21L525.67 273.24L480.42 230.68C478.61 232.35 476.87 234.11 475.2 235.92L523.47 278.51L485.18 255.31C483.82 257.15 482.56 259.06 481.39 261.04L526.87 285.77L528.62 283.02L529.43 283.77L533.19 280.33L535.03 279.16V279.25L539.07 277.75V277.83L542.56 277H546.05L549.63 277.83V277.75L553.67 279.25V279.16L555.51 280.33L559.27 283.77L560.08 283.02L561.37 285.11L560.45 285.45L562.38 289.8L563.49 294.05L615.6 284.68C615.27 282.44 614.83 280.24 614.28 278.09L563.21 289.62L631.32 265.07C630.51 262.84 629.61 260.66 628.62 258.53L567.7 282.59L607.24 261.1C606.07 259.12 604.82 257.2 603.46 255.36L565.23 278.51L613.46 235.97C611.8 234.17 610.06 232.43 608.26 230.77L563.04 273.33L588.28 240.27C586.36 238.86 584.37 237.52 582.31 236.29L558.45 270.93L557.81 270.59L584.39 214.7C582.06 213.6 579.68 212.61 577.27 211.71L552.86 268L552.49 267.8L563.48 228.34C561.09 227.7 558.67 227.16 556.22 226.76L547.55 265.22L548.64 205.74C547.19 205.67 545.74 205.63 544.28 205.63L544.26 205.6Z" fill="#FEBB26"/>
<path d="M562.87 295.02L561.78 290.82L549.68 293.55L561.28 289.37L560.02 286.54L554.71 288.64L559.74 285.91L559.3 284.93L558.1 283.84L557.34 284.3L557.98 283.73L555 281.01L553.65 280.16L549.94 278.78L545.97 277.86H542.69L540.17 278.46L541.52 283.31L539.49 278.62L538.79 278.79L536.25 279.74L538.36 284.17L535.5 280.02L535.11 280.17L533.76 281.02L530.78 283.74L531.43 284.31L530.67 283.85L529.47 284.95L528.83 284.36L527.2 286.91L480.21 261.35L480.67 260.57C481.84 258.59 483.13 256.64 484.51 254.77L484.98 254.13L515.58 272.67L473.98 235.96L474.59 235.3C476.39 233.35 478.11 231.62 479.86 230.01L480.46 229.46L518.46 265.21L499.16 240.02L499.88 239.49C501.84 238.05 503.89 236.7 505.95 235.47L506.65 235.05L527.35 265.11L503.16 214.23L503.95 213.86C506.28 212.76 508.69 211.74 511.09 210.84L511.87 210.55L533 259.28L524.19 227.66L525.04 227.43C527.43 226.79 529.88 226.26 532.34 225.86L533.16 225.73L540.83 260.12L539.89 204.85L540.75 204.82C542.12 204.77 543.24 204.74 544.28 204.74C545.7 204.74 547.18 204.78 548.68 204.85L549.53 204.89L548.58 256.65L555.55 225.74L556.36 225.87C558.78 226.27 561.26 226.81 563.71 227.47L564.56 227.7L555.92 258.71L576.8 210.58L577.58 210.87C580.19 211.85 582.54 212.84 584.77 213.89L585.56 214.26L561.36 265.16L582.07 235.1L582.77 235.52C584.75 236.7 586.79 238.05 588.81 239.54L589.53 240.07L570.23 265.35L608.27 229.55L608.87 230.1C610.67 231.76 612.44 233.53 614.12 235.35L614.73 236.01L573.17 272.68L603.72 254.18L604.19 254.82C605.51 256.61 606.79 258.56 608.02 260.64L608.48 261.42L580.74 276.5L629.1 257.4L629.45 258.15C630.45 260.3 631.36 262.52 632.18 264.76L632.48 265.58L576.81 285.65L614.95 277.04L615.16 277.86C615.71 280.01 616.16 282.25 616.5 284.54L616.62 285.38L562.88 295.04V295.02H562.87ZM563.48 290.43L564.15 293.01L614.62 283.94C614.35 282.3 614.03 280.68 613.65 279.1L563.48 290.43ZM561.65 285.91L562.92 288.77H562.93L630.21 264.51C629.59 262.86 628.91 261.22 628.18 259.61L562.67 285.48L562.69 285.52L561.64 285.9H561.65V285.91ZM559.92 284.36L559.32 284.91L560.09 284.63L559.92 284.36ZM560.68 282.27L562.13 284.61L606.04 260.74C605.14 259.25 604.2 257.83 603.25 256.5L560.69 282.28H560.68V282.27ZM482.63 260.67L526.59 284.58L528.06 282.27L485.43 256.45C484.44 257.83 483.5 259.24 482.62 260.68H482.63V260.67ZM528.46 281.63L529.45 282.55L531.93 280.28L480.43 231.84C479.12 233.07 477.81 234.39 476.47 235.82L528.43 281.67L528.45 281.63H528.46ZM556.84 280.32L559.28 282.55L560.28 281.62L560.3 281.66L612.21 235.87C610.93 234.51 609.61 233.19 608.26 231.92L556.84 280.32ZM552.8 277.54L556.05 279.6L556.68 280.17L587.05 240.4C585.55 239.32 584.04 238.32 582.57 237.42L558.74 272.02L556.66 270.93L583.22 215.08C581.49 214.29 579.69 213.53 577.73 212.78L553.27 269.17L551.45 268.18L562.39 228.9C560.55 228.43 558.7 228.02 556.88 227.7L546.5 273.71L547.73 206.52C546.55 206.47 545.38 206.45 544.26 206.45C543.46 206.45 542.62 206.45 541.65 206.5L542.84 276.08H546.16L548.76 276.68V276.44L552.8 277.94V277.54ZM501.62 240.36L532.09 280.13L532.67 279.6L534.43 278.48L506.12 237.37C504.59 238.3 503.08 239.3 501.61 240.35H501.62V240.36ZM535.92 277.55V277.97L538.74 276.92L510.92 212.76C509.09 213.47 507.27 214.24 505.48 215.06L535.37 277.9L535.93 277.55H535.92ZM539.96 276.47V276.7L542.47 276.1H542.59L531.8 227.71C529.96 228.03 528.13 228.42 526.34 228.88L539.64 276.59L539.97 276.47H539.96Z" fill="black"/>
<path d="M544.26 260.67C523.93 260.67 507.21 275.69 507.21 294.42C507.21 313.15 523.92 328.26 544.26 328.26C564.6 328.26 581.41 313.16 581.41 294.42C581.41 275.68 564.59 260.67 544.26 260.67Z" fill="#FEBB26"/>
<path d="M544.26 329.14C523.35 329.14 506.33 313.57 506.33 294.42C506.33 275.27 523.34 259.79 544.26 259.79C565.18 259.79 582.28 275.32 582.28 294.42C582.28 313.52 565.22 329.14 544.26 329.14ZM544.26 261.55C524.31 261.55 508.08 276.3 508.08 294.43C508.08 312.56 524.31 327.4 544.26 327.4C564.21 327.4 580.53 312.61 580.53 294.43C580.53 276.25 564.26 261.55 544.26 261.55Z" fill="black"/>
<path d="M414.22 399.13H640.26V386.36H414.22V399.13Z" fill="#FEBB26"/>
<path d="M641.14 400H413.35V385.48H641.14V400ZM415.1 398.25H639.39V387.22H415.1V398.25Z" fill="black"/>
<path d="M421.37 385.37C421.53 387.78 422.36 391.63 423.31 392.74C419.63 392.21 419.45 387.78 418.99 385.46L421.36 385.37H421.37ZM428.21 385.37C428.37 387.78 429.2 391.63 430.15 392.74C426.47 392.21 426.29 387.78 425.83 385.46L428.2 385.37H428.21ZM435.05 385.37C435.21 387.78 436.04 391.63 436.99 392.74C433.31 392.21 433.13 387.78 432.67 385.46L435.04 385.37H435.05ZM441.89 385.37C442.05 387.78 442.88 391.63 443.83 392.74C440.15 392.21 439.97 387.78 439.51 385.46L441.88 385.37H441.89ZM448.73 385.37C448.89 387.78 449.72 391.63 450.67 392.74C446.99 392.21 446.81 387.78 446.35 385.46L448.72 385.37H448.73ZM455.57 385.37C455.73 387.78 456.56 391.63 457.51 392.74C453.83 392.21 453.65 387.78 453.19 385.46L455.56 385.37H455.57ZM462.41 385.37C462.57 387.78 463.4 391.63 464.35 392.74C460.67 392.21 460.49 387.78 460.03 385.46L462.4 385.37H462.41ZM469.25 385.37C469.41 387.78 470.24 391.63 471.19 392.74C467.51 392.21 467.33 387.78 466.87 385.46L469.24 385.37H469.25ZM476.09 385.37C476.25 387.78 477.08 391.63 478.03 392.74C474.35 392.21 474.17 387.78 473.71 385.46L476.08 385.37H476.09ZM482.93 385.37C483.09 387.78 483.92 391.63 484.87 392.74C481.19 392.21 481.01 387.78 480.55 385.46L482.92 385.37H482.93ZM489.77 385.37C489.93 387.78 490.76 391.63 491.71 392.74C488.03 392.21 487.85 387.78 487.39 385.46L489.76 385.37H489.77ZM496.61 385.37C496.77 387.78 497.6 391.63 498.55 392.74C494.87 392.21 494.69 387.78 494.23 385.46L496.6 385.37H496.61ZM503.45 385.37C503.61 387.78 504.44 391.63 505.39 392.74C501.71 392.21 501.53 387.78 501.07 385.46L503.44 385.37H503.45ZM510.29 385.37C510.45 387.78 511.28 391.63 512.23 392.74C508.55 392.21 508.37 387.78 507.91 385.46L510.28 385.37H510.29ZM517.13 385.37C517.29 387.78 518.12 391.63 519.07 392.74C515.39 392.21 515.21 387.78 514.75 385.46L517.12 385.37H517.13ZM523.97 385.37C524.13 387.78 524.96 391.63 525.91 392.74C522.23 392.21 522.05 387.78 521.59 385.46L523.96 385.37H523.97ZM530.81 385.37C530.97 387.78 531.8 391.63 532.75 392.74C529.07 392.21 528.89 387.78 528.43 385.46L530.8 385.37H530.81ZM537.65 385.37C537.81 387.78 538.64 391.63 539.59 392.74C535.91 392.21 535.73 387.78 535.27 385.46L537.64 385.37H537.65ZM544.49 385.37C544.65 387.78 545.48 391.63 546.43 392.74C542.75 392.21 542.57 387.78 542.11 385.46L544.48 385.37H544.49ZM551.33 385.37C551.49 387.78 552.32 391.63 553.27 392.74C549.59 392.21 549.41 387.78 548.95 385.46L551.32 385.37H551.33ZM558.17 385.37C558.33 387.78 559.16 391.63 560.11 392.74C556.43 392.21 556.25 387.78 555.79 385.46L558.16 385.37H558.17ZM565.01 385.37C565.17 387.78 566 391.63 566.95 392.74C563.27 392.21 563.09 387.78 562.63 385.46L565 385.37H565.01ZM571.85 385.37C572.01 387.78 572.84 391.63 573.79 392.74C570.11 392.21 569.93 387.78 569.47 385.46L571.84 385.37H571.85ZM578.69 385.37C578.85 387.78 579.68 391.63 580.63 392.74C576.95 392.21 576.77 387.78 576.31 385.46L578.68 385.37H578.69ZM585.53 385.37C585.69 387.78 586.52 391.63 587.47 392.74C583.79 392.21 583.61 387.78 583.15 385.46L585.52 385.37H585.53ZM592.37 385.37C592.53 387.78 593.36 391.63 594.31 392.74C590.63 392.21 590.45 387.78 589.99 385.46L592.36 385.37H592.37ZM599.21 385.37C599.37 387.78 600.2 391.63 601.15 392.74C597.47 392.21 597.29 387.78 596.83 385.46L599.2 385.37H599.21ZM606.05 385.37C606.21 387.78 607.04 391.63 607.99 392.74C604.31 392.21 604.13 387.78 603.67 385.46L606.04 385.37H606.05ZM612.89 385.37C613.05 387.78 613.88 391.63 614.83 392.74C611.15 392.21 610.97 387.78 610.51 385.46L612.88 385.37H612.89ZM619.73 385.37C619.89 387.78 620.72 391.63 621.67 392.74C617.99 392.21 617.81 387.78 617.35 385.46L619.72 385.37H619.73ZM626.57 385.37C626.73 387.78 627.56 391.63 628.51 392.74C624.83 392.21 624.65 387.78 624.19 385.46L626.56 385.37H626.57ZM633.41 385.37C633.57 387.78 634.4 391.63 635.35 392.74C631.67 392.21 631.49 387.78 631.03 385.46L633.4 385.37H633.41Z" fill="black"/>
<path d="M553.63 353.64C549.21 361.01 555.34 367.59 552.01 373.23C552.01 373.23 544.93 371.96 541.25 371.8C538.7 371.69 534.94 371.69 532.76 372.69C528.87 374.48 525.51 376.93 523.74 379.65C520.52 384.61 524.45 389.2 530.26 386.77C535.46 391.55 541.58 388.49 549.08 385.88C550.62 385.34 552.87 385.92 554.76 386.31C556.73 386.71 558.96 387.03 560.82 386.31C565.24 384.6 568.24 379.57 571.04 371.49L575.4 373.32C575.45 369.87 573.91 367.23 571.9 364.84L577.1 366.59C577.13 363.15 575.45 360.64 573.74 358.75L578.74 360.6C578.74 360.6 578.32 358.81 578.24 356.16C578.19 354.44 578.6 351.93 578.26 350.79C577.68 348.82 576.91 348.04 576.41 346.6C576.01 345.45 575.52 343.08 575.52 343.08C560.46 336.48 563.7 320.93 566.47 314.35L537.79 334.13C532 337.9 539.95 351.47 553.62 353.66V353.64H553.63Z" fill="#FEBB26"/>
<path d="M536.63 390.16C534.33 390.16 532.16 389.51 530.1 387.77C527.18 388.82 524.45 388.33 522.87 386.44C521.28 384.54 521.34 381.76 523.02 379.17C524.78 376.46 528.11 373.87 532.4 371.89C534.22 371.05 537.13 370.73 541.3 370.92C544.39 371.06 549.72 371.94 551.55 372.25C552.59 370.05 552.17 367.65 551.68 364.91C551.11 361.7 550.48 358.09 552.3 354.28C547.11 353.19 543.37 350.67 541.1 348.68C538 345.96 535.85 342.68 535.21 339.67C534.62 336.89 535.37 334.66 537.33 333.39L568.45 311.93L567.29 314.68C566.59 316.35 564.36 322.29 565.19 328.59C566.02 334.93 569.62 339.53 575.89 342.28L576.3 342.46L576.39 342.9C576.39 342.9 576.87 345.23 577.25 346.32C577.44 346.87 577.68 347.32 577.95 347.84C578.32 348.55 578.75 349.34 579.1 350.55C579.35 351.4 579.27 352.67 579.19 354.01C579.14 354.75 579.1 355.52 579.12 356.14C579.2 358.67 579.59 360.39 579.6 360.41L579.97 361.99L576.27 360.62C577.23 362.18 578.01 364.16 577.98 366.61V367.81L574.27 366.57C575.41 368.37 576.32 370.59 576.28 373.34L576.26 374.64L571.56 372.67C568.51 381.16 565.37 385.5 561.14 387.14C559.08 387.94 556.68 387.61 554.59 387.18C554.39 387.14 554.19 387.1 553.98 387.05C552.36 386.71 550.52 386.32 549.38 386.72C548.55 387.01 547.72 387.31 546.93 387.6C543.23 388.94 539.81 390.18 536.63 390.18V390.16ZM530.45 385.75L530.86 386.13C535.09 390.02 540.05 388.22 546.33 385.94C547.13 385.65 547.96 385.35 548.8 385.05C550.4 384.49 552.49 384.93 554.34 385.32C554.54 385.36 554.74 385.41 554.94 385.45C556.77 385.83 558.87 386.12 560.5 385.49C564.34 384 567.25 379.73 570.21 371.2L570.52 370.32L574.46 371.97C574.2 369.76 573.19 367.73 571.23 365.4L569.23 363.02L576.15 365.35C575.8 362.63 574.28 360.64 573.09 359.33L574.04 357.92L577.62 359.24C577.51 358.46 577.4 357.41 577.37 356.18C577.35 355.48 577.4 354.67 577.45 353.89C577.52 352.81 577.59 351.59 577.43 351.03C577.13 350 576.76 349.31 576.41 348.65C576.13 348.12 575.83 347.57 575.6 346.88C575.29 345.99 574.94 344.44 574.78 343.69C568.26 340.7 564.35 335.56 563.47 328.82C562.84 324.05 563.85 319.49 564.75 316.61L538.32 334.84C536.62 335.94 536.63 337.88 536.94 339.31C538.08 344.67 544.85 351.35 553.79 352.78L555.07 352.98L554.41 354.09C552.21 357.75 552.83 361.24 553.42 364.61C553.95 367.64 554.5 370.77 552.79 373.67L552.48 374.19L551.88 374.08C551.81 374.07 544.81 372.82 541.24 372.66C537.41 372.49 534.69 372.77 533.15 373.48C529.15 375.32 526.08 377.68 524.5 380.12C523.26 382.04 523.15 384.03 524.23 385.32C525.39 386.71 527.58 386.95 529.96 385.95L530.48 385.73L530.45 385.75Z" fill="black"/>
<path d="M554.21 340.59C552.2 339.85 549.19 338.2 548.53 335.28L550.71 330.73C549.76 335.87 553.21 339.63 554.21 340.59ZM550.92 343.36C548.91 342.62 545.9 340.97 545.24 338.05L547.42 333.5C546.47 338.64 549.92 342.4 550.92 343.36ZM548.15 346.62C546.14 345.88 543.13 344.23 542.47 341.31L544.65 336.76C543.7 341.9 547.15 345.66 548.15 346.62ZM544.62 377.18C544.62 377.18 540.29 376.95 537.74 377.35C536.05 377.61 534.39 378.22 532.97 379.19C531.34 380.3 529.38 381.72 528.84 383.87C528.6 384.83 528.89 385.8 529.12 386.54C529.35 387.29 529.58 387.88 529.58 387.88L531.51 387.13C531.51 387.13 531.24 386.66 531.05 386.04C530.86 385.43 530.78 384.63 530.87 384.28C531.2 382.94 532.65 381.72 534.17 380.69C537.79 377.83 541.31 378.69 544.63 377.18H544.62ZM559.65 376.42C561.18 374.36 563.78 372.01 564.69 369.16C565.6 366.3 565.92 363.3 564.89 360.87C562.93 361.72 558.92 375.86 559.64 376.42H559.65ZM570.66 353.67C570.15 356.58 565.4 356.5 563.35 355.76C561.29 355.03 559.76 352.52 560.79 350.17C561.61 353.37 566.75 354.86 570.67 353.67H570.66ZM571.42 346.52C570.91 349.43 566.16 349.35 564.11 348.61C562.05 347.88 560.52 345.37 561.55 343.02C562.37 346.22 567.51 347.71 571.43 346.52H571.42Z" fill="black"/>
<path d="M642.56 233.3C643.44 237.28 641.68 240.02 639.39 241.12C635.94 242.77 632.73 241.66 629.85 239.2C626.1 236 623.56 231.74 620.22 228.92C615.98 225.35 610.86 224.39 606.46 224.66C602.05 224.93 598.1 226.74 595.27 229.59C589.59 235.29 588.13 245.51 594.08 253.91C599.68 261.82 616.51 267.44 622.89 272.22C628.62 276.51 631.15 279.35 632.25 282.51C633.35 285.67 633.77 289.68 632.07 293.54C630.02 298.19 625.13 300.18 617.84 300.33C608.15 300.52 599.01 292.33 589.66 290.96C572.15 288.39 567.17 295.2 550.9 295.39C518.67 295.77 505.52 286.03 505.52 286.03L470.58 326.48C459.91 330.46 459.35 345.15 470.58 353.06C467.37 354.9 464.19 358.72 462.78 361.92C461.01 365.95 459.56 368.45 457.37 371.37C457.37 371.37 450.31 370.11 446.63 369.95C444.08 369.84 440.28 369.86 438.1 370.87C434.21 372.66 430.87 375.08 429.11 377.81C425.89 382.77 429.81 387.35 435.62 384.91C440.82 389.69 446.93 386.69 454.43 384.07C455.97 383.53 458.24 384.1 460.12 384.49C462.09 384.89 464.34 385.25 466.18 384.49C470.5 382.7 472.45 378.1 475.54 374.88C476.99 373.36 479.85 370.28 479.85 370.28L482.69 373.87C484.61 370.89 484.7 367.91 484.25 364.93L487.83 368.77C489.72 365.8 489.58 362.83 489.11 360.41L492.5 364.25C492.5 364.25 493.06 362.58 494.43 360.24C495.32 358.72 497.04 356.7 497.37 355.56C497.93 353.59 498.1 351.05 498.1 351.05C500.06 352.76 501.55 353.64 504.06 353.31C504.42 349.74 504.68 348.66 505.62 347.21C518.09 346.61 529.7 344.62 540.21 340.61C548.15 337.58 555.51 333.44 562.05 327.9C563.76 326.46 565.13 325.69 566.73 324.06C568.3 322.45 574.82 323.27 578.11 324.48C579.7 325.06 581.69 327.49 581.69 327.49C584.32 334.2 590.54 350.22 607.66 353.65C603.24 361.02 609.34 367.66 606.01 373.29C606.01 373.29 598.95 371.95 595.27 371.79C592.72 371.68 589.01 371.7 586.83 372.71C582.94 374.5 579.51 376.92 577.75 379.65C574.53 384.61 578.45 389.28 584.26 386.84C589.46 391.62 595.57 388.54 603.07 385.92C604.61 385.38 606.88 385.95 608.76 386.34C610.73 386.74 612.96 387.06 614.82 386.34C619.24 384.63 622.29 379.62 625.1 371.55L629.41 373.31C629.46 369.86 627.93 367.26 625.92 364.87L631.15 366.63C631.18 363.19 629.47 360.66 627.76 358.77L632.81 360.61C632.81 360.61 632.34 358.83 632.26 356.18C632.21 354.46 632.6 351.97 632.26 350.83C631.68 348.86 630.92 348.09 630.42 346.65C630.02 345.5 629.59 343.14 629.59 343.14C620.57 338.98 618.58 332.12 618.49 325.92C618.37 317.74 617.01 313.11 611.33 308.16C613.32 307.84 615.37 308.1 617.11 308.12C627.95 308.24 636.83 303.18 639.48 295.74C641.25 290.78 641.27 285.21 639.12 280.96C636.04 274.87 632.78 272.24 626.56 267.59C619.55 262.34 603.36 256.49 599.03 250.37C594.39 243.82 595.74 237.1 599.58 233.23C603.35 229.44 609.52 227.66 616.19 232.9C620.19 236.04 622.62 240.5 625.92 243.26C629.77 246.48 636.48 249.14 642.25 245.77C648.24 242.27 649.03 237.09 648.45 232.69C649.45 229.08 652.91 225.99 658.96 225.71C657.04 222.03 648.22 218.32 644.47 226.01C639.97 219.89 631.37 222.86 629.76 228.69C634.26 227.75 639.19 229.18 642.58 233.36L642.56 233.3Z" fill="#FEBB26"/>
<path d="M590.57 390.19C588.28 390.19 586.12 389.54 584.06 387.81C581.16 388.85 578.44 388.36 576.86 386.47C575.26 384.55 575.31 381.74 576.99 379.14C578.72 376.48 582.07 373.9 586.44 371.88C588.26 371.04 591.24 370.7 595.29 370.88C598.38 371.02 603.69 371.95 605.52 372.28C606.56 370.08 606.14 367.67 605.66 364.92C605.1 361.68 604.47 358.05 606.32 354.22C589.71 350.25 583.57 334.68 580.91 327.9C580.32 327.21 578.85 325.65 577.79 325.26C574.14 323.92 568.38 323.57 567.34 324.63C566.3 325.69 565.37 326.39 564.39 327.13C563.82 327.56 563.23 328 562.6 328.54C556.28 333.89 548.85 338.21 540.51 341.39C530.58 345.18 519.32 347.35 506.11 348.03C505.46 349.16 505.23 350.25 504.92 353.37L504.85 354.06L504.17 354.15C501.95 354.45 500.42 353.9 498.79 352.72C498.67 353.62 498.48 354.77 498.19 355.78C497.95 356.63 497.19 357.7 496.39 358.84C495.95 359.47 495.49 360.11 495.17 360.66C493.87 362.88 493.32 364.49 493.32 364.51L492.84 365.94L490.27 363.03C490.3 364.89 489.93 367.05 488.55 369.21L487.94 370.16L485.33 367.35C485.37 369.47 484.97 371.88 483.41 374.3L482.75 375.33L479.78 371.57C478.84 372.58 477.15 374.38 476.15 375.43C475.18 376.44 474.34 377.58 473.44 378.79C471.57 381.32 469.63 383.94 466.49 385.24C464.41 386.1 462.01 385.72 459.92 385.29C459.74 385.25 459.55 385.21 459.36 385.17C457.72 384.82 455.85 384.43 454.69 384.84C453.9 385.12 453.12 385.4 452.35 385.67C445.92 387.99 440.35 390.01 435.41 385.85C432.49 386.9 429.76 386.41 428.19 384.53C426.61 382.64 426.66 379.85 428.34 377.26C430.09 374.56 433.42 371.98 437.7 370C439.53 369.16 442.54 368.82 446.64 369C449.78 369.14 455.23 370.04 456.96 370.34C458.98 367.6 460.32 365.22 461.95 361.5C463.34 358.35 466.18 354.94 469.02 352.94C463.64 348.68 460.81 342.49 461.58 336.5C462.23 331.45 465.31 327.52 470.03 325.68L505.36 284.78L506.01 285.26C506.01 285.26 509.34 287.68 516.48 289.99C523.08 292.13 534.4 294.64 550.86 294.45C557.76 294.37 562.6 293.08 567.29 291.83C573.63 290.14 579.61 288.54 589.75 290.03C594.04 290.66 598.3 292.69 602.41 294.64C607.42 297.02 612.6 299.49 617.78 299.39C625.13 299.25 629.4 297.26 631.23 293.12C632.97 289.17 632.28 285.29 631.39 282.73C630.35 279.72 627.81 276.95 622.33 272.86C620.11 271.2 616.47 269.37 612.61 267.43C605.32 263.77 597.05 259.62 593.33 254.35C590.39 250.2 589.04 245.45 589.41 240.61C589.76 236.09 591.61 231.94 594.62 228.91C597.68 225.84 601.85 224 606.38 223.72C610.24 223.49 615.87 224.07 620.76 228.19C622.46 229.62 623.91 231.35 625.44 233.18C626.96 235 628.54 236.89 630.4 238.47C633.38 241.02 636.2 241.61 639 240.27C640.8 239.41 642.45 237.22 641.74 233.63C638.76 230.06 634.36 228.49 629.92 229.42L628.52 229.71L628.9 228.33C629.8 225.07 632.79 222.44 636.33 221.78C639.37 221.22 642.21 222.15 644.31 224.35C645.89 221.9 648.23 220.54 651.02 220.5H651.14C654.93 220.5 658.53 222.91 659.71 225.18L660.34 226.39L658.97 226.45C654 226.69 650.41 228.99 649.31 232.63C650.06 238.74 647.83 243.38 642.66 246.4C639.87 248.03 636.58 248.49 633.14 247.72C630.37 247.1 627.6 245.71 625.33 243.81C623.75 242.49 622.4 240.84 620.97 239.09C619.36 237.13 617.7 235.1 615.62 233.46C607.71 227.25 601.8 232.09 600.17 233.72C595.41 238.5 596.51 245.21 599.71 249.73C602.22 253.27 609.07 256.81 615.69 260.23C620.08 262.5 624.24 264.65 627.05 266.75C633.28 271.42 636.68 274.14 639.86 280.43C642.03 284.73 642.19 290.51 640.27 295.9C637.5 303.69 628.36 308.87 617.45 308.87H617.06C616.56 308.87 616.04 308.84 615.5 308.81C614.79 308.78 614.06 308.74 613.34 308.75C618.21 313.62 619.21 318.47 619.32 325.79C619.44 333.72 622.81 338.95 629.91 342.23L630.32 342.42L630.4 342.87C630.4 342.87 630.82 345.18 631.19 346.25C631.38 346.81 631.62 347.25 631.89 347.77C632.26 348.47 632.68 349.27 633.04 350.47C633.29 351.32 633.22 352.59 633.14 353.94C633.1 354.67 633.05 355.43 633.07 356.04C633.15 358.54 633.59 360.26 633.59 360.28L634.01 361.89L630.22 360.51C631.2 362.08 631.99 364.08 631.97 366.53V367.73L628.22 366.48C629.35 368.27 630.26 370.49 630.22 373.22L630.2 374.5L625.55 372.61C622.51 381.07 619.35 385.41 615.07 387.07C613.01 387.87 610.61 387.54 608.52 387.11C608.34 387.07 608.15 387.03 607.96 386.99C606.32 386.64 604.45 386.25 603.29 386.66C602.44 386.96 601.59 387.26 600.78 387.56C597.09 388.9 593.69 390.14 590.52 390.14L590.57 390.19ZM584.42 385.78L584.83 386.16C589.04 390.03 593.98 388.24 600.23 385.97C601.05 385.67 601.9 385.36 602.76 385.06C604.38 384.5 606.5 384.94 608.36 385.33C608.55 385.37 608.73 385.41 608.91 385.44C610.74 385.82 612.84 386.11 614.48 385.48C618.33 383.99 621.34 379.59 624.25 371.21L624.55 370.34L628.44 371.92C628.11 369.15 626.66 367.07 625.23 365.37L623.23 362.99L630.18 365.32C629.83 362.61 628.29 360.61 627.09 359.29L628.04 357.88L631.64 359.19C631.52 358.4 631.4 357.36 631.37 356.14C631.35 355.45 631.39 354.65 631.44 353.88C631.5 352.8 631.57 351.57 631.41 351.01C631.11 349.98 630.74 349.29 630.39 348.63C630.11 348.1 629.82 347.55 629.58 346.87C629.27 345.97 628.95 344.43 628.81 343.68C621.4 340.11 617.74 334.29 617.61 325.87C617.49 318.22 616.44 313.71 610.75 308.75L609.35 307.53L611.19 307.23C612.71 306.98 614.26 307.06 615.62 307.12C616.15 307.15 616.65 307.17 617.12 307.17C627.46 307.29 636.1 302.54 638.66 295.37C640.42 290.42 640.3 285.15 638.34 281.27C635.33 275.32 632.22 272.83 626.04 268.2C623.34 266.18 619.26 264.07 614.93 261.83C608.12 258.31 601.08 254.67 598.33 250.78C593.3 243.67 595.03 236.49 598.97 232.52C602.85 228.62 609.55 226.47 616.74 232.11C618.97 233.87 620.7 235.97 622.36 238.01C623.73 239.69 625.03 241.27 626.48 242.49C630.47 245.83 636.75 247.87 641.81 244.91C646.43 242.21 648.32 238.22 647.58 232.7L647.56 232.52L647.61 232.35C648.74 228.27 652.33 225.55 657.34 224.87C655.97 223.47 653.57 222.27 651.17 222.27H651.07C649.3 222.29 646.86 223.01 645.26 226.28L644.63 227.58L643.77 226.42C642.04 224.07 639.45 223.01 636.67 223.52C634.28 223.96 632.2 225.49 631.14 227.49C635.76 227.04 640.2 228.93 643.26 232.71L643.39 232.87L643.43 233.07C644.28 236.95 642.85 240.4 639.78 241.86C636.34 243.5 632.81 242.81 629.29 239.81C627.32 238.13 625.7 236.19 624.13 234.31C622.65 232.54 621.24 230.86 619.66 229.53C615.21 225.79 610.06 225.26 606.51 225.47C602.41 225.72 598.64 227.38 595.88 230.15C593.16 232.88 591.49 236.64 591.18 240.75C590.84 245.18 592.09 249.54 594.78 253.35C598.25 258.26 606.31 262.3 613.42 265.87C617.35 267.84 621.06 269.71 623.4 271.46C629.18 275.79 631.89 278.79 633.06 282.16C634.05 285.02 634.82 289.37 632.85 293.83C630.75 298.59 625.84 300.98 617.84 301.14C612.24 301.24 606.88 298.69 601.68 296.22C597.49 294.23 593.54 292.35 589.51 291.76C579.72 290.32 573.91 291.87 567.75 293.52C562.96 294.8 558.01 296.12 550.89 296.2C541.64 296.31 528.04 295.6 515.83 291.62C510.25 289.8 506.97 287.95 505.65 287.12L471.07 327.16L470.86 327.24C466.64 328.81 463.89 332.27 463.32 336.73C462.58 342.45 465.55 348.41 471.06 352.29L472.18 353.08L470.99 353.76C468.11 355.41 464.99 358.96 463.56 362.21C461.8 366.21 460.31 368.82 458.05 371.83L457.73 372.26L457.2 372.17C457.13 372.16 450.15 370.92 446.58 370.76C442.81 370.59 440 370.88 438.45 371.6C434.46 373.44 431.4 375.79 429.83 378.22C428.59 380.14 428.48 382.13 429.55 383.41C430.71 384.79 432.9 385.03 435.27 384.04L435.79 383.82L436.2 384.2C440.45 388.11 445.45 386.31 451.77 384.02C452.54 383.74 453.33 383.46 454.13 383.18C455.75 382.62 457.86 383.06 459.73 383.45C459.92 383.49 460.1 383.53 460.28 383.56C462.11 383.94 464.21 384.28 465.83 383.61C468.52 382.5 470.23 380.18 472.04 377.73C472.93 376.53 473.85 375.29 474.89 374.2C476.32 372.7 479.16 369.64 479.19 369.61L479.88 368.86L482.55 372.24C483.57 370.18 483.81 367.93 483.36 364.98L482.94 362.19L487.62 367.22C488.8 364.75 488.58 362.36 488.22 360.5L487.62 357.36L492.19 362.54C492.51 361.82 492.99 360.84 493.64 359.72C494 359.11 494.48 358.43 494.94 357.77C495.59 356.85 496.33 355.8 496.49 355.24C497.02 353.38 497.19 350.93 497.19 350.91L497.31 349.15L498.64 350.31C500.29 351.75 501.48 352.48 503.24 352.42C503.56 349.41 503.86 348.19 504.86 346.65L505.1 346.27L505.55 346.25C518.77 345.61 530 343.47 539.87 339.7C548.03 336.59 555.29 332.36 561.45 327.14C562.12 326.57 562.73 326.12 563.32 325.67C564.25 324.97 565.12 324.32 566.07 323.35C568.11 321.26 575.17 322.38 578.37 323.56C580.13 324.21 582.1 326.57 582.32 326.83L582.41 326.94L582.5 327.16C585.11 333.81 591.22 349.37 607.79 352.69L609 352.93L608.36 353.99C606.16 357.65 606.77 361.16 607.36 364.55C607.89 367.59 608.43 370.73 606.72 373.63L606.41 374.16L605.81 374.05C605.74 374.04 598.77 372.72 595.2 372.56C591.49 372.4 588.71 372.69 587.16 373.4C583.09 375.28 579.99 377.63 578.44 380.02C577.19 381.95 577.09 383.97 578.18 385.28C579.34 386.67 581.53 386.92 583.88 385.93L584.4 385.71L584.42 385.78Z" fill="black"/>
<path d="M598.6 302.96C602.48 302.28 606.77 304.72 610.95 306.25C613.44 307.16 615.69 306.86 616.52 307.43L612.75 308.11L617.46 316.4C615.22 312.27 602.82 303.87 598.61 302.96H598.6ZM589.19 326.12C590.17 333.21 592.5 338.68 596.62 342.75C600.74 346.82 606.51 349.45 614.05 351.11C611.44 347.28 602.73 344.42 598.82 341C593.54 336.38 592.54 328.54 589.19 326.12ZM611.65 372.08C612.79 369.82 614.93 367.11 615.31 364.16C615.69 361.21 615.46 358.2 614.01 355.96C612.23 357.09 610.83 371.64 611.64 372.08H611.65ZM585.71 322.44C587.33 319.89 583.59 317.23 581.48 316.61C579.37 316 576.45 317.06 575.62 319.48C578.47 317.46 583.49 319.27 585.7 322.44H585.71ZM537.47 320.23C538.92 325.41 554.91 332.14 558.16 330.56L562.78 327.92C557.01 330.84 541.9 325.27 537.48 320.23H537.47ZM529.54 321.37C529.3 325.58 547.45 335.68 551.68 334.98L556.44 332.56C550.18 335.84 529.7 324.03 529.54 321.38V321.37ZM525.35 326.36C526.15 331.65 540.82 339.99 544.24 338.76L549.16 336.61C541.5 338.4 528.34 331.54 525.35 326.35V326.36ZM520.79 331.22C520.42 335.27 529.89 341.73 534.35 342.53L539.48 340.85C533.01 341.86 522.63 335.4 520.79 331.22ZM513.56 332.38C513.04 335.83 521.05 344.53 524.63 344.84L529.96 343.79C524.8 345.1 514.09 334.91 513.56 332.38ZM509.35 337.65C509.14 339.54 511.54 344.63 515.14 346.28L520.57 345.8C513.65 345.06 509.99 338.91 509.35 337.65ZM502.92 340.63C502.95 342.61 503.53 345.76 506.28 347.38L511.73 347.19C506.13 346.12 503.55 341.83 502.92 340.63ZM476.53 347.75C477.04 350.66 481.79 350.58 483.84 349.84C485.9 349.11 487.43 346.6 486.4 344.25C485.58 347.45 480.44 348.94 476.52 347.75H476.53ZM476.65 354.52C477.16 357.43 481.91 357.35 483.96 356.61C486.02 355.88 487.55 353.37 486.52 351.02C485.7 354.22 480.56 355.71 476.64 354.52H476.65ZM463.87 375.08C466.09 373.65 469.44 372.28 471.4 369.9C473.36 367.52 474.82 364.81 474.79 362.21C472.63 362.37 463.41 374.32 463.87 375.08ZM598.49 377.01C598.49 377.01 594.16 376.78 591.61 377.18C589.92 377.44 588.26 378.05 586.84 379.02C585.21 380.13 583.25 381.55 582.71 383.7C582.47 384.66 582.76 385.63 582.99 386.37C583.22 387.12 583.45 387.71 583.45 387.71L585.38 386.96C585.38 386.96 585.11 386.49 584.92 385.87C584.73 385.26 584.65 384.46 584.74 384.11C585.07 382.77 586.52 381.55 588.04 380.52C591.66 377.66 595.18 378.52 598.5 377.01H598.49ZM450.3 375.17C450.3 375.17 445.97 374.94 443.42 375.34C441.73 375.6 440.07 376.21 438.65 377.18C437.02 378.29 435.06 379.71 434.52 381.86C434.28 382.82 434.57 383.79 434.8 384.53C435.03 385.28 435.26 385.87 435.26 385.87L437.19 385.12C437.19 385.12 436.92 384.65 436.73 384.03C436.54 383.42 436.46 382.62 436.55 382.27C436.88 380.93 438.33 379.71 439.85 378.68C443.47 375.82 446.99 376.68 450.31 375.17H450.3Z" fill="black"/>
<path d="M510.21 308.91L507.54 310.31C489.41 316.68 475.44 316.47 457.19 310.31L454.59 316.98C452.52 324.52 453.66 331.16 456.49 336.52C458.22 335.77 459.95 334.14 461.68 332.58C462.53 335.18 462.15 338.89 465.14 341.88C468.53 340.15 470.63 337.78 471.89 336.05C472.47 339.61 473.96 342.31 476.95 344.25C479.95 342.32 481.43 339.62 482.01 336.05C483.26 337.78 485.37 340.78 488.76 342.51C491.75 339.52 491.71 337.71 492.65 334.73C494.16 337.83 496.09 339.4 499.48 341.14C502.47 338.15 502.09 334.44 502.94 331.84C504.37 333.95 506.19 335.42 508.13 335.78C509.61 333.85 510.69 330.75 510.68 327.95C513.47 329.94 516.06 330.54 517.82 330.67C518.52 327.02 518.37 324.21 517.8 320.96C520.43 321.78 520.93 322.53 524.16 322.54C526.32 315.31 523.75 307.49 516.24 301.95L510.19 308.91H510.21Z" fill="#FEBB26"/>
<path d="M476.96 345.28L476.49 344.97C473.92 343.31 472.28 341.08 471.44 338.03C469.77 339.95 467.79 341.5 465.55 342.65L464.98 342.94L464.53 342.49C462.21 340.17 461.74 337.42 461.37 335.21C461.31 334.86 461.25 334.52 461.19 334.2C459.78 335.46 458.33 336.67 456.85 337.31L456.11 337.63L455.73 336.92C452.49 330.8 451.81 323.82 453.76 316.74L453.79 316.65L456.69 309.21L457.48 309.48C466.81 312.63 474.73 314.1 482.42 314.13H482.62C490.38 314.13 498.2 312.66 507.2 309.5L509.66 308.21L516.13 300.76L516.78 301.24C524.31 306.79 527.39 314.85 525.02 322.78L524.83 323.4H524.18C521.74 323.4 520.71 322.98 519.4 322.45C519.24 322.39 519.08 322.32 518.91 322.25C519.33 325.32 519.26 327.89 518.7 330.81L518.55 331.57L517.77 331.51C516.22 331.39 513.96 330.93 511.48 329.47C511.19 331.94 510.22 334.48 508.84 336.28L508.51 336.71L507.98 336.61C506.36 336.31 504.77 335.32 503.38 333.78C503.34 334 503.3 334.22 503.26 334.45C502.89 336.66 502.42 339.4 500.1 341.73L499.65 342.18L499.08 341.89C496.43 340.54 494.47 339.2 492.92 336.93C492.37 338.91 491.79 340.68 489.37 343.1L488.92 343.55L488.35 343.26C485.67 341.89 483.77 339.8 482.44 338.09C481.59 341.1 479.96 343.31 477.41 344.96L476.94 345.27H476.96V345.28ZM472.42 333.84L472.76 335.92C473.29 339.2 474.63 341.53 476.96 343.2C479.29 341.53 480.63 339.2 481.16 335.92L481.5 333.84L482.84 335.69C483.97 337.26 485.82 339.81 488.61 341.44C490.45 339.45 490.84 338.05 491.36 336.15C491.5 335.63 491.65 335.08 491.84 334.48L492.5 332.4L493.46 334.36C494.71 336.91 496.22 338.4 499.32 340.07C500.88 338.25 501.22 336.2 501.56 334.2C501.72 333.27 501.87 332.4 502.13 331.58L502.68 329.89L503.68 331.36C504.89 333.14 506.33 334.35 507.78 334.8C509.03 332.94 509.83 330.27 509.82 327.96V326.25L511.2 327.24C513.45 328.85 515.56 329.48 517.11 329.71C517.64 326.42 517.43 323.87 516.95 321.11L516.7 319.69L518.07 320.12C518.88 320.38 519.5 320.62 520.04 320.84C521.12 321.28 521.88 321.58 523.51 321.65C525.25 314.89 522.62 308.06 516.37 303.14L510.75 309.61L507.82 311.13C490.12 317.35 475.99 317.43 457.7 311.4L455.42 317.25C453.69 323.59 454.19 329.82 456.88 335.34C458.15 334.6 459.48 333.4 460.77 332.23L462.1 331.03L462.52 332.31C462.79 333.13 462.94 334 463.09 334.93C463.43 336.92 463.78 338.97 465.33 340.79C467.62 339.51 469.59 337.74 471.19 335.53L472.42 333.82V333.84Z" fill="black"/>
<path d="M523.03 322.32L518.73 322.06L517.33 324.66C517.26 321.13 515.18 317.96 514.77 316.05C515.74 318.06 518.71 320.36 523.02 322.32H523.03ZM514.9 329.92L511.28 328.62L509.54 331.04C509.95 327.53 509.34 321.79 509.2 319.85C509.89 321.96 511.71 327.45 514.9 329.92ZM505.37 333.84L503.24 332.54L501.5 334.96C501.91 331.45 501.16 324.48 501.03 322.54C501.72 324.65 504.08 331.49 505.38 333.83H505.37V333.84ZM495 336.92L492.87 335.62L491.13 338.04C491.54 334.53 491.74 328.3 491.6 326.36C492.29 328.47 493.7 334.57 495.01 336.92H495ZM484.37 338.09L482.24 336.79L480.5 339.21C480.91 335.7 481.11 329.47 480.97 327.53C481.66 329.64 483.07 335.74 484.38 338.09H484.37ZM469.32 338.46L471.45 337.16L473.19 339.58C472.78 336.07 472.58 331.68 472.72 329.74C472.03 331.85 470.62 336.11 469.31 338.46H469.32ZM459.27 334.61L461.4 333.31L463.14 335.73C462.73 332.22 462.53 327.83 462.67 325.89C461.98 328 460.57 332.26 459.26 334.61H459.27Z" fill="black"/>
<path d="M452.16 288.06C452.16 288.06 445.47 298.76 444.13 304.29C443.26 307.86 443.38 313.43 443.38 313.43C445.55 313.31 447.73 312.87 449.9 310.92C450.12 313.97 449.79 317.01 451.91 320.06C454.08 319.3 456.76 318.29 458.93 314.57C459.1 318.36 459.87 320.6 462.19 324.17C465.04 323.34 467.27 320.25 469.47 318.23C469.52 320.99 470.27 324.08 472.98 328.06C476.54 326.12 478.6 321.62 479.43 319.07C480.33 321.48 482.32 326.11 485.88 328.06C488.59 324.08 489.35 321 489.39 318.23C491.58 320.26 493.82 323.34 496.67 324.17C498.99 320.6 499.76 318.36 499.93 314.57C502.1 318.29 504.78 319.29 506.95 320.06C509.07 317.01 508.73 313.97 508.96 310.92C511.13 312.87 514.11 314.56 516.29 314.69C516.72 314.3 518.42 308.95 517.6 305.76C520.16 307.78 522.34 309.13 526.12 309.03C526.74 306.08 526.21 303.12 525.58 300.45C529.68 301.86 534.13 302.24 537.3 300.72C529.9 288.19 518.2 286.15 505.34 283.99C490.78 296.05 473.31 298.3 452.16 288.07V288.06Z" fill="#FEBB26"/>
<path d="M486.16 329.21L485.46 328.83C483.12 327.55 481.1 325.07 479.46 321.44C478.43 323.78 476.49 327.14 473.4 328.83L472.7 329.21L472.25 328.56C470.27 325.65 469.13 322.95 468.74 320.19C468.62 320.32 468.49 320.45 468.37 320.58C466.68 322.34 464.77 324.34 462.43 325.02L461.81 325.2L461.46 324.66C459.56 321.74 458.66 319.67 458.27 317.03C456.17 319.5 453.84 320.32 452.19 320.89L451.56 321.11L451.18 320.56C449.31 317.87 449.21 315.22 449.1 312.65V312.62C447.11 313.91 445.14 314.2 443.41 314.3L442.5 314.35L442.48 313.44C442.48 313.21 442.38 307.72 443.26 304.07C444.61 298.47 451.12 288.03 451.4 287.58L451.82 286.92L452.53 287.26C462.72 292.19 472.34 294.29 481.13 293.5C489.55 292.75 497.51 289.31 504.77 283.3L505.08 283.04L505.47 283.11C518.28 285.26 530.37 287.3 538.03 300.26L538.51 301.08L537.65 301.49C534.87 302.82 530.95 302.89 526.73 301.71C527.22 304.1 527.49 306.63 526.95 309.19L526.81 309.87L526.12 309.89C522.83 309.98 520.64 309.01 518.66 307.65C518.68 310.84 517.52 314.72 516.85 315.33L516.58 315.58L516.21 315.56C514.08 315.44 511.62 314.1 509.72 312.69C509.62 315.24 509.5 317.88 507.65 320.56L507.27 321.11L506.64 320.89C504.99 320.31 502.66 319.49 500.56 317.03C500.17 319.67 499.27 321.74 497.37 324.66L497.02 325.2L496.4 325.02C494.07 324.34 492.15 322.34 490.46 320.58C490.33 320.45 490.21 320.32 490.09 320.19C489.7 322.95 488.56 325.65 486.58 328.56L486.13 329.21H486.16ZM479.37 316.43L480.25 318.77C481.72 322.7 483.53 325.43 485.62 326.87C487.57 323.83 488.47 321.13 488.52 318.22L488.55 316.27L489.98 317.6C490.57 318.14 491.14 318.74 491.74 319.37C493.18 320.87 494.66 322.42 496.3 323.12C498.27 319.98 498.9 317.96 499.05 314.54L499.18 311.58L500.68 314.14C502.52 317.29 504.71 318.32 506.59 319.01C507.82 316.92 507.91 314.81 508 312.59C508.02 312.03 508.05 311.44 508.09 310.86L508.22 309.09L509.54 310.28C511.54 312.08 514.02 313.44 515.8 313.76C516.33 312.43 517.38 308.43 516.75 305.98L516.11 303.47L518.14 305.08C520.62 307.04 522.48 308.09 525.38 308.16C525.75 305.62 525.29 303.06 524.72 300.65L524.35 299.11L525.85 299.63C529.72 300.96 533.35 301.19 536 300.31C528.8 288.94 517.53 286.94 505.57 284.93C498.11 291.02 489.94 294.5 481.28 295.27C472.37 296.07 462.69 294.03 452.47 289.21C451.01 291.62 446.06 299.97 444.96 304.52C444.34 307.09 444.24 310.8 444.23 312.51C445.87 312.33 447.59 311.83 449.3 310.29L450.62 309.1L450.75 310.87C450.79 311.45 450.82 312.03 450.84 312.6C450.93 314.82 451.01 316.93 452.25 319.02C454.13 318.33 456.32 317.3 458.16 314.15L459.66 311.59L459.79 314.55C459.94 317.97 460.57 320 462.54 323.13C464.18 322.42 465.66 320.88 467.1 319.38C467.7 318.75 468.28 318.15 468.86 317.61L470.29 316.28L470.32 318.23C470.37 321.14 471.27 323.84 473.22 326.88C474.56 325.94 477.02 323.65 478.58 318.82L479.35 316.44H479.37V316.43Z" fill="black"/>
<path d="M529.11 301.6L526.56 301.35L526.24 304.23C524.83 300.95 522.66 296.32 521.56 294.65C522.63 296.6 528.17 301.02 532.08 301.6H529.11ZM521.22 307.87L517.82 305.93L518.19 310.35C516.99 307 515.11 302.27 514.11 300.55C515.69 302.21 518.97 306.22 521.22 307.88V307.87ZM512.35 313.84L509.36 311.39L508.9 315.8C508.35 312.31 507.39 307.35 506.73 305.51C507.97 307.4 510.45 311.86 512.35 313.84ZM502.68 317.08L500.38 316.04L498.99 318.64C498.91 315.11 498.63 310.09 498.22 308.18C499.2 310.19 501.06 314.9 502.68 317.08ZM481.45 321.58L479.48 320.08L477.46 322.31C478.29 318.86 479.3 313.66 479.4 311.72C479.83 313.88 480.43 319.11 481.45 321.58ZM492.07 320.18L489.77 319.14L488.38 321.74C488.3 318.21 488.02 313.19 487.61 311.28C488.59 313.29 490.45 318 492.07 320.18ZM466.68 320.7L468.98 319.66L470.37 322.26C470.45 318.73 470.73 313.71 471.14 311.8C470.16 313.81 468.3 318.52 466.68 320.7ZM456.16 317.23L458.46 316.19L459.85 318.79C459.93 315.26 460.78 308.95 461.19 307.04C460.21 309.05 457.79 315.05 456.16 317.22V317.23ZM447.21 312.33L449.63 311.55L450.67 314.28C451.21 310.79 452.2 306.48 452.85 304.63C451.62 306.52 449.1 310.34 447.21 312.33Z" fill="black"/>
<path d="M509.32 277.42C511.65 278.06 512.61 277.3 515.31 277.67C513.87 272.06 513.45 270.08 508.57 266.29C512.17 267.24 512.72 266.36 515 266.58C509.92 258.15 510.85 249.61 503.27 245.25C505.64 239.52 504.09 238.36 502.03 233.16C501.52 231.86 501.78 229.02 501.78 229.02C501.78 229.02 495.29 230.23 492.95 232.86C491.6 234.38 489.9 236.51 489.9 236.51C490.43 233.32 490.08 231.92 487.38 229.85C486.24 231.27 484.95 234.44 483.6 235.67C483.14 232.78 482.51 230.31 479.9 228.46C477.62 230.46 476.31 232.7 476.2 235.67C474.84 234.43 473.55 231.26 472.42 229.85C469.72 231.92 469.36 233.32 469.9 236.51C469.9 236.51 468.2 234.38 466.85 232.86C464.51 230.23 458.02 229.02 458.02 229.02C458.02 229.02 458.09 231.81 457.77 233.16C457.02 236.28 453.33 240.33 456.53 245.25C447.34 251.07 449.34 258.88 444.27 267.31C446.56 267.09 446.99 268.22 450.59 267.27C445.71 271.05 445.37 271.82 443.93 277.42C445.7 276.78 447.2 277.29 450.65 276.41C449.48 278.91 446.96 280.74 445.55 281.92C442.08 284.85 440.65 287.78 439.79 291.17C442.07 291.2 444.34 290.47 446.62 289.88C445.84 292.58 445.45 294.57 446.38 298.46C449.8 297.21 451.49 295.89 453.68 294.6C453.4 297.1 453.25 300.04 454.15 302.54C456.43 301.93 458.7 300.57 460.98 298.25C460.93 301.52 461.91 303.84 463.1 305.97C465.19 304.78 467.3 303.59 468.99 302.11C469.67 304.43 469.83 306.44 472.29 309.83C476.04 308.31 476.81 306.1 478.18 304.04C478.7 305.95 479.63 308.04 482.37 310.96C485.96 308.6 485.78 306.23 486.79 303.87C487.61 305.57 489.34 308.56 492.05 309.81C494.09 307.7 494.41 304.83 494.99 303.11C496.83 305.2 498.97 307.02 501.93 308.09C503.47 305.28 503.52 302.92 503.4 300.62C505.99 303.34 508.59 304.11 511.18 304.83C511.83 302.28 511.65 299.72 511.18 297.17C513.91 299.13 516.65 300.06 519.38 299.47C519.52 296.65 518.61 294.54 517.7 292.19C520.45 292.67 523.08 292.92 525.27 292.38C525.27 292.38 523.77 289.03 521.91 287.4C519.5 285.3 516.25 283.77 513.85 281.66C512.46 280.44 509.34 277.4 509.34 277.4L509.32 277.42Z" fill="#FEBB26"/>
<path d="M482.22 312.11L481.72 311.57C479.64 309.35 478.56 307.57 477.93 306.08C476.93 307.69 475.66 309.42 472.6 310.66L471.96 310.92L471.56 310.36C469.48 307.48 468.96 305.53 468.48 303.65C467.02 304.75 465.36 305.69 463.75 306.61L462.75 307.18L462.32 306.41C461.36 304.68 460.46 302.74 460.18 300.19C458.31 301.78 456.36 302.86 454.36 303.39L453.58 303.6L453.31 302.85C452.55 300.74 452.49 298.37 452.63 296.27C451.02 297.27 449.36 298.31 446.66 299.3L445.74 299.64L445.51 298.68C444.7 295.31 444.86 293.22 445.36 291.12C443.54 291.6 441.66 292.08 439.75 292.05H438.64L438.91 290.96C439.65 288.06 440.94 284.64 444.95 281.26C445.14 281.1 445.35 280.93 445.57 280.75C446.56 279.94 447.82 278.91 448.79 277.68C447.89 277.81 447.15 277.86 446.5 277.9C445.57 277.95 444.9 277.99 444.19 278.25L442.63 278.82L443.04 277.22C444.25 272.53 444.79 271.01 447.62 268.53C447.06 268.5 446.61 268.41 446.18 268.33C445.59 268.21 445.07 268.11 444.31 268.19L442.58 268.35L443.47 266.87C445.29 263.85 446.17 260.91 447.03 258.06C448.47 253.28 449.83 248.75 455.31 244.99C453.31 241.23 454.81 237.89 455.93 235.4C456.33 234.52 456.7 233.69 456.87 232.96C457.11 231.95 457.12 229.79 457.1 229.05L457.07 227.97L458.13 228.17C458.41 228.22 464.94 229.47 467.45 232.29C467.88 232.78 468.35 233.33 468.79 233.85C468.93 232.14 469.75 230.77 471.84 229.17L472.52 228.65L473.05 229.32C473.57 229.97 474.09 230.89 474.63 231.87C474.93 232.41 475.25 232.98 475.57 233.5C476.09 231.39 477.3 229.55 479.27 227.82L479.79 227.37L480.35 227.77C482.63 229.38 483.53 231.43 484.04 233.63C484.39 233.08 484.73 232.46 485.06 231.87C485.61 230.89 486.12 229.97 486.64 229.32L487.17 228.65L487.85 229.17C489.94 230.77 490.76 232.14 490.9 233.85C491.34 233.33 491.8 232.78 492.24 232.29C494.75 229.47 501.28 228.22 501.56 228.17L502.7 227.96L502.59 229.11C502.5 230.13 502.47 232.04 502.78 232.84C503.14 233.74 503.48 234.53 503.79 235.22C505.22 238.47 506.03 240.34 504.29 244.89C508.77 247.78 510.24 252.22 511.79 256.9C512.78 259.9 513.81 263.01 515.68 266.12L516.57 267.6L514.84 267.44C514.08 267.37 513.53 267.44 512.94 267.5C512.48 267.55 511.99 267.61 511.38 267.61C514.27 270.41 514.86 272.7 515.98 277.07L516.4 278.7L515.11 278.53C513.98 278.38 513.18 278.44 512.4 278.5C512.16 278.52 511.92 278.54 511.67 278.55C512.6 279.43 513.66 280.44 514.32 281.02C515.48 282.03 516.89 282.95 518.26 283.83C519.67 284.74 521.13 285.67 522.37 286.76C524.36 288.5 525.89 291.9 525.96 292.04L526.39 293L525.37 293.25C523.35 293.74 521.01 293.6 518.96 293.31C519.68 295.21 520.27 297.12 520.15 299.53L520.12 300.2L519.47 300.34C517.14 300.85 514.76 300.4 512.24 298.96C512.51 301.27 512.41 303.2 511.93 305.06L511.71 305.93L510.85 305.69C508.79 305.12 506.51 304.48 504.21 302.65C504.15 304.42 503.8 306.34 502.6 308.53L502.24 309.19L501.54 308.93C499.26 308.1 497.26 306.79 495.32 304.85C494.88 306.51 494.26 308.7 492.58 310.44L492.15 310.88L491.59 310.62C489.52 309.67 487.97 307.83 486.88 306.05C486.33 307.82 485.64 309.81 482.76 311.7L482.15 312.1H482.22V312.11ZM478.5 301.98L479.01 303.84C479.44 305.42 480.17 307.24 482.49 309.83C484.43 308.36 484.86 306.96 485.35 305.35C485.53 304.77 485.71 304.17 485.97 303.56L486.73 301.79L487.56 303.52C488.26 304.98 489.71 307.48 491.83 308.74C492.93 307.35 493.38 305.64 493.75 304.24C493.88 303.74 494.01 303.27 494.15 302.85L494.63 301.42L495.63 302.55C497.53 304.7 499.36 306.1 501.5 307.01C502.61 304.66 502.62 302.67 502.52 300.69L502.4 298.34L504.03 300.05C506.21 302.34 508.39 303.15 510.52 303.77C510.85 301.92 510.78 299.9 510.32 297.36L509.93 295.23L511.69 296.49C514.16 298.26 516.4 299 518.52 298.76C518.49 296.63 517.81 294.92 517.05 292.96L516.32 291.1L517.85 291.37C519.69 291.69 521.97 292 523.97 291.77C523.41 290.71 522.42 289.06 521.33 288.1C520.18 287.1 518.78 286.2 517.42 285.32C516 284.4 514.52 283.46 513.27 282.36C511.88 281.14 508.86 278.2 508.73 278.07L509.57 276.6C510.7 276.91 511.43 276.85 512.37 276.78C512.9 276.74 513.48 276.7 514.17 276.72C512.97 272.09 512.33 270.33 508.05 267.01L508.81 265.47C510.91 266.02 511.85 265.91 512.84 265.8C513.06 265.77 513.28 265.75 513.52 265.73C512 262.88 511.06 260.04 510.22 257.48C508.64 252.7 507.28 248.58 502.86 246.04L502.19 245.66L502.48 244.95C504.29 240.57 503.7 239.22 502.27 235.96C501.96 235.25 501.61 234.45 501.24 233.52C500.88 232.61 500.84 231.18 500.86 230.16C498.7 230.69 495.08 231.84 493.62 233.49C492.3 234.97 490.62 237.09 490.6 237.11L488.5 239.75L489.06 236.42C489.49 233.88 489.35 232.72 487.58 231.17C487.29 231.63 486.98 232.18 486.66 232.76C485.89 234.14 485.1 235.56 484.2 236.37L483 237.46L482.74 235.86C482.35 233.44 481.86 231.29 479.95 229.65C478.06 231.48 477.16 233.39 477.08 235.75L477.01 237.63L475.62 236.36C474.73 235.55 473.93 234.12 473.16 232.75C472.84 232.18 472.53 231.63 472.24 231.16C470.47 232.71 470.33 233.87 470.76 236.41L471.32 239.74L469.22 237.1C469.22 237.1 467.52 234.97 466.2 233.48C464.73 231.82 461.06 230.66 458.9 230.14C458.89 231.11 458.83 232.51 458.62 233.4C458.41 234.28 458 235.19 457.57 236.14C456.38 238.8 455.14 241.55 457.26 244.81L457.74 245.55L456.99 246.02C451.47 249.52 450.2 253.72 448.74 258.59C447.97 261.14 447.18 263.77 445.74 266.5C446.03 266.54 446.29 266.59 446.55 266.64C447.48 266.82 448.35 266.99 450.36 266.46L451.12 268C446.87 271.3 446.26 272.1 445.13 276.29C445.55 276.24 445.97 276.21 446.43 276.19C447.49 276.13 448.69 276.06 450.43 275.61L452.22 275.15L451.44 276.82C450.34 279.17 448.16 280.95 446.71 282.14C446.49 282.32 446.29 282.48 446.11 282.64C443.48 284.85 441.94 287.13 440.95 290.3C442.36 290.16 443.78 289.78 445.28 289.39C445.65 289.29 446.03 289.19 446.4 289.1L447.88 288.72L447.46 290.19C446.79 292.51 446.41 294.23 447.02 297.35C449.03 296.53 450.36 295.7 451.77 294.82C452.24 294.52 452.73 294.22 453.24 293.92L454.75 293.03L454.56 294.77C454.33 296.79 454.17 299.31 454.74 301.52C456.68 300.84 458.53 299.59 460.37 297.71L461.9 296.14L461.86 298.33C461.82 301.06 462.55 303.09 463.45 304.84C465.22 303.83 467 302.77 468.41 301.53L469.44 300.62L469.83 301.94C469.96 302.38 470.07 302.81 470.18 303.23C470.61 304.91 471.03 306.5 472.59 308.82C474.95 307.7 475.84 306.25 476.77 304.72C476.99 304.37 477.21 304 477.45 303.64L478.51 302.04V301.98H478.5Z" fill="black"/>
<path d="M460.55 233.59C460.55 233.59 460.75 235.53 460.46 236.52C459.9 238.41 458.92 240 458.81 241.95C458.74 243.28 460.19 245.79 460.19 245.79C460.19 245.79 461.13 242.71 462.67 242.11C464.2 241.51 467.35 242.95 467.35 242.95C467.35 242.95 467.15 240.11 466.71 239.02C465.73 236.58 460.56 233.59 460.56 233.59H460.55ZM498.9 233.59C498.9 233.59 493.74 236.58 492.75 239.02C492.31 240.11 492.11 242.95 492.11 242.95C492.11 242.95 495.26 241.52 496.79 242.11C498.33 242.71 499.27 245.79 499.27 245.79C499.27 245.79 500.72 243.28 500.65 241.95C500.54 239.99 499.65 238.41 499.09 236.52C498.8 235.54 498.91 233.59 498.91 233.59H498.9ZM458.99 250.06C456.7 251.46 455.9 253.83 456.51 255.91C456.98 257.51 458.48 258.76 460.46 259.5C460.36 259.59 460.38 259.57 460.28 259.67C459.5 260.38 458.6 261.33 458.26 262.51C456.86 267.45 457.78 272.26 460.83 275.38C459.22 277.54 456.19 282.35 454.87 285.08C457.53 282.91 460.27 279 462.3 276.64C463.2 277.29 464.23 277.79 465.33 278.23C464.2 280.38 461.94 286.05 461.11 289.1C463.52 286.31 465.65 281.42 467.26 278.9C468.05 279.11 468.89 279.2 469.74 279.32C469.11 281.12 469.34 283.01 470.38 284.59C469.24 286.62 466.86 292.53 465.98 295.62C468.25 293.05 470.26 288.71 471.85 286.09C472.77 286.83 473.89 287.39 475.24 287.76C474.73 290.38 474.14 295.86 474.14 298.79C475.64 295.78 476.43 291.07 477.26 288.17C477.83 288.23 478.38 288.34 479 288.34C479.36 288.34 479.67 288.28 480.01 288.26C480.59 291.22 480.98 295.84 482.21 298.88C482.43 296.01 482.32 290.72 482.03 288.01C483.06 287.79 483.97 287.43 484.78 287.01C486.08 289.74 487.54 294.52 489.55 297.37C489.03 294.17 487.4 287.89 486.52 285.84C486.77 285.61 487.05 285.42 487.25 285.17C488.35 283.86 488.73 282.2 488.53 280.57C491.26 282.8 495.73 286.76 498.71 288.51C496.94 286.02 492.06 281.13 489.81 279.06C492.12 278.57 494.28 277.75 495.96 276.47C498.55 278.63 503.84 284.78 507.06 286.67C505.18 284.03 499.33 277.04 497.33 275.14C500.21 272.02 501.08 267.34 499.72 262.52C499.38 261.33 498.48 260.39 497.7 259.68C497.6 259.59 497.62 259.6 497.52 259.51C499.49 258.76 500.99 257.52 501.47 255.92C502.09 253.84 501.28 251.47 498.99 250.07C499.64 251.91 500.11 253.37 499.54 255.5C499.18 256.86 497.86 258.05 495.5 258.34L492.93 258.67L495.04 260.01C495.04 260.01 495.57 260.41 496.23 261.01C496.89 261.61 497.64 262.47 497.79 263.02C499.05 267.46 497.79 271.23 495.13 273.89C492.47 276.55 488.25 278.39 483.48 277.73C480.17 277.27 480.08 276.52 480.09 273.8C480.71 273.74 481.48 273.58 482.2 273.21C482.86 272.88 483.12 272.53 483.39 272.21C483.66 271.88 483.88 271.65 483.94 271.62C484.8 271.25 486.14 271.37 486.14 271.37L487.24 271.62L487.33 270.53C487.4 269.59 487.63 268.98 486.87 267.44C486.25 266.19 485.32 265.44 484.67 265.02C484.35 264.81 484.16 264.71 484.03 264.6C483.9 264.49 483.87 264.44 483.85 264.35C483 261.22 482.74 258.51 483.57 255.9C484.07 254.34 485.77 253.02 487.97 252.72C490.35 252.41 493.24 253.07 494.58 253.31C493.26 251.81 490.69 250.36 487.42 250.89C484.74 251.32 482.32 252.98 481.55 255.4C480.6 258.39 480.95 261.54 481.83 264.77C481.96 265.26 482.25 265.67 482.56 265.94C482.87 266.21 483.2 266.42 483.48 266.61C484.04 266.98 484.6 267.31 485.04 268.2C485.42 268.97 485.27 268.94 485.22 269.61C484.56 269.56 484.16 269.08 483.11 269.53C482.42 269.83 482.03 270.34 481.73 270.7C481.43 271.06 481.16 271.34 481.27 271.29C480.98 271.43 480.38 271.57 479.89 271.62C479.4 271.67 478.97 271.62 478.97 271.62C478.97 271.62 478.54 271.67 478.05 271.62C477.56 271.57 476.96 271.43 476.67 271.29C476.78 271.34 476.51 271.07 476.21 270.7C475.91 270.34 475.53 269.83 474.83 269.53C473.78 269.08 473.38 269.56 472.72 269.61C472.67 268.94 472.53 268.96 472.9 268.2C473.34 267.31 473.9 266.98 474.46 266.61C474.74 266.43 475.06 266.21 475.38 265.94C475.7 265.67 475.98 265.26 476.11 264.77C476.98 261.55 477.34 258.39 476.39 255.4C475.62 252.98 473.19 251.32 470.52 250.89C467.25 250.36 464.68 251.81 463.36 253.31C464.7 253.07 467.59 252.41 469.97 252.72C472.17 253.01 473.88 254.33 474.37 255.9C475.2 258.51 474.94 261.22 474.09 264.35C474.07 264.44 474.04 264.49 473.91 264.6C473.78 264.71 473.59 264.81 473.27 265.02C472.62 265.44 471.68 266.19 471.07 267.44C470.31 268.98 470.54 269.58 470.61 270.53L470.7 271.62L471.8 271.37C471.8 271.37 473.14 271.25 474 271.62C474.06 271.64 474.28 271.88 474.55 272.21C474.82 272.54 475.09 272.88 475.74 273.21C476.46 273.57 477.23 273.73 477.85 273.8C478.05 276.68 477.54 277.22 474.46 277.73C469.71 278.51 465.47 276.54 462.81 273.89C460.15 271.24 458.89 267.47 460.15 263.02C460.3 262.47 461.05 261.62 461.71 261.01C462.37 260.4 462.9 260.01 462.9 260.01L465.01 258.67L462.44 258.34C460.08 258.04 458.77 256.86 458.4 255.5C457.83 253.37 458.31 251.91 458.95 250.07H458.99V250.06ZM469.27 254.81C468.48 254.81 467.53 255.07 466.43 255.56C466.81 257.69 469.28 260.52 473.5 258.23C472.83 256.59 471.66 254.78 469.28 254.8H469.27V254.81ZM488.72 254.81C486.34 254.79 485.17 256.6 484.5 258.24C488.72 260.52 491.19 257.7 491.57 255.57C490.47 255.08 489.52 254.83 488.73 254.82H488.72V254.81ZM478.99 278.04C479.26 278.19 479.52 278.34 480.18 278.63C481.1 279.03 482.16 279.38 483.3 279.47C484.29 279.55 485.26 279.59 486.24 279.55C486.9 281 486.66 282.04 485.6 283.31C484.43 284.71 482.27 285.73 478.99 285.73C475.71 285.73 473.46 284.7 472.29 283.31C471.23 282.04 471.07 281 471.74 279.55C472.71 279.59 473.68 279.55 474.68 279.47C475.82 279.38 476.88 279.04 477.8 278.63C478.46 278.34 478.73 278.19 478.99 278.04ZM453.39 282.05C449.94 284.48 446.86 289.12 443.3 290.24L446.51 289.82L446.88 292.91C448.58 286.24 452.02 286.59 453.39 282.04V282.05ZM459.72 283.4C456.7 286.26 453.52 294.44 450.18 296.02L453.3 295.1L454.13 298.11C454.75 291.29 459.1 288.08 459.73 283.4H459.72ZM509.45 284.57C510.38 288.39 516.5 289.72 518.07 295.6L518.44 292.59L522.2 292.76C515.41 289.75 515.44 289.11 509.45 284.57ZM502.38 284.9C502.53 288.81 510.54 294.57 510.91 300.61L511.92 297.77L514.86 299.02C511.12 295.91 505.18 287.17 502.38 284.89V284.9ZM464.03 289.84C461.59 293.13 460.6 298.04 457.61 300.12L460.45 298.78L461.92 301.62C461.24 294.8 464.29 294.54 464.03 289.83V289.84ZM498.25 290.1C498.09 294.01 503.41 297.28 502.38 304.06L503.94 301.3L506.78 302.8C503.9 300.59 500.86 292.54 498.25 290.09V290.1ZM491.83 291.28C490.79 295.9 495.19 299.6 493.39 306.24L495.23 303.57L497.89 305.33C495.27 302.86 493.7 294.88 491.83 291.29V291.28ZM470.36 293.94C468.49 297.53 468.76 302.26 466.14 304.72L468.8 302.96L470.64 305.55C468.84 298.9 471.4 298.55 470.36 293.93V293.94ZM484.86 294.54C483.44 299.07 487.21 300.58 484.86 307.08L486.97 304.66L489.36 306.5C486.95 303.86 486.43 298.25 484.86 294.55V294.54ZM478.53 297.2C476.97 300.91 478.09 303.84 475.69 306.48L478.17 304.56L480.19 307.07C477.84 300.57 479.96 301.74 478.54 297.21H478.53V297.2Z" fill="black"/>
</svg>
