<svg width="271" height="196" viewBox="0 0 271 196" fill="none" xmlns="http://www.w3.org/2000/svg">
<path d="M19.23 97.26C19.23 97.26 16.4 66.72 22.49 47.98C26.69 35.05 33.18 24.45 43.67 15.81C60.06 2.31001 85.37 -1.25 103.13 6.85C87.58 7.66 66.76 12.91 55.48 22.33C46.84 29.54 40.09 39.68 36.75 50.43C31.07 68.71 33.9 98.08 33.9 98.08L19.24 97.27L19.23 97.26Z" fill="#FEBB26"/>
<path d="M34.86 99L18.43 98.09L18.36 97.34C18.33 97.03 15.59 66.4 21.66 47.71C26.17 33.83 32.99 23.47 43.11 15.13C51.11 8.53998 61.64 3.99999 72.75 2.35999C83.78 0.729986 94.7 2.03997 103.49 6.04997L106.74 7.52998L103.17 7.71999C88.35 8.49999 67.29 13.61 56.04 22.99C47.58 30.05 40.85 40.14 37.58 50.68C32.02 68.58 34.74 97.69 34.76 97.98L34.86 98.99V99ZM20.04 96.43L32.94 97.15C32.51 91.8 30.84 66.49 35.91 50.17C39.28 39.32 46.21 28.93 54.92 21.66C60.22 17.24 68.01 13.39 77.45 10.53C84.47 8.39998 92.1 6.91999 99.31 6.24999C91.5 3.48999 82.31 2.71998 73.02 4.08998C62.22 5.68998 52 10.09 44.23 16.48C34.37 24.6 27.73 34.69 23.33 48.25C17.9 64.98 19.67 91.63 20.05 96.43H20.04Z" fill="black"/>
<path d="M30.31 47.32C25.06 63.17 25.06 80.65 25.58 95.67L27.53 95.59C27.01 80.64 27.13 63.4 32.18 47.93C37.23 32.46 47.13 18.76 66.43 10.61C43.39 15.79 33.01 39.15 30.3 47.32H30.31Z" fill="black"/>
<path d="M19.11 85.77H33.12V117.19H19.11V85.77Z" fill="#FEBB26"/>
<path d="M34 118.06H18.24V84.89H34V118.06ZM19.99 116.31H32.25V86.64H19.99V116.31Z" fill="black"/>
<path d="M75.17 145.06C66.75 137.24 66.12 143.16 49.27 120.46C49.27 120.46 41.91 122.71 38.08 122.86C36.08 122.94 34.03 122.68 32.15 122.06C28.69 120.93 22.71 116.86 22.71 116.86L21.17 103.66C21.17 103.66 18.13 103.17 17.22 101.86C16.44 100.73 16.43 98.98 17.22 97.86C18.35 96.25 20.1 95.87 22.27 95.26C26.33 94.12 30.86 94.2 35 95.06C38.67 95.82 41.52 97.59 45.1 98.66C56.1 101.95 79.34 104.06 79.34 104.06L75.17 145.05V145.06Z" fill="#FEBB26"/>
<path d="M75.86 146.89L74.57 145.7C71.91 143.23 70.1 142.2 68.18 141.1C64.23 138.85 60.14 136.52 48.93 121.47C47.08 122.01 41.41 123.6 38.1 123.73C35.96 123.81 33.8 123.52 31.87 122.89C28.33 121.73 22.46 117.75 22.21 117.58L21.88 117.36L20.37 104.4C19.31 104.16 17.32 103.56 16.5 102.37C15.51 100.94 15.51 98.79 16.5 97.37C17.73 95.62 19.51 95.13 21.57 94.56L22.02 94.43C25.9 93.34 30.57 93.27 35.16 94.22C37.35 94.67 39.27 95.48 41.13 96.25C42.47 96.81 43.86 97.39 45.33 97.83C56.13 101.06 79.17 103.17 79.4 103.2L80.28 103.28L75.84 146.9H75.86V146.89ZM49.6 119.43L49.97 119.93C61.24 135.12 65.21 137.38 69.05 139.57C70.66 140.49 72.32 141.44 74.47 143.26L78.38 104.84C73.98 104.42 54.73 102.45 44.85 99.49C43.28 99.02 41.86 98.42 40.47 97.84C38.61 97.06 36.85 96.32 34.82 95.9C30.5 95.01 26.12 95.07 22.5 96.09L22.04 96.22C20.16 96.74 18.8 97.12 17.93 98.35C17.35 99.17 17.36 100.52 17.93 101.35C18.41 102.04 20.19 102.6 21.3 102.78L21.95 102.89L22.03 103.55L23.52 116.35C24.81 117.2 29.56 120.29 32.41 121.22C34.15 121.79 36.09 122.05 38.03 121.98C41.7 121.84 48.93 119.64 49 119.62L49.59 119.44H49.6V119.43Z" fill="black"/>
<path d="M18.32 114.46C18.32 114.46 23.96 114.52 26.66 114.26C28.62 114.07 30.27 113.04 32.37 113.86C33.62 114.35 34.78 116.86 34.78 116.86C34.78 116.86 32.88 119.16 31.49 119.66C27.61 121.05 22.24 121.35 18.76 119.26C17.83 118.7 17.46 117.48 17.44 116.46C17.44 115.74 18.32 114.46 18.32 114.46Z" fill="#FEBB26"/>
<path d="M25.06 121.64C22.64 121.64 20.23 121.17 18.3 120.01C17.04 119.25 16.58 117.69 16.56 116.47C16.55 115.54 17.35 114.32 17.59 113.96L17.85 113.58H18.31C18.37 113.58 23.94 113.64 26.56 113.39C27.12 113.34 27.67 113.2 28.24 113.06C29.52 112.74 30.98 112.39 32.67 113.05C34.17 113.64 35.34 116.02 35.56 116.5L35.79 117L35.44 117.42C35.23 117.67 33.35 119.92 31.77 120.49C29.81 121.19 27.43 121.65 25.05 121.65H25.06V121.64ZM18.79 115.33C18.52 115.79 18.31 116.27 18.31 116.44C18.31 117.15 18.56 118.11 19.2 118.5C22.51 120.49 27.74 120.07 31.19 118.83C31.91 118.57 33 117.53 33.73 116.72C33.27 115.88 32.56 114.87 32.04 114.66C30.87 114.2 29.85 114.45 28.67 114.74C28.06 114.89 27.43 115.05 26.74 115.11C24.46 115.33 20.23 115.33 18.79 115.32V115.33Z" fill="black"/>
<path d="M18.0999 109.46C18.0999 109.46 23.7399 109.52 26.4399 109.26C28.3999 109.07 31.14 107.64 33.24 108.46C34.49 108.95 35.65 111.46 35.65 111.46C35.65 111.46 33.75 113.76 32.36 114.26C28.48 115.65 22.01 116.35 18.53 114.26C17.6 113.7 17.23 112.48 17.21 111.46C17.21 110.74 18.09 109.46 18.09 109.46H18.0999Z" fill="#FEBB26"/>
<path d="M24.62 116.45C22.14 116.45 19.78 116.03 18.09 115.01C16.83 114.25 16.3699 112.69 16.3499 111.47C16.3399 110.54 17.1399 109.32 17.3799 108.96L17.64 108.58H18.0999C18.1599 108.58 23.7299 108.64 26.3499 108.39C26.9299 108.33 27.62 108.15 28.36 107.95C30.01 107.5 31.88 107 33.55 107.65C35.05 108.24 36.2199 110.62 36.4399 111.1L36.67 111.6L36.3199 112.02C36.1099 112.27 34.23 114.52 32.65 115.09C30.33 115.92 27.39 116.46 24.61 116.46L24.62 116.45ZM18.58 110.33C18.31 110.79 18.0999 111.27 18.0999 111.44C18.0999 112.15 18.35 113.11 18.99 113.5C22.01 115.31 28.0099 114.89 32.0699 113.43C32.7799 113.17 33.88 112.13 34.61 111.32C34.15 110.48 33.44 109.47 32.92 109.26C31.78 108.82 30.2799 109.22 28.8199 109.62C28.0099 109.84 27.24 110.05 26.52 110.12C24.24 110.34 20.0099 110.34 18.5699 110.33H18.58Z" fill="black"/>
<path d="M18.0999 103.86C18.0999 103.86 23.7399 103.92 26.4399 103.66C28.3999 103.47 31.14 102.04 33.24 102.86C34.49 103.35 35.65 105.86 35.65 105.86C35.65 105.86 33.75 108.16 32.36 108.66C28.48 110.05 22.01 110.75 18.53 108.66C17.6 108.1 17.23 106.88 17.21 105.86C17.21 105.14 18.09 103.86 18.09 103.86H18.0999Z" fill="#FEBB26"/>
<path d="M24.62 110.85C22.14 110.85 19.78 110.43 18.09 109.41C16.83 108.65 16.3699 107.09 16.3499 105.87C16.3399 104.94 17.1399 103.72 17.3799 103.36L17.64 102.98H18.0999C18.1599 102.98 23.7299 103.04 26.3499 102.79C26.9299 102.73 27.62 102.55 28.36 102.35C30.01 101.9 31.88 101.4 33.55 102.05C35.05 102.64 36.2199 105.02 36.4399 105.5L36.67 106L36.3199 106.42C36.1099 106.67 34.23 108.92 32.65 109.49C30.33 110.32 27.39 110.86 24.61 110.86L24.62 110.85ZM18.58 104.73C18.31 105.19 18.0999 105.67 18.0999 105.84C18.0999 106.55 18.35 107.51 18.99 107.9C22.01 109.71 28.0099 109.29 32.0699 107.83C32.7899 107.57 33.88 106.53 34.61 105.72C34.15 104.88 33.44 103.87 32.92 103.66C31.78 103.22 30.2799 103.62 28.8199 104.02C28.0099 104.24 27.24 104.45 26.52 104.52C24.24 104.74 20.0099 104.73 18.5699 104.73H18.58Z" fill="black"/>
<path d="M36.65 89.87H46.13L50.68 86.82L46.15 83.7H36.67L26.39 81.15L16.11 83.7H6.09L1.56 86.82L6.10999 89.87H16.13L26.39 92.81L36.65 89.87Z" fill="#FEBB26"/>
<path d="M26.39 93.73L16.01 90.75H5.84L0 86.83L5.81998 82.83H16.01L26.4 80.25L36.79 82.83H46.44L52.26 86.83L46.42 90.75H36.79L26.41 93.73H26.39ZM6.37 89H16.25L26.39 91.91L36.53 89H45.87L49.13 86.81L45.88 84.58H36.56L26.39 82.05L16.21 84.58H6.34998L3.09998 86.81L6.35999 89H6.37Z" fill="black"/>
<path d="M154.59 0.859985C153.42 0.859985 152.25 0.889972 151.09 0.939972L152.16 63.97L142.79 21.98C140.35 22.38 137.94 22.9 135.57 23.53L147.56 66.55L121.7 6.91998C119.3 7.81998 116.94 8.81997 114.62 9.90997L143.15 69.9L116.7 31.49C114.63 32.72 112.63 34.05 110.7 35.47L136 68.5L90.75 25.94C88.94 27.61 87.2 29.37 85.53 31.18L133.8 73.77L95.51 50.57C94.15 52.41 92.89 54.32 91.72 56.3L137.2 81.03L138.95 78.28L139.76 79.03L143.52 75.59L145.36 74.42V74.51L149.4 73.01V73.09L152.89 72.26H156.38L159.96 73.09V73.01L164 74.51V74.42L165.84 75.59L169.6 79.03L170.41 78.28L171.7 80.37L170.78 80.71L172.71 85.06L173.82 89.31L225.93 79.94C225.6 77.7 225.16 75.5 224.61 73.35L173.54 84.88L241.65 60.33C240.84 58.1 239.94 55.92 238.95 53.79L178.03 77.85L217.57 56.36C216.4 54.38 215.15 52.46 213.79 50.62L175.56 73.77L223.79 31.23C222.13 29.43 220.39 27.69 218.59 26.03L173.37 68.59L198.61 35.53C196.69 34.12 194.7 32.78 192.64 31.55L168.78 66.19L168.14 65.85L194.72 9.95998C192.39 8.85998 190.01 7.86999 187.6 6.96999L163.19 63.26L162.82 63.06L173.81 23.6C171.42 22.96 169 22.42 166.55 22.02L157.88 60.48L158.97 0.999985C157.52 0.929985 156.07 0.889984 154.61 0.889984L154.59 0.859985Z" fill="#FEBB26"/>
<path d="M173.2 90.28L172.11 86.08L160.01 88.81L171.61 84.63L170.35 81.8L165.04 83.9L170.07 81.17L169.63 80.19L168.43 79.1L167.67 79.56L168.31 78.99L165.33 76.27L163.98 75.42L160.27 74.04L156.3 73.12H153.02L150.5 73.72L151.85 78.57L149.82 73.88L149.12 74.05L146.58 75L148.69 79.43L145.83 75.28L145.44 75.43L144.09 76.28L141.11 79L141.76 79.57L141 79.11L139.8 80.21L139.16 79.62L137.53 82.17L90.54 56.61L91 55.83C92.17 53.85 93.46 51.9 94.84 50.03L95.31 49.39L125.91 67.93L84.31 31.22L84.92 30.56C86.72 28.61 88.44 26.88 90.19 25.27L90.79 24.72L128.79 60.47L109.49 35.28L110.21 34.75C112.17 33.31 114.22 31.96 116.28 30.73L116.98 30.31L137.68 60.37L113.49 9.48999L114.28 9.12C116.61 8.01999 119.02 6.99999 121.42 6.09999L122.2 5.81L143.33 54.54L134.52 22.92L135.37 22.69C137.76 22.05 140.21 21.52 142.67 21.12L143.49 20.99L151.16 55.38L150.22 0.110001L151.08 0.0800018C152.45 0.0300018 153.57 0 154.61 0C156.03 0 157.51 0.0400006 159.01 0.110001L159.86 0.149994L158.91 51.91L165.88 21L166.69 21.13C169.11 21.53 171.59 22.07 174.04 22.73L174.89 22.96L166.25 53.97L187.13 5.84L187.91 6.12999C190.52 7.10999 192.87 8.09999 195.1 9.14999L195.89 9.51999L171.69 60.42L192.4 30.36L193.1 30.78C195.08 31.96 197.12 33.31 199.14 34.8L199.86 35.33L180.56 60.61L218.6 24.81L219.2 25.36C221 27.02 222.77 28.79 224.45 30.61L225.06 31.27L183.5 67.94L214.05 49.44L214.52 50.08C215.84 51.87 217.12 53.82 218.35 55.9L218.81 56.68L191.07 71.76L239.43 52.66L239.78 53.41C240.78 55.56 241.69 57.78 242.51 60.02L242.81 60.84L187.14 80.91L225.28 72.3L225.49 73.12C226.04 75.27 226.49 77.51 226.83 79.8L226.95 80.64L173.21 90.3V90.28H173.2ZM173.81 85.69L174.48 88.27L224.95 79.2C224.68 77.56 224.36 75.94 223.98 74.36L173.81 85.69ZM171.98 81.17L173.25 84.03H173.26L240.54 59.77C239.92 58.12 239.24 56.48 238.51 54.87L173 80.74L173.02 80.78L171.97 81.16H171.98V81.17ZM170.25 79.62L169.65 80.17L170.42 79.89L170.25 79.62ZM171.01 77.53L172.46 79.87L216.37 56C215.47 54.51 214.53 53.09 213.58 51.76L171.02 77.54H171.01V77.53ZM92.96 55.93L136.92 79.84L138.39 77.53L95.76 51.71C94.77 53.09 93.83 54.5 92.95 55.94H92.96V55.93ZM138.79 76.89L139.78 77.81L142.26 75.54L90.76 27.1C89.45 28.33 88.14 29.65 86.8 31.08L138.76 76.93L138.78 76.89H138.79ZM167.17 75.58L169.61 77.81L170.61 76.88L170.63 76.92L222.54 31.13C221.26 29.77 219.94 28.45 218.59 27.18L167.17 75.58ZM163.13 72.8L166.38 74.86L167.01 75.43L197.38 35.66C195.88 34.58 194.37 33.58 192.9 32.68L169.07 67.28L166.99 66.19L193.55 10.34C191.82 9.55 190.02 8.78999 188.06 8.03999L163.6 64.43L161.78 63.44L172.72 24.16C170.88 23.69 169.03 23.28 167.21 22.96L156.83 68.97L158.06 1.78C156.88 1.73 155.71 1.70999 154.59 1.70999C153.79 1.70999 152.95 1.70999 151.98 1.75999L153.17 71.34H156.49L159.09 71.94V71.7L163.13 73.2V72.8ZM111.95 35.62L142.42 75.39L143 74.86L144.76 73.74L116.45 32.63C114.92 33.56 113.41 34.56 111.94 35.61H111.95V35.62ZM146.25 72.81V73.23L149.07 72.18L121.25 8.01999C119.42 8.72999 117.6 9.49999 115.81 10.32L145.7 73.16L146.26 72.81H146.25ZM150.29 71.73V71.96L152.8 71.36H152.92L142.13 22.97C140.29 23.29 138.46 23.68 136.67 24.14L149.97 71.85L150.3 71.73H150.29Z" fill="black"/>
<path d="M154.59 55.93C134.26 55.93 117.54 70.95 117.54 89.68C117.54 108.41 134.25 123.52 154.59 123.52C174.93 123.52 191.74 108.42 191.74 89.68C191.74 70.94 174.92 55.93 154.59 55.93Z" fill="#FEBB26"/>
<path d="M154.59 124.4C133.68 124.4 116.66 108.83 116.66 89.68C116.66 70.53 133.67 55.05 154.59 55.05C175.51 55.05 192.61 70.58 192.61 89.68C192.61 108.78 175.55 124.4 154.59 124.4ZM154.59 56.81C134.64 56.81 118.41 71.56 118.41 89.69C118.41 107.82 134.64 122.66 154.59 122.66C174.54 122.66 190.86 107.87 190.86 89.69C190.86 71.51 174.59 56.81 154.59 56.81Z" fill="black"/>
<path d="M24.55 194.39H250.59V181.62H24.55V194.39Z" fill="#FEBB26"/>
<path d="M251.47 195.26H23.68V180.74H251.47V195.26ZM25.43 193.51H249.72V182.48H25.43V193.51Z" fill="black"/>
<path d="M31.7 180.63C31.86 183.04 32.69 186.89 33.64 188C29.96 187.47 29.7799 183.04 29.3199 180.72L31.6899 180.63H31.7ZM38.5399 180.63C38.6999 183.04 39.53 186.89 40.4799 188C36.7999 187.47 36.6199 183.04 36.1599 180.72L38.53 180.63H38.5399ZM45.3799 180.63C45.5399 183.04 46.3699 186.89 47.3199 188C43.6399 187.47 43.46 183.04 43 180.72L45.37 180.63H45.3799ZM52.22 180.63C52.38 183.04 53.2099 186.89 54.1599 188C50.4799 187.47 50.3 183.04 49.84 180.72L52.21 180.63H52.22ZM59.06 180.63C59.22 183.04 60.05 186.89 61 188C57.32 187.47 57.14 183.04 56.68 180.72L59.05 180.63H59.06ZM65.9 180.63C66.06 183.04 66.89 186.89 67.84 188C64.16 187.47 63.98 183.04 63.52 180.72L65.89 180.63H65.9ZM72.74 180.63C72.9 183.04 73.73 186.89 74.68 188C71 187.47 70.82 183.04 70.36 180.72L72.7299 180.63H72.74ZM79.58 180.63C79.74 183.04 80.57 186.89 81.52 188C77.84 187.47 77.66 183.04 77.2 180.72L79.5699 180.63H79.58ZM86.42 180.63C86.58 183.04 87.41 186.89 88.36 188C84.68 187.47 84.4999 183.04 84.0399 180.72L86.4099 180.63H86.42ZM93.2599 180.63C93.42 183.04 94.25 186.89 95.2 188C91.52 187.47 91.3399 183.04 90.8799 180.72L93.25 180.63H93.2599ZM100.1 180.63C100.26 183.04 101.09 186.89 102.04 188C98.3599 187.47 98.18 183.04 97.72 180.72L100.09 180.63H100.1ZM106.94 180.63C107.1 183.04 107.93 186.89 108.88 188C105.2 187.47 105.02 183.04 104.56 180.72L106.93 180.63H106.94ZM113.78 180.63C113.94 183.04 114.77 186.89 115.72 188C112.04 187.47 111.86 183.04 111.4 180.72L113.77 180.63H113.78ZM120.62 180.63C120.78 183.04 121.61 186.89 122.56 188C118.88 187.47 118.7 183.04 118.24 180.72L120.61 180.63H120.62ZM127.46 180.63C127.62 183.04 128.45 186.89 129.4 188C125.72 187.47 125.54 183.04 125.08 180.72L127.45 180.63H127.46ZM134.3 180.63C134.46 183.04 135.29 186.89 136.24 188C132.56 187.47 132.38 183.04 131.92 180.72L134.29 180.63H134.3ZM141.14 180.63C141.3 183.04 142.13 186.89 143.08 188C139.4 187.47 139.22 183.04 138.76 180.72L141.13 180.63H141.14ZM147.98 180.63C148.14 183.04 148.97 186.89 149.92 188C146.24 187.47 146.06 183.04 145.6 180.72L147.97 180.63H147.98ZM154.82 180.63C154.98 183.04 155.81 186.89 156.76 188C153.08 187.47 152.9 183.04 152.44 180.72L154.81 180.63H154.82ZM161.66 180.63C161.82 183.04 162.65 186.89 163.6 188C159.92 187.47 159.74 183.04 159.28 180.72L161.65 180.63H161.66ZM168.5 180.63C168.66 183.04 169.49 186.89 170.44 188C166.76 187.47 166.58 183.04 166.12 180.72L168.49 180.63H168.5ZM175.34 180.63C175.5 183.04 176.33 186.89 177.28 188C173.6 187.47 173.42 183.04 172.96 180.72L175.33 180.63H175.34ZM182.18 180.63C182.34 183.04 183.17 186.89 184.12 188C180.44 187.47 180.26 183.04 179.8 180.72L182.17 180.63H182.18ZM189.02 180.63C189.18 183.04 190.01 186.89 190.96 188C187.28 187.47 187.1 183.04 186.64 180.72L189.01 180.63H189.02ZM195.86 180.63C196.02 183.04 196.85 186.89 197.8 188C194.12 187.47 193.94 183.04 193.48 180.72L195.85 180.63H195.86ZM202.7 180.63C202.86 183.04 203.69 186.89 204.64 188C200.96 187.47 200.78 183.04 200.32 180.72L202.69 180.63H202.7ZM209.54 180.63C209.7 183.04 210.53 186.89 211.48 188C207.8 187.47 207.62 183.04 207.16 180.72L209.53 180.63H209.54ZM216.38 180.63C216.54 183.04 217.37 186.89 218.32 188C214.64 187.47 214.46 183.04 214 180.72L216.37 180.63H216.38ZM223.22 180.63C223.38 183.04 224.21 186.89 225.16 188C221.48 187.47 221.3 183.04 220.84 180.72L223.21 180.63H223.22ZM230.06 180.63C230.22 183.04 231.05 186.89 232 188C228.32 187.47 228.14 183.04 227.68 180.72L230.05 180.63H230.06ZM236.9 180.63C237.06 183.04 237.89 186.89 238.84 188C235.16 187.47 234.98 183.04 234.52 180.72L236.89 180.63H236.9ZM243.74 180.63C243.9 183.04 244.73 186.89 245.68 188C242 187.47 241.82 183.04 241.36 180.72L243.73 180.63H243.74Z" fill="black"/>
<path d="M163.96 148.9C159.54 156.27 165.67 162.85 162.34 168.49C162.34 168.49 155.26 167.22 151.58 167.06C149.03 166.95 145.27 166.95 143.09 167.95C139.2 169.74 135.84 172.19 134.07 174.91C130.85 179.87 134.78 184.46 140.59 182.03C145.79 186.81 151.91 183.75 159.41 181.14C160.95 180.6 163.2 181.18 165.09 181.57C167.06 181.97 169.29 182.29 171.15 181.57C175.57 179.86 178.57 174.83 181.37 166.75L185.73 168.58C185.78 165.13 184.24 162.49 182.23 160.1L187.43 161.85C187.46 158.41 185.78 155.9 184.07 154.01L189.07 155.86C189.07 155.86 188.65 154.07 188.57 151.42C188.52 149.7 188.93 147.19 188.59 146.05C188.01 144.08 187.24 143.3 186.74 141.86C186.34 140.71 185.85 138.34 185.85 138.34C170.79 131.74 174.03 116.19 176.8 109.61L148.12 129.39C142.33 133.16 150.28 146.73 163.95 148.92V148.9H163.96Z" fill="#FEBB26"/>
<path d="M146.96 185.42C144.66 185.42 142.49 184.77 140.43 183.03C137.51 184.08 134.78 183.59 133.2 181.7C131.61 179.8 131.67 177.02 133.35 174.43C135.11 171.72 138.44 169.13 142.73 167.15C144.55 166.31 147.46 165.99 151.63 166.18C154.72 166.32 160.05 167.2 161.88 167.51C162.92 165.31 162.5 162.91 162.01 160.17C161.44 156.96 160.81 153.35 162.63 149.54C157.44 148.45 153.7 145.93 151.43 143.94C148.33 141.22 146.18 137.94 145.54 134.93C144.95 132.15 145.7 129.92 147.66 128.65L178.78 107.19L177.62 109.94C176.92 111.61 174.69 117.55 175.52 123.85C176.35 130.19 179.95 134.79 186.22 137.54L186.63 137.72L186.72 138.16C186.72 138.16 187.2 140.49 187.58 141.58C187.77 142.13 188.01 142.58 188.28 143.1C188.65 143.81 189.08 144.6 189.43 145.81C189.68 146.66 189.6 147.93 189.52 149.27C189.47 150.01 189.43 150.78 189.45 151.4C189.53 153.93 189.92 155.65 189.93 155.67L190.3 157.25L186.6 155.88C187.56 157.44 188.34 159.42 188.31 161.87V163.07L184.6 161.83C185.74 163.63 186.65 165.85 186.61 168.6L186.59 169.9L181.89 167.93C178.84 176.42 175.7 180.76 171.47 182.4C169.41 183.2 167.01 182.87 164.92 182.44C164.72 182.4 164.52 182.36 164.31 182.31C162.69 181.97 160.85 181.58 159.71 181.98C158.88 182.27 158.05 182.57 157.26 182.86C153.56 184.2 150.14 185.44 146.96 185.44V185.42ZM140.78 181.01L141.19 181.39C145.42 185.28 150.38 183.48 156.66 181.2C157.46 180.91 158.29 180.61 159.13 180.31C160.73 179.75 162.82 180.19 164.67 180.58C164.87 180.62 165.07 180.67 165.27 180.71C167.1 181.09 169.2 181.38 170.83 180.75C174.67 179.26 177.58 174.99 180.54 166.46L180.85 165.58L184.79 167.23C184.53 165.02 183.52 162.99 181.56 160.66L179.56 158.28L186.48 160.61C186.13 157.89 184.61 155.9 183.42 154.59L184.37 153.18L187.95 154.5C187.84 153.72 187.73 152.67 187.7 151.44C187.68 150.74 187.73 149.93 187.78 149.15C187.85 148.07 187.92 146.85 187.76 146.29C187.46 145.26 187.09 144.57 186.74 143.91C186.46 143.38 186.16 142.83 185.93 142.14C185.62 141.25 185.27 139.7 185.11 138.95C178.59 135.96 174.68 130.82 173.8 124.08C173.17 119.31 174.18 114.75 175.08 111.87L148.65 130.1C146.95 131.2 146.96 133.14 147.27 134.57C148.41 139.93 155.18 146.61 164.12 148.04L165.4 148.24L164.74 149.35C162.54 153.01 163.16 156.5 163.75 159.87C164.28 162.9 164.83 166.03 163.12 168.93L162.81 169.45L162.21 169.34C162.14 169.33 155.14 168.08 151.57 167.92C147.74 167.75 145.02 168.03 143.48 168.74C139.48 170.58 136.41 172.94 134.83 175.38C133.59 177.3 133.48 179.29 134.56 180.58C135.72 181.97 137.91 182.21 140.29 181.21L140.81 180.99L140.78 181.01Z" fill="black"/>
<path d="M164.54 135.85C162.53 135.11 159.52 133.46 158.86 130.54L161.04 125.99C160.09 131.13 163.54 134.89 164.54 135.85ZM161.25 138.62C159.24 137.88 156.23 136.23 155.57 133.31L157.75 128.76C156.8 133.9 160.25 137.66 161.25 138.62ZM158.48 141.88C156.47 141.14 153.46 139.49 152.8 136.57L154.98 132.02C154.03 137.16 157.48 140.92 158.48 141.88ZM154.95 172.44C154.95 172.44 150.62 172.21 148.07 172.61C146.38 172.87 144.72 173.48 143.3 174.45C141.67 175.56 139.71 176.98 139.17 179.13C138.93 180.09 139.22 181.06 139.45 181.8C139.68 182.55 139.91 183.14 139.91 183.14L141.84 182.39C141.84 182.39 141.57 181.92 141.38 181.3C141.19 180.69 141.11 179.89 141.2 179.54C141.53 178.2 142.98 176.98 144.5 175.95C148.12 173.09 151.64 173.95 154.96 172.44H154.95ZM169.98 171.68C171.51 169.62 174.11 167.27 175.02 164.42C175.93 161.56 176.25 158.56 175.22 156.13C173.26 156.98 169.25 171.12 169.97 171.68H169.98ZM180.99 148.93C180.48 151.84 175.73 151.76 173.68 151.02C171.62 150.29 170.09 147.78 171.12 145.43C171.94 148.63 177.08 150.12 181 148.93H180.99ZM181.75 141.78C181.24 144.69 176.49 144.61 174.44 143.87C172.38 143.14 170.85 140.63 171.88 138.28C172.7 141.48 177.84 142.97 181.76 141.78H181.75Z" fill="black"/>
<path d="M252.89 28.56C253.77 32.54 252.01 35.28 249.72 36.38C246.27 38.03 243.06 36.92 240.18 34.46C236.43 31.26 233.89 27 230.55 24.18C226.31 20.61 221.19 19.65 216.79 19.92C212.38 20.19 208.43 22 205.6 24.85C199.92 30.55 198.46 40.77 204.41 49.17C210.01 57.08 226.84 62.7 233.22 67.48C238.95 71.77 241.48 74.61 242.58 77.77C243.68 80.93 244.1 84.94 242.4 88.8C240.35 93.45 235.46 95.44 228.17 95.59C218.48 95.78 209.34 87.59 199.99 86.22C182.48 83.65 177.5 90.46 161.23 90.65C129 91.03 115.85 81.29 115.85 81.29L80.91 121.74C70.24 125.72 69.68 140.41 80.91 148.32C77.7 150.16 74.52 153.98 73.11 157.18C71.34 161.21 69.89 163.71 67.7 166.63C67.7 166.63 60.64 165.37 56.96 165.21C54.41 165.1 50.61 165.12 48.43 166.13C44.54 167.92 41.2 170.34 39.44 173.07C36.22 178.03 40.14 182.61 45.95 180.17C51.15 184.95 57.26 181.95 64.76 179.33C66.3 178.79 68.57 179.36 70.45 179.75C72.42 180.15 74.67 180.51 76.51 179.75C80.83 177.96 82.78 173.36 85.87 170.14C87.32 168.62 90.18 165.54 90.18 165.54L93.02 169.13C94.94 166.15 95.03 163.17 94.58 160.19L98.16 164.03C100.05 161.06 99.91 158.09 99.44 155.67L102.83 159.51C102.83 159.51 103.39 157.84 104.76 155.5C105.65 153.98 107.37 151.96 107.7 150.82C108.26 148.85 108.43 146.31 108.43 146.31C110.39 148.02 111.88 148.9 114.39 148.57C114.75 145 115.01 143.92 115.95 142.47C128.42 141.87 140.03 139.88 150.54 135.87C158.48 132.84 165.84 128.7 172.38 123.16C174.09 121.72 175.46 120.95 177.06 119.32C178.63 117.71 185.15 118.53 188.44 119.74C190.03 120.32 192.02 122.75 192.02 122.75C194.65 129.46 200.87 145.48 217.99 148.91C213.57 156.28 219.67 162.92 216.34 168.55C216.34 168.55 209.28 167.21 205.6 167.05C203.05 166.94 199.34 166.96 197.16 167.97C193.27 169.76 189.84 172.18 188.08 174.91C184.86 179.87 188.78 184.54 194.59 182.1C199.79 186.88 205.9 183.8 213.4 181.18C214.94 180.64 217.21 181.21 219.09 181.6C221.06 182 223.29 182.32 225.15 181.6C229.57 179.89 232.62 174.88 235.43 166.81L239.74 168.57C239.79 165.12 238.26 162.52 236.25 160.13L241.48 161.89C241.51 158.45 239.8 155.92 238.09 154.03L243.14 155.87C243.14 155.87 242.67 154.09 242.59 151.44C242.54 149.72 242.93 147.23 242.59 146.09C242.01 144.12 241.25 143.35 240.75 141.91C240.35 140.76 239.92 138.4 239.92 138.4C230.9 134.24 228.91 127.38 228.82 121.18C228.7 113 227.34 108.37 221.66 103.42C223.65 103.1 225.7 103.36 227.44 103.38C238.28 103.5 247.16 98.44 249.81 91C251.58 86.04 251.6 80.47 249.45 76.22C246.37 70.13 243.11 67.5 236.89 62.85C229.88 57.6 213.69 51.75 209.36 45.63C204.72 39.08 206.07 32.36 209.91 28.49C213.68 24.7 219.85 22.92 226.52 28.16C230.52 31.3 232.95 35.76 236.25 38.52C240.1 41.74 246.81 44.4 252.58 41.03C258.57 37.53 259.36 32.35 258.78 27.95C259.78 24.34 263.24 21.25 269.29 20.97C267.37 17.29 258.55 13.58 254.8 21.27C250.3 15.15 241.7 18.12 240.09 23.95C244.59 23.01 249.52 24.44 252.91 28.62L252.89 28.56Z" fill="#FEBB26"/>
<path d="M200.9 185.45C198.61 185.45 196.45 184.8 194.39 183.07C191.49 184.11 188.77 183.62 187.19 181.73C185.59 179.81 185.64 177 187.32 174.4C189.05 171.74 192.4 169.16 196.77 167.14C198.59 166.3 201.57 165.96 205.62 166.14C208.71 166.28 214.02 167.21 215.85 167.54C216.89 165.34 216.47 162.93 215.99 160.18C215.43 156.94 214.8 153.31 216.65 149.48C200.04 145.51 193.9 129.94 191.24 123.16C190.65 122.47 189.18 120.91 188.12 120.52C184.47 119.18 178.71 118.83 177.67 119.89C176.63 120.95 175.7 121.65 174.72 122.39C174.15 122.82 173.56 123.26 172.93 123.8C166.61 129.15 159.18 133.47 150.84 136.65C140.91 140.44 129.65 142.61 116.44 143.29C115.79 144.42 115.56 145.51 115.25 148.63L115.18 149.32L114.5 149.41C112.28 149.71 110.75 149.16 109.12 147.98C109 148.88 108.81 150.03 108.52 151.04C108.28 151.89 107.52 152.96 106.72 154.1C106.28 154.73 105.82 155.37 105.5 155.92C104.2 158.14 103.65 159.75 103.65 159.77L103.17 161.2L100.6 158.29C100.63 160.15 100.26 162.31 98.88 164.47L98.27 165.42L95.66 162.61C95.7 164.73 95.3 167.14 93.74 169.56L93.08 170.59L90.11 166.83C89.17 167.84 87.48 169.64 86.48 170.69C85.51 171.7 84.67 172.84 83.77 174.05C81.9 176.58 79.96 179.2 76.82 180.5C74.74 181.36 72.34 180.98 70.25 180.55C70.07 180.51 69.88 180.47 69.69 180.43C68.05 180.08 66.18 179.69 65.02 180.1C64.23 180.38 63.45 180.66 62.68 180.93C56.25 183.25 50.68 185.27 45.74 181.11C42.82 182.16 40.09 181.67 38.52 179.79C36.94 177.9 36.99 175.11 38.67 172.52C40.42 169.82 43.75 167.24 48.03 165.26C49.86 164.42 52.87 164.08 56.97 164.26C60.11 164.4 65.56 165.3 67.29 165.6C69.31 162.86 70.65 160.48 72.28 156.76C73.67 153.61 76.51 150.2 79.35 148.2C73.97 143.94 71.14 137.75 71.91 131.76C72.56 126.71 75.64 122.78 80.36 120.94L115.69 80.04L116.34 80.52C116.34 80.52 119.67 82.94 126.81 85.25C133.41 87.39 144.73 89.9 161.19 89.71C168.09 89.63 172.93 88.34 177.62 87.09C183.96 85.4 189.94 83.8 200.08 85.29C204.37 85.92 208.63 87.95 212.74 89.9C217.75 92.28 222.93 94.75 228.11 94.65C235.46 94.51 239.73 92.52 241.56 88.38C243.3 84.43 242.61 80.55 241.72 77.99C240.68 74.98 238.14 72.21 232.66 68.12C230.44 66.46 226.8 64.63 222.94 62.69C215.65 59.03 207.38 54.88 203.66 49.61C200.72 45.46 199.37 40.71 199.74 35.87C200.09 31.35 201.94 27.2 204.95 24.17C208.01 21.1 212.18 19.26 216.71 18.98C220.57 18.75 226.2 19.33 231.09 23.45C232.79 24.88 234.24 26.61 235.77 28.44C237.29 30.26 238.87 32.15 240.73 33.73C243.71 36.28 246.53 36.87 249.33 35.53C251.13 34.67 252.78 32.48 252.07 28.89C249.09 25.32 244.69 23.75 240.25 24.68L238.85 24.97L239.23 23.59C240.13 20.33 243.12 17.7 246.66 17.04C249.7 16.48 252.54 17.41 254.64 19.61C256.22 17.16 258.56 15.8 261.35 15.76H261.47C265.26 15.76 268.86 18.17 270.04 20.44L270.67 21.65L269.3 21.71C264.33 21.95 260.74 24.25 259.64 27.89C260.39 34 258.16 38.64 252.99 41.66C250.2 43.29 246.91 43.75 243.47 42.98C240.7 42.36 237.93 40.97 235.66 39.07C234.08 37.75 232.73 36.1 231.3 34.35C229.69 32.39 228.03 30.36 225.95 28.72C218.04 22.51 212.13 27.35 210.5 28.98C205.74 33.76 206.84 40.47 210.04 44.99C212.55 48.53 219.4 52.07 226.02 55.49C230.41 57.76 234.57 59.91 237.38 62.01C243.61 66.68 247.01 69.4 250.19 75.69C252.36 79.99 252.52 85.77 250.6 91.16C247.83 98.95 238.69 104.13 227.78 104.13H227.39C226.89 104.13 226.37 104.1 225.83 104.07C225.12 104.04 224.39 104 223.67 104.01C228.54 108.88 229.54 113.73 229.65 121.05C229.77 128.98 233.14 134.21 240.24 137.49L240.65 137.68L240.73 138.13C240.73 138.13 241.15 140.44 241.52 141.51C241.71 142.07 241.95 142.51 242.22 143.03C242.59 143.73 243.01 144.53 243.37 145.73C243.62 146.58 243.55 147.85 243.47 149.2C243.43 149.93 243.38 150.69 243.4 151.3C243.48 153.8 243.92 155.52 243.92 155.54L244.34 157.15L240.55 155.77C241.53 157.34 242.32 159.34 242.3 161.79V162.99L238.55 161.74C239.68 163.53 240.59 165.75 240.55 168.48L240.53 169.76L235.88 167.87C232.84 176.33 229.68 180.67 225.4 182.33C223.34 183.13 220.94 182.8 218.85 182.37C218.67 182.33 218.48 182.29 218.29 182.25C216.65 181.9 214.78 181.51 213.62 181.92C212.77 182.22 211.92 182.52 211.11 182.82C207.42 184.16 204.02 185.4 200.85 185.4L200.9 185.45ZM194.75 181.04L195.16 181.42C199.37 185.29 204.31 183.5 210.56 181.23C211.38 180.93 212.23 180.62 213.09 180.32C214.71 179.76 216.83 180.2 218.69 180.59C218.88 180.63 219.06 180.67 219.24 180.7C221.07 181.08 223.17 181.37 224.81 180.74C228.66 179.25 231.67 174.85 234.58 166.47L234.88 165.6L238.77 167.18C238.44 164.41 236.99 162.33 235.56 160.63L233.56 158.25L240.51 160.58C240.16 157.87 238.62 155.87 237.42 154.55L238.37 153.14L241.97 154.45C241.85 153.66 241.73 152.62 241.7 151.4C241.68 150.71 241.72 149.91 241.77 149.14C241.83 148.06 241.9 146.83 241.74 146.27C241.44 145.24 241.07 144.55 240.72 143.89C240.44 143.36 240.15 142.81 239.91 142.13C239.6 141.23 239.28 139.69 239.14 138.94C231.73 135.37 228.07 129.55 227.94 121.13C227.82 113.48 226.77 108.97 221.08 104.01L219.68 102.79L221.52 102.49C223.04 102.24 224.59 102.32 225.95 102.38C226.48 102.41 226.98 102.43 227.45 102.43C237.79 102.55 246.43 97.8 248.99 90.63C250.75 85.68 250.63 80.41 248.67 76.53C245.66 70.58 242.55 68.09 236.37 63.46C233.67 61.44 229.59 59.33 225.26 57.09C218.45 53.57 211.41 49.93 208.66 46.04C203.63 38.93 205.36 31.75 209.3 27.78C213.18 23.88 219.88 21.73 227.07 27.37C229.3 29.13 231.03 31.23 232.69 33.27C234.06 34.95 235.36 36.53 236.81 37.75C240.8 41.09 247.08 43.13 252.14 40.17C256.76 37.47 258.65 33.48 257.91 27.96L257.89 27.78L257.94 27.61C259.07 23.53 262.66 20.81 267.67 20.13C266.3 18.73 263.9 17.53 261.5 17.53H261.4C259.63 17.55 257.19 18.27 255.59 21.54L254.96 22.84L254.1 21.68C252.37 19.33 249.78 18.27 247 18.78C244.61 19.22 242.53 20.75 241.47 22.75C246.09 22.3 250.53 24.19 253.59 27.97L253.72 28.13L253.76 28.33C254.61 32.21 253.18 35.66 250.11 37.12C246.67 38.76 243.14 38.07 239.62 35.07C237.65 33.39 236.03 31.45 234.46 29.57C232.98 27.8 231.57 26.12 229.99 24.79C225.54 21.05 220.39 20.52 216.84 20.73C212.74 20.98 208.97 22.64 206.21 25.41C203.49 28.14 201.82 31.9 201.51 36.01C201.17 40.44 202.42 44.8 205.11 48.61C208.58 53.52 216.64 57.56 223.75 61.13C227.68 63.1 231.39 64.97 233.73 66.72C239.51 71.05 242.22 74.05 243.39 77.42C244.38 80.28 245.15 84.63 243.18 89.09C241.08 93.85 236.17 96.24 228.17 96.4C222.57 96.5 217.21 93.95 212.01 91.48C207.82 89.49 203.87 87.61 199.84 87.02C190.05 85.58 184.24 87.13 178.08 88.78C173.29 90.06 168.34 91.38 161.22 91.46C151.97 91.57 138.37 90.86 126.16 86.88C120.58 85.06 117.3 83.21 115.98 82.38L81.4 122.42L81.19 122.5C76.97 124.07 74.22 127.53 73.65 131.99C72.91 137.71 75.88 143.67 81.39 147.55L82.51 148.34L81.32 149.02C78.44 150.67 75.32 154.22 73.89 157.47C72.13 161.47 70.64 164.08 68.38 167.09L68.06 167.52L67.53 167.43C67.46 167.42 60.48 166.18 56.91 166.02C53.14 165.85 50.33 166.14 48.78 166.86C44.79 168.7 41.73 171.05 40.16 173.48C38.92 175.4 38.81 177.39 39.88 178.67C41.04 180.05 43.23 180.29 45.6 179.3L46.12 179.08L46.53 179.46C50.78 183.37 55.78 181.57 62.1 179.28C62.87 179 63.66 178.72 64.46 178.44C66.08 177.88 68.19 178.32 70.06 178.71C70.25 178.75 70.43 178.79 70.61 178.82C72.44 179.2 74.54 179.54 76.16 178.87C78.85 177.76 80.56 175.44 82.37 172.99C83.26 171.79 84.18 170.55 85.22 169.46C86.65 167.96 89.49 164.9 89.52 164.87L90.21 164.12L92.88 167.5C93.9 165.44 94.14 163.19 93.69 160.24L93.27 157.45L97.95 162.48C99.13 160.01 98.91 157.62 98.55 155.76L97.95 152.62L102.52 157.8C102.84 157.08 103.32 156.1 103.97 154.98C104.33 154.37 104.81 153.69 105.27 153.03C105.92 152.11 106.66 151.06 106.82 150.5C107.35 148.64 107.52 146.19 107.52 146.17L107.64 144.41L108.97 145.57C110.62 147.01 111.81 147.74 113.57 147.68C113.89 144.67 114.19 143.45 115.19 141.91L115.43 141.53L115.88 141.51C129.1 140.87 140.33 138.73 150.2 134.96C158.36 131.85 165.62 127.62 171.78 122.4C172.45 121.83 173.06 121.38 173.65 120.93C174.58 120.23 175.45 119.58 176.4 118.61C178.44 116.52 185.5 117.64 188.7 118.82C190.46 119.47 192.43 121.83 192.65 122.09L192.74 122.2L192.83 122.42C195.44 129.07 201.55 144.63 218.12 147.95L219.33 148.19L218.69 149.25C216.49 152.91 217.1 156.42 217.69 159.81C218.22 162.85 218.76 165.99 217.05 168.89L216.74 169.42L216.14 169.31C216.07 169.3 209.1 167.98 205.53 167.82C201.82 167.66 199.04 167.95 197.49 168.66C193.42 170.54 190.32 172.89 188.77 175.28C187.52 177.21 187.42 179.23 188.51 180.54C189.67 181.93 191.86 182.18 194.21 181.19L194.73 180.97L194.75 181.04Z" fill="black"/>
<path d="M208.93 98.22C212.81 97.54 217.1 99.98 221.28 101.51C223.77 102.42 226.02 102.12 226.85 102.69L223.08 103.37L227.79 111.66C225.55 107.53 213.15 99.13 208.94 98.22H208.93ZM199.52 121.38C200.5 128.47 202.83 133.94 206.95 138.01C211.07 142.08 216.84 144.71 224.38 146.37C221.77 142.54 213.06 139.68 209.15 136.26C203.87 131.64 202.87 123.8 199.52 121.38ZM221.98 167.34C223.12 165.08 225.26 162.37 225.64 159.42C226.02 156.47 225.79 153.46 224.34 151.22C222.56 152.35 221.16 166.9 221.97 167.34H221.98ZM196.04 117.7C197.66 115.15 193.92 112.49 191.81 111.87C189.7 111.26 186.78 112.32 185.95 114.74C188.8 112.72 193.82 114.53 196.03 117.7H196.04ZM147.8 115.49C149.25 120.67 165.24 127.4 168.49 125.82L173.11 123.18C167.34 126.1 152.23 120.53 147.81 115.49H147.8ZM139.87 116.63C139.63 120.84 157.78 130.94 162.01 130.24L166.77 127.82C160.51 131.1 140.03 119.29 139.87 116.64V116.63ZM135.68 121.62C136.48 126.91 151.15 135.25 154.57 134.02L159.49 131.87C151.83 133.66 138.67 126.8 135.68 121.61V121.62ZM131.12 126.48C130.75 130.53 140.22 136.99 144.68 137.79L149.81 136.11C143.34 137.12 132.96 130.66 131.12 126.48ZM123.89 127.64C123.37 131.09 131.38 139.79 134.96 140.1L140.29 139.05C135.13 140.36 124.42 130.17 123.89 127.64ZM119.68 132.91C119.47 134.8 121.87 139.89 125.47 141.54L130.9 141.06C123.98 140.32 120.32 134.17 119.68 132.91ZM113.25 135.89C113.28 137.87 113.86 141.02 116.61 142.64L122.06 142.45C116.46 141.38 113.88 137.09 113.25 135.89ZM86.86 143.01C87.37 145.92 92.12 145.84 94.17 145.1C96.23 144.37 97.76 141.86 96.73 139.51C95.91 142.71 90.77 144.2 86.85 143.01H86.86ZM86.98 149.78C87.49 152.69 92.24 152.61 94.29 151.87C96.35 151.14 97.88 148.63 96.85 146.28C96.03 149.48 90.89 150.97 86.97 149.78H86.98ZM74.2 170.34C76.42 168.91 79.77 167.54 81.73 165.16C83.69 162.78 85.15 160.07 85.12 157.47C82.96 157.63 73.74 169.58 74.2 170.34ZM208.82 172.27C208.82 172.27 204.49 172.04 201.94 172.44C200.25 172.7 198.59 173.31 197.17 174.28C195.54 175.39 193.58 176.81 193.04 178.96C192.8 179.92 193.09 180.89 193.32 181.63C193.55 182.38 193.78 182.97 193.78 182.97L195.71 182.22C195.71 182.22 195.44 181.75 195.25 181.13C195.06 180.52 194.98 179.72 195.07 179.37C195.4 178.03 196.85 176.81 198.37 175.78C201.99 172.92 205.51 173.78 208.83 172.27H208.82ZM60.63 170.43C60.63 170.43 56.3 170.2 53.75 170.6C52.06 170.86 50.4 171.47 48.98 172.44C47.35 173.55 45.39 174.97 44.85 177.12C44.61 178.08 44.9 179.05 45.13 179.79C45.36 180.54 45.59 181.13 45.59 181.13L47.52 180.38C47.52 180.38 47.25 179.91 47.06 179.29C46.87 178.68 46.79 177.88 46.88 177.53C47.21 176.19 48.66 174.97 50.18 173.94C53.8 171.08 57.32 171.94 60.64 170.43H60.63Z" fill="black"/>
<path d="M120.54 104.17L117.87 105.57C99.74 111.94 85.77 111.73 67.52 105.57L64.92 112.24C62.85 119.78 63.99 126.42 66.82 131.78C68.55 131.03 70.28 129.4 72.01 127.84C72.86 130.44 72.48 134.15 75.47 137.14C78.86 135.41 80.96 133.04 82.22 131.31C82.8 134.87 84.29 137.57 87.28 139.51C90.28 137.58 91.76 134.88 92.34 131.31C93.59 133.04 95.7 136.04 99.09 137.77C102.08 134.78 102.04 132.97 102.98 129.99C104.49 133.09 106.42 134.66 109.81 136.4C112.8 133.41 112.42 129.7 113.27 127.1C114.7 129.21 116.52 130.68 118.46 131.04C119.94 129.11 121.02 126.01 121.01 123.21C123.8 125.2 126.39 125.8 128.15 125.93C128.85 122.28 128.7 119.47 128.13 116.22C130.76 117.04 131.26 117.79 134.49 117.8C136.65 110.57 134.08 102.75 126.57 97.21L120.52 104.17H120.54Z" fill="#FEBB26"/>
<path d="M87.29 140.54L86.82 140.23C84.25 138.57 82.61 136.34 81.77 133.29C80.1 135.21 78.12 136.76 75.88 137.91L75.31 138.2L74.86 137.75C72.54 135.43 72.07 132.68 71.7 130.47C71.64 130.12 71.58 129.78 71.52 129.46C70.11 130.72 68.66 131.93 67.18 132.57L66.44 132.89L66.06 132.18C62.82 126.06 62.14 119.08 64.09 112L64.12 111.91L67.02 104.47L67.81 104.74C77.14 107.89 85.06 109.36 92.75 109.39H92.95C100.71 109.39 108.53 107.92 117.53 104.76L119.99 103.47L126.46 96.02L127.11 96.5C134.64 102.05 137.72 110.11 135.35 118.04L135.16 118.66H134.51C132.07 118.66 131.04 118.24 129.73 117.71C129.57 117.65 129.41 117.58 129.24 117.51C129.66 120.58 129.59 123.15 129.03 126.07L128.88 126.83L128.1 126.77C126.55 126.65 124.29 126.19 121.81 124.73C121.52 127.2 120.55 129.74 119.17 131.54L118.84 131.97L118.31 131.87C116.69 131.57 115.1 130.58 113.71 129.04C113.67 129.26 113.63 129.48 113.59 129.71C113.22 131.92 112.75 134.66 110.43 136.99L109.98 137.44L109.41 137.15C106.76 135.8 104.8 134.46 103.25 132.19C102.7 134.17 102.12 135.94 99.7 138.36L99.25 138.81L98.68 138.52C96 137.15 94.1 135.06 92.77 133.35C91.92 136.36 90.29 138.57 87.74 140.22L87.27 140.53H87.29V140.54ZM82.75 129.1L83.09 131.18C83.62 134.46 84.96 136.79 87.29 138.46C89.62 136.79 90.96 134.46 91.49 131.18L91.83 129.1L93.17 130.95C94.3 132.52 96.15 135.07 98.94 136.7C100.78 134.71 101.17 133.31 101.69 131.41C101.83 130.89 101.98 130.34 102.17 129.74L102.83 127.66L103.79 129.62C105.04 132.17 106.55 133.66 109.65 135.33C111.21 133.51 111.55 131.46 111.89 129.46C112.05 128.53 112.2 127.66 112.46 126.84L113.01 125.15L114.01 126.62C115.22 128.4 116.66 129.61 118.11 130.06C119.36 128.2 120.16 125.53 120.15 123.22V121.51L121.53 122.5C123.78 124.11 125.89 124.74 127.44 124.97C127.97 121.68 127.76 119.13 127.28 116.37L127.03 114.95L128.4 115.38C129.21 115.64 129.83 115.88 130.37 116.1C131.45 116.54 132.21 116.84 133.84 116.91C135.58 110.15 132.95 103.32 126.7 98.4L121.08 104.87L118.15 106.39C100.45 112.61 86.32 112.69 68.03 106.66L65.75 112.51C64.02 118.85 64.52 125.08 67.21 130.6C68.48 129.86 69.81 128.66 71.1 127.49L72.43 126.29L72.85 127.57C73.12 128.39 73.27 129.26 73.42 130.19C73.76 132.18 74.11 134.23 75.66 136.05C77.95 134.77 79.92 133 81.52 130.79L82.75 129.08V129.1Z" fill="black"/>
<path d="M133.36 117.58L129.06 117.32L127.66 119.92C127.59 116.39 125.51 113.22 125.1 111.31C126.07 113.32 129.04 115.62 133.35 117.58H133.36ZM125.23 125.18L121.61 123.88L119.87 126.3C120.28 122.79 119.67 117.05 119.53 115.11C120.22 117.22 122.04 122.71 125.23 125.18ZM115.7 129.1L113.57 127.8L111.83 130.22C112.24 126.71 111.49 119.74 111.36 117.8C112.05 119.91 114.41 126.75 115.71 129.09H115.7V129.1ZM105.33 132.18L103.2 130.88L101.46 133.3C101.87 129.79 102.07 123.56 101.93 121.62C102.62 123.73 104.03 129.83 105.34 132.18H105.33ZM94.7 133.35L92.57 132.05L90.83 134.47C91.24 130.96 91.44 124.73 91.3 122.79C91.99 124.9 93.4 131 94.71 133.35H94.7ZM79.65 133.72L81.78 132.42L83.52 134.84C83.11 131.33 82.91 126.94 83.05 125C82.36 127.11 80.95 131.37 79.64 133.72H79.65ZM69.6 129.87L71.73 128.57L73.47 130.99C73.06 127.48 72.86 123.09 73 121.15C72.31 123.26 70.9 127.52 69.59 129.87H69.6Z" fill="black"/>
<path d="M62.49 83.32C62.49 83.32 55.8 94.02 54.46 99.55C53.59 103.12 53.71 108.69 53.71 108.69C55.88 108.57 58.0599 108.13 60.2299 106.18C60.4499 109.23 60.12 112.27 62.24 115.32C64.41 114.56 67.0899 113.55 69.2599 109.83C69.4299 113.62 70.2 115.86 72.52 119.43C75.37 118.6 77.6 115.51 79.8 113.49C79.85 116.25 80.6 119.34 83.31 123.32C86.87 121.38 88.9299 116.88 89.7599 114.33C90.6599 116.74 92.65 121.37 96.21 123.32C98.92 119.34 99.68 116.26 99.72 113.49C101.91 115.52 104.15 118.6 107 119.43C109.32 115.86 110.09 113.62 110.26 109.83C112.43 113.55 115.11 114.55 117.28 115.32C119.4 112.27 119.06 109.23 119.29 106.18C121.46 108.13 124.44 109.82 126.62 109.95C127.05 109.56 128.75 104.21 127.93 101.02C130.49 103.04 132.67 104.39 136.45 104.29C137.07 101.34 136.54 98.38 135.91 95.71C140.01 97.12 144.46 97.5 147.63 95.98C140.23 83.45 128.53 81.41 115.67 79.25C101.11 91.31 83.64 93.56 62.49 83.33V83.32Z" fill="#FEBB26"/>
<path d="M96.49 124.47L95.79 124.09C93.45 122.81 91.43 120.33 89.79 116.7C88.76 119.04 86.82 122.4 83.73 124.09L83.03 124.47L82.58 123.82C80.6 120.91 79.46 118.21 79.07 115.45C78.95 115.58 78.82 115.71 78.7 115.84C77.01 117.6 75.1 119.6 72.76 120.28L72.14 120.46L71.79 119.92C69.89 117 68.99 114.93 68.6 112.29C66.5 114.76 64.17 115.58 62.52 116.15L61.89 116.37L61.51 115.82C59.64 113.13 59.54 110.48 59.43 107.91V107.88C57.44 109.17 55.47 109.46 53.74 109.56L52.83 109.61L52.81 108.7C52.81 108.47 52.71 102.98 53.59 99.33C54.94 93.73 61.45 83.29 61.73 82.84L62.15 82.1801L62.86 82.5201C73.05 87.4501 82.67 89.55 91.46 88.76C99.88 88.01 107.84 84.57 115.1 78.56L115.41 78.3L115.8 78.37C128.61 80.52 140.7 82.5601 148.36 95.5201L148.84 96.34L147.98 96.75C145.2 98.08 141.28 98.15 137.06 96.97C137.55 99.36 137.82 101.89 137.28 104.45L137.14 105.13L136.45 105.15C133.16 105.24 130.97 104.27 128.99 102.91C129.01 106.1 127.85 109.98 127.18 110.59L126.91 110.84L126.54 110.82C124.41 110.7 121.95 109.36 120.05 107.95C119.95 110.5 119.83 113.14 117.98 115.82L117.6 116.37L116.97 116.15C115.32 115.57 112.99 114.75 110.89 112.29C110.5 114.93 109.6 117 107.7 119.92L107.35 120.46L106.73 120.28C104.4 119.6 102.48 117.6 100.79 115.84C100.66 115.71 100.54 115.58 100.42 115.45C100.03 118.21 98.89 120.91 96.91 123.82L96.46 124.47H96.49ZM89.7 111.69L90.58 114.03C92.05 117.96 93.86 120.69 95.95 122.13C97.9 119.09 98.8 116.39 98.85 113.48L98.88 111.53L100.31 112.86C100.9 113.4 101.47 114 102.07 114.63C103.51 116.13 104.99 117.68 106.63 118.38C108.6 115.24 109.23 113.22 109.38 109.8L109.51 106.84L111.01 109.4C112.85 112.55 115.04 113.58 116.92 114.27C118.15 112.18 118.24 110.07 118.33 107.85C118.35 107.29 118.38 106.7 118.42 106.12L118.55 104.35L119.87 105.54C121.87 107.34 124.35 108.7 126.13 109.02C126.66 107.69 127.71 103.69 127.08 101.24L126.44 98.73L128.47 100.34C130.95 102.3 132.81 103.35 135.71 103.42C136.08 100.88 135.62 98.32 135.05 95.91L134.68 94.37L136.18 94.89C140.05 96.22 143.68 96.45 146.33 95.57C139.13 84.2 127.86 82.2 115.9 80.19C108.44 86.28 100.27 89.76 91.61 90.53C82.7 91.33 73.02 89.29 62.8 84.47C61.34 86.88 56.39 95.23 55.29 99.78C54.67 102.35 54.57 106.06 54.56 107.77C56.2 107.59 57.92 107.09 59.63 105.55L60.95 104.36L61.08 106.13C61.12 106.71 61.15 107.29 61.17 107.86C61.26 110.08 61.34 112.19 62.58 114.28C64.46 113.59 66.65 112.56 68.49 109.41L69.99 106.85L70.12 109.81C70.27 113.23 70.9 115.26 72.87 118.39C74.51 117.68 75.99 116.14 77.43 114.64C78.03 114.01 78.61 113.41 79.19 112.87L80.62 111.54L80.65 113.49C80.7 116.4 81.6 119.1 83.55 122.14C84.89 121.2 87.35 118.91 88.91 114.08L89.68 111.7H89.7V111.69Z" fill="black"/>
<path d="M139.44 96.86L136.89 96.61L136.57 99.4901C135.16 96.2101 132.99 91.58 131.89 89.91C132.96 91.86 138.5 96.28 142.41 96.86H139.44ZM131.55 103.13L128.15 101.19L128.52 105.61C127.32 102.26 125.44 97.53 124.44 95.81C126.02 97.47 129.3 101.48 131.55 103.14V103.13ZM122.68 109.1L119.69 106.65L119.23 111.06C118.68 107.57 117.72 102.61 117.06 100.77C118.3 102.66 120.78 107.12 122.68 109.1ZM113.01 112.34L110.71 111.3L109.32 113.9C109.24 110.37 108.96 105.35 108.55 103.44C109.53 105.45 111.39 110.16 113.01 112.34ZM91.78 116.84L89.81 115.34L87.79 117.57C88.62 114.12 89.63 108.92 89.73 106.98C90.16 109.14 90.76 114.37 91.78 116.84ZM102.4 115.44L100.1 114.4L98.71 117C98.63 113.47 98.35 108.45 97.94 106.54C98.92 108.55 100.78 113.26 102.4 115.44ZM77.01 115.96L79.31 114.92L80.7 117.52C80.78 113.99 81.06 108.97 81.47 107.06C80.49 109.07 78.63 113.78 77.01 115.96ZM66.49 112.49L68.79 111.45L70.18 114.05C70.26 110.52 71.11 104.21 71.52 102.3C70.54 104.31 68.12 110.31 66.49 112.48V112.49ZM57.54 107.59L59.96 106.81L61 109.54C61.54 106.05 62.53 101.74 63.18 99.89C61.95 101.78 59.43 105.6 57.54 107.59Z" fill="black"/>
<path d="M119.65 72.68C121.98 73.32 122.94 72.56 125.64 72.93C124.2 67.32 123.78 65.34 118.9 61.55C122.5 62.5 123.05 61.62 125.33 61.84C120.25 53.41 121.18 44.87 113.6 40.51C115.97 34.78 114.42 33.62 112.36 28.42C111.85 27.12 112.11 24.28 112.11 24.28C112.11 24.28 105.62 25.49 103.28 28.12C101.93 29.64 100.23 31.77 100.23 31.77C100.76 28.58 100.41 27.18 97.71 25.11C96.57 26.53 95.28 29.7 93.93 30.93C93.47 28.04 92.84 25.57 90.23 23.72C87.95 25.72 86.64 27.96 86.53 30.93C85.17 29.69 83.88 26.52 82.75 25.11C80.05 27.18 79.69 28.58 80.23 31.77C80.23 31.77 78.53 29.64 77.18 28.12C74.84 25.49 68.35 24.28 68.35 24.28C68.35 24.28 68.42 27.07 68.1 28.42C67.35 31.54 63.66 35.59 66.86 40.51C57.67 46.33 59.67 54.14 54.6 62.57C56.89 62.35 57.32 63.48 60.92 62.53C56.04 66.31 55.7 67.08 54.26 72.68C56.03 72.04 57.53 72.55 60.98 71.67C59.81 74.17 57.29 76 55.88 77.18C52.41 80.11 50.98 83.04 50.12 86.43C52.4 86.46 54.67 85.73 56.95 85.14C56.17 87.84 55.78 89.83 56.71 93.72C60.13 92.47 61.82 91.15 64.01 89.86C63.73 92.36 63.58 95.3 64.48 97.8C66.76 97.19 69.03 95.83 71.31 93.51C71.26 96.78 72.24 99.1 73.43 101.23C75.52 100.04 77.63 98.85 79.32 97.37C80 99.69 80.16 101.7 82.62 105.09C86.37 103.57 87.14 101.36 88.51 99.3C89.03 101.21 89.96 103.3 92.7 106.22C96.29 103.86 96.11 101.49 97.12 99.13C97.94 100.83 99.67 103.82 102.38 105.07C104.42 102.96 104.74 100.09 105.32 98.37C107.16 100.46 109.3 102.28 112.26 103.35C113.8 100.54 113.85 98.18 113.73 95.88C116.32 98.6 118.92 99.37 121.51 100.09C122.16 97.54 121.98 94.98 121.51 92.43C124.24 94.39 126.98 95.32 129.71 94.73C129.85 91.91 128.94 89.8 128.03 87.45C130.78 87.93 133.41 88.18 135.6 87.64C135.6 87.64 134.1 84.29 132.24 82.66C129.83 80.56 126.58 79.03 124.18 76.92C122.79 75.7 119.67 72.66 119.67 72.66L119.65 72.68Z" fill="#FEBB26"/>
<path d="M92.55 107.37L92.05 106.83C89.97 104.61 88.8899 102.83 88.2599 101.34C87.2599 102.95 85.99 104.68 82.93 105.92L82.2899 106.18L81.89 105.62C79.81 102.74 79.29 100.79 78.81 98.91C77.35 100.01 75.69 100.95 74.08 101.87L73.08 102.44L72.65 101.67C71.69 99.94 70.7899 98 70.5099 95.45C68.6399 97.04 66.6899 98.12 64.6899 98.65L63.9099 98.86L63.64 98.11C62.88 96 62.82 93.63 62.96 91.53C61.35 92.53 59.69 93.57 56.99 94.56L56.0699 94.9L55.84 93.94C55.03 90.57 55.1899 88.48 55.6899 86.38C53.8699 86.86 51.99 87.34 50.08 87.31H48.97L49.24 86.22C49.98 83.32 51.27 79.9 55.28 76.52C55.47 76.36 55.68 76.19 55.9 76.01C56.89 75.2 58.15 74.17 59.12 72.94C58.22 73.07 57.48 73.12 56.83 73.16C55.9 73.21 55.23 73.25 54.52 73.51L52.96 74.08L53.37 72.48C54.58 67.79 55.12 66.27 57.95 63.79C57.39 63.76 56.9399 63.67 56.5099 63.59C55.9199 63.47 55.4 63.37 54.64 63.45L52.9099 63.61L53.8 62.13C55.62 59.11 56.5 56.17 57.36 53.32C58.8 48.54 60.16 44.01 65.64 40.25C63.64 36.49 65.1399 33.15 66.2599 30.66C66.6599 29.78 67.03 28.95 67.2 28.22C67.44 27.21 67.45 25.05 67.43 24.31L67.4 23.23L68.46 23.43C68.74 23.48 75.27 24.73 77.78 27.55C78.21 28.04 78.68 28.59 79.12 29.11C79.26 27.4 80.08 26.03 82.17 24.43L82.8499 23.91L83.3799 24.58C83.8999 25.23 84.42 26.15 84.96 27.13C85.26 27.67 85.58 28.24 85.9 28.76C86.42 26.65 87.6299 24.81 89.5999 23.08L90.12 22.63L90.68 23.03C92.96 24.64 93.86 26.69 94.37 28.89C94.72 28.34 95.06 27.72 95.39 27.13C95.94 26.15 96.45 25.23 96.97 24.58L97.5 23.91L98.18 24.43C100.27 26.03 101.09 27.4 101.23 29.11C101.67 28.59 102.13 28.04 102.57 27.55C105.08 24.73 111.61 23.48 111.89 23.43L113.03 23.22L112.92 24.37C112.83 25.39 112.8 27.3 113.11 28.1C113.47 29 113.81 29.79 114.12 30.48C115.55 33.73 116.36 35.6 114.62 40.15C119.1 43.04 120.57 47.48 122.12 52.16C123.11 55.16 124.14 58.27 126.01 61.38L126.9 62.86L125.17 62.7C124.41 62.63 123.86 62.7 123.27 62.76C122.81 62.81 122.32 62.87 121.71 62.87C124.6 65.67 125.19 67.96 126.31 72.33L126.73 73.96L125.44 73.79C124.31 73.64 123.51 73.7 122.73 73.76C122.49 73.78 122.25 73.8 122 73.81C122.93 74.69 123.99 75.7 124.65 76.28C125.81 77.29 127.22 78.21 128.59 79.09C130 80 131.46 80.93 132.7 82.02C134.69 83.76 136.22 87.16 136.29 87.3L136.72 88.26L135.7 88.51C133.68 89 131.34 88.86 129.29 88.57C130.01 90.47 130.6 92.38 130.48 94.79L130.45 95.46L129.8 95.6C127.47 96.11 125.09 95.66 122.57 94.22C122.84 96.53 122.74 98.46 122.26 100.32L122.04 101.19L121.18 100.95C119.12 100.38 116.84 99.74 114.54 97.91C114.48 99.68 114.13 101.6 112.93 103.79L112.57 104.45L111.87 104.19C109.59 103.36 107.59 102.05 105.65 100.11C105.21 101.77 104.59 103.96 102.91 105.7L102.48 106.14L101.92 105.88C99.85 104.93 98.3 103.09 97.21 101.31C96.66 103.08 95.97 105.07 93.09 106.96L92.4799 107.36H92.55V107.37ZM88.83 97.24L89.34 99.1C89.77 100.68 90.4999 102.5 92.8199 105.09C94.7599 103.62 95.19 102.22 95.68 100.61C95.86 100.03 96.04 99.43 96.3 98.82L97.06 97.05L97.89 98.78C98.59 100.24 100.04 102.74 102.16 104C103.26 102.61 103.71 100.9 104.08 99.5C104.21 99 104.34 98.53 104.48 98.11L104.96 96.68L105.96 97.81C107.86 99.96 109.69 101.36 111.83 102.27C112.94 99.92 112.95 97.93 112.85 95.95L112.73 93.6L114.36 95.31C116.54 97.6 118.72 98.41 120.85 99.03C121.18 97.18 121.11 95.16 120.65 92.62L120.26 90.49L122.02 91.75C124.49 93.52 126.73 94.26 128.85 94.02C128.82 91.89 128.14 90.18 127.38 88.22L126.65 86.36L128.18 86.63C130.02 86.95 132.3 87.26 134.3 87.03C133.74 85.97 132.75 84.32 131.66 83.36C130.51 82.36 129.11 81.46 127.75 80.58C126.33 79.66 124.85 78.72 123.6 77.62C122.21 76.4 119.19 73.46 119.06 73.33L119.9 71.86C121.03 72.17 121.76 72.11 122.7 72.04C123.23 72 123.81 71.96 124.5 71.98C123.3 67.35 122.66 65.59 118.38 62.27L119.14 60.73C121.24 61.28 122.18 61.17 123.17 61.06C123.39 61.03 123.61 61.01 123.85 60.99C122.33 58.14 121.39 55.3 120.55 52.74C118.97 47.96 117.61 43.84 113.19 41.3L112.52 40.92L112.81 40.21C114.62 35.83 114.03 34.48 112.6 31.22C112.29 30.51 111.94 29.71 111.57 28.78C111.21 27.87 111.17 26.44 111.19 25.42C109.03 25.95 105.41 27.1 103.95 28.75C102.63 30.23 100.95 32.35 100.93 32.37L98.83 35.01L99.39 31.68C99.82 29.14 99.6799 27.98 97.9099 26.43C97.6199 26.89 97.31 27.44 96.99 28.02C96.22 29.4 95.43 30.82 94.53 31.63L93.33 32.72L93.0699 31.12C92.6799 28.7 92.19 26.55 90.28 24.91C88.39 26.74 87.4899 28.65 87.4099 31.01L87.34 32.89L85.95 31.62C85.06 30.81 84.26 29.38 83.49 28.01C83.17 27.44 82.8599 26.89 82.5699 26.42C80.7999 27.97 80.66 29.13 81.09 31.67L81.65 35L79.55 32.36C79.55 32.36 77.85 30.23 76.53 28.74C75.06 27.08 71.3899 25.92 69.2299 25.4C69.2199 26.37 69.16 27.77 68.95 28.66C68.74 29.54 68.33 30.45 67.9 31.4C66.71 34.06 65.47 36.81 67.59 40.07L68.0699 40.81L67.3199 41.28C61.7999 44.78 60.5299 48.98 59.0699 53.85C58.2999 56.4 57.5099 59.03 56.0699 61.76C56.3599 61.8 56.6199 61.85 56.8799 61.9C57.8099 62.08 58.6799 62.25 60.6899 61.72L61.45 63.26C57.2 66.56 56.59 67.36 55.46 71.55C55.88 71.5 56.2999 71.47 56.7599 71.45C57.8199 71.39 59.0199 71.32 60.7599 70.87L62.55 70.41L61.77 72.08C60.67 74.43 58.4899 76.21 57.0399 77.4C56.8199 77.58 56.6199 77.74 56.4399 77.9C53.8099 80.11 52.27 82.39 51.28 85.56C52.69 85.42 54.11 85.04 55.61 84.65C55.98 84.55 56.36 84.45 56.7299 84.36L58.21 83.98L57.7899 85.45C57.1199 87.77 56.7399 89.49 57.3499 92.61C59.3599 91.79 60.6899 90.96 62.0999 90.08C62.5699 89.78 63.0599 89.48 63.5699 89.18L65.08 88.29L64.89 90.03C64.66 92.05 64.4999 94.57 65.0699 96.78C67.0099 96.1 68.86 94.85 70.7 92.97L72.2299 91.4L72.1899 93.59C72.1499 96.32 72.88 98.35 73.78 100.1C75.55 99.09 77.33 98.03 78.74 96.79L79.77 95.88L80.1599 97.2C80.2899 97.64 80.3999 98.07 80.5099 98.49C80.9399 100.17 81.36 101.76 82.92 104.08C85.28 102.96 86.1699 101.51 87.0999 99.98C87.3199 99.63 87.54 99.26 87.78 98.9L88.84 97.3V97.24H88.83Z" fill="black"/>
<path d="M70.88 28.85C70.88 28.85 71.08 30.79 70.79 31.78C70.23 33.67 69.25 35.26 69.14 37.21C69.07 38.54 70.52 41.05 70.52 41.05C70.52 41.05 71.46 37.97 73 37.37C74.53 36.77 77.68 38.21 77.68 38.21C77.68 38.21 77.48 35.37 77.04 34.28C76.06 31.84 70.89 28.85 70.89 28.85H70.88ZM109.23 28.85C109.23 28.85 104.07 31.84 103.08 34.28C102.64 35.37 102.44 38.21 102.44 38.21C102.44 38.21 105.59 36.78 107.12 37.37C108.66 37.97 109.6 41.05 109.6 41.05C109.6 41.05 111.05 38.54 110.98 37.21C110.87 35.25 109.98 33.67 109.42 31.78C109.13 30.8 109.24 28.85 109.24 28.85H109.23ZM69.32 45.32C67.03 46.72 66.23 49.09 66.84 51.17C67.31 52.77 68.81 54.02 70.79 54.76C70.69 54.85 70.71 54.83 70.61 54.93C69.83 55.64 68.93 56.59 68.59 57.77C67.19 62.71 68.11 67.52 71.16 70.64C69.55 72.8 66.52 77.61 65.2 80.34C67.86 78.17 70.6 74.26 72.63 71.9C73.53 72.55 74.56 73.05 75.66 73.49C74.53 75.64 72.27 81.31 71.44 84.36C73.85 81.57 75.98 76.68 77.59 74.16C78.38 74.37 79.22 74.46 80.07 74.58C79.44 76.38 79.67 78.27 80.71 79.85C79.57 81.88 77.19 87.79 76.31 90.88C78.58 88.31 80.59 83.97 82.18 81.35C83.1 82.09 84.22 82.65 85.57 83.02C85.06 85.64 84.47 91.12 84.47 94.05C85.97 91.04 86.76 86.33 87.59 83.43C88.16 83.49 88.71 83.6 89.33 83.6C89.69 83.6 90 83.54 90.34 83.52C90.92 86.48 91.31 91.1 92.54 94.14C92.76 91.27 92.65 85.98 92.36 83.27C93.39 83.05 94.3 82.69 95.11 82.27C96.41 85 97.87 89.78 99.88 92.63C99.36 89.43 97.73 83.15 96.85 81.1C97.1 80.87 97.38 80.68 97.58 80.43C98.68 79.12 99.06 77.46 98.86 75.83C101.59 78.06 106.06 82.02 109.04 83.77C107.27 81.28 102.39 76.39 100.14 74.32C102.45 73.83 104.61 73.01 106.29 71.73C108.88 73.89 114.17 80.04 117.39 81.93C115.51 79.29 109.66 72.3 107.66 70.4C110.54 67.28 111.41 62.6 110.05 57.78C109.71 56.59 108.81 55.65 108.03 54.94C107.93 54.85 107.95 54.86 107.85 54.77C109.82 54.02 111.32 52.78 111.8 51.18C112.42 49.1 111.61 46.73 109.32 45.33C109.97 47.17 110.44 48.63 109.87 50.76C109.51 52.12 108.19 53.31 105.83 53.6L103.26 53.93L105.37 55.27C105.37 55.27 105.9 55.67 106.56 56.27C107.22 56.87 107.97 57.73 108.12 58.28C109.38 62.72 108.12 66.49 105.46 69.15C102.8 71.81 98.58 73.65 93.81 72.99C90.5 72.53 90.41 71.78 90.42 69.06C91.04 69 91.81 68.84 92.53 68.47C93.19 68.14 93.45 67.79 93.72 67.47C93.99 67.14 94.21 66.91 94.27 66.88C95.13 66.51 96.47 66.63 96.47 66.63L97.57 66.88L97.66 65.79C97.73 64.85 97.96 64.24 97.2 62.7C96.58 61.45 95.65 60.7 95 60.28C94.68 60.07 94.49 59.97 94.36 59.86C94.23 59.75 94.2 59.7 94.18 59.61C93.33 56.48 93.07 53.77 93.9 51.16C94.4 49.6 96.1 48.28 98.3 47.98C100.68 47.67 103.57 48.33 104.91 48.57C103.59 47.07 101.02 45.62 97.75 46.15C95.07 46.58 92.65 48.24 91.88 50.66C90.93 53.65 91.28 56.8 92.16 60.03C92.29 60.52 92.58 60.93 92.89 61.2C93.2 61.47 93.53 61.68 93.81 61.87C94.37 62.24 94.93 62.57 95.37 63.46C95.75 64.23 95.6 64.2 95.55 64.87C94.89 64.82 94.49 64.34 93.44 64.79C92.75 65.09 92.36 65.6 92.06 65.96C91.76 66.32 91.49 66.6 91.6 66.55C91.31 66.69 90.71 66.83 90.22 66.88C89.73 66.93 89.3 66.88 89.3 66.88C89.3 66.88 88.87 66.93 88.38 66.88C87.89 66.83 87.29 66.69 87 66.55C87.11 66.6 86.84 66.33 86.54 65.96C86.24 65.6 85.86 65.09 85.16 64.79C84.11 64.34 83.71 64.82 83.05 64.87C83 64.2 82.86 64.22 83.23 63.46C83.67 62.57 84.23 62.24 84.79 61.87C85.07 61.69 85.39 61.47 85.71 61.2C86.03 60.93 86.31 60.52 86.44 60.03C87.31 56.81 87.67 53.65 86.72 50.66C85.95 48.24 83.52 46.58 80.85 46.15C77.58 45.62 75.01 47.07 73.69 48.57C75.03 48.33 77.92 47.67 80.3 47.98C82.5 48.27 84.21 49.59 84.7 51.16C85.53 53.77 85.27 56.48 84.42 59.61C84.4 59.7 84.37 59.75 84.24 59.86C84.11 59.97 83.92 60.07 83.6 60.28C82.95 60.7 82.01 61.45 81.4 62.7C80.64 64.24 80.87 64.84 80.94 65.79L81.03 66.88L82.13 66.63C82.13 66.63 83.47 66.51 84.33 66.88C84.39 66.9 84.61 67.14 84.88 67.47C85.15 67.8 85.42 68.14 86.07 68.47C86.79 68.83 87.56 68.99 88.18 69.06C88.38 71.94 87.87 72.48 84.79 72.99C80.04 73.77 75.8 71.8 73.14 69.15C70.48 66.5 69.22 62.73 70.48 58.28C70.63 57.73 71.38 56.88 72.04 56.27C72.7 55.66 73.23 55.27 73.23 55.27L75.34 53.93L72.77 53.6C70.41 53.3 69.1 52.12 68.73 50.76C68.16 48.63 68.64 47.17 69.28 45.33H69.32V45.32ZM79.6 50.07C78.81 50.07 77.86 50.33 76.76 50.82C77.14 52.95 79.61 55.78 83.83 53.49C83.16 51.85 81.99 50.04 79.61 50.06H79.6V50.07ZM99.05 50.07C96.67 50.05 95.5 51.86 94.83 53.5C99.05 55.78 101.52 52.96 101.9 50.83C100.8 50.34 99.85 50.09 99.06 50.08H99.05V50.07ZM89.32 73.3C89.59 73.45 89.85 73.6 90.51 73.89C91.43 74.29 92.49 74.64 93.63 74.73C94.62 74.81 95.59 74.85 96.57 74.81C97.23 76.26 96.99 77.3 95.93 78.57C94.76 79.97 92.6 80.99 89.32 80.99C86.04 80.99 83.79 79.96 82.62 78.57C81.56 77.3 81.4 76.26 82.07 74.81C83.04 74.85 84.01 74.81 85.01 74.73C86.15 74.64 87.21 74.3 88.13 73.89C88.79 73.6 89.06 73.45 89.32 73.3ZM63.72 77.31C60.27 79.74 57.19 84.38 53.63 85.5L56.84 85.08L57.21 88.17C58.91 81.5 62.35 81.85 63.72 77.3V77.31ZM70.05 78.66C67.03 81.52 63.85 89.7 60.51 91.28L63.63 90.36L64.46 93.37C65.08 86.55 69.43 83.34 70.06 78.66H70.05ZM119.78 79.83C120.71 83.65 126.83 84.98 128.4 90.86L128.77 87.85L132.53 88.02C125.74 85.01 125.77 84.37 119.78 79.83ZM112.71 80.16C112.86 84.07 120.87 89.83 121.24 95.87L122.25 93.03L125.19 94.28C121.45 91.17 115.51 82.43 112.71 80.15V80.16ZM74.36 85.1C71.92 88.39 70.93 93.3 67.94 95.38L70.78 94.04L72.25 96.88C71.57 90.06 74.62 89.8 74.36 85.09V85.1ZM108.58 85.36C108.42 89.27 113.74 92.54 112.71 99.32L114.27 96.56L117.11 98.06C114.23 95.85 111.19 87.8 108.58 85.35V85.36ZM102.16 86.54C101.12 91.16 105.52 94.86 103.72 101.5L105.56 98.83L108.22 100.59C105.6 98.12 104.03 90.14 102.16 86.55V86.54ZM80.69 89.2C78.82 92.79 79.09 97.52 76.47 99.98L79.13 98.22L80.97 100.81C79.17 94.16 81.73 93.81 80.69 89.19V89.2ZM95.19 89.8C93.77 94.33 97.54 95.84 95.19 102.34L97.3 99.92L99.69 101.76C97.28 99.12 96.76 93.51 95.19 89.81V89.8ZM88.86 92.46C87.3 96.17 88.42 99.1 86.02 101.74L88.5 99.82L90.52 102.33C88.17 95.83 90.29 97 88.87 92.47H88.86V92.46Z" fill="black"/>
</svg>
