<svg width="317" height="166" viewBox="0 0 317 166" fill="none" xmlns="http://www.w3.org/2000/svg">
<path fill-rule="evenodd" clip-rule="evenodd" d="M158.052 99.2643C156.455 99.2643 155.161 100.559 155.161 102.155V107.938C155.161 108.47 155.592 108.902 156.124 108.902H159.979C160.512 108.902 160.943 108.47 160.943 107.938V102.155C160.943 100.559 159.649 99.2643 158.052 99.2643ZM157.088 102.155C157.088 101.623 157.52 101.192 158.052 101.192C158.584 101.192 159.016 101.623 159.016 102.155V106.974H157.088V102.155Z" fill="#003B4B"/>
<path fill-rule="evenodd" clip-rule="evenodd" d="M143.596 1.92746C143.596 0.862954 142.733 0 141.668 0C140.604 0 139.741 0.862954 139.741 1.92746V4.30678L136.14 10.6085C135.82 11.168 135.801 11.8503 136.089 12.4268L136.827 13.9015L135.98 30.8394H134.922C133.858 30.8394 132.995 31.7023 132.995 32.7668C132.995 33.8313 133.858 34.6943 134.922 34.6943V37.5855C133.858 37.5855 132.995 38.4484 132.995 39.513V44.3316C132.995 44.5768 133.042 44.8198 133.133 45.0474L134.922 49.5215V81.9171H112.756C111.692 81.9171 110.829 82.7801 110.829 83.8446V109.865H16.3834C15.3189 109.865 14.456 110.728 14.456 111.793V158.052H13.4922C12.4277 158.052 11.5648 158.915 11.5648 159.979V161.907H1.92746C0.862954 161.907 0 162.77 0 163.834C0 164.899 0.862954 165.762 1.92746 165.762H314.176C315.241 165.762 316.104 164.899 316.104 163.834C316.104 162.77 315.241 161.907 314.176 161.907H304.539V159.979C304.539 158.915 303.676 158.052 302.611 158.052H301.648V111.793C301.648 110.728 300.785 109.865 299.72 109.865H205.275V83.8446C205.275 82.7801 204.412 81.9171 203.347 81.9171H181.181V49.5215L182.971 45.0474C183.062 44.8198 183.109 44.5768 183.109 44.3316V39.513C183.109 38.4484 182.246 37.5855 181.181 37.5855V34.6943C182.246 34.6943 183.109 33.8313 183.109 32.7668C183.109 31.7023 182.246 30.8394 181.181 30.8394H180.124L179.277 13.9015L180.014 12.4268C180.302 11.8503 180.283 11.168 179.964 10.6085L176.363 4.30678V1.92746C176.363 0.862954 175.5 0 174.435 0C173.371 0 172.508 0.862954 172.508 1.92746V4.30678L168.907 10.6085C168.587 11.168 168.568 11.8503 168.856 12.4268L169.594 13.9015L168.747 30.8394H167.689C166.625 30.8394 165.762 31.7023 165.762 32.7668C165.762 33.8313 166.625 34.6943 167.689 34.6943V37.5855C166.625 37.5855 165.762 38.4484 165.762 39.513V44.3316C165.762 44.5768 165.808 44.8198 165.9 45.0474L167.689 49.5215V70.3523H148.415V49.5215L150.204 45.0474C150.295 44.8198 150.342 44.5768 150.342 44.3316V39.513C150.342 38.4484 149.479 37.5855 148.415 37.5855V34.6943C149.479 34.6943 150.342 33.8313 150.342 32.7668C150.342 31.7023 149.479 30.8394 148.415 30.8394H147.357L146.51 13.9015L147.247 12.4268C147.536 11.8503 147.517 11.168 147.197 10.6085L143.596 4.30678V1.92746ZM15.4197 163.834H136.85V161.907H15.4197V163.834ZM18.3109 159.979H21.2021V113.72H18.3109V159.979ZM23.1295 113.72V121.291C24.1212 119.88 25.4601 118.705 27.0622 117.904L31.3721 115.749C31.6434 115.614 31.9628 115.614 32.2341 115.749L36.544 117.904C38.1461 118.705 39.485 119.88 40.4767 121.291V113.72H23.1295ZM42.4041 113.72V159.979H45.2953V113.72H42.4041ZM47.2228 113.72V121.291C48.2145 119.88 49.5533 118.705 51.1554 117.904L55.4654 115.749C55.7367 115.614 56.056 115.614 56.3274 115.749L60.6373 117.904C62.2394 118.705 63.5783 119.88 64.5699 121.291V113.72H47.2228ZM66.4974 113.72V159.979H69.3886V113.72H66.4974ZM71.3161 113.72V121.291C72.3077 119.88 73.6466 118.705 75.2487 117.904L79.5586 115.749C79.83 115.614 80.1493 115.614 80.4206 115.749L84.7306 117.904C86.3327 118.705 87.6715 119.88 88.6632 121.291V113.72H71.3161ZM90.5907 113.72V159.979H93.4819V113.72H90.5907ZM95.4093 113.72V121.291C96.401 119.88 97.7399 118.705 99.342 117.904L103.652 115.749C103.923 115.614 104.243 115.614 104.514 115.749L108.824 117.904C110.426 118.705 111.765 119.88 112.756 121.291V113.72H95.4093ZM114.684 159.979H117.575V89.6269C117.575 89.0947 118.007 88.6632 118.539 88.6632H136.85V85.772H114.684V159.979ZM138.777 111.793H144.56V74.2073H138.777V111.793ZM138.777 72.2798H144.56V50.114H138.777V72.2798ZM138.54 48.1865H144.797L145.953 45.2953H137.384L138.54 48.1865ZM136.85 43.3679H146.487V41.4404H136.85V43.3679ZM138.777 39.513H144.56V34.6943H138.777V39.513ZM140.679 14.045L139.788 32.7668H143.549L142.657 14.045L142.635 13.5885C142.618 13.2571 142.687 12.927 142.836 12.6302L143.338 11.6254L141.668 8.70358L139.999 11.6254L140.501 12.6302C140.65 12.927 140.719 13.2571 140.702 13.5885L140.679 14.045ZM146.487 74.2073V85.8056C147.787 83.7162 149.691 81.9828 152.031 80.8561L157.634 78.1576C157.898 78.0304 158.206 78.0304 158.47 78.1576L164.073 80.8561C166.412 81.9828 168.316 83.7162 169.617 85.8056V74.2073H146.487ZM171.544 72.2798H177.326V50.114H171.544V72.2798ZM171.307 48.1865H177.563L178.72 45.2953H170.151L171.307 48.1865ZM169.617 43.3679H179.254V41.4404H169.617V43.3679ZM171.544 39.513H177.326V34.6943H171.544V39.513ZM173.446 14.045L172.555 32.7668H176.316L175.424 14.045L175.401 13.5885C175.4 13.5555 175.399 13.5225 175.399 13.4896C175.399 13.1917 175.469 12.8975 175.602 12.6302L176.105 11.6254L174.435 8.70358L172.766 11.6254L173.268 12.6302C173.402 12.8975 173.471 13.1917 173.471 13.4896C173.472 13.5225 173.471 13.5555 173.469 13.5885L173.446 14.045ZM177.326 74.2073H171.544V111.793H177.326V74.2073ZM179.254 85.772V88.6632H197.565C198.097 88.6632 198.529 89.0947 198.529 89.6269V159.979H201.42V85.772H179.254ZM203.347 113.72V121.291C204.339 119.88 205.678 118.705 207.28 117.904L211.59 115.749C211.861 115.614 212.18 115.614 212.452 115.749L216.762 117.904C218.364 118.705 219.703 119.88 220.694 121.291V113.72H203.347ZM222.622 113.72V159.979H225.513V113.72H222.622ZM227.44 113.72V121.291C228.432 119.88 229.771 118.705 231.373 117.904L235.683 115.749C235.954 115.614 236.274 115.614 236.545 115.749L240.855 117.904C242.457 118.705 243.796 119.88 244.788 121.291V113.72H227.44ZM246.715 113.72V159.979H249.606V113.72H246.715ZM251.534 113.72V121.291C252.525 119.88 253.864 118.705 255.466 117.904L259.776 115.749C260.048 115.614 260.367 115.614 260.638 115.749L264.948 117.904C266.55 118.705 267.889 119.88 268.881 121.291V113.72H251.534ZM270.808 113.72V159.979H273.699V113.72H270.808ZM275.627 113.72V121.291C276.619 119.88 277.957 118.705 279.56 117.904L283.87 115.749C284.141 115.614 284.46 115.614 284.732 115.749L289.041 117.904C290.644 118.705 291.982 119.88 292.974 121.291V113.72H275.627ZM294.902 113.72V159.979H297.793V113.72H294.902ZM179.254 161.907V163.834H300.684V161.907H179.254ZM163.237 82.5926C167.161 84.4825 169.617 88.3316 169.617 92.5181V111.793H146.487V92.5181C146.487 88.3316 148.943 84.4825 152.867 82.5926L158.052 80.0956L163.237 82.5926ZM146.487 123.391V113.72H169.617V123.391C168.316 121.302 166.412 119.568 164.073 118.442L158.47 115.743C158.206 115.616 157.898 115.616 157.634 115.743L152.031 118.442C149.691 119.568 147.787 121.302 146.487 123.391ZM171.544 113.72V163.834H177.326V113.72H171.544ZM163.237 120.178C167.161 122.068 169.617 125.917 169.617 130.104V131.067H146.487V130.104C146.487 125.917 148.943 122.068 152.867 120.178L158.052 117.681L163.237 120.178ZM146.487 163.834V140.705H169.617V163.834H165.762V155.161C165.762 150.903 162.31 147.451 158.052 147.451C153.794 147.451 150.342 150.903 150.342 155.161V163.834H146.487ZM163.834 155.161V163.834H152.269V155.161C152.269 151.967 154.858 149.378 158.052 149.378C161.245 149.378 163.834 151.967 163.834 155.161ZM146.487 132.995H169.617V138.777H146.487V132.995ZM144.56 163.834H138.777V113.72H144.56V163.834ZM136.85 150.516V159.979H119.503V150.516C119.503 147.23 121.359 144.227 124.297 142.758L128.176 140.818L132.055 142.758C134.994 144.227 136.85 147.23 136.85 150.516ZM112.756 150.516V159.979H95.4093V150.516C95.4093 147.23 97.2655 144.227 100.204 142.758L104.083 140.818L107.962 142.758C110.9 144.227 112.756 147.23 112.756 150.516ZM88.6632 150.516V159.979H71.3161V150.516C71.3161 147.23 73.1722 144.227 76.1107 142.758L79.9896 140.818L83.8686 142.758C86.807 144.227 88.6632 147.23 88.6632 150.516ZM64.5699 150.516V159.979H47.2228V150.516C47.2228 147.23 49.079 144.227 52.0174 142.758L55.8964 140.818L59.7753 142.758C62.7138 144.227 64.5699 147.23 64.5699 150.516ZM40.4767 150.516V159.979H23.1295V150.516C23.1295 147.23 24.9857 144.227 27.9242 142.758L31.8031 140.818L35.682 142.758C38.6205 144.227 40.4767 147.23 40.4767 150.516ZM23.1295 134.922V127.386C23.1295 124.101 24.9857 121.098 27.9242 119.628L31.8031 117.689L35.682 119.628C38.6205 121.098 40.4767 124.101 40.4767 127.386V134.922H23.1295ZM23.1295 144.421V136.85H40.4767V144.421C39.485 143.009 38.1461 141.835 36.544 141.034L32.2341 138.879C31.9628 138.743 31.6434 138.743 31.3721 138.879L27.0622 141.034C25.4601 141.835 24.1212 143.009 23.1295 144.421ZM47.2228 134.922V127.386C47.2228 124.101 49.079 121.098 52.0174 119.628L55.8964 117.689L59.7753 119.628C62.7138 121.098 64.5699 124.101 64.5699 127.386V134.922H58.7876V132.031C58.7876 130.434 57.4931 129.14 55.8964 129.14C54.2996 129.14 53.0052 130.434 53.0052 132.031V134.922H47.2228ZM64.5699 136.85V144.421C63.5783 143.009 62.2394 141.835 60.6373 141.034L56.3274 138.879C56.056 138.743 55.7367 138.743 55.4654 138.879L51.1554 141.034C49.5533 141.835 48.2145 143.009 47.2228 144.421V136.85H64.5699ZM56.8601 132.031V134.922H54.9326V132.031C54.9326 131.499 55.3641 131.067 55.8964 131.067C56.4286 131.067 56.8601 131.499 56.8601 132.031ZM71.3161 134.922V127.386C71.3161 124.101 73.1722 121.098 76.1107 119.628L79.9896 117.689L83.8686 119.628C86.8071 121.098 88.6632 124.101 88.6632 127.386V134.922H83.8446V132.031C83.8446 130.434 82.5501 129.14 80.9534 129.14C79.3566 129.14 78.0622 130.434 78.0622 132.031V134.922H71.3161ZM88.6632 136.85V144.421C87.6715 143.009 86.3327 141.835 84.7306 141.034L80.4206 138.879C80.1493 138.743 79.83 138.743 79.5586 138.879L75.2487 141.034C73.6466 141.835 72.3077 143.009 71.3161 144.421V136.85H88.6632ZM81.9171 132.031V134.922H79.9896V132.031C79.9896 131.499 80.4211 131.067 80.9534 131.067C81.4856 131.067 81.9171 131.499 81.9171 132.031ZM95.4093 134.922V127.386C95.4093 124.101 97.2655 121.098 100.204 119.628L104.083 117.689L107.962 119.628C110.9 121.098 112.756 124.101 112.756 127.386V134.922H106.974V132.031C106.974 130.434 105.68 129.14 104.083 129.14C102.486 129.14 101.192 130.434 101.192 132.031V134.922H95.4093ZM112.756 136.85V144.421C111.765 143.009 110.426 141.835 108.824 141.034L104.514 138.879C104.243 138.743 103.923 138.743 103.652 138.879L99.342 141.034C97.7399 141.835 96.401 143.009 95.4093 144.421V136.85H112.756ZM105.047 132.031V134.922H103.119V132.031C103.119 131.499 103.551 131.067 104.083 131.067C104.615 131.067 105.047 131.499 105.047 132.031ZM119.503 90.5907H136.85V98.1615C135.858 96.7501 134.519 95.5759 132.917 94.7748L128.607 92.6199C128.336 92.4842 128.016 92.4842 127.745 92.6199L123.435 94.7748C121.833 95.5759 120.494 96.7501 119.503 98.1615V90.5907ZM119.503 111.793V104.257C119.503 100.971 121.359 97.968 124.297 96.4988L128.176 94.5593L132.055 96.4988C134.994 97.968 136.85 100.971 136.85 104.257V111.793H131.067V108.902C131.067 107.305 129.773 106.01 128.176 106.01C126.579 106.01 125.285 107.305 125.285 108.902V111.793H119.503ZM136.85 113.72V121.291C135.858 119.88 134.519 118.705 132.917 117.904L128.607 115.749C128.336 115.614 128.016 115.614 127.745 115.749L123.435 117.904C121.833 118.705 120.494 119.88 119.503 121.291V113.72H136.85ZM129.14 108.902V111.793H127.212V108.902C127.212 108.369 127.644 107.938 128.176 107.938C128.708 107.938 129.14 108.369 129.14 108.902ZM119.503 134.922V127.386C119.503 124.101 121.359 121.098 124.297 119.628L128.176 117.689L132.055 119.628C134.994 121.098 136.85 124.101 136.85 127.386V134.922H131.067V132.031C131.067 130.434 129.773 129.14 128.176 129.14C126.579 129.14 125.285 130.434 125.285 132.031V134.922H119.503ZM136.85 136.85V144.421C135.858 143.009 134.519 141.835 132.917 141.034L128.607 138.879C128.336 138.743 128.016 138.743 127.745 138.879L123.435 141.034C121.833 141.835 120.494 143.009 119.503 144.421V136.85H136.85ZM129.14 132.031V134.922H127.212V132.031C127.212 131.499 127.644 131.067 128.176 131.067C128.708 131.067 129.14 131.499 129.14 132.031ZM196.601 150.516V159.979H179.254V150.516C179.254 147.23 181.11 144.227 184.049 142.758L187.927 140.818L191.806 142.758C194.745 144.227 196.601 147.23 196.601 150.516ZM183.187 141.034C181.584 141.835 180.246 143.009 179.254 144.421V136.85H196.601V144.421C195.609 143.009 194.27 141.835 192.668 141.034L188.358 138.879C188.087 138.743 187.768 138.743 187.496 138.879L183.187 141.034ZM185.036 134.922H179.254V127.386C179.254 124.101 181.11 121.098 184.049 119.628L187.927 117.689L191.806 119.628C194.745 121.098 196.601 124.101 196.601 127.386V134.922H190.819V132.031C190.819 130.434 189.524 129.14 187.927 129.14C186.331 129.14 185.036 130.434 185.036 132.031V134.922ZM183.187 117.904C181.584 118.705 180.246 119.88 179.254 121.291V113.72H196.601V121.291C195.609 119.88 194.27 118.705 192.668 117.904L188.358 115.749C188.087 115.614 187.768 115.614 187.496 115.749L183.187 117.904ZM185.036 111.793H179.254V104.257C179.254 100.971 181.11 97.968 184.049 96.4988L187.927 94.5593L191.806 96.4988C194.745 97.968 196.601 100.971 196.601 104.257V111.793H190.819V108.902C190.819 107.305 189.524 106.01 187.927 106.01C186.331 106.01 185.036 107.305 185.036 108.902V111.793ZM183.187 94.7748C181.584 95.5759 180.246 96.7501 179.254 98.1615V90.5907H196.601V98.1615C195.609 96.7501 194.27 95.5759 192.668 94.7748L188.358 92.6199C188.087 92.4842 187.768 92.4842 187.496 92.6199L183.187 94.7748ZM215.9 119.628C218.838 121.098 220.694 124.101 220.694 127.386V134.922H214.912V132.031C214.912 130.434 213.617 129.14 212.021 129.14C210.424 129.14 209.13 130.434 209.13 132.031V134.922H203.347V127.386C203.347 124.101 205.203 121.098 208.142 119.628L212.021 117.689L215.9 119.628ZM220.694 136.85V144.421C219.703 143.009 218.364 141.835 216.762 141.034L212.452 138.879C212.18 138.743 211.861 138.743 211.59 138.879L207.28 141.034C205.678 141.835 204.339 143.009 203.347 144.421V136.85H220.694ZM215.9 142.758C218.838 144.227 220.694 147.23 220.694 150.516V159.979H203.347V150.516C203.347 147.23 205.203 144.227 208.142 142.758L212.021 140.818L215.9 142.758ZM244.788 150.516V159.979H227.44V150.516C227.44 147.23 229.297 144.227 232.235 142.758L236.114 140.818L239.993 142.758C242.931 144.227 244.788 147.23 244.788 150.516ZM231.373 141.034C229.771 141.835 228.432 143.009 227.44 144.421V136.85H244.788V144.421C243.796 143.009 242.457 141.835 240.855 141.034L236.545 138.879C236.274 138.743 235.954 138.743 235.683 138.879L231.373 141.034ZM232.259 134.922H227.44V127.386C227.44 124.101 229.297 121.098 232.235 119.628L236.114 117.689L239.993 119.628C242.931 121.098 244.788 124.101 244.788 127.386V134.922H238.041V132.031C238.041 130.434 236.747 129.14 235.15 129.14C233.553 129.14 232.259 130.434 232.259 132.031V134.922ZM292.974 150.516V159.979H275.627V150.516C275.627 147.23 277.483 144.227 280.422 142.758L284.301 140.818L288.179 142.758C291.118 144.227 292.974 147.23 292.974 150.516ZM279.56 141.034C277.957 141.835 276.619 143.009 275.627 144.421V136.85H292.974V144.421C291.982 143.009 290.644 141.835 289.041 141.034L284.732 138.879C284.46 138.743 284.141 138.743 283.87 138.879L279.56 141.034ZM292.974 134.922H275.627V127.386C275.627 124.101 277.483 121.098 280.422 119.628L284.301 117.689L288.179 119.628C291.118 121.098 292.974 124.101 292.974 127.386V134.922ZM268.881 150.516V159.979H251.534V150.516C251.534 147.23 253.39 144.227 256.328 142.758L260.207 140.818L264.086 142.758C267.025 144.227 268.881 147.23 268.881 150.516ZM255.466 141.034C253.864 141.835 252.525 143.009 251.534 144.421V136.85H268.881V144.421C267.889 143.009 266.55 141.835 264.948 141.034L260.638 138.879C260.367 138.743 260.048 138.743 259.776 138.879L255.466 141.034ZM257.316 134.922H251.534V127.386C251.534 124.101 253.39 121.098 256.328 119.628L260.207 117.689L264.086 119.628C267.025 121.098 268.881 124.101 268.881 127.386V134.922H263.098V132.031C263.098 130.434 261.804 129.14 260.207 129.14C258.61 129.14 257.316 130.434 257.316 132.031V134.922ZM261.171 132.031V134.922H259.244V132.031C259.244 131.499 259.675 131.067 260.207 131.067C260.74 131.067 261.171 131.499 261.171 132.031ZM236.114 132.031V134.922H234.187V132.031C234.187 131.499 234.618 131.067 235.15 131.067C235.683 131.067 236.114 131.499 236.114 132.031ZM212.984 134.922H211.057V132.031C211.057 131.499 211.488 131.067 212.021 131.067C212.553 131.067 212.984 131.499 212.984 132.031V134.922ZM188.891 108.902V111.793H186.964V108.902C186.964 108.369 187.395 107.938 187.927 107.938C188.46 107.938 188.891 108.369 188.891 108.902ZM188.891 132.031V134.922H186.964V132.031C186.964 131.499 187.395 131.067 187.927 131.067C188.46 131.067 188.891 131.499 188.891 132.031Z" fill="#003B4B"/>
</svg>
