<svg width="266" height="152" viewBox="0 0 266 152" fill="none" xmlns="http://www.w3.org/2000/svg">
<path fill-rule="evenodd" clip-rule="evenodd" d="M163.705 0.189813C163.177 -0.0632711 162.564 -0.0632711 162.036 0.189813L158.738 1.77295C158.729 1.77744 158.72 1.78199 158.71 1.78663C157.78 2.25163 157.261 3.07796 156.984 3.7678C156.698 4.48045 156.579 5.26278 156.579 5.99034C156.579 6.7179 156.698 7.50023 156.984 8.21289C157.187 8.71912 157.521 9.29885 158.052 9.75536V20.2383H153.233C152.384 20.2383 151.635 20.7943 151.388 21.6073C151.142 22.4202 151.457 23.2984 152.164 23.7696C152.878 24.2455 153.673 24.9878 154.274 25.8216C154.896 26.6838 155.161 27.4332 155.161 27.9482V42.7439C150.008 36.185 142.042 31.8011 133.959 31.8011L132.031 31.8016C123.947 31.8018 115.982 36.1856 110.829 42.7444V27.9487C110.829 27.4337 111.094 26.6842 111.715 25.8221C112.316 24.9882 113.112 24.246 113.826 23.77C114.532 23.2989 114.847 22.4207 114.601 21.6077C114.355 20.7948 113.606 20.2388 112.756 20.2388H107.938V9.75583C108.469 9.29933 108.802 8.7196 109.005 8.21337C109.291 7.50071 109.41 6.71838 109.41 5.99082C109.41 5.26326 109.291 4.48093 109.005 3.76827C108.729 3.07843 108.209 2.2521 107.279 1.7871C107.27 1.78247 107.261 1.77791 107.251 1.77343L103.953 0.190292C103.426 -0.0627935 102.812 -0.0627935 102.285 0.190292L98.9869 1.77343C98.9776 1.77791 98.9683 1.78247 98.959 1.7871C98.029 2.2521 97.5096 3.07843 97.2329 3.76827C96.9471 4.48093 96.8281 5.26326 96.8281 5.99082C96.8281 6.71838 96.9471 7.50071 97.2329 8.21337C97.436 8.7196 97.7697 9.29933 98.3005 9.75583V20.2388H93.4819C92.6325 20.2388 91.8832 20.7948 91.6371 21.6077C91.391 22.4207 91.706 23.2989 92.4127 23.77C93.1266 24.246 93.922 24.9882 94.5231 25.8221C95.1446 26.6842 95.4093 27.4337 95.4093 27.9487V54.9617C93.3984 53.7256 91.0456 53.0037 88.6632 53.0037C86.2808 53.0037 83.928 53.7256 81.9171 54.9617V43.3688C81.9171 42.8538 82.1818 42.1043 82.8033 41.2422C83.4044 40.4083 84.1998 39.666 84.9137 39.1901C85.6204 38.719 85.9354 37.8407 85.6893 37.0278C85.4432 36.2149 84.6939 35.6589 83.8446 35.6589H79.0259V25.1759C79.5567 24.7194 79.8904 24.1397 80.0935 23.6335C80.3793 22.9208 80.4984 22.1385 80.4984 21.4109C80.4984 20.6833 80.3793 19.901 80.0935 19.1884C79.8168 18.4985 79.2974 17.6722 78.3674 17.2072C78.3581 17.2026 78.3488 17.198 78.3395 17.1935L75.0413 15.6104C74.5141 15.3573 73.9004 15.3573 73.3732 15.6104L70.075 17.1935C70.0657 17.198 70.0564 17.2026 70.0471 17.2072C69.1171 17.6722 68.5977 18.4985 68.321 19.1884C68.0352 19.901 67.9161 20.6833 67.9161 21.4109C67.9161 22.1385 68.0352 22.9208 68.321 23.6335C68.5241 24.1397 68.8578 24.7194 69.3886 25.1759V35.6589H64.5699C63.7206 35.6589 62.9713 36.2149 62.7252 37.0278C62.479 37.8407 62.7941 38.719 63.5008 39.1901C64.2147 39.666 65.0101 40.4083 65.6112 41.2422C66.2327 42.1043 66.4974 42.8538 66.4974 43.3688V66.4981L39.513 66.496V43.3664C39.513 42.8514 39.7777 42.1019 40.3992 41.2398C41.0002 40.4059 41.7957 39.6637 42.5096 39.1877C43.2163 38.7166 43.5313 37.8383 43.2852 37.0254C43.039 36.2125 42.2898 35.6565 41.4404 35.6565H36.6218V25.1735C37.1525 24.717 37.4863 24.1373 37.6893 23.6311C37.9752 22.9184 38.0942 22.1361 38.0942 21.4085C38.0942 20.681 37.9752 19.8986 37.6893 19.186C37.4126 18.4961 36.8933 17.6698 35.9633 17.2048C35.954 17.2002 35.9447 17.1956 35.9354 17.1911L32.6372 15.608C32.1099 15.3549 31.4963 15.3549 30.969 15.608L27.6709 17.1911C27.6615 17.1956 27.6522 17.2002 27.643 17.2048C26.713 17.6698 26.1936 18.4961 25.9169 19.186C25.6311 19.8986 25.512 20.681 25.512 21.4085C25.512 22.1361 25.6311 22.9184 25.9169 23.6311C26.1199 24.1373 26.4537 24.717 26.9845 25.1735V35.6565H22.1658C21.3164 35.6565 20.5672 36.2125 20.321 37.0254C20.0749 37.8384 20.3899 38.7166 21.0966 39.1877C21.8105 39.6637 22.606 40.4059 23.207 41.2398C23.8285 42.1019 24.0933 42.8514 24.0933 43.3664V66.4959H12.5285C11.464 66.4959 10.601 67.3588 10.601 68.4233C10.601 69.4879 11.464 70.3508 12.5285 70.3508V147.45H1.92746C0.862954 147.45 0 148.312 0 149.377C0 150.441 0.862954 151.304 1.92746 151.304H264.062C264.077 151.304 264.091 151.304 264.105 151.304C265.15 151.281 265.99 150.427 265.99 149.377C265.99 148.312 265.127 147.449 264.062 147.449H253.461V70.3503C254.526 70.3503 255.389 69.4874 255.389 68.4229C255.389 67.3584 254.526 66.4954 253.461 66.4954H241.896V43.3659C241.896 42.8509 242.161 42.1015 242.783 41.2393C243.384 40.4054 244.179 39.6632 244.893 39.1872C245.6 38.7161 245.915 37.8379 245.669 37.0249C245.422 36.212 244.673 35.656 243.824 35.656H239.005V25.173C239.536 24.7165 239.87 24.1368 240.073 23.6306C240.359 22.9179 240.478 22.1356 240.478 21.408C240.478 20.6805 240.359 19.8981 240.073 19.1855C239.796 18.4957 239.277 17.6693 238.347 17.2043L238.342 17.202C238.334 17.1981 238.327 17.1944 238.319 17.1906L235.021 15.6075C234.493 15.3544 233.88 15.3544 233.352 15.6075L230.054 17.1906C230.045 17.1951 230.036 17.1997 230.026 17.2043C229.096 17.6693 228.577 18.4957 228.3 19.1855C228.014 19.8981 227.895 20.6805 227.895 21.408C227.895 22.1356 228.014 22.9179 228.3 23.6306C228.503 24.1368 228.837 24.7165 229.368 25.173V35.656H224.549C223.7 35.656 222.951 36.212 222.704 37.0249C222.458 37.8379 222.773 38.7161 223.48 39.1872C224.194 39.6632 224.989 40.4054 225.59 41.2393C226.212 42.1015 226.477 42.8509 226.477 43.3659V66.4956L199.492 66.4977V43.3683C199.492 42.8533 199.757 42.1039 200.378 41.2417C200.98 40.4078 201.775 39.6656 202.489 39.1896C203.196 38.7185 203.511 37.8403 203.264 37.0273C203.018 36.2144 202.269 35.6584 201.42 35.6584H196.601V25.1754C197.132 24.7189 197.466 24.1392 197.669 23.633C197.954 22.9203 198.073 22.138 198.073 21.4104C198.073 20.6829 197.954 19.9005 197.669 19.1879C197.392 18.4981 196.873 17.6717 195.943 17.2067C195.933 17.2021 195.924 17.1975 195.915 17.193L192.616 15.6099C192.089 15.3568 191.476 15.3568 190.948 15.6099L187.65 17.193C187.641 17.1975 187.631 17.2021 187.622 17.2067C186.692 17.6717 186.173 18.4981 185.896 19.1879C185.61 19.9005 185.491 20.6829 185.491 21.4104C185.491 22.138 185.61 22.9203 185.896 23.633C186.099 24.1392 186.433 24.7189 186.964 25.1754V35.6584H182.145C181.296 35.6584 180.546 36.2144 180.3 37.0273C180.054 37.8403 180.369 38.7185 181.076 39.1896C181.79 39.6656 182.585 40.4078 183.186 41.2417C183.808 42.1039 184.073 42.8533 184.073 43.3683V54.9613C182.062 53.7251 179.709 53.0032 177.326 53.0032C174.944 53.0032 172.591 53.7251 170.58 54.9613V27.9482C170.58 27.4332 170.845 26.6838 171.467 25.8216C172.068 24.9878 172.863 24.2455 173.577 23.7696C174.284 23.2984 174.599 22.4202 174.353 21.6073C174.106 20.7943 173.357 20.2383 172.508 20.2383H167.689V9.75535C168.22 9.29885 168.554 8.71912 168.757 8.21289C169.043 7.50023 169.162 6.7179 169.162 5.99034C169.162 5.26278 169.043 4.48045 168.757 3.7678C168.48 3.07796 167.961 2.25163 167.031 1.78663C167.025 1.78381 167.019 1.78102 167.014 1.77826L167.003 1.77295L163.705 0.189813ZM249.606 70.3511H247.679V149.377H249.606M238.041 43.3659C238.041 43.0987 238.091 42.8232 238.175 42.5445C238.387 41.4422 238.844 40.4062 239.506 39.5117H228.867C229.529 40.4062 229.986 41.4422 230.198 42.5445C230.282 42.8232 230.332 43.0987 230.332 43.3659V68.4229V68.4236H238.041M199.795 70.3526L226.172 70.3511C227.415 71.2744 228.211 72.6749 228.373 74.206H197.596C197.758 72.6757 198.553 71.2759 199.795 70.3526ZM195.637 68.4236V43.3683C195.637 43.1597 195.675 42.9391 195.741 42.711C195.937 41.5466 196.406 40.4511 197.102 39.5117H194.682L194.674 39.5134C194.646 39.5134 194.62 39.5128 194.593 39.5117H188.972C188.945 39.5128 188.918 39.5134 188.891 39.5134L188.883 39.5117H186.463C187.136 40.4216 187.598 41.4779 187.805 42.6014C187.883 42.8685 187.927 43.1265 187.927 43.3683V68.4236H195.637ZM177.671 56.8656C179.027 56.924 180.382 57.3236 181.595 57.9802C184.225 59.47 186 62.2939 186 65.5324V68.4236H168.653V65.5324C168.653 62.2939 170.428 59.4699 173.058 57.9801C174.271 57.3235 175.626 56.924 176.982 56.8656C177.096 56.8611 177.211 56.8588 177.326 56.8588C177.442 56.8588 177.557 56.8611 177.671 56.8656ZM190.819 37.5842H192.746V24.092H190.819V37.5842ZM235.15 37.5842H233.223H235.15ZM233.223 37.5842V37.5835V24.092H235.15V37.5835M16.3834 149.377H18.3109V70.3511H16.3834V149.377ZM35.658 68.4236H27.9482H35.658ZM27.9482 68.4236V43.3664C27.9482 43.1351 27.9071 42.8976 27.8353 42.6572C27.6339 41.5129 27.1684 40.4366 26.4833 39.5117H37.1229C36.4005 40.4871 35.9221 41.6308 35.7403 42.8451C35.6874 43.0214 35.658 43.1956 35.658 43.3664V68.4236M30.8394 37.584V24.092H32.7668V37.584M166.725 27.9482V68.4236H159.016V27.9482C159.016 27.7395 158.979 27.5222 158.913 27.2999C158.718 26.1323 158.248 25.0337 157.551 24.092H159.97L159.979 24.0933C160.003 24.0933 160.026 24.0928 160.05 24.092H165.691C165.715 24.0928 165.738 24.0933 165.762 24.0933L165.774 24.092H168.19C167.527 24.988 167.069 26.026 166.858 27.1302C166.774 27.4077 166.725 27.6821 166.725 27.9482ZM163.834 22.1645V8.67231H161.907V22.1645H163.834ZM106.974 27.9487V68.4236H99.2642V27.9487C99.2642 27.6426 99.2072 27.333 99.1107 27.0245C98.8911 25.9597 98.4417 24.9593 97.7994 24.092H100.197L100.228 24.0937C100.256 24.0937 100.283 24.0932 100.311 24.092H105.928C105.955 24.0932 105.983 24.0937 106.01 24.0937L106.02 24.092H108.439C107.732 25.0468 107.258 26.1629 107.068 27.3487C107.008 27.5564 106.974 27.7576 106.974 27.9487ZM104.083 22.1645V8.67231H102.155V22.1645H104.083ZM88.8622 56.8611C90.2736 56.8964 91.69 57.3046 92.9508 57.991C95.5704 59.4835 97.3368 62.3017 97.3368 65.5324V68.4236H79.9896V65.5324C79.9896 62.3017 81.756 59.4835 84.3756 57.991C85.6364 57.3046 87.0529 56.8964 88.4642 56.8611C88.5304 56.8596 88.5967 56.8588 88.6632 56.8588C88.7297 56.8588 88.7961 56.8596 88.8622 56.8611ZM78.0622 43.3688V68.4236H70.3523V43.3688C70.3523 43.0038 70.2772 42.6232 70.1538 42.2404C69.9208 41.2518 69.4887 40.3234 68.8875 39.5117H71.2975L71.3161 39.5138C71.3468 39.5138 71.3773 39.5131 71.4077 39.5117H77.0068C77.0372 39.5131 77.0677 39.5138 77.0984 39.5138L77.1386 39.5117H79.527C78.8554 40.4185 78.3947 41.4709 78.1871 42.5902C78.108 42.8504 78.0622 43.1108 78.0622 43.3688ZM75.171 37.5842V24.092H73.2435V37.5842H75.171ZM66.1954 70.353C67.4372 71.2764 68.2318 72.676 68.394 74.206H37.6163C37.7787 72.6749 38.5743 71.2744 39.8176 70.3511L66.1954 70.353ZM195.637 149.377H153.233V145.522H195.637V149.377ZM157.088 143.595H153.233V104.697C153.233 97.4915 149.007 90.9558 142.436 87.9989L133.39 83.9282C133.139 83.815 132.851 83.815 132.599 83.9282L123.553 87.9989C116.982 90.9558 112.756 97.4915 112.756 104.697V143.595H108.902V104.547C108.902 95.3757 114.55 87.1514 123.11 83.8589L132.995 80.0572L142.879 83.8589C151.44 87.1514 157.088 95.3757 157.088 104.547V143.595ZM70.3523 145.522H112.756V149.377H70.3523V145.522ZM101.419 6.74485L101.216 6.64311C100.505 6.28795 100.505 5.27429 101.216 4.91913L103.119 3.96741L105.023 4.91913C105.733 5.27429 105.733 6.28795 105.023 6.64311L104.819 6.74485H101.419ZM108.902 68.4236V59.75C108.902 46.4437 119.688 35.6568 132.995 35.6568C146.301 35.6568 157.088 46.4437 157.088 59.75V68.4236H155.161V59.75C155.161 47.5082 145.237 37.5842 132.995 37.5842C120.753 37.5842 110.829 47.5082 110.829 59.75V68.4236H108.902ZM154.856 70.3511C156.099 71.2744 156.895 72.6749 157.057 74.206H108.932C109.095 72.6749 109.89 71.2744 111.134 70.3511H154.856ZM108.439 70.3511C107.501 71.618 106.974 73.1689 106.974 74.7896V143.595H99.2642V74.7896C99.2642 73.1689 98.7377 71.618 97.7994 70.3511H108.439ZM68.8875 70.3511C69.8258 71.618 70.3523 73.1689 70.3523 74.7896V143.595H78.0622V74.7896C78.0622 73.1689 78.5887 71.618 79.527 70.3511H68.8875ZM82.2217 70.3511C80.9784 71.2744 80.1828 72.6749 80.0205 74.206H97.3059C97.1436 72.6749 96.348 71.2744 95.1047 70.3511H82.2217ZM79.9896 76.1335V84.668C80.9813 83.2566 82.3202 82.0824 83.9223 81.2814L88.2322 79.1264C88.5035 78.9907 88.8229 78.9907 89.0942 79.1264L93.4041 81.2814C95.0062 82.0824 96.3451 83.2566 97.3368 84.668V76.1335H79.9896ZM79.9896 90.7632V106.973H97.3368V90.7632C97.3368 87.4779 95.4806 84.4746 92.5421 83.0053L88.6632 81.0659L84.7843 83.0053C81.8458 84.4746 79.9896 87.4779 79.9896 90.7632ZM79.9896 108.9V117.435C80.9813 116.023 82.3202 114.849 83.9223 114.048L88.2322 111.893C88.5035 111.758 88.8229 111.758 89.0942 111.893L93.4041 114.048C95.0062 114.849 96.3451 116.023 97.3368 117.435V108.9H79.9896ZM79.9896 123.53V130.102H97.3368V123.53C97.3368 120.245 95.4806 117.241 92.5421 115.772L88.6632 113.833L84.7843 115.772C81.8458 117.241 79.9896 120.245 79.9896 123.53ZM79.9896 132.03V143.595H97.3368V132.03H79.9896ZM68.4249 143.595V96.1532C68.4249 91.3511 65.6801 86.9716 61.3584 84.878L53.0052 80.8315L51.5315 81.5454L60.6396 86.0999C64.2308 87.8957 66.4993 91.5663 66.4993 95.5815V143.595H68.4249ZM64.5718 143.595V95.5815C64.5718 92.2964 62.7158 89.2931 59.7775 87.8238L49.3425 82.6058L44.652 84.878C40.3303 86.9716 37.5855 91.3511 37.5855 96.1532V143.595H64.5718ZM35.658 143.595V76.1335H27.9482V143.595H35.658ZM27.9482 145.522H68.4249V149.377H27.9482V145.522ZM26.0207 149.377V74.7896C26.0207 73.035 25.1884 71.3906 23.7886 70.3511H20.2383V149.377H26.0207ZM26.4833 70.3511C27.3084 71.465 27.815 72.7986 27.9254 74.206H35.6809C35.7912 72.7986 36.2978 71.465 37.1229 70.3511H26.4833ZM68.4249 76.1335H37.5855V88.9413C39.0054 86.4749 41.1492 84.4332 43.8117 83.1434L52.585 78.8933C52.8504 78.7648 53.16 78.7648 53.4253 78.8933L62.1987 83.1434C64.8612 84.4332 67.0049 86.4749 68.4249 88.9413V76.1335ZM114.684 106.692C119.126 102.94 125.58 100.227 132.995 100.227C140.409 100.227 146.863 102.94 151.306 106.692V104.697C151.306 98.25 147.525 92.4023 141.645 89.7566L132.995 85.8638L124.344 89.7566C118.465 92.4023 114.684 98.25 114.684 104.697V106.692ZM108.902 95.1027C111.407 89.2255 116.208 84.4486 122.418 82.06L132.649 78.1252C132.872 78.0395 133.118 78.0395 133.341 78.1252L143.571 82.06C149.782 84.4486 154.582 89.2255 157.088 95.1027V76.1335H108.902V95.1027ZM166.725 143.595V74.7896C166.725 73.1689 167.252 71.618 168.19 70.3511H157.551C158.489 71.618 159.016 73.1689 159.016 74.7896V143.595H166.725ZM186.463 70.3511C187.401 71.618 187.927 73.1689 187.927 74.7896V143.595H195.637V74.7896C195.637 73.1689 196.164 71.618 197.102 70.3511H186.463ZM228.867 70.3511C229.692 71.465 230.198 72.7986 230.309 74.206H238.064C238.175 72.7986 238.681 71.465 239.506 70.3511H228.867ZM242.201 70.3511C240.801 71.3906 239.969 73.035 239.969 74.7896V149.377H245.751V70.3511H242.201ZM197.565 143.595H199.49V95.5815C199.49 91.5663 201.759 87.8957 205.35 86.0999L214.458 81.5454L212.984 80.8315L204.631 84.878C200.31 86.9716 197.565 91.3511 197.565 96.1532V143.595ZM197.565 88.9413C198.985 86.4749 201.128 84.4332 203.791 83.1434L212.564 78.8933C212.83 78.7648 213.139 78.7648 213.405 78.8933L222.178 83.1434C224.84 84.4332 226.984 86.4749 228.404 88.9413V76.1335H197.565V88.9413ZM238.041 149.377V145.522H197.565V149.377H238.041ZM230.332 76.1335V143.595H238.041V76.1335H230.332ZM228.404 143.595V96.1532C228.404 91.3511 225.659 86.9716 221.338 84.878L216.647 82.6058L206.212 87.8238C203.274 89.2931 201.418 92.2964 201.418 95.5815V143.595H228.404ZM186 143.595V132.03H168.653V143.595H186ZM186 130.102V123.53C186 120.245 184.144 117.241 181.205 115.772L177.326 113.833L173.447 115.772C170.509 117.241 168.653 120.245 168.653 123.53V130.102H186ZM168.653 117.435C169.645 116.023 170.983 114.849 172.585 114.048L176.895 111.893C177.167 111.758 177.486 111.758 177.757 111.893L182.067 114.048C183.669 114.849 185.008 116.023 186 117.435V108.9H168.653V117.435ZM186 106.973V90.7632C186 87.4779 184.144 84.4746 181.205 83.0053L177.326 81.0659L173.447 83.0053C170.509 84.4746 168.653 87.4779 168.653 90.7632V106.973H186ZM168.653 84.668C169.645 83.2566 170.983 82.0824 172.585 81.2814L176.895 79.1264C177.167 78.9907 177.486 78.9907 177.757 79.1264L182.067 81.2814C183.669 82.0824 185.008 83.2566 186 84.668V76.1335H168.653V84.668ZM168.684 74.206H185.969C185.807 72.6749 185.011 71.2744 183.768 70.3511H170.885C169.642 71.2744 168.846 72.6749 168.684 74.206ZM153.233 68.4236H112.756V59.75C112.756 48.5727 121.817 39.5117 132.995 39.5117C144.172 39.5117 153.233 48.5727 153.233 59.75V68.4236ZM75.9072 22.1645L76.1107 22.0628C76.821 21.7076 76.821 20.694 76.1107 20.3388L74.2072 19.3871L72.3038 20.3388C71.5935 20.694 71.5935 21.7076 72.3038 22.0628L72.5073 22.1645H75.9072ZM33.5031 22.1645L33.7066 22.0628C34.4169 21.7076 34.4169 20.694 33.7066 20.3388L31.8031 19.3871L29.8997 20.3388C29.1893 20.694 29.1893 21.7076 29.8997 22.0628L30.1032 22.1645H33.5031ZM235.886 22.1645L236.09 22.0628C236.8 21.7076 236.8 20.694 236.09 20.3388L234.187 19.3871L232.283 20.3388C231.573 20.694 231.573 21.7076 232.283 22.0628L232.487 22.1645H235.886ZM32.7668 37.584H30.8394H32.7668ZM193.482 22.1645L193.686 22.0628C194.396 21.7076 194.396 20.694 193.686 20.3388L191.782 19.3871L189.879 20.3388C189.169 20.694 189.373 22.1645 190.082 22.1645H193.482ZM164.57 6.74485C165.28 6.74485 165.484 5.27429 164.774 4.91913L162.87 3.96741L160.967 4.91913C160.257 5.27429 160.461 6.74485 161.171 6.74485H164.57ZM116.611 147.449V110.868C120.547 107.065 125.839 104.081 132.995 104.081C140.151 104.081 145.443 107.065 149.378 110.867V147.449L116.611 147.449Z" fill="#003B4B"/>
</svg>
