<svg width="245" height="166" viewBox="0 0 245 166" fill="none" xmlns="http://www.w3.org/2000/svg">
<path fill-rule="evenodd" clip-rule="evenodd" d="M122.394 0C114.052 0 106.01 6.73694 106.01 15.4197V21.2021H104.083C103.018 21.2021 102.155 22.065 102.155 23.1295V29.8756H101.192C100.127 29.8756 99.2643 30.7386 99.2643 31.8031V38.5492H98.3005C97.236 38.5492 96.3731 39.4122 96.3731 40.4767V47.2228H93.4819C92.4174 47.2228 91.5544 48.0858 91.5544 49.1503V55.8964H86.7357C85.6712 55.8964 84.8083 56.7593 84.8083 57.8238V64.5699H79.0259C77.9614 64.5699 77.0984 65.4329 77.0984 66.4974V73.2435H72.2798C71.2153 73.2435 70.3523 74.1065 70.3523 75.171V81.9171H64.5699C63.5054 81.9171 62.6425 82.7801 62.6425 83.8446V90.5907H57.8238C56.7593 90.5907 55.8964 91.4536 55.8964 92.5181V99.2643H52.0415C50.9769 99.2643 50.114 100.127 50.114 101.192V107.938H48.1865C47.122 107.938 46.2591 108.801 46.2591 109.865V116.611H44.3316C43.2671 116.611 42.4041 117.474 42.4041 118.539V125.285H40.4767C39.4122 125.285 38.5492 126.148 38.5492 127.212V133.959H36.6218C35.5573 133.959 34.6943 134.822 34.6943 135.886V142.632H32.7668C31.7023 142.632 30.8394 143.495 30.8394 144.56V158.052H13.4922C12.4277 158.052 11.5648 158.915 11.5648 159.979V161.907H1.92746C0.862954 161.907 0 162.77 0 163.834C0 164.899 0.862954 165.762 1.92746 165.762H242.86C243.925 165.762 244.788 164.899 244.788 163.834C244.788 162.77 243.925 161.907 242.86 161.907H233.223V159.979C233.223 158.915 232.36 158.052 231.295 158.052H213.948V144.56C213.948 143.495 213.085 142.632 212.021 142.632H210.093V135.886C210.093 134.822 209.23 133.959 208.166 133.959H206.238V127.212C206.238 126.148 205.375 125.285 204.311 125.285H202.383V118.539C202.383 117.474 201.52 116.611 200.456 116.611H198.529V109.865C198.529 108.801 197.666 107.938 196.601 107.938H194.674V101.192C194.674 100.127 193.811 99.2643 192.746 99.2643H188.891V92.5181C188.891 91.4536 188.028 90.5907 186.964 90.5907H182.145V83.8446C182.145 82.7801 181.282 81.9171 180.218 81.9171H174.435V75.171C174.435 74.1065 173.572 73.2435 172.508 73.2435H167.689V66.4974C167.689 65.4329 166.826 64.5699 165.762 64.5699H159.979V57.8238C159.979 56.7593 159.116 55.8964 158.052 55.8964H153.233V49.1503C153.233 48.0858 152.37 47.2228 151.306 47.2228H148.415V40.4767C148.415 39.4122 147.552 38.5492 146.487 38.5492H145.523V31.8031C145.523 30.7386 144.66 29.8756 143.596 29.8756H142.632V23.1295C142.632 22.065 141.769 21.2021 140.705 21.2021H138.777V15.4197C138.777 6.73694 130.735 0 122.394 0ZM15.4197 163.834H229.368V161.907H15.4197V163.834ZM106.01 31.8031H138.777V25.057H106.01V31.8031ZM109.865 23.1295H134.922V16.3834C134.922 11.6206 132.265 7.47851 128.351 5.35928C126.545 4.40565 124.5 3.85492 122.394 3.85492C120.287 3.85492 118.242 4.40569 116.436 5.35939C112.523 7.47864 109.865 11.6207 109.865 16.3834V23.1295ZM103.119 33.7306V40.4767H141.668V33.7306H103.119ZM100.228 42.4041V49.1503H144.56V42.4041H100.228ZM95.4093 51.0777V57.8238H149.378V51.0777H95.4093ZM88.6632 59.7513V66.4974H156.124V59.7513H88.6632ZM80.9534 68.4249V75.171H163.834V68.4249H80.9534ZM74.2073 77.0984V83.8446H170.58V77.0984H74.2073ZM66.4974 85.772V92.5181H178.29V85.772H66.4974ZM59.7513 94.4456V101.192H185.036V94.4456H59.7513ZM53.9689 103.119V109.865H190.819V103.119H53.9689ZM50.114 111.793V118.539H194.674V111.793H50.114ZM46.2591 120.466V127.212H198.529V120.466H46.2591ZM42.4041 129.14V135.886H202.383V129.14H42.4041ZM38.5492 137.813V144.56H206.238V137.813H38.5492ZM34.6943 146.487V158.052H112.192C113.45 153.602 117.541 150.342 122.394 150.342C127.246 150.342 131.337 153.602 132.596 158.052H210.093V146.487H34.6943ZM130.574 158.052C129.383 154.683 126.17 152.269 122.394 152.269C118.617 152.269 115.404 154.683 114.214 158.052H130.574Z" fill="#003B4B"/>
</svg>
