<svg width="204" height="151" viewBox="0 0 204 151" fill="none" xmlns="http://www.w3.org/2000/svg">
<path fill-rule="evenodd" clip-rule="evenodd" d="M133.959 32.765C133.426 32.765 132.995 33.1964 132.995 33.7287V45.2934C132.995 45.8257 133.426 46.2572 133.959 46.2572H137.813C138.346 46.2572 138.777 45.8257 138.777 45.2934V33.7287C138.777 33.1964 138.346 32.765 137.813 32.765H133.959ZM134.922 44.3297V34.6924H136.85V44.3297H134.922Z" fill="#003B4B"/>
<path fill-rule="evenodd" clip-rule="evenodd" d="M141.668 32.765C141.136 32.765 140.705 33.1964 140.705 33.7287V45.2934C140.705 45.8257 141.136 46.2572 141.668 46.2572H151.306C151.838 46.2572 152.269 45.8257 152.269 45.2934V33.7287C152.269 33.1964 151.838 32.765 151.306 32.765H141.668ZM142.632 44.3297V34.6924H150.342V44.3297H142.632Z" fill="#003B4B"/>
<path fill-rule="evenodd" clip-rule="evenodd" d="M155.161 32.765C154.628 32.765 154.197 33.1964 154.197 33.7287V45.2934C154.197 45.8257 154.628 46.2572 155.161 46.2572H159.016C159.548 46.2572 159.979 45.8257 159.979 45.2934V33.7287C159.979 33.1964 159.548 32.765 159.016 32.765H155.161ZM156.124 44.3297V34.6924H158.052V44.3297H156.124Z" fill="#003B4B"/>
<path fill-rule="evenodd" clip-rule="evenodd" d="M43.3679 32.765C42.8356 32.765 42.4041 33.1964 42.4041 33.7287V45.2934C42.4041 45.8257 42.8356 46.2572 43.3679 46.2572H47.2228C47.7551 46.2572 48.1865 45.8257 48.1865 45.2934V33.7287C48.1865 33.1964 47.7551 32.765 47.2228 32.765H43.3679ZM44.3316 44.3297V34.6924H46.2591V44.3297H44.3316Z" fill="#003B4B"/>
<path fill-rule="evenodd" clip-rule="evenodd" d="M51.0777 32.765C50.5455 32.765 50.114 33.1964 50.114 33.7287V45.2934C50.114 45.8257 50.5455 46.2572 51.0777 46.2572H60.715C61.2473 46.2572 61.6788 45.8257 61.6788 45.2934V33.7287C61.6788 33.1964 61.2473 32.765 60.715 32.765H51.0777ZM52.0415 44.3297V34.6924H59.7513V44.3297H52.0415Z" fill="#003B4B"/>
<path fill-rule="evenodd" clip-rule="evenodd" d="M64.5699 32.765C64.0377 32.765 63.6062 33.1964 63.6062 33.7287V45.2934C63.6062 45.8257 64.0377 46.2572 64.5699 46.2572H68.4249C68.9571 46.2572 69.3886 45.8257 69.3886 45.2934V33.7287C69.3886 33.1964 68.9571 32.765 68.4249 32.765H64.5699ZM65.5337 44.3297V34.6924H67.4611V44.3297H65.5337Z" fill="#003B4B"/>
<path fill-rule="evenodd" clip-rule="evenodd" d="M76.1347 32.765C75.6025 32.765 75.171 33.1964 75.171 33.7287V45.2934C75.171 45.8257 75.6025 46.2572 76.1347 46.2572H85.772C86.3043 46.2572 86.7357 45.8257 86.7357 45.2934V33.7287C86.7357 33.1964 86.3043 32.765 85.772 32.765H76.1347ZM77.0984 44.3297V34.6924H84.8083V44.3297H77.0984Z" fill="#003B4B"/>
<path fill-rule="evenodd" clip-rule="evenodd" d="M89.6269 32.765C89.0947 32.765 88.6632 33.1964 88.6632 33.7287V45.2934C88.6632 45.8257 89.0947 46.2572 89.6269 46.2572H112.756C113.289 46.2572 113.72 45.8257 113.72 45.2934V33.7287C113.72 33.1964 113.289 32.765 112.756 32.765H89.6269ZM90.5907 44.3297V34.6924H111.793V44.3297H90.5907Z" fill="#003B4B"/>
<path fill-rule="evenodd" clip-rule="evenodd" d="M116.611 32.765C116.079 32.765 115.648 33.1964 115.648 33.7287V45.2934C115.648 45.8257 116.079 46.2572 116.611 46.2572H126.249C126.781 46.2572 127.212 45.8257 127.212 45.2934V33.7287C127.212 33.1964 126.781 32.765 126.249 32.765H116.611ZM117.575 44.3297V34.6924H125.285V44.3297H117.575Z" fill="#003B4B"/>
<path fill-rule="evenodd" clip-rule="evenodd" d="M46.2591 91.5525V100.226H47.2228C47.7551 100.226 48.1865 100.658 48.1865 101.19V110.827C48.1865 111.359 47.7551 111.791 47.2228 111.791H31.8031C31.2709 111.791 30.8394 111.359 30.8394 110.827V101.19C30.8394 100.658 31.2709 100.226 31.8031 100.226H32.7668V91.5525C32.7668 87.8267 35.7872 84.8064 39.513 84.8064C43.2387 84.8064 46.2591 87.8267 46.2591 91.5525ZM34.6943 91.5525C34.6943 88.8912 36.8517 86.7339 39.513 86.7339C42.1742 86.7339 44.3316 88.8912 44.3316 91.5525V101.19C44.3316 101.722 44.7631 102.154 45.2953 102.154H46.2591V109.863H42.4041V95.4074C42.4041 94.8752 41.9727 94.4437 41.4404 94.4437H37.5855C37.0532 94.4437 36.6218 94.8752 36.6218 95.4074V109.863H32.7668V102.154H33.7306C34.2628 102.154 34.6943 101.722 34.6943 101.19V91.5525ZM40.4767 96.3712V109.863H38.5492V96.3712H40.4767Z" fill="#003B4B"/>
<path fill-rule="evenodd" clip-rule="evenodd" d="M101.192 84.8064C96.4014 84.8064 92.5181 88.6897 92.5181 93.48V100.226H89.6269C89.0947 100.226 88.6632 100.658 88.6632 101.19V110.827C88.6632 111.359 89.0947 111.791 89.6269 111.791H112.756C113.289 111.791 113.72 111.359 113.72 110.827V101.19C113.72 100.658 113.289 100.226 112.756 100.226H109.865V93.48C109.865 88.6897 105.982 84.8064 101.192 84.8064ZM94.4456 93.48C94.4456 89.7542 97.4659 86.7339 101.192 86.7339C104.917 86.7339 107.938 89.7542 107.938 93.48V101.19C107.938 101.722 108.369 102.154 108.902 102.154H111.793V109.863H106.01V95.4074C106.01 94.8752 105.579 94.4437 105.047 94.4437H97.3368C96.8045 94.4437 96.3731 94.8752 96.3731 95.4074V109.863H90.5907V102.154H93.4819C94.0141 102.154 94.4456 101.722 94.4456 101.19V93.48ZM104.083 96.3712V109.863H98.3005V96.3712H104.083Z" fill="#003B4B"/>
<path fill-rule="evenodd" clip-rule="evenodd" d="M162.87 84.8064C159.145 84.8064 156.124 87.8267 156.124 91.5525V100.226H155.161C154.628 100.226 154.197 100.658 154.197 101.19V110.827C154.197 111.359 154.628 111.791 155.161 111.791H170.58C171.113 111.791 171.544 111.359 171.544 110.827V101.19C171.544 100.658 171.113 100.226 170.58 100.226H169.617V91.5525C169.617 87.8267 166.596 84.8064 162.87 84.8064ZM156.124 109.863V102.154H157.088C157.62 102.154 158.052 101.722 158.052 101.19V91.5525C158.052 88.8912 160.209 86.7339 162.87 86.7339C165.532 86.7339 167.689 88.8912 167.689 91.5525V101.19C167.689 101.722 168.121 102.154 168.653 102.154H169.617V109.863H165.762V95.4074C165.762 94.8752 165.33 94.4437 164.798 94.4437H160.943C160.411 94.4437 159.979 94.8752 159.979 95.4074V109.863H156.124ZM163.834 96.3712V109.863H161.907V96.3712H163.834Z" fill="#003B4B"/>
<path fill-rule="evenodd" clip-rule="evenodd" d="M13.5659 150.34C13.5415 150.341 13.5169 150.341 13.4922 150.341H1.92746C0.862954 150.341 0 149.479 0 148.414C0 147.349 0.862954 146.487 1.92746 146.487H11.5648V73.243C11.5648 72.1785 12.4277 71.3155 13.4922 71.3155H30.8394V48.186C30.8394 47.1215 31.7023 46.2585 32.7668 46.2585H36.6218V28.9114C36.6218 27.8469 37.4847 26.9839 38.5492 26.9839H50.0312C59.7041 12.3046 74.8809 0.000420186 100.228 1.07517e-08C125.512 -0.000418939 142.563 12.2428 152.35 26.9853H163.834C164.899 26.9853 165.762 27.8482 165.762 28.9127V46.2599H169.617C170.681 46.2599 171.544 47.1228 171.544 48.1873V71.3169H188.891C189.956 71.3169 190.819 72.1798 190.819 73.2443V146.487H201.42C202.484 146.487 203.347 147.349 203.347 148.414C203.347 149.479 202.484 150.341 201.42 150.341H188.891C188.867 150.341 188.842 150.341 188.818 150.34H13.5659ZM100.51 3.85545C99.2022 3.8646 97.8342 3.89943 96.4301 3.95495C90.9096 4.25012 85.9456 5.18894 81.4702 6.6431C70.2208 10.5806 60.532 18.6039 53.8053 28.91H148.578C145.562 24.2895 141.951 20.1277 137.871 16.5874C128.715 9.06608 116.379 3.91559 100.51 3.85545ZM151.204 30.8375H131.067V48.1846H161.907V30.8402H151.306C151.272 30.8402 151.238 30.8393 151.204 30.8375ZM163.732 50.1121H138.777V73.2416H148.415V63.0956C148.415 61.2704 149.446 59.6019 151.078 58.7857L152.802 57.9237C153.073 57.788 153.393 57.788 153.664 57.9237L155.388 58.7857C157.021 59.6019 158.052 61.2704 158.052 63.0956V73.2416H167.689V50.1148H163.834C163.8 50.1148 163.766 50.1139 163.732 50.1121ZM169.514 75.1691H138.777V148.413H150.342V91.5525C150.342 84.6332 155.951 79.024 162.87 79.024C169.79 79.024 175.399 84.6332 175.399 91.5525V148.413H186.964V75.1718H169.617C169.582 75.1718 169.548 75.1709 169.514 75.1691ZM15.4197 148.413H26.9845V91.5525C26.9845 84.6332 32.5937 79.024 39.513 79.024C46.4323 79.024 52.0415 84.6332 52.0415 91.5525V148.413H63.6062V75.1691H32.8401C32.8158 75.17 32.7914 75.1705 32.7668 75.1705H15.4197V148.413ZM34.6943 73.2416H44.3316V63.0956C44.3316 61.2704 45.3628 59.6019 46.9953 58.7857L48.7193 57.9237C48.9906 57.788 49.3099 57.788 49.5813 57.9237L51.3052 58.7857C52.9377 59.6019 53.9689 61.2704 53.9689 63.0956V73.2416H63.6062V50.1121H38.6224C38.5981 50.113 38.5737 50.1135 38.5492 50.1135H34.6943V73.2416ZM40.4767 48.1846H71.3161V30.8375H51.1504C51.1262 30.8384 51.102 30.8389 51.0777 30.8389H40.4767V48.1846ZM129.14 30.8375V48.1846H73.2435V30.8375H129.14ZM156.124 63.0956V73.2416H150.342V63.0956C150.342 62.0005 150.961 60.9994 151.94 60.5097L153.233 59.8632L154.526 60.5097C155.506 60.9994 156.124 62.0005 156.124 63.0956ZM136.85 50.1121V73.2416H107.938V65.2506C107.938 62.6953 106.494 60.3594 104.209 59.2167L101.623 57.9237C101.351 57.788 101.032 57.788 100.761 57.9237L98.1748 59.2167C95.8893 60.3594 94.4456 62.6953 94.4456 65.2506V73.2416H65.5337V50.1121H136.85ZM106.01 65.2506V73.2416H96.3731V65.2506C96.3731 63.4254 97.4043 61.7569 99.0368 60.9406L101.192 59.8632L103.347 60.9406C104.979 61.7569 106.01 63.4254 106.01 65.2506ZM65.5337 75.1691V148.413H82.8808V98.4187C82.8808 91.4831 86.7994 85.1427 93.0028 82.041L100.761 78.162C101.032 78.0264 101.351 78.0264 101.623 78.162L109.381 82.041C115.584 85.1427 119.503 91.4831 119.503 98.4187V148.413H136.85V75.1691H65.5337ZM52.0415 63.0956V73.2416H46.2591V63.0956C46.2591 62.0005 46.8778 60.9994 47.8573 60.5097L49.1503 59.8632L50.4432 60.5097C51.4227 60.9994 52.0415 62.0005 52.0415 63.0956ZM32.7668 148.413H28.9119V91.5525C28.9119 85.6977 33.6582 80.9515 39.513 80.9515C45.3677 80.9515 50.114 85.6977 50.114 91.5525V148.413H46.2591V122.392C46.2591 118.666 43.2387 115.646 39.513 115.646C35.7872 115.646 32.7668 118.666 32.7668 122.392V148.413ZM44.3316 132.993V148.413H34.6943V132.993H44.3316ZM44.3316 122.392V131.065H34.6943V122.392C34.6943 119.731 36.8517 117.573 39.513 117.573C42.1742 117.573 44.3316 119.731 44.3316 122.392ZM91.5544 148.413H84.8083V98.4187C84.8083 92.2131 88.3144 86.5402 93.8648 83.7649L101.192 80.1015L108.519 83.7649C114.069 86.5402 117.575 92.2131 117.575 98.4187V148.413H110.829V125.283C110.829 119.961 106.514 115.646 101.192 115.646C95.8692 115.646 91.5544 119.961 91.5544 125.283V148.413ZM108.902 131.065V148.413H93.4819V131.065H108.902ZM108.902 125.283V129.138H93.4819V125.283C93.4819 121.025 96.9337 117.573 101.192 117.573C105.45 117.573 108.902 121.025 108.902 125.283ZM156.124 148.413H152.269V91.5525C152.269 85.6977 157.016 80.9515 162.87 80.9515C168.725 80.9515 173.471 85.6977 173.471 91.5525V148.413H169.617V122.392C169.617 118.666 166.596 115.646 162.87 115.646C159.145 115.646 156.124 118.666 156.124 122.392V148.413ZM167.689 132.993V148.413H158.052V132.993H167.689ZM167.689 122.392V131.065H158.052V122.392C158.052 119.731 160.209 117.573 162.87 117.573C165.532 117.573 167.689 119.731 167.689 122.392Z" fill="#003B4B"/>
</svg>
