<svg width="346" height="152" viewBox="0 0 346 152" fill="none" xmlns="http://www.w3.org/2000/svg">
<path fill-rule="evenodd" clip-rule="evenodd" d="M138.777 0C137.713 0 136.85 0.862954 136.85 1.92746V4.81865H129.14C128.075 4.81865 127.212 5.68161 127.212 6.74611V49.033L111.793 58.4562L96.3731 49.033V47.2228C96.3731 46.1583 95.5101 45.2953 94.4456 45.2953H86.7358C85.6713 45.2953 84.8083 46.1583 84.8083 47.2228V49.1503H80.9534C79.8889 49.1503 79.0259 50.0132 79.0259 51.0777V76.0404L70.3523 81.5599L61.6788 76.0404V74.2073C61.6788 73.1428 60.8158 72.2798 59.7513 72.2798H53.9689C52.9044 72.2798 52.0415 73.1428 52.0415 74.2073V120.466H44.3316C43.2671 120.466 42.4041 121.329 42.4041 122.394V124.321H38.5492C37.4847 124.321 36.6218 125.184 36.6218 126.249V128.176H32.7668C31.7023 128.176 30.8394 129.039 30.8394 130.104V132.031H26.9845C25.92 132.031 25.057 132.894 25.057 133.959V135.886H21.2021C20.1376 135.886 19.2746 136.749 19.2746 137.813V139.741H15.4197C14.3552 139.741 13.4922 140.604 13.4922 141.668V143.596H11.5648C10.5003 143.596 9.63731 144.459 9.63731 145.523V147.451H1.92746C0.862954 147.451 0 148.314 0 149.378C0 150.443 0.862954 151.306 1.92746 151.306H343.087C344.152 151.306 345.015 150.443 345.015 149.378C345.015 148.314 344.152 147.451 343.087 147.451H335.378V145.523C335.378 144.459 334.515 143.596 333.45 143.596H331.523V141.668C331.523 140.604 330.66 139.741 329.595 139.741H325.74V137.813C325.74 136.749 324.877 135.886 323.813 135.886H319.958V133.959C319.958 132.894 319.095 132.031 318.03 132.031H314.176V130.104C314.176 129.039 313.313 128.176 312.248 128.176H308.393V126.249C308.393 125.184 307.53 124.321 306.466 124.321H302.611V122.394C302.611 121.329 301.748 120.466 300.683 120.466H292.974V74.2073C292.974 73.1428 292.111 72.2798 291.046 72.2798H285.264C284.199 72.2798 283.336 73.1428 283.336 74.2073V76.0404L274.663 81.5599L265.989 76.0404V51.0777C265.989 50.0132 265.126 49.1503 264.062 49.1503H260.207V47.2228C260.207 46.1583 259.344 45.2953 258.279 45.2953H250.569C249.505 45.2953 248.642 46.1583 248.642 47.2228V49.033L233.222 58.4561L217.803 49.033V6.74611C217.803 5.68161 216.94 4.81865 215.875 4.81865H208.165V1.92746C208.165 0.862954 207.302 0 206.238 0H198.528C197.463 0 196.6 0.862954 196.6 1.92746V8.53903L172.507 22.8165L148.415 8.53905V1.92746C148.415 0.862954 147.552 0 146.487 0H138.777ZM331.523 147.451V149.378H196.601V147.451H331.523ZM327.668 143.596V145.523H196.601V143.596H327.668ZM321.885 139.741V141.668H200.456V139.741H321.885ZM316.103 135.886V137.813H200.456V135.886H316.103ZM310.321 132.031V133.959H200.456V132.031H310.321ZM304.538 128.176V130.104H241.896V128.176H304.538ZM298.756 124.321V126.249H241.896V124.321H298.756ZM289.119 76.1347V122.394H287.192V76.1347H289.119ZM275.627 85.5135C275.651 85.4998 275.674 85.4855 275.697 85.4707L278.526 83.6704L285.264 79.7401V122.394H281.409V105.25C281.409 103.958 281.039 102.715 280.371 101.654C279.765 100.608 278.914 99.7037 277.865 99.0303L275.704 97.6425C275.679 97.6261 275.653 97.6104 275.627 97.5953V85.5135ZM270.788 83.6633L273.628 85.4707C273.651 85.4857 273.675 85.5002 273.699 85.5141V97.5947C273.673 97.61 273.647 97.6259 273.621 97.6425L271.46 99.0303C270.405 99.708 269.549 100.62 268.943 101.674C268.282 102.731 267.917 103.966 267.917 105.25V105.429C267.917 105.458 267.917 105.488 267.917 105.517V122.394H264.062V79.7401L270.788 83.6633ZM262.134 53.0052V77.0984C262.134 77.1133 262.134 77.1281 262.135 77.1429V122.394H258.28V53.0052H262.134ZM256.352 49.1503V51.0777C256.352 51.0927 256.352 51.1076 256.352 51.1225V122.394H252.497V49.1503H256.352ZM234.186 62.384C234.2 62.3761 234.214 62.368 234.227 62.3597L238.858 59.5299L250.57 52.7493V122.394H241.896V85.0456C241.896 82.7201 241.176 80.5304 239.925 78.7174C238.661 76.7315 236.768 75.1695 234.186 74.4007V62.384ZM227.568 59.5186L232.217 62.3597C232.231 62.3682 232.245 62.3765 232.259 62.3846V74.4004C229.668 75.1715 227.772 76.7412 226.507 78.7363C225.264 80.5457 224.549 82.7282 224.549 85.0456V85.8809C224.549 85.9237 224.549 85.9665 224.549 86.0093V120.466C224.549 120.481 224.549 120.496 224.549 120.511V126.249H215.876V52.7493L227.568 59.5186ZM213.948 8.67358V50.114C213.948 50.1288 213.948 50.1436 213.948 50.1584V126.249H206.238V8.67358H213.948ZM204.31 3.85492V6.74611C204.31 6.76079 204.31 6.77542 204.311 6.79002V126.249H200.456V3.85492H204.31ZM173.471 26.7259C173.478 26.7224 173.484 26.7188 173.49 26.7152L180.373 22.636L198.528 12.2617V124.321H196.601V46.2591C196.601 45.7268 196.169 45.2953 195.637 45.2953H191.782C191.25 45.2953 190.819 45.7268 190.819 46.2591V49.5683L187.672 51.4562C186.698 47.1706 184.028 43.8765 180.21 41.6944L173.471 37.844V26.7259ZM164.618 22.6225L171.525 26.7152C171.531 26.719 171.537 26.7228 171.544 26.7265V37.8434L164.805 41.6944C161.012 43.862 158.267 47.1772 157.332 51.4494L154.197 49.5683V46.2591C154.197 45.7268 153.765 45.2953 153.233 45.2953H149.378C148.846 45.2953 148.414 45.7268 148.414 46.2591V124.321H146.487V12.2617L164.618 22.6225ZM144.56 3.85492H140.705V6.74611C140.705 6.75267 140.705 6.75922 140.705 6.76576V126.249H144.56V3.85492ZM138.777 8.67358H131.067V50.114C131.067 50.1205 131.067 50.127 131.067 50.1335V126.249H138.777V8.67358ZM112.756 62.3843C112.77 62.3763 112.784 62.3681 112.798 62.3597L117.439 59.5233L129.14 52.7493V126.249H120.466V120.486C120.466 120.479 120.466 120.473 120.466 120.466V86.0093C120.466 85.9905 120.466 85.9718 120.466 85.953V85.0456C120.466 82.725 119.749 80.5395 118.503 78.7287C117.239 76.7373 115.343 75.1707 112.756 74.4005V62.3843ZM106.15 59.5253L110.788 62.3597C110.801 62.3681 110.815 62.3762 110.829 62.3842V74.4006C108.244 75.1703 106.349 76.7354 105.085 78.725C103.837 80.5366 103.119 82.7234 103.119 85.0456V122.394H94.4455V52.7493L106.15 59.5253ZM92.5181 49.1503H88.6632V51.0777C88.6632 51.0843 88.6632 51.0908 88.6631 51.0974V122.394H92.5181V49.1503ZM86.7357 53.0052H82.8809V77.0984C82.8809 77.1049 82.8808 77.1114 82.8808 77.1179V122.394H86.7357V53.0052ZM71.316 85.5139C71.3399 85.5 71.3637 85.4856 71.3872 85.4707L74.2228 83.6662L80.9533 79.7401V122.394H77.0985V105.517C77.0985 105.505 77.0984 105.492 77.0984 105.48V105.25C77.0984 103.963 76.7313 102.724 76.0673 101.666C75.4615 100.615 74.6073 99.7062 73.5548 99.0303L71.3939 97.6425C71.3682 97.626 71.3422 97.6101 71.316 97.595V85.5139ZM66.4839 83.6675L69.3175 85.4707C69.341 85.4856 69.3646 85.4999 69.3885 85.5138V97.5951C69.3623 97.6102 69.3364 97.626 69.3108 97.6425L67.1498 99.0303C66.0986 99.7054 65.2452 100.613 64.6395 101.662C63.9741 102.721 63.6061 103.961 63.6061 105.25V122.394H59.7512V79.7401L66.4839 83.6675ZM57.8238 76.1347H55.8964V122.394H57.8238V76.1347ZM46.2591 124.321V126.249H103.119V124.321H46.2591ZM105.047 124.321V126.249H114.684V124.321H105.047ZM116.611 122.413V130.104H118.539V122.394H116.611C116.611 122.4 116.611 122.407 116.611 122.413ZM184.097 55.8492L173.471 62.2244V69.8182L175.681 71.199L176.327 71.5546C176.359 71.5719 176.39 71.5901 176.42 71.609C176.728 71.8013 177.029 72.0079 177.32 72.2283C179.508 73.687 180.908 76.0543 181.145 78.654L183.109 77.5087V75.171C183.109 74.6387 183.54 74.2073 184.072 74.2073H187.927C188.46 74.2073 188.891 74.6387 188.891 75.171V120.466H190.819V51.8161L187.134 54.0271C187.062 54.0848 186.986 54.1378 186.905 54.1856L184.097 55.8492ZM173.471 85.5135C173.501 85.4962 173.531 85.478 173.56 85.459L175.72 84.0501L183.109 79.7401V117.844L180.218 118.808V99.2222C180.218 96.5236 178.609 94.0846 176.129 93.0216L174.503 92.3247L173.471 91.809V85.5135ZM169.287 84.0451L171.454 85.4589C171.484 85.4782 171.514 85.4966 171.544 85.5141V91.8085L170.507 92.3272L168.887 93.0216C166.406 94.0846 164.798 96.5236 164.798 99.2222V100.116C164.798 100.139 164.797 100.163 164.797 100.186V118.808L161.907 117.844V79.7401L169.287 84.0451ZM169.34 71.1954L168.687 71.5547C168.656 71.5719 168.625 71.5901 168.595 71.609C168.285 71.8026 167.982 72.0105 167.689 72.2325C165.505 73.6916 164.107 76.0569 163.87 78.654L161.907 77.5086V75.171C161.907 74.6387 161.475 74.2073 160.943 74.2073H157.088C156.556 74.2073 156.124 74.6387 156.124 75.171V120.466H154.197V51.8161L171.544 62.2244V69.8182L169.34 71.1954ZM170.911 122.878L161.907 119.876V149.378H163.834V134.922C163.834 134.39 164.266 133.959 164.798 133.959H180.218C180.75 133.959 181.181 134.39 181.181 134.922V149.378H183.109V119.876L174.097 122.88L173.206 123.226C172.983 123.313 172.747 123.357 172.512 123.358C172.509 123.358 172.506 123.358 172.504 123.358C172.268 123.357 172.032 123.313 171.809 123.226L170.911 122.878ZM226.477 122.394V130.104H228.404V122.439C228.404 122.424 228.404 122.409 228.404 122.394H226.477ZM230.332 124.321V126.249H239.969V124.321M230.332 124.321H239.968H230.332ZM13.4922 149.378H148.414V147.451H13.4922V149.378ZM17.3472 145.523H148.414V143.596H17.3472V145.523ZM23.1295 141.668H144.56V139.741H23.1295V141.668ZM28.9119 137.813H144.56V135.886H28.9119V137.813ZM34.6943 133.959H144.56V132.031H34.6943V133.959ZM40.4767 130.104H103.119V128.176H40.4767V130.104ZM166.718 45.0414L172.507 41.7329L178.297 45.0414C181.042 46.6098 182.893 48.8027 183.724 51.5896L172.509 58.2328L161.281 51.5576C162.087 48.8239 163.969 46.6121 166.718 45.0414ZM170.594 74.9053L172.507 73.8531L174.42 74.9053C175.932 75.8618 176.907 77.0887 177.218 78.4704L172.507 81.5433L167.796 78.4705C168.108 77.0887 169.082 75.8618 170.594 74.9053ZM106.974 86.0093C106.974 82.0988 108.688 79.1427 111.793 78.1384C114.898 79.1427 116.611 82.0988 116.611 86.0093V118.539H114.684C113.619 118.539 112.757 119.402 112.757 120.466H106.974V86.0093ZM228.404 86.0093C228.404 82.0988 230.117 79.1427 233.222 78.1384C236.327 79.1427 238.041 82.0988 238.041 86.0093V120.466H232.258C232.258 119.402 231.396 118.539 230.331 118.539H228.404V86.0093ZM171.442 96.1696L172.507 95.6368L173.573 96.1696C173.607 96.1865 173.641 96.2024 173.676 96.2172C174.342 96.5027 175.034 97.0878 175.563 97.8698C176.092 98.6529 176.362 99.4907 176.362 100.186V117.863L172.507 119.362L168.652 117.863V100.186C168.652 99.4907 168.922 98.6529 169.452 97.8698C169.981 97.0878 170.673 96.5027 171.339 96.2172C171.36 96.2082 171.381 96.1988 171.402 96.189C171.415 96.1827 171.429 96.1762 171.442 96.1696ZM69.233 102.274L70.3523 101.555L71.4717 102.274C72.5759 102.983 73.2435 104.205 73.2435 105.517V120.466H67.4612V105.517C67.4612 104.205 68.1288 102.983 69.233 102.274ZM273.543 102.274L274.663 101.555L275.782 102.274C276.886 102.983 277.554 104.205 277.554 105.517V120.466H271.771V105.517C271.771 104.205 272.439 102.983 273.543 102.274ZM144.56 128.176V130.104H120.466V128.176H144.56ZM148.414 141.668H146.487V126.249H148.414V141.668ZM196.601 126.249H198.528V141.668H196.601V126.249ZM224.549 130.104H200.456V128.176H224.549V130.104ZM239.969 130.104H230.332V128.176H239.969V130.104ZM194.673 149.378H192.746V122.394H194.673V149.378ZM190.819 122.394V149.378H188.891V122.394H190.819ZM186.964 149.378H185.036V116.611H186.964V149.378ZM179.254 135.886V149.378H173.471V135.886H179.254ZM171.544 135.886V149.378H165.762V135.886H171.544ZM159.979 149.378H158.052V116.611H159.979V149.378ZM156.124 122.394V149.378H154.197V122.394H156.124ZM152.269 122.394V149.378H150.342V122.394H152.269ZM152.269 120.466H150.342V47.2228H152.269V120.466ZM194.673 120.466H192.746V47.2228H194.673V120.466ZM159.979 114.684H158.052V76.1347H159.979V114.684ZM186.964 114.684H185.036V76.1347H186.964V114.684ZM114.684 128.176V130.104H105.047V128.176H114.684Z" fill="#003B4B"/>
</svg>
