<svg width="209" height="168" viewBox="0 0 209 168" fill="none" xmlns="http://www.w3.org/2000/svg">
<path fill-rule="evenodd" clip-rule="evenodd" d="M18.3109 109.865C17.7786 109.865 17.3472 110.297 17.3472 110.829V162.87C17.3472 163.403 17.7786 163.834 18.3109 163.834H27.9482C28.4804 163.834 28.9119 163.403 28.9119 162.87V110.829C28.9119 110.297 28.4804 109.865 27.9482 109.865H18.3109ZM19.2746 111.793V119.031C19.5928 118.631 19.9473 118.25 20.3358 117.889L22.474 115.905C22.8437 115.562 23.4154 115.562 23.7851 115.905L25.9233 117.889C26.3117 118.25 26.6662 118.631 26.9845 119.031V111.793H19.2746ZM19.2746 161.907V124.321C19.2746 122.533 20.0834 120.753 21.6469 119.302L23.1295 117.926L24.6122 119.302C26.1757 120.753 26.9845 122.533 26.9845 124.321V161.907H19.2746Z" fill="#003B4B"/>
<path fill-rule="evenodd" clip-rule="evenodd" d="M104.083 41.4404C100.889 41.4404 98.3005 44.0293 98.3005 47.2228V56.8601C98.3005 57.3924 98.732 57.8238 99.2643 57.8238H108.902C109.434 57.8238 109.865 57.3924 109.865 56.8601V47.2228C109.865 44.0293 107.276 41.4404 104.083 41.4404ZM100.228 47.2228C100.228 45.0938 101.954 43.3679 104.083 43.3679C106.212 43.3679 107.938 45.0938 107.938 47.2228V55.8964H100.228V47.2228Z" fill="#003B4B"/>
<path fill-rule="evenodd" clip-rule="evenodd" d="M180.218 109.865C179.685 109.865 179.254 110.297 179.254 110.829V162.87C179.254 163.403 179.685 163.834 180.218 163.834H189.855C190.387 163.834 190.819 163.403 190.819 162.87V110.829C190.819 110.297 190.387 109.865 189.855 109.865H180.218ZM181.181 111.793V119.031C181.5 118.631 181.854 118.25 182.243 117.889L184.381 115.905C184.75 115.562 185.322 115.562 185.692 115.905L187.83 117.889C188.218 118.25 188.573 118.631 188.891 119.031V111.793H181.181ZM181.181 161.907V124.321C181.181 122.533 181.99 120.753 183.554 119.302L185.036 117.926L186.519 119.302C188.082 120.753 188.891 122.533 188.891 124.321V161.907H181.181Z" fill="#003B4B"/>
<path d="M48.1865 135.886C48.1865 135.354 47.7551 134.922 47.2228 134.922C46.6905 134.922 46.2591 135.354 46.2591 135.886V138.777C46.2591 139.309 46.6905 139.741 47.2228 139.741C47.7551 139.741 48.1865 139.309 48.1865 138.777V135.886Z" fill="#003B4B"/>
<path fill-rule="evenodd" clip-rule="evenodd" d="M64.5699 159.979H41.4404C40.9082 159.979 40.4767 159.548 40.4767 159.016V129.541C40.4767 124.796 43.1578 120.458 47.4023 118.335L52.5742 115.749C52.8455 115.614 53.1649 115.614 53.4362 115.749L58.6081 118.335C58.8329 118.448 59.0533 118.566 59.2693 118.691C63.1291 120.918 65.5337 125.047 65.5337 129.541V159.016C65.5337 159.548 65.1022 159.979 64.5699 159.979ZM48.2643 120.059L53.0052 117.689L56.8985 119.636C53.8704 121.98 52.0415 125.622 52.0415 129.541V158.052H42.4041V129.541C42.4041 125.526 44.6728 121.855 48.2643 120.059ZM53.9689 129.541C53.9689 125.929 55.8047 122.596 58.7876 120.656C61.7705 122.596 63.6062 125.929 63.6062 129.541V158.052H53.9689V129.541Z" fill="#003B4B"/>
<path fill-rule="evenodd" clip-rule="evenodd" d="M37.5855 109.865C37.0532 109.865 36.6218 110.297 36.6218 110.829V162.87C36.6218 163.403 37.0532 163.834 37.5855 163.834H68.4249C68.9571 163.834 69.3886 163.403 69.3886 162.87V110.829C69.3886 110.297 68.9571 109.865 68.4249 109.865H37.5855ZM38.5492 161.907V111.793H67.4611V161.907H38.5492Z" fill="#003B4B"/>
<path d="M73.2435 135.886C73.2435 135.354 72.812 134.922 72.2798 134.922C71.7475 134.922 71.3161 135.354 71.3161 135.886V138.777C71.3161 139.309 71.7475 139.741 72.2798 139.741C72.812 139.741 73.2435 139.309 73.2435 138.777V135.886Z" fill="#003B4B"/>
<path d="M93.4819 135.886C93.4819 135.354 93.0504 134.922 92.5181 134.922C91.9859 134.922 91.5544 135.354 91.5544 135.886V138.777C91.5544 139.309 91.9859 139.741 92.5181 139.741C93.0504 139.741 93.4819 139.309 93.4819 138.777V135.886Z" fill="#003B4B"/>
<path d="M116.611 135.886C116.611 135.354 116.18 134.922 115.648 134.922C115.115 134.922 114.684 135.354 114.684 135.886V138.777C114.684 139.309 115.115 139.741 115.648 139.741C116.18 139.741 116.611 139.309 116.611 138.777V135.886Z" fill="#003B4B"/>
<path fill-rule="evenodd" clip-rule="evenodd" d="M104.572 115.781C104.27 115.603 103.896 115.603 103.594 115.781L95.4026 120.599C95.3948 120.604 95.3872 120.609 95.3796 120.613C95.3646 120.623 95.3499 120.633 95.3354 120.643L92.0393 122.969C88.7136 125.317 86.7357 129.134 86.7357 133.205V159.016C86.7357 159.548 87.1672 159.979 87.6995 159.979H120.466C120.999 159.979 121.43 159.548 121.43 159.016V133.205C121.43 129.134 119.452 125.317 116.127 122.969L112.83 120.643C112.809 120.627 112.786 120.613 112.763 120.599L104.572 115.781ZM109.865 158.052H98.3005V140.705C98.3005 137.511 100.889 134.922 104.083 134.922C107.276 134.922 109.865 137.511 109.865 140.705V158.052ZM111.793 140.705V158.052H119.503V133.205C119.503 129.76 117.829 126.53 115.015 124.544L111.752 122.24L104.083 117.73L96.4142 122.24L93.1508 124.544C90.3367 126.53 88.6632 129.76 88.6632 133.205V158.052H96.3731V140.705C96.3731 136.447 99.8249 132.995 104.083 132.995C108.341 132.995 111.793 136.447 111.793 140.705Z" fill="#003B4B"/>
<path fill-rule="evenodd" clip-rule="evenodd" d="M83.8446 109.865C83.3123 109.865 82.8808 110.297 82.8808 110.829V162.87C82.8808 163.403 83.3123 163.834 83.8446 163.834H124.321C124.854 163.834 125.285 163.403 125.285 162.87V110.829C125.285 110.297 124.854 109.865 124.321 109.865H83.8446ZM84.8083 161.907V111.793H123.358V161.907H84.8083Z" fill="#003B4B"/>
<path d="M80.9534 135.886C80.9534 135.354 80.5219 134.922 79.9896 134.922C79.4574 134.922 79.0259 135.354 79.0259 135.886V138.777C79.0259 139.309 79.4574 139.741 79.9896 139.741C80.5219 139.741 80.9534 139.309 80.9534 138.777V135.886Z" fill="#003B4B"/>
<path d="M129.14 135.886C129.14 135.354 128.708 134.922 128.176 134.922C127.644 134.922 127.212 135.354 127.212 135.886V138.777C127.212 139.309 127.644 139.741 128.176 139.741C128.708 139.741 129.14 139.309 129.14 138.777V135.886Z" fill="#003B4B"/>
<path d="M161.907 135.886C161.907 135.354 161.475 134.922 160.943 134.922C160.411 134.922 159.979 135.354 159.979 135.886V138.777C159.979 139.309 160.411 139.741 160.943 139.741C161.475 139.741 161.907 139.309 161.907 138.777V135.886Z" fill="#003B4B"/>
<path fill-rule="evenodd" clip-rule="evenodd" d="M155.592 115.749C155.32 115.614 155.001 115.614 154.73 115.749L149.558 118.335C149.333 118.448 149.112 118.566 148.897 118.691C145.037 120.918 142.632 125.047 142.632 129.541V159.016C142.632 159.548 143.064 159.979 143.596 159.979H166.725C167.258 159.979 167.689 159.548 167.689 159.016V129.541C167.689 124.796 165.008 120.458 160.764 118.335L155.592 115.749ZM165.762 158.052H156.124V129.541C156.124 125.622 154.295 121.98 151.267 119.636L155.161 117.689L159.902 120.059C163.493 121.855 165.762 125.526 165.762 129.541V158.052ZM154.197 129.541C154.197 125.929 152.361 122.596 149.378 120.656C146.395 122.596 144.56 125.929 144.56 129.541V158.052H154.197V129.541Z" fill="#003B4B"/>
<path fill-rule="evenodd" clip-rule="evenodd" d="M139.741 109.865C139.209 109.865 138.777 110.297 138.777 110.829V162.87C138.777 163.403 139.209 163.834 139.741 163.834H170.58C171.113 163.834 171.544 163.403 171.544 162.87V110.829C171.544 110.297 171.113 109.865 170.58 109.865H139.741ZM140.705 161.907V111.793H169.617V161.907H140.705Z" fill="#003B4B"/>
<path d="M136.85 135.886C136.85 135.354 136.418 134.922 135.886 134.922C135.354 134.922 134.922 135.354 134.922 135.886V138.777C134.922 139.309 135.354 139.741 135.886 139.741C136.418 139.741 136.85 139.309 136.85 138.777V135.886Z" fill="#003B4B"/>
<path fill-rule="evenodd" clip-rule="evenodd" d="M104.55 0.0575491C104.243 -0.0191831 103.922 -0.019183 103.615 0.0575493L96.5424 1.8258C90.892 3.23841 85.3335 5.0817 79.9579 7.32153C70.7889 11.1419 63.5547 19.8505 62.7224 29.8756H61.6788C60.6143 29.8756 59.7513 30.7386 59.7513 31.8031V37.5855C59.7513 38.65 60.6143 39.513 61.6788 39.513H62.6425V59.7513H61.6788C60.6143 59.7513 59.7513 60.6143 59.7513 61.6788V63.6062H30.8394C29.7749 63.6062 28.9119 64.4692 28.9119 65.5337V104.083H13.4922C12.4277 104.083 11.5648 104.946 11.5648 106.01V163.834H1.92746C0.862954 163.834 0 164.697 0 165.762C0 166.826 0.862954 167.689 1.92746 167.689H206.238C207.303 167.689 208.166 166.826 208.166 165.762C208.166 164.697 207.303 163.834 206.238 163.834H196.601V106.01C196.601 104.946 195.738 104.083 194.674 104.083H179.254V65.5337C179.254 64.4692 178.391 63.6062 177.326 63.6062H148.415V61.6788C148.415 60.6143 147.552 59.7513 146.487 59.7513H145.523V39.513H146.487C147.552 39.513 148.415 38.65 148.415 37.5855V31.8031C148.415 30.7386 147.552 29.8756 146.487 29.8756H145.443C144.611 19.8505 137.377 11.1419 128.208 7.32153C122.832 5.0817 117.274 3.23841 111.623 1.8258L104.55 0.0575491ZM15.4197 165.762H30.8394V107.938H15.4197V165.762ZM32.7668 106.01H46.2591V88.6632C46.2591 84.4052 49.7109 80.9534 53.9689 80.9534C54.9793 80.9534 55.9466 81.1482 56.8334 81.5033C59.6714 82.6396 61.6788 85.4158 61.6788 88.6632V106.01H75.171V67.4611H32.7668V106.01ZM63.6062 65.5337H144.56V63.6062H63.6062V65.5337ZM66.4974 61.6788H141.668V37.5855H66.4974V61.6788ZM144.56 35.658V33.7306H63.6062V35.658H144.56ZM70.1866 20.1169C67.9945 23.5637 66.69 27.5788 66.5171 31.8031H141.649C141.476 27.5788 140.171 23.5637 137.979 20.1169C135.29 16.0853 131.322 12.7954 126.725 10.8799C121.527 8.71385 116.151 6.93133 110.688 5.56562L104.083 3.91424L97.4774 5.56562C92.0146 6.93133 86.6391 8.71385 81.4405 10.8799C76.8435 12.7954 72.8759 16.0853 70.1866 20.1169ZM132.995 67.4611V106.01H146.487V88.6632C146.487 85.4158 148.494 82.6396 151.332 81.5033C152.219 81.1482 153.186 80.9534 154.197 80.9534C158.455 80.9534 161.907 84.4052 161.907 88.6632V106.01H175.399V67.4611H132.995ZM177.326 107.938V165.762H192.746V107.938H177.326ZM32.7668 107.938V165.762H75.171V107.938H32.7668ZM131.067 107.938V165.762H77.0984V107.938H131.067ZM94.4456 106.01H77.0984V67.4611H131.067V106.01H113.72V90.3085C113.72 87.1586 112.012 84.2562 109.259 82.7265L104.551 80.1109C104.26 79.9492 103.906 79.9492 103.615 80.1109L98.9069 82.7265C96.1534 84.2562 94.4456 87.1586 94.4456 90.3085V106.01ZM59.7513 88.6632V106.01H53.9689V87.6995C53.9689 85.8696 54.9891 84.2761 56.4948 83.46C58.4239 84.3983 59.7513 86.3768 59.7513 88.6632ZM52.0415 87.6995V106.01H48.1865V88.6632C48.1865 85.4697 50.7754 82.8808 53.9689 82.8808C54.0012 82.8808 54.0335 82.8811 54.0657 82.8816C52.817 84.1055 52.0415 85.8114 52.0415 87.6995ZM175.399 107.938V165.762H132.995V107.938H175.399ZM159.979 88.6632V106.01H156.124V87.6995C156.124 85.8114 155.349 84.1055 154.1 82.8816C154.132 82.8811 154.165 82.8808 154.197 82.8808C157.39 82.8808 159.979 85.4697 159.979 88.6632ZM154.197 87.6995V106.01H148.415V88.6632C148.415 86.3768 149.742 84.3983 151.671 83.46C153.177 84.2761 154.197 85.8696 154.197 87.6995ZM111.793 90.3085V106.01H96.3731V90.3085C96.3731 87.8586 97.7013 85.6012 99.843 84.4114L104.083 82.0558L108.323 84.4114C110.464 85.6012 111.793 87.8585 111.793 90.3085Z" fill="#003B4B"/>
</svg>
