<svg width="108" height="164" viewBox="0 0 108 164" fill="none" xmlns="http://www.w3.org/2000/svg">
<path d="M51.0777 106.974C51.0777 106.442 50.6462 106.01 50.114 106.01C49.5817 106.01 49.1503 106.442 49.1503 106.974V107.938C49.1503 108.47 49.5817 108.902 50.114 108.902C50.6462 108.902 51.0777 108.47 51.0777 107.938V106.974Z" fill="#003B4B"/>
<path d="M54.9326 106.974C54.9326 106.442 54.5012 106.01 53.9689 106.01C53.4367 106.01 53.0052 106.442 53.0052 106.974V107.938C53.0052 108.47 53.4367 108.902 53.9689 108.902C54.5012 108.902 54.9326 108.47 54.9326 107.938V106.974Z" fill="#003B4B"/>
<path d="M58.7876 106.974C58.7876 106.442 58.3561 106.01 57.8238 106.01C57.2916 106.01 56.8601 106.442 56.8601 106.974V107.938C56.8601 108.47 57.2916 108.902 57.8238 108.902C58.3561 108.902 58.7876 108.47 58.7876 107.938V106.974Z" fill="#003B4B"/>
<path d="M53.0052 109.865C53.0052 109.333 52.5737 108.902 52.0415 108.902C51.5092 108.902 51.0777 109.333 51.0777 109.865V110.829C51.0777 111.361 51.5092 111.793 52.0415 111.793C52.5737 111.793 53.0052 111.361 53.0052 110.829V109.865Z" fill="#003B4B"/>
<path d="M56.8601 109.865C56.8601 109.333 56.4286 108.902 55.8964 108.902C55.3641 108.902 54.9326 109.333 54.9326 109.865V110.829C54.9326 111.361 55.3641 111.793 55.8964 111.793C56.4286 111.793 56.8601 111.361 56.8601 110.829V109.865Z" fill="#003B4B"/>
<path d="M51.0777 112.756C51.0777 112.224 50.6462 111.793 50.114 111.793C49.5817 111.793 49.1503 112.224 49.1503 112.756V113.72C49.1503 114.252 49.5817 114.684 50.114 114.684C50.6462 114.684 51.0777 114.252 51.0777 113.72V112.756Z" fill="#003B4B"/>
<path d="M54.9326 112.756C54.9326 112.224 54.5012 111.793 53.9689 111.793C53.4367 111.793 53.0052 112.224 53.0052 112.756V113.72C53.0052 114.252 53.4367 114.684 53.9689 114.684C54.5012 114.684 54.9326 114.252 54.9326 113.72V112.756Z" fill="#003B4B"/>
<path d="M58.7876 112.756C58.7876 112.224 58.3561 111.793 57.8238 111.793C57.2916 111.793 56.8601 112.224 56.8601 112.756V113.72C56.8601 114.252 57.2916 114.684 57.8238 114.684C58.3561 114.684 58.7876 114.252 58.7876 113.72V112.756Z" fill="#003B4B"/>
<path d="M53.0052 115.648C53.0052 115.115 52.5737 114.684 52.0415 114.684C51.5092 114.684 51.0777 115.115 51.0777 115.648V116.611C51.0777 117.144 51.5092 117.575 52.0415 117.575C52.5737 117.575 53.0052 117.144 53.0052 116.611V115.648Z" fill="#003B4B"/>
<path d="M56.8601 115.648C56.8601 115.115 56.4286 114.684 55.8964 114.684C55.3641 114.684 54.9326 115.115 54.9326 115.648V116.611C54.9326 117.144 55.3641 117.575 55.8964 117.575C56.4286 117.575 56.8601 117.144 56.8601 116.611V115.648Z" fill="#003B4B"/>
<path d="M51.0777 118.539C51.0777 118.007 50.6462 117.575 50.114 117.575C49.5817 117.575 49.1503 118.007 49.1503 118.539V119.503C49.1503 120.035 49.5817 120.466 50.114 120.466C50.6462 120.466 51.0777 120.035 51.0777 119.503V118.539Z" fill="#003B4B"/>
<path d="M54.9326 118.539C54.9326 118.007 54.5012 117.575 53.9689 117.575C53.4367 117.575 53.0052 118.007 53.0052 118.539V119.503C53.0052 120.035 53.4367 120.466 53.9689 120.466C54.5012 120.466 54.9326 120.035 54.9326 119.503V118.539Z" fill="#003B4B"/>
<path d="M58.7876 118.539C58.7876 118.007 58.3561 117.575 57.8238 117.575C57.2916 117.575 56.8601 118.007 56.8601 118.539V119.503C56.8601 120.035 57.2916 120.466 57.8238 120.466C58.3561 120.466 58.7876 120.035 58.7876 119.503V118.539Z" fill="#003B4B"/>
<path fill-rule="evenodd" clip-rule="evenodd" d="M53.9689 0C52.845 0 52.0129 0.51126 51.4554 1.12191C51.0031 1.61717 50.7077 2.21112 50.5483 2.53165L50.521 2.58646L12.1752 79.2779C11.7738 80.0808 11.5648 80.9662 11.5648 81.8639V159.98H1.92746C0.862954 159.98 0 160.843 0 161.907C0 162.972 0.862954 163.835 1.92746 163.835H13.4922C13.507 163.835 13.5218 163.835 13.5366 163.834H94.4013C94.416 163.835 94.4308 163.835 94.4456 163.835H106.01C107.075 163.835 107.938 162.972 107.938 161.907C107.938 160.843 107.075 159.98 106.01 159.98H96.3731V81.8639C96.3731 80.9662 96.1641 80.0808 95.7626 79.2779L57.4169 2.58646L57.3895 2.53161C57.2301 2.21106 56.9347 1.61713 56.4825 1.12191C55.9249 0.511262 55.0928 0 53.9689 0ZM92.5181 161.907V159.979H62.6425V161.907H92.5181ZM92.5181 158.052V95.1004C92.5181 93.1311 91.6576 91.26 90.1623 89.9784L90.1088 89.9325L90.0553 89.9784C88.56 91.26 87.6995 93.1311 87.6995 95.1004V158.052H92.5181ZM92.5181 89.6487V85.772H87.6995V89.6487C88.0288 89.2412 88.3968 88.8613 88.8009 88.515L89.4816 87.9315C89.8425 87.6221 90.3751 87.6221 90.736 87.9315L91.4167 88.515C91.8208 88.8613 92.1888 89.2412 92.5181 89.6487ZM92.5181 83.8446V81.9171H83.8446V158.052H85.772V84.8083C85.772 84.276 86.2035 83.8446 86.7357 83.8446H92.5181ZM61.0433 18.4593L91.8085 79.9896H83.5545L61.0433 18.4593ZM16.1293 79.9896L46.8945 18.4594L24.3834 79.9896H16.1293ZM15.4197 81.9171V83.8446H21.2021C21.7343 83.8446 22.1658 84.276 22.1658 84.8083V158.052H24.0933V81.9171H15.4197ZM15.4197 85.772V89.6487C15.749 89.2412 16.117 88.8613 16.5211 88.515L17.2018 87.9315C17.5627 87.6221 18.0953 87.6221 18.4562 87.9315L19.1369 88.515C19.541 88.8613 19.9091 89.2412 20.2383 89.6487V85.772H15.4197ZM15.4197 95.1004V158.052H20.2383V95.1004C20.2383 93.1311 19.3778 91.26 17.8825 89.9784L17.829 89.9325L17.7755 89.9784C16.2802 91.26 15.4197 93.1311 15.4197 95.1004ZM15.4197 159.979V161.907H45.2953V159.979H15.4197ZM27.9482 158.052H26.0207V81.9171H41.4404V158.052H39.513V84.8083C39.513 84.276 39.0815 83.8446 38.5492 83.8446H28.9119C28.3797 83.8446 27.9482 84.276 27.9482 84.8083V158.052ZM41.5712 79.9896H26.4358L51.6614 11.0395L41.5712 79.9896ZM43.5192 79.9896L53.9689 8.5831L64.4186 79.9896H43.5192ZM43.3679 158.052V81.9171H64.5699V158.052H62.6425V84.8083C62.6425 84.276 62.211 83.8446 61.6788 83.8446H46.2591C45.7268 83.8446 45.2953 84.276 45.2953 84.8083V158.052H43.3679ZM68.4249 158.052H66.4974V81.9171H81.9171V158.052H79.9896V84.8083C79.9896 84.276 79.5582 83.8446 79.0259 83.8446H69.3886C68.8563 83.8446 68.4249 84.276 68.4249 84.8083V158.052ZM66.3666 79.9896L56.2764 11.0395L81.502 79.9896H66.3666ZM60.715 161.907H47.2228V139.741H60.715V161.907ZM60.715 98.8233V137.813H47.2228V98.8233C47.2228 95.8328 48.7634 93.0531 51.2994 91.4681L53.9689 89.7997L56.6384 91.4681C59.1744 93.0531 60.715 95.8328 60.715 98.8233ZM50.2778 89.8337C49.0573 90.5965 48.0254 91.5858 47.2228 92.7281V85.772H60.715V92.7281C59.9125 91.5858 58.8806 90.5965 57.66 89.8337L54.4797 87.846C54.1672 87.6507 53.7706 87.6507 53.4581 87.846L50.2778 89.8337ZM78.0622 95.0133V158.052H70.3523V95.0133C70.3523 93.2688 71.251 91.6473 72.7303 90.7228L74.2073 89.7997L75.6842 90.7228C77.1635 91.6473 78.0622 93.2688 78.0622 95.0133ZM71.7088 89.0883C71.2059 89.4026 70.7515 89.7753 70.3523 90.1944V85.772H78.0622V90.1944C77.663 89.7753 77.2087 89.4026 76.7057 89.0883L74.718 87.846C74.4055 87.6507 74.009 87.6507 73.6965 87.846L71.7088 89.0883ZM37.5855 95.0133V158.052H29.8756V95.0133C29.8756 93.2688 30.7743 91.6473 32.2537 90.7228L33.7306 89.7997L35.2075 90.7228C36.6868 91.6473 37.5855 93.2688 37.5855 95.0133ZM31.2321 89.0883C30.7292 89.4026 30.2748 89.7753 29.8756 90.1944V85.772H37.5855V90.1944C37.1863 89.7753 36.732 89.4026 36.229 89.0883L34.2413 87.846C33.9288 87.6507 33.5323 87.6507 33.2198 87.846L31.2321 89.0883Z" fill="#003B4B"/>
</svg>
