<svg width="271" height="148" viewBox="0 0 271 148" fill="none" xmlns="http://www.w3.org/2000/svg">
<path d="M164.798 15.419C164.798 14.8868 164.366 14.4553 163.834 14.4553C163.302 14.4553 162.87 14.8868 162.87 15.419V21.2013C162.87 21.7335 163.302 22.165 163.834 22.165C164.366 22.165 164.798 21.7335 164.798 21.2013V15.419Z" fill="#003B4B"/>
<path d="M169.617 15.419C169.617 14.8868 169.185 14.4553 168.653 14.4553C168.121 14.4553 167.689 14.8868 167.689 15.419V21.2013C167.689 21.7335 168.121 22.165 168.653 22.165C169.185 22.165 169.617 21.7335 169.617 21.2013V15.419Z" fill="#003B4B"/>
<path d="M125.285 12.5278C125.285 11.9956 124.854 11.5641 124.321 11.5641C123.789 11.5641 123.358 11.9956 123.358 12.5278V17.3464C123.358 17.8787 123.789 18.3102 124.321 18.3102C124.854 18.3102 125.285 17.8787 125.285 17.3464V12.5278Z" fill="#003B4B"/>
<path d="M131.067 12.5278C131.067 11.9956 130.636 11.5641 130.104 11.5641C129.571 11.5641 129.14 11.9956 129.14 12.5278V17.3464C129.14 17.8787 129.571 18.3102 130.104 18.3102C130.636 18.3102 131.067 17.8787 131.067 17.3464V12.5278Z" fill="#003B4B"/>
<path d="M136.85 12.5278C136.85 11.9956 136.418 11.5641 135.886 11.5641C135.354 11.5641 134.922 11.9956 134.922 12.5278V17.3464C134.922 17.8787 135.354 18.3102 135.886 18.3102C136.418 18.3102 136.85 17.8787 136.85 17.3464V12.5278Z" fill="#003B4B"/>
<path d="M142.632 12.5278C142.632 11.9956 142.201 11.5641 141.668 11.5641C141.136 11.5641 140.705 11.9956 140.705 12.5278V17.3464C140.705 17.8787 141.136 18.3102 141.668 18.3102C142.201 18.3102 142.632 17.8787 142.632 17.3464V12.5278Z" fill="#003B4B"/>
<path d="M148.415 12.5278C148.415 11.9956 147.983 11.5641 147.451 11.5641C146.919 11.5641 146.487 11.9956 146.487 12.5278V17.3464C146.487 17.8787 146.919 18.3102 147.451 18.3102C147.983 18.3102 148.415 17.8787 148.415 17.3464V12.5278Z" fill="#003B4B"/>
<path d="M125.285 21.2018C125.285 20.6695 124.854 20.2381 124.321 20.2381C123.789 20.2381 123.358 20.6695 123.358 21.2018V23.1297C123.358 23.6619 123.789 24.0934 124.321 24.0934C124.854 24.0934 125.285 23.6619 125.285 23.1297V21.2018Z" fill="#003B4B"/>
<path d="M131.067 21.2018C131.067 20.6695 130.636 20.2381 130.104 20.2381C129.571 20.2381 129.14 20.6695 129.14 21.2018V23.1297C129.14 23.6619 129.571 24.0934 130.104 24.0934C130.636 24.0934 131.067 23.6619 131.067 23.1297V21.2018Z" fill="#003B4B"/>
<path d="M136.85 21.2018C136.85 20.6695 136.418 20.2381 135.886 20.2381C135.354 20.2381 134.922 20.6695 134.922 21.2018V23.1297C134.922 23.6619 135.354 24.0934 135.886 24.0934C136.418 24.0934 136.85 23.6619 136.85 23.1297V21.2018Z" fill="#003B4B"/>
<path d="M142.632 21.2018C142.632 20.6695 142.201 20.2381 141.668 20.2381C141.136 20.2381 140.705 20.6695 140.705 21.2018V23.1297C140.705 23.6619 141.136 24.0934 141.668 24.0934C142.201 24.0934 142.632 23.6619 142.632 23.1297V21.2018Z" fill="#003B4B"/>
<path d="M148.415 21.2018C148.415 20.6695 147.983 20.2381 147.451 20.2381C146.919 20.2381 146.487 20.6695 146.487 21.2018V23.1297C146.487 23.6619 146.919 24.0934 147.451 24.0934C147.983 24.0934 148.415 23.6619 148.415 23.1297V21.2018Z" fill="#003B4B"/>
<path d="M104.083 15.419C104.083 14.8868 103.652 14.4553 103.119 14.4553C102.587 14.4553 102.156 14.8868 102.156 15.419V21.2013C102.156 21.7335 102.587 22.165 103.119 22.165C103.652 22.165 104.083 21.7335 104.083 21.2013V15.419Z" fill="#003B4B"/>
<path d="M108.902 15.419C108.902 14.8868 108.47 14.4553 107.938 14.4553C107.406 14.4553 106.974 14.8868 106.974 15.419V21.2013C106.974 21.7335 107.406 22.165 107.938 22.165C108.47 22.165 108.902 21.7335 108.902 21.2013V15.419Z" fill="#003B4B"/>
<path fill-rule="evenodd" clip-rule="evenodd" d="M117.778 0.0105929C117.331 -0.0364781 116.881 0.0742869 116.507 0.323715L111.21 3.85485L97.3378 3.8544C96.8266 3.85438 96.3363 4.05744 95.9748 4.41891C95.6133 4.78038 95.4102 5.27063 95.4102 5.78183V71.6646C94.1508 72.9994 92.6145 74.4429 91.245 75.6498L91.2434 75.6512L13.7307 143.594H1.92745C0.862949 143.594 0 144.457 0 145.521C0 146.586 0.862949 147.449 1.92745 147.449L82.845 147.45C82.8689 147.451 82.8927 147.451 82.9164 147.45L267.917 147.449C267.939 147.449 267.962 147.448 267.984 147.446H268.881C269.945 147.446 270.808 146.583 270.808 145.519C270.808 144.454 269.945 143.591 268.881 143.591H257.086L180.202 75.2615L180.196 75.256C178.851 74.071 177.572 72.8257 176.363 71.526V5.78183C176.363 5.27063 176.16 4.78038 175.799 4.41891C175.437 4.05744 174.947 3.85438 174.436 3.8544L160.563 3.85485L155.267 0.323715C154.893 0.0742837 154.443 -0.0364809 153.996 0.0105946L145.774 0.87602C139.201 1.56795 132.574 1.56798 126.001 0.876109L117.778 0.0105929ZM213.147 109.699L253.455 145.522L218.292 145.522L170.648 80.6965C164.14 71.8414 160.447 61.2519 160.021 50.3033C162.354 58.9354 166.703 66.9395 172.757 73.6265C174.185 75.2034 175.707 76.7071 177.32 78.1285L213.147 109.699ZM159.979 7.70974L172.508 7.70927V70.3897C164.465 60.6243 159.979 48.2982 159.979 35.4685V7.70974ZM119.503 4.06833L125.597 4.7098C132.438 5.42991 139.337 5.42988 146.178 4.7097L152.269 4.06848V40.0894C152.269 56.3684 155.623 72.4728 162.12 87.3991L187.42 145.523H170.385L154.467 75.9889C152.979 69.4889 149.36 63.6735 144.184 59.4687L136.494 53.2202C136.14 52.9325 135.632 52.9325 135.278 53.2202L127.588 59.4687C126.058 60.7114 124.665 62.0948 123.422 63.5951C121.728 65.6394 120.314 67.9006 119.218 70.3181C118.397 72.1291 117.754 74.0279 117.305 75.9889L101.388 145.523L84.3519 145.523L109.652 87.3991C116.15 72.4728 119.503 56.3684 119.503 40.0894V4.06833ZM99.2652 70.389V7.70933L111.793 7.70974V35.4685C111.793 48.2978 107.307 60.6237 99.2652 70.389ZM123.663 97.4323C124.949 91.7404 130.005 87.6982 135.841 87.6982C141.711 87.6982 146.789 91.7884 148.038 97.5243L158.077 143.594H113.24L123.663 97.4323ZM116.461 111.828L119.739 96.8419C119.954 95.8591 120.254 94.9124 120.63 94.009C119.521 91.8615 118.137 89.8673 116.515 88.0768L103.365 145.523H108.901C108.901 145.381 108.916 145.238 108.948 145.097L116.461 111.828ZM136.498 83.8565C137.604 83.897 138.685 84.047 139.731 84.2968C138.076 78.393 134.519 73.1806 129.589 69.4836L124.332 65.5408C123.173 67.0373 122.169 68.6478 121.335 70.3472L122.057 70.7915C127.198 73.954 131.217 78.5704 133.652 83.9896C134.37 83.8931 135.1 83.8434 135.841 83.8434C136.061 83.8434 136.28 83.8477 136.498 83.8565ZM131.708 84.3729C129.413 79.4791 125.727 75.3121 121.047 72.4331L120.54 72.1212C119.976 73.5079 119.521 74.9446 119.184 76.419L118.945 77.4602C122.157 79.9541 124.81 83.0663 126.761 86.5919C127.146 86.337 127.542 86.098 127.948 85.8756C129.124 85.2259 130.386 84.7183 131.708 84.3729ZM99.0153 73.6265C105.069 66.9395 109.418 58.9354 111.751 50.3033C111.325 61.2519 107.632 71.8414 101.124 80.6965L53.4808 145.522L17.9709 145.521L94.4522 78.1285C96.0653 76.7071 97.5876 75.2034 99.0153 73.6265ZM102.677 81.8379L55.8727 145.522L82.2498 145.523L107.885 86.6298C114.277 71.9463 117.575 56.1037 117.575 40.0894V4.69175L113.72 7.26135V48.1655C113.72 60.2794 109.851 72.0767 102.677 81.8379ZM154.197 40.0894V4.69175L158.052 7.26135V48.1655C158.052 60.2794 161.921 72.0767 169.095 81.8379L215.9 145.522L189.523 145.523L163.887 86.6298C157.495 71.9463 154.197 56.1037 154.197 40.0894ZM152.588 76.419L168.407 145.523H162.683L148.695 81.344C147.206 74.5111 143.367 68.4171 137.847 64.1237L131.24 58.9849L135.886 55.2099L142.969 60.9646C147.81 64.8982 151.197 70.3383 152.588 76.419ZM121.683 91.9164C120.402 89.6955 118.839 87.6457 117.032 85.8199L118.467 79.548C121.226 81.8369 123.51 84.6283 125.204 87.7609C123.819 88.9337 122.625 90.3351 121.683 91.9164ZM130.746 67.9416L125.566 64.0568C126.556 62.9468 127.637 61.912 128.803 60.9646L129.704 60.2324L136.664 65.6451C141.828 69.6616 145.419 75.3623 146.812 81.7544L148.557 89.7584C146.779 87.6388 144.488 85.9873 141.896 84.9748C140.289 78.1722 136.346 72.142 130.746 67.9416Z" fill="#003B4B"/>
</svg>
