<svg width="114" height="146" viewBox="0 0 114 146" fill="none" xmlns="http://www.w3.org/2000/svg">
<path fill-rule="evenodd" clip-rule="evenodd" d="M58.3079 1.60445C58.3079 0.718337 57.5878 0 56.6995 0C55.8111 0 55.091 0.718337 55.091 1.60445V3.40709L31.7028 15.072C31.1578 15.3438 30.8136 15.8994 30.8136 16.5071V23.9584C30.8136 24.0464 30.8207 24.1327 30.8344 24.2168H11.8797C10.9913 24.2168 10.2712 24.9351 10.2712 25.8212V142.506H1.60847C0.720135 142.506 0 143.225 0 144.111C0 144.799 0.434133 145.386 1.04405 145.614C1.18924 145.757 1.38854 145.845 1.60847 145.845H111.79C112.01 145.845 112.21 145.757 112.355 145.614C112.965 145.386 113.399 144.799 113.399 144.111C113.399 143.225 112.679 142.506 111.79 142.506H103.128V25.8212C103.128 24.9351 102.408 24.2168 101.519 24.2168H82.5646C82.5782 24.1327 82.5853 24.0464 82.5853 23.9584V16.5071C82.5853 15.8994 82.2411 15.3438 81.6962 15.072L58.3079 3.40709V1.60445ZM22.9332 36.2521C23.1257 36.1299 23.325 36.0161 23.5305 35.9113L26.4536 34.4211C26.6835 34.3039 26.9558 34.3039 27.1856 34.4211L30.1087 35.9113C30.3143 36.0161 30.5135 36.1299 30.706 36.2521C31.4876 36.6898 32.0894 37.2367 32.5516 37.8515V32.2119H21.0876V37.8515C21.5498 37.2367 22.1517 36.6898 22.9332 36.2521ZM82.6929 36.252C82.8855 36.1299 83.0847 36.0161 83.2903 35.9113L86.2133 34.4211C86.4432 34.3039 86.7155 34.3039 86.9454 34.4211L89.8684 35.9113C90.074 36.0161 90.2732 36.1299 90.4658 36.252C91.2473 36.6898 91.8491 37.2367 92.3113 37.8515V32.2119H80.8474V37.8515C81.3096 37.2367 81.9114 36.6898 82.6929 36.252ZM24.6285 38.9857L26.8196 37.8687L29.0107 38.9857C30.3353 39.661 30.8136 41.0599 30.8136 43.5181V110.838H22.8256V43.5181C22.8256 41.0599 23.3039 39.661 24.6285 38.9857ZM84.3883 38.9857L86.5793 37.8687L88.7704 38.9857C90.095 39.661 90.5734 41.0599 90.5734 43.5181V110.838H82.5853V43.5181C82.5853 41.0599 83.0637 39.661 84.3883 38.9857ZM46.0553 16.6363L53.4486 7.92057L36.6456 16.6363H46.0553ZM45.624 18.2407H34.1601V22.2248H45.624V18.2407ZM66.1665 18.2407V22.2248H47.2325V18.2407H66.1665ZM56.6995 6.57205L65.2367 16.6363H48.1623L56.6995 6.57205ZM67.3437 16.6363L59.9504 7.92057L76.7533 16.6363H67.3437ZM67.7749 18.2407H79.2389V22.2248H67.7749V18.2407ZM37.895 25.9504V23.8292H75.5039V25.9504H37.895ZM19.4792 144.24H13.6177V136.53H19.4792V144.24ZM19.4792 134.926H13.6177V129.079H19.4792V134.926ZM19.4792 127.475H13.6177V121.628H19.4792V127.475ZM19.4792 120.023H13.6177V114.176H19.4792V120.023ZM19.4792 112.572H13.6177V106.725H19.4792V112.572ZM19.4792 105.121H13.6177V99.2738H19.4792V105.121ZM19.4792 97.6694H13.6177V91.8225H19.4792V97.6694ZM19.4792 90.2181H13.6177V84.3712H19.4792V90.2181ZM19.4792 82.7667H13.6177V76.9199H19.4792V82.7667ZM19.4792 75.3154H13.6177V69.4685H19.4792V75.3154ZM19.4792 67.8641H13.6177V62.0172H19.4792V67.8641ZM19.4792 60.4128H13.6177V54.5659H19.4792V60.4128ZM19.4792 52.9615H13.6177V47.1146H19.4792V52.9615ZM19.4792 45.5101H13.6177V39.6633H19.4792V45.5101ZM19.4792 38.0588H13.6177V32.2119H19.4792V38.0588ZM13.6177 30.6075V27.5549H32.5516V30.6075H13.6177ZM34.1601 30.6075V27.5549H49.359V30.6075H34.1601ZM50.9675 27.5549H62.4315V40.6493C62.4312 40.6743 62.431 40.6993 62.431 40.7243C62.431 40.7335 62.4312 40.7426 62.4315 40.7516V45.5101H50.9675V40.7516C50.9678 40.7426 50.9679 40.7335 50.9679 40.7243C50.9679 40.712 50.9679 40.6997 50.9678 40.6874C50.9678 40.6747 50.9676 40.662 50.9675 40.6493V27.5549ZM64.0399 30.6075V27.5549H79.2389V30.6075H64.0399ZM80.8474 30.6075V27.5549H99.7813V30.6075H80.8474ZM93.9198 32.2119H99.7813V38.0588H93.9198V32.2119ZM93.9198 39.6633H99.7813V45.5101H93.9198V39.6633ZM93.9198 47.1146H99.7813V52.9615H93.9198V47.1146ZM93.9198 54.5659H99.7813V60.4128H93.9198V54.5659ZM93.9198 62.0172H99.7813V67.8641H93.9198V62.0172ZM93.9198 69.4685H99.7813V75.3154H93.9198V69.4685ZM93.9198 76.9199H99.7813V82.7667H93.9198V76.9199ZM93.9198 84.3712H99.7813V90.2181H93.9198V84.3712ZM93.9198 91.8225H99.7813V97.6694H93.9198V91.8225ZM93.9198 99.2738H99.7813V105.121H93.9198V99.2738ZM93.9198 106.725H99.7813V112.572H93.9198V106.725ZM93.9198 114.176H99.7813V120.023H93.9198V114.176ZM93.9198 121.628H99.7813V127.475H93.9198V121.628ZM93.9198 129.079H99.7813V134.926H93.9198V129.079ZM93.9198 136.53H99.7813V144.24H93.9198V136.53ZM92.3113 142.119V144.24H80.8474V142.119H92.3113ZM79.2389 144.24H73.3774V136.53H79.2389V144.24ZM71.7689 142.119V144.24H64.9737V142.119H71.7689ZM63.3652 144.24H50.0337V132.882C50.0337 130.364 51.4602 128.061 53.7185 126.935L56.6995 125.448L59.6805 126.935C61.9387 128.061 63.3652 130.364 63.3652 132.882V144.24ZM48.4253 142.119V144.24H41.63V142.119H48.4253ZM40.0216 144.24H34.1601V136.53H40.0216V144.24ZM32.5516 142.119V144.24H21.0876V142.119H32.5516ZM32.5516 140.514H21.0876V121.628H32.5516V140.514ZM32.5516 117.902V120.023H21.0876V117.902H32.5516ZM32.5516 114.306V116.298H21.0876V114.176H32.562C32.5551 114.219 32.5516 114.262 32.5516 114.306ZM34.1601 38.0588V32.2119H40.0216V38.0588H34.1601ZM41.63 36.6165V32.2119H49.359V36.6151C48.9574 36.1907 48.4889 35.8281 47.9632 35.5467L45.8753 34.429C45.6378 34.3018 45.3522 34.3018 45.1147 34.429L43.0268 35.5467C42.5009 35.8282 42.0319 36.1917 41.63 36.6165ZM47.2026 36.9604C48.4877 37.6484 49.3366 39.0669 49.359 40.6595V45.5101H47.2325V42.5867C47.2325 40.419 46.0886 38.4052 44.2278 37.409L43.5954 37.0705C43.6582 37.032 43.7222 36.9953 43.7874 36.9604L45.495 36.0463L47.2026 36.9604ZM49.359 47.1146V112.572H41.63V47.1146H49.359ZM62.4315 112.572H50.9675V47.1146H62.4315V112.572ZM64.0399 112.572V47.1146H71.7689V112.572H64.0399ZM71.7689 45.5101H67.7749V42.5867C67.7749 40.9679 68.6293 39.52 69.9318 38.8228L71.0185 38.241C71.4943 38.9447 71.7685 39.8091 71.7685 40.7243C71.7685 40.7335 71.7686 40.7426 71.7689 40.7516V45.5101ZM69.1712 37.409L69.8036 37.0705C69.7408 37.032 69.6767 36.9953 69.6116 36.9604L67.904 36.0463L66.1964 36.9604C64.9112 37.6484 64.0624 39.0669 64.0399 40.6595V45.5101H66.1665V42.5867C66.1665 40.419 67.3103 38.4052 69.1712 37.409ZM65.4358 35.5467C64.9101 35.8281 64.4416 36.1907 64.0399 36.6151V32.2119H71.7689V36.6165C71.3671 36.1917 70.8981 35.8282 70.3722 35.5467L68.2843 34.429C68.0468 34.3018 67.7612 34.3018 67.5237 34.429L65.4358 35.5467ZM73.3774 38.0588V32.2119H79.2389V38.0588H73.3774ZM80.837 114.176H92.3113V116.298H80.8474V114.306C80.8474 114.262 80.8438 114.219 80.837 114.176ZM80.8474 120.023V117.902H92.3113V120.023H80.8474ZM80.8474 121.628H92.3113V140.514H80.8474V121.628ZM79.2389 120.023H73.3774V114.176H79.2493C79.2424 114.219 79.2389 114.262 79.2389 114.306V120.023ZM79.2389 121.628H73.3774V127.475H79.2389V121.628ZM71.7689 117.902V120.023H41.63V117.902H71.7689ZM40.0216 120.023H34.1601V114.306C34.1601 114.262 34.1565 114.219 34.1497 114.176H40.0216V120.023ZM40.0216 121.628H34.1601V127.475H40.0216V121.628ZM34.1601 134.926V129.079H40.0216V134.926H34.1601ZM40.0216 106.725V112.572H34.1601V106.725H40.0216ZM40.0216 105.121H34.1601V99.2738H40.0216V105.121ZM40.0216 97.6694H34.1601V91.8225H40.0216V97.6694ZM40.0216 90.2181H34.1601V84.3712H40.0216V90.2181ZM40.0216 82.7667H34.1601V76.9199H40.0216V82.7667ZM40.0216 75.3154H34.1601V69.4685H40.0216V75.3154ZM40.0216 67.8641H34.1601V62.0172H40.0216V67.8641ZM40.0216 60.4128H34.1601V54.5659H40.0216V60.4128ZM40.0216 52.9615H34.1601V47.1146H40.0216V52.9615ZM40.0216 45.5101H34.1601V39.6633H40.0216V45.5101ZM41.63 45.5101V40.7516C41.6303 40.7426 41.6305 40.7335 41.6305 40.7243C41.6305 39.8091 41.9046 38.9447 42.3805 38.241L43.4672 38.8228C44.7697 39.52 45.624 40.9679 45.624 42.5867V45.5101H41.63ZM41.63 116.298V114.176H71.7689V116.298H41.63ZM48.4253 121.628H41.63V140.514H48.4253V121.628ZM52.9991 125.5C51.8039 126.096 50.7963 126.958 50.0337 127.992V121.628H63.3652V127.992C62.6026 126.958 61.5951 126.096 60.3998 125.5L57.0591 123.834C56.8327 123.721 56.5662 123.721 56.3398 123.834L52.9991 125.5ZM71.7689 121.628H64.9737V140.514H71.7689V121.628ZM73.3774 134.926V129.079H79.2389V134.926H73.3774ZM79.2389 106.725V112.572H73.3774V106.725H79.2389ZM79.2389 99.2738V105.121H73.3774V99.2738H79.2389ZM79.2389 91.8225V97.6694H73.3774V91.8225H79.2389ZM79.2389 84.3712V90.2181H73.3774V84.3712H79.2389ZM79.2389 76.9199V82.7667H73.3774V76.9199H79.2389ZM79.2389 69.4685V75.3154H73.3774V69.4685H79.2389ZM79.2389 62.0172V67.8641H73.3774V62.0172H79.2389ZM79.2389 54.5659V60.4128H73.3774V54.5659H79.2389ZM79.2389 47.1146V52.9615H73.3774V47.1146H79.2389ZM79.2389 45.5101H73.3774V39.6633H79.2389V45.5101Z" fill="#003B4B"/>
</svg>
