<svg width="186" height="92" viewBox="0 0 186 92" fill="none" xmlns="http://www.w3.org/2000/svg">
<path d="M169.617 89.6269V35.659V89.6269Z" fill="#003B4B"/>
<path fill-rule="evenodd" clip-rule="evenodd" d="M26.9835 0C19.17 0 11.5648 6.48319 11.5648 14.455V87.7004H1.92746C0.862954 87.7004 0 88.5634 0 89.6279C0 90.6924 0.862954 91.5553 1.92746 91.5553H13.4922C13.5126 91.5553 13.5328 91.555 13.553 91.5544H24.9962C25.0164 91.555 25.0366 91.5553 25.057 91.5553H34.6943C34.7146 91.5553 34.7349 91.555 34.7551 91.5544H48.1257C48.1459 91.555 48.1662 91.5553 48.1865 91.5553H79.0259C79.0463 91.5553 79.0665 91.555 79.0867 91.5544H90.5299C90.5501 91.555 90.5703 91.5553 90.5907 91.5553H94.4456C94.4659 91.5553 94.4862 91.555 94.5064 91.5544H113.659C113.68 91.555 113.7 91.5553 113.72 91.5553H123.358C123.378 91.5553 123.398 91.555 123.418 91.5544H134.861C134.882 91.555 134.902 91.5553 134.922 91.5553H159.979C160 91.5553 160.02 91.555 160.04 91.5544H171.483C171.503 91.555 171.524 91.5553 171.544 91.5553H183.109C184.173 91.5553 185.036 90.6924 185.036 89.6279C185.036 88.5634 184.173 87.7004 183.109 87.7004H173.471V35.659C173.471 16.5421 158.196 0 137.813 0C132.119 0 126.318 1.09871 121.412 3.60596C116.369 1.1088 111.006 0 105.045 0C99.0841 0 93.7235 1.10925 88.6814 3.60601C83.7748 1.09907 77.9717 0 72.2779 0C63.2546 0 54.7929 3.34448 48.5726 9.02822L32.9603 1.29147C32.9381 1.28048 32.9157 1.26992 32.8931 1.25979C31.0866 0.449638 29.085 0 26.9835 0ZM169.617 89.6269H167.687V35.658C167.687 19.1582 154.311 5.78238 137.812 5.78238C121.312 5.78238 107.936 19.1582 107.936 35.658V89.6269H102.154V35.658C102.154 19.1582 88.7778 5.78238 72.2779 5.78238C55.778 5.78238 42.4023 19.1582 42.4023 35.658V89.6269H36.6218V15.4197C36.6218 10.0972 32.307 5.78238 26.9845 5.78238C21.6619 5.78238 17.3472 10.0972 17.3472 15.4197V89.6269H15.4197V15.4187C15.4197 11.9045 16.9873 8.75635 19.4614 6.6355C21.5367 4.93309 24.2087 3.85492 26.9835 3.85492C28.518 3.85492 29.9715 4.17979 31.2832 4.76271L33.4832 5.85291C36.5415 7.93509 38.5473 11.4432 38.5473 15.4187V35.658C38.5473 36.1903 38.9788 36.6218 39.5111 36.6218C40.0433 36.6218 40.4748 36.1903 40.4748 35.658C40.4748 26.8954 44.0174 18.962 49.7508 13.2088C49.841 13.1183 49.9318 13.0283 50.023 12.9389C50.1155 12.8748 50.2032 12.802 50.285 12.7206C50.6751 12.3325 51.0768 11.9552 51.4895 11.5891C57.0648 6.76917 64.3303 3.85492 72.2779 3.85492C77.9246 3.85492 83.225 5.32567 87.8199 7.90428C97.5268 13.3517 104.083 23.74 104.083 35.658C104.083 36.1903 104.514 36.6218 105.047 36.6218C105.579 36.6218 106.01 36.1903 106.01 35.658C106.01 23.7404 112.565 13.3524 122.271 7.90489C126.866 5.32591 132.166 3.85492 137.813 3.85492C155.378 3.85492 169.617 18.0937 169.617 35.658M105.045 3.85492C99.7689 3.85492 94.7702 5.03192 90.2949 7.1371C97.5587 11.7348 102.947 19.0323 105.047 27.6201C107.146 19.0327 112.533 11.7355 119.796 7.13775C115.32 5.03217 110.321 3.85492 105.045 3.85492ZM38.4567 8.31753L45.2435 11.6807L47.4707 12.8028C44.4134 16.1196 42.0125 20.0517 40.4748 24.3923V15.4187C40.4748 12.8128 39.7359 10.3798 38.4567 8.31753ZM33.7095 51.3482C34.0318 51.0223 34.3601 50.7025 34.6943 50.3888V15.4197C34.6943 11.1617 31.2425 7.70984 26.9845 7.70984C22.7264 7.70984 19.2746 11.1617 19.2746 15.4197V89.6269H23.1277V77.0984C23.1277 71.3362 24.4588 65.8844 26.83 61.0343C28.6676 57.1938 30.9917 53.982 33.3314 51.6423C33.4465 51.5272 33.5737 51.4289 33.7095 51.3482ZM161.907 89.6269H165.76V35.658C165.76 20.2227 153.247 7.70984 137.812 7.70984C122.376 7.70984 109.863 20.2227 109.863 35.658V89.6269H111.791V73.629C111.791 73.1385 111.797 72.6498 111.808 72.163C111.915 66.9842 112.607 61.3959 114.38 56.0334C115.216 53.3296 116.239 50.768 117.427 48.382C118.484 46.2605 119.671 44.2763 120.974 42.4536C121.844 41.2371 123.238 40.5026 124.736 40.4807C124.918 40.478 125.101 40.4767 125.283 40.4767C128.354 40.4767 131.338 40.8549 134.19 41.5677C145.099 44.294 154.071 51.9122 158.638 61.9573C160.713 66.4858 161.907 71.5847 161.907 77.0994V89.6269ZM125.285 89.6269V74.5937C125.285 74.3663 125.283 74.137 125.279 73.9059C125.178 64.5401 123.007 55.873 119.373 48.8046C120.098 47.3875 120.882 46.04 121.721 44.7697C126.313 52.4057 129.138 62.8417 129.138 75.171V89.6269H125.285ZM96.3731 89.6269H100.226V35.658C100.226 20.2227 87.7133 7.70984 72.2779 7.70984C56.8426 7.70984 44.3297 20.2227 44.3297 35.658V89.6269H46.2572V73.629C46.2572 73.1888 46.2618 72.75 46.2708 72.3128C46.3878 65.8188 47.3763 60.1097 49.2104 54.8994C50.3562 51.4647 51.8083 48.274 53.5187 45.3992C54.2533 44.1643 55.036 42.9871 55.863 41.8735C56.4815 41.0406 57.4454 40.5334 58.4839 40.4981C58.904 40.4839 59.3259 40.4767 59.7494 40.4767C74.8376 40.4767 87.7925 49.6011 93.4014 62.6291C94.5869 65.3825 95.4442 68.3101 95.9244 71.3623C96.3518 73.8459 96.3731 75.9402 96.3731 77.0994V89.6269ZM89.0924 71.463C89.5474 68.5173 90.3536 65.6869 91.467 63.0163C86.0906 50.9253 74.0051 42.4806 59.9407 42.4047C74.3993 47.3025 84.8064 60.9841 84.8064 77.0984V89.6269H88.6613V77.0984C88.6613 76.9042 88.6628 76.7103 88.6659 76.5168C88.6781 75.3233 88.7449 73.5321 89.0924 71.463ZM75.4 58.8443C71.602 53.1411 66.1871 48.7987 60.215 46.6109C58.815 46.058 57.3678 45.5987 55.8811 45.2408C56.2536 44.6587 56.6373 44.0923 57.0316 43.542C71.9078 47.4532 82.8789 60.9957 82.8789 77.0984V89.6269H80.9534V77.0994C80.9534 70.2913 78.8399 64.0097 75.4 58.8443ZM136.85 87.7004V46.5167C148.512 50.919 158.052 62.3654 158.052 77.0994V87.7004H136.85ZM50.114 73.63C50.114 63.9085 52.1082 56.2154 55.9224 49.3661C66.99 51.7745 77.0984 63.1016 77.0984 77.0994V87.7004H50.114V73.63ZM115.648 73.63C115.648 68.1 116.318 62.1621 118.249 56.628C120.249 62.4135 121.43 69.14 121.43 74.5937V87.7004H115.648V73.63ZM26.9845 77.0994C26.9845 69.7009 29.5709 63.1195 32.7668 58.397V87.7004H26.9845V77.0994ZM132.993 43.2636V89.6269H131.066V75.171C131.066 62.2097 128.015 51.1617 122.962 43.1078C123.456 42.6704 124.093 42.4178 124.764 42.4079C124.937 42.4054 125.11 42.4041 125.283 42.4041C127.934 42.4041 130.514 42.7013 132.993 43.2636Z" fill="#003B4B"/>
</svg>
