<svg width="128" height="151" viewBox="0 0 128 151" fill="none" xmlns="http://www.w3.org/2000/svg">
<path fill-rule="evenodd" clip-rule="evenodd" d="M65.7726 59.4944C65.6574 59.0778 65.2788 58.7888 64.8464 58.7876C64.4141 58.7863 64.0339 59.0732 63.9163 59.4892L57.5431 82.0392C57.5019 82.1851 57.4957 82.3386 57.5249 82.4874L63.8981 114.87C63.9872 115.323 64.3847 115.649 64.8461 115.648C65.3076 115.646 65.7034 115.318 65.7902 114.865L72.0065 82.4135C72.0344 82.268 72.0284 82.1181 71.9889 81.9753L65.7726 59.4944ZM64.8309 109.628L59.4607 82.3415L64.8336 63.3307L70.0711 82.272L64.8309 109.628Z" fill="#003B4B"/>
<path fill-rule="evenodd" clip-rule="evenodd" d="M1.92746 150.342C0.862954 150.342 0 149.479 0 148.415C0 147.35 0.862954 146.487 1.92746 146.487H13.9475L30.8394 84.5502V33.7306C30.8394 15.1017 45.9411 0 64.5699 0C83.1988 0 98.3005 15.1017 98.3005 33.7306V84.5502L115.192 146.487H125.285C126.349 146.487 127.212 147.35 127.212 148.415C127.212 149.479 126.349 150.342 125.285 150.342H1.92746ZM62.8418 3.90407C63.4137 3.87145 63.9899 3.85492 64.5699 3.85492C65.1973 3.85492 65.8202 3.87426 66.438 3.91238C68.3678 4.03144 70.2479 4.33368 72.0613 4.80193L64.5699 32.3405L57.0786 4.80193C58.9358 4.32237 60.863 4.01693 62.8418 3.90407ZM45.9098 10.3978C48.4631 8.35313 51.3593 6.7189 54.4984 5.59509L45.0342 40.3858L40.4598 16.0847C40.693 15.7666 40.9324 15.4533 41.1777 15.145C42.317 13.7129 43.5851 12.3878 44.9644 11.1872C44.9824 11.1715 45.0005 11.1558 45.0186 11.1402C45.3107 10.8871 45.6079 10.6396 45.9098 10.3978ZM34.6943 33.7306C34.6943 28.1197 36.2411 22.87 38.9315 18.3848L40.1334 24.7701C39.1083 27.5649 38.5492 30.5835 38.5492 33.7306V64.2248L34.6943 78.3956V33.7306ZM74.6415 5.59509L80.5784 27.4195L83.7564 10.8291C83.3293 10.4709 82.892 10.1244 82.445 9.79016C80.0885 8.02781 77.4631 6.60525 74.6415 5.59509ZM85.429 12.3424L81.73 31.6528L84.1057 40.3858L88.6801 16.0847C87.7036 14.7528 86.6193 13.5047 85.4403 12.3534C85.4365 12.3497 85.4328 12.346 85.429 12.3424ZM90.2084 18.3848L89.0065 24.7701C90.0316 27.5649 90.5907 30.5835 90.5907 33.7306V64.2248L94.4456 78.3956V33.7306C94.4456 32.6993 94.3933 31.6803 94.2913 30.676C93.8384 26.2158 92.4044 22.0457 90.2084 18.3848ZM30.582 115.315L21.2762 147.885C21.2265 148.059 21.202 148.237 21.2021 148.415H17.6443L32.7668 92.8238V107.411L30.582 115.315ZM34.6943 142.164L38.5492 127.993V86.6235C38.5492 86.5367 38.5609 86.4503 38.5841 86.3667L46.4035 58.0793L44.6919 48.9869L34.6943 85.7384V142.164ZM48.1658 115.219L38.6265 147.874C38.5746 148.052 38.5492 148.234 38.5492 148.415H34.9915L51.7864 86.676L53.5639 96.1188L48.1658 115.219ZM63.1247 136.491L56.4491 99.8822C56.3921 99.5697 56.2614 99.2856 56.0764 99.0472L52.9456 82.4148L61.267 51.8252L64.5699 40.2648L67.8729 51.8252L76.1943 82.4148L64.5699 144.169L63.1247 136.491ZM90.5907 148.415C90.5907 148.238 90.5663 148.06 90.5167 147.886L80.7673 113.722L75.841 95.9062C75.807 95.7834 75.7508 95.6728 75.6779 95.5775L77.3535 86.676L94.1484 148.415H90.5907ZM75.0531 30.2841L79.0919 44.8949C79.1313 45.0376 79.1374 45.1875 79.1095 45.333L74.5621 69.0721L77.0112 78.0749L83.2888 44.7257L73.2435 7.79911L71.0582 15.8324L71.9992 19.2366C72.0923 19.3897 72.1652 19.5576 72.2135 19.7373L75.0531 30.2841ZM57.1407 19.2366L58.0817 15.8324L55.8964 7.79911L45.8511 44.7257L52.1287 78.0749L54.7558 68.4174L50.1378 44.9526C50.1151 44.8375 50.1137 44.7195 50.1334 44.6043C50.0956 44.3398 50.1131 44.07 50.1854 43.8119L56.9315 19.7186C56.9798 19.546 57.0508 19.3843 57.1407 19.2366ZM94.4456 142.164V85.7384L84.448 48.9869L82.7364 58.0794L90.5558 86.3667C90.579 86.4503 90.5907 86.5367 90.5907 86.6235V127.993L94.4456 142.164ZM107.938 148.415C107.938 148.237 107.913 148.059 107.864 147.885L98.5581 115.316L96.3731 107.411V92.8238L111.496 148.415H107.938ZM72.9599 55.5974L67.5405 36.6295L70.2704 27.348L75.1172 45.3503L72.9599 55.5974ZM54.0221 44.4065L58.8331 27.2242L61.5994 36.6295L56.2272 55.4322L54.0221 44.4065ZM54.1184 108.589L61.0291 146.487H43.0477L54.1184 108.589ZM86.1088 146.487H68.1642L75.2971 108.601L86.1088 146.487ZM30.8394 146.487H25.6848L30.8394 128.446V146.487ZM98.3005 146.487V128.446L103.455 146.487H98.3005ZM88.6632 120.908L78.1704 82.3361L81.9263 62.383L88.6632 86.7542V120.908ZM88.6632 57.1394L85.2649 44.6471L88.2049 29.0287C88.5055 30.5489 88.6632 32.121 88.6632 33.7306V57.1394ZM40.9351 29.0287L43.875 44.6471L40.4767 57.1394V33.7306C40.4767 32.121 40.6344 30.5489 40.9351 29.0287ZM50.9695 82.3361L47.2136 62.383L40.4767 86.7542V120.908L50.9695 82.3361Z" fill="#003B4B"/>
</svg>
