<svg width="135" height="135" viewBox="0 0 135 135" fill="none" xmlns="http://www.w3.org/2000/svg">
<path fill-rule="evenodd" clip-rule="evenodd" d="M69.3886 1.92746C69.3886 0.862954 68.5257 0 67.4611 0C66.3966 0 65.5337 0.862954 65.5337 1.92746V3.36477L64.9348 3.53587C57.1433 5.76201 49.5501 10.5087 44.7003 17.1772L44.5491 17.3851C41.4394 17.8032 38.6795 20.0729 37.8436 23.1295H37.5855C30.3368 23.1295 23.1295 28.9781 23.1295 36.6218V42.4041H22.1658C21.1013 42.4041 20.2383 43.2671 20.2383 44.3316C20.2383 45.3961 21.1013 46.2591 22.1658 46.2591H23.1295V65.5337C23.1295 66.0449 23.3326 66.5351 23.6941 66.8966L25.057 68.2595V119.503H21.2021C20.1376 119.503 19.2746 120.366 19.2746 121.43V123.358H17.3472C16.2826 123.358 15.4197 124.22 15.4197 125.285V127.212H13.4922C12.4277 127.212 11.5648 128.075 11.5648 129.14V131.067H1.92746C0.862954 131.067 0 131.93 0 132.995C0 134.059 0.862954 134.922 1.92746 134.922H132.995C134.059 134.922 134.922 134.059 134.922 132.995C134.922 131.93 134.059 131.067 132.995 131.067H123.358V129.14C123.358 128.075 122.495 127.212 121.43 127.212H119.503V125.285C119.503 124.22 118.64 123.358 117.575 123.358H115.648V121.43C115.648 120.366 114.785 119.503 113.72 119.503H109.865V68.2595L111.228 66.8966C111.59 66.5351 111.793 66.0449 111.793 65.5337V46.2591H112.756C113.821 46.2591 114.684 45.3961 114.684 44.3316C114.684 43.2671 113.821 42.4041 112.756 42.4041H111.793V37.5855C111.793 33.7823 109.978 30.1822 107.359 27.5632C104.74 24.9441 101.14 23.1295 97.3368 23.1295H97.0787C96.2428 20.0729 93.4829 17.8032 90.3732 17.3851L90.222 17.1772C85.3722 10.5087 77.779 5.76201 69.9875 3.53587L69.3886 3.36477V1.92746ZM15.4197 132.995H119.503V131.067H15.4197V132.995ZM19.2746 129.14H115.648V127.212H19.2746V129.14ZM23.1295 125.285H111.793V123.358H23.1295V125.285ZM28.9119 121.43H33.7306V67.4611C33.7306 66.95 33.9336 66.4597 34.2951 66.0982L35.658 64.7353V52.0415H26.9845V64.7353L28.3474 66.0982C28.7088 66.4597 28.9119 66.95 28.9119 67.4611V121.43ZM26.9845 50.114H50.114V45.2953H26.9845V50.114ZM26.9845 43.3679H50.114V31.8031C50.114 29.9155 50.8893 28.2089 52.1388 26.9845H37.5855C35.8537 26.9845 34.166 27.4272 32.665 28.1931C29.288 29.9659 26.9845 33.5067 26.9845 37.5855V43.3679ZM57.5061 10.8701C53.9128 13.0491 50.7372 15.8932 48.1618 19.2746H58.947L59.4874 16.3024C60.0452 13.2347 61.4135 10.4045 63.4128 8.0852C61.377 8.83416 59.3898 9.76844 57.5061 10.8701ZM71.5095 8.0852C73.5088 10.4045 74.8771 13.2347 75.4349 16.3024L76.0485 19.6774C77.8069 20.9783 79.0005 22.9041 79.3833 25.057H93.3855C92.939 22.8575 90.9944 21.2021 88.6632 21.2021C88.3549 21.2021 88.0652 21.0545 87.8838 20.8052L87.2058 19.8729C84.5548 16.2279 81.2195 13.1765 77.4162 10.8702C75.5326 9.76846 73.5453 8.83416 71.5095 8.0852ZM82.7835 26.9845C84.033 28.2089 84.8083 29.9155 84.8083 31.8031V43.3679H107.938V37.5855C107.938 35.0016 106.682 32.3375 104.633 30.289C102.585 28.2406 99.9207 26.9845 97.3368 26.9845H82.7835ZM107.938 45.2953H84.8083V50.114H107.938V45.2953ZM107.938 52.0415H99.2643V64.7353L100.627 66.0982C100.989 66.4597 101.192 66.95 101.192 67.4611V121.43H106.01V67.4611C106.01 66.95 106.213 66.4597 106.575 66.0982L107.938 64.7353V52.0415ZM48.1865 121.43H53.0052V67.4611C53.0052 66.95 53.2083 66.4597 53.5697 66.0982L54.9326 64.7353V52.0415H46.2591V64.7353L47.622 66.0982C47.9835 66.4597 48.1865 66.95 48.1865 67.4611V121.43ZM54.9326 115.648V121.43H79.9896V115.648H54.9326ZM81.9171 121.43H86.7358V67.4611C86.7358 66.95 86.9388 66.4597 87.3003 66.0982L88.6632 64.7353V52.0415H79.9896V64.7353L81.3526 66.0982C81.714 66.4597 81.9171 66.95 81.9171 67.4611V121.43ZM82.8808 50.114V45.2953H52.0415V50.114H82.8808ZM39.513 65.5337V53.9689H42.4041V65.5337C42.4041 66.0449 42.6072 66.5351 42.9687 66.8966L44.3316 68.2595V119.503H37.5855V68.2595L38.9484 66.8966C39.3099 66.5351 39.513 66.0449 39.513 65.5337ZM58.7876 65.5337V53.9689H76.1347V65.5337C76.1347 66.0449 76.3378 66.5351 76.6993 66.8966L78.0622 68.2595V111.793H56.8601V68.2595L58.223 66.8966C58.5845 66.5351 58.7876 66.0449 58.7876 65.5337ZM92.5181 65.5337V53.9689H95.4093V65.5337C95.4093 66.0449 95.6124 66.5351 95.9739 66.8966L97.3368 68.2595V119.503H90.5907V68.2595L91.9536 66.8966C92.3151 66.5351 92.5181 66.0449 92.5181 65.5337ZM46.2591 21.2021H57.2884C56.3987 22.3114 55.7919 23.6347 55.539 25.057H41.5368C41.9833 22.8575 43.9278 21.2021 46.2591 21.2021ZM61.3838 16.6472C62.0925 12.7491 64.2738 9.28251 67.4611 6.9572C70.6485 9.28251 72.8298 12.7491 73.5385 16.6472L74.2228 20.4107C74.2696 20.668 74.4189 20.8952 74.6364 21.0402C76.0476 21.981 77.037 23.4214 77.4165 25.057H57.5058C57.8853 23.4214 58.8747 21.981 60.2859 21.0402C60.5034 20.8952 60.6527 20.668 60.6995 20.4107L61.3838 16.6472ZM52.0415 31.8031C52.0415 29.1418 54.1988 26.9845 56.8601 26.9845H78.0622C80.7234 26.9845 82.8808 29.1418 82.8808 31.8031V43.3679H52.0415V31.8031Z" fill="#003B4B"/>
</svg>
