<svg width="201" height="166" viewBox="0 0 201 166" fill="none" xmlns="http://www.w3.org/2000/svg">
<path fill-rule="evenodd" clip-rule="evenodd" d="M100.927 0.131058C100.477 -0.0436861 99.9787 -0.0436861 99.5294 0.131058L93.2737 2.56383C85.7394 5.49384 77.6328 10.0677 71.14 14.8291C67.6859 17.3621 65.5337 20.7889 65.5337 25.3004V29.8756C64.4692 29.8756 63.6062 30.7386 63.6062 31.8031V34.6943H55.8964C55.1855 34.6943 54.5324 35.0855 54.197 35.7123C53.8616 36.339 53.8983 37.0995 54.2926 37.6909L57.8238 42.9877V138.777H53.9689C52.9044 138.777 52.0415 139.64 52.0415 140.705V142.632H36.6218C35.5573 142.632 34.6943 143.495 34.6943 144.56V146.487H28.9119C27.8474 146.487 26.9845 147.35 26.9845 148.415V150.342H23.1295C22.065 150.342 21.2021 151.205 21.2021 152.269V154.197H17.3472C16.2826 154.197 15.4197 155.06 15.4197 156.124V158.052H13.4922C12.4277 158.052 11.5648 158.915 11.5648 159.979V161.907H1.92746C0.862954 161.907 0 162.77 0 163.834C0 164.899 0.862954 165.762 1.92746 165.762H198.529C199.593 165.762 200.456 164.899 200.456 163.834C200.456 162.77 199.593 161.907 198.529 161.907H188.891V159.979C188.891 158.915 188.028 158.052 186.964 158.052H185.036V156.124C185.036 155.06 184.173 154.197 183.109 154.197H179.254V152.269C179.254 151.205 178.391 150.342 177.326 150.342H173.471V148.415C173.471 147.35 172.609 146.487 171.544 146.487H165.762V144.56C165.762 143.495 164.899 142.632 163.834 142.632H148.415V140.705C148.415 139.64 147.552 138.777 146.487 138.777H142.632V42.9877L146.163 37.6909C146.558 37.0995 146.594 36.339 146.259 35.7123C145.924 35.0855 145.27 34.6943 144.56 34.6943H136.85V31.8031C136.85 30.7386 135.987 29.8756 134.922 29.8756V25.3004C134.922 20.7751 132.716 17.3525 129.275 14.8291C122.785 10.0696 114.719 5.49488 107.182 2.56383L100.927 0.131058ZM15.4197 163.834H95.4093V161.907H15.4197V163.834ZM19.2746 159.979H95.4093V158.052H19.2746V159.979ZM25.057 156.124H95.4093V154.197H25.057V156.124ZM30.8394 152.269H95.4093V150.342H30.8394V152.269ZM38.5492 148.415H95.4093V146.487H38.5492V148.415ZM55.8964 144.56H144.56V142.632H55.8964V144.56ZM61.6788 140.705H63.6062V43.3679C63.6062 42.8356 64.0377 42.4041 64.5699 42.4041H85.772C86.3043 42.4041 86.7357 42.8356 86.7357 43.3679V140.705H88.6632V43.3679C88.6632 42.8356 89.0947 42.4041 89.6269 42.4041H110.829C111.361 42.4041 111.793 42.8356 111.793 43.3679V140.705H113.72V43.3679C113.72 42.8356 114.152 42.4041 114.684 42.4041H135.886C136.418 42.4041 136.85 42.8356 136.85 43.3679V140.705H138.777V42.4041C138.777 42.0236 138.89 41.6516 139.101 41.335L140.677 38.9707L140.93 38.5492H59.526L59.7789 38.9707L61.355 41.335C61.5661 41.6516 61.6788 42.0236 61.6788 42.4041V140.705ZM67.4611 36.6218H84.8083V33.7306H67.4611V36.6218ZM69.3886 31.8031H131.067V28.9119H69.3886V31.8031ZM69.3886 26.9845H131.067V26.2641C131.067 23.6359 130.122 21.1264 128.451 19.1686C128.017 18.7406 127.532 18.3311 126.996 17.9377C120.745 13.3541 112.973 8.95199 105.785 6.15663L100.228 3.99554L94.6709 6.15664C87.4801 8.95303 79.6675 13.356 73.4196 17.9377C72.9805 18.2598 72.5763 18.5929 72.2076 18.9385C70.4104 20.9277 69.3886 23.5317 69.3886 26.2641V26.9845ZM132.995 33.7306H115.648V36.6218H132.995V33.7306ZM105.047 146.487V148.415H161.907V146.487H105.047ZM105.047 150.342V152.269H169.617V150.342H105.047ZM105.047 154.197V156.124H175.399V154.197H105.047ZM105.047 158.052V159.979H181.181V158.052H105.047ZM105.047 161.907V163.834H185.036V161.907H105.047ZM86.7357 36.6218V33.7306H113.72V36.6218H86.7357ZM134.922 44.3316V140.705H131.067V114.684C131.067 114.152 130.636 113.72 130.104 113.72H120.466C119.934 113.72 119.503 114.152 119.503 114.684V140.705H115.648V44.3316H134.922ZM129.14 115.648V140.705H121.43V115.648H129.14ZM109.865 79.0259V140.705H106.01V114.684C106.01 114.152 105.579 113.72 105.047 113.72H95.4093C94.8771 113.72 94.4456 114.152 94.4456 114.684V140.705H90.5907V79.0259H109.865ZM104.083 115.648V140.705H96.3731V115.648H104.083ZM109.865 44.3316V77.0984H90.5907V44.3316H109.865ZM84.8083 44.3316V140.705H80.9534V114.684C80.9534 114.152 80.5219 113.72 79.9896 113.72H70.3523C69.8201 113.72 69.3886 114.152 69.3886 114.684V140.705H65.5337V44.3316H84.8083ZM79.0259 115.648V140.705H71.3161V115.648H79.0259ZM97.3368 146.487H103.119V163.834H97.3368V146.487Z" fill="#003B4B"/>
</svg>
