<svg width="195" height="168" viewBox="0 0 195 168" fill="none" xmlns="http://www.w3.org/2000/svg">
<path fill-rule="evenodd" clip-rule="evenodd" d="M47.2745 137.005C44.2989 137.005 41.8867 139.417 41.8867 142.393V153.453C41.8867 153.985 42.3182 154.417 42.8504 154.417H51.6987C52.2309 154.417 52.6624 153.985 52.6624 153.453V142.393C52.6624 139.417 50.2502 137.005 47.2745 137.005ZM43.8142 142.393C43.8142 140.482 45.3634 138.932 47.2745 138.932C49.1857 138.932 50.7349 140.482 50.7349 142.393V152.489H43.8142V142.393Z" fill="#003B4B"/>
<path fill-rule="evenodd" clip-rule="evenodd" d="M115.564 1.92746C115.564 0.862954 114.701 0 113.636 0C112.572 0 111.709 0.862954 111.709 1.92746V7.74218H110.871C109.807 7.74218 108.944 8.60514 108.944 9.66965V12.1848C108.006 12.3154 107.285 13.1203 107.285 14.0938V16.5904H107C105.935 16.5904 105.073 17.4533 105.073 18.5179V22.3038C104.419 22.6122 103.966 23.2773 103.966 24.048V27.6507H103.682C102.617 27.6507 101.754 28.5136 101.754 29.5781V33.1808H101.47C100.405 33.1808 99.5424 34.0437 99.5424 35.1083V39.8169H99.2578C98.1933 39.8169 97.3303 40.6799 97.3303 41.7444V46.4531H97.0457C95.9812 46.4531 95.1183 47.3161 95.1183 48.3806V53.0893H94.8337C93.7692 53.0893 92.9062 53.9522 92.9062 55.0167V61.9375H92.6216C91.5571 61.9375 90.6942 62.8004 90.6942 63.8649V70.7857H90.4096C89.3451 70.7857 88.4821 71.6486 88.4821 72.7131V81.8459H88.1975C87.133 81.8459 86.2701 82.7089 86.2701 83.7734V92.9062H85.9855C84.921 92.9062 84.058 93.7692 84.058 94.8337V103.966H83.7734C82.7089 103.966 81.846 104.829 81.846 105.894V117.239H19.6239C18.5594 117.239 17.6964 118.102 17.6964 119.166V159.268H15.1998C14.1353 159.268 13.2723 160.131 13.2723 161.195V163.692H1.92746C0.862954 163.692 0 164.555 0 165.619C0 166.454 0.530668 167.165 1.27306 167.433C1.44492 167.592 1.67484 167.689 1.92746 167.689H192.164C192.417 167.689 192.647 167.592 192.818 167.433C193.561 167.165 194.091 166.454 194.091 165.619C194.091 164.555 193.229 163.692 192.164 163.692H180.819V161.195C180.819 160.131 179.956 159.268 178.892 159.268H176.395V119.166C176.395 118.102 175.532 117.239 174.468 117.239H145.426V105.894C145.426 104.829 144.563 103.966 143.499 103.966H143.214V94.8337C143.214 93.7692 142.351 92.9062 141.287 92.9062H141.002V83.7734C141.002 82.7089 140.139 81.8459 139.075 81.8459H138.79V72.7131C138.79 71.6486 137.927 70.7857 136.863 70.7857H136.578V63.8649C136.578 62.8004 135.715 61.9375 134.651 61.9375H134.366V55.0167C134.366 53.9522 133.503 53.0893 132.439 53.0893H132.154V48.3806C132.154 47.3161 131.291 46.4531 130.227 46.4531H129.942V41.7444C129.942 40.6799 129.079 39.8169 128.014 39.8169H127.73V35.1083C127.73 34.0437 126.867 33.1808 125.802 33.1808H125.518V29.5781C125.518 28.5136 124.655 27.6507 123.59 27.6507H123.306V24.048C123.306 23.2773 122.853 22.6122 122.2 22.3038V18.5179C122.2 17.4533 121.337 16.5904 120.272 16.5904H119.988V14.0938C119.988 13.1203 119.266 12.3154 118.329 12.1848V9.66965C118.329 8.60514 117.466 7.74218 116.401 7.74218H115.564V1.92746ZM112.941 14.236V11.7394H114.331V14.236H112.941ZM111.282 18.6602V16.1635H112.672V18.6602H111.282ZM114.6 18.6602V16.1635H115.99V18.6602H114.6ZM114.884 20.5876V24.1903H112.388V20.5876H114.884ZM115.99 26.1177V29.7204H114.6V26.1177H115.99ZM117.918 26.1177V29.7204H119.309V26.1177H117.918ZM114.884 31.6479V35.2505H112.388V31.6479H114.884ZM116.812 31.6479V35.2505H118.203V31.6479H116.812ZM119.309 37.178V41.8867H114.6V37.178H119.309ZM121.236 37.178V41.8867H123.733V37.178H121.236ZM122.627 43.8142V48.5229H117.918V43.8142H122.627ZM124.554 48.5229V43.8142H125.945V48.5229H124.554ZM124.839 50.4503V55.159H121.236V50.4503H124.839ZM126.766 55.159V50.4503H128.157V55.159H126.766ZM127.051 57.0865V64.0072H124.554V57.0865H127.051ZM128.978 64.0072V57.0865H130.369V64.0072H128.978ZM129.263 65.9347V72.8554H123.448V65.9347H129.263ZM128.157 74.7829V83.9157H120.13V74.7829H128.157ZM130.084 74.7829V83.9157H134.793V74.7829H130.084ZM118.203 74.7829V83.9157H109.07V74.7829H118.203ZM107.142 74.7829V83.9157H99.1155V74.7829H107.142ZM97.188 74.7829V83.9157H92.4793V74.7829H97.188ZM98.0095 72.8554V65.9347H103.824V72.8554H98.0095ZM96.082 72.8554V65.9347H94.6914V72.8554H96.082ZM96.9034 64.0072V57.0865H98.294V64.0072H96.9034ZM100.222 64.0072V57.0865H102.718V64.0072H100.222ZM104.646 64.0072V57.0865H109.354V64.0072H104.646ZM111.282 64.0072V57.0865H115.99V64.0072H111.282ZM117.918 64.0072V57.0865H122.627V64.0072H117.918ZM121.521 65.9347V72.8554H114.6V65.9347H121.521ZM112.672 65.9347V72.8554H105.752V65.9347H112.672ZM131.19 65.9347V72.8554H132.581V65.9347H131.19ZM119.309 50.4503V55.159H114.6V50.4503H119.309ZM112.672 50.4503V55.159H107.964V50.4503H112.672ZM106.036 50.4503V55.159H102.434V50.4503H106.036ZM100.506 50.4503V55.159H99.1155V50.4503H100.506ZM101.328 48.5229V43.8142H102.718V48.5229H101.328ZM104.646 48.5229V43.8142H109.354V48.5229H104.646ZM111.282 48.5229V43.8142H115.99V48.5229H111.282ZM112.672 37.178V41.8867H107.964V37.178H112.672ZM106.036 37.178V41.8867H103.54V37.178H106.036ZM110.46 35.2505H109.07V31.6479H110.46V35.2505ZM107.142 35.2505V31.6479H105.752V35.2505H107.142ZM107.964 29.7204V26.1177H109.354V29.7204H107.964ZM109.07 24.1903V20.5876H110.46V24.1903H109.07ZM111.282 29.7204V26.1177H112.672V29.7204H111.282ZM120.13 31.6479V35.2505H121.521V31.6479H120.13ZM118.203 24.1903V20.5876H116.812V24.1903H118.203ZM90.2673 94.976V85.8432H93.8699V94.976H90.2673ZM95.7974 94.976V85.8432H101.612V94.976H95.7974ZM103.54 94.976V85.8432H112.672V94.976H103.54ZM114.6 94.976V85.8432H123.733V94.976H114.6ZM125.66 94.976V85.8432H131.475V94.976H125.66ZM133.402 94.976V85.8432H137.005V94.976H133.402ZM90.5519 96.9034V106.036H88.0552V96.9034H90.5519ZM92.4793 106.036V96.9034H97.188V106.036H92.4793ZM99.1155 106.036V96.9034H106.036V106.036H99.1155ZM107.964 106.036V96.9034H119.309V106.036H107.964ZM121.236 106.036V96.9034H128.157V106.036H121.236ZM130.084 106.036V96.9034H134.793V106.036H130.084ZM136.72 106.036V96.9034H139.217V106.036H136.72ZM28.3298 121.236H165.762V156.913H161.053V124.696C161.053 124.164 160.621 123.733 160.089 123.733H133.545C133.012 123.733 132.581 124.164 132.581 124.696V156.913H127.872V124.696C127.872 124.164 127.441 123.733 126.908 123.733H100.364C99.8316 123.733 99.4001 124.164 99.4001 124.696V156.913H94.6914V124.696C94.6914 124.164 94.2599 123.733 93.7277 123.733H67.183C66.6508 123.733 66.2193 124.164 66.2193 124.696V156.913H61.5106V124.696C61.5106 124.164 61.0791 123.733 60.5469 123.733H34.0022C33.47 123.733 33.0385 124.164 33.0385 124.696V156.913H28.3298V121.236ZM85.8432 107.964V119.309H99.4001V107.964H85.8432ZM108.248 115.264V119.309H101.328V107.964H125.945V119.309H119.024V115.264C119.024 113.224 117.871 111.358 116.046 110.445L114.067 109.456C113.796 109.32 113.476 109.32 113.205 109.456L111.227 110.445C109.401 111.358 108.248 113.224 108.248 115.264ZM127.872 119.309V107.964H141.429V119.309H127.872ZM117.096 115.264V119.309H110.176V115.264C110.176 113.954 110.916 112.755 112.089 112.169L113.636 111.396L115.184 112.169C116.356 112.755 117.096 113.954 117.096 115.264ZM167.689 156.913V121.236H172.398V156.913H167.689ZM172.398 158.841V161.338H21.6936V158.841H172.398ZM26.4023 156.913H21.6936V121.236H26.4023V156.913ZM159.126 143.499V156.913H134.508V143.499C134.508 138.441 137.366 133.817 141.89 131.556L146.817 129.092L151.744 131.556C156.268 133.817 159.126 138.441 159.126 143.499ZM141.028 129.832C138.222 131.234 135.977 133.431 134.508 136.07V125.66H159.126V136.07C157.657 133.431 155.412 131.234 152.606 129.832L147.248 127.152C146.977 127.017 146.657 127.017 146.386 127.152L141.028 129.832ZM125.945 143.499V156.913H101.328V143.499C101.328 138.441 104.185 133.817 108.709 131.556L113.636 129.092L118.563 131.556C123.087 133.817 125.945 138.441 125.945 143.499ZM107.847 129.832C105.041 131.234 102.796 133.431 101.328 136.07V125.66H125.945V136.07C124.476 133.431 122.231 131.234 119.425 129.832L114.067 127.152C113.796 127.017 113.476 127.017 113.205 127.152L107.847 129.832ZM92.7639 143.499V156.913H68.1468V143.499C68.1468 138.441 71.0043 133.817 75.5281 131.556L80.4553 129.092L85.3826 131.556C89.9064 133.817 92.7639 138.441 92.7639 143.499ZM74.6661 129.832C71.8607 131.234 69.6152 133.431 68.1468 136.07V125.66H92.7639V136.07C91.2954 133.431 89.05 131.234 86.2446 129.832L80.8863 127.152C80.615 127.017 80.2957 127.017 80.0243 127.152L74.6661 129.832ZM59.5831 143.499V156.913H34.966V143.499C34.966 138.441 37.8235 133.817 42.3473 131.556L47.2745 129.092L52.2018 131.556C56.7256 133.817 59.5831 138.441 59.5831 143.499ZM41.4853 129.832C38.6799 131.234 36.4345 133.431 34.966 136.07V125.66H59.5831V136.07C58.1146 133.431 55.8692 131.234 53.0638 129.832L47.7055 127.152C47.4342 127.017 47.1149 127.017 46.8435 127.152L41.4853 129.832ZM176.822 165.762H17.2695V163.265H176.822V165.762Z" fill="#003B4B"/>
</svg>
