<svg width="211" height="168" viewBox="0 0 211 168" fill="none" xmlns="http://www.w3.org/2000/svg">
<path fill-rule="evenodd" clip-rule="evenodd" d="M57.8238 0C56.7593 0 55.8964 0.862954 55.8964 1.92746V42.4041H34.6943C33.6298 42.4041 32.7668 43.2671 32.7668 44.3316V92.5181H13.4922C12.4277 92.5181 11.5648 93.3811 11.5648 94.4456V163.834H1.92746C0.862954 163.834 0 164.697 0 165.762C0 166.826 0.862954 167.689 1.92746 167.689H208.166C209.23 167.689 210.093 166.826 210.093 165.762C210.093 164.697 209.23 163.834 208.166 163.834H198.529V94.4456C198.529 93.3811 197.666 92.5181 196.601 92.5181H177.326V44.3316C177.326 43.2671 176.463 42.4041 175.399 42.4041H154.197V1.92746C154.197 0.862954 153.334 0 152.269 0H57.8238ZM167.689 165.762H173.471V161.907H167.689V165.762ZM167.689 159.979H173.471V102.155H152.269V112.074C154.217 112.794 156.028 113.784 157.662 114.994C161.896 118.129 164.949 122.747 166.125 128.001C166.134 128.027 166.142 128.052 166.151 128.077C166.176 128.153 166.196 128.229 166.212 128.307C167.184 133.171 167.689 138.192 167.689 143.156V159.979ZM156.124 116.261C154.654 115.226 153.037 114.384 151.306 113.775C148.97 114.597 146.841 115.843 145 117.416C147.911 120.433 149.965 124.27 150.811 128.496C151.771 133.299 152.269 138.257 152.269 143.156V159.979H156.124V116.261ZM156.124 161.907H152.269V165.762H156.124V161.907ZM144.56 165.762H150.342V161.907H144.56V165.762ZM144.56 159.979H150.342V143.156C150.342 138.386 149.856 133.554 148.921 128.874C148.147 125.009 146.264 121.496 143.596 118.736C142.163 120.218 140.956 121.918 140.026 123.773C140.516 124.538 140.959 125.334 141.354 126.157C141.375 126.19 141.396 126.224 141.416 126.258L141.405 126.264C141.416 126.258 141.416 126.258 141.416 126.258L141.416 126.26L141.418 126.262L141.42 126.266L141.426 126.276L141.441 126.303C141.452 126.324 141.467 126.352 141.485 126.385C141.52 126.452 141.567 126.544 141.623 126.66C141.735 126.891 141.884 127.218 142.049 127.636C142.379 128.472 142.777 129.673 143.082 131.198C144.055 136.062 144.56 141.084 144.56 146.047V159.979ZM136.547 127.735C136.901 126.242 137.407 124.803 138.048 123.436C139.241 120.89 140.904 118.596 142.934 116.681C145.045 114.689 147.553 113.105 150.342 112.074V102.155H129.14V159.979H134.922V143.156C134.922 138.192 135.427 133.171 136.4 128.307C136.44 128.108 136.489 127.917 136.547 127.735ZM134.922 161.907H129.14V165.762H134.922V161.907ZM121.43 165.762H127.212V161.907H121.43V165.762ZM121.43 159.979H127.212V102.155H106.01V112.037C106.211 112.124 106.409 112.214 106.607 112.304C113.458 115.072 118.514 121.21 119.971 128.496C120.826 132.771 121.315 137.168 121.412 141.538C121.424 142.073 121.43 142.612 121.43 143.156V159.979ZM104.083 112.037V102.155H82.8808V159.979H88.6632V143.156C88.6632 142.612 88.6693 142.073 88.6814 141.537C88.7786 137.168 89.2673 132.77 90.1221 128.496C91.5796 121.209 96.6367 115.07 103.489 112.303C103.686 112.213 103.884 112.124 104.083 112.037ZM88.6632 161.907H82.8808V165.762H88.6632V161.907ZM112.993 160.943H97.1L95.7232 165.762H114.37L112.993 160.943ZM75.171 165.762H80.9534V161.907H75.171V165.762ZM75.171 159.979H80.9534V102.155H59.7513V112.074C62.5402 113.105 65.0483 114.689 67.1589 116.681C69.1888 118.596 70.8523 120.89 72.0457 123.436C72.6867 124.803 73.1922 126.243 73.5459 127.735C73.6043 127.918 73.6536 128.108 73.6934 128.307C74.6661 133.171 75.171 138.192 75.171 143.156V159.979ZM68.7395 126.157C69.134 125.334 69.5777 124.538 70.0672 123.773C69.1372 121.918 67.9304 120.218 66.4974 118.736C63.829 121.496 61.9459 125.009 61.1727 128.874C60.2368 133.554 59.7513 138.386 59.7513 143.156V159.979H65.5337V146.047C65.5337 141.084 66.0385 136.062 67.0113 131.198C67.3163 129.673 67.714 128.472 68.0443 127.636C68.2094 127.218 68.358 126.891 68.47 126.66C68.5261 126.544 68.573 126.452 68.6085 126.385C68.6262 126.352 68.641 126.324 68.6527 126.303L68.6677 126.276L68.6734 126.266L68.6757 126.262L68.6768 126.26C68.6768 126.26 68.6774 126.259 68.6882 126.265L68.6778 126.258C68.6974 126.224 68.718 126.19 68.7395 126.157ZM65.5337 161.907H59.7513V165.762H65.5337V161.907ZM53.9689 165.762H57.8238V161.907H53.9689V165.762ZM53.9689 159.979H57.8238V143.156C57.8238 138.257 58.3222 133.299 59.2827 128.496C60.1279 124.27 62.1828 120.433 65.0932 117.416C63.2525 115.843 61.1234 114.597 58.7876 113.775C57.0567 114.384 55.4394 115.226 53.9689 116.261V159.979ZM43.9991 127.864C45.1978 122.667 48.2339 118.102 52.4317 114.994C54.0656 113.784 55.8763 112.794 57.8238 112.074V102.155H36.6218V159.979H42.4041V143.156C42.4041 138.305 42.5687 133.111 43.912 128.179C43.9408 128.073 43.9699 127.968 43.9991 127.864ZM42.4041 161.907H36.6218V165.762H42.4041V161.907ZM15.4197 165.762H34.6943V161.907H15.4197V165.762ZM15.4197 159.979H34.6943V102.155H15.4197V159.979ZM15.4197 100.228H57.8238V96.3731H15.4197V100.228ZM36.6218 94.4456H57.8238V52.0415H36.6218V94.4456ZM36.6218 50.114H57.8238V46.2591H36.6218V50.114ZM59.7513 44.3316H80.9534V9.63731H59.7513V44.3316ZM59.7513 7.70984H80.9534V3.85492H59.7513V7.70984ZM82.8808 3.85492V7.70984H104.083V3.85492H82.8808ZM106.01 3.85492V7.70984H127.212V3.85492H106.01ZM129.14 3.85492V7.70984H150.342V3.85492H129.14ZM150.342 9.63731H129.14V44.3316H150.342V9.63731ZM152.269 46.2591V50.114H173.471V46.2591H152.269ZM173.471 52.0415H152.269V94.4456H173.471V52.0415ZM152.269 96.3731V100.228H194.674V96.3731H152.269ZM194.674 102.155H175.399V159.979H194.674V102.155ZM194.674 161.907H175.399V165.762H194.674V161.907ZM104.083 21.4218V9.63731H82.8808V44.3316H88.6632C88.6632 44.1874 88.6794 44.0423 88.7124 43.899L90.1704 37.5684C91.7617 29.6541 96.4745 24.078 104.083 21.4218ZM82.8808 46.2591V50.114H104.083V46.2591H82.8808ZM106.01 46.2591V50.114H127.212V46.2591H106.01ZM121.43 44.3316H127.212V9.63731H106.01V21.4218C113.619 24.078 118.332 29.6541 119.923 37.5684L121.381 43.899C121.414 44.0423 121.43 44.1874 121.43 44.3316ZM93.9449 38.3523C95.2486 31.8339 98.9345 27.4055 105.047 25.171C111.159 27.4055 114.845 31.8339 116.148 38.3523C116.152 38.3706 116.156 38.3888 116.16 38.4069L117.081 42.4041H93.0125L93.9332 38.4069L93.9384 38.3834L93.9449 38.3523ZM113.981 75.6557C115.248 71.8966 117.498 68.5572 120.445 65.9861C122.416 64.2662 124.7 62.8888 127.212 61.9598V52.0415H106.01V94.4456H111.793V92.0785C111.793 87.0883 112.303 83.0276 113.27 78.1933C113.45 77.297 113.691 76.4531 113.981 75.6557ZM82.8808 96.3731V100.228H127.212V96.3731H82.8808ZM129.14 96.3731V100.228H150.342V96.3731H129.14ZM136.85 94.4456H142.632V93.0422C142.632 88.2717 142.147 83.4401 141.211 78.7603C139.82 71.8071 134.841 66.0052 128.176 63.6611C126.283 64.3269 124.526 65.2715 122.948 66.4428C125.408 67.5721 127.614 69.1442 129.475 71.0483C132.363 73.8376 134.461 77.4164 135.388 82.0482C136.253 86.3768 136.756 89.9104 136.849 94.4056C136.85 94.419 136.85 94.4323 136.85 94.4456ZM80.9534 96.3731H59.7513V100.228H80.9534V96.3731ZM82.5753 69.2715C78.7545 72.2458 75.8092 76.5303 74.7057 82.0482C73.8399 86.3768 73.3371 89.9104 73.2439 94.4056C73.2437 94.419 73.2435 94.4323 73.2435 94.4456H67.4611V93.0422C67.4611 88.2717 67.9466 83.4401 68.8826 78.7603C70.2732 71.8071 75.2524 66.0052 81.9171 63.6611C83.81 64.3269 85.5672 65.2715 87.1451 66.4428C85.499 67.1985 83.9668 68.1525 82.5753 69.2715ZM98.3005 94.4456H104.083V52.0415H82.8808V61.9598C85.393 62.8888 87.6773 64.2662 89.6484 65.9861C91.2452 67.3793 92.6374 68.9982 93.7795 70.7872C95.1745 72.8831 96.2557 75.3571 96.8229 78.1933C97.7898 83.0276 98.3005 87.0883 98.3005 92.0785V94.4456ZM78.4857 82.8042C79.6882 76.7919 83.5353 72.5484 88.3123 70.2158C90.5036 72.3302 92.3029 75.2494 93.0429 78.9493C93.9724 83.5971 94.4456 87.3988 94.4456 92.0785V92.5181H77.1694C77.3443 89.1985 77.784 86.3126 78.4857 82.8042ZM117.05 78.9493C117.761 75.3949 119.699 72.8747 121.9 70.3334C126.939 73.0167 130.42 76.867 131.608 82.8042C132.309 86.3126 132.749 89.1985 132.924 92.5181H115.648V92.0785C115.648 87.3988 116.121 83.5971 117.05 78.9493ZM93.9209 129.518C95.2603 122.821 99.197 118.539 105.047 115.83C110.917 118.546 114.913 122.829 116.168 129.496L116.172 129.518C117.099 134.149 117.575 138.462 117.575 143.156V162.119L116.537 158.486C116.301 157.659 115.545 157.088 114.684 157.088H95.4093C94.5488 157.088 93.7924 157.659 93.556 158.486L92.5181 162.119V143.156C92.5181 138.462 92.9946 134.149 93.9209 129.518ZM47.6315 129.192C48.3298 126.628 49.1301 124.767 50.114 123.194V163.834H46.2591V143.156C46.2591 138.337 46.4337 133.59 47.6315 129.192ZM159.979 163.834V123.165C160.176 123.457 160.351 123.751 160.512 124.049C161.166 125.264 161.597 126.575 162.185 128.362C162.271 128.624 162.361 128.896 162.455 129.179C163.363 133.762 163.834 138.489 163.834 143.156V163.834H159.979ZM69.3886 146.047C69.3886 141.698 69.7977 137.296 70.5888 133.008C71.0694 136.37 71.3161 139.779 71.3161 143.156V163.834H69.3886V146.047ZM138.777 143.156C138.777 139.779 139.024 136.37 139.504 133.008C140.296 137.296 140.705 141.698 140.705 146.047V163.834H138.777V143.156ZM59.7513 46.2591V50.114H80.9534V46.2591H59.7513ZM59.7513 52.0415V94.4456H65.5337V93.0422C65.5337 88.1428 66.0321 83.1847 66.9925 78.3823C68.4918 70.8859 73.8 64.605 80.9534 61.9598V52.0415H59.7513ZM150.342 50.114V46.2591H129.14V50.114H150.342ZM150.342 94.4456H144.56V93.0422C144.56 88.1428 144.061 83.1846 143.101 78.3823C141.601 70.8859 136.293 64.605 129.14 61.9598V52.0415H150.342V94.4456Z" fill="#003B4B"/>
</svg>
