<svg width="149" height="168" viewBox="0 0 149 168" fill="none" xmlns="http://www.w3.org/2000/svg">
<path fill-rule="evenodd" clip-rule="evenodd" d="M76.1347 1.92746C76.1347 0.862954 75.2718 0 74.2073 0C73.1427 0 72.2798 0.862954 72.2798 1.92746V4.73974L60.5942 12.3803C53.758 16.8501 48.0946 23.2876 44.9484 30.8394H14.456C13.3915 30.8394 12.5285 31.7023 12.5285 32.7668V163.834H1.92746C0.862954 163.834 0 164.697 0 165.762C0 166.826 0.862954 167.689 1.92746 167.689H2.89119H14.456H15.4197H46.2591H53.9689H59.7513H64.5699H69.3886H79.0259H83.8446H88.6632H94.4456H102.155H132.995H133.959H145.523H146.487C147.552 167.689 148.415 166.826 148.415 165.762C148.415 164.697 147.552 163.834 146.487 163.834H135.886V32.7668C135.886 31.7023 135.023 30.8394 133.959 30.8394H103.466C100.32 23.2876 94.6565 16.8501 87.8203 12.3803L76.1347 4.73974V1.92746ZM16.3834 165.762H45.2953V163.834H38.5492H30.8394H23.1295H16.3834V165.762ZM16.3834 161.907H22.1658V41.4404C22.1658 40.9082 22.5973 40.4767 23.1295 40.4767H30.8394C31.3716 40.4767 31.8031 40.9082 31.8031 41.4404V161.907H37.5855V49.1503V41.4404C37.5855 40.9082 38.017 40.4767 38.5492 40.4767H109.865C110.398 40.4767 110.829 40.9082 110.829 41.4404V49.1503V161.907H116.611V41.4404C116.611 40.9082 117.043 40.4767 117.575 40.4767H125.285C125.817 40.4767 126.249 40.9082 126.249 41.4404V161.907H132.031V34.6943H102.155H101.781H46.6336H46.2591H16.3834V161.907ZM48.3253 32.7668H100.089C97.312 25.8135 92.1077 19.7894 85.7107 15.6068L74.2073 8.08529L62.7038 15.6068C56.3068 19.7894 51.1025 25.8135 48.3253 32.7668ZM132.031 163.834H125.285H117.575H109.865H103.119V165.762H132.031V163.834ZM101.192 162.87V165.762H95.4093V105.047C95.4093 104.514 94.9779 104.083 94.4456 104.083H53.9689C53.4367 104.083 53.0052 104.514 53.0052 105.047V165.762H47.2228V162.87V98.3005H70.3523H78.0622H101.192V162.87ZM93.4819 106.01V165.762H89.6269V130.525C89.6269 126.991 88.2887 123.587 85.8813 121C83.3329 118.26 80.3553 115.954 77.0654 114.172L74.6662 112.873C74.3799 112.718 74.0346 112.718 73.7483 112.873L71.3491 114.172C68.0592 115.954 65.0816 118.26 62.5332 121C60.1258 123.587 58.7876 126.991 58.7876 130.525V165.762H54.9326V106.01H93.4819ZM87.6995 130.525V165.762H84.8083V137.813C84.8083 137.281 84.3768 136.85 83.8446 136.85H64.5699C64.0377 136.85 63.6062 137.281 63.6062 137.813V165.762H60.715V130.525C60.715 127.478 61.8689 124.544 63.9445 122.312C66.3503 119.726 69.1613 117.549 72.2671 115.867L74.2073 114.816L76.1474 115.867C79.2533 117.549 82.0643 119.726 84.47 122.312C86.5457 124.544 87.6995 127.478 87.6995 130.525ZM82.8808 138.777V165.762H79.9896V145.523C79.9896 144.991 79.5582 144.56 79.0259 144.56H69.3886C68.8563 144.56 68.4249 144.991 68.4249 145.523V165.762H65.5337V138.777H82.8808ZM78.0622 146.487V165.762H70.3523V146.487H78.0622ZM69.3886 96.3731H47.2228V90.926C47.2228 84.3379 50.3058 78.1294 55.5545 74.1476C59.0022 71.5321 62.702 69.2669 66.5992 67.3855L74.2073 63.7126L81.8153 67.3855C85.7125 69.2669 89.4124 71.5321 92.86 74.1476C98.1087 78.1294 101.192 84.3379 101.192 90.926V96.3731H79.0259V87.6995C79.0259 85.0382 76.8685 82.8808 74.2073 82.8808C71.546 82.8808 69.3886 85.0382 69.3886 87.6995V96.3731ZM77.0984 87.6995V96.3731H71.3161V87.6995C71.3161 86.1027 72.6105 84.8083 74.2073 84.8083C75.804 84.8083 77.0984 86.1027 77.0984 87.6995ZM108.902 161.907H103.119V97.3368V90.926C103.119 83.735 99.754 76.9582 94.025 72.612C90.4752 69.9191 86.6658 67.5868 82.6533 65.6497L74.6262 61.7746C74.3615 61.6468 74.053 61.6468 73.7883 61.7746L65.7612 65.6497C61.7487 67.5868 57.9393 69.9191 54.3895 72.612C48.6605 76.9582 45.2953 83.735 45.2953 90.926V97.3368V161.907H39.513V50.114H108.902V161.907ZM108.902 48.1865H39.513V42.4041H108.902V48.1865ZM124.321 161.907H118.539V42.4041H124.321V161.907ZM29.8756 42.4041V161.907H24.0933V42.4041H29.8756ZM73.2435 72.2798C73.2435 71.7475 73.675 71.3161 74.2073 71.3161C74.7395 71.3161 75.171 71.7475 75.171 72.2798V77.0984H73.2435V72.2798ZM74.2073 69.3886C72.6105 69.3886 71.3161 70.683 71.3161 72.2798V78.0622C71.3161 78.5944 71.7475 79.0259 72.2798 79.0259H76.1347C76.667 79.0259 77.0984 78.5944 77.0984 78.0622V72.2798C77.0984 70.683 75.804 69.3886 74.2073 69.3886ZM56.8601 85.772C56.8601 85.2398 56.4286 84.8083 55.8964 84.8083C55.3641 84.8083 54.9326 85.2398 54.9326 85.772V87.6995C54.9326 88.2317 55.3641 88.6632 55.8964 88.6632C56.4286 88.6632 56.8601 88.2317 56.8601 87.6995V85.772ZM62.6425 85.772C62.6425 85.2398 62.211 84.8083 61.6788 84.8083C61.1465 84.8083 60.715 85.2398 60.715 85.772V87.6995C60.715 88.2317 61.1465 88.6632 61.6788 88.6632C62.211 88.6632 62.6425 88.2317 62.6425 87.6995V85.772ZM87.6995 85.772C87.6995 85.2398 87.268 84.8083 86.7357 84.8083C86.2035 84.8083 85.772 85.2398 85.772 85.772V87.6995C85.772 88.2317 86.2035 88.6632 86.7357 88.6632C87.268 88.6632 87.6995 88.2317 87.6995 87.6995V85.772ZM93.4819 85.772C93.4819 85.2398 93.0504 84.8083 92.5181 84.8083C91.9859 84.8083 91.5544 85.2398 91.5544 85.772V87.6995C91.5544 88.2317 91.9859 88.6632 92.5181 88.6632C93.0504 88.6632 93.4819 88.2317 93.4819 87.6995V85.772ZM75.171 120.466C75.171 119.934 74.7395 119.503 74.2073 119.503C73.675 119.503 73.2435 119.934 73.2435 120.466V122.394H72.2798C71.7475 122.394 71.3161 122.825 71.3161 123.358V125.285H70.3523C69.8201 125.285 69.3886 125.716 69.3886 126.249V132.031C69.3886 132.563 69.8201 132.995 70.3523 132.995H78.0622C78.5944 132.995 79.0259 132.563 79.0259 132.031V126.249C79.0259 125.716 78.5944 125.285 78.0622 125.285H77.0984V123.358C77.0984 122.825 76.667 122.394 76.1347 122.394H75.171V120.466ZM74.2073 124.321H75.171V126.249C75.171 126.781 75.6025 127.212 76.1347 127.212H77.0984V131.067H71.3161V127.212H72.2798C72.812 127.212 73.2435 126.781 73.2435 126.249V124.321H74.2073Z" fill="#003B4B"/>
</svg>
