<svg width="372" height="91" viewBox="0 0 372 91" fill="none" xmlns="http://www.w3.org/2000/svg">
<path fill-rule="evenodd" clip-rule="evenodd" d="M1.92746 90.5907C0.862954 90.5907 0 89.7277 0 88.6632C0 87.5987 0.862954 86.7357 1.92746 86.7357H10.601V11.2898L8.10237 10.5145C7.29583 10.2642 6.74611 9.51805 6.74611 8.67358V4.81865C6.74611 3.55781 7.06263 2.25816 8.03345 1.28734C9.00428 0.316515 10.3039 0 11.5648 0H82.8808C88.764 0 93.4819 4.71788 93.4819 10.601V75.171H97.3368V10.601C97.3368 4.71788 102.055 0 107.938 0H179.254C180.515 0 181.814 0.316515 182.785 1.28734C183.756 2.25816 184.073 3.55781 184.073 4.81865V8.67358C184.073 9.51805 183.523 10.2642 182.716 10.5145L180.218 11.2898V86.7357H191.782V11.2898L189.284 10.5145C188.477 10.2642 187.927 9.51805 187.927 8.67358V4.81865C187.927 3.55781 188.244 2.25816 189.215 1.28734C190.186 0.316515 191.485 0 192.746 0H264.062C269.945 0 274.663 4.71788 274.663 10.601V75.171H278.518V10.601C278.518 4.71788 283.236 0 289.119 0H360.435C361.696 0 362.996 0.316515 363.967 1.28734C364.937 2.25816 365.254 3.55781 365.254 4.81865V8.67358C365.254 9.51805 364.704 10.2642 363.898 10.5145L361.399 11.2898V86.7357H370.073C371.137 86.7357 372 87.5987 372 88.6632C372 89.7277 371.137 90.5907 370.073 90.5907H1.92746ZM11.5648 3.85492C11.3387 3.85492 11.1308 3.93278 10.9664 4.06314L61.7585 12.5285C74.9712 14.7306 85.4724 24.0252 89.6269 36.1215V10.601C89.6269 6.87526 86.6066 3.85492 82.8808 3.85492H11.5648ZM89.6269 47.7014C89.6269 31.2125 77.7061 17.1405 61.4416 14.4297L10.601 5.9563V7.02203L60.1319 24.0469C60.4126 24.1207 60.6916 24.1988 60.9688 24.281C61.7274 24.5062 62.4725 24.7626 63.2026 25.0488C68.8647 27.2686 73.301 31.2557 76.1875 36.2951C78.602 40.3368 79.9896 45.0631 79.9896 50.114V71.3161H89.6269V47.7014ZM89.6269 73.2435H79.9896V77.0984H89.6269V73.2435ZM79.9896 79.0259V82.8808H110.829V79.0259H79.9896ZM101.192 77.0984H110.829V73.2435H101.192V77.0984ZM101.192 71.3161H110.829V50.114C110.829 45.0631 112.217 40.3368 114.631 36.2951C117.518 31.2557 121.954 27.2687 127.616 25.0488C128.346 24.7626 129.091 24.5062 129.85 24.281C130.127 24.1988 130.406 24.1207 130.687 24.0469L180.218 7.02203V5.9563L129.377 14.4297C113.113 17.1405 101.192 31.2125 101.192 47.7014V71.3161ZM101.192 36.1215C105.346 24.0252 115.847 14.7306 129.06 12.5285L179.852 4.06314C179.688 3.93278 179.48 3.85492 179.254 3.85492H107.938C104.212 3.85492 101.192 6.87526 101.192 10.601V36.1215ZM176.363 10.3852L171.544 12.0415V88.6632H176.363V10.3852ZM195.637 88.6632H200.456V12.0415L195.637 10.3852V88.6632ZM191.782 7.02203L241.313 24.0469C241.594 24.1207 241.873 24.1988 242.15 24.281C242.909 24.5062 243.654 24.7626 244.384 25.0488C250.046 27.2687 254.482 31.2558 257.369 36.2951C259.783 40.3368 261.171 45.0631 261.171 50.114V71.3161H270.808V47.7014C270.808 31.2125 258.887 17.1405 242.623 14.4297L191.782 5.9563V7.02203ZM192.746 3.85492C192.52 3.85492 192.312 3.93278 192.148 4.06314L242.94 12.5285C256.153 14.7306 266.654 24.0252 270.808 36.1215V10.601C270.808 6.87526 267.788 3.85492 264.062 3.85492H192.746ZM270.808 73.2435H261.171V77.0984H270.808V73.2435ZM261.171 79.0259V82.8808H292.01V79.0259H261.171ZM282.373 77.0984H292.01V73.2435H282.373V77.0984ZM282.373 71.3161H292.01V50.114C292.01 45.0631 293.398 40.3368 295.812 36.2951C298.699 31.2558 303.135 27.2687 308.797 25.0488C309.527 24.7626 310.273 24.5062 311.031 24.281C311.308 24.1988 311.587 24.1207 311.868 24.0469L361.399 7.02202V5.9563L310.558 14.4297C294.294 17.1405 282.373 31.2125 282.373 47.7014V71.3161ZM282.373 36.1215C286.528 24.0252 297.029 14.7306 310.241 12.5285L361.034 4.06314C360.869 3.93278 360.661 3.85492 360.435 3.85492H289.119C285.393 3.85492 282.373 6.87526 282.373 10.601V36.1215ZM357.544 10.3852L352.725 12.0415V88.6632H357.544V10.3852ZM334.216 27.8291C330.296 25.1019 325.583 23.4157 320.37 23.1628L350.798 12.704V88.6632H345.979V50.114C345.979 40.8576 341.319 32.6898 334.216 27.8291ZM292.01 84.8083H261.171V88.6632H292.01V84.8083ZM232.811 23.1628L202.383 12.704V88.6632H207.202V50.114C207.202 40.858 211.862 32.6906 218.964 27.8299C222.885 25.1022 227.598 23.4157 232.811 23.1628ZM14.456 88.6632H19.2746V12.0415L14.456 10.3852V88.6632ZM79.9896 88.6632H110.829V84.8083H79.9896V88.6632ZM164.798 88.6632H169.617V12.704L139.189 23.1628C144.402 23.4157 149.115 25.1022 153.036 27.8298C160.138 32.6905 164.798 40.858 164.798 50.114V88.6632ZM51.6301 23.1628L21.2021 12.704V88.6632H26.0207V50.114C26.0207 40.8581 30.6809 32.6906 37.7829 27.8299C41.7034 25.1022 46.4169 23.4157 51.6301 23.1628ZM29.8756 51.0777C29.8756 37.6747 39.793 26.9845 53.0052 26.9845C55.3798 26.9845 57.6709 27.3274 59.8335 27.9652L61.8329 28.6525C70.6602 32.1315 76.1347 40.7656 76.1347 51.0777V86.7357H29.8756V51.0777ZM128.986 28.6525L130.985 27.9652C133.148 27.3274 135.439 26.9845 137.813 26.9845C151.026 26.9845 160.943 37.6747 160.943 51.0777V86.7357H114.684V51.0777C114.684 40.7655 120.158 32.1315 128.986 28.6525ZM211.057 51.0777C211.057 37.6747 220.974 26.9845 234.187 26.9845C236.561 26.9845 238.852 27.3274 241.015 27.9652L243.014 28.6525C251.842 32.1315 257.316 40.7656 257.316 51.0777V86.7357H211.057V51.0777ZM310.167 28.6525L312.167 27.9652C314.329 27.3274 316.62 26.9845 318.995 26.9845C332.207 26.9845 342.124 37.6747 342.124 51.0777V86.7357H295.865V51.0777C295.865 40.7656 301.34 32.1315 310.167 28.6525Z" fill="#003B4B"/>
</svg>
