<svg width="226" height="98" viewBox="0 0 226 98" fill="none" xmlns="http://www.w3.org/2000/svg">
<path fill-rule="evenodd" clip-rule="evenodd" d="M83.8446 0C82.7801 0 81.9171 0.862954 81.9171 1.92746V6.74611C81.9171 7.12664 82.0297 7.49866 82.2408 7.81528L83.8446 10.2209V10.601H14.456C13.3915 10.601 12.5285 11.464 12.5285 12.5285V20.2383H8.67358C7.98649 20.2383 7.35136 20.6041 7.00649 21.1984C6.66163 21.7926 6.65918 22.5255 7.00007 23.1221L10.601 29.4238V31.8031C10.601 32.8676 11.464 33.7306 12.5285 33.7306V93.4819H1.92746C0.862954 93.4819 0 94.3448 0 95.4093C0 96.4738 0.862954 97.3368 1.92746 97.3368H223.585C224.65 97.3368 225.513 96.4738 225.513 95.4093C225.513 94.3448 224.65 93.4819 223.585 93.4819H212.984V33.7306C214.049 33.7306 214.912 32.8676 214.912 31.8031V28.5318L218.443 23.235C218.837 22.6435 218.874 21.883 218.539 21.2563C218.203 20.6296 217.55 20.2383 216.839 20.2383H212.984V12.5285C212.984 11.464 212.122 10.601 211.057 10.601H141.668V10.2209L143.272 7.81528C143.483 7.49866 143.596 7.12664 143.596 6.74611V1.92746C143.596 0.862954 142.733 0 141.668 0H83.8446ZM16.3834 95.4093H29.8756V92.5181C29.8756 91.9859 30.3071 91.5544 30.8394 91.5544H33.7306V88.6632C33.7306 88.131 34.162 87.6995 34.6943 87.6995H37.5855V84.8083C37.5855 84.276 38.017 83.8446 38.5492 83.8446H41.1426V80.9534C41.1426 80.4211 41.574 79.9896 42.1063 79.9896H45.2953V78.0622H16.3834V95.4093ZM16.3834 76.1347H43.3679V45.2953H41.4404V73.2435C41.4404 73.7758 41.0089 74.2073 40.4767 74.2073H25.057C24.5247 74.2073 24.0933 73.7758 24.0933 73.2435V44.7308L22.4481 43.0856C22.2673 42.9049 22.1658 42.6597 22.1658 42.4041V40.4767C22.1658 39.9444 22.5973 39.513 23.1295 39.513H43.3679V31.8031H16.3834V76.1347ZM14.456 29.8756H41.4404V28.2151L38.9673 24.0933H12.3032L14.3186 27.4524C14.4085 27.6021 14.456 27.7735 14.456 27.9482V29.8756ZM16.3834 22.1658H39.4953C39.5065 22.1656 39.5176 22.1656 39.5288 22.1658H43.3679V14.456H16.3834V22.1658ZM45.2953 14.456V22.1658H85.772V14.456H45.2953ZM87.6995 22.1658H95.7396C93.7745 20.5757 92.5181 18.1444 92.5181 15.4197C92.5181 14.8874 92.9496 14.456 93.4819 14.456H132.031C132.563 14.456 132.995 14.8874 132.995 15.4197C132.995 18.1444 131.738 20.5757 129.773 22.1658H137.813V10.601H87.6995V22.1658ZM87.4413 8.67358H138.072C138.092 8.63781 138.114 8.60265 138.137 8.56814L139.741 6.16252V3.85492H85.772V6.16252L87.3758 8.56814C87.3988 8.60265 87.4206 8.63781 87.4413 8.67358ZM139.741 14.456V22.1658H180.218V14.456H139.741ZM182.145 14.456V22.1658H185.984C185.989 22.1657 185.993 22.1657 185.998 22.1657C186.005 22.1656 186.011 22.1657 186.018 22.1658H209.13V14.456H182.145ZM186.546 24.0933L184.073 28.2151V29.8756H211.057V27.9482C211.057 27.5677 211.17 27.1956 211.381 26.879L212.957 24.5144L213.21 24.0933H186.546ZM209.13 31.8031H182.145V39.513H202.383C202.916 39.513 203.347 39.9444 203.347 40.4767V42.4041C203.347 42.6597 203.246 42.9049 203.065 43.0856L201.42 44.7308V73.2435C201.42 73.7758 200.988 74.2073 200.456 74.2073H185.036C184.504 74.2073 184.073 73.7758 184.073 73.2435V45.2953H182.145V76.1347H209.13V31.8031ZM209.13 78.0622H180.218V79.9896H183.407C183.939 79.9896 184.37 80.4211 184.37 80.9534V83.8446H186.964C187.496 83.8446 187.927 84.276 187.927 84.8083V87.6995H190.819C191.351 87.6995 191.782 88.131 191.782 88.6632V91.5544H194.674C195.206 91.5544 195.637 91.9859 195.637 92.5181V95.4093H209.13V78.0622ZM184.298 24.0933L182.282 27.4524C182.193 27.6021 182.145 27.7735 182.145 27.9482V29.8756H119.207L117.038 24.0933H184.298ZM174.435 31.8031H180.218V76.1347H174.435V31.8031ZM178.29 78.0622V79.9896H47.2228V78.0622H178.29ZM182.145 43.3679V41.4404H201.42V42.0049L200.057 43.3679H182.145ZM193.71 45.2953H199.492V66.4974H193.71V45.2953ZM199.492 68.4249V72.2798H186V68.4249H199.492ZM191.782 66.4974H186V45.2953H191.782V66.4974ZM193.71 93.4819V95.4093H31.8031V93.4819H193.71ZM43.2305 27.4524L41.2151 24.0933H108.475L106.306 29.8756H43.3679V27.9482C43.3679 27.7735 43.3204 27.6021 43.2305 27.4524ZM109.865 22.1658H101.192C97.7931 22.1658 94.9815 19.6527 94.5139 16.3834H130.999C130.531 19.6527 127.72 22.1658 124.321 22.1658H115.648C115.332 22.1658 115.036 22.3208 114.856 22.5806C114.676 22.8404 114.634 23.172 114.745 23.4679L117.148 29.8756H108.365L110.768 23.4679C110.879 23.172 110.837 22.8404 110.657 22.5806C110.477 22.3208 110.181 22.1658 109.865 22.1658ZM45.2953 31.8031H51.0777V76.1347H45.2953V31.8031ZM53.0052 40.4767V31.8031H172.508V40.4767H169.244C169.191 40.3832 169.13 40.2811 169.06 40.1719C168.737 39.6608 168.232 38.9884 167.494 38.318C166.004 36.963 163.608 35.658 159.979 35.658C156.351 35.658 153.955 36.963 152.464 38.318C151.727 38.9884 151.222 39.6608 150.898 40.1719C150.829 40.2811 150.768 40.3832 150.714 40.4767H147.078C147.025 40.3832 146.964 40.2811 146.895 40.1719C146.571 39.6608 146.066 38.9884 145.328 38.318C143.838 36.963 141.442 35.658 137.813 35.658C134.185 35.658 131.789 36.963 130.299 38.318C129.561 38.9884 129.056 39.6608 128.732 40.1719C128.663 40.2811 128.602 40.3832 128.549 40.4767H124.753C124.626 40.3419 124.461 40.1747 124.258 39.9844C123.737 39.4966 122.965 38.8542 121.941 38.2138C119.888 36.9308 116.822 35.658 112.756 35.658C108.691 35.658 105.625 36.9308 103.572 38.2138C102.548 38.8542 101.776 39.4966 101.255 39.9844C101.052 40.1747 100.887 40.3419 100.76 40.4767H96.9643C96.9109 40.3832 96.8499 40.2811 96.7807 40.1719C96.457 39.6608 95.9518 38.9884 95.2143 38.318C93.7238 36.963 91.328 35.658 87.6995 35.658C84.0709 35.658 81.6751 36.963 80.1846 38.318C79.4472 38.9884 78.942 39.6608 78.6183 40.1719C78.5491 40.2811 78.4881 40.3832 78.4347 40.4767H74.7985C74.7451 40.3832 74.6841 40.2811 74.6149 40.1719C74.2912 39.6608 73.786 38.9884 73.0485 38.318C71.558 36.963 69.1622 35.658 65.5337 35.658C61.9051 35.658 59.5093 36.963 58.0188 38.318C57.2814 38.9884 56.7761 39.6608 56.4525 40.1719C56.3833 40.2811 56.3223 40.3832 56.2689 40.4767H53.0052ZM169.617 42.4041H172.508V45.2953H169.617V42.4041ZM169.617 47.2228H172.508V76.1347H169.617V47.2228ZM167.689 76.1347H152.269V41.6529C152.323 41.5473 152.407 41.3921 152.526 41.2031C152.775 40.8107 153.173 40.2785 153.761 39.7442C154.921 38.6899 156.862 37.5855 159.979 37.5855C163.097 37.5855 165.038 38.6899 166.198 39.7442C166.785 40.2785 167.184 40.8107 167.432 41.2031C167.552 41.3921 167.636 41.5473 167.689 41.6529V76.1347ZM150.342 47.2228V76.1347H147.451V47.2228H150.342ZM145.523 76.1347H130.104V41.6529C130.157 41.5473 130.241 41.3921 130.361 41.2031C130.609 40.8107 131.007 40.2785 131.595 39.7442C132.755 38.6899 134.696 37.5855 137.813 37.5855C140.931 37.5855 142.872 38.6899 144.032 39.7442C144.619 40.2785 145.018 40.8107 145.266 41.2031C145.386 41.3921 145.47 41.5473 145.523 41.6529V76.1347ZM128.176 47.2228V76.1347H125.285V47.2228H128.176ZM123.358 76.1347H120.466V67.4611C120.466 66.9289 120.035 66.4974 119.503 66.4974V55.8964C119.503 52.1706 116.482 49.1503 112.756 49.1503C109.031 49.1503 106.01 52.1706 106.01 55.8964V66.4974C105.478 66.4974 105.047 66.9289 105.047 67.4611V76.1347H102.155V41.8063C102.258 41.6974 102.397 41.5558 102.574 41.3906C103.017 40.9749 103.691 40.4127 104.594 39.8483C106.396 38.722 109.112 37.5855 112.756 37.5855C116.401 37.5855 119.117 38.722 120.919 39.8483C121.822 40.4127 122.496 40.9749 122.939 41.3906C123.116 41.5558 123.255 41.6974 123.358 41.8063V76.1347ZM117.575 66.4974H107.938V55.8964C107.938 53.2351 110.095 51.0777 112.756 51.0777C115.418 51.0777 117.575 53.2351 117.575 55.8964V66.4974ZM100.228 47.2228V76.1347H97.3368V47.2228H100.228ZM106.974 76.1347V68.4249H118.539V76.1347H106.974ZM95.4093 76.1347H79.9896V41.6529C80.0429 41.5473 80.127 41.3921 80.2467 41.2031C80.4952 40.8107 80.8935 40.2785 81.4812 39.7442C82.6409 38.6899 84.5819 37.5855 87.6995 37.5855C90.8171 37.5855 92.758 38.6899 93.9178 39.7442C94.5055 40.2785 94.9037 40.8107 95.1523 41.2031C95.272 41.3921 95.3561 41.5473 95.4093 41.6529V76.1347ZM78.0622 47.2228V76.1347H75.171V47.2228H78.0622ZM73.2435 76.1347H57.8238V41.6529C57.8771 41.5473 57.9612 41.3921 58.0809 41.2031C58.3294 40.8107 58.7277 40.2785 59.3154 39.7442C60.4751 38.6899 62.4161 37.5855 65.5337 37.5855C68.6513 37.5855 70.5922 38.6899 71.752 39.7442C72.3397 40.2785 72.7379 40.8107 72.9865 41.2031C73.1062 41.3921 73.1903 41.5473 73.2435 41.6529V76.1347ZM55.8964 47.2228V76.1347H53.0052V47.2228H55.8964ZM55.8964 45.2953H53.0052V42.4041H55.8964V45.2953ZM75.171 45.2953V42.4041H78.0622V45.2953H75.171ZM97.3368 45.2953V42.4041H100.228V45.2953H97.3368ZM125.285 45.2953V42.4041H128.176V45.2953H125.285ZM147.451 45.2953V42.4041H150.342V45.2953H147.451ZM24.0933 41.4404H43.3679V43.3679H25.4562L24.0933 42.005V41.4404ZM26.0207 66.4974V45.2953H31.8031V66.4974H26.0207ZM33.7306 66.4974V45.2953H39.513V66.4974H33.7306ZM39.513 68.4249V72.2798H26.0207V68.4249H39.513ZM182.443 81.9171V83.8446H43.07V81.9171H182.443ZM186 85.772V87.6995H39.513V85.772H186ZM189.855 89.6269V91.5544H35.658V89.6269H189.855Z" fill="#003B4B"/>
</svg>
