<svg width="414" height="570" viewBox="0 0 414 570" fill="none" xmlns="http://www.w3.org/2000/svg">
<path d="M206.999 542.539C306.962 542.539 387.999 442.699 387.999 319.539C387.999 196.38 306.962 96.5391 206.999 96.5391C107.035 96.5391 25.9985 196.38 25.9985 319.539C25.9985 442.699 107.035 542.539 206.999 542.539Z" fill="#E0EDF8"/>
<path d="M169.252 537.478L387.998 318.732L387.998 319.04C387.998 443.797 305.993 542.54 207.498 542.54C194.407 542.54 181.607 540.796 169.252 537.478Z" fill="#C5E1F8"/>
<path d="M72.8618 467.868L353.36 187.369C372.409 219.603 384.68 258.477 387.416 300.928L155.335 533.01C123.26 520.997 94.7883 498.194 72.8618 467.868Z" fill="#C5E1F8"/>
<path d="M26.9985 319.039C26.9985 194.282 109.004 95.5391 207.499 95.5391C242.934 95.5391 276.235 108.32 304.351 130.494L38.1643 396.681C30.9516 372.568 26.9985 346.43 26.9985 319.039Z" fill="#C5E0F8"/>
<path d="M217.999 542.124C214.319 542.399 210.61 542.539 206.875 542.539C106.98 542.539 25.9985 442.699 25.9985 319.539C25.9985 196.38 106.98 96.5391 206.875 96.5391C210.61 96.5391 214.319 96.6787 217.999 96.9539C123.284 104.038 48.2454 200.985 48.2454 319.539C48.2454 438.093 123.284 535.04 217.999 542.124Z" fill="#92BEE0"/>
<path fill-rule="evenodd" clip-rule="evenodd" d="M292.715 70.8491C296.808 71.8785 302.219 74.5432 307.371 78.0657C314.212 82.7428 326.099 92.7391 328.648 95.9573L330.79 98.6608L322.09 98.2986C312.042 97.8806 306.367 98.8085 299.407 102.009L295.01 104.032L301.137 103.992C310.073 103.934 315.692 105.571 327.669 111.723C333.296 114.614 340.505 117.841 343.687 118.895C348.949 120.638 350.385 120.815 359.516 120.848C365.04 120.868 369.558 121.051 369.558 121.254C369.558 121.458 367.783 123.449 365.614 125.68C358.436 133.061 349.826 136.367 337.487 136.478L330.267 136.543L324.138 130.711C308.1 115.448 290.132 103.507 274.142 97.4803L272.336 96.8001L275.032 91.6546C277.971 86.0461 280.621 78.8214 281.374 74.3655C281.637 72.8078 282.091 71.3856 282.382 71.2058C283.527 70.4978 290.379 70.2609 292.715 70.8491ZM129.694 70.638C131.784 71.0452 132.236 71.8703 133.572 77.7375C134.222 80.5921 136.24 85.9528 138.057 89.6503C139.872 93.3484 141.244 96.5585 141.105 96.7838C140.965 97.0098 139.386 97.7451 137.595 98.4177C124.169 103.461 106.838 115.1 91.2328 129.552C84.5466 135.746 84.0305 136.079 80.4536 136.526C74.5149 137.268 64.507 135.713 58.7705 133.157C54.6421 131.318 49.197 127.084 46.3709 123.516L44.287 120.884L53.9109 120.874C66.337 120.86 71.4111 119.48 85.3207 112.333C98.606 105.506 103.087 104.11 111.872 104.058L118.68 104.019L114.611 102.081C107.915 98.8929 101.67 97.835 92.013 98.2516C87.3965 98.4511 83.6187 98.3735 83.6187 98.0794C83.6187 97.099 94.8962 86.8535 101.384 81.9395C113.534 72.737 122.366 69.2117 129.694 70.638ZM370.119 140.798C376.876 151.358 383.404 168.009 385.885 181.005C388.526 194.838 388.291 205.647 385.074 218.495L383.645 224.196L380.329 215.771C371.114 192.358 357.406 168.636 342.789 150.808C340.354 147.838 338.478 145.22 338.62 144.99C338.762 144.761 340.991 144.396 343.575 144.18C349.218 143.706 357.344 141.088 361.935 138.263C363.777 137.13 365.71 136.203 366.231 136.203C366.753 136.203 368.502 138.271 370.119 140.798ZM49.9186 137.322C53.7951 140.385 66.5603 144.357 72.5555 144.368C74.1465 144.37 75.4489 144.664 75.4489 145.02C75.4489 145.377 72.919 148.824 69.8275 152.68C55.523 170.52 42.7552 192.877 33.8461 215.683C32.2013 219.893 30.6776 223.339 30.4597 223.342C29.5291 223.352 26.9672 209.458 26.618 202.509C25.6212 182.674 32.3115 159.187 44.2931 140.458C45.7902 138.118 47.3622 136.212 47.7856 136.224C48.2098 136.236 49.1697 136.73 49.9186 137.322ZM398.685 220.473C406.556 244.386 410.996 266.47 413.174 292.552C414.408 307.324 413.675 341.279 411.817 355.423C403.49 418.815 378.172 472.871 338.115 512.781C308.199 542.587 270.044 562.177 229.992 568.294C219.004 569.972 195.294 569.95 184.038 568.251C108.156 556.797 44.8956 499.064 16.0089 414.903C-2.63095 360.594 -5.08801 298.84 9.13409 242.068C11.9179 230.956 14.2075 223.232 17.0975 215.208L19.1706 209.454L21.0571 216.688C22.0953 220.668 23.9103 226.244 25.0909 229.081L27.2381 234.238L24.8029 243.259C12.3754 289.306 11.986 340.131 23.7034 386.822C32.7098 422.71 50.4497 458.177 72.9116 485.202C102.67 521.006 141.911 544.026 184.378 550.592C195.282 552.278 219.118 552.279 229.897 550.594C268.056 544.627 301.389 526.833 330.483 496.896C348 478.871 360.218 461.143 372.268 436.263C386.999 405.848 395.372 374.172 398.213 338.122C399.228 325.239 398.657 296.315 397.145 283.938C395.277 268.661 390.068 243.33 387.295 236.036C386.766 234.643 387.042 233.404 388.697 229.755C389.831 227.254 391.642 221.842 392.721 217.728C393.8 213.615 394.791 210.141 394.922 210.01C395.054 209.878 396.747 214.587 398.685 220.473Z" fill="#E27535"/>
<path fill-rule="evenodd" clip-rule="evenodd" d="M102.848 93.5397C122.872 73.265 139.727 76.4096 144.302 78.7956C147.484 80.4559 151.411 79.2217 153.071 76.0388C154.731 72.856 153.497 68.9299 150.314 67.2696C139.86 61.8166 116.846 60.7334 93.4036 84.6024C93.2838 84.7244 93.1689 84.851 93.0591 84.9821C90.5349 87.9942 86.0482 92.163 81.0973 94.7456C76.081 97.3623 71.9693 97.7112 68.7456 95.8845C63.6524 92.9983 63.4024 89.5689 63.9333 87.6381C64.6009 85.2108 66.0554 84.7842 66.748 84.8162C67.3269 85.0696 67.5362 85.2868 67.5773 85.3313C67.6288 85.387 67.6386 85.4141 67.6501 85.4557C67.6709 85.5312 67.6795 85.6346 67.6748 85.7259C67.6748 85.7265 67.6747 85.7271 67.6747 85.7277C66.9725 89.1228 69.07 92.4969 72.4645 93.3456C75.9472 94.2162 79.4763 92.0988 80.347 88.6161L74.1594 87.0692C80.347 88.6161 80.3479 88.6124 80.3488 88.6087L80.3507 88.601L80.3546 88.5853L80.3627 88.5519C80.3682 88.5287 80.3741 88.5038 80.3802 88.4771C80.3925 88.4239 80.4057 88.3636 80.4197 88.2966C80.4475 88.163 80.4782 88.0016 80.5083 87.8154C80.5683 87.4449 80.6279 86.9651 80.6573 86.4003C80.715 85.2885 80.6611 83.7355 80.182 81.9986C79.1268 78.1735 76.2495 74.3905 70.7272 72.4183C70.5271 72.3468 70.3236 72.2852 70.1175 72.2337C60.6602 69.8694 53.3998 76.9144 51.3987 84.1911C49.1797 92.2603 52.4296 101.581 62.3364 107.195C71.1127 112.168 80.3343 109.806 87.1098 106.272C93.8313 102.765 99.5126 97.4692 102.848 93.5397ZM320.113 84.6024C296.67 60.7334 273.656 61.8166 263.203 67.2696C260.02 68.9299 258.786 72.856 260.446 76.0388C262.106 79.2217 266.032 80.4559 269.215 78.7956C273.789 76.4096 290.644 73.265 310.669 93.5397C314.004 97.4691 319.685 102.765 326.407 106.272C333.182 109.806 342.404 112.168 351.18 107.195C361.087 101.581 364.337 92.2603 362.118 84.1911C360.117 76.9144 352.856 69.8694 343.399 72.2337C343.193 72.2852 342.99 72.3468 342.79 72.4183C337.267 74.3905 334.39 78.1735 333.335 81.9986C332.856 83.7355 332.802 85.2884 332.859 86.4003C332.889 86.9651 332.948 87.4449 333.008 87.8154C333.039 88.0016 333.069 88.163 333.097 88.2966C333.111 88.3636 333.124 88.4239 333.136 88.4771C333.143 88.5038 333.148 88.5287 333.154 88.5519L333.162 88.5853L333.166 88.601L333.168 88.6087C333.169 88.6124 333.17 88.6161 339.416 87.0545L333.17 88.6161C334.04 92.0988 337.57 94.2162 341.052 93.3456C344.447 92.4969 346.544 89.1228 345.842 85.7278C345.842 85.7271 345.842 85.7265 345.842 85.7259C345.837 85.6346 345.846 85.5312 345.867 85.4557C345.878 85.4141 345.888 85.387 345.939 85.3313C345.981 85.2868 346.19 85.0696 346.769 84.8162C347.461 84.7842 348.916 85.2108 349.583 87.6381C350.114 89.5689 349.864 92.9983 344.771 95.8845C341.547 97.7112 337.436 97.3623 332.419 94.7456C327.469 92.163 322.982 87.9942 320.458 84.9821C320.348 84.851 320.233 84.7244 320.113 84.6024Z" fill="#FDC251"/>
<path d="M206.983 0.00857359C206.981 0.00571573 206.979 0.00285787 206.977 0C181.214 35.172 182.678 69.3821 186.853 83.988C193.497 83.3933 200.21 83.075 206.983 83.0429C213.756 83.075 220.468 83.3933 227.113 83.988C231.288 69.3821 232.752 35.172 206.989 0C206.987 0.00285787 206.985 0.00571573 206.983 0.00857359Z" fill="#A23F16"/>
<path d="M271.448 40.5443C244.679 53.4525 233.86 74.1519 231.167 84.3415C240.582 85.999 249.838 88.2158 258.914 90.9627C263.761 83.9993 268.768 73.5485 270.784 60.0397C270.584 58.4625 270.784 56.8715 271.342 55.4112C271.769 50.7878 271.843 45.8283 271.448 40.5443Z" fill="#A23F16"/>
<path d="M278.511 29.8371C278.166 29.624 277.807 29.4331 277.438 29.2654C275.133 27.5176 273.644 24.749 273.644 21.6325C273.644 16.3462 277.928 12.0608 283.214 12.0608C288.499 12.0608 292.784 16.3462 292.784 21.6325C292.784 26.9188 288.499 31.2042 283.214 31.2042C281.903 31.2042 280.653 30.9405 279.515 30.4632C279.194 30.2342 278.858 30.0251 278.511 29.8371Z" fill="#A23F16"/>
<path d="M142.518 40.5443C169.287 53.4525 180.106 74.1519 182.798 84.3415C173.384 85.999 164.128 88.2158 155.052 90.9627C150.205 83.9993 145.198 73.5485 143.182 60.0397C143.382 58.4625 143.182 56.8715 142.624 55.4112C142.197 50.7878 142.123 45.8283 142.518 40.5443Z" fill="#A23F16"/>
<path d="M135.455 29.8371C135.8 29.624 136.159 29.4331 136.528 29.2654C138.833 27.5176 140.322 24.749 140.322 21.6325C140.322 16.3462 136.038 12.0608 130.752 12.0608C125.467 12.0608 121.182 16.3462 121.182 21.6325C121.182 26.9188 125.467 31.2042 130.752 31.2042C132.063 31.2042 133.313 30.9405 134.451 30.4632C134.772 30.2342 135.107 30.0251 135.455 29.8371Z" fill="#A23F16"/>
<path fill-rule="evenodd" clip-rule="evenodd" d="M207 89C105.203 89 21.0005 191.169 21.0005 319.5C21.0005 447.831 105.203 550 207 550C308.798 550 393 447.831 393 319.5C393 191.169 308.798 89 207 89ZM11.0005 319.5C11.0005 187.705 97.8252 79 207 79C316.176 79 403 187.705 403 319.5C403 451.295 316.176 560 207 560C97.8252 560 11.0005 451.295 11.0005 319.5Z" fill="#E27535"/>
</svg>
