<svg width="439" height="379" viewBox="0 0 439 379" fill="none" xmlns="http://www.w3.org/2000/svg">
<path d="M330.058 372.464C322.856 376.637 314.589 378.491 306.265 378.491H132.821C124.44 378.491 116.117 376.61 108.879 372.385C67.3812 348.158 34.8627 310.911 16.4997 266.253C-3.48376 217.653 -5.37817 163.5 11.1604 113.623L40.0604 125.492C75.1229 139.927 114.072 141.913 150.421 131.12C157.748 128.947 164.523 125.83 171.747 123.442C179.093 121.094 186.69 119.622 194.382 119.056C212.562 117.554 231.821 118.451 249.578 122.752L271.842 128.142C304.011 135.965 337.787 133.974 368.814 122.426L369.172 122.28L420.744 99.0449C432.872 124.659 438.954 152.56 438.991 182.748C439.12 223.304 427.957 263.096 406.752 297.667C387.757 328.634 361.377 354.317 330.058 372.464Z" fill="#87DFFA"/>
<path d="M215.295 22.5343C286.555 22.5343 344.321 17.4898 344.321 11.2672C344.321 5.04448 286.555 0 215.295 0C144.036 0 86.2695 5.04448 86.2695 11.2672C86.2695 17.4898 144.036 22.5343 215.295 22.5343Z" fill="#C3F1FF"/>
<path d="M73.0731 19.2366C78.7499 23.2503 90.7421 26.7106 114.445 29.687C140.855 33.0079 175.915 34.8374 213.164 34.8374C250.412 34.8374 285.471 33.0079 311.882 29.687C336.073 26.6435 348.056 23.1071 353.592 18.9785C368.648 30.3444 382.351 43.3985 394.434 57.8852C386.082 63.1639 377.249 67.6393 368.052 71.2515C366.593 71.7763 365.377 72.8196 364.636 74.1828C363.895 75.546 363.682 77.1339 364.036 78.6443C364.252 79.4779 364.641 80.2568 365.178 80.9305C365.714 81.6043 366.386 82.1579 367.15 82.5556C367.914 82.9533 368.753 83.1862 369.612 83.2392C370.472 83.2921 371.333 83.164 372.14 82.8631C381.122 79.5177 390.262 74.8782 402.033 67.6726C406.808 74.2019 411.176 81.0192 415.112 88.0858L364.314 110.972C335.642 121.594 304.451 123.407 274.741 116.181L252.478 110.79C220.939 103.15 186.765 103.122 156.359 115.847C147.275 119.537 137.789 122.152 128.097 123.639C99.9642 128.256 71.102 124.955 44.7381 114.106L15.3594 102.043C27.9029 70.332 47.6633 41.9802 73.0731 19.2366Z" fill="#C3F1FF"/>
<path d="M325.137 92.5468C309.056 92.5479 293.129 89.4078 278.252 83.3027C276.754 82.6748 275.565 81.4801 274.944 79.979C274.323 78.4779 274.321 76.7923 274.938 75.2896C275.555 73.7868 276.741 72.589 278.237 71.9572C279.734 71.3254 281.419 71.3109 282.926 71.9168C301.317 79.4645 321.395 81.9421 341.068 79.0915C342.67 78.8856 344.289 79.3176 345.575 80.2943C346.861 81.2709 347.712 82.714 347.943 84.3122C348.175 85.9105 347.769 87.5357 346.814 88.8375C345.858 90.1393 344.429 91.0132 342.835 91.2708C336.974 92.1209 331.059 92.5474 325.137 92.5468Z" fill="white"/>
<path d="M65.6709 133.68C56.9722 131.659 48.4062 128.928 40.0604 125.493L11.1604 113.623C-5.37817 163.5 -3.48376 217.654 16.4997 266.253C34.8627 310.911 67.3812 348.158 108.879 372.385C109.779 372.911 110.697 373.4 111.629 373.855C45.3211 277.291 41.6399 196.483 65.6709 133.68Z" fill="#6FCBF0"/>
<path d="M140.871 32.3019C131.379 31.5756 122.509 30.7007 114.445 29.6868C90.7421 26.7103 78.7499 23.2501 73.0731 19.2363C47.6633 41.9799 27.9029 70.3318 15.3594 102.043L44.7381 114.106C53.1021 117.548 61.7175 120.23 70.4813 122.141C87.117 85.3136 113.199 55.1987 140.871 32.3019Z" fill="#6FCBF0"/>
<path d="M188.344 0.246094C130.022 1.32839 86.2695 5.85154 86.2695 11.2671C86.2695 15.5915 114.168 19.347 155.106 21.2357C166.313 13.0571 177.56 6.04973 188.344 0.246094Z" fill="#6FCBF0"/>
<path fill-rule="evenodd" clip-rule="evenodd" d="M52.2698 164.954C53.7203 161.42 57.7611 159.731 61.2951 161.182C79.5688 168.682 99.5198 171.143 119.068 168.307C122.849 167.759 126.358 170.379 126.906 174.159C127.455 177.94 124.835 181.449 121.054 181.998C99.0564 185.189 76.6056 182.42 56.0424 173.98C52.5084 172.529 50.8193 168.489 52.2698 164.954Z" fill="white"/>
<path d="M143.426 285.507C158.036 272.605 173.549 266.684 188.285 268.403C203.478 270.165 217.719 279.813 230.655 297.093C225.706 303.793 211.044 321.156 189.756 324.749C174.016 327.402 157.594 321.969 140.987 308.582L129.222 298.121L143.426 285.507Z" fill="#F26A5F"/>
<path d="M229.187 299.01C223.171 306.636 209.238 321.459 189.755 324.748C174.015 327.4 157.593 321.967 140.986 308.581L129.221 298.12L132.736 294.998C147.895 301.252 166.015 307.121 184.065 307.394C203.774 307.691 217.314 304.151 229.187 299.01Z" fill="#DD5F55"/>
<path d="M105.993 280.764L126.28 297.889L105.993 314.998V280.764Z" fill="#F26A5F"/>
<path d="M105.993 314.997L119.94 302.948L105.993 290.906V314.997Z" fill="#DD5F55"/>
<path d="M325.779 229.185C306.758 245.98 286.558 253.688 267.378 251.452C247.599 249.157 229.059 236.596 212.219 214.103C218.662 205.38 237.753 182.776 265.465 178.099C285.96 174.645 307.332 181.718 328.949 199.145L344.266 212.763L325.779 229.185Z" fill="#F26A5F"/>
<path d="M267.378 251.452C286.558 253.688 306.758 245.98 325.779 229.185L344.266 212.763L343.638 212.205C341.349 213.184 338.657 214.435 335.63 215.842C320.682 222.79 297.585 233.525 274.618 233.868C253.996 234.175 236.065 225.104 222.749 218.367C219.009 216.475 215.634 214.768 212.665 213.503C212.51 213.71 212.361 213.91 212.219 214.103C224.643 230.696 237.991 241.885 252.08 247.534C256.732 249.039 261.314 250.262 265.702 251.233C266.259 251.314 266.818 251.387 267.378 251.452Z" fill="#DD5F55"/>
<path d="M380.992 239.328L350.992 212.65L380.992 185.998V239.328Z" fill="#F26A5F"/>
<path d="M380.985 238.488L356.616 217.858L380.985 197.248V238.488Z" fill="#DD5F55"/>
<path d="M236.761 213.215C239.993 213.215 242.613 210.595 242.613 207.363C242.613 204.13 239.993 201.51 236.761 201.51C233.529 201.51 230.908 204.13 230.908 207.363C230.908 210.595 233.529 213.215 236.761 213.215Z" fill="#492170"/>
<path d="M210.992 297C214.306 297 216.992 294.314 216.992 291C216.992 287.686 214.306 285 210.992 285C207.678 285 204.992 287.686 204.992 291C204.992 294.314 207.678 297 210.992 297Z" fill="#492170"/>
</svg>
