<svg width="440" height="454" viewBox="0 0 440 454" fill="none" xmlns="http://www.w3.org/2000/svg">
<path d="M219.21 286.802C221.767 286.784 224.331 286.775 226.901 286.775C271.08 286.775 313.337 289.392 349.819 294.282C359.821 296.193 369.307 298.333 378.183 300.693C401.166 306.803 415.618 312.121 424.583 316.909C435.248 322.394 438.907 326.979 438.909 329.094C438.906 330.125 438.835 329.206 438.896 330.251C439.308 337.282 429.556 343.857 399.889 352.964C397.149 353.62 394.277 354.272 391.267 354.919C347.444 364.332 289.068 369.514 226.895 369.514C224.327 369.514 221.765 369.505 219.21 369.488C216.656 369.505 214.094 369.514 211.526 369.514C149.352 369.514 90.9771 364.332 47.1539 354.919C44.1437 354.272 41.2715 353.62 38.5314 352.964C8.86468 343.857 -0.398751 337.282 0.0130585 330.251C0.0743089 329.206 0.0028797 330.125 0 329.094C0.00209337 326.979 3.17322 322.394 13.8377 316.909C22.8029 312.121 37.2548 306.803 60.2376 300.693C69.1142 298.333 78.5999 296.193 88.6018 294.282C125.084 289.392 167.341 286.775 211.519 286.775C214.09 286.775 216.654 286.784 219.21 286.802Z" fill="#FFE4AA"/>
<path d="M43.3872 422.921C38.231 419.256 26.328 408.117 16.2226 386.152C9.21274 370.915 6.91348 360.772 4.29441 349.219C3.13782 344.117 1.91887 338.74 0.204346 332.527C47.2076 357.234 145.868 355.431 199.004 356.334L199.474 356.342C206.049 356.454 212.756 356.568 219.545 356.671C226.333 356.568 233.04 356.454 239.615 356.342L240.086 356.334C289.909 355.487 408.21 348.651 438.885 332.527C437.17 338.74 435.951 344.117 434.795 349.219C432.176 360.772 429.876 370.915 422.867 386.152C412.761 408.117 400.858 419.256 395.702 422.921C379.424 434.185 357.238 441.415 337.786 445.012C313.139 449.568 292.455 451.358 263.055 452.351C234.201 453.327 204.911 453.328 176.034 452.351C146.635 451.358 125.951 449.568 101.303 445.012C81.8508 441.415 59.6647 434.185 43.3872 422.921Z" fill="#F2C45F"/>
<path d="M106.847 445.808C104.867 445.47 102.867 445.114 100.84 444.739C99.872 444.56 98.8635 444.422 97.8182 444.319C90.0705 442.668 82.9454 440.401 76.1437 437.539C64.3783 434.198 53.0644 429.617 43.3872 422.921C38.231 419.256 26.328 408.117 16.2226 386.152C9.21274 370.915 6.91348 360.772 4.29441 349.219C3.13782 344.117 1.91887 338.74 0.204346 332.527C19.997 342.931 48.9494 348.634 79.8052 351.818C69.6984 397.374 85.1081 430.658 106.847 445.808Z" fill="#F2AE5F"/>
<path fill-rule="evenodd" clip-rule="evenodd" d="M1.24179 327.645C3.0014 324.298 7.14155 323.011 10.4891 324.77C32.7001 336.445 66.1586 342.524 101.466 345.689C132.429 348.465 163.994 348.946 189.321 349.333C192.705 349.384 195.977 349.434 199.121 349.488L199.602 349.496L199.604 349.496C206.142 349.607 212.804 349.72 219.546 349.823C226.289 349.72 232.95 349.607 239.489 349.496L239.499 349.496L239.971 349.488C264.659 349.068 304.831 346.738 342.617 342.507C361.509 340.391 379.701 337.812 395.011 334.782C410.528 331.711 422.406 328.302 429.124 324.77C432.471 323.011 436.612 324.298 438.371 327.645C440.131 330.993 438.895 335.235 435.496 336.893C342.617 382.184 101.465 380.684 4.11698 336.893C0.668046 335.341 -0.517815 330.993 1.24179 327.645Z" fill="#FFE4AA"/>
<path fill-rule="evenodd" clip-rule="evenodd" d="M395.084 369.419C397.725 370.266 399.179 373.094 398.332 375.735C394.704 387.044 388.233 397.017 379.323 402.713C376.986 404.207 373.881 403.524 372.387 401.187C370.893 398.851 371.576 395.745 373.913 394.252C380.272 390.187 385.611 382.51 388.769 372.667C389.616 370.026 392.443 368.572 395.084 369.419Z" fill="white"/>
<path d="M392.681 3.84646C394.565 2.59124 398.454 0 403.387 0C406.866 0.000341199 410.091 1.26866 412.715 3.66797C419.018 9.43346 418.078 17.6378 416.427 21.8949C416.32 22.1714 416.223 22.4515 416.149 22.7386L415.22 26.3291L415.005 27.1031C413.443 32.7244 412.278 36.9146 411.641 40.052C410.217 47.0328 408.616 55.4655 407.019 65.3786C404.205 85.7881 401.214 113.636 399.568 147.662C399.39 151.346 395.975 154.014 392.303 153.658C373.841 151.869 353.902 156.83 335.682 159.987C333.494 160.366 331.313 159.439 329.817 157.798C309.037 135.013 273.586 153.265 249.247 162.314C247.675 162.898 245.941 162.747 244.409 162.064C232.545 156.775 217.376 156.777 205.516 162.064C203.984 162.747 202.25 162.898 200.679 162.312C176.155 153.165 141.167 134.537 120.104 157.795C118.613 159.44 116.43 160.369 114.25 159.948C98.5866 156.929 72.4749 149.556 54.9354 153.099C50.2496 154.045 44.4275 150.9 44.1893 146.125C42.5252 112.774 39.5738 85.4019 36.7849 65.1917C35.2183 55.4637 33.6143 47.0308 32.1939 40.0566C31.9571 38.8935 31.509 37.4874 30.9925 35.8667C30.9218 35.6448 30.8498 35.4189 30.7769 35.189C29.5064 31.184 27.7665 25.6986 26.8729 19.5082C26.9186 19.8225 25.4405 12.793 29.8082 7.35587C32.2686 4.29297 35.938 2.60621 40.1408 2.60621C41.8638 2.60621 43.7143 2.89145 45.6407 3.45409C46.3479 3.66064 47.0248 3.95949 47.654 4.34287L60.0076 11.8722C61.0111 12.4832 62.1302 12.8888 63.3371 13.0792C63.6234 13.1243 63.9142 13.1375 64.2026 13.1089C65.6835 12.9624 67.446 12.3081 68.9047 11.1628L70.8978 9.59797C75.4448 6.02502 81.1478 4.05613 86.9536 4.05613L88.7208 4.05272C94.7159 4.05272 100.567 6.13966 105.195 9.9291C106.73 11.1865 108.603 11.9011 110.613 11.9974C111.72 11.8998 113.537 11.2192 115.04 10.0304C120.083 6.04276 125.811 4.05562 131.649 4.05562L133.412 4.05357C139.378 4.05357 145.205 6.12034 149.82 9.87306C151.442 11.1922 153.305 11.9004 155.301 11.9977C156.422 11.9003 158.25 11.2136 159.757 10.0124C164.72 6.06174 170.472 4.05511 176.341 4.05511L178.105 4.05404C184.04 4.05404 189.843 6.10098 194.443 9.81779C196.157 11.2 198.008 11.9007 199.988 11.9978C201.125 11.9 202.964 11.2063 204.478 9.99184C209.355 6.08089 215.132 4.05455 221.034 4.05455H222.8C228.701 4.05455 234.478 6.08098 239.066 9.76047C240.868 11.2057 242.709 11.9001 244.675 11.9982C245.827 11.9007 247.678 11.2 249.199 9.97163C253.992 6.1006 259.794 4.05404 265.728 4.05404L267.492 4.05511C273.363 4.05511 279.115 6.06208 283.69 9.70643C285.583 11.2132 287.411 11.9004 289.361 11.9983C290.528 11.9004 292.391 11.1926 293.918 9.95094C298.629 6.12038 304.456 4.05357 310.422 4.05357L312.185 4.05562C318.022 4.05562 323.749 6.0428 328.312 9.65124C330.295 11.2186 332.114 11.8998 334.049 11.9987C335.23 11.9011 337.102 11.187 338.633 9.93222C343.266 6.13962 349.117 4.05272 355.111 4.05272L356.879 4.05613C362.683 4.05613 368.386 6.02459 372.937 9.59882L374.93 11.165C376.531 12.4222 378.504 13.0881 380.63 13.0881C381.134 13.0217 381.816 12.831 382.53 12.5307C383.011 12.3286 383.438 12.021 383.825 11.6706L391.414 4.79359C391.805 4.43866 392.23 4.12147 392.681 3.84646Z" fill="#04C078"/>
<path d="M54.5404 248.224C49.9176 247.137 44.1473 250.049 43.7728 254.783C42.5349 270.433 40.7023 287.29 38.7982 304.805L36.6194 325.092C36.2132 328.968 38.5293 332.754 42.1374 334.064C42.6205 334.24 43.1037 334.421 43.5539 334.669C44.6561 335.276 45.6125 335.768 46.3511 335.94C61.442 340.885 124.816 355.004 214.994 355.004L221.85 354.976L229.885 355.008C318.659 355.008 375.291 342.821 389.078 338.284C389.506 338.175 392.615 337.061 395.702 335.911C397.983 335.06 400.257 334.208 400.57 334.089C404.599 333.057 407.262 329.228 406.829 325.092L405.752 314.877L405.752 314.874C403.462 293.189 401.266 272.385 399.893 253.398C399.629 249.745 396.203 247.161 392.563 247.563C373.622 249.659 354.335 244.462 335.683 241.2C333.495 240.817 331.313 241.746 329.813 243.383C309.159 265.932 273.315 247.809 249.246 238.869C247.674 238.285 245.941 238.437 244.409 239.12C232.545 244.409 217.376 244.407 205.516 239.12C203.984 238.437 202.25 238.285 200.679 238.87C176.385 247.912 140.956 266.273 120.108 243.386C118.613 241.744 116.435 240.813 114.255 241.231C97.1727 244.51 72.0427 252.337 54.5404 248.224Z" fill="#04C078"/>
<path d="M377.835 262.088C377.7 260.594 376.997 259.208 375.872 258.215C374.746 257.223 373.283 256.699 371.784 256.752C370.284 256.804 368.862 257.429 367.808 258.498C366.755 259.567 366.151 260.999 366.121 262.499C366.796 280.586 368.54 298.617 371.345 316.497C371.855 320.053 372.402 323.878 372.99 328.089C373.206 329.466 373.913 330.719 374.978 331.617C376.044 332.516 377.399 333 378.793 332.98C379.057 332.98 379.32 332.963 379.582 332.93C380.331 332.85 381.056 332.621 381.716 332.258C382.375 331.895 382.956 331.404 383.424 330.814C383.892 330.224 384.239 329.547 384.443 328.822C384.647 328.098 384.705 327.339 384.613 326.592C384.021 322.369 383.473 318.531 382.961 314.966C380.216 297.456 378.504 279.799 377.835 262.088Z" fill="#0A9060"/>
<path d="M352.219 258.356C352.088 256.86 351.387 255.471 350.262 254.475C349.136 253.48 347.672 252.954 346.171 253.005C344.669 253.057 343.245 253.682 342.191 254.753C341.137 255.823 340.533 257.257 340.504 258.759C341.209 279.197 343.164 299.573 346.358 319.772C346.879 323.31 347.44 327.1 348.035 331.232C348.257 332.604 348.964 333.851 350.028 334.746C351.092 335.641 352.442 336.124 353.832 336.106C354.107 336.106 354.381 336.087 354.653 336.052C355.402 335.965 356.126 335.729 356.784 335.36C357.441 334.991 358.019 334.494 358.483 333.9C358.948 333.306 359.289 332.625 359.488 331.897C359.688 331.17 359.74 330.41 359.643 329.662C359.044 325.514 358.481 321.713 357.955 318.164C354.811 298.366 352.896 278.392 352.219 258.356Z" fill="#0A9060"/>
<path d="M322.726 254.56C321.969 254.567 321.222 254.723 320.526 255.019C319.83 255.315 319.199 255.746 318.67 256.286C318.14 256.825 317.722 257.465 317.44 258.166C317.157 258.868 317.016 259.618 317.024 260.374C317.801 288.303 321.418 306.633 324.311 334.233C324.482 335.651 325.171 336.955 326.246 337.895C327.321 338.835 328.705 339.345 330.133 339.326C330.332 339.326 330.531 339.317 330.73 339.298C331.482 339.238 332.216 339.03 332.888 338.685C333.56 338.34 334.157 337.865 334.644 337.288C335.132 336.711 335.5 336.044 335.728 335.324C335.956 334.603 336.039 333.845 335.972 333.093C333.108 305.754 329.507 287.6 328.741 260.07C328.662 258.546 327.987 257.114 326.862 256.083C325.736 255.052 324.251 254.505 322.726 254.56Z" fill="#0A9060"/>
<path d="M308.832 269.84C308.716 268.344 308.031 266.95 306.919 265.943C305.807 264.936 304.352 264.393 302.852 264.425C301.352 264.458 299.922 265.063 298.855 266.118C297.787 267.172 297.164 268.595 297.113 270.094C297.434 286.783 298.647 303.443 300.747 320.002C301.277 324.703 301.865 331.753 302.523 337.916C302.698 339.33 303.389 340.629 304.464 341.564C305.539 342.499 306.921 343.005 308.345 342.983C308.547 342.984 308.749 342.975 308.95 342.955C309.702 342.896 310.434 342.689 311.105 342.345C311.775 342.002 312.371 341.528 312.858 340.953C313.345 340.377 313.712 339.711 313.94 338.993C314.167 338.274 314.25 337.518 314.183 336.767C313.525 330.579 312.935 323.507 312.404 318.788C310.33 302.548 309.138 286.208 308.832 269.84Z" fill="#0A9060"/>
<path d="M281.834 260.421H281.694C280.939 260.424 280.191 260.577 279.494 260.87C278.798 261.163 278.165 261.59 277.634 262.127C277.103 262.665 276.682 263.302 276.397 264.002C276.112 264.702 275.968 265.451 275.973 266.207C276.554 289.905 277.816 302.845 279.908 324.283C280.261 327.917 280.641 335.984 281.047 340.228C281.208 341.654 281.894 342.97 282.971 343.918C284.048 344.867 285.44 345.381 286.875 345.361C287.057 345.361 287.238 345.361 287.422 345.339C288.174 345.286 288.909 345.084 289.583 344.746C290.258 344.408 290.859 343.939 291.351 343.368C291.844 342.796 292.218 342.132 292.453 341.415C292.687 340.698 292.777 339.942 292.718 339.189C292.311 334.938 291.933 326.86 291.576 323.224C289.441 301.31 288.263 289.24 287.69 265.94C287.626 264.438 286.978 263.021 285.884 261.99C284.79 260.959 283.337 260.396 281.834 260.421Z" fill="#0A9060"/>
<path d="M262.32 256.514C261.563 256.514 260.814 256.662 260.114 256.951C259.415 257.24 258.78 257.664 258.244 258.199C257.709 258.734 257.284 259.369 256.994 260.067C256.704 260.766 256.555 261.516 256.555 262.272C256.974 286.77 257.919 312.004 259.815 340.513C259.936 341.972 260.607 343.331 261.692 344.315C262.777 345.299 264.194 345.835 265.658 345.814C265.784 345.814 265.913 345.814 266.041 345.803C266.797 345.769 267.538 345.586 268.222 345.265C268.906 344.944 269.52 344.491 270.029 343.931C270.538 343.372 270.931 342.718 271.186 342.006C271.441 341.295 271.553 340.54 271.516 339.785C269.63 311.469 268.69 286.391 268.277 262.081C268.256 261.323 268.085 260.576 267.773 259.885C267.462 259.193 267.016 258.571 266.462 258.053C265.907 257.535 265.256 257.132 264.545 256.868C263.834 256.604 263.077 256.484 262.32 256.514Z" fill="#0A9060"/>
<path d="M244.734 250.653H244.679C243.148 250.644 241.677 251.243 240.588 252.319C239.499 253.395 238.881 254.859 238.871 256.39C239.011 271.574 239.473 310.067 240.607 340.419C240.685 341.912 241.338 343.316 242.429 344.338C243.521 345.359 244.965 345.918 246.46 345.897C246.532 345.897 246.6 345.897 246.675 345.897C247.433 345.883 248.18 345.719 248.874 345.416C249.568 345.112 250.195 344.674 250.72 344.127C251.244 343.58 251.656 342.936 251.931 342.229C252.205 341.523 252.338 340.77 252.321 340.012C251.193 309.797 250.736 271.429 250.594 256.289C250.557 254.767 249.92 253.321 248.823 252.266C247.726 251.21 246.256 250.631 244.734 250.653Z" fill="#0A9060"/>
<path d="M70.7001 254.858C69.1756 254.766 67.6768 255.283 66.5333 256.295C65.3899 257.307 64.6953 258.733 64.6025 260.257C63.7346 280.394 62.1693 295.725 59.5811 315.136C59.1017 318.726 58.5888 322.57 58.0438 326.762C57.9592 327.51 58.0241 328.268 58.2347 328.991C58.4453 329.714 58.7973 330.388 59.2704 330.974C59.7435 331.56 60.3283 332.046 60.9907 332.404C61.6532 332.762 62.3802 332.985 63.1295 333.06C63.3739 333.089 63.6198 333.104 63.866 333.104C65.2677 333.124 66.6291 332.635 67.6973 331.727C68.7655 330.819 69.4679 329.555 69.6742 328.168C70.2193 323.985 70.7308 320.155 71.2115 316.568C73.8417 296.863 75.428 281.35 76.3196 260.724C76.3376 259.969 76.2064 259.218 75.9334 258.515C75.6604 257.811 75.2509 257.168 74.7288 256.623C74.2066 256.078 73.5819 255.642 72.8906 255.339C72.1992 255.036 71.4547 254.873 70.7001 254.858Z" fill="#0A9060"/>
<path d="M96.2076 252.902C95.45 252.85 94.6897 252.949 93.9707 253.193C93.2517 253.437 92.5886 253.823 92.02 254.326C91.4515 254.83 90.9889 255.441 90.6593 256.125C90.3297 256.81 90.1397 257.553 90.1003 258.311C88.9916 282.249 86.6058 306.112 82.9532 329.796C82.8566 330.543 82.9094 331.303 83.1088 332.03C83.3081 332.758 83.65 333.438 84.1145 334.032C84.5789 334.626 85.1567 335.122 85.8143 335.491C86.4719 335.86 87.1962 336.094 87.9453 336.181C88.2171 336.218 88.4913 336.237 88.7657 336.237C90.1557 336.254 91.5057 335.772 92.5697 334.877C93.6338 333.983 94.341 332.736 94.5627 331.364C98.272 307.321 100.691 283.097 101.81 258.796C101.831 258.041 101.702 257.289 101.431 256.584C101.161 255.878 100.753 255.233 100.233 254.686C99.7122 254.138 99.0886 253.699 98.3979 253.393C97.7072 253.087 96.9628 252.92 96.2076 252.902Z" fill="#0A9060"/>
<path d="M112.744 340.665C112.946 340.683 113.144 340.692 113.342 340.692C114.768 340.713 116.15 340.206 117.225 339.27C118.299 338.333 118.99 337.033 119.165 335.618C120.143 326.369 121.173 318.239 122.171 310.377C124.05 295.165 125.101 279.863 125.317 264.537C125.324 263.782 125.183 263.033 124.901 262.333C124.618 261.633 124.201 260.996 123.672 260.457C123.143 259.919 122.513 259.49 121.818 259.195C121.123 258.901 120.376 258.746 119.622 258.74C118.101 258.686 116.619 259.229 115.493 260.253C114.367 261.277 113.687 262.702 113.598 264.221C113.39 279.194 112.368 294.144 110.535 309.006C109.529 316.926 108.487 325.115 107.502 334.483C107.437 335.234 107.52 335.99 107.749 336.709C107.978 337.427 108.346 338.093 108.834 338.667C109.321 339.242 109.918 339.715 110.589 340.057C111.26 340.4 111.993 340.607 112.744 340.665Z" fill="#0A9060"/>
<path d="M134.831 268.626C134.114 293.424 133.181 298.873 131.026 319.078C130.529 323.753 129.976 330.731 129.37 336.662C129.212 338.208 129.674 339.755 130.655 340.96C131.637 342.166 133.057 342.933 134.604 343.091C136.15 343.25 137.696 342.788 138.902 341.806C140.108 340.825 140.874 339.405 141.033 337.858C141.637 331.942 142.186 324.982 142.684 320.322C144.872 299.793 146.08 293.908 146.549 268.855C146.564 268.086 146.426 267.321 146.145 266.605C145.864 265.888 145.445 265.234 144.911 264.68C144.377 264.126 143.739 263.682 143.034 263.374C142.329 263.066 141.57 262.9 140.8 262.886C140.031 262.871 139.266 263.009 138.55 263.29C137.833 263.571 137.179 263.99 136.625 264.524C136.071 265.058 135.627 265.695 135.319 266.401C135.011 267.106 134.845 267.865 134.831 268.635V268.626Z" fill="#0A9060"/>
<path d="M161.908 256.806C160.382 256.754 158.897 257.305 157.775 258.34C156.652 259.375 155.982 260.81 155.91 262.335C155.338 285.745 154.157 301.382 152.01 323.433C151.658 327.044 151.284 333.286 150.881 337.497C150.821 338.249 150.911 339.007 151.146 339.725C151.38 340.443 151.754 341.107 152.247 341.68C152.739 342.253 153.341 342.722 154.016 343.061C154.69 343.4 155.426 343.602 156.179 343.656C156.362 343.672 156.543 343.679 156.724 343.679C158.161 343.698 159.554 343.182 160.631 342.232C161.709 341.281 162.395 339.964 162.555 338.536C162.956 334.331 163.331 328.098 163.683 324.494C165.779 302.921 167.047 286.41 167.63 262.602C167.635 261.845 167.492 261.095 167.207 260.394C166.923 259.693 166.502 259.055 165.971 258.517C165.439 257.979 164.807 257.551 164.11 257.257C163.413 256.963 162.664 256.81 161.908 256.806Z" fill="#0A9060"/>
<path d="M178.229 256.689C177.861 283.982 176.884 311.79 174.894 341.706C174.856 342.462 174.968 343.217 175.222 343.929C175.477 344.642 175.87 345.296 176.379 345.856C176.888 346.416 177.502 346.87 178.187 347.192C178.871 347.513 179.613 347.697 180.368 347.731C180.498 347.738 180.624 347.742 180.751 347.742C182.217 347.762 183.636 347.225 184.72 346.239C185.805 345.254 186.476 343.893 186.596 342.432C188.597 312.319 189.581 284.39 189.95 256.834C189.891 255.332 189.257 253.909 188.179 252.86C187.102 251.81 185.663 251.215 184.159 251.196C182.655 251.177 181.201 251.736 180.097 252.757C178.994 253.779 178.324 255.185 178.227 256.686L178.229 256.689Z" fill="#0A9060"/>
<path d="M223.96 252.603C222.441 252.581 220.975 253.158 219.879 254.209C218.782 255.26 218.144 256.7 218.102 258.218L218.37 340.921C218.373 341.679 218.525 342.429 218.817 343.127C219.11 343.826 219.538 344.461 220.076 344.994C220.614 345.527 221.252 345.95 221.953 346.236C222.654 346.523 223.405 346.669 224.163 346.665H224.233C225.751 346.688 227.218 346.111 228.315 345.061C229.411 344.01 230.05 342.569 230.092 341.051L229.826 258.348C229.819 256.818 229.205 255.353 228.119 254.276C227.033 253.198 225.563 252.596 224.033 252.602L223.96 252.603Z" fill="#0A9060"/>
<path d="M204.068 250.651C202.544 250.628 201.073 251.209 199.975 252.266C198.877 253.323 198.242 254.772 198.207 256.295C197.992 285.964 197.389 314.731 196.419 340.678C196.402 341.436 196.535 342.189 196.81 342.896C197.084 343.602 197.496 344.247 198.021 344.794C198.545 345.341 199.172 345.779 199.866 346.083C200.561 346.387 201.308 346.551 202.066 346.566C202.138 346.566 202.205 346.566 202.281 346.566C203.775 346.586 205.219 346.027 206.311 345.005C207.402 343.984 208.055 342.58 208.134 341.088C208.237 338.326 208.336 336.779 208.448 333.45C209.232 310.251 209.735 282.998 209.93 256.371C209.924 255.612 209.769 254.862 209.473 254.164C209.178 253.465 208.747 252.832 208.206 252.3C207.666 251.767 207.026 251.347 206.323 251.062C205.62 250.778 204.867 250.635 204.109 250.641L204.068 250.651Z" fill="#0A9060"/>
<path d="M371.915 145.785C371.978 145.785 372.038 145.785 372.099 145.785C373.624 145.783 375.087 145.189 376.181 144.128C377.275 143.067 377.913 141.622 377.961 140.098C380.142 69.5023 386.163 36.0379 386.251 35.7444C386.679 34.265 386.508 32.6766 385.776 31.3219C385.043 29.9672 383.807 28.9546 382.335 28.5026C380.863 28.0506 379.272 28.1954 377.905 28.9057C376.539 29.6159 375.506 30.8348 375.03 32.2995C374.647 33.5475 368.47 67.2382 366.226 139.733C366.201 140.504 366.329 141.273 366.602 141.994C366.875 142.716 367.287 143.376 367.816 143.938C368.344 144.5 368.978 144.953 369.682 145.27C370.385 145.586 371.144 145.761 371.915 145.785Z" fill="#0A9060"/>
<path d="M349.065 147.557H349.204C350.737 147.557 352.209 146.958 353.306 145.887C354.403 144.817 355.038 143.359 355.074 141.827C356.919 63.9384 364.941 22.1712 365.087 21.5983C365.295 20.8472 365.351 20.0623 365.252 19.2893C365.154 18.5164 364.902 17.7708 364.512 17.0962C364.122 16.4215 363.601 15.8313 362.981 15.3599C362.36 14.8885 361.652 14.5453 360.898 14.3505C360.143 14.1557 359.358 14.113 358.586 14.225C357.815 14.337 357.074 14.6015 356.406 15.0029C355.738 15.4044 355.157 15.9348 354.696 16.5633C354.235 17.1917 353.905 17.9057 353.723 18.6634C353.319 20.2328 345.23 61.8827 343.342 141.544C343.303 143.101 343.885 144.608 344.958 145.736C346.031 146.863 347.508 147.518 349.065 147.557Z" fill="#0A9060"/>
<path d="M325.857 147.925H325.969C327.507 147.925 328.983 147.322 330.081 146.245C331.179 145.168 331.81 143.703 331.839 142.165C333.112 73.8321 339.955 36.9172 340.012 36.6195C340.262 35.1086 339.912 33.5597 339.036 32.3035C338.16 31.0472 336.828 30.1831 335.323 29.8955C333.819 29.6079 332.262 29.9196 330.984 30.764C329.707 31.6085 328.81 32.9189 328.485 34.4155C328.247 35.6621 321.402 72.4052 320.106 141.947C320.078 143.502 320.667 145.005 321.745 146.126C322.824 147.246 324.303 147.893 325.857 147.925Z" fill="#0A9060"/>
<path d="M304.069 140.284H304.22C305.751 140.284 307.222 139.686 308.319 138.618C309.415 137.549 310.051 136.094 310.09 134.564C311.996 59.68 318.962 25.3059 319.034 24.9677C319.318 23.4574 318.997 21.8963 318.142 20.6195C317.287 19.3428 315.966 18.4521 314.462 18.1389C312.957 17.8257 311.39 18.1148 310.097 18.9443C308.803 19.7737 307.887 21.0773 307.543 22.5751C307.246 23.9908 300.293 58.1231 298.357 134.266C298.318 135.821 298.897 137.329 299.968 138.457C301.039 139.585 302.514 140.242 304.069 140.284Z" fill="#0A9060"/>
<path d="M283.185 138.33H283.308C284.844 138.33 286.318 137.729 287.416 136.654C288.513 135.58 289.146 134.119 289.178 132.583C290.52 67.0647 294.932 40.0905 294.983 39.8614C295.303 38.3485 295.012 36.7707 294.175 35.4708C293.338 34.1709 292.021 33.2538 290.512 32.9188C289.002 32.5837 287.422 32.8578 286.113 33.6815C284.805 34.5052 283.874 35.8119 283.523 37.3178C283.308 38.2779 278.815 65.2828 277.443 132.34C277.41 133.896 277.997 135.401 279.074 136.524C280.151 137.647 281.63 138.297 283.185 138.33Z" fill="#0A9060"/>
<path d="M261.875 144.015H262.003C263.539 144.015 265.013 143.414 266.11 142.34C267.208 141.266 267.84 139.805 267.873 138.269C269.462 62.6437 274.613 26.0181 274.665 25.6757C274.81 24.901 274.798 24.105 274.63 23.3351C274.461 22.5652 274.139 21.8371 273.682 21.1944C273.226 20.5517 272.645 20.0075 271.974 19.5942C271.303 19.1809 270.555 18.9071 269.776 18.7889C268.996 18.6708 268.201 18.7109 267.438 18.9067C266.674 19.1025 265.958 19.4501 265.332 19.9288C264.706 20.4074 264.182 21.0073 263.793 21.6926C263.403 22.3779 263.156 23.1346 263.065 23.9176C262.85 25.3417 257.755 61.4908 256.142 138.023C256.109 139.578 256.695 141.081 257.769 142.205C258.844 143.328 260.32 143.979 261.875 144.015Z" fill="#0A9060"/>
<path d="M242.858 149.719H242.964C244.503 149.72 245.981 149.115 247.078 148.037C248.176 146.958 248.807 145.492 248.834 143.953C249.763 91.0557 251.422 41.6369 251.44 41.2162C251.473 39.6783 250.901 38.189 249.847 37.0686C248.793 35.9482 247.342 35.2863 245.805 35.2253C244.268 35.1643 242.768 35.7091 241.629 36.7425C240.489 37.7758 239.801 39.2152 239.712 40.7508C239.697 41.1701 238.035 90.7133 237.099 143.75C237.072 145.305 237.664 146.807 238.743 147.926C239.823 149.045 241.303 149.69 242.858 149.719Z" fill="#0A9060"/>
<path d="M65.1772 140.091C65.2209 141.617 65.8576 143.067 66.9522 144.131C68.0468 145.196 69.5132 145.792 71.0401 145.793H71.2105C72.7665 145.749 74.2411 145.088 75.3102 143.957C76.3792 142.826 76.9551 141.316 76.9111 139.76C74.8148 66.1593 67.2933 33.5306 66.8977 32.3301C66.3877 30.8836 65.3317 29.6941 63.9558 29.0163C62.5798 28.3385 60.9932 28.2262 59.5355 28.7035C58.0778 29.1807 56.8649 30.2096 56.1563 31.5699C55.4476 32.9302 55.2995 34.5139 55.7438 35.982C55.8332 36.2531 63.1452 68.577 65.1772 140.091Z" fill="#0A9060"/>
<path d="M90.659 143.596C90.6955 145.128 91.3301 146.586 92.4269 147.656C93.5238 148.727 94.9958 149.326 96.5287 149.326H96.6686C98.224 149.289 99.7011 148.637 100.776 147.511C101.85 146.386 102.434 144.88 102.398 143.325C100.548 63.2996 90.9651 18.8812 90.5584 17.33C90.1411 15.8495 89.1594 14.5921 87.8245 13.8281C86.4896 13.0641 84.908 12.8546 83.4201 13.2447C81.9323 13.6347 80.6571 14.5932 79.8688 15.9139C79.0804 17.2346 78.8419 18.812 79.2046 20.3067C79.2955 20.6771 88.845 65.1793 90.659 143.596Z" fill="#0A9060"/>
<path d="M114.306 138.744C114.338 140.279 114.971 141.74 116.068 142.814C117.166 143.888 118.64 144.489 120.175 144.489H120.303C121.858 144.455 123.337 143.805 124.413 142.682C125.49 141.558 126.076 140.053 126.044 138.498C124.624 70.943 117.988 38.394 117.758 37.0747C117.457 35.574 116.581 34.2503 115.318 33.3857C114.055 32.521 112.505 32.1839 110.997 32.4462C109.489 32.7085 108.143 33.5494 107.246 34.7897C106.349 36.03 105.972 37.5716 106.196 39.0858C106.239 39.4017 112.9 72.2343 114.306 138.744Z" fill="#0A9060"/>
<path d="M135.214 129.251C135.254 130.781 135.89 132.235 136.986 133.303C138.083 134.371 139.553 134.969 141.084 134.968H141.235C142.791 134.928 144.267 134.272 145.339 133.144C146.412 132.015 146.992 130.507 146.952 128.952C145.01 52.8744 138.065 24.117 137.769 22.7055C137.631 21.9329 137.339 21.1958 136.911 20.5379C136.483 19.88 135.927 19.3146 135.277 18.8752C134.627 18.4358 133.895 18.1313 133.125 17.9797C132.354 17.8281 131.562 17.8325 130.793 17.9926C130.025 18.1527 129.297 18.4653 128.651 18.9119C128.006 19.3585 127.456 19.93 127.036 20.5926C126.615 21.2552 126.331 21.9955 126.202 22.7696C126.072 23.5437 126.099 24.336 126.281 25.0995C126.342 25.4335 133.3 54.2231 135.214 129.251Z" fill="#0A9060"/>
<path d="M156.165 136.127C156.198 137.663 156.83 139.124 157.927 140.198C159.025 141.273 160.499 141.874 162.035 141.874H162.158C163.714 141.841 165.194 141.192 166.271 140.069C167.349 138.945 167.936 137.44 167.903 135.884C166.527 68.8925 163.254 38.3993 163.041 37.4392C162.703 35.9195 161.775 34.5964 160.462 33.7608C159.148 32.9253 157.557 32.6458 156.037 32.9838C154.517 33.3219 153.194 34.2497 152.359 35.5633C151.523 36.8769 151.243 38.4687 151.581 39.9883C151.629 40.2105 154.82 70.6758 156.165 136.127Z" fill="#0A9060"/>
<path d="M178.391 141.822C178.428 143.354 179.062 144.812 180.159 145.882C181.256 146.953 182.728 147.552 184.261 147.552H184.401C185.956 147.515 187.433 146.863 188.507 145.738C189.582 144.613 190.165 143.108 190.131 141.552C188.437 67.0223 183.51 25.6045 183.302 24.1049C183.059 22.5884 182.232 21.2276 180.997 20.3144C179.762 19.4012 178.218 19.0084 176.697 19.2202C175.176 19.4319 173.798 20.2314 172.86 21.4472C171.922 22.663 171.497 24.1981 171.677 25.7233C171.721 26.088 176.714 68.0872 178.391 141.822Z" fill="#0A9060"/>
<path d="M222.386 146.707H222.46C224.004 146.707 225.485 146.099 226.584 145.015C227.683 143.93 228.31 142.456 228.33 140.913L229.711 28.2072C229.73 26.6505 229.13 25.1498 228.043 24.0352C226.956 22.9207 225.471 22.2836 223.914 22.2641C222.357 22.2447 220.857 22.8444 219.742 23.9315C218.628 25.0185 217.991 26.5037 217.971 28.0605L216.59 140.766C216.571 142.322 217.171 143.822 218.258 144.937C219.345 146.051 220.83 146.687 222.386 146.707Z" fill="#0A9060"/>
<path d="M203.331 150.941H203.437C204.994 150.914 206.475 150.269 207.556 149.15C208.637 148.03 209.229 146.527 209.202 144.971C208.269 91.9365 206.604 38.7443 206.589 38.325C206.5 36.7894 205.812 35.3501 204.672 34.3167C203.533 33.2833 202.033 32.7386 200.496 32.7995C198.959 32.8605 197.508 33.5224 196.454 34.6428C195.4 35.7632 194.828 37.2526 194.861 38.7904C194.877 39.2097 196.538 92.2789 197.466 145.176C197.493 146.714 198.123 148.18 199.22 149.258C200.317 150.336 201.793 150.94 203.331 150.941Z" fill="#0A9060"/>
<path d="M108.404 169.378C109.341 168.112 108.683 166.229 107.123 166.01C97.0441 164.592 83.7701 163.997 74.4558 164.234H70.0033C67.4448 164.159 64.8967 164.6 62.507 165.53C60.1173 166.461 57.9333 167.863 56.0808 169.656C54.2283 171.449 52.744 173.597 51.7143 175.976C50.6847 178.355 50.13 180.917 50.082 183.515V217.864C50.1301 220.462 50.685 223.026 51.7143 225.406C52.7437 227.786 54.2269 229.936 56.0791 231.731C57.9313 233.526 60.1154 234.93 62.5053 235.863C64.8952 236.797 67.4437 237.24 70.0033 237.168H74.4326C83.4104 237.387 96.3563 236.842 106.106 235.542C107.632 235.338 108.323 233.526 107.484 232.234C97.9701 217.584 98.9377 193.219 102.553 181.006C103.695 177.162 105.672 173.068 108.404 169.378Z" fill="#CC362A"/>
<path d="M337.76 169.378C336.823 168.112 337.481 166.229 339.041 166.01C349.12 164.592 362.394 163.997 371.708 164.234H376.161C378.719 164.159 381.267 164.6 383.657 165.53C386.047 166.461 388.231 167.863 390.083 169.656C391.936 171.449 393.42 173.597 394.45 175.976C395.479 178.355 396.034 180.917 396.082 183.515V217.864C396.034 220.462 395.479 223.026 394.45 225.406C393.42 227.786 391.937 229.936 390.085 231.731C388.233 233.526 386.049 234.93 383.659 235.863C381.269 236.797 378.72 237.24 376.161 237.168H371.731C362.754 237.387 349.808 236.842 340.059 235.542C338.532 235.338 337.841 233.526 338.68 232.234C348.194 217.584 347.226 193.219 343.611 181.006C342.469 177.162 340.492 173.068 337.76 169.378Z" fill="#CC362A"/>
<path d="M177.625 200.184C177.625 189.491 181.696 179.731 188.4 172.317C189.409 171.201 189.005 169.367 187.581 168.881L158.288 158.868C138.119 151.914 124.546 167.909 120.655 181.006C114.747 200.965 115.91 253.377 158.336 242.807L188.491 232.465C189.94 231.969 190.324 230.082 189.263 228.977C182.047 221.458 177.625 211.328 177.625 200.184Z" fill="#CC362A"/>
<path d="M269.273 200.184C269.273 189.491 265.202 179.731 258.498 172.317C257.49 171.201 257.894 169.367 259.317 168.881L288.61 158.868C308.779 151.914 322.352 167.909 326.244 181.006C332.152 200.965 330.989 253.377 288.563 242.807L258.408 232.465C256.959 231.969 256.575 230.082 257.635 228.977C264.851 221.458 269.273 211.328 269.273 200.184Z" fill="#CC362A"/>
<path d="M256.082 200.684C256.082 218.633 241.531 233.184 223.582 233.184C205.633 233.184 191.082 218.633 191.082 200.684C191.082 182.734 205.633 168.184 223.582 168.184C241.531 168.184 256.082 182.734 256.082 200.684Z" fill="#CC362A"/>
<path d="M177.581 168.88C179.005 169.366 179.409 171.2 178.4 172.316C171.696 179.73 167.625 189.49 167.625 200.183C167.625 211.327 172.047 221.457 179.263 228.976C180.324 230.081 179.94 231.967 178.491 232.464L148.336 242.806C146.598 243.239 144.93 243.566 143.329 243.794C143.137 243.821 142.935 243.819 142.743 243.786C115.722 239.23 115.58 198.147 120.655 181.005C123.494 171.45 131.485 160.354 143.43 157.75C143.682 157.695 143.944 157.693 144.196 157.744C145.528 158.014 146.892 158.386 148.288 158.867L177.581 168.88Z" fill="#F15D51"/>
<path d="M72.9654 237.167H70.0033C67.4437 237.239 64.8952 236.796 62.5053 235.862C60.1154 234.929 57.9313 233.524 56.0791 231.73C54.2269 229.935 52.7437 227.785 51.7143 225.405C50.685 223.025 50.1301 220.461 50.082 217.862V183.514C50.13 180.916 50.6847 178.354 51.7143 175.975C52.744 173.596 54.2283 171.448 56.0808 169.655C57.9333 167.862 60.1173 166.46 62.507 165.529C64.8967 164.598 67.4448 164.158 70.0033 164.233H73.2197C81.0769 164.402 89.9157 164.995 97.1219 166.008C98.6815 166.228 99.3412 168.111 98.4039 169.377C95.6716 173.067 93.6953 177.161 92.5531 181.005C88.9377 193.218 87.9701 217.583 97.4843 232.233C98.3231 233.525 97.6306 235.337 96.1041 235.541C89.1506 236.468 80.5713 237.011 72.9654 237.167Z" fill="#F15D51"/>
<path d="M362.944 164.233C355.087 164.402 346.248 164.995 339.042 166.008C337.483 166.228 336.823 168.111 337.76 169.377C340.492 173.067 342.469 177.161 343.611 181.005C347.226 193.218 348.194 217.583 338.68 232.233C337.841 233.525 338.533 235.337 340.06 235.541C347.013 236.468 355.593 237.011 363.199 237.167H366.161C368.72 237.239 371.269 236.796 373.659 235.862C376.049 234.929 378.233 233.524 380.085 231.73C381.937 229.935 383.42 227.785 384.45 225.405C385.479 223.025 386.034 220.461 386.082 217.862V183.514C386.034 180.916 385.479 178.354 384.45 175.975C383.42 173.596 381.936 171.448 380.083 169.655C378.231 167.862 376.047 166.46 373.657 165.529C371.267 164.598 368.719 164.158 366.161 164.233H362.944Z" fill="#F15D51"/>
<path d="M293.469 157.75C293.217 157.695 292.955 157.693 292.702 157.744C291.37 158.014 290.006 158.386 288.61 158.867L259.317 168.88C257.894 169.366 257.49 171.2 258.498 172.316C265.202 179.73 269.273 189.49 269.273 200.183C269.273 211.327 264.851 221.457 257.635 228.976C256.575 230.081 256.959 231.967 258.408 232.464L288.563 242.806C290.3 243.239 291.968 243.566 293.569 243.794C293.762 243.821 293.963 243.819 294.155 243.786C321.176 239.23 321.318 198.147 316.244 181.005C313.405 171.45 305.414 160.354 293.469 157.75Z" fill="#F15D51"/>
<path d="M218.276 232.752C218.478 232.785 218.686 232.785 218.888 232.752C234.313 230.219 246.082 216.825 246.082 200.683C246.082 184.54 234.313 171.146 218.888 168.613C218.686 168.58 218.478 168.58 218.276 168.613C202.851 171.146 191.082 184.54 191.082 200.683C191.082 216.825 202.851 230.219 218.276 232.752Z" fill="#F15D51"/>
</svg>
