<svg width="475" height="201" viewBox="0 0 475 201" fill="none" xmlns="http://www.w3.org/2000/svg">
<path d="M470.643 84.5703C471.336 79.6993 472.969 52.2549 474.085 48.0695C474.046 48.0902 474.006 48.1108 473.966 48.1315C474.006 47.9425 474.046 47.7534 474.085 47.5645C426.999 69.6924 332.983 83.8238 237.986 85.0163C142.989 83.8238 48.9729 69.6924 1.88672 47.5645C1.92639 47.7534 1.96609 47.9425 2.00581 48.1315C1.96609 48.1108 1.92639 48.0902 1.88672 48.0695C3.00303 52.2549 2.88121 79.6993 3.57352 84.5702C4.0666 88.0394 4.52757 91.2826 5.06389 93.7307C7.98367 107.058 10.5469 118.758 18.3615 136.334C45.4074 197.164 113.989 198.394 173.431 200C178.031 200.124 182.546 200.255 186.978 200.393C200.519 200.843 214.357 201.048 228.266 200.989C231.213 201.002 234.161 201.003 237.109 200.991C240.056 201.003 243.004 201.002 245.951 200.989C259.86 201.048 273.698 200.843 287.239 200.393C291.67 200.255 296.186 200.124 300.786 200C360.228 198.394 428.809 197.164 455.855 136.334C463.67 118.758 466.233 107.058 469.153 93.731C469.689 91.283 470.15 88.0394 470.643 84.5703Z" fill="#F2C45F"/>
<path d="M0.0678529 45.3288L0.0642114 45.3115L0 45C0 45 29.9874 62.9196 81.5 71C62 121.5 75.7904 178.247 99.9942 192.666C34.3135 180.167 4.5 139.236 0.0678529 45.3288Z" fill="#F2AE5F"/>
<path d="M245.167 0C177.984 0 114.913 5.50437 67.5602 15.4957L67.5588 15.4971C12.1389 27.1965 0.00425728 40.7182 0 44.9451C0.000397997 45.0851 0.0127445 45.2248 0.0368978 45.3627C0.0496573 45.4142 0.0622898 45.466 0.0749477 45.518C0.104523 45.6392 0.134238 45.7611 0.166039 45.8815C1.75684 50.9147 15.7264 63.4523 67.556 74.393C114.91 84.3902 177.981 89.8945 245.16 89.8945C312.338 89.8945 375.413 84.3902 422.764 74.393C426.016 73.7064 429.12 73.0135 432.08 72.3166C464.135 62.6446 474.144 55.6617 473.699 48.1946C473.16 39.1455 462.941 28.975 408.627 14.7813C399.036 12.2755 388.786 10.0023 377.979 7.9725C338.56 2.77879 292.902 0 245.167 0Z" fill="#BD5002"/>
<path d="M472.475 62.721C468.743 66.1128 463.871 69.1553 458.23 71.9127C445.527 78.1219 427.566 83.5342 405.9 88.0136C362.462 96.9945 302.75 102.5 237 102.5C171.25 102.5 111.538 96.9945 68.0996 88.0136C46.4341 83.5342 28.4727 78.1219 15.7701 71.9127C10.7667 69.4669 4.9809 66.7969 1.44672 63.8576C1 59.5 0 45.5645 0 45.5645C8.11328 54 13.46 56.3135 21.4791 60.2333C32.7623 65.7487 49.5087 70.895 70.7317 75.2828C113.071 84.0365 171.859 89.5 237 89.5C302.141 89.5 360.929 84.0365 403.268 75.2828C429.767 69.8042 457.5 60.5 474 49.0695C474 49.0695 473.03 55.9662 472.475 62.721Z" fill="#D3954B"/>
<path d="M161.608 3.0293C126.275 5.61051 93.9279 9.89804 66.799 15.6937L66.7976 15.6951C12.0021 27.4072 0.00420931 40.9435 0 45.1749C0.000393512 45.3151 0.012601 45.455 0.0364821 45.593C0.049095 45.6446 0.0615823 45.6964 0.0740949 45.7484C0.103341 45.8698 0.132724 45.9918 0.164169 46.1124C9.59548 62.6223 59.0289 72.9127 79.794 76.763C95.1761 34.192 134.328 13.0743 161.608 3.0293Z" fill="#AE4202"/>
<path d="M74.2502 93.6631C74.5678 93.7237 74.8861 93.784 75.2049 93.8441C74.9849 94.016 74.6567 93.9329 74.2502 93.6631Z" fill="#AE4202"/>
<path fill-rule="evenodd" clip-rule="evenodd" d="M432.288 113.714C435.59 114.265 437.82 117.387 437.27 120.688C435.097 133.725 429.572 145.801 420.615 153.563C418.086 155.755 414.259 155.482 412.067 152.953C409.875 150.423 410.148 146.596 412.677 144.404C418.871 139.036 423.447 129.9 425.314 118.696C425.864 115.394 428.987 113.164 432.288 113.714Z" fill="#FEFCFF"/>
<path d="M77.6371 28.3866C87.4952 26.4798 97.6268 26.4727 107.488 28.3655C115.303 29.8636 123.323 29.9568 131.171 28.6405L131.178 28.6393L134.525 28.0692C137.825 27.5073 140.955 29.7266 141.517 33.0261C142.079 36.3256 139.86 39.4559 136.56 40.0178L133.198 40.5904L133.184 40.5928C123.913 42.1487 114.438 42.0392 105.206 40.2693L105.204 40.269C96.858 38.6668 88.2827 38.6728 79.9389 40.2867C76.6528 40.9223 73.4736 38.7736 72.838 35.4875C72.2024 32.2014 74.351 29.0222 77.6371 28.3866Z" fill="#973F00"/>
<path d="M230.714 28.3655C220.853 26.4727 210.721 26.4798 200.863 28.3866C197.577 29.0222 195.429 32.2014 196.064 35.4875C196.7 38.7736 199.879 40.9223 203.165 40.2867C211.509 38.6728 220.084 38.6668 228.43 40.269L228.432 40.2693C237.665 42.0392 247.139 42.1487 256.41 40.5928L256.424 40.5904L259.786 40.0178C263.086 39.4559 265.305 36.3256 264.743 33.0261C264.181 29.7266 261.051 27.5073 257.752 28.0692L254.404 28.6393L254.397 28.6405C246.549 29.9568 238.529 29.8636 230.714 28.3655Z" fill="#973F00"/>
<path d="M171.121 58.9866C161.26 57.0938 151.128 57.1009 141.27 59.0077C137.984 59.6433 135.836 62.8225 136.471 66.1086C137.107 69.3947 140.286 71.5434 143.572 70.9078C151.916 69.2939 160.491 69.2879 168.837 70.8901L168.839 70.8904C178.072 72.6603 187.546 72.7698 196.817 71.2139L196.831 71.2114L200.193 70.6389C203.493 70.077 205.712 66.9467 205.15 63.6472C204.588 60.3477 201.458 58.1284 198.159 58.6903L194.811 59.2604L194.804 59.2616C186.956 60.5779 178.936 60.4847 171.121 58.9866Z" fill="#973F00"/>
<path d="M233.185 59.0077C243.043 57.1009 253.175 57.0938 263.035 58.9866C270.851 60.4847 278.87 60.5779 286.718 59.2616L286.725 59.2604L286.888 59.2327C287.159 59.1391 287.439 59.0636 287.728 59.0077C297.586 57.1009 307.717 57.0938 317.578 58.9866C325.393 60.4847 333.413 60.5779 341.261 59.2616L341.268 59.2604L344.616 58.6903C347.915 58.1284 351.046 60.3477 351.608 63.6472C352.169 66.9467 349.95 70.077 346.651 70.6389L343.289 71.2114L343.274 71.2139C334.003 72.7698 324.529 72.6603 315.296 70.8904L315.295 70.8901C307.961 69.4823 300.451 69.3161 293.077 70.3912C292.766 70.4985 292.443 70.5819 292.108 70.6389L288.746 71.2114L288.732 71.2139C279.46 72.7698 269.986 72.6603 260.753 70.8904L260.752 70.8901C252.406 69.2879 243.83 69.2939 235.487 70.9078C232.201 71.5434 229.021 69.3947 228.386 66.1086C227.75 62.8225 229.899 59.6433 233.185 59.0077Z" fill="#973F00"/>
<path d="M357.98 28.3655C348.119 26.4727 337.988 26.4798 328.13 28.3866C324.843 29.0222 322.695 32.2014 323.33 35.4875C323.966 38.7736 327.145 40.9223 330.431 40.2867C338.775 38.6728 347.35 38.6668 355.697 40.269L355.698 40.2693C364.931 42.0392 374.405 42.1487 383.676 40.5928L383.691 40.5904L387.053 40.0178C390.352 39.4559 392.572 36.3256 392.01 33.0261C391.448 29.7266 388.317 27.5073 385.018 28.0692L381.67 28.6393L381.663 28.6405C373.815 29.9568 365.795 29.8636 357.98 28.3655Z" fill="#973F00"/>
</svg>
