<svg width="460" height="415" viewBox="0 0 460 415" fill="none" xmlns="http://www.w3.org/2000/svg">
<path d="M229.998 1.2372C222.512 0.4124 214.96 0 207.378 0C152.378 0 99.6314 21.8498 60.7406 60.7406C21.8498 99.6315 0 152.374 0 207.378C0 248.397 12.1621 288.489 34.9509 322.593C57.736 356.697 90.1241 383.274 128.017 398.968C160.332 412.356 195.415 417.312 229.99 413.52C210.593 411.391 191.49 406.516 173.263 398.968C135.37 383.274 102.982 356.697 80.1971 322.593C57.4083 288.489 45.2462 248.397 45.2462 207.378C45.2462 152.374 67.096 99.6315 105.987 60.7406C139.505 27.2184 183.319 6.36274 229.998 1.2372Z" fill="#FFC048"/>
<path d="M252.621 0.00390625C293.637 0.00390625 333.731 12.1664 367.835 34.9534C401.938 57.7405 428.518 90.1285 444.214 128.022C459.91 165.915 464.017 207.612 456.015 247.84C448.013 288.067 428.262 325.018 399.26 354.021C370.258 383.023 333.306 402.774 293.079 410.776C252.851 418.777 211.155 414.671 173.261 398.975C135.368 383.279 102.98 356.699 80.1927 322.595C57.4057 288.492 45.2432 248.398 45.2432 207.382C45.2432 152.382 67.0919 99.6346 105.983 60.7436C144.874 21.8526 197.621 0.00390625 252.621 0.00390625V0.00390625Z" fill="#FFDB5D"/>
<path d="M229.995 1.2372C222.509 0.4124 214.957 0 207.376 0C174.329 0 142.095 7.88715 113.19 22.6231L158.436 22.6231C180.699 11.2747 204.935 3.98408 229.995 1.2372Z" fill="#FFD473"/>
<path d="M133.387 37.7052L88.1407 37.7052C78.4235 44.5318 69.2513 52.2275 60.7381 60.7406C58.4884 62.9941 56.2901 65.2918 54.1545 67.6336L99.4007 67.6336C101.536 65.2918 103.731 62.9941 105.984 60.7406C114.497 52.2275 123.67 44.5318 133.387 37.7052Z" fill="#FFD473"/>
<path d="M86.8961 82.7157H41.6499C34.536 92.1714 28.269 102.187 22.9004 112.644H68.1466C73.5152 102.187 79.7822 92.1714 86.8961 82.7157Z" fill="#FFD473"/>
<path d="M61.1505 127.726H15.9044C11.8724 137.425 8.57321 147.433 6.04726 157.655H51.2934C53.8194 147.426 57.1149 137.425 61.1505 127.726Z" fill="#FFD473"/>
<path d="M48.1563 172.737H2.91376C1.24575 182.575 0.281027 192.576 0.0527344 202.665H43.3584C44.0249 202.665 44.673 202.754 45.2879 202.916C45.5051 192.746 46.4772 182.656 48.1563 172.737Z" fill="#FFD473"/>
<path d="M45.4683 217.445C44.7981 217.637 44.0912 217.747 43.3584 217.747H0.258934C0.520367 222.983 0.980635 228.205 1.63606 233.389C2.24361 238.183 3.01318 242.948 3.95212 247.676H49.1946C47.2247 237.734 45.9617 227.63 45.4683 217.445Z" fill="#FFD473"/>
<path d="M52.7737 262.758H7.53117C10.3664 272.987 13.9823 282.995 18.3567 292.686H63.6028C59.2285 282.995 55.6089 272.987 52.7737 262.758Z" fill="#FFD473"/>
<path d="M71.1623 307.768H25.9161C28.7109 312.82 31.7229 317.769 34.9484 322.593C38.4317 327.807 42.1433 332.844 46.0611 337.697H91.3036C87.3858 332.844 83.6779 327.807 80.1946 322.593C76.969 317.769 73.957 312.82 71.1623 307.768Z" fill="#FFD473"/>
<path d="M104.754 352.779H59.512C70.6873 364.149 83.144 374.187 96.628 382.707H141.874C128.39 374.187 115.933 364.149 104.754 352.779Z" fill="#FFD473"/>
<path d="M170.473 397.789H125.224C126.151 398.187 127.083 398.585 128.018 398.968C160.333 412.356 195.416 417.312 229.992 413.52C210.594 411.391 191.487 406.516 173.261 398.968C172.329 398.585 171.398 398.187 170.473 397.789Z" fill="#FFD473"/>
<path d="M253.569 41.4785C286.568 41.4785 318.826 51.2638 346.263 69.597C373.701 87.9302 395.086 113.988 407.714 144.475C420.342 174.962 423.646 208.509 417.208 240.874C410.771 273.238 394.88 302.967 371.546 326.301C348.213 349.635 318.484 365.525 286.119 371.963C253.754 378.401 220.207 375.097 189.72 362.469C159.233 349.841 133.175 328.456 114.842 301.018C96.5089 273.58 86.7236 241.323 86.7236 208.324C86.7236 164.074 104.302 121.636 135.591 90.3464C166.881 59.0568 209.319 41.4785 253.569 41.4785V41.4785Z" fill="white"/>
<path d="M264.878 41.4785C234.117 41.4785 204.046 51.2638 178.468 69.597C152.891 87.9302 132.956 113.988 121.184 144.475C109.412 174.962 106.332 208.509 112.333 240.874C118.335 273.238 133.148 302.967 154.899 326.301C176.651 349.635 204.365 365.525 234.535 371.963C264.706 378.401 295.979 375.097 324.399 362.469C352.819 349.841 377.11 328.456 394.2 301.018C411.29 273.58 420.412 241.323 420.412 208.324C420.412 164.074 404.026 121.636 374.857 90.3464C345.689 59.0568 306.129 41.4785 264.878 41.4785V41.4785Z" fill="#EDA73D"/>
<path d="M246.024 41.4785C214.517 41.4785 183.717 51.2638 157.519 69.597C131.322 87.9302 110.903 113.988 98.846 144.475C86.7886 174.962 83.6339 208.509 89.7807 240.874C95.9275 273.238 111.1 302.967 133.379 326.301C155.658 349.635 184.043 365.525 214.945 371.963C245.847 378.401 277.878 375.097 306.987 362.469C336.096 349.841 360.976 328.456 378.481 301.018C395.985 273.58 405.328 241.323 405.328 208.324C405.328 164.074 388.544 121.636 358.669 90.3464C328.794 59.0568 288.274 41.4785 246.024 41.4785V41.4785Z" fill="#FDC251"/>
<path fill-rule="evenodd" clip-rule="evenodd" d="M183.98 305.307L223.147 301.776L223.45 296.623C223.901 288.964 224.126 281.375 224.126 273.859C224.126 262.2 223.556 248.099 222.425 231.579C223.473 231.658 224.484 231.699 225.456 231.699C247.582 231.699 264.569 225.106 274.379 210.391C280.939 200.55 283.818 186.898 283.818 170.231C283.818 157.268 282.044 145.55 278.371 135.169L276.222 129.096L236.568 146.444L238.767 151.852C244.006 164.737 246.418 174.594 246.532 181.693C246.176 182.069 245.387 182.709 243.86 183.508C241.038 184.844 236.41 185.763 229.451 185.763C224.743 185.763 221.743 184.915 219.912 183.804C218.278 182.812 217.191 181.389 216.644 179.066L216.603 178.89L216.551 178.717C216.552 178.721 216.551 178.717 216.547 178.701C216.531 178.64 216.475 178.421 216.366 177.952C216.242 177.423 216.078 176.696 215.872 175.764C215.462 173.902 214.897 171.276 214.177 167.879C212.738 161.089 210.687 151.262 208.025 138.395L206.619 131.598L162.77 147.625L164.194 152.925C177.858 203.762 184.625 248.638 184.625 287.617C184.625 292.628 184.551 296.169 184.415 298.338L183.98 305.307Z" fill="#EDA73D"/>
<path fill-rule="evenodd" clip-rule="evenodd" d="M324.328 191.329L319.898 188.569L287.892 226.976L293.409 230.681C302.986 237.113 312.853 245.169 323.007 254.889L327.517 259.205L360.197 222.147L356.268 218.168C344.558 206.307 333.904 197.295 324.328 191.329Z" fill="#EDA73D"/>
<path fill-rule="evenodd" clip-rule="evenodd" d="M183.981 289.329L223.148 285.797L223.451 280.644C223.902 272.985 224.127 265.397 224.127 257.88C224.127 246.222 223.557 232.121 222.426 215.6C223.474 215.68 224.485 215.721 225.457 215.721C247.583 215.721 264.57 209.128 274.38 194.412C280.94 184.572 283.819 170.92 283.819 154.253C283.819 141.289 282.045 129.571 278.372 119.191L276.223 113.117L236.569 130.466L238.768 135.873C244.007 148.758 246.419 158.616 246.532 165.715C246.177 166.091 245.388 166.73 243.861 167.53C241.039 168.865 236.411 169.785 229.452 169.785C224.744 169.785 221.744 168.937 219.913 167.826C218.279 166.833 217.192 165.411 216.645 163.088L216.604 162.912L216.552 162.738C216.553 162.743 216.552 162.738 216.548 162.722C216.532 162.661 216.476 162.442 216.367 161.974C216.243 161.444 216.079 160.718 215.873 159.785C215.463 157.923 214.898 155.298 214.178 151.901C212.739 145.11 210.688 135.284 208.026 122.416L206.62 115.619L162.771 131.647L164.195 136.947C177.859 187.783 184.626 232.66 184.626 271.638C184.626 276.649 184.552 280.19 184.416 282.359L183.981 289.329Z" fill="#8F5B34"/>
<path fill-rule="evenodd" clip-rule="evenodd" d="M324.329 175.351L319.899 172.591L287.893 210.997L293.41 214.703C302.987 221.134 312.854 229.191 323.008 238.91L327.518 243.226L360.198 206.169L356.269 202.189C344.559 190.328 333.905 181.316 324.329 175.351Z" fill="#8F5B34"/>
<path d="M88.4062 232.531L50.6348 254.34C55.1417 273.73 62.425 292.421 72.3152 309.826L107.008 289.799C98.9003 274.618 93.0531 258.122 89.7833 240.875C89.2531 238.102 88.7965 235.318 88.4062 232.531Z" fill="#FFEB82"/>
<path d="M116.103 304.874L81.6605 324.758C84.0392 328.219 86.5136 331.603 89.0837 334.902C91.5508 338.061 94.0988 341.143 96.7352 344.148L131.369 324.154C125.809 318.115 120.706 311.668 116.103 304.874Z" fill="#FFEB82"/>
<path d="M414.011 160.968C411.809 152.978 409.047 145.179 405.763 137.638L439.756 118.013C441.325 121.304 442.813 124.64 444.212 128.021C445.95 132.226 447.548 136.475 449.006 140.765L414.011 160.968Z" fill="#FFEB82"/>
<path d="M397.89 121.853C391.469 110.49 383.758 99.9001 374.855 90.3486C370.031 85.1752 364.928 80.3774 359.574 75.9735L394.289 55.9316C408.863 69.5629 421.39 85.2305 431.494 102.456L397.89 121.853Z" fill="#FFEB82"/>
</svg>
