<svg width="521" height="488" viewBox="0 0 521 488" fill="none" xmlns="http://www.w3.org/2000/svg">
<path d="M132.859 213.661C128.414 214.343 123.994 215.272 119.621 216.444C87.8954 224.945 60.8469 245.701 44.4247 274.145C28.0025 302.589 23.5509 336.389 32.0523 368.117C38.3922 391.778 51.6041 413.023 70.0203 429.173C88.4344 445.324 111.224 455.648 135.508 458.844C156.217 461.572 177.22 459.008 196.577 451.477C185.059 453.247 173.287 453.388 161.607 451.851C137.324 448.655 114.533 438.33 96.1194 422.18C77.7031 406.03 64.4913 384.784 58.1514 361.124C49.65 329.396 54.1016 295.596 70.5238 267.151C84.6769 242.634 106.726 223.833 132.859 213.661Z" fill="#FDC251"/>
<path d="M145.718 209.454C169.377 203.114 194.384 203.933 217.578 211.806C240.771 219.679 261.109 234.253 276.02 253.685C290.931 273.117 299.744 296.534 301.346 320.975C302.948 345.416 297.266 369.783 285.02 390.995C272.773 412.206 254.511 429.31 232.544 440.144C210.577 450.977 185.89 455.052 161.606 451.855C137.322 448.658 114.532 438.332 96.117 422.183C77.7019 406.033 64.4893 384.785 58.1499 361.127C49.6491 329.401 54.0994 295.598 70.5217 267.154C86.9439 238.71 113.993 217.954 145.718 209.454V209.454Z" fill="#FFDB5D"/>
<path d="M132.858 213.662C128.412 214.343 123.992 215.273 119.619 216.445C100.557 221.552 83.1828 231.084 68.7873 244.051L94.8864 237.058C105.974 227.071 118.827 219.12 132.858 213.662Z" fill="#FECE60"/>
<path d="M82.7683 249.629L56.6692 256.623C52.1192 262.062 48.0179 267.919 44.4231 274.145C43.4737 275.793 42.5608 277.458 41.6909 279.139L67.79 272.146C68.6599 270.465 69.5706 268.8 70.5222 267.152C74.117 260.926 78.2183 255.069 82.7683 249.629Z" fill="#FECE60"/>
<path d="M62.9081 282.778L36.809 289.771C34.167 296.325 32.1 303.071 30.6196 309.933L56.7187 302.94C58.1991 296.078 60.2661 289.332 62.9081 282.778Z" fill="#FECE60"/>
<path d="M55.0143 312.721L28.9152 319.714C28.0885 325.931 27.7323 332.214 27.8551 338.501L53.9542 331.508C53.8302 325.217 54.1854 318.939 55.0143 312.721Z" fill="#FECE60"/>
<path d="M54.4756 340.692L28.3787 347.685C28.9372 353.618 29.9264 359.536 31.3541 365.39L56.3339 358.697C56.7183 358.594 57.1058 358.545 57.4855 358.543C56.039 352.643 55.0403 346.674 54.4756 340.692Z" fill="#FECE60"/>
<path d="M59.8353 366.897C59.4783 367.111 59.0876 367.284 58.6649 367.397L33.8041 374.058C34.7642 377.038 35.8367 379.979 37.0161 382.868C38.1075 385.539 39.2878 388.169 40.5602 390.751L66.6571 383.758C63.9842 378.328 61.6941 372.695 59.8353 366.897Z" fill="#FECE60"/>
<path d="M71.0527 391.905L44.9557 398.897C48.1722 404.36 51.8047 409.574 55.8259 414.488L81.925 407.494C77.9038 402.58 74.2691 397.367 71.0527 391.905Z" fill="#FECE60"/>
<path d="M88.6165 415.026L62.5174 422.019C64.9103 424.501 67.4126 426.89 70.0187 429.174C72.8338 431.643 75.7533 433.975 78.7633 436.169L104.86 429.176C101.85 426.982 98.9329 424.65 96.1178 422.181C93.5117 419.897 91.0094 417.508 88.6165 415.026Z" fill="#FECE60"/>
<path d="M114.95 435.797L88.8531 442.79C97.0567 447.621 105.793 451.486 114.888 454.316L140.987 447.323C131.893 444.492 123.156 440.628 114.95 435.797Z" fill="#FECE60"/>
<path d="M159.815 451.603L133.714 458.596C134.311 458.682 134.909 458.768 135.508 458.844C156.217 461.572 177.22 459.009 196.578 451.477C185.06 453.247 173.285 453.388 161.605 451.851C161.009 451.775 160.41 451.689 159.815 451.603Z" fill="#FECE60"/>
<path d="M152.675 233.228C171.709 228.128 191.829 228.786 210.489 235.121C229.149 241.455 245.512 253.18 257.508 268.814C269.505 284.448 276.596 303.288 277.884 322.952C279.173 342.616 274.602 362.22 264.749 379.286C254.896 396.352 240.204 410.113 222.53 418.829C204.856 427.544 184.995 430.824 165.457 428.251C145.92 425.679 127.584 417.371 112.768 404.378C97.9525 391.385 87.3224 374.291 82.2221 355.256C75.3828 329.731 78.9632 302.535 92.1757 279.651C105.388 256.766 127.15 240.067 152.675 233.228V233.228Z" fill="white"/>
<path d="M159.199 231.485C141.455 236.239 125.622 246.531 113.702 261.059C101.782 275.588 94.3104 293.7 92.2321 313.105C90.1538 332.51 93.5622 352.336 102.026 370.078C110.49 387.819 123.63 402.678 139.783 412.775C155.936 422.873 174.378 427.755 192.776 426.806C211.174 425.856 228.703 419.117 243.144 407.44C257.586 395.763 268.292 379.673 273.91 361.205C279.527 342.737 279.803 322.72 274.703 303.686C267.863 278.161 251.852 256.215 230.191 242.674C208.53 229.134 182.994 225.109 159.199 231.485V231.485Z" fill="#EDA73D"/>
<path d="M148.323 234.397C130.149 239.267 113.895 249.672 101.618 264.296C89.34 278.92 81.5896 297.107 79.3467 316.556C77.1037 336.005 80.469 355.843 89.0169 373.562C97.5648 391.281 110.911 406.084 127.369 416.1C143.827 426.116 162.656 430.895 181.476 429.832C200.296 428.77 218.261 421.913 233.1 410.13C247.939 398.346 258.986 382.166 264.842 363.634C270.698 345.101 271.102 325.05 266.001 306.016C259.162 280.491 242.922 258.606 220.853 245.175C198.784 231.744 172.694 227.867 148.323 234.397V234.397Z" fill="#FDC251"/>
<path fill-rule="evenodd" clip-rule="evenodd" d="M153.312 396.17L175.359 388.079L174.738 385.06C173.814 380.572 172.771 376.16 171.609 371.824C169.807 365.099 167.299 357.054 164.093 347.699C164.71 347.583 165.299 347.45 165.86 347.3C178.623 343.88 187.402 337.452 190.787 327.447C193.05 320.757 192.6 312.438 190.024 302.824C188.02 295.346 185.186 288.861 181.463 283.441L179.285 280.27L159.093 296.405L161.197 299.185C166.21 305.808 169.126 311.121 170.288 315.198C170.141 315.47 169.785 315.961 169.028 316.658C167.606 317.864 165.079 319.11 161.065 320.186C158.349 320.913 156.487 320.888 155.26 320.53C154.164 320.21 153.317 319.557 152.642 318.302L152.591 318.207L152.535 318.115C152.536 318.117 152.535 318.115 152.53 318.106C152.511 318.074 152.445 317.956 152.31 317.702C152.156 317.416 151.95 317.023 151.687 316.516C151.162 315.506 150.431 314.079 149.49 312.23C147.61 308.536 144.909 303.185 141.385 296.174L139.523 292.471L116.707 308.493L118.348 311.33C134.087 338.542 144.926 363.382 150.951 385.865C151.725 388.756 152.229 390.81 152.487 392.082L153.312 396.17Z" fill="#EDA73D"/>
<path fill-rule="evenodd" clip-rule="evenodd" d="M216.653 308.732L213.67 307.825L201.145 334.925L204.9 336.21C211.418 338.44 218.355 341.562 225.714 345.599L228.983 347.391L242.106 320.965L239.224 319.276C230.636 314.245 223.098 310.693 216.653 308.732Z" fill="#EDA73D"/>
<path fill-rule="evenodd" clip-rule="evenodd" d="M150.842 386.951L172.889 378.86L172.267 375.841C171.343 371.353 170.3 366.941 169.139 362.606C167.337 355.881 164.828 347.835 161.622 338.48C162.239 338.364 162.829 338.232 163.39 338.081C176.152 334.661 184.932 328.233 188.316 318.229C190.579 311.538 190.129 303.219 187.553 293.605C185.55 286.127 182.715 279.642 178.992 274.222L176.814 271.051L156.622 287.187L158.726 289.966C163.74 296.589 166.655 301.902 167.817 305.979C167.671 306.251 167.314 306.742 166.557 307.439C165.136 308.645 162.608 309.891 158.594 310.967C155.878 311.694 154.017 311.669 152.789 311.311C151.693 310.991 150.846 310.339 150.172 309.083L150.121 308.988L150.064 308.896C150.065 308.899 150.064 308.896 150.059 308.887C150.041 308.855 149.974 308.737 149.839 308.484C149.686 308.197 149.479 307.804 149.216 307.298C148.691 306.287 147.96 304.86 147.02 303.012C145.14 299.317 142.438 293.966 138.914 286.955L137.052 283.252L114.236 299.274L115.877 302.111C131.616 329.323 142.455 354.163 148.48 376.647C149.254 379.537 149.759 381.591 150.016 382.863L150.842 386.951Z" fill="#8F5B34"/>
<path fill-rule="evenodd" clip-rule="evenodd" d="M214.182 299.513L211.2 298.606L198.674 325.707L202.429 326.991C208.947 329.221 215.884 332.343 223.244 336.38L226.512 338.173L239.635 311.746L236.754 310.058C228.165 305.026 220.628 301.474 214.182 299.513Z" fill="#8F5B34"/>
<path d="M86.9351 368.96L68.5185 387.378C74.1151 397.867 81.2051 407.522 89.6002 416.033L106.517 399.119C99.4933 391.615 93.5708 383.004 89.0191 373.56C88.2847 372.043 87.5911 370.508 86.9351 368.96Z" fill="#FFEB82"/>
<path d="M114.093 406.409L97.2985 423.202C99.2056 424.83 101.156 426.4 103.148 427.906C105.06 429.347 107.006 430.731 108.991 432.056L125.879 415.17C121.738 412.546 117.798 409.616 114.093 406.409Z" fill="#FFEB82"/>
<path d="M263.691 277.356C261.186 273.088 258.388 269.016 255.327 265.174L271.902 248.599C273.316 250.255 274.69 251.95 276.019 253.683C277.672 255.84 279.25 258.044 280.754 260.293L263.691 277.356Z" fill="#FFEB82"/>
<path d="M248.347 257.285C242.886 251.723 236.802 246.806 230.19 242.673C226.608 240.434 222.923 238.456 219.154 236.743L236.081 219.817C246.594 225.427 256.241 232.528 264.732 240.902L248.347 257.285Z" fill="#FFEB82"/>
<path d="M413.939 28.9601C417.489 29.5041 421.019 30.2463 424.511 31.1821C449.847 37.9709 471.448 54.5468 484.563 77.2625C497.678 99.9781 501.233 126.971 494.444 152.309C489.381 171.205 478.83 188.172 464.122 201.069C449.417 213.967 431.216 222.213 411.824 224.765C395.285 226.943 378.512 224.896 363.053 218.881C372.251 220.295 381.653 220.407 390.981 219.18C410.373 216.628 428.574 208.382 443.279 195.484C457.987 182.587 468.538 165.62 473.601 146.724C480.39 121.387 476.835 94.3933 463.72 71.6776C452.417 52.0981 434.809 37.0828 413.939 28.9601Z" fill="#FDC251"/>
<path d="M403.668 25.5981C384.774 20.5355 364.803 21.1893 346.281 27.4768C327.758 33.7643 311.516 45.4032 299.609 60.9217C287.701 76.4401 280.662 95.1411 279.383 114.66C278.104 134.178 282.641 153.638 292.421 170.578C302.202 187.518 316.785 201.177 334.329 209.829C351.872 218.48 371.587 221.735 390.98 219.182C410.373 216.629 428.574 208.382 443.28 195.485C457.987 182.588 468.538 165.619 473.601 146.725C480.39 121.389 476.836 94.3939 463.721 71.6782C450.606 48.9624 429.004 32.3869 403.668 25.5981V25.5981Z" fill="#FFDB5D"/>
<path d="M413.94 28.963C417.49 29.507 421.02 30.2492 424.512 31.185C439.735 35.2641 453.61 42.876 465.107 53.232L444.264 47.6472C435.409 39.6716 425.145 33.3216 413.94 28.963Z" fill="#FECE60"/>
<path d="M453.941 57.6867L474.784 63.2716C478.418 67.6158 481.693 72.293 484.564 77.2654C485.322 78.5811 486.051 79.9109 486.746 81.2533L465.903 75.6685C465.209 74.3261 464.481 72.9968 463.721 71.6805C460.85 66.7081 457.575 62.0309 453.941 57.6867Z" fill="#FECE60"/>
<path d="M469.802 84.1596L490.645 89.7444C492.755 94.9783 494.405 100.366 495.588 105.845L474.745 100.261C473.563 94.7807 471.912 89.3935 469.802 84.1596Z" fill="#FECE60"/>
<path d="M476.106 108.072L496.949 113.657C497.609 118.622 497.894 123.64 497.796 128.66L476.953 123.075C477.052 118.051 476.768 113.038 476.106 108.072Z" fill="#FECE60"/>
<path d="M476.536 130.41L497.377 135.994C496.931 140.733 496.141 145.458 495.001 150.134L475.052 144.789C474.745 144.707 474.436 144.667 474.132 144.666C475.288 139.954 476.085 135.187 476.536 130.41Z" fill="#FECE60"/>
<path d="M472.256 151.337C472.541 151.508 472.853 151.646 473.191 151.737L493.045 157.056C492.278 159.436 491.421 161.785 490.479 164.092C489.608 166.225 488.665 168.325 487.649 170.387L466.808 164.803C468.943 160.466 470.771 155.968 472.256 151.337Z" fill="#FECE60"/>
<path d="M463.298 171.309L484.139 176.893C481.57 181.255 478.669 185.419 475.458 189.344L454.615 183.759C457.826 179.834 460.729 175.671 463.298 171.309Z" fill="#FECE60"/>
<path d="M449.271 189.773L470.114 195.358C468.203 197.34 466.205 199.248 464.123 201.072C461.875 203.044 459.544 204.906 457.14 206.658L436.299 201.074C438.702 199.322 441.032 197.459 443.28 195.487C445.362 193.664 447.36 191.756 449.271 189.773Z" fill="#FECE60"/>
<path d="M428.241 206.361L449.082 211.946C442.531 215.804 435.553 218.891 428.29 221.151L407.447 215.566C414.71 213.306 421.688 210.219 428.241 206.361Z" fill="#FECE60"/>
<path d="M392.411 218.984L413.256 224.569C412.779 224.638 412.301 224.706 411.823 224.767C395.285 226.946 378.511 224.898 363.052 218.884C372.251 220.297 381.654 220.41 390.982 219.183C391.458 219.121 391.936 219.053 392.411 218.984Z" fill="#FECE60"/>
<path d="M398.112 44.5875C382.91 40.5144 366.843 41.0404 351.941 46.099C337.038 51.1576 323.971 60.5216 314.391 73.0069C304.81 85.4922 299.148 100.538 298.118 116.242C297.089 131.945 300.74 147.602 308.608 161.23C316.477 174.859 328.21 185.849 342.325 192.809C356.439 199.77 372.301 202.389 387.903 200.335C403.506 198.28 418.149 191.646 429.981 181.269C441.813 170.893 450.303 157.241 454.376 142.04C459.838 121.656 456.978 99.9369 446.427 81.661C435.875 63.3852 418.496 50.0494 398.112 44.5875V44.5875Z" fill="white"/>
<path d="M392.904 43.192C407.075 46.989 419.719 55.2084 429.239 66.8107C438.758 78.4131 444.725 92.8774 446.385 108.374C448.045 123.871 445.323 139.705 438.563 153.874C431.804 168.042 421.311 179.908 408.41 187.972C395.51 196.036 380.782 199.935 366.09 199.177C351.397 198.419 337.399 193.036 325.865 183.711C314.332 174.386 305.782 161.537 301.296 146.788C296.81 132.039 296.59 116.053 300.663 100.852C306.125 80.4683 318.911 62.9417 336.21 52.1283C353.509 41.3149 373.902 38.1004 392.904 43.192V43.192Z" fill="#EDA73D"/>
<path d="M401.588 45.5188C416.102 49.4078 429.082 57.7171 438.887 69.396C448.692 81.0749 454.882 95.5989 456.673 111.131C458.464 126.663 455.776 142.506 448.95 156.657C442.124 170.807 431.465 182.629 418.322 190.628C405.179 198.627 390.141 202.443 375.112 201.595C360.082 200.746 345.735 195.27 333.884 185.86C322.033 176.45 313.212 163.528 308.535 148.728C303.858 133.928 303.536 117.915 307.609 102.714C313.071 82.3296 326.041 64.8521 343.665 54.126C361.289 43.3998 382.125 40.3037 401.588 45.5188V45.5188Z" fill="#FDC251"/>
<path d="M450.616 152.984L465.323 167.693C460.854 176.069 455.192 183.78 448.487 190.577L434.978 177.069C440.587 171.076 445.316 164.199 448.952 156.658C449.538 155.446 450.092 154.22 450.616 152.984Z" fill="#FFEB82"/>
<path d="M428.928 182.891L442.339 196.302C440.817 197.602 439.259 198.856 437.668 200.058C436.141 201.209 434.587 202.314 433.002 203.373L419.515 189.888C422.822 187.792 425.969 185.452 428.928 182.891Z" fill="#FFEB82"/>
<path d="M309.457 79.8284C311.458 76.4194 313.693 73.1677 316.136 70.0993L302.9 56.8627C301.771 58.1855 300.674 59.5386 299.612 60.923C298.292 62.6456 297.032 64.4057 295.83 66.2018L309.457 79.8284Z" fill="#FFEB82"/>
<path d="M321.711 63.7994C326.072 59.3576 330.931 55.431 336.211 52.1301C339.072 50.3423 342.015 48.7621 345.025 47.3943L331.507 33.8769C323.111 38.3573 315.407 44.0284 308.626 50.7161L321.711 63.7994Z" fill="#FFEB82"/>
<path fill-rule="evenodd" clip-rule="evenodd" d="M341.018 159.175L360.069 162.482L360.869 160.073C362.057 156.493 363.13 152.918 364.087 149.348C365.57 143.811 367.094 137.041 368.659 129.051C371.814 112.943 372.289 95.6153 372.289 79.5544L351.011 81.5878L351.013 84.2862C351.033 110.169 348.536 132.343 343.576 150.855C342.938 153.235 342.452 154.907 342.112 155.92L341.018 159.175Z" fill="#EDA73D"/>
<path fill-rule="evenodd" clip-rule="evenodd" d="M406.81 123.278L405.057 121.404L384.969 135.571L387.118 138.033C390.848 142.306 394.509 147.388 398.094 153.296L399.687 155.92L419.924 142.479L418.564 140.089C414.512 132.966 410.599 127.33 406.81 123.278Z" fill="#EDA73D"/>
<path fill-rule="evenodd" clip-rule="evenodd" d="M347.523 155.163L366.574 158.47L367.374 156.061C368.562 152.481 369.635 148.906 370.592 145.336C372.075 139.799 373.599 133.029 375.164 125.04C378.319 108.931 378.794 91.6036 378.794 75.5427L357.516 77.5761L357.518 80.2744C357.538 106.157 355.041 128.331 350.081 146.843C349.443 149.223 348.957 150.895 348.616 151.908L347.523 155.163Z" fill="#8F5B34"/>
<path fill-rule="evenodd" clip-rule="evenodd" d="M413.315 119.266L411.562 117.392L391.474 131.559L393.623 134.021C397.352 138.294 401.013 143.376 404.599 149.285L406.192 151.908L426.428 138.467L425.069 136.077C421.016 128.954 417.104 123.318 413.315 119.266Z" fill="#8F5B34"/>
</svg>
