<svg width="460" height="226" viewBox="0 0 460 226" fill="none" xmlns="http://www.w3.org/2000/svg">
<path d="M455.668 109.568C456.339 104.697 457.92 77.2529 459.001 73.0675C458.963 73.0882 458.924 73.1089 458.886 73.1295C458.924 72.9405 458.963 72.7515 459.001 72.5625C413.413 94.6904 322.388 108.822 230.414 110.014C138.44 108.822 47.4155 94.6904 1.82764 72.5625C1.86605 72.7515 1.90448 72.9405 1.94294 73.1295C1.90448 73.1089 1.86605 73.0882 1.82764 73.0675C2.90843 77.2529 2.79048 104.697 3.46077 109.568C3.93815 113.037 4.38446 116.281 4.90371 118.729C7.73059 132.056 10.2123 143.756 17.7782 161.332C43.9635 222.162 110.363 223.392 167.913 224.998C172.367 225.122 176.739 225.253 181.029 225.391C194.139 225.841 207.537 226.046 221.004 225.987C223.857 226 226.711 226.001 229.565 225.989C232.418 226.001 235.273 226 238.126 225.987C251.593 226.046 264.99 225.841 278.1 225.391C282.39 225.253 286.762 225.122 291.216 224.998C348.766 223.392 415.166 222.162 441.351 161.332C448.917 143.756 451.399 132.056 454.225 118.729C454.745 116.281 455.191 113.037 455.668 109.568Z" fill="#F2C45F"/>
<path d="M0.0656939 70.3268L0.0621683 70.3095L0 69.998C0 69.998 29.0333 87.9176 78.9067 95.998C60.0272 146.498 73.3788 203.245 96.8125 217.664C33.2217 205.165 4.35681 164.234 0.0656939 70.3268Z" fill="#F2AE5F"/>
<path d="M237.366 24.998C172.321 24.998 111.256 30.5024 65.4105 40.4937L65.4091 40.4952C11.7527 52.1946 0.00412182 65.7162 0 69.9431C0.000385333 70.0832 0.012339 70.2229 0.0357237 70.3608C0.0480773 70.4123 0.0603077 70.4641 0.0725629 70.516C0.101197 70.6373 0.129967 70.7591 0.160756 70.8796C1.70094 75.9128 15.226 88.4503 65.4064 99.3911C111.253 109.388 172.318 114.893 237.359 114.893C302.4 114.893 363.467 109.388 409.312 99.3911C412.461 98.7045 415.465 98.0115 418.332 97.3146C449.367 87.6427 459.057 80.6598 458.627 73.1927C458.104 64.1436 448.211 53.973 395.624 39.7794C386.339 37.2735 376.415 35.0003 365.952 32.9705C327.787 27.7768 283.582 24.998 237.366 24.998Z" fill="#DCC3B2"/>
<path d="M457.441 87.719C453.828 91.1109 449.111 94.1534 443.649 96.9107C431.351 103.12 413.961 108.532 392.985 113.012C350.929 121.993 293.117 127.498 229.459 127.498C165.8 127.498 107.989 121.993 65.9327 113.012C44.9566 108.532 27.5667 103.12 15.2683 96.9107C10.4241 94.465 4.82241 91.7949 1.40068 88.8557C0.96818 84.498 0 70.5625 0 70.5625C7.85512 78.998 13.0317 81.3115 20.7957 85.2314C31.7198 90.7467 47.9334 95.893 68.4811 100.281C109.473 109.035 166.39 114.498 229.459 114.498C292.527 114.498 349.444 109.035 390.436 100.281C416.092 94.8023 442.943 85.498 458.917 74.0675C458.917 74.0675 457.978 80.9643 457.441 87.719Z" fill="#D3954B"/>
<path d="M156.466 28.0273C122.257 30.6086 90.9391 34.8961 64.6734 40.6918L64.6721 40.6932C11.6202 52.4052 0.00407537 65.9415 0 70.173C0.000380991 70.3131 0.0122001 70.453 0.0353212 70.591C0.0475328 70.6426 0.0596228 70.6945 0.0717372 70.7464C0.100052 70.8678 0.128501 70.9898 0.158946 71.1104C9.29015 87.6203 57.1506 97.9108 77.255 101.761C92.1477 59.1901 130.053 38.0724 156.466 28.0273Z" fill="#D9B7A4"/>
<path d="M71.8876 118.661C72.1951 118.722 72.5032 118.782 72.8119 118.842C72.599 119.014 72.2811 118.931 71.8876 118.661Z" fill="#D9B7A4"/>
<path fill-rule="evenodd" clip-rule="evenodd" d="M418.531 138.712C421.728 139.263 423.887 142.385 423.354 145.686C421.251 158.723 415.902 170.799 407.23 178.561C404.781 180.753 401.075 180.48 398.953 177.951C396.831 175.421 397.095 171.594 399.544 169.402C405.541 164.034 409.971 154.898 411.779 143.694C412.312 140.392 415.335 138.162 418.531 138.712Z" fill="#FEFCFF"/>
<path d="M368.384 85.7342C371.774 85.5362 375.161 86.1812 378.259 87.6144C381.356 89.0476 384.072 91.2269 386.178 93.9682C387.72 95.9823 389.089 98.1302 390.27 100.388C373.28 103.521 355.577 106.303 337.27 108.699C342.152 95.008 356.018 86.8456 368.384 85.7342Z" fill="#BD5002"/>
<path d="M345.749 95.9416C349.982 91.9745 355.123 89.0845 360.394 87.3847C361.694 87.044 362.991 86.8121 364.27 86.6992C357.414 94.3845 357.669 100.705 360.461 105.409C354.245 106.361 347.95 107.267 341.58 108.126C340.141 108.294 338.704 108.485 337.27 108.699C339.005 103.916 342.037 99.5257 345.749 95.9416Z" fill="#A53F02"/>
<path d="M216.907 109.537C219.623 98.1174 232.611 91.278 244.038 90.4274C246.795 90.2422 249.56 90.6616 252.138 91.6561C254.716 92.6505 257.046 94.1962 258.965 96.185C262.627 100.033 265.441 105.712 268.423 111.731C268.842 112.573 269.293 113.439 269.724 114.294C261.558 114.429 253.362 114.518 245.116 114.518C235.45 114.518 225.852 114.42 216.321 114.225C216.362 112.647 216.558 111.077 216.907 109.537Z" fill="#BD5002"/>
<path d="M238.473 91.291C228.712 93.5868 219.188 99.9466 216.907 109.536C216.558 111.076 216.362 112.646 216.321 114.224C223.749 114.376 231.218 114.469 238.728 114.502C234.887 107.74 231.634 97.9157 238.473 91.291Z" fill="#A53F02"/>
<path d="M113.645 90.6011C116.994 90.3308 120.362 90.7898 123.515 91.9465C126.669 93.1031 129.534 94.9298 131.912 97.3004C135.619 101.457 138.733 106.106 141.166 111.115C122.081 109.165 103.65 106.874 86.0486 104.233C92.5016 96.3182 103.537 91.5164 113.645 90.6011Z" fill="#BD5002"/>
<path d="M114.834 90.5357C114.438 90.5473 114.041 90.5691 113.645 90.601C103.537 91.5163 92.5015 96.3181 86.0486 104.233C96.1169 105.744 106.457 107.14 117.036 108.423C110.503 102.57 106.174 95.7408 116.132 90.5688C115.7 90.5456 115.267 90.5345 114.834 90.5357Z" fill="#A53F02"/>
<path d="M13.535 27.2192C17.7788 18.3961 29.0081 12.7489 40.2328 13.7891C41.7886 13.9195 43.3298 14.1873 44.8384 14.5895C52.3727 16.6784 53.8158 19.4235 57.8818 29.8967C58.8496 32.3891 59.8466 34.9564 60.9835 37.5507C62.8574 40.8841 63.8853 43.4954 66.4865 51.8995C66.5477 52.1673 66.6315 52.4264 66.7179 52.6878C69.3777 63.5716 69.759 78.4562 57.7803 84.3756C49.3759 88.5251 39.5866 89.3644 32.2721 86.579C24.0264 83.4433 19.9622 74.0977 18.8888 70.0916C17.7217 66.539 16.3272 62.8599 14.8573 58.9575C9.12727 43.799 7.51035 39.7391 13.535 27.2192Z" fill="#BD5002"/>
<path d="M31.7433 14.2432C23.7251 15.8426 16.6943 20.6509 13.535 27.2192C7.55598 39.6443 9.10322 43.737 14.7279 58.615L14.8573 58.9575C14.926 59.1397 14.9944 59.3214 15.0627 59.5026C16.4569 63.2031 17.7762 66.7049 18.8888 70.0916C19.9622 74.0977 24.0264 83.4433 32.2721 86.579C37.5304 88.5814 44.0677 88.7106 50.45 87.0833C49.5701 84.8895 47.7302 82.604 45.5874 79.9425C41.8578 75.3099 37.2108 69.5378 35.1113 61.1256C33.1377 53.2176 33.2122 48.4124 35.0665 40.6698C38.5193 26.2519 34.4504 17.9132 31.7433 14.2432Z" fill="#A53F02"/>
<path d="M310.764 26.1832C313.436 16.7644 323.535 9.28024 334.772 8.38583C336.327 8.24824 337.891 8.24858 339.446 8.38687C347.227 9.15672 349.118 11.6147 354.915 21.2384C356.295 23.5285 357.716 25.8876 359.28 28.2493C361.696 31.2132 363.156 33.6102 367.155 41.4458C367.262 41.6992 367.388 41.9401 367.518 42.1829C372 52.4517 374.921 67.0518 364.131 74.9323C356.559 80.4578 347.058 82.9586 339.375 81.4649C330.714 79.7854 325.112 71.2723 323.369 67.5088C321.612 64.2081 319.609 60.8215 317.493 57.2279C309.256 43.2725 306.968 39.5489 310.764 26.1832Z" fill="#BD5002"/>
<path d="M326.485 10.2849C318.858 13.2317 312.753 19.1714 310.764 26.1832C306.997 39.4477 309.221 43.2155 317.307 56.9126L317.493 57.2279C317.592 57.3957 317.691 57.5631 317.789 57.73C319.795 61.1376 321.694 64.3622 323.369 67.5088C325.112 71.2723 330.714 79.7854 339.375 81.4649C344.898 82.5387 351.361 81.5481 357.371 78.8535C356.129 76.8425 353.925 74.9053 351.359 72.6493C346.892 68.7227 341.327 63.8302 337.82 55.9009C334.523 48.4469 333.775 43.6997 334.278 35.754C335.215 20.9581 329.78 13.4379 326.485 10.2849Z" fill="#A53F02"/>
<path d="M380.28 61.4392C379.887 71.2219 387.152 81.4785 397.552 85.8275C398.988 86.4425 400.474 86.9293 401.995 87.2821C409.628 88.9733 412.191 87.2264 420.696 79.8862C422.721 78.1395 424.806 76.3403 427.027 74.5829C430.246 72.5187 432.379 70.6953 438.62 64.4947C438.8 64.287 438.996 64.0976 439.195 63.9073C446.651 55.5445 453.973 42.5797 446.173 31.7312C440.699 24.1228 432.448 18.7877 424.682 17.8149C415.929 16.7142 407.955 23.0595 405.127 26.0934C402.429 28.6827 399.471 31.2772 396.342 34.0334C384.168 44.7301 380.835 47.5563 380.28 61.4392Z" fill="#BD5002"/>
<path d="M390.269 81.4425C383.939 76.2674 379.987 68.722 380.28 61.4392C380.831 47.6614 384.118 44.7735 396.067 34.2751L396.342 34.0334C396.488 33.9047 396.633 33.7764 396.779 33.6484C399.747 31.0349 402.555 28.5618 405.127 26.0934C407.955 23.0595 415.929 16.7142 424.682 17.8149C430.265 18.5143 436.098 21.4681 440.971 25.9002C439.164 27.4245 436.467 28.5791 433.326 29.9238C427.858 32.2644 421.046 35.1806 415.244 41.6238C409.79 47.6807 407.601 51.9589 405.605 59.6662C401.888 74.0182 394.382 79.4722 390.269 81.4425Z" fill="#A53F02"/>
<path d="M230.313 58.6322C228.56 48.9998 234.325 37.8305 244.017 32.0741C245.352 31.265 246.756 30.5758 248.213 30.0144C255.536 27.2756 260.816 30.3093 270.261 36.3922C272.509 37.8396 274.825 39.3305 277.269 40.7611C284.908 45.125 292.271 49.9556 299.315 55.2256C299.522 55.4062 299.742 55.5666 299.966 55.7273C313.511 66.2913 322.569 78.1087 316.358 89.9387C311.998 98.2359 304.572 104.669 297.017 106.715C288.503 109.025 279.722 103.854 271.502 97.9212C268.47 95.7332 265.179 93.5765 261.696 91.2834C248.15 82.3883 232.798 72.3021 230.313 58.6322Z" fill="#BD5002"/>
<path d="M237.046 37.8404C231.743 43.7996 229.037 51.6233 230.313 58.633C230.56 59.9925 230.934 61.3166 231.421 62.6075C236.385 73.576 249.403 82.1273 261.08 89.7918C261.243 89.8989 261.405 90.0057 261.567 90.1122C264.87 92.2864 267.996 94.3438 270.886 96.4296C278.259 101.754 286.777 107.683 294.599 107.176C295.407 107.085 296.213 106.934 297.017 106.716C297.548 106.572 298.079 106.406 298.608 106.22C301.697 104.857 308.378 101.103 312.113 95.9856C310.575 93.4398 307.006 92.4929 302.5 91.2976C297.168 89.8831 290.524 88.1206 284.382 82.9489C278.608 78.0873 276.032 72.9951 273.28 67.5542C270.63 62.3161 267.817 56.7547 261.829 50.7647C250.358 39.2896 238.813 37.7389 237.046 37.8404Z" fill="#A53F02"/>
<path d="M188.919 13.5635C189.463 13.3381 190.014 13.1376 190.572 12.9618C193.069 12.2076 195.679 11.894 198.284 12.0349C200.76 11.8605 203.241 12.307 205.501 13.3341C210.399 14.8998 214.818 17.6856 218.343 21.4296C226.233 29.8801 224.477 35.8335 219.749 48.4979C218.793 51.0434 217.814 53.6858 216.922 56.4338C208.486 82.3979 196.286 111.509 176.473 106.068C167.261 103.538 159.244 97.5599 155.552 90.465C151.406 82.4912 154.641 72.6242 158.758 63.1494C160.279 59.6473 161.713 55.8999 163.235 51.9296C167.344 41.2058 171.84 29.4947 178.592 21.5173C180.643 19.1225 183.019 17.027 185.652 15.2918C186.693 14.6286 187.785 14.0506 188.919 13.5635Z" fill="#BD5002"/>
<path d="M203.572 12.6137C204.411 17.7381 203.725 25.8603 198.357 35.6138C194.573 42.4898 190.835 48.4445 187.282 54.1036C182.11 62.3407 177.332 69.9519 173.377 78.8677C169.699 87.16 170.039 93.1858 170.307 97.933C170.429 100.11 170.537 102.018 170.235 103.752C163.742 100.675 158.379 95.8977 155.552 90.465C151.406 82.4912 154.641 72.6242 158.758 63.1494C160.254 59.7059 161.665 56.0254 163.159 52.129L163.235 51.9296C167.344 41.2058 171.84 29.4947 178.592 21.5173C180.643 19.1225 183.019 17.027 185.652 15.2918C186.693 14.6286 187.785 14.0506 188.919 13.5635C189.463 13.3381 190.014 13.1376 190.572 12.9618C193.069 12.2076 195.679 11.894 198.284 12.0349C200.073 11.9089 201.864 12.1069 203.572 12.6137Z" fill="#A53F02"/>
<path d="M138.887 3.06503C148.759 4.11934 157.971 12.9243 160.796 24.0003C161.187 25.4845 161.451 26.9989 161.587 28.5276C162.216 36.5277 157.751 40.7948 149.073 48.283C147.022 50.0506 144.906 51.8889 142.815 53.8564C123.042 72.4699 98.4623 92.0189 83.7901 77.8C76.9657 71.1838 72.8135 62.1365 73.0072 54.1815C73.2003 45.2381 80.7436 38.1768 88.8681 31.8779C91.8696 29.5487 94.9159 26.9766 98.1406 24.2332C104.516 18.5163 111.354 13.336 118.583 8.74519C118.903 8.65114 119.227 8.59455 119.533 8.47044C120.525 8.05594 121.439 7.47819 122.239 6.76113C127.321 3.96247 133.098 2.67975 138.887 3.06503Z" fill="#BD5002"/>
<path d="M138.885 3.07453C148.757 4.12884 157.969 12.9338 160.795 24.0098C160.866 24.2894 150.665 12.5512 128.718 20.0964C118.418 23.6374 96.8223 38.9489 85.1427 52.7297C81.2698 57.296 79.6758 66.4545 81.2955 75.3126C73.8371 68.743 72.9491 56.5589 73.0072 54.1924C73.2002 45.2491 80.7435 38.1878 88.868 31.8889C91.8695 29.5597 94.9159 26.9876 98.1405 24.2441C104.516 18.5272 111.354 13.347 118.583 8.75625C118.903 8.66221 119.227 8.60561 119.533 8.48151C120.524 8.067 121.439 7.48916 122.239 6.7721C127.32 3.97325 133.097 2.69004 138.885 3.07453Z" fill="#A53F02"/>
</svg>
