<svg width="501" height="438" viewBox="0 0 501 438" fill="none" xmlns="http://www.w3.org/2000/svg">
<path d="M88.1344 375.548C68.1967 357.982 38.5679 351.586 0 356.499C3.98306 383.338 14.9973 403.793 32.8029 417.381C61.1017 438.977 99.8559 438.266 116.019 436.827C114.953 423.408 110.051 394.861 88.1344 375.548Z" fill="#0AA56E"/>
<path d="M59.0253 398.639C39.0876 381.074 38.5679 351.584 0 356.495C3.98306 383.335 14.9973 403.79 32.8029 417.378C61.1017 438.973 99.8559 438.263 116.019 436.824C114.953 423.407 80.9416 417.953 59.0253 398.639Z" fill="#0A8E5F"/>
<path d="M363.105 20.5704C382.965 3.07348 412.477 -3.29777 450.894 1.59579C446.926 28.33 435.955 48.7049 418.22 62.2395C390.032 83.7502 351.43 83.0423 335.33 81.6093C336.392 68.2431 341.275 39.8078 363.105 20.5704Z" fill="#0AA56E"/>
<path d="M392.1 43.5715C411.96 26.0746 412.477 -3.29916 450.894 1.59268C446.926 28.3268 435.955 48.7018 418.22 62.2364C390.032 83.7471 351.43 83.0392 335.33 81.6061C336.392 68.2416 370.27 62.809 392.1 43.5715Z" fill="#0A8E5F"/>
<path fill-rule="evenodd" clip-rule="evenodd" d="M293.009 26.8636C296.077 22.334 302.236 21.1489 306.765 24.2166C333.594 42.3869 341.611 76.3341 343.683 102.784C344.748 116.385 344.312 128.904 343.62 137.996C343.273 142.555 342.858 146.286 342.527 148.899C342.361 150.207 342.216 151.237 342.11 151.954C342.057 152.313 342.014 152.593 341.982 152.791C341.967 152.89 341.954 152.968 341.945 153.025L341.933 153.095L341.93 153.118L341.928 153.127C341.928 153.13 341.927 153.133 332.157 151.502L341.927 153.133C341.026 158.529 335.922 162.173 330.526 161.272C325.132 160.372 321.489 155.271 322.386 149.877C322.386 149.875 322.386 149.873 322.387 149.871L322.39 149.85C322.394 149.822 322.402 149.774 322.413 149.705C322.435 149.568 322.469 149.349 322.512 149.055C322.599 148.465 322.726 147.571 322.873 146.408C323.168 144.079 323.547 140.681 323.866 136.492C324.506 128.088 324.896 116.635 323.932 104.331C321.946 78.9699 314.49 53.3753 295.656 40.6197C291.127 37.552 289.941 31.3932 293.009 26.8636Z" fill="#C2854C"/>
<path fill-rule="evenodd" clip-rule="evenodd" d="M263.632 392.148C223.524 381.534 195.456 335.525 185.248 316.236C169.047 285.609 160.053 248.412 160.568 214.165C161.109 178.507 171.677 147.761 191.133 125.267C193.161 122.92 195.275 120.682 197.4 118.615C218.834 97.8055 249.654 95.2403 291.61 110.775C303.131 115.041 315.258 117.444 327.535 117.894L339.732 117.623C343.009 117.359 346.244 116.952 349.412 116.377C358.567 114.711 367.127 111.456 375.407 108.307L375.436 108.296C384.702 104.771 393.457 101.44 402.738 100.298C406 99.8952 409.283 99.6921 412.569 99.6895C429.566 99.6654 446.061 105.441 459.33 116.063C480.558 132.753 495.355 161.024 498.921 191.686C503.188 228.381 499.056 264.36 486.963 295.726C475.288 326.034 453.71 353.756 422.825 378.124C406.864 390.716 393.572 395.496 380.985 393.168C375.208 392.099 369.576 390.502 363.614 388.81C351.419 385.354 338.802 381.786 325.036 383.085C316.597 383.885 308.487 386.168 300.642 388.379L300.632 388.382C287.862 391.978 275.799 395.375 263.632 392.148ZM439.206 152.724C435.138 150.06 432.221 148.655 429.558 152.724C426.033 158.109 444.004 216.204 454.111 217.391C458.94 217.958 460.774 217.047 461.341 212.218C463.723 191.936 458.65 177.182 452.581 167.366C449.585 162.52 446.405 158.971 443.91 156.589C442.661 155.397 441.576 154.491 440.761 153.854C440.352 153.535 440.01 153.283 439.747 153.096C439.616 153.002 439.504 152.924 439.413 152.862C439.368 152.831 439.328 152.804 439.294 152.781L439.246 152.75L439.225 152.736L439.215 152.73C439.215 152.73 439.191 152.748 439.206 152.724Z" fill="#E14842"/>
<path d="M188.987 127.824C170.901 150.066 161.089 179.839 160.568 214.163C160.053 248.41 169.047 285.607 185.248 316.235C195.456 335.524 223.524 381.532 263.632 392.147C275.799 395.373 287.863 391.976 300.632 388.38L300.641 388.378C308.487 386.167 316.597 383.883 325.036 383.083C338.802 381.785 351.419 385.352 363.614 388.808C369.576 390.5 375.208 392.097 380.985 393.167C389.943 394.824 399.258 392.88 409.638 387.083C403.763 389.685 390.703 394.324 382.34 386.067C353.455 360.961 338.578 365.316 322.47 370.031C308.841 374.02 294.33 378.267 269.706 365.15C215.979 336.529 176.667 190.771 262.071 107.961C261.769 107.78 262.601 107.144 263.578 106.398C265.007 105.308 266.745 103.981 265.699 103.491C265.299 103.302 264.86 103.113 264.384 102.925C237.076 97.6035 215.638 102.203 199.365 116.78C198.642 117.568 197.926 118.371 197.22 119.188C194.722 122.076 191.94 124.943 188.987 127.824Z" fill="#D23A34"/>
</svg>
