<svg width="458" height="371" viewBox="0 0 458 371" fill="none" xmlns="http://www.w3.org/2000/svg">
<path d="M381.344 292.161C377.373 295.945 372.93 299.2 368.125 301.845C367.745 302.043 367.335 302.205 366.941 302.383C383.83 268.562 360.199 237.733 344.114 216.782C341.575 213.474 339.175 210.349 337.189 207.539C336.644 206.752 335.948 206.08 335.142 205.563C334.335 205.046 333.434 204.694 332.491 204.527C331.547 204.361 330.58 204.383 329.646 204.592C328.711 204.801 327.827 205.194 327.045 205.747C326.263 206.3 325.598 207.003 325.089 207.815C324.58 208.626 324.237 209.531 324.08 210.476C323.923 211.421 323.955 212.387 324.173 213.32C324.392 214.253 324.794 215.133 325.354 215.909C327.504 218.951 329.988 222.187 332.615 225.611C349.243 247.271 369.939 274.226 349.926 302.689C347.482 306.098 344.454 309.047 340.981 311.399C338.691 312.509 336.463 313.682 334.281 314.843C332.715 315.675 331.176 316.487 329.642 317.262C321.578 320.197 313.165 322.062 304.617 322.81C299.391 323.312 294.142 323.544 288.892 323.503C266.319 273.644 289.324 206.722 289.562 206.043C290.187 204.232 290.071 202.248 289.238 200.524C288.405 198.799 286.924 197.474 285.117 196.838C283.311 196.202 281.326 196.307 279.597 197.13C277.867 197.953 276.534 199.427 275.888 201.23C274.882 204.083 252.641 268.626 272.863 322.61C270.851 322.417 268.851 322.114 266.873 321.702C249.751 317.374 227.604 307.75 219.322 286.484C210.535 263.924 195.225 264.57 205.813 291.746C207.153 295.154 208.802 298.432 210.739 301.54C201.543 297.392 193.468 291.113 187.181 283.223C180.203 274.525 175.396 264.289 173.16 253.363C170.924 242.437 171.323 231.136 174.323 220.395C178.943 204.281 188.441 188.846 202.557 174.523C262.158 114.044 277.424 89.9023 269.588 9.37616C269.559 9.13421 269.594 8.88889 269.69 8.66488C269.786 8.44088 269.939 8.2461 270.135 8.10017C270.361 7.916 270.644 7.81514 270.936 7.81445C271.157 7.81958 271.375 7.86226 271.581 7.94067L313.346 22.3316C314.31 22.6744 315.135 23.3208 315.699 24.1736C316.263 25.0264 316.534 26.0393 316.472 27.0597C315.17 48.6074 314.947 107.5 340.988 142.461C346.793 150.253 353.504 157.929 360.611 166.06C386.293 195.439 412.85 225.819 399.498 264.724C395.81 275.231 389.573 284.659 381.344 292.161Z" fill="#FCF3DF"/>
<path d="M274.62 11.0488C274.62 11.0488 277.615 52.9375 267.093 75.6682C244.372 124.744 194.225 181.412 185.059 196.736C179.593 205.864 207.219 219.592 208.286 234.752C209.482 251.763 219.555 253.813 231.415 273.691C235.633 280.764 232.011 314.516 240.223 320.725C248.903 312.298 250.86 297.383 249.225 277.193C247.589 257.003 229.903 231.058 229.903 231.058C229.903 231.058 216.146 215.385 216.146 200.118C216.146 184.85 229.903 169.999 229.903 169.999C229.903 169.999 258.957 137.752 273.486 109.698C288.016 81.6445 288.897 60.807 289.159 45.9764C289.3 36.8253 288.823 24.6751 287.732 15.5883L274.62 11.0488Z" fill="#D5CAB2"/>
<path d="M294.833 204.869C295.366 214.628 293.876 219.495 293.048 238.643C292.364 256.625 293.778 274.626 297.259 292.282C303.65 322.22 317.959 322.24 325.146 323.157C319.509 323.157 294.513 324.582 292.701 325.376C267.634 283.153 282.263 212.052 288.391 196.869C288.931 195.517 294.3 195.111 294.833 204.869Z" fill="#D5CAB2"/>
<path d="M335.684 204.549L341.284 206.288L359.914 222.637C359.914 222.637 380.51 242.095 385.113 257.095C389.532 271.452 388.511 295.162 367.252 307.38C393.496 268.163 335.684 204.549 335.684 204.549Z" fill="#D5CAB2"/>
<path d="M352.341 137.956C327.755 105.174 328.069 53.7279 329.298 33.3409C329.46 30.7759 328.786 28.2273 327.375 26.0725C325.964 23.9176 323.891 22.2711 321.464 21.3767L279.668 7.0196C278.296 6.52218 276.818 6.37879 275.375 6.60286C273.932 6.82692 272.569 7.41109 271.415 8.30066C270.261 9.19023 269.354 10.3561 268.778 11.6889C268.202 13.0217 267.976 14.4779 268.122 15.921C275.811 94.3345 260.77 110.893 203.306 168.776C186.795 185.526 177.756 201.965 173.321 217.279C170.044 229.016 169.615 241.357 172.07 253.29C174.526 265.223 179.795 276.408 187.446 285.929C194.723 294.985 204.125 302.133 214.828 306.747C222.059 310.025 229.291 313.375 236.522 316.725C243.078 319.788 249.634 323.593 256.721 325.292C267.428 327.702 278.356 329.009 289.333 329.192C301.062 329.98 312.843 329.248 324.381 327.015C336.602 324.263 346.499 317.732 358.237 313.832C364.625 311.702 370.998 309.403 377.096 306.269C382.448 303.356 387.399 299.769 391.824 295.597C400.91 287.36 407.8 277.018 411.879 265.495C430.342 211.919 379.097 173.633 352.341 137.956Z" stroke="#A79D85" stroke-width="13" stroke-linecap="round" stroke-linejoin="round"/>
<path d="M336.4 211.625C351.782 233.31 387.193 268.326 360.79 305.856C339.443 336.181 278.54 329.479 270.802 327.397C224.322 315.669 186.563 277.948 243.8 190.754" stroke="#A79D85" stroke-width="13" stroke-linecap="round" stroke-linejoin="round"/>
<path d="M288.151 201.852C288.151 201.852 263.177 272.643 288.151 326.167" stroke="#A79D85" stroke-width="13" stroke-linecap="round" stroke-linejoin="round"/>
<path d="M200.909 156.573C173.948 120.645 174.292 64.2608 175.64 41.9171C175.817 39.1059 175.078 36.3127 173.53 33.951C171.983 31.5894 169.711 29.7849 167.049 28.8045L121.215 13.0695C119.71 12.5243 118.09 12.3672 116.507 12.6127C114.924 12.8583 113.43 13.4985 112.165 14.4735C110.899 15.4484 109.904 16.7262 109.273 18.1869C108.641 19.6477 108.394 21.2436 108.553 22.8252C116.985 108.765 100.491 126.913 37.4757 190.351C19.3693 208.709 9.45715 226.725 4.59352 243.509C0.999824 256.373 0.529746 269.898 3.2222 282.976C5.91465 296.055 11.6929 308.314 20.0831 318.749C28.0633 328.674 38.3731 336.508 50.1106 341.565C58.0405 345.158 65.9703 348.829 73.9001 352.501C81.0898 355.857 88.2795 360.027 96.0508 361.889C107.792 364.531 119.776 365.963 131.814 366.164C144.675 367.027 157.595 366.225 170.247 363.777C183.649 360.762 194.502 353.604 207.375 349.329C214.379 346.995 221.368 344.476 228.056 341.04C233.925 337.849 239.353 333.917 244.206 329.344C254.17 320.317 261.726 308.983 266.198 296.353C286.446 237.635 230.25 195.675 200.909 156.573Z" fill="white"/>
<path d="M230.872 319.682C226.901 323.466 222.458 326.721 217.653 329.366C217.272 329.564 216.862 329.727 216.468 329.904C233.357 296.084 209.726 265.254 193.642 244.303C191.102 240.995 188.703 237.871 186.717 235.061C186.171 234.273 185.475 233.601 184.669 233.084C183.862 232.567 182.961 232.215 182.018 232.049C181.075 231.882 180.108 231.904 179.173 232.113C178.238 232.323 177.354 232.715 176.572 233.269C175.79 233.822 175.125 234.525 174.616 235.336C174.107 236.148 173.764 237.052 173.607 237.997C173.45 238.942 173.482 239.909 173.701 240.842C173.919 241.774 174.321 242.654 174.882 243.431C177.032 246.472 179.516 249.708 182.143 253.133C198.771 274.793 219.467 301.748 199.453 330.211C197.01 333.62 193.981 336.569 190.509 338.921C188.219 340.03 185.99 341.204 183.808 342.365C182.242 343.197 180.703 344.008 179.169 344.783C171.106 347.719 162.692 349.584 154.144 350.331C148.918 350.834 143.669 351.065 138.419 351.025C115.846 301.165 138.852 234.244 139.089 233.564C139.715 231.754 139.598 229.77 138.765 228.045C137.933 226.32 136.451 224.995 134.645 224.359C132.838 223.724 130.853 223.829 129.124 224.652C127.394 225.475 126.061 226.948 125.415 228.751C124.409 231.604 102.168 296.147 122.39 350.132C120.378 349.939 118.378 349.635 116.4 349.223C99.278 344.896 77.1312 335.272 68.8497 314.006C60.062 291.446 68.3449 260.585 93.4611 222.287C94.5155 220.679 94.8882 218.719 94.4971 216.837C94.106 214.954 92.9832 213.305 91.3758 212.25C89.7683 211.196 87.8078 210.823 85.9256 211.214C84.0434 211.605 82.3936 212.728 81.3392 214.335C53.499 256.776 44.7528 292.085 55.3408 319.268C56.6807 322.675 58.3293 325.953 60.2659 329.061C51.0702 324.913 42.9949 318.635 36.7086 310.745C29.7299 302.046 24.9236 291.81 22.6876 280.884C20.4516 269.959 20.8501 258.657 23.8502 247.916C28.4701 231.803 37.9679 216.367 52.0843 202.044C111.686 141.565 126.952 122.424 119.116 41.8976C119.086 41.6557 119.122 41.4104 119.218 41.1864C119.314 40.9624 119.467 40.7676 119.662 40.6217C119.889 40.4375 120.172 40.3366 120.464 40.3359C120.684 40.3411 120.902 40.3837 121.108 40.4622L162.874 54.8531C163.837 55.1958 164.663 55.8423 165.226 56.6951C165.79 57.5478 166.062 58.5608 166 59.5812C164.697 81.1288 164.474 135.021 190.516 169.982C196.32 177.774 203.031 185.451 210.138 193.581C235.82 222.961 262.377 253.341 249.025 292.246C245.338 302.753 239.1 312.18 230.872 319.682Z" fill="white"/>
<path d="M216.418 324.516C212.448 328.3 208.005 331.555 203.199 334.2C202.819 334.398 202.409 334.561 202.015 334.738C218.904 300.918 195.273 270.088 179.189 249.137C176.649 245.829 174.25 242.705 172.264 239.895C171.718 239.107 171.022 238.435 170.216 237.918C169.409 237.401 168.508 237.049 167.565 236.883C166.622 236.716 165.655 236.738 164.72 236.947C163.785 237.157 162.901 237.549 162.119 238.103C161.337 238.656 160.672 239.359 160.163 240.17C159.654 240.982 159.311 241.886 159.154 242.831C158.997 243.776 159.029 244.743 159.248 245.676C159.466 246.608 159.868 247.488 160.429 248.265C162.578 251.306 165.063 254.542 167.689 257.967C184.318 279.626 205.014 306.582 185 335.045C182.557 338.454 179.528 341.403 176.055 343.755C173.766 344.864 171.537 346.038 169.355 347.199C167.789 348.031 166.25 348.842 164.716 349.617C156.653 352.553 148.239 354.418 139.691 355.165C134.465 355.668 129.216 355.899 123.966 355.859C101.393 305.999 124.399 239.078 124.636 238.398C125.261 236.588 125.145 234.604 124.312 232.879C123.48 231.154 121.998 229.829 120.192 229.193C118.385 228.558 116.4 228.663 114.671 229.486C112.941 230.308 111.608 231.782 110.962 233.585C109.956 236.438 87.7152 300.981 107.937 354.966C105.925 354.773 103.925 354.469 101.947 354.057C84.8249 349.73 62.6781 340.106 54.3966 318.84C45.6089 296.28 53.8918 265.419 79.008 227.121C80.0624 225.513 80.435 223.553 80.044 221.671C79.6529 219.788 78.5301 218.139 76.9227 217.084C75.3152 216.03 73.3547 215.657 71.4725 216.048C69.5902 216.439 67.9405 217.562 66.8861 219.169C39.0459 261.61 30.2997 296.919 40.8877 324.102C42.2276 327.509 43.8762 330.787 45.8128 333.895C36.6171 329.747 28.5418 323.469 22.2555 315.579C15.2768 306.88 10.4705 296.644 8.23447 285.718C5.99843 274.793 6.39697 263.491 9.39709 252.75C14.017 236.637 23.5148 221.201 37.6312 206.878C97.2325 146.399 112.499 121.258 104.662 40.7316C104.633 40.4897 104.669 40.2444 104.764 40.0204C104.86 39.7963 105.014 39.6016 105.209 39.4556C105.435 39.2715 105.718 39.1706 106.01 39.1699C106.231 39.175 106.449 39.2177 106.655 39.2961L148.421 53.6871C149.384 54.0298 150.209 54.6763 150.773 55.529C151.337 56.3818 151.609 57.3947 151.547 58.4152C150.244 79.9628 150.021 139.855 176.062 174.816C181.867 182.608 188.578 190.285 195.685 198.415C221.367 227.795 247.924 258.175 234.572 297.08C230.885 307.587 224.647 317.014 216.418 324.516Z" fill="#FCF3DF"/>
<path d="M106.371 39.0684C106.371 39.0684 116.134 82.2968 92.3175 138.42C86.5797 151.938 46.2625 187.638 40.3721 203.161C34.2404 219.316 17.1254 230.385 8.6428 249.722C3.99652 260.31 7.31826 272.266 6.73574 281.206C4.76905 311.402 35.7826 336.074 47.6008 333.049C10.8661 290.511 13.5345 267.361 47.6008 224.072C81.667 180.783 94.248 178.213 111.574 142.678C128.899 107.143 124.155 63.7824 122.514 46.5523C113.158 39.5052 106.371 39.0684 106.371 39.0684Z" fill="#D5CAB2"/>
<path d="M85.3938 225.443C85.3938 225.443 16.9743 304.516 82.7156 345.535C48.9767 305.415 85.3938 225.443 85.3938 225.443Z" fill="#D5CAB2"/>
<path d="M129.923 236.775C129.923 236.775 123.532 294.698 129.923 324.637C136.314 354.576 158.106 354.491 158.106 354.491C158.106 354.491 130.378 356.813 128.563 357.601C100.016 309.508 129.923 236.775 129.923 236.775Z" fill="#D5CAB2"/>
<path d="M174.797 238.006C174.797 238.006 184.078 244.235 197.062 257.449C216.457 277.184 239.37 310.834 202.156 339.73C228.623 300.19 174.797 238.006 174.797 238.006Z" fill="#D5CAB2"/>
<path d="M424.452 213.57C420.604 266.29 394.238 294.201 371.419 308.61C336.839 330.45 288.884 334.415 245.832 320.289C328.33 299.009 395.857 241.154 424.452 213.57Z" fill="white"/>
<path d="M430.705 306.136C414.739 334.488 370.122 361.93 309.931 355.224C295.26 353.585 276.679 347.349 259.879 337.536C272.987 340.501 286.384 342.004 299.823 342.019C329.565 342.019 358.477 334.577 381.93 319.763C411.888 300.848 431.389 271.297 438.996 234.477C442.96 256.223 443.555 283.317 430.705 306.136Z" fill="white"/>
<path d="M367.179 279.501C335.519 301.335 288.593 331.671 245.832 317.642L246.398 317.497C292.029 310.938 401.23 220.365 423.775 216.354C423.675 225.345 398.839 257.661 367.179 279.501Z" fill="white"/>
<path d="M307.224 355.227C292.553 353.587 273.972 347.352 257.172 337.539C270.28 340.503 283.677 342.007 297.116 342.022C326.858 342.022 350.695 334.757 374.15 319.941C404.108 301.026 423.281 296.582 430.89 259.762C434.85 281.509 386.152 354.073 307.224 355.227Z" fill="white"/>
<path d="M157.567 224.383L156.18 222.996" stroke="#A79D85" stroke-width="13.8695" stroke-linecap="round" stroke-linejoin="round"/>
<path d="M188.341 168.956C163.755 136.174 164.069 84.7279 165.298 64.3409C165.46 61.7759 164.786 59.2273 163.375 57.0725C161.964 54.9176 159.891 53.2711 157.464 52.3767L115.668 38.0196C114.296 37.5222 112.818 37.3788 111.375 37.6029C109.932 37.8269 108.569 38.4111 107.415 39.3007C106.261 40.1902 105.354 41.3561 104.778 42.6889C104.202 44.0217 103.976 45.4779 104.122 46.921C111.811 125.334 96.7703 141.893 39.3063 199.776C22.795 216.526 13.7561 232.965 9.32099 248.279C6.04389 260.016 5.61522 272.357 8.07047 284.29C10.5257 296.223 15.7949 307.408 23.4459 316.929C30.7231 325.985 40.1246 333.133 50.8281 337.747C58.0593 341.025 65.2905 344.375 72.5217 347.725C79.078 350.788 85.6343 354.593 92.7209 356.292C103.428 358.702 114.356 360.009 125.333 360.192C137.062 360.98 148.843 360.248 160.381 358.015C172.602 355.263 182.499 348.732 194.237 344.832C200.625 342.702 206.998 340.403 213.096 337.269C218.448 334.356 223.399 330.769 227.824 326.597C236.91 318.36 243.8 308.018 247.879 296.495C266.342 242.919 215.097 204.633 188.341 168.956Z" stroke="#A79D85" stroke-width="13" stroke-linecap="round" stroke-linejoin="round"/>
<path d="M172.4 242.625C187.782 264.31 223.193 299.326 196.79 336.856C175.443 367.181 114.54 360.479 106.802 358.397C60.3217 346.669 22.5628 308.948 79.8001 221.754" stroke="#A79D85" stroke-width="13" stroke-linecap="round" stroke-linejoin="round"/>
<path d="M124.151 232.852C124.151 232.852 99.1772 303.643 124.151 357.167" stroke="#A79D85" stroke-width="13" stroke-linecap="round" stroke-linejoin="round"/>
<path d="M444.467 188.771C444.448 188.731 444.419 188.697 444.399 188.66C444.189 188.222 443.94 187.805 443.656 187.411C443.593 187.328 443.517 187.258 443.459 187.179C443.227 186.885 442.976 186.607 442.707 186.346C442.582 186.227 442.456 186.116 442.323 186.008C442.08 185.805 441.825 185.616 441.56 185.442C441.421 185.353 441.292 185.259 441.151 185.177C440.775 184.961 440.382 184.775 439.976 184.622C439.868 184.582 439.76 184.554 439.649 184.517C439.286 184.395 438.915 184.299 438.539 184.23C438.385 184.202 438.229 184.19 438.071 184.17C437.745 184.131 437.417 184.112 437.089 184.113C436.932 184.113 436.775 184.113 436.618 184.124C436.145 184.151 435.661 184.213 435.2 184.326C430.373 185.536 434.5 184.325 434.5 184.325C401.5 225.5 337.095 282.209 230.039 305.377C225.887 306.276 222.876 307.245 222.483 307.826C222.345 307.848 222.411 307.797 222.27 307.826C222.08 307.864 221.617 307.993 221.429 308.044C221.203 308.107 220.982 308.19 220.77 308.292C220.632 308.352 220.493 308.398 220.346 308.466C219.908 308.679 219.491 308.93 219.098 309.217C219.076 309.234 219.052 309.241 219.03 309.26C218.951 309.32 218.891 309.399 218.816 309.457C218.527 309.689 218.254 309.94 217.999 310.209C217.875 310.348 217.761 310.477 217.647 310.615C217.447 310.862 217.262 311.121 217.092 311.389C217.001 311.528 216.902 311.667 216.815 311.825C216.627 312.165 216.465 312.518 216.331 312.883C216.299 312.968 216.252 313.045 216.225 313.13C216.079 313.554 215.969 313.989 215.895 314.431C215.895 314.463 215.895 314.496 215.887 314.531C215.865 314.66 215.865 314.796 215.852 314.929C215.814 315.277 215.799 315.628 215.807 315.979C215.807 316.147 215.829 316.312 215.841 316.477C215.869 316.795 215.916 317.111 215.98 317.424C216.015 317.595 216.053 317.765 216.102 317.933C216.198 318.268 216.315 318.597 216.452 318.918C216.506 319.044 216.546 319.174 216.608 319.299C216.821 319.737 217.074 320.155 217.363 320.547C217.382 320.574 217.393 320.602 217.408 320.625C300.661 431.486 512.282 333.57 444.467 188.771Z" fill="white"/>
<path d="M416.887 232.073C412.504 279.081 388.458 303.53 367.821 315.983C336.552 334.863 293.657 337.542 255.466 324.152C329.518 306.644 390.857 256.19 416.887 232.073Z" fill="#E3DEAD"/>
<path d="M420.802 314.842C406.034 339.872 365.7 363.575 312.072 356.503C299 354.775 282.521 348.873 267.696 339.808C279.35 342.692 291.287 344.275 303.289 344.53C329.848 345.065 355.799 338.939 377.01 326.133C404.1 309.781 422.047 283.745 429.503 251.002C432.643 270.491 432.688 294.696 420.802 314.842Z" fill="#FCF3DF"/>
<path d="M364.558 289.915C335.894 308.842 293.445 335.093 255.514 321.789L256.021 321.668C296.884 316.632 396.028 237.718 416.232 234.543C415.982 242.58 393.224 270.988 364.558 289.915Z" fill="#C1BD98"/>
<path d="M309.658 356.455C296.586 354.727 280.107 348.825 265.283 339.76C276.936 342.644 288.873 344.228 300.875 344.482C327.434 345.018 348.846 338.96 370.061 326.153C397.152 309.801 414.354 306.177 421.81 273.436C424.951 292.924 380.16 356.845 309.658 356.455Z" fill="#D5CAB2"/>
<path d="M429.921 213.296C429.921 213.296 343.636 304.993 237.863 318.622C314.739 359.822 431.533 334.099 429.921 213.296Z" stroke="#A79D85" stroke-width="13" stroke-linecap="round" stroke-linejoin="round"/>
<path d="M429.9 213.3C429.9 213.3 456.599 274.079 430.386 318.352C414.131 345.753 370.52 370.375 315.047 363.08C289.889 359.771 255.333 343.104 237.86 318.759" stroke="#A79D85" stroke-width="13" stroke-linecap="round" stroke-linejoin="round"/>
</svg>
