<svg width="481" height="276" viewBox="0 0 481 276" fill="none" xmlns="http://www.w3.org/2000/svg">
<path d="M240.096 93.7751C242.896 93.7558 245.704 93.7461 248.52 93.7461C296.907 93.7461 343.19 96.6118 383.148 101.968C394.103 104.061 404.493 106.405 414.215 108.99C439.387 115.682 455.216 121.507 465.035 126.751C476.716 132.759 480.725 137.78 480.727 140.096C480.724 141.225 480.646 140.219 480.713 141.364C481.164 149.065 470.482 156.266 437.989 166.24C434.988 166.959 431.842 167.674 428.545 168.382C380.547 178.692 316.61 184.368 248.513 184.368C245.7 184.368 242.894 184.358 240.096 184.339C237.298 184.358 234.492 184.368 231.679 184.368C163.582 184.368 99.645 178.692 51.6466 168.382C48.3495 167.674 45.2037 166.959 42.2026 166.24C9.70928 156.266 -0.436742 149.065 0.0143027 141.364C0.0813887 140.219 0.00315407 141.225 0 140.096C0.00229282 137.78 3.47555 132.759 15.1561 126.751C24.9754 121.507 40.8043 115.682 65.9768 108.99C75.6991 106.405 86.0886 104.061 97.0435 101.968C137.002 96.6118 183.285 93.7461 231.672 93.7461C234.487 93.7461 237.296 93.7558 240.096 93.7751Z" fill="#FFE4AA"/>
<path d="M23.1235 155.265C25.4799 155.848 27.8439 156.402 30.215 156.927C92.3475 171.666 155.989 179.127 219.853 179.16C293.103 179.16 375.06 177.389 428.236 164.917C435.027 163.324 441.396 161.902 447.313 160.582L447.848 160.463C455.011 158.864 461.843 155.415 462.484 151.036C463.275 145.638 456.222 139.1 447.672 136.144C436.351 132.231 425.381 126.84 408.539 115.588C381.739 97.6822 369.953 83.6083 358.801 70.2915C355.775 66.6783 352.796 63.1208 349.576 59.5576C340.833 49.8859 336.177 44.7321 333.692 41.5884C333.645 41.529 333.558 41.5253 333.504 41.5788C333.453 41.6299 333.369 41.6277 333.32 41.5741C319.011 25.7749 301.204 13.5086 281.274 5.25005C260.335 -0.319505 238.526 -1.489 217.049 1.89133L217.02 1.89577C184.467 6.88286 154.222 22.11 131.731 47.6553C125.583 54.6358 120.234 62.4152 114.608 70.598C114.25 71.1187 113.891 71.6413 113.531 72.1651C107.611 80.7662 101.331 89.7531 93.8088 97.7042C79.8929 112.776 63.2171 124.646 44.7979 132.547C40.8232 134.371 35.2068 137.547 31.1262 141.054C29.0528 142.836 27.7666 144.374 27.1526 145.52C26.9193 145.955 26.8402 146.213 26.8166 146.34C28.1534 149.828 26.519 153.742 23.1235 155.265Z" fill="#C01A38"/>
<path d="M26.8117 146.437C26.808 146.439 26.8046 146.416 26.8124 146.364C26.8192 146.41 26.8153 146.436 26.8117 146.437Z" fill="#C01A38"/>
<path fill-rule="evenodd" clip-rule="evenodd" d="M251.381 0.390769C239.69 -0.440356 227.904 0.0517857 216.216 1.89133L216.188 1.89577C183.635 6.88286 153.389 22.11 130.898 47.6553C124.751 54.6358 119.402 62.4152 113.776 70.598L112.698 72.1651C106.779 80.7662 100.498 89.7531 92.9764 97.7042C79.0605 112.776 62.3847 124.646 43.9655 132.547C39.9908 134.371 34.3744 137.547 30.2937 141.054C26.8977 143.973 20.6944 150.634 22.2911 155.265C24.6475 155.848 27.0115 156.402 29.3825 156.927C38.9886 159.206 78.2791 161.311 87.9526 163.241C88.0188 152.753 99.2777 148.532 108.018 144.521C129.119 135.472 118.574 121.877 134.516 104.614C143.133 95.5072 156.964 86.9318 163.745 77.0807C170.353 67.4815 170.242 56.0507 177.959 47.2905C198.026 24.5022 223.483 8.88308 251.381 0.390769Z" fill="#B0142F"/>
<path d="M47.5252 242.863C41.8777 238.85 28.8406 226.649 17.7724 202.591C10.0947 185.903 7.57639 174.794 4.70777 162.139C3.44099 156.551 2.1059 150.662 0.228027 143.857C51.7095 170.918 159.77 168.943 217.968 169.933L218.484 169.942C225.685 170.064 233.031 170.189 240.466 170.302C247.902 170.189 255.247 170.064 262.449 169.942L262.964 169.933C317.535 169.005 447.107 161.518 480.704 143.857C478.827 150.662 477.491 156.551 476.225 162.139C473.356 174.794 470.838 185.903 463.16 202.591C452.092 226.649 439.055 238.85 433.407 242.863C415.579 255.2 391.279 263.119 369.973 267.059C342.977 272.049 320.323 274.01 288.123 275.097C256.519 276.167 224.438 276.168 192.81 275.097C160.61 274.01 137.955 272.049 110.959 267.059C89.6535 263.119 65.3536 255.2 47.5252 242.863Z" fill="#F2C45F"/>
<path d="M117.032 267.931C114.863 267.561 112.672 267.171 110.452 266.761C109.392 266.565 108.287 266.413 107.142 266.3C98.6563 264.492 90.8523 262.009 83.4026 258.875C70.5162 255.215 58.1244 250.198 47.5252 242.863C41.8777 238.85 28.8406 226.649 17.7724 202.591C10.0947 185.903 7.57639 174.794 4.70777 162.139C3.44099 156.551 2.1059 150.662 0.228027 143.857C21.9065 155.253 53.6173 161.499 87.413 164.986C76.3433 214.883 93.2211 251.338 117.032 267.931Z" fill="#F2AE5F"/>
<path d="M240.607 25.6788C244.822 25.6788 248.238 22.2621 248.238 18.0474C248.238 13.8327 244.822 10.416 240.607 10.416C236.392 10.416 232.976 13.8327 232.976 18.0474C232.976 22.2621 236.392 25.6788 240.607 25.6788Z" fill="#991930"/>
<path d="M304.93 26.7691C304.93 30.9838 301.513 34.4005 297.299 34.4005C293.084 34.4005 289.667 30.9838 289.667 26.7691C289.667 22.5543 293.084 19.1376 297.299 19.1376C301.513 19.1376 304.93 22.5543 304.93 26.7691Z" fill="#991930"/>
<path d="M328.92 48.5741C328.92 52.7888 325.503 56.2055 321.289 56.2055C317.074 56.2055 313.657 52.7888 313.657 48.5741C313.657 44.3594 317.074 40.9427 321.289 40.9427C325.503 40.9427 328.92 44.3594 328.92 48.5741Z" fill="#991930"/>
<path d="M315.839 85.6415C315.839 89.8563 312.422 93.2729 308.207 93.2729C303.993 93.2729 300.576 89.8563 300.576 85.6415C300.576 81.4268 303.993 78.0101 308.207 78.0101C312.422 78.0101 315.839 81.4268 315.839 85.6415Z" fill="#991930"/>
<path d="M288.579 64.9292C292.794 64.9292 296.21 61.5125 296.21 57.2978C296.21 53.0831 292.794 49.6664 288.579 49.6664C284.364 49.6664 280.948 53.0831 280.948 57.2978C280.948 61.5125 284.364 64.9292 288.579 64.9292Z" fill="#991930"/>
<path d="M280.948 90.0054C280.948 94.2201 277.531 97.6368 273.317 97.6368C269.102 97.6368 265.685 94.2201 265.685 90.0054C265.685 85.7907 269.102 82.374 273.317 82.374C277.531 82.374 280.948 85.7907 280.948 90.0054Z" fill="#991930"/>
<path d="M251.516 71.4699C255.73 71.4699 259.147 68.0532 259.147 63.8385C259.147 59.6238 255.73 56.2071 251.516 56.2071C247.301 56.2071 243.884 59.6238 243.884 63.8385C243.884 68.0532 247.301 71.4699 251.516 71.4699Z" fill="#991930"/>
<path d="M262.416 40.9432C266.631 40.9432 270.048 37.5265 270.048 33.3118C270.048 29.0971 266.631 25.6804 262.416 25.6804C258.201 25.6804 254.785 29.0971 254.785 33.3118C254.785 37.5265 258.201 40.9432 262.416 40.9432Z" fill="#991930"/>
<path d="M372.53 98.727C372.53 102.942 369.113 106.358 364.899 106.358C360.684 106.358 357.267 102.942 357.267 98.727C357.267 94.5123 360.684 91.0956 364.899 91.0956C369.113 91.0956 372.53 94.5123 372.53 98.727Z" fill="#991930"/>
<path d="M353.998 136.883C358.213 136.883 361.63 133.466 361.63 129.252C361.63 125.037 358.213 121.62 353.998 121.62C349.784 121.62 346.367 125.037 346.367 129.252C346.367 133.466 349.784 136.883 353.998 136.883Z" fill="#991930"/>
<path d="M337.64 107.447C337.64 111.661 334.223 115.078 330.008 115.078C325.794 115.078 322.377 111.661 322.377 107.447C322.377 103.232 325.794 99.8152 330.008 99.8152C334.223 99.8152 337.64 103.232 337.64 107.447Z" fill="#991930"/>
<path d="M312.561 143.426C316.776 143.426 320.192 140.009 320.192 135.794C320.192 131.58 316.776 128.163 312.561 128.163C308.346 128.163 304.929 131.58 304.929 135.794C304.929 140.009 308.346 143.426 312.561 143.426Z" fill="#991930"/>
<path d="M296.21 113.987C296.21 118.202 292.794 121.619 288.579 121.619C284.364 121.619 280.948 118.202 280.948 113.987C280.948 109.773 284.364 106.356 288.579 106.356C292.794 106.356 296.21 109.773 296.21 113.987Z" fill="#991930"/>
<path d="M343.09 84.5513C347.304 84.5513 350.721 81.1346 350.721 76.9199C350.721 72.7052 347.304 69.2885 343.09 69.2885C338.875 69.2885 335.458 72.7052 335.458 76.9199C335.458 81.1346 338.875 84.5513 343.09 84.5513Z" fill="#991930"/>
<path d="M372.53 155.419C372.53 159.633 369.113 163.05 364.899 163.05C360.684 163.05 357.267 159.633 357.267 155.419C357.267 151.204 360.684 147.787 364.899 147.787C369.113 147.787 372.53 151.204 372.53 155.419Z" fill="#991930"/>
<path d="M391.062 130.342C395.276 130.342 398.693 126.926 398.693 122.711C398.693 118.496 395.276 115.08 391.062 115.08C386.847 115.08 383.43 118.496 383.43 122.711C383.43 126.926 386.847 130.342 391.062 130.342Z" fill="#991930"/>
<path d="M337.64 159.778C337.64 163.993 334.223 167.41 330.008 167.41C325.794 167.41 322.377 163.993 322.377 159.778C322.377 155.564 325.794 152.147 330.008 152.147C334.223 152.147 337.64 155.564 337.64 159.778Z" fill="#991930"/>
<path d="M423.767 152.147C427.982 152.147 431.399 148.731 431.399 144.516C431.399 140.301 427.982 136.885 423.767 136.885C419.552 136.885 416.136 140.301 416.136 144.516C416.136 148.731 419.552 152.147 423.767 152.147Z" fill="#991930"/>
<path d="M232.976 37.6736C232.976 41.8883 229.559 45.305 225.345 45.305C221.13 45.305 217.713 41.8883 217.713 37.6736C217.713 33.4589 221.13 30.0422 225.345 30.0422C229.559 30.0422 232.976 33.4589 232.976 37.6736Z" fill="#991930"/>
<path d="M241.7 90.0054C241.7 94.2201 238.283 97.6368 234.068 97.6368C229.854 97.6368 226.437 94.2201 226.437 90.0054C226.437 85.7907 229.854 82.374 234.068 82.374C238.283 82.374 241.7 85.7907 241.7 90.0054Z" fill="#991930"/>
<path d="M207.901 75.8297C212.116 75.8297 215.533 72.413 215.533 68.1983C215.533 63.9836 212.116 60.5669 207.901 60.5669C203.687 60.5669 200.27 63.9836 200.27 68.1983C200.27 72.413 203.687 75.8297 207.901 75.8297Z" fill="#991930"/>
<path d="M276.586 140.156C276.586 144.371 273.17 147.788 268.955 147.788C264.74 147.788 261.323 144.371 261.323 140.156C261.323 135.942 264.74 132.525 268.955 132.525C273.17 132.525 276.586 135.942 276.586 140.156Z" fill="#991930"/>
<path d="M251.516 121.619C255.73 121.619 259.147 118.202 259.147 113.987C259.147 109.773 255.73 106.356 251.516 106.356C247.301 106.356 243.884 109.773 243.884 113.987C243.884 118.202 247.301 121.619 251.516 121.619Z" fill="#991930"/>
<path d="M298.391 161.959C298.391 166.174 294.975 169.591 290.76 169.591C286.545 169.591 283.128 166.174 283.128 161.959C283.128 157.745 286.545 154.328 290.76 154.328C294.975 154.328 298.391 157.745 298.391 161.959Z" fill="#991930"/>
<path d="M155.576 58.3865C159.79 58.3865 163.207 54.9698 163.207 50.755C163.207 46.5403 159.79 43.1236 155.576 43.1236C151.361 43.1236 147.944 46.5403 147.944 50.755C147.944 54.9698 151.361 58.3865 155.576 58.3865Z" fill="#991930"/>
<path d="M198.094 96.5461C198.094 100.761 194.677 104.178 190.462 104.178C186.248 104.178 182.831 100.761 182.831 96.5461C182.831 92.3314 186.248 88.9147 190.462 88.9147C194.677 88.9147 198.094 92.3314 198.094 96.5461Z" fill="#991930"/>
<path d="M153.391 88.9132C157.605 88.9132 161.022 85.4965 161.022 81.2817C161.022 77.067 157.605 73.6503 153.391 73.6503C149.176 73.6503 145.759 77.067 145.759 81.2817C145.759 85.4965 149.176 88.9132 153.391 88.9132Z" fill="#991930"/>
<path d="M235.161 140.156C235.161 144.371 231.744 147.788 227.53 147.788C223.315 147.788 219.898 144.371 219.898 140.156C219.898 135.942 223.315 132.525 227.53 132.525C231.744 132.525 235.161 135.942 235.161 140.156Z" fill="#991930"/>
<path d="M214.444 121.619C218.659 121.619 222.076 118.202 222.076 113.987C222.076 109.773 218.659 106.356 214.444 106.356C210.229 106.356 206.813 109.773 206.813 113.987C206.813 118.202 210.229 121.619 214.444 121.619Z" fill="#991930"/>
<path d="M256.966 161.959C256.966 166.174 253.549 169.591 249.335 169.591C245.12 169.591 241.703 166.174 241.703 161.959C241.703 157.745 245.12 154.328 249.335 154.328C253.549 154.328 256.966 157.745 256.966 161.959Z" fill="#991930"/>
<path d="M199.182 51.8437C203.397 51.8437 206.813 48.427 206.813 44.2123C206.813 39.9976 203.397 36.5809 199.182 36.5809C194.967 36.5809 191.55 39.9976 191.55 44.2123C191.55 48.427 194.967 51.8437 199.182 51.8437Z" fill="#991930"/>
<path d="M200.275 131.431C200.275 135.645 196.858 139.062 192.643 139.062C188.428 139.062 185.012 135.645 185.012 131.431C185.012 127.216 188.428 123.799 192.643 123.799C196.858 123.799 200.275 127.216 200.275 131.431Z" fill="#991930"/>
<path d="M159.934 139.062C164.148 139.062 167.565 135.645 167.565 131.431C167.565 127.216 164.148 123.799 159.934 123.799C155.719 123.799 152.302 127.216 152.302 131.431C152.302 135.645 155.719 139.062 159.934 139.062Z" fill="#991930"/>
<path d="M208.99 159.778C208.99 163.993 205.573 167.41 201.359 167.41C197.144 167.41 193.727 163.993 193.727 159.778C193.727 155.564 197.144 152.147 201.359 152.147C205.573 152.147 208.99 155.564 208.99 159.778Z" fill="#991930"/>
<path d="M131.586 132.523C135.8 132.523 139.217 129.107 139.217 124.892C139.217 120.677 135.8 117.26 131.586 117.26C127.371 117.26 123.954 120.677 123.954 124.892C123.954 129.107 127.371 132.523 131.586 132.523Z" fill="#991930"/>
<path d="M110.877 116.168C110.877 120.383 107.461 123.8 103.246 123.8C99.0313 123.8 95.6146 120.383 95.6146 116.168C95.6146 111.954 99.0313 108.537 103.246 108.537C107.461 108.537 110.877 111.954 110.877 116.168Z" fill="#991930"/>
<path d="M157.749 165.231C161.963 165.231 165.38 161.814 165.38 157.6C165.38 153.385 161.963 149.968 157.749 149.968C153.534 149.968 150.117 153.385 150.117 157.6C150.117 161.814 153.534 165.231 157.749 165.231Z" fill="#991930"/>
<path d="M73.8019 137.975C73.8019 142.19 70.3852 145.607 66.1705 145.607C61.9558 145.607 58.5391 142.19 58.5391 137.975C58.5391 133.761 61.9558 130.344 66.1705 130.344C70.3852 130.344 73.8019 133.761 73.8019 137.975Z" fill="#991930"/>
<path d="M94.5183 149.965C98.733 149.965 102.15 146.548 102.15 142.333C102.15 138.118 98.733 134.702 94.5183 134.702C90.3036 134.702 86.8869 138.118 86.8869 142.333C86.8869 146.548 90.3036 149.965 94.5183 149.965Z" fill="#991930"/>
<path d="M174.104 107.447C174.104 111.661 170.687 115.078 166.472 115.078C162.257 115.078 158.841 111.661 158.841 107.447C158.841 103.232 162.257 99.8152 166.472 99.8152C170.687 99.8152 174.104 103.232 174.104 107.447Z" fill="#991930"/>
<path d="M397.604 156.509C401.819 156.509 405.236 153.093 405.236 148.878C405.236 144.663 401.819 141.246 397.604 141.246C393.39 141.246 389.973 144.663 389.973 148.878C389.973 153.093 393.39 156.509 397.604 156.509Z" fill="#991930"/>
<path d="M210.086 25.6788C214.301 25.6788 217.718 22.2621 217.718 18.0474C217.718 13.8327 214.301 10.416 210.086 10.416C205.872 10.416 202.455 13.8327 202.455 18.0474C202.455 22.2621 205.872 25.6788 210.086 25.6788Z" fill="#991930"/>
<path d="M179.558 36.5814C183.772 36.5814 187.189 33.1647 187.189 28.95C187.189 24.7353 183.772 21.3186 179.558 21.3186C175.343 21.3186 171.926 24.7353 171.926 28.95C171.926 33.1647 175.343 36.5814 179.558 36.5814Z" fill="#991930"/>
<path d="M187.189 61.6576C187.189 65.8723 183.772 69.289 179.558 69.289C175.343 69.289 171.926 65.8723 171.926 61.6576C171.926 57.4429 175.343 54.0262 179.558 54.0262C183.772 54.0262 187.189 57.4429 187.189 61.6576Z" fill="#991930"/>
<path d="M134.851 92.1843C134.851 96.399 131.435 99.8157 127.22 99.8157C123.005 99.8157 119.588 96.399 119.588 92.1843C119.588 87.9696 123.005 84.5529 127.22 84.5529C131.435 84.5529 134.851 87.9696 134.851 92.1843Z" fill="#991930"/>
<path d="M134.851 153.238C134.851 157.452 131.435 160.869 127.22 160.869C123.005 160.869 119.588 157.452 119.588 153.238C119.588 149.023 123.005 145.606 127.22 145.606C131.435 145.606 134.851 149.023 134.851 153.238Z" fill="#991930"/>
<path fill-rule="evenodd" clip-rule="evenodd" d="M1.36279 138.51C3.29005 134.843 7.82465 133.434 11.4911 135.361C35.8183 148.148 72.4646 154.806 111.136 158.273C145.049 161.313 179.622 161.841 207.362 162.264C211.068 162.32 214.652 162.375 218.096 162.433L218.622 162.442C218.622 162.442 218.623 162.442 218.624 162.442C225.785 162.564 233.082 162.688 240.466 162.8C247.851 162.688 255.148 162.564 262.31 162.442C262.31 162.442 262.31 162.442 262.31 162.442L262.321 162.442L262.837 162.433C289.877 161.974 333.876 159.422 375.263 154.787C395.955 152.47 415.88 149.645 432.649 146.327C449.645 142.963 462.654 139.229 470.012 135.361C473.678 133.434 478.213 134.843 480.14 138.51C482.068 142.176 480.658 146.711 476.991 148.638C467.551 153.601 452.665 157.657 435.561 161.041C418.231 164.471 397.855 167.351 376.933 169.694C335.093 174.379 290.622 176.963 263.092 177.431L262.576 177.44L262.565 177.44L262.562 177.44C255.367 177.563 248.019 177.688 240.58 177.8L240.466 177.802L240.353 177.8C232.917 177.688 225.573 177.563 218.381 177.44L217.841 177.431C214.428 177.373 210.862 177.319 207.164 177.263C179.467 176.842 144.308 176.307 109.796 173.213C70.9041 169.726 31.6662 162.912 4.51192 148.638C0.84545 146.711 -0.564461 142.176 1.36279 138.51Z" fill="#FFE4AA"/>
<path fill-rule="evenodd" clip-rule="evenodd" d="M432.726 184.264C435.619 185.192 437.211 188.289 436.283 191.182C432.31 203.568 425.223 214.492 415.463 220.731C412.904 222.367 409.503 221.619 407.867 219.059C406.231 216.5 406.979 213.099 409.538 211.463C416.503 207.011 422.351 198.603 425.809 187.821C426.737 184.929 429.834 183.336 432.726 184.264Z" fill="white"/>
</svg>
