<svg width="271" height="583" viewBox="0 0 271 583" fill="none" xmlns="http://www.w3.org/2000/svg">
<path fill-rule="evenodd" clip-rule="evenodd" d="M134.956 241.973C138.609 241.973 141.57 244.934 141.57 248.587V406.355C141.57 410.008 138.609 412.969 134.956 412.969C131.303 412.969 128.341 410.008 128.341 406.355V248.587C128.341 244.934 131.303 241.973 134.956 241.973Z" fill="#492170"/>
<path d="M102.035 3.90496C108.4 0.767305 115.519 -0.519808 122.58 0.190102C129.62 0.897827 136.32 3.56204 141.923 7.88031C141.954 7.90452 141.997 7.90914 142.032 7.89217L142.036 7.8902C148.6 4.77385 155.902 3.54691 163.124 4.34711C170.348 5.14747 177.205 7.94411 182.929 12.4234C188.652 16.9027 193.014 22.8877 195.527 29.7073C196.425 32.1468 194.452 34.5439 191.869 34.8368C184.927 35.6239 179.377 38.2891 175.163 41.4863C171.771 44.0609 169.372 46.8757 167.814 49.0499C167.031 50.1434 166.445 51.0954 166.04 51.8057C165.837 52.1617 165.679 52.4592 165.562 52.6861C165.526 52.7556 165.495 52.8186 165.467 52.8747C165.449 52.9103 165.433 52.9431 165.418 52.973L165.392 53.0278L165.369 53.0745L165.35 53.1144L165.338 53.1394L165.331 53.1551C163.724 56.6178 165.224 60.7292 168.686 62.3418C172.132 63.9472 176.224 62.471 177.855 59.045L177.873 59.0105C177.903 58.9509 177.967 58.8298 178.065 58.6576C178.262 58.3117 178.593 57.7695 179.064 57.111C180.017 55.7812 181.488 54.0611 183.53 52.5115C187.377 49.5923 193.771 46.8383 204.113 49.5526C204.496 49.6529 204.863 49.816 205.157 50.08C206.346 51.1477 207.459 52.3066 208.486 53.5494C219.378 66.5589 218.758 84.8024 209.338 97.6297C207.056 100.737 207.589 105.437 210.715 107.694C210.977 107.883 211.239 108.076 211.501 108.272C220.694 115.165 230.309 127.187 226.079 144.799L226.072 144.827C224.84 149.863 222.609 154.6 219.512 158.758C219.494 158.781 219.477 158.804 219.459 158.827C218.84 159.637 217.669 159.692 216.755 159.24C216.278 159.004 215.765 158.819 215.222 158.695C202.806 155.857 184.864 159.406 176.649 174.013C174.775 177.344 175.956 181.563 179.287 183.437C182.619 185.311 186.838 184.129 188.711 180.798C192.952 173.259 203.519 170.217 212.138 172.187C212.692 172.314 213.215 172.587 213.545 173.05C216.884 177.739 219.07 183.34 219.706 189.021C220.474 195.882 219.087 203.237 214.658 209.846C211.339 214.797 206.497 219.062 200.093 222.384C198.411 223.257 197.213 224.847 196.802 226.696C195.814 231.141 194.098 235.411 191.706 239.327C187.974 245.435 182.726 250.474 176.472 253.954C170.217 257.435 163.169 259.238 156.012 259.189C148.857 259.14 141.837 257.242 135.633 253.679L135.625 253.675L134.096 252.775C134.082 252.766 134.064 252.765 134.048 252.772L127.982 255.368L127.976 255.37C121.62 258.083 114.636 258.981 107.801 257.964C100.965 256.946 94.5456 254.053 89.2553 249.607C83.9649 245.16 80.0112 239.334 77.8331 232.776C77.0086 230.293 76.4508 227.743 76.1615 225.167C76.0491 224.165 76.4092 223.189 76.8377 222.277C77.2573 221.384 77.6853 220.567 78.119 219.819C78.5527 219.071 80.6617 215.539 83.2338 213.879C85.1723 212.628 87.2498 211.95 88.7665 211.808C90.5716 211.64 92.2406 211.899 93.4906 212.227C94.1028 212.387 94.576 212.554 94.8659 212.666C95.0097 212.722 95.1045 212.763 95.1447 212.78L95.1571 212.786C98.5754 214.418 102.679 212.997 104.351 209.588C106.034 206.157 104.617 202.011 101.186 200.328C101.186 200.328 101.183 200.326 101.178 200.324L101.17 200.32L101.153 200.312L101.113 200.293C101.084 200.279 101.051 200.263 101.013 200.245C100.937 200.21 100.844 200.167 100.733 200.119C100.512 200.021 100.221 199.898 99.8657 199.761C99.1585 199.487 98.1847 199.149 96.9979 198.838C94.6496 198.223 91.3116 197.671 87.4819 198.028C81.1271 198.62 74.3204 201.638 68.7814 208.915C66.8507 211.451 63.2882 212.447 60.8764 210.363C59.8973 209.517 58.9593 208.62 58.0664 207.676C54.0148 203.389 51.0018 198.229 49.2597 192.593C47.5176 186.958 47.0931 180.998 48.0187 175.172C48.4031 172.753 49.016 170.385 49.845 168.096C50.6794 165.793 50.2209 163.16 48.4187 161.501L47.7176 160.856C28.9715 143.574 25.8366 114.246 42.1759 94.141L42.1108 94.2256L42.2421 94.0597L42.1759 94.141C44.2889 91.4 46.736 88.975 49.4414 86.9099C50.3863 86.1887 51.5647 85.843 52.7499 85.9327C56.1484 86.1897 58.9773 86.823 61.3214 87.6407C61.3822 87.6619 61.4342 87.7019 61.4707 87.7548L61.4915 87.7849C61.5596 87.8834 61.6861 87.9223 61.798 87.8799C61.8565 87.8577 61.9214 87.8578 61.9799 87.8799C64.7395 88.9228 66.7835 90.215 68.2681 91.4037C69.8921 92.7038 70.9505 93.9647 71.5716 94.831C71.8819 95.2638 72.0802 95.5943 72.1823 95.7753C72.2215 95.8448 72.2462 95.8916 72.2572 95.913C73.8574 99.3256 77.9055 100.836 81.3568 99.2858C84.8403 97.7214 86.3977 93.6312 84.8384 90.1467L84.8307 90.1297L84.8268 90.1209L84.8184 90.1024L84.7995 90.0614C84.7905 90.0417 84.7806 90.0205 84.7698 89.9977C84.7647 89.9868 84.7593 89.9754 84.7538 89.9638C84.7197 89.8919 84.6782 89.8066 84.6289 89.7086C84.5304 89.5127 84.4008 89.2661 84.2372 88.976C83.9102 88.3963 83.4455 87.6397 82.8197 86.7668C81.5685 85.0217 79.6626 82.7968 76.918 80.5995C72.4754 77.0427 66.0742 73.7517 57.2098 72.5004C54.8357 72.1652 52.7639 70.5222 52.4518 68.145C52.0301 64.9321 52.069 61.648 52.5916 58.392C53.9882 49.6897 58.7291 41.8775 65.8027 36.6208L65.7809 36.6373L65.8211 36.6072L65.8027 36.6208C69.0921 34.1473 72.8615 32.3876 76.8702 31.4543C77.0305 31.417 77.191 31.381 77.3517 31.3464C79.81 30.8171 81.8634 29.0158 82.612 26.6152C83.5578 23.5817 84.8859 20.6647 86.5756 17.9375C90.3131 11.9048 95.6693 7.04266 102.035 3.90496Z" fill="#9351FF"/>
<path d="M37.8254 100.478C26.627 120.035 30.8607 145.315 47.7177 160.855L48.4187 161.501C50.221 163.159 50.6794 165.793 49.845 168.096C49.016 170.384 48.4031 172.753 48.0187 175.172C47.0931 180.997 47.5177 186.957 49.2597 192.593C51.0018 198.228 54.0148 203.388 58.0665 207.675C58.9593 208.62 59.8973 209.516 60.8764 210.362C63.2883 212.446 66.8508 211.45 68.7814 208.914C74.3204 201.638 81.1271 198.62 87.4819 198.027C91.3116 197.67 94.6495 198.222 96.9979 198.838C98.1847 199.148 99.1585 199.486 99.8657 199.76C100.221 199.897 100.512 200.02 100.733 200.118C100.844 200.167 100.937 200.21 101.013 200.245C101.051 200.262 101.084 200.278 101.113 200.292L101.153 200.311L101.17 200.319L101.178 200.323L101.186 200.327C104.617 202.01 106.034 206.156 104.351 209.587C102.679 212.997 98.5754 214.418 95.1572 212.785L95.1447 212.78C95.1045 212.762 95.0097 212.721 94.8659 212.665C94.5761 212.553 94.1028 212.386 93.4906 212.226C92.2407 211.899 90.5717 211.639 88.7664 211.808C87.2498 211.949 85.1723 212.628 83.2338 213.879C80.6617 215.538 78.5527 219.07 78.119 219.818C77.6853 220.566 77.2573 221.384 76.8377 222.277C76.4092 223.188 76.0491 224.165 76.1615 225.166C76.4508 227.742 77.0087 230.293 77.8331 232.775C80.0112 239.334 83.965 245.16 89.2553 249.606C94.5456 254.053 100.965 256.945 107.801 257.963C110.889 258.423 114.007 258.491 117.084 258.178C117.19 258.135 117.295 258.09 117.4 258.045L127.694 253.592C128.024 253.451 128.361 253.332 128.705 253.238C127.405 250.921 124.052 250.285 120.294 249.572C113.875 248.355 106.275 246.913 105.698 236.496C105.236 228.134 110.347 223.326 114.944 219.002C119.733 214.496 123.963 210.516 120.747 203.591C117.159 195.865 108.477 193.316 99.4639 190.669C92.6407 188.665 85.6273 186.606 80.4896 182.203C72.2364 175.131 71.6856 171.344 70.6632 164.315C70.2083 161.188 69.6601 157.419 68.2991 152.434C66.3523 145.304 61.2723 141.274 57.0057 137.889C51.5842 133.588 47.476 130.329 52.7784 123.074C56.6739 117.745 64.2945 119.037 72.9327 120.502C85.3056 122.6 99.766 125.051 108.356 108.904C116.95 92.749 108.041 85.1822 99.1349 77.6171C92.9233 72.3411 86.7128 67.066 86.4404 58.8794C86.0747 47.8948 90.8315 44.8319 95.7994 41.633C99.8431 39.0292 104.027 36.3354 105.702 29.2064C107.976 19.5235 105.87 9.4489 103.877 3.05664C103.257 3.32227 102.642 3.60488 102.035 3.90434C95.6693 7.04203 90.3131 11.9042 86.5756 17.9369C84.886 20.6641 83.5578 23.5811 82.6119 26.6145C81.8634 29.0152 79.81 30.8165 77.3518 31.3457C77.191 31.3804 77.0305 31.4163 76.8703 31.4536C72.8615 32.387 69.0922 34.1467 65.8027 36.6202C58.7292 41.8769 53.9883 49.6891 52.5916 58.3914C52.069 61.6474 52.0301 64.9315 52.4518 68.1443C52.7639 70.5216 54.8358 72.1646 57.2099 72.4998C66.0742 73.7511 72.4755 77.0421 76.918 80.5989C79.6627 82.7962 81.5686 85.0211 82.8197 86.7662C83.4455 87.639 83.9102 88.3957 84.2372 88.9753C84.4008 89.2654 84.5304 89.5121 84.6289 89.708C84.6782 89.806 84.7197 89.8913 84.7539 89.9632L84.7698 89.9971L84.7996 90.0607L84.8184 90.1017L84.8307 90.1291L84.8383 90.146C86.3977 93.6306 84.8404 97.7208 81.3568 99.2852C77.9055 100.835 73.8574 99.325 72.2572 95.9124C72.2462 95.891 72.2215 95.8441 72.1823 95.7747C72.0802 95.5936 71.8819 95.2632 71.5716 94.8303C70.9505 93.9641 69.8921 92.7032 68.2682 91.403C66.7835 90.2144 64.7395 88.9222 61.9799 87.8793C61.9599 87.8717 61.9392 87.8667 61.9183 87.8643C61.8778 87.8597 61.8365 87.8647 61.798 87.8793C61.6861 87.9216 61.5596 87.8827 61.4915 87.7843L61.4708 87.7542C61.4342 87.7012 61.3822 87.6613 61.3214 87.6401C59.1917 86.8972 56.662 86.3065 53.6684 86.0119C53.367 85.9822 53.0609 85.9556 52.75 85.9321C51.9696 85.873 51.1922 86.0027 50.4825 86.304C50.1143 86.4604 49.7642 86.6629 49.4414 86.9093C47.34 88.5133 45.3945 90.3345 43.6403 92.3522C43.0288 93.2072 42.4306 94.097 41.8241 94.999C40.9537 96.2937 40.0663 97.6137 39.098 98.892L38.9576 99.0808C38.5861 99.5403 38.2083 100.006 37.8254 100.478Z" fill="#7327EF"/>
<path fill-rule="evenodd" clip-rule="evenodd" d="M40.8853 417.676C48.3649 407.055 59.8453 400.059 74.9363 400.059H189.996C205.16 400.059 217.012 407.101 224.651 417.835C232.158 428.382 235.463 442.236 234.64 456.25C233.085 482.733 221.094 526.217 210.382 548.971C202.374 566.002 188.111 582.068 166.385 582.068H97.2784C75.9568 582.068 58.0106 566.918 50.8627 547.968C46.6785 536.909 41.5067 520.55 37.3865 503.676C33.2924 486.908 30.0996 469.09 30.1551 455.317C30.2113 441.646 33.5745 428.056 40.8853 417.676ZM190.005 436.148C186.285 437.025 183.98 440.751 184.857 444.471C186.277 450.498 185.921 457.627 185.056 463.604C184.578 466.909 183.956 470.21 183.02 473.419L183.017 473.429L183.016 473.432L183.016 473.433L183.015 473.436C181.927 477.096 184.009 480.947 187.669 482.039C191.331 483.132 195.186 481.049 196.279 477.387C185.209 474.083 196.277 477.395 196.28 477.384L196.283 477.373L196.289 477.353L196.307 477.293C196.321 477.244 196.34 477.178 196.364 477.096C196.411 476.931 196.475 476.699 196.554 476.406C196.712 475.821 196.927 474.989 197.17 473.953C197.656 471.887 198.262 468.982 198.753 465.587C199.716 458.935 200.333 449.802 198.328 441.296C197.451 437.576 193.724 435.271 190.005 436.148Z" fill="#F2D25F"/>
<path d="M74.9363 400.059C59.8453 400.059 48.3649 407.055 40.8853 417.676C33.5745 428.056 30.2113 441.646 30.1551 455.317C30.0996 469.09 33.2924 486.908 37.3865 503.676C41.5067 520.55 46.6785 536.909 50.8627 547.968C58.0106 566.918 75.9568 582.068 97.2783 582.068H119.423C98.1012 582.068 80.1549 566.918 73.007 547.968C68.8228 536.909 63.651 520.55 59.5308 503.676C55.4367 486.908 52.244 469.09 52.2994 455.317C52.3556 441.646 55.7188 428.056 63.0296 417.676C70.5092 407.055 81.9897 400.059 97.0806 400.059H74.9363Z" fill="#EAC33B"/>
<path d="M151.172 400.058H185.201C195.539 368.068 208.481 347.311 221.308 332.328C231.38 320.562 241.178 312.478 250.34 304.921C254.15 301.777 257.851 298.724 261.415 295.535L261.419 295.532C272.435 285.66 271.374 270.259 268.491 259.845C266.967 254.34 264.709 249.283 262.371 245.547C261.225 243.715 259.886 241.92 258.396 240.542C257.658 239.859 256.646 239.056 255.38 238.471C254.132 237.895 252.037 237.269 249.609 237.948L247.752 238.47L247.712 238.481C219.902 246.473 195.444 263.293 178.029 286.403C160.615 309.512 151.189 337.659 151.172 366.595V400.058Z" fill="#219653"/>
<path d="M119.263 400.058V366.782C119.247 337.845 109.82 309.699 92.4055 286.589C74.991 263.479 50.5336 246.66 22.7227 238.668L22.6828 238.656L20.8258 238.135C18.3972 237.455 16.3013 238.082 15.0539 238.658C13.7879 239.243 12.7762 240.046 12.0384 240.729C10.5481 242.108 9.20839 243.903 8.06125 245.736C5.72206 249.473 3.46191 254.531 1.93641 260.038C-0.948738 270.452 -2.01368 285.862 9.02341 295.725C12.5704 298.895 16.2531 301.932 20.0455 305.06C29.2179 312.625 39.0326 320.72 49.1187 332.506C61.9179 347.463 74.8348 368.173 85.1716 400.058H119.263Z" fill="#219653"/>
<path fill-rule="evenodd" clip-rule="evenodd" d="M260.585 242.969C237.77 251.953 217.789 267.09 202.934 286.803C185.52 309.913 176.093 338.059 176.076 366.996V400.061H185.202C195.54 368.072 208.483 347.315 221.309 332.331C231.381 320.565 241.18 312.481 250.341 304.924C254.151 301.78 257.852 298.727 261.416 295.538L261.42 295.535C272.436 285.663 271.375 270.262 268.492 259.848C266.968 254.343 264.71 249.286 262.373 245.55C261.82 244.667 261.223 243.793 260.585 242.969ZM119.265 366.785V400.061H109.947C99.6319 368.401 86.7692 347.801 74.0233 332.907C63.9371 321.12 54.1225 313.026 44.95 305.461C41.1577 302.333 37.4749 299.296 33.9279 296.125C22.8909 286.263 23.9558 270.853 26.8409 260.438C28.3664 254.932 30.6266 249.873 32.9658 246.136C33.6565 245.033 34.4171 243.943 35.2383 242.949C57.8526 251.956 77.6561 267.018 92.4065 286.592C109.821 309.702 119.248 337.848 119.265 366.785Z" fill="#27AE60"/>
</svg>
