<svg width="521" height="389" viewBox="0 0 521 389" fill="none" xmlns="http://www.w3.org/2000/svg">
<path d="M276.312 283.092L246.616 264.487L230.814 294.47C229.918 296.17 228.342 297.41 226.479 297.881C224.615 298.352 222.64 298.01 221.043 296.939L185.206 272.907L164.696 308.485C162.873 311.648 158.871 312.798 155.646 311.086L121.446 292.931L102.097 325.321C101.159 326.89 99.627 328.014 97.8485 328.438C96.0701 328.862 94.1959 328.549 92.6514 327.571L53.8256 302.981L34.9182 330.317C53.9664 359.527 79.1475 377.211 107.257 384.741C107.381 384.445 107.527 384.154 107.696 383.87L130.351 345.948C132.203 342.849 136.159 341.745 139.348 343.437L173.458 361.546L194.322 325.354C195.259 323.728 196.829 322.563 198.658 322.138C200.486 321.712 202.409 322.065 203.969 323.11L242.633 349.038C259.548 332.158 271.414 310.12 276.312 283.092Z" fill="#C34940"/>
<path d="M253.769 149.225L216.949 131.783L200.77 162.482C199.873 164.182 198.297 165.422 196.434 165.893C194.571 166.364 192.595 166.022 190.998 164.951L155.161 140.919L134.652 176.497C132.828 179.66 128.826 180.81 125.601 179.098L91.4014 160.943L72.0517 193.332C71.1141 194.902 69.5822 196.026 67.8037 196.45C66.0252 196.873 64.1511 196.561 62.6065 195.582L23.7808 170.993L0 205.375C0.525699 223.32 2.70993 241.531 6.65943 259.438L32.5866 221.953C34.6552 218.962 38.7154 218.137 41.7875 220.082L80.2345 244.432L99.3213 212.482C101.173 209.383 105.129 208.279 108.318 209.972L142.429 228.08L163.292 191.889C164.229 190.262 165.8 189.098 167.628 188.672C169.457 188.247 171.38 188.599 172.939 189.644L208.543 213.52L224.237 183.741C225.116 182.073 226.65 180.847 228.47 180.357C230.291 179.866 232.234 180.157 233.831 181.158L270.134 203.901L272.146 201.889C272.074 201.59 272.001 201.291 271.928 200.991C267.529 183.134 261.437 165.804 253.769 149.225Z" fill="#C34940"/>
<path d="M232.157 358.331L202.441 338.404L181.932 373.982C180.108 377.145 176.106 378.296 172.881 376.583L138.681 358.428L121.242 387.619C139.181 390.251 158.041 389.078 177.063 384.426C197.895 379.331 216.62 370.601 232.157 358.331Z" fill="#21672A"/>
<path d="M243.671 129.44C234.261 112.644 223.152 96.7823 210.479 82.116L210.492 82.138C207.963 79.223 205.351 76.3849 202.66 73.627L181.792 99.0982C179.558 101.825 175.607 102.384 172.704 100.384L134.429 74.0168L113.965 109.515C112.141 112.678 108.14 113.829 104.915 112.117L70.7147 93.9611L51.365 126.351C50.4273 127.92 48.8954 129.044 47.117 129.468C45.3385 129.892 43.4643 129.579 41.9198 128.601L13.8784 110.841C6.2961 132.108 1.6673 156.076 0.299805 181.106L16.3323 157.926C18.4009 154.935 22.4611 154.11 25.5332 156.056L63.9802 180.405L83.067 148.456C84.9186 145.356 88.8748 144.252 92.0637 145.945L126.174 164.053L147.038 127.862C147.975 126.236 149.545 125.071 151.374 124.646C153.202 124.22 155.125 124.572 156.685 125.618L192.288 149.493L207.982 119.715C209.675 116.503 213.599 115.195 216.88 116.749L243.671 129.44Z" fill="#21672A"/>
<path d="M275.459 217.707C273.227 219.579 270.016 219.825 267.509 218.255L232.821 196.523L217.019 226.506C216.123 228.206 214.547 229.446 212.684 229.917C210.82 230.388 208.845 230.046 207.248 228.975L171.411 204.943L150.901 240.521C149.078 243.684 145.076 244.834 141.851 243.122L107.651 224.967L88.3015 257.356C87.3639 258.926 85.832 260.05 84.0536 260.474C82.2751 260.897 80.4009 260.585 78.8564 259.606L40.0306 235.017L11.0959 276.85C15.5112 292.014 20.9749 305.525 27.3279 317.453L46.3741 289.917C48.4426 286.926 52.5028 286.1 55.5749 288.046L94.0219 312.396L113.109 280.446C114.96 277.347 118.916 276.243 122.105 277.936L156.216 296.044L177.079 259.853C178.017 258.226 179.587 257.061 181.415 256.636C183.244 256.211 185.167 256.563 186.726 257.608L222.33 281.484L238.024 251.705C238.903 250.037 240.437 248.811 242.258 248.321C244.078 247.83 246.021 248.121 247.619 249.122L278.239 268.306C279.515 252.859 278.687 235.985 275.459 217.707Z" fill="#CA9C3B"/>
<path d="M192.838 64.23L175.261 85.6841L136.073 58.6876C134.515 57.6142 132.579 57.2409 130.733 57.6581C128.888 58.0753 127.301 59.2449 126.356 60.8841L105.492 97.0754L71.3818 78.9672C68.1929 77.2744 64.2367 78.3783 62.3851 81.4778L43.2984 113.427L18.96 98.0131C34.3449 62.8708 58.5819 37.0428 90.0212 29.3212C117.431 22.586 146.212 30.4144 172.822 48.5569C179.831 53.3508 186.516 58.5869 192.838 64.23Z" fill="#CA9C3B"/>
<path d="M276.304 283.09L246.61 264.487L230.808 294.47C229.912 296.17 228.336 297.41 226.472 297.881C224.609 298.352 222.633 298.01 221.037 296.939L185.199 272.907L164.69 308.485C162.866 311.648 158.865 312.798 155.64 311.086L121.44 292.931L102.09 325.321C101.152 326.89 99.6206 328.014 97.8421 328.438C96.0637 328.862 94.1895 328.549 92.645 327.571L68.2676 312.132C81.2164 337.194 97.7284 355.965 116.596 368.962L130.345 345.948C132.196 342.849 136.152 341.745 139.341 343.437L173.452 361.546L194.315 325.354C195.253 323.728 196.823 322.563 198.651 322.138C200.48 321.712 202.403 322.065 203.962 323.11L242.625 349.037C259.54 332.157 271.406 310.119 276.304 283.09Z" fill="#F0574B"/>
<path d="M253.765 149.223C261.433 165.803 267.525 183.134 271.924 200.991C271.998 201.291 272.071 201.591 272.143 201.891L270.132 203.901L233.83 181.158C232.232 180.157 230.29 179.866 228.469 180.357C226.648 180.847 225.114 182.073 224.235 183.741L208.541 213.52L172.937 189.645C171.378 188.599 169.455 188.247 167.627 188.672C165.798 189.098 164.228 190.262 163.29 191.889L142.427 228.08L108.316 209.972C105.128 208.279 101.171 209.383 99.3198 212.482L80.233 244.432L41.7993 220.091C40.2967 207.031 39.6187 193.971 39.7306 181.095L62.605 195.582C64.1495 196.561 66.0237 196.873 67.8022 196.45C69.5806 196.026 71.1125 194.902 72.0501 193.332L91.3999 160.943L125.6 179.098C128.825 180.81 132.826 179.66 134.65 176.497L155.16 140.919L190.997 164.951C192.593 166.022 194.569 166.364 196.432 165.893C198.296 165.422 199.872 164.182 200.768 162.482L216.947 131.783L253.765 149.223Z" fill="#F0574B"/>
<path d="M232.154 358.33L202.439 338.404L181.93 373.982C180.106 377.145 176.105 378.295 172.88 376.583L138.68 358.428L128.154 376.047C137.895 381.331 148.151 385.236 158.776 387.825C164.837 387.059 170.939 385.922 177.059 384.426C197.892 379.331 216.617 370.601 232.154 358.33Z" fill="#399947"/>
<path d="M243.666 129.439L216.878 116.75C213.597 115.196 209.674 116.503 207.981 119.715L192.287 149.494L156.683 125.619C155.124 124.573 153.201 124.221 151.372 124.646C149.544 125.072 147.973 126.236 147.036 127.863L126.173 164.054L92.0619 145.946C88.873 144.253 84.9169 145.357 83.0652 148.456L63.9785 180.406L40.2607 165.385C40.9861 153.156 42.4315 141.167 44.566 129.582C45.407 129.705 46.2719 129.67 47.1152 129.469C48.8937 129.045 50.4256 127.921 51.3632 126.352L70.7129 93.9618L104.913 112.117C108.138 113.829 112.14 112.679 113.963 109.516L134.427 74.0175L172.702 100.385C175.605 102.385 179.556 101.826 181.79 99.0989L202.657 73.6289C205.348 76.3865 207.959 79.2242 210.488 82.1387L210.475 82.1167C223.148 96.7826 234.256 112.644 243.666 129.439Z" fill="#399947"/>
<path d="M44.3386 237.745C45.5335 244.65 46.9647 251.533 48.6372 258.365C51.3873 269.599 54.6358 280.069 58.3353 289.794L94.0227 312.396L113.109 280.446C114.961 277.347 118.917 276.243 122.106 277.936L156.217 296.044L177.08 259.853C178.018 258.226 179.588 257.061 181.416 256.636C183.245 256.211 185.168 256.563 186.727 257.608L222.331 281.484L238.025 251.705C238.904 250.037 240.438 248.811 242.259 248.321C244.079 247.83 246.022 248.121 247.619 249.122L278.238 268.304C279.514 252.859 278.686 235.985 275.458 217.709C273.226 219.579 270.016 219.825 267.51 218.255L232.822 196.523L217.02 226.506C216.124 228.206 214.548 229.446 212.685 229.917C210.821 230.388 208.845 230.046 207.249 228.975L171.412 204.943L150.902 240.521C149.079 243.684 145.077 244.834 141.852 243.122L107.652 224.967L88.3023 257.356C87.3647 258.926 85.8328 260.05 84.0543 260.474C82.2759 260.897 80.4017 260.585 78.8572 259.606L44.3386 237.745Z" fill="#F1BF52"/>
<path d="M192.833 64.2312C186.511 58.5876 179.825 53.3511 172.815 48.5569C146.805 30.8234 118.721 22.9442 91.8705 28.8879C74.5538 46.2923 61.1894 70.4039 52.3259 98.3088L62.3808 81.4778C64.2324 78.3783 68.1886 77.2744 71.3775 78.9672L105.488 97.0754L126.351 60.8841C127.296 59.2449 128.883 58.0753 130.729 57.6581C132.574 57.2409 134.51 57.6142 136.068 58.6876L175.257 85.6841L192.833 64.2312Z" fill="#F1BF52"/>
<path d="M484.129 126.313C492.401 169.555 490.326 214.138 478.072 256.426C449.207 355.616 379.065 385.373 308.823 364.891C238.582 344.408 195.296 281.868 224.162 182.678C253.028 83.4875 338.037 2.77127 408.278 23.1797C434.662 30.8421 455.114 51.449 468.715 79.6934C475.828 94.519 481.008 110.195 484.129 126.338" fill="white"/>
<path d="M514.925 111.765C523.622 157.224 521.44 204.094 508.558 248.55C478.212 352.827 404.473 384.111 330.63 362.577C256.786 341.044 211.28 275.297 241.626 171.02C271.973 66.7432 361.341 -18.1123 435.185 3.34275C462.922 11.3982 484.422 33.0617 498.721 62.7546C506.199 78.3405 511.645 94.8205 514.925 111.791" fill="#F1BF52"/>
<path d="M508.558 248.55C521.44 204.094 523.622 157.224 514.925 111.765V111.791C511.645 94.8204 506.199 78.3405 498.721 62.7546C484.745 33.7311 463.887 12.379 437.051 3.9082C371.781 21.5742 307.024 96.9443 281.324 185.15C258.835 262.331 274.776 320.014 312.689 356.235C318.451 358.657 324.441 360.773 330.63 362.577C404.473 384.111 478.212 352.827 508.558 248.55Z" fill="#FFDD96"/>
<path d="M451.396 32.0902C450.495 28.7029 450.482 25.1409 451.356 21.7466C452.23 18.3524 453.962 15.2401 456.387 12.709C465.931 18.5476 474.381 26.0113 481.353 34.7624C480.759 35.7775 480.185 36.7944 479.518 37.7593C477.437 40.6079 474.603 42.8197 471.334 44.1463C468.544 45.069 465.588 45.3797 462.667 45.0574C459.938 43.8776 457.508 42.1 455.557 39.8556C453.606 37.6113 452.184 34.9576 451.396 32.0902Z" fill="#F1BF52"/>
<path d="M426.235 123.128C426.236 123.126 426.236 123.125 426.237 123.124C427.998 120.811 430.246 118.912 432.821 117.562C437.873 114.914 444.216 116.253 448.101 120.431C449.666 122.114 450.983 124.031 451.997 126.13C453.65 129.661 454.339 133.566 453.994 137.45C453.65 141.334 452.283 145.057 450.034 148.242C449.895 148.422 449.753 148.602 449.609 148.779C445.63 153.688 438.737 155.886 433.09 153.049C432.639 152.823 432.196 152.578 431.761 152.317C428.547 150.383 425.945 147.581 424.254 144.233C422.564 140.885 421.853 137.127 422.203 133.393C422.554 129.66 423.952 126.102 426.235 123.128Z" fill="#F1BF52"/>
<path d="M305.896 290.298L305.896 290.295C306.746 287.523 308.187 284.969 310.121 282.809C310.734 282.125 311.392 281.485 312.089 280.894C315.076 278.361 319.165 277.355 322.969 278.283C324.457 278.646 325.903 279.188 327.274 279.902C330.405 281.533 333.025 283.999 334.842 287.026C336.661 290.144 337.536 293.723 337.359 297.328C337.182 300.933 335.962 304.409 333.846 307.333C331.286 310.324 327.744 312.306 323.856 312.925C319.967 313.543 315.986 312.758 312.623 310.709C309.261 308.66 306.738 305.481 305.505 301.741C304.273 298.004 304.411 293.949 305.894 290.304C305.895 290.302 305.895 290.3 305.896 290.298Z" fill="#F1BF52"/>
<path d="M401.663 286.191C401.664 286.188 401.666 286.185 401.668 286.182C403.375 284.187 405.458 282.548 407.798 281.359C412.405 279.017 418.095 279.95 421.948 283.394C423.984 285.214 425.696 287.396 426.984 289.852C428.959 293.693 429.759 298.031 429.287 302.324C428.815 306.617 427.091 310.677 424.329 313.998C419.735 320.255 413.844 320.261 407.028 316.566C404.463 315.114 402.25 313.114 400.549 310.707C398.847 308.3 397.699 305.547 397.187 302.645C396.674 299.742 396.809 296.762 397.583 293.918C398.356 291.077 399.747 288.441 401.657 286.2C401.66 286.198 401.662 286.194 401.663 286.191Z" fill="#F1BF52"/>
<path d="M337.299 363.827C338.593 361.28 340.416 359.039 342.646 357.253C344.877 355.467 347.462 354.178 350.231 353.472C357.248 353.317 365.416 355.593 368.792 362.338C369.598 364.328 370.003 366.458 369.983 368.605C358.947 368.211 347.986 366.609 337.299 363.827Z" fill="#F1BF52"/>
<path d="M377.811 44.6719C377.811 44.6719 377.811 44.6711 377.811 44.6708C379.8 42.4146 382.28 40.6438 385.06 39.4939C386.645 38.8381 388.304 38.3943 389.993 38.1694C392.517 37.8336 395.074 38.5748 397.09 40.13C400.266 42.581 402.766 45.8344 404.313 49.5847C405.699 53.077 406.168 56.8659 405.676 60.5907C405.184 64.3155 403.746 67.8523 401.5 70.8645C400.01 72.8426 398.217 74.5619 396.195 75.9631C394.084 77.4258 391.467 78.0338 388.944 77.5554C386.455 77.0836 384.068 76.1395 381.914 74.7616C378.66 72.6795 376.081 69.6967 374.491 66.176C372.901 62.6553 372.369 58.7484 372.958 54.9306C373.548 51.113 375.234 47.5489 377.811 44.6719C377.812 44.6719 377.812 44.6717 377.811 44.6719Z" fill="#F0574B"/>
<path d="M273.165 99.414C280.018 87.9052 287.744 76.94 296.276 66.6151C304.045 71.7058 302.325 83.5606 299.125 90.929C293.912 102.934 284.645 105.939 273.165 99.414Z" fill="#F0574B"/>
<path d="M511.861 144.462C514.201 143.115 516.818 142.319 519.512 142.136C520.393 153.605 520.603 165.116 520.14 176.609C517.08 175.894 514.23 174.474 511.815 172.462C509.401 170.451 507.49 167.903 506.234 165.023C502.937 157.378 504.469 148.715 511.861 144.462Z" fill="#F0574B"/>
<path d="M309.996 153.364C309.995 153.364 309.994 153.363 309.994 153.362C310.332 149.991 311.738 146.816 314.007 144.3C316.277 141.784 319.292 140.058 322.611 139.376C325.93 138.694 329.381 139.09 332.459 140.507C335.538 141.924 338.083 144.287 339.723 147.252C341.882 150.238 343.14 153.781 343.348 157.46C343.556 161.139 342.705 164.8 340.896 168.01C338.638 171.548 335.167 174.14 331.133 175.3C327.1 176.46 322.782 176.108 318.99 174.31C315.197 172.513 312.192 169.393 310.536 165.536C308.881 161.681 308.69 157.354 309.998 153.367C309.999 153.366 309.998 153.364 309.996 153.364Z" fill="#F0574B"/>
<path d="M354.905 236.157C354.905 236.158 354.906 236.158 354.906 236.157C356.196 232.651 358.442 229.577 361.39 227.283C362.344 226.54 363.359 225.889 364.422 225.335C368.821 223.041 374.288 223.665 378.17 226.754C379.309 227.66 380.358 228.682 381.296 229.806C382.503 231.25 383.658 232.752 384.659 234.346C385.78 236.128 386.565 238.111 386.964 240.196C387.54 243.21 387.29 246.324 386.239 249.208C385.188 252.091 383.376 254.636 380.994 256.572C378.613 258.508 375.751 259.763 372.714 260.203C369.677 260.643 366.577 260.252 363.744 259.072C360.911 257.892 358.45 255.966 356.624 253.5C354.798 251.034 353.673 248.119 353.371 245.064C353.068 242.011 353.598 238.933 354.904 236.157C354.905 236.156 354.905 236.156 354.905 236.157Z" fill="#F0574B"/>
<path d="M452.297 216.721C452.296 216.721 452.296 216.72 452.296 216.719C453.443 213.334 455.473 210.316 458.176 207.977C459.2 207.091 460.306 206.315 461.476 205.657C465.289 203.514 470.043 203.556 473.865 205.684C476.687 207.255 479.137 209.466 481.001 212.176C483.355 215.746 484.511 219.973 484.303 224.244C484.094 228.515 482.531 232.609 479.84 235.933C478.535 237.447 477.046 238.777 475.413 239.895C471.578 242.523 466.524 243.036 462.357 240.975C461.796 240.697 461.248 240.393 460.713 240.062C458.172 238.491 456.016 236.369 454.404 233.853C452.793 231.337 451.767 228.492 451.402 225.526C451.037 222.561 451.343 219.552 452.297 216.721C452.297 216.721 452.297 216.72 452.297 216.721Z" fill="#F0574B"/>
<path d="M232.499 244.72C239.773 242.594 244.401 247.012 247.975 253.173C251.547 259.73 253.165 267.764 250.735 274.985C248.794 280.148 246.09 282.811 240.643 283.745C236.104 271.185 233.363 258.047 232.499 244.72Z" fill="#F0574B"/>
</svg>
